# This file uses centimeters as units for non-parametric coordinates.

v 0.275346 0.553060 0.468853
v 0.275347 0.553060 0.217155
v 0.179737 0.553060 0.468853
v 0.179737 0.553060 0.217155
v 0.179737 -0.012465 0.468853
v 0.275346 -0.012465 0.468853
v 0.179737 0.458029 0.373822
v 0.179737 0.458029 0.217155
v 0.179737 -0.012465 0.373822
v 0.275346 -0.012465 0.373822
v 0.275347 0.458029 0.217155
v 0.275346 0.458029 0.373822
v 0.470408 0.553060 0.468853
v 0.470409 0.553060 0.217155
v 0.374800 0.553060 0.468853
v 0.374800 0.553060 0.217155
v 0.374800 -0.012465 0.468853
v 0.470408 -0.012465 0.468853
v 0.374800 0.458029 0.373822
v 0.374800 0.458029 0.217155
v 0.374800 -0.012465 0.373822
v 0.470408 -0.012465 0.373822
v 0.470409 0.458029 0.217155
v 0.470408 0.458029 0.373822
v 2.358043 0.609796 0.039050
v 2.358043 0.609796 0.248706
v 2.358043 0.400139 0.248706
v 2.358043 0.400139 0.039050
v 2.641965 0.400139 0.248706
v 2.641965 0.609796 0.248706
v 2.641965 0.609796 0.039050
v 2.641965 0.400139 0.039050
v 2.358043 0.338861 0.000000
v 2.358043 0.671074 0.000000
v 2.641965 0.671074 0.000000
v 2.641965 0.338861 0.000000
v 2.358043 0.671074 0.309984
v 2.641965 0.671074 0.309984
v 2.358043 0.338861 0.309984
v 2.641965 0.338861 0.309984
v 0.036858 0.609796 0.039050
v 0.036858 0.609796 0.248706
v 0.036858 0.400139 0.248706
v 0.036858 0.400139 0.039050
v 4.952847 0.400139 0.248706
v 4.952847 0.609796 0.248706
v 4.952847 0.609796 0.039050
v 4.952847 0.400139 0.039050
v 0.000000 0.376165 0.272680
v 0.000000 0.376165 0.000000
v 0.000000 0.633770 0.272680
v 0.000000 0.633770 0.000000
v 0.036858 0.633770 0.000000
v 0.036858 0.633770 0.272680
v 0.036858 0.376165 0.272680
v 0.036858 0.376165 0.000000
v 5.000004 0.376165 0.272680
v 5.000004 0.376165 0.000000
v 5.000004 0.633770 0.000000
v 5.000004 0.633770 0.272680
v 4.952847 0.633770 0.272680
v 4.952847 0.376165 0.272680
v 4.952847 0.633770 0.000000
v 4.952847 0.376165 0.000000
vt 0.201286 0.047505
vt 0.233170 0.047500
vt 0.171076 0.047485
vt 0.171076 0.047485
vt 0.171076 0.047485
vt 0.201286 0.047505
vt 0.201286 0.047505
vt 0.233170 0.047500
vt 0.171076 0.047485
vt 0.233170 0.047500
vt 0.233170 0.047500
vt 0.201286 0.047505
vt 0.139745 0.047485
vt 0.200018 0.047504
vt 0.139745 0.047485
vt 0.200018 0.047504
vt 0.171076 0.047485
vt 0.139745 0.047485
vt 0.171076 0.047485
vt 0.200018 0.047504
vt 0.171076 0.047485
vt 0.139745 0.047485
vt 0.171076 0.047485
vt 0.200018 0.047504
vt 0.171076 0.047485
vt 0.171076 0.047485
vt 0.171076 0.047485
vt 0.171076 0.047485
vt 0.171076 0.047485
vt 0.171076 0.047485
vt 0.171076 0.047485
vt 0.171076 0.047485
vt 0.233170 0.047500
vt 0.233170 0.047500
vt 0.233170 0.047500
vt 0.233170 0.047500
vt 0.201286 0.047505
vt 0.201286 0.047505
vt 0.201286 0.047505
vt 0.201286 0.047505
vt 0.171076 0.047485
vt 0.171076 0.047485
vt 0.171076 0.047485
vt 0.171076 0.047485
vt 0.171076 0.047485
vt 0.171076 0.047485
vt 0.171076 0.047485
vt 0.171076 0.047485
vt 0.171076 0.047485
vt 0.171076 0.047485
vt 0.171076 0.047485
vt 0.171076 0.047485
vt 0.171076 0.047485
vt 0.171076 0.047485
vt 0.171076 0.047485
vt 0.171076 0.047485
vt 0.200018 0.047504
vt 0.200018 0.047504
vt 0.200018 0.047504
vt 0.200018 0.047504
vt 0.139745 0.047485
vt 0.139745 0.047485
vt 0.139745 0.047485
vt 0.139745 0.047485
vt 0.231434 0.047121
vt 0.231434 0.047121
vt 0.231434 0.047121
vt 0.231434 0.047121
vt 0.200977 0.047121
vt 0.200977 0.047121
vt 0.200977 0.047121
vt 0.200977 0.047121
vt 0.137612 0.047121
vt 0.137612 0.047121
vt 0.137612 0.047121
vt 0.137612 0.047121
vt 0.231434 0.047121
vt 0.231434 0.047121
vt 0.231434 0.047121
vt 0.231434 0.047121
vt 0.200977 0.047121
vt 0.200977 0.047121
vt 0.200977 0.047121
vt 0.200977 0.047121
vt 0.137612 0.047121
vt 0.137612 0.047121
vt 0.137612 0.047121
vt 0.137612 0.047121
vt 0.200977 0.047121
vt 0.200977 0.047121
vt 0.200977 0.047121
vt 0.200977 0.047121
vt 0.200977 0.047121
vt 0.200977 0.047121
vt 0.231434 0.047121
vt 0.231434 0.047121
vt 0.231434 0.047121
vt 0.231434 0.047121
vt 0.200977 0.047121
vt 0.200977 0.047121
vt 0.137612 0.047121
vt 0.137612 0.047121
vt 0.137612 0.047121
vt 0.137612 0.047121
vt 0.170260 0.047331
vt 0.170260 0.047331
vt 0.170260 0.047331
vt 0.170260 0.047331
vt 0.170260 0.047331
vt 0.170260 0.047331
vt 0.170260 0.047331
vt 0.170260 0.047331
vt 0.170260 0.047331
vt 0.170260 0.047331
vt 0.170260 0.047331
vt 0.170260 0.047331
vt 0.170260 0.047331
vt 0.170260 0.047331
vt 0.170260 0.047331
vt 0.170260 0.047331
vt 0.170260 0.047331
vt 0.170260 0.047331
vt 0.170260 0.047331
vt 0.170260 0.047331
vt 0.170260 0.047331
vt 0.170260 0.047331
vt 0.170260 0.047331
vt 0.170260 0.047331
vt 0.170260 0.047331
vt 0.170260 0.047331
vt 0.170260 0.047331
vt 0.170260 0.047331
vt 0.170260 0.047331
vt 0.170260 0.047331
vt 0.170260 0.047331
vt 0.170260 0.047331
vt 0.231434 0.047121
vt 0.139778 0.046962
vt 0.200977 0.047121
vt 0.139778 0.046962
vt 0.137612 0.047121
vt 0.139778 0.046962
vt 0.200977 0.047121
vt 0.139778 0.046962
vt 0.139778 0.046962
vt 0.200977 0.047121
vt 0.139778 0.046962
vt 0.231434 0.047121
vt 0.139778 0.046962
vt 0.200977 0.047121
vt 0.139778 0.046962
vt 0.137612 0.047121
vt 0.231434 0.047121
vt 0.139778 0.046962
vt 0.200977 0.047121
vt 0.200977 0.047121
vt 0.137612 0.047121
vt 0.137612 0.047121
vt 0.139778 0.046962
vt 0.200977 0.047121
vt 0.139778 0.046962
vt 0.231434 0.047121
vt 0.231434 0.047121
vt 0.139778 0.046962
vt 0.137612 0.047121
vt 0.139778 0.046962
vt 0.139778 0.046962
vt 0.200977 0.047121
vt 0.137612 0.047121
vt 0.139778 0.046962
vt 0.139778 0.046962
vt 0.200977 0.047121
vt 0.139778 0.046962
vt 0.139778 0.046962
vt 0.139778 0.046962
vt 0.231434 0.047121
vt 0.139778 0.046962
vt 0.137612 0.047121
vt 0.139778 0.046962
vt 0.200977 0.047121
vt 0.139778 0.046962
vt 0.139778 0.046962
vt 0.139778 0.046962
vt 0.231434 0.047121
vt 0.139778 0.046962
vt 0.139778 0.046962
vt 0.137612 0.047121
vt 0.139778 0.046962
vt 0.139778 0.046962
vt 0.139778 0.046962
vt 0.200977 0.047121
vt 0.139778 0.046962
vt 0.231434 0.047121
vt 0.139778 0.046962
vt 0.200977 0.047121
vt 0.139778 0.046962
vn 0.000000 1.000000 0.000000
vn 0.000000 1.000000 0.000000
vn 0.000000 1.000000 0.000000
vn 0.000000 1.000000 0.000000
vn 0.000000 0.000000 1.000000
vn 0.000000 0.000000 1.000000
vn 0.000000 0.000000 1.000000
vn 0.000000 0.000000 1.000000
vn -1.000000 0.000000 0.000000
vn -1.000000 0.000000 0.000000
vn -1.000000 0.000000 0.000000
vn -1.000000 0.000000 0.000000
vn -1.000000 0.000000 0.000000
vn -1.000000 0.000000 0.000000
vn -1.000000 0.000000 0.000000
vn -1.000000 0.000000 0.000000
vn 1.000000 -0.000002 0.000005
vn 1.000000 -0.000002 0.000005
vn 1.000000 -0.000002 0.000005
vn 1.000000 -0.000002 0.000005
vn 1.000000 0.000000 0.000000
vn 1.000000 0.000000 0.000000
vn 1.000000 0.000000 0.000000
vn 1.000000 0.000000 0.000000
vn 0.000000 0.000000 -1.000000
vn 0.000000 0.000000 -1.000000
vn 0.000000 0.000000 -1.000000
vn 0.000000 0.000000 -1.000000
vn 0.000000 -1.000000 0.000000
vn 0.000000 -1.000000 0.000000
vn 0.000000 -1.000000 0.000000
vn 0.000000 -1.000000 0.000000
vn 0.000000 1.000000 0.000000
vn 0.000000 1.000000 0.000000
vn 0.000000 1.000000 0.000000
vn 0.000000 1.000000 0.000000
vn 0.000000 0.000000 1.000000
vn 0.000000 0.000000 1.000000
vn 0.000000 0.000000 1.000000
vn 0.000000 0.000000 1.000000
vn -1.000000 -0.000000 0.000000
vn -1.000000 -0.000000 0.000000
vn -1.000000 -0.000000 0.000000
vn -1.000000 -0.000000 0.000000
vn -1.000000 0.000000 0.000000
vn -1.000000 0.000000 0.000000
vn -1.000000 0.000000 0.000000
vn -1.000000 0.000000 0.000000
vn 1.000000 -0.000002 0.000005
vn 1.000000 -0.000002 0.000005
vn 1.000000 -0.000002 0.000005
vn 1.000000 -0.000002 0.000005
vn 1.000000 0.000000 0.000000
vn 1.000000 0.000000 0.000000
vn 1.000000 0.000000 0.000000
vn 1.000000 0.000000 0.000000
vn 0.000000 0.000000 -1.000000
vn 0.000000 0.000000 -1.000000
vn 0.000000 0.000000 -1.000000
vn 0.000000 0.000000 -1.000000
vn 0.000000 -1.000000 0.000000
vn 0.000000 -1.000000 0.000000
vn 0.000000 -1.000000 0.000000
vn 0.000000 -1.000000 0.000000
vn 0.000000 1.000000 0.000000
vn 0.000000 1.000000 0.000000
vn 0.000000 1.000000 0.000000
vn 0.000000 1.000000 0.000000
vn 0.000000 0.000000 1.000000
vn 0.000000 0.000000 1.000000
vn 0.000000 0.000000 1.000000
vn 0.000000 0.000000 1.000000
vn 0.000000 -1.000000 0.000000
vn 0.000000 -1.000000 0.000000
vn 0.000000 -1.000000 0.000000
vn 0.000000 -1.000000 0.000000
vn 0.000000 1.000000 0.000000
vn 0.000000 1.000000 0.000000
vn 0.000000 1.000000 0.000000
vn 0.000000 1.000000 0.000000
vn 0.000000 0.000000 1.000000
vn 0.000000 0.000000 1.000000
vn 0.000000 0.000000 1.000000
vn 0.000000 0.000000 1.000000
vn 0.000000 -1.000000 0.000000
vn 0.000000 -1.000000 0.000000
vn 0.000000 -1.000000 0.000000
vn 0.000000 -1.000000 0.000000
vn 0.000000 0.000000 -1.000000
vn 0.000000 0.000000 -1.000000
vn 0.000000 0.000000 -1.000000
vn 0.000000 0.000000 -1.000000
vn -0.000000 0.000000 1.000000
vn -0.000000 0.000000 1.000000
vn -0.000000 0.000000 1.000000
vn -0.000000 0.000000 1.000000
vn 0.000000 1.000000 0.000000
vn 0.000000 1.000000 0.000000
vn 0.000000 1.000000 0.000000
vn 0.000000 1.000000 0.000000
vn 0.000000 0.000000 -1.000000
vn 0.000000 0.000000 -1.000000
vn 0.000000 0.000000 -1.000000
vn 0.000000 0.000000 -1.000000
vn -0.000000 -1.000000 0.000000
vn -0.000000 -1.000000 0.000000
vn -0.000000 -1.000000 0.000000
vn -0.000000 -1.000000 0.000000
vn -1.000000 0.000000 0.000000
vn -1.000000 0.000000 0.000000
vn -1.000000 0.000000 0.000000
vn -1.000000 0.000000 0.000000
vn 1.000000 0.000000 0.000000
vn 1.000000 0.000000 0.000000
vn 1.000000 0.000000 0.000000
vn 1.000000 0.000000 0.000000
vn -1.000000 0.000001 0.000000
vn -1.000000 0.000001 0.000000
vn -1.000000 0.000001 0.000000
vn -1.000000 0.000001 0.000000
vn 1.000000 -0.000003 0.000000
vn 1.000000 -0.000003 0.000000
vn 1.000000 -0.000003 0.000000
vn 1.000000 -0.000003 0.000000
vn -1.000000 0.000000 0.000000
vn -1.000000 0.000000 0.000000
vn -1.000000 0.000000 0.000000
vn -1.000000 0.000000 0.000000
vn 1.000000 0.000000 0.000000
vn 1.000000 0.000000 0.000000
vn 1.000000 0.000000 0.000000
vn 1.000000 0.000000 0.000000
vn -1.000000 -0.000001 0.000000
vn -1.000000 -0.000001 0.000000
vn -1.000000 -0.000001 0.000000
vn -1.000000 -0.000001 0.000000
vn 1.000000 0.000002 0.000000
vn 1.000000 0.000002 0.000000
vn 1.000000 0.000002 0.000000
vn 1.000000 0.000002 0.000000
vn 0.000000 1.000000 0.000000
vn 0.000000 1.000000 0.000000
vn 0.000000 1.000000 0.000000
vn 0.000000 1.000000 0.000000
vn 0.000000 0.000000 1.000000
vn 0.000000 0.000000 1.000000
vn 0.000000 0.000000 1.000000
vn 0.000000 0.000000 1.000000
vn 0.000000 -1.000000 0.000000
vn 0.000000 -1.000000 0.000000
vn 0.000000 -1.000000 0.000000
vn 0.000000 -1.000000 0.000000
vn 0.000000 0.000000 1.000000
vn 0.000000 0.000000 1.000000
vn 0.000000 0.000000 1.000000
vn 0.000000 0.000000 1.000000
vn 0.000000 1.000000 0.000000
vn 0.000000 1.000000 0.000000
vn 0.000000 1.000000 0.000000
vn 0.000000 1.000000 0.000000
vn 0.000001 -1.000000 0.000000
vn 0.000001 -1.000000 0.000000
vn 0.000001 -1.000000 0.000000
vn 0.000001 -1.000000 0.000000
vn 1.000000 -0.000000 0.000000
vn 1.000000 -0.000000 0.000000
vn 1.000000 -0.000000 0.000000
vn 1.000000 -0.000000 0.000000
vn 1.000000 0.000000 0.000000
vn 1.000000 0.000000 0.000000
vn 1.000000 0.000000 0.000000
vn 1.000000 0.000000 0.000000
vn 1.000000 0.000000 0.000000
vn 1.000000 0.000000 0.000000
vn 1.000000 0.000000 0.000000
vn 1.000000 0.000000 0.000000
vn 1.000000 0.000000 0.000000
vn 1.000000 0.000000 0.000000
vn 1.000000 0.000000 0.000000
vn 1.000000 0.000000 0.000000
vn -1.000000 0.000000 0.000000
vn -1.000000 0.000000 0.000000
vn -1.000000 0.000000 0.000000
vn -1.000000 0.000000 0.000000
vn -1.000000 0.000003 0.000000
vn -1.000000 0.000003 0.000000
vn -1.000000 0.000003 0.000000
vn -1.000000 0.000003 0.000000
vn -1.000000 0.000000 0.000000
vn -1.000000 0.000000 0.000000
vn -1.000000 0.000000 0.000000
vn -1.000000 0.000000 0.000000
vn -1.000000 -0.000003 0.000000
vn -1.000000 -0.000003 0.000000
vn -1.000000 -0.000003 0.000000
vn -1.000000 -0.000003 0.000000
s off
f 1/10/1 2/2/2 4/11/3 3/8/4
f 6/6/5 1/1/6 3/12/7 5/7/8
f 3/3/9 4/31/10 8/27/11 7/23/12
f 5/9/13 3/32/14 7/28/15 9/21/16
f 2/5/17 1/29/18 12/25/19 11/19/20
f 1/4/21 6/30/22 10/26/23 12/17/24
f 9/14/25 7/24/26 12/16/27 10/20/28
f 8/22/29 11/15/30 12/18/31 7/13/32
f 13/33/33 14/34/34 16/35/35 15/36/36
f 18/37/37 13/38/38 15/39/39 17/40/40
f 15/41/41 16/42/42 20/43/43 19/44/44
f 17/45/45 15/46/46 19/47/47 21/48/48
f 14/49/49 13/50/50 24/51/51 23/52/52
f 13/53/53 18/54/54 22/55/55 24/56/56
f 21/57/57 19/58/58 24/59/59 22/60/60
f 20/61/61 23/62/62 24/63/63 19/64/64
f 34/65/65 37/66/66 38/67/67 35/68/68
f 37/69/69 39/70/70 40/71/71 38/72/72
f 39/73/73 33/74/74 36/75/75 40/76/76
f 26/77/77 25/78/78 41/137/79 42/193/80
f 27/81/81 26/82/82 42/139/83 43/191/84
f 28/85/85 27/86/86 43/141/87 44/187/88
f 25/89/89 28/90/90 44/143/91 41/195/92
f 45/146/93 46/180/94 30/92/95 29/93/96
f 46/148/97 47/176/98 31/96/99 30/97/100
f 47/150/101 48/172/102 32/99/103 31/100/104
f 48/152/105 45/178/106 29/102/107 32/103/108
f 28/105/109 25/135/110 34/131/111 33/108/112
f 31/109/113 32/133/114 36/121/115 35/112/116
f 25/106/117 26/132/118 37/127/119 34/107/120
f 30/115/121 31/134/122 35/129/123 38/116/124
f 26/113/125 27/128/126 39/123/127 37/114/128
f 29/119/129 30/130/130 38/125/131 40/120/132
f 27/117/133 28/136/134 33/124/135 39/118/136
f 32/110/137 29/126/138 40/122/139 36/111/140
f 54/153/141 53/184/142 52/79/143 51/80/144
f 55/155/145 54/156/146 51/83/147 49/84/148
f 56/157/149 55/158/150 49/87/151 50/88/152
f 60/91/153 61/160/154 62/168/155 57/94/156
f 59/95/157 63/162/158 61/163/159 60/98/160
f 57/101/161 62/169/162 64/165/163 58/104/164
f 42/140/165 41/196/166 53/154/167 54/189/168
f 43/142/169 42/194/170 54/190/171 55/185/172
f 44/144/173 43/192/174 55/186/175 56/182/176
f 41/138/177 44/188/178 56/183/179 53/159/180
f 46/147/181 45/179/182 62/161/183 61/174/184
f 47/149/185 46/181/186 61/175/187 63/170/188
f 48/151/189 47/177/190 63/171/191 64/166/192
f 45/145/193 48/173/194 64/167/195 62/164/196
