# This file uses centimeters as units for non-parametric coordinates.

v 1.568184 0.000000 -0.052162
v -1.568184 0.000000 -0.052162
v 1.568184 0.730624 -0.052162
v -1.568184 0.730624 -0.052162
v 1.568184 0.730624 0.052161
v -1.568184 0.730624 0.052161
v 1.568184 0.000000 0.052161
v -1.568184 0.000000 0.052161
v -0.784092 0.730624 0.052161
v -0.784092 0.730624 -0.052162
v 0.784092 0.730624 0.052161
v 0.784092 0.730624 -0.052162
v -0.627274 0.730624 0.052161
v -0.627274 0.730624 -0.052162
v 0.627274 0.730624 0.052161
v 0.627274 0.730624 -0.052162
v -0.627274 0.910937 0.052161
v -0.627274 0.910937 -0.052162
v -0.784092 0.910937 -0.052162
v -0.784092 0.910937 0.052161
v 0.784092 0.910937 0.052161
v 0.784092 0.910937 -0.052162
v 0.627274 0.910937 -0.052162
v 0.627274 0.910937 0.052161
vt 0.359336 0.064127
vt 0.419568 0.064127
vt 0.359336 0.064127
vt 0.996154 0.775682
vt 0.419568 0.064127
vt 0.325746 0.064127
vt 0.780832 0.775682
vt 0.325746 0.064127
vt 0.325746 0.064127
vt 0.359336 0.064127
vt 0.359336 0.064127
vt 0.359336 0.064127
vt 0.359336 0.064127
vt 0.780832 0.722319
vt 0.325746 0.064127
vt 0.419568 0.064127
vt 0.996154 0.722319
vt 0.359336 0.064127
vt 0.419568 0.064127
vt 0.359336 0.064127
vt 0.395663 0.061838
vt 0.395663 0.061838
vt 0.395663 0.061838
vt 0.395663 0.061838
vt 0.834663 0.775682
vt 0.264082 0.086372
vt 0.230142 0.086372
vt 0.395663 0.061838
vt 0.942324 0.775682
vt 0.230142 0.086372
vt 0.264082 0.086372
vt 0.395663 0.061838
vt 0.845429 0.775682
vt 0.230142 0.086372
vt 0.264082 0.086372
vt 0.395663 0.061838
vt 0.931558 0.775682
vt 0.264082 0.086372
vt 0.230142 0.086372
vt 0.395663 0.061838
vt 0.299326 0.086372
vt 0.264082 0.086372
vt 0.230142 0.086372
vt 0.264082 0.086372
vt 0.299326 0.086372
vt 0.264082 0.086372
vt 0.230142 0.086372
vt 0.264082 0.086372
vt 0.230142 0.086372
vt 0.264082 0.086372
vt 0.230142 0.086372
vt 0.299326 0.086372
vt 0.264082 0.086372
vt 0.299326 0.086372
vt 0.419568 0.064127
vt 0.230142 0.086372
vt 0.230142 0.086372
vt 0.299326 0.086372
vt 0.419568 0.064127
vt 0.264082 0.086372
vt 0.419568 0.064127
vt 0.230142 0.086372
vt 0.419568 0.064127
vt 0.264082 0.086372
vt 0.230142 0.086372
vt 0.264082 0.086372
vt 0.230142 0.086372
vt 0.299326 0.086372
vt 0.264082 0.086372
vt 0.299326 0.086372
vt 0.419568 0.064127
vt 0.230142 0.086372
vt 0.230142 0.086372
vt 0.299326 0.086372
vt 0.419568 0.064127
vt 0.264082 0.086372
vt 0.419568 0.064127
vt 0.230142 0.086372
vt 0.419568 0.064127
vt 0.264082 0.086372
vn 0.000000 1.000000 0.000000
vn 0.000000 1.000000 0.000000
vn 0.000000 1.000000 0.000000
vn 0.000000 1.000000 0.000000
vn 0.000000 0.000000 1.000000
vn 0.000000 0.000000 1.000000
vn 0.000000 0.000000 1.000000
vn 0.000000 0.000000 1.000000
vn 0.000000 0.000000 1.000000
vn 0.000000 0.000000 1.000000
vn 0.000000 0.000000 1.000000
vn 0.000000 0.000000 1.000000
vn 0.000000 -1.000000 0.000000
vn 0.000000 -1.000000 0.000000
vn 0.000000 -1.000000 0.000000
vn 0.000000 -1.000000 0.000000
vn -1.000000 0.000000 0.000000
vn -1.000000 0.000000 0.000000
vn -1.000000 0.000000 0.000000
vn -1.000000 0.000000 0.000000
vn 1.000000 0.000000 0.000000
vn 1.000000 0.000000 0.000000
vn 1.000000 0.000000 0.000000
vn 1.000000 0.000000 0.000000
vn 0.000000 0.000000 -1.000000
vn 0.000000 0.000000 -1.000000
vn 0.000000 0.000000 -1.000000
vn 0.000000 0.000000 -1.000000
vn 0.000000 0.000000 -1.000000
vn 0.000000 0.000000 -1.000000
vn 0.000000 0.000000 -1.000000
vn 0.000000 0.000000 -1.000000
vn 0.000000 1.000000 0.000000
vn 0.000000 1.000000 0.000000
vn 0.000000 1.000000 0.000000
vn 0.000000 1.000000 0.000000
vn 0.000000 1.000000 0.000000
vn 0.000000 1.000000 0.000000
vn 0.000000 1.000000 0.000000
vn 0.000000 1.000000 0.000000
vn 0.000000 1.000000 0.000000
vn 0.000000 1.000000 0.000000
vn 0.000000 1.000000 0.000000
vn 0.000000 1.000000 0.000000
vn 0.000000 1.000000 0.000000
vn 0.000000 1.000000 0.000000
vn 0.000000 1.000000 0.000000
vn 0.000000 1.000000 0.000000
vn 1.000000 0.000000 0.000000
vn 1.000000 0.000000 0.000000
vn 1.000000 0.000000 0.000000
vn 1.000000 0.000000 0.000000
vn 0.000000 0.000000 -1.000000
vn 0.000000 0.000000 -1.000000
vn 0.000000 0.000000 -1.000000
vn 0.000000 0.000000 -1.000000
vn -1.000000 0.000000 0.000000
vn -1.000000 0.000000 0.000000
vn -1.000000 0.000000 0.000000
vn -1.000000 0.000000 0.000000
vn 0.000000 0.000000 1.000000
vn 0.000000 0.000000 1.000000
vn 0.000000 0.000000 1.000000
vn 0.000000 0.000000 1.000000
vn 1.000000 0.000000 0.000000
vn 1.000000 0.000000 0.000000
vn 1.000000 0.000000 0.000000
vn 1.000000 0.000000 0.000000
vn 0.000000 0.000000 -1.000000
vn 0.000000 0.000000 -1.000000
vn 0.000000 0.000000 -1.000000
vn 0.000000 0.000000 -1.000000
vn -1.000000 0.000000 0.000000
vn -1.000000 0.000000 0.000000
vn -1.000000 0.000000 0.000000
vn -1.000000 0.000000 0.000000
vn 0.000000 0.000000 1.000000
vn 0.000000 0.000000 1.000000
vn 0.000000 0.000000 1.000000
vn 0.000000 0.000000 1.000000
s off
f 9/71/1 10/75/2 4/19/3 6/5/4
f 5/4/5 11/29/6 15/37/7 13/33/8 9/25/9 6/7/10 8/14/11 7/17/12
f 7/6/13 8/15/14 2/9/15 1/8/16
f 2/18/17 8/10/18 6/11/19 4/3/20
f 7/12/21 1/1/22 3/20/23 5/13/24
f 2/21/25 4/22/26 10/28/27 14/36/28 16/40/29 12/32/30 3/23/31 1/24/32
f 17/41/33 18/74/34 19/70/35 20/68/36
f 3/2/37 12/61/38 11/63/39 5/16/40
f 14/77/41 13/79/42 15/55/43 16/59/44
f 21/45/45 22/58/46 23/54/47 24/52/48
f 13/34/49 14/78/50 18/73/51 17/65/52
f 14/35/53 10/76/54 19/69/55 18/42/56
f 10/27/57 9/72/58 20/67/59 19/43/60
f 9/26/61 13/80/62 17/66/63 20/44/64
f 11/30/65 12/62/66 22/57/67 21/49/68
f 12/31/69 16/60/70 23/53/71 22/46/72
f 16/39/73 15/56/74 24/51/75 23/47/76
f 15/38/77 11/64/78 21/50/79 24/48/80
