# This file uses centimeters as units for non-parametric coordinates.

v 2.500003 0.000000 2.500000
v 0.000002 0.000000 2.500000
v 2.500002 0.000000 0.000000
v 0.000000 0.000000 0.000000
v 1.250002 0.000000 2.500000
v 1.250000 0.000000 0.000000
v 2.500002 0.000000 1.250000
v 1.250000 0.000000 1.250000
v 0.000000 0.000000 1.250000
v 2.500004 0.000000 5.000000
v 0.000004 0.000000 5.000000
v 1.250004 0.000000 5.000000
v 2.500004 0.000000 3.750000
v 1.250004 0.000000 3.750000
v 0.000004 0.000000 3.750000
v 5.000004 0.000000 2.500000
v 5.000004 0.000000 5.000000
v 3.750004 0.000000 5.000000
v 3.750004 0.000000 2.500000
v 5.000004 0.000000 3.750000
v 3.750004 0.000000 3.750000
v 5.000004 0.000000 0.000000
v 3.750004 0.000000 0.000000
v 5.000004 0.000000 1.250000
v 3.750004 0.000000 1.250000
v 3.750004 0.000000 3.476235
v 3.750004 0.000000 3.307385
v 3.531250 0.000000 3.750000
v 2.500004 0.000000 4.071933
v 2.134768 0.000000 3.750000
v 2.500004 0.000000 3.430926
v 3.225008 0.000000 4.003329
v 2.877580 0.000000 3.912475
v 2.628133 0.000000 4.022488
v 2.241007 0.000000 3.966452
v 2.262300 0.000000 3.442890
v 2.775864 0.000000 3.250583
v 3.129245 0.000000 3.381968
v 3.498396 0.000000 3.098111
v 1.837681 0.000000 3.750000
v 1.250003 0.000000 3.435555
v 1.157350 0.000000 3.750000
v 1.250004 0.000000 4.086345
v 2.044962 0.000000 3.474064
v 2.035058 0.000000 3.162701
v 1.744193 0.000000 2.952084
v 1.436590 0.000000 3.021396
v 1.396922 0.000000 3.314019
v 1.130431 0.000000 3.600041
v 1.137394 0.000000 3.927648
v 1.463451 0.000000 4.091800
v 1.577041 0.000000 3.874719
v 1.782840 0.000000 3.859639
v 4.263068 0.000000 3.750000
v 3.888623 0.000000 3.750000
v 3.985448 0.000000 3.586873
v 4.235959 0.000000 3.593408
v 4.380331 0.000000 3.914016
v 4.271522 0.000000 4.021257
v 4.106046 0.000000 3.918316
v 3.930351 0.000000 3.917554
v 2.500003 0.000000 2.051183
v 2.500002 0.000000 1.583612
v 2.120111 0.000000 2.133998
v 1.855914 0.000000 1.939696
v 1.874165 0.000000 1.721384
v 1.812847 0.000000 1.501155
v 1.999968 0.000000 1.353641
v 2.282095 0.000000 1.482674
v 2.717964 0.000000 1.539962
v 2.854941 0.000000 1.702616
v 2.697987 0.000000 1.875260
v 2.641837 0.000000 2.072903
v 2.996555 0.000000 1.250000
v 3.750004 0.000000 1.706773
v 4.108354 0.000000 1.250000
v 3.750004 0.000000 0.855595
v 3.750004 0.000000 0.855595
v 2.952721 0.000000 1.439441
v 3.101617 0.000000 1.680895
v 3.365712 0.000000 1.840671
v 3.610494 0.000000 1.680858
v 4.000797 0.000000 1.630140
v 4.135400 0.000000 1.419051
v 4.025836 0.000000 1.038174
v 3.836957 0.000000 0.995896
v 3.457805 0.000000 0.804623
v 3.217759 0.000000 0.916022
v 2.971145 0.000000 1.095323
v 3.750004 0.000000 2.221536
v 3.750004 0.000000 1.923574
v 3.488907 0.000000 2.260709
v 3.382863 0.000000 2.021896
v 3.623948 0.000000 1.876988
v 3.930822 0.000000 2.000550
v 3.941093 0.000000 2.141029
vt 0.799317 0.046872
vt 0.829894 0.027280
vt 0.829894 0.027280
vt 0.799317 0.046872
vt 0.799317 0.046872
vt 0.799317 0.046872
vt 0.799317 0.046872
vt 0.829894 0.027280
vt 0.829894 0.027280
vt 0.799317 0.046872
vt 0.829894 0.027280
vt 0.829894 0.027280
vt 0.799317 0.046872
vt 0.829894 0.027280
vt 0.829894 0.027280
vt 0.799317 0.046872
vt 0.829894 0.027280
vt 0.110533 0.169504
vt 0.829894 0.027280
vt 0.829894 0.027280
vt 0.070907 0.182962
vt 0.070907 0.182962
vt 0.799317 0.046872
vt 0.799317 0.046872
vt 0.829894 0.027280
vt 0.829894 0.027280
vt 0.110533 0.169504
vt 0.111281 0.170252
vt 0.799317 0.046872
vt 0.070907 0.182962
vt 0.799317 0.046872
vt 0.799317 0.046872
vt 0.829894 0.027280
vt 0.829894 0.027280
vt 0.829894 0.027280
vt 0.111281 0.170252
vt 0.799317 0.046872
vt 0.799317 0.046872
vt 0.799317 0.046872
vt 0.799317 0.046872
vt 0.829894 0.027280
vt 0.829894 0.027280
vt 0.829894 0.027280
vt 0.829894 0.027280
vt 0.070907 0.182962
vt 0.799317 0.046872
vt 0.799317 0.046872
vt 0.799317 0.046872
vt 0.829894 0.027280
vt 0.111281 0.170252
vt 0.829894 0.027280
vt 0.829894 0.027280
vt 0.799317 0.046872
vt 0.799317 0.046872
vt 0.070907 0.182962
vt 0.799317 0.046872
vt 0.111281 0.170252
vt 0.829894 0.027280
vt 0.829894 0.027280
vt 0.829894 0.027280
vt 0.799317 0.046872
vt 0.070907 0.182962
vt 0.799317 0.046872
vt 0.799317 0.046872
vt 0.799317 0.046872
vt 0.829894 0.027280
vt 0.799317 0.046872
vt 0.829894 0.027280
vt 0.111281 0.170252
vt 0.799317 0.046872
vt 0.799317 0.046872
vt 0.111281 0.170252
vt 0.799317 0.046872
vt 0.111281 0.170252
vt 0.111281 0.170252
vt 0.799317 0.046872
vt 0.111281 0.170252
vt 0.111281 0.170252
vt 0.111281 0.170252
vt 0.799317 0.046872
vt 0.111281 0.170252
vt 0.799317 0.046872
vt 0.799317 0.046872
vt 0.799317 0.046872
vt 0.799317 0.046872
vt 0.110533 0.169504
vt 0.799317 0.046872
vt 0.829894 0.027280
vt 0.829894 0.027280
vt 0.799317 0.046872
vt 0.829894 0.027280
vt 0.799317 0.046872
vt 0.829894 0.027280
vt 0.829894 0.027280
vt 0.829894 0.027280
vt 0.829894 0.027280
vt 0.829894 0.027280
vt 0.799316 0.046872
vt 0.829894 0.027280
vt 0.799317 0.046872
vt 0.799317 0.046872
vt 0.799317 0.046872
vt 0.799317 0.046872
vt 0.111281 0.170252
vt 0.799317 0.046872
vt 0.829894 0.027280
vt 0.111281 0.170252
vt 0.111281 0.170252
vt 0.799317 0.046872
vt 0.799317 0.046872
vt 0.799317 0.046872
vt 0.799317 0.046872
vt 0.799317 0.046872
vt 0.829894 0.027280
vt 0.799317 0.046872
vt 0.111281 0.170252
vt 0.799317 0.046872
vt 0.799317 0.046872
vt 0.799317 0.046872
vt 0.799317 0.046872
vt 0.799317 0.046872
vt 0.799317 0.046872
vt 0.111281 0.170252
vt 0.111281 0.170252
vt 0.111281 0.170252
vt 0.111281 0.170252
vt 0.111281 0.170252
vt 0.799317 0.046872
vt 0.829894 0.027280
vt 0.799317 0.046872
vt 0.799317 0.046872
vt 0.829894 0.027280
vt 0.070907 0.182962
vt 0.111281 0.170252
vt 0.799317 0.046872
vt 0.829894 0.027280
vt 0.829894 0.027280
vt 0.829894 0.027280
vt 0.829894 0.027280
vt 0.829894 0.027280
vt 0.799317 0.046872
vt 0.799317 0.046872
vt 0.829894 0.027280
vt 0.829894 0.027280
vt 0.799317 0.046872
vt 0.799317 0.046872
vt 0.799317 0.046872
vt 0.829894 0.027280
vt 0.799317 0.046872
vt 0.111281 0.170252
vt 0.799317 0.046872
vt 0.111281 0.170252
vt 0.111281 0.170252
vt 0.111281 0.170252
vt 0.799317 0.046872
vt 0.799317 0.046872
vt 0.829894 0.027280
vt 0.829894 0.027280
vt 0.829894 0.027280
vt 0.829894 0.027280
vt 0.111281 0.170252
vt 0.111281 0.170252
vt 0.829894 0.027280
vt 0.111281 0.170252
vt 0.111281 0.170252
vt 0.111281 0.170252
vt 0.111281 0.170252
vt 0.111281 0.170252
vt 0.111281 0.170252
vt 0.111281 0.170252
vt 0.829894 0.027280
vt 0.829894 0.027280
vt 0.111281 0.170252
vt 0.829894 0.027280
vt 0.829894 0.027280
vt 0.829894 0.027280
vt 0.829894 0.027280
vt 0.829894 0.027280
vt 0.829894 0.027280
vt 0.829894 0.027280
vt 0.111281 0.170252
vt 0.110533 0.169504
vt 0.110533 0.169504
vt 0.110533 0.169504
vt 0.110533 0.169504
vt 0.110533 0.169504
vt 0.110533 0.169504
vt 0.829894 0.027280
vt 0.829894 0.027280
vt 0.829894 0.027280
vt 0.829894 0.027280
vt 0.829894 0.027280
vt 0.829894 0.027280
vt 0.829894 0.027280
vt 0.829894 0.027280
vt 0.829894 0.027280
vt 0.110533 0.169504
vt 0.110533 0.169504
vt 0.110533 0.169504
vt 0.070907 0.182962
vt 0.070907 0.182962
vt 0.070907 0.182962
vt 0.070907 0.182962
vt 0.070907 0.182962
vt 0.070907 0.182962
vt 0.070907 0.182962
vt 0.070907 0.182962
vt 0.070907 0.182962
vt 0.070907 0.182962
vt 0.070907 0.182962
vt 0.070907 0.182962
vt 0.070907 0.182962
vt 0.070907 0.182962
vt 0.070907 0.182962
vt 0.070907 0.182962
vt 0.070907 0.182962
vt 0.070907 0.182962
vt 0.070907 0.182962
vt 0.070907 0.182962
vt 0.070907 0.182962
vt 0.070907 0.182962
vt 0.070907 0.182962
vt 0.070907 0.182962
vt 0.070907 0.182962
vt 0.070907 0.182962
vt 0.070907 0.182962
vt 0.070907 0.182962
vt 0.070907 0.182962
vt 0.070907 0.182962
vt 0.070907 0.182962
vt 0.070907 0.182962
vt 0.070907 0.182962
vt 0.070907 0.182962
vt 0.070907 0.182962
vt 0.070907 0.182962
vt 0.070907 0.182962
vt 0.070907 0.182962
vt 0.070907 0.182962
vt 0.070907 0.182962
vt 0.070907 0.182962
vt 0.070907 0.182962
vn -0.000000 1.000000 -0.000000
vn -0.000000 1.000000 -0.000000
vn 0.000000 1.000000 0.000000
vn 0.000000 1.000000 0.000000
vn -0.000000 1.000000 -0.000000
vn -0.000000 1.000000 -0.000000
vn -0.000000 1.000000 -0.000000
vn 0.000000 1.000000 0.000000
vn 0.000000 1.000000 0.000000
vn 0.000000 1.000000 0.000000
vn 0.000000 1.000000 0.000000
vn 0.000000 1.000000 0.000000
vn 0.000000 1.000000 0.000000
vn 0.000000 1.000000 0.000000
vn 0.000000 1.000000 0.000000
vn 0.000000 1.000000 0.000000
vn 0.000000 1.000000 0.000000
vn 0.000000 1.000000 0.000000
vn -0.000000 1.000000 -0.000000
vn -0.000000 1.000000 -0.000000
vn 0.000000 1.000000 0.000000
vn -0.000000 1.000000 -0.000000
vn 0.000000 1.000000 0.000000
vn 0.000000 1.000000 0.000000
vn 0.000000 1.000000 0.000000
vn -0.000000 1.000000 0.000000
vn -0.000000 1.000000 0.000000
vn -0.000000 1.000000 0.000000
vn -0.000000 1.000000 0.000000
vn -0.000000 1.000000 0.000000
vn -0.000000 1.000000 0.000000
vn -0.000000 1.000000 0.000000
vn -0.000000 1.000000 0.000000
vn -0.000000 1.000000 0.000000
vn -0.000000 1.000000 0.000000
vn -0.000000 1.000000 -0.000000
vn -0.000000 1.000000 -0.000000
vn -0.000000 1.000000 -0.000000
vn -0.000000 1.000000 -0.000000
vn -0.000000 1.000000 -0.000000
vn -0.000000 1.000000 0.000000
vn -0.000000 1.000000 0.000000
vn -0.000000 1.000000 0.000000
vn 0.000000 1.000000 0.000000
vn 0.000000 1.000000 0.000000
vn -0.000000 1.000000 0.000000
vn 0.000000 1.000000 0.000000
vn 0.000000 1.000000 0.000000
vn 0.000000 1.000000 0.000000
vn 0.000000 1.000000 0.000000
vn -0.000000 1.000000 0.000000
vn 0.000000 1.000000 0.000000
vn 0.000000 1.000000 0.000000
vn 0.000000 1.000000 0.000000
vn 0.000000 1.000000 0.000000
vn -0.000000 1.000000 -0.000000
vn -0.000000 1.000000 0.000000
vn 0.000000 1.000000 0.000000
vn 0.000000 1.000000 -0.000000
vn 0.000000 1.000000 0.000000
vn 0.000000 1.000000 -0.000000
vn 0.000000 1.000000 0.000000
vn 0.000000 1.000000 0.000000
vn 0.000000 1.000000 0.000000
vn -0.000000 1.000000 -0.000000
vn 0.000000 1.000000 0.000000
vn 0.000000 1.000000 0.000000
vn 0.000000 1.000000 0.000000
vn 0.000000 1.000000 -0.000000
vn 0.000000 1.000000 0.000000
vn 0.000000 1.000000 0.000000
vn -0.000000 1.000000 -0.000000
vn 0.000000 1.000000 0.000000
vn 0.000000 1.000000 -0.000000
vn 0.000000 1.000000 0.000000
vn 0.000000 1.000000 0.000000
vn 0.000000 1.000000 0.000000
vn 0.000000 1.000000 -0.000000
vn 0.000000 1.000000 -0.000000
vn 0.000000 1.000000 -0.000000
vn 0.000000 1.000000 -0.000000
vn 0.000000 1.000000 -0.000000
vn 0.000000 1.000000 0.000000
vn 0.000000 1.000000 -0.000000
vn 0.000000 1.000000 0.000000
vn 0.000000 1.000000 -0.000000
vn 0.000000 1.000000 -0.000000
vn 0.000000 1.000000 -0.000000
vn 0.000000 1.000000 -0.000000
vn 0.000000 1.000000 -0.000000
vn 0.000000 1.000000 -0.000000
vn 0.000000 1.000000 -0.000000
vn 0.000000 1.000000 -0.000000
vn -0.000000 1.000000 0.000000
vn -0.000000 1.000000 -0.000000
vn 0.000000 1.000000 0.000000
vn 0.000000 1.000000 -0.000000
vn 0.000000 1.000000 -0.000000
vn 0.000000 1.000000 -0.000000
vn 0.000000 1.000000 -0.000000
vn -0.000000 1.000000 0.000000
vn 0.000000 1.000000 0.000000
vn 0.000000 1.000000 0.000000
vn 0.000000 1.000000 0.000000
vn 0.000000 1.000000 0.000000
vn 0.000000 1.000000 0.000000
vn -0.000000 1.000000 -0.000000
vn 0.000000 1.000000 0.000000
vn 0.000000 1.000000 0.000000
vn 0.000000 1.000000 0.000000
vn 0.000000 1.000000 0.000000
vn -0.000000 1.000000 0.000000
vn 0.000000 1.000000 0.000000
vn -0.000000 1.000000 0.000000
vn 0.000000 1.000000 0.000000
vn 0.000000 1.000000 -0.000000
vn 0.000000 1.000000 0.000000
vn 0.000000 1.000000 0.000000
vn 0.000000 1.000000 -0.000000
vn 0.000000 1.000000 -0.000000
vn 0.000000 1.000000 -0.000000
vn 0.000000 1.000000 0.000000
vn -0.000000 1.000000 0.000000
vn 0.000000 1.000000 0.000000
vn 0.000000 1.000000 0.000000
vn 0.000000 1.000000 0.000000
vn 0.000000 1.000000 0.000000
vn 0.000000 1.000000 0.000000
vn 0.000000 1.000000 0.000000
vn 0.000000 1.000000 0.000000
vn 0.000000 1.000000 0.000000
vn -0.000000 1.000000 -0.000000
vn -0.000000 1.000000 0.000000
vn -0.000000 1.000000 -0.000000
vn -0.000000 1.000000 -0.000000
vn -0.000000 1.000000 -0.000000
vn -0.000000 1.000000 -0.000000
vn -0.000000 1.000000 -0.000000
vn -0.000000 1.000000 0.000000
vn 0.000000 1.000000 -0.000000
vn 0.000000 1.000000 -0.000000
vn 0.000000 1.000000 -0.000000
vn -0.000000 1.000000 0.000000
vn 0.000000 1.000000 0.000000
vn 0.000000 1.000000 0.000000
vn -0.000000 1.000000 0.000000
vn -0.000000 1.000000 -0.000000
vn -0.000000 1.000000 -0.000000
vn -0.000000 1.000000 0.000000
vn -0.000000 1.000000 0.000000
vn -0.000000 1.000000 0.000000
vn 0.000000 1.000000 0.000000
vn -0.000000 1.000000 0.000000
vn -0.000000 1.000000 0.000000
vn 0.000000 1.000000 0.000000
vn 0.000000 1.000000 0.000000
vn 0.000000 1.000000 -0.000000
vn -0.000000 1.000000 0.000000
vn -0.000000 1.000000 0.000000
vn -0.000000 1.000000 0.000000
vn -0.000000 1.000000 0.000000
vn -0.000000 1.000000 0.000000
vn -0.000000 1.000000 0.000000
vn 0.000000 1.000000 0.000000
vn -0.000000 1.000000 -0.000000
vn 0.000000 1.000000 0.000000
vn 0.000000 1.000000 0.000000
vn 0.000000 1.000000 -0.000000
vn 0.000000 1.000000 -0.000000
vn 0.000000 1.000000 0.000000
vn 0.000000 1.000000 -0.000000
vn 0.000000 1.000000 0.000000
vn -0.000000 1.000000 0.000000
vn -0.000000 1.000000 -0.000000
vn 0.000000 1.000000 0.000000
vn 0.000000 1.000000 0.000000
vn 0.000000 1.000000 0.000000
vn 0.000000 1.000000 0.000000
vn 0.000000 1.000000 0.000000
vn 0.000000 1.000000 0.000000
vn 0.000000 1.000000 0.000000
vn 0.000000 1.000000 0.000000
vn -0.000000 1.000000 0.000000
vn -0.000000 1.000000 0.000000
vn -0.000000 1.000000 0.000000
vn -0.000000 1.000000 0.000000
vn -0.000000 1.000000 0.000000
vn -0.000000 1.000000 0.000000
vn 0.000000 1.000000 0.000000
vn 0.000000 1.000000 0.000000
vn 0.000000 1.000000 0.000000
vn 0.000000 1.000000 0.000000
vn 0.000000 1.000000 0.000000
vn 0.000000 1.000000 0.000000
vn 0.000000 1.000000 0.000000
vn 0.000000 1.000000 -0.000000
vn 0.000000 1.000000 -0.000000
vn 0.000000 1.000000 -0.000000
vn 0.000000 1.000000 -0.000000
vn 0.000000 1.000000 -0.000000
vn -0.000000 1.000000 0.000000
vn -0.000000 1.000000 0.000000
vn -0.000000 1.000000 0.000000
vn -0.000000 1.000000 0.000000
vn -0.000000 1.000000 0.000000
vn -0.000000 1.000000 0.000000
vn -0.000000 1.000000 0.000000
vn 0.000000 1.000000 0.000000
vn 0.000000 1.000000 0.000000
vn 0.000000 1.000000 -0.000000
vn 0.000000 1.000000 -0.000000
vn 0.000000 1.000000 -0.000000
vn 0.000000 1.000000 -0.000000
vn 0.000000 1.000000 0.000000
vn 0.000000 1.000000 0.000000
vn 0.000000 1.000000 0.000000
vn 0.000000 1.000000 0.000000
vn 0.000000 1.000000 0.000000
vn 0.000000 1.000000 0.000000
vn -0.000000 1.000000 0.000000
vn 0.000000 1.000000 -0.000000
vn 0.000000 1.000000 -0.000000
vn 0.000000 1.000000 -0.000000
vn 0.000000 1.000000 -0.000000
vn 0.000000 1.000000 -0.000000
vn -0.000000 1.000000 -0.000000
vn -0.000000 1.000000 -0.000000
vn -0.000000 1.000000 0.000000
vn 0.000000 1.000000 -0.000000
vn 0.000000 1.000000 -0.000000
vn 0.000000 1.000000 -0.000000
vn 0.000000 1.000000 0.000000
vn -0.000000 1.000000 -0.000000
vn -0.000000 1.000000 -0.000000
vn -0.000000 1.000000 -0.000000
vn 0.000000 1.000000 0.000000
vn 0.000000 1.000000 0.000000
vn 0.000000 1.000000 0.000000
vn 0.000000 1.000000 0.000000
vn 0.000000 1.000000 0.000000
vn 0.000000 1.000000 0.000000
vn 0.000000 1.000000 0.000000
vn 0.000000 1.000000 0.000000
vn 0.000000 1.000000 0.000000
s off
f 5/3/1 8/11/2 9/8/3 2/15/4
f 7/5/5 8/10/6 5/16/7 1/1/8 62/113/9 64/117/10 65/118/11 66/119/12 67/120/13 68/121/14 69/122/15 63/115/16
f 3/2/17 6/14/18 8/9/19 7/12/20
f 9/7/21 8/6/22 6/4/23 4/13/24
f 42/199/25 50/197/26 43/198/27 14/18/28
f 43/21/29 51/22/30 52/30/31 53/45/32 40/55/33 14/62/34
f 40/86/35 44/187/36 45/186/37 46/185/38 47/184/39 48/182/40 41/183/41 14/27/42
f 41/133/43 49/200/44 42/201/45 14/62/46
f 10/33/47 18/34/48 21/35/49 28/196/50 32/195/51 33/194/52 34/192/53 29/193/54
f 20/37/55 54/103/56 58/109/57 59/110/58 60/111/59 61/112/60 55/105/61 21/38/62 18/39/63 17/40/64
f 19/41/65 27/68/66 26/66/67 21/42/68 55/106/69 56/180/70 57/178/71 54/179/72 20/43/73 16/44/74
f 26/65/75 28/70/76 21/46/77
f 74/127/78 79/170/79 80/169/80 81/168/81 82/166/82 75/167/83 25/50/84
f 75/202/85 83/203/86 84/204/87 76/205/88 25/206/89
f 25/57/90 76/165/91 85/164/92 86/162/93 77/134/94
f 78/207/95 87/208/96 88/209/97 89/210/98 74/211/99 25/206/100 77/212/101
f 31/76/102 37/82/103 38/83/104 39/84/105 27/67/106 19/47/107 1/48/108
f 29/72/109 34/79/110 33/78/111 32/77/112 28/69/113 13/36/114
f 13/213/115 30/214/116 35/215/117 29/216/118
f 31/75/119 36/81/120 30/74/121 13/28/122
f 13/213/123 28/217/124 26/218/125 27/219/126 39/220/127 38/221/128 37/222/129 31/223/130
f 1/25/131 5/26/132 41/88/133 48/97/134 47/96/135 46/95/136 45/94/137 44/93/138 40/188/139 30/191/140 36/189/141 31/190/142
f 15/29/143 42/90/144 49/98/145 41/87/146 5/31/147 2/32/148
f 12/17/149 43/91/150 50/99/151 42/89/152 15/19/153 11/20/154
f 29/71/155 35/80/156 30/73/157 40/85/158 53/102/159 52/101/160 51/100/161 43/92/162 12/23/163 10/24/164
f 54/104/165 57/108/166 56/107/167 55/181/168
f 55/224/169 61/225/170 60/226/171 59/227/172 58/228/173 54/229/174
f 63/230/175 69/231/176 68/232/177 67/233/178 66/234/179 65/235/180 64/236/181 62/237/182
f 62/173/183 73/126/184 72/125/185 71/124/186 70/123/187 63/116/188
f 19/49/189 90/148/190 92/160/191 93/159/192 94/157/193 91/158/194 75/129/195 82/140/196 81/139/197 80/138/198 79/137/199 74/171/200 7/51/201 63/177/202 70/176/203 71/175/204 72/174/205 73/172/206 62/114/207 1/52/208
f 16/53/209 24/54/210 76/131/211 84/142/212 83/141/213 75/130/214 91/151/215 95/155/216 96/156/217 90/149/218 19/56/219
f 77/163/220 86/144/221 85/143/222 76/132/223 24/58/224 22/59/225 23/60/226 78/136/227
f 7/61/228 74/128/229 89/147/230 88/146/231 87/145/232 78/135/233 23/63/234 3/64/235
f 91/150/236 94/154/237 93/153/238 92/152/239 90/161/240
f 90/238/241 96/239/242 95/240/243 91/241/244
