# This file uses centimeters as units for non-parametric coordinates.

v 3.881383 0.000000 0.099586
v 3.881383 0.065208 0.099586
v 4.066722 0.000000 0.121058
v 4.066722 0.065208 0.121058
v 4.152242 0.000000 0.381863
v 4.152242 0.065208 0.381863
v 3.851824 0.000000 0.426054
v 3.851824 0.065208 0.426054
v 3.699405 0.000000 0.239183
v 3.699405 0.065208 0.239183
v 4.077503 0.000000 0.533430
v 4.077503 0.065208 0.533430
v 4.173374 0.000000 0.544536
v 4.173374 0.065208 0.544536
v 4.217611 0.000000 0.679442
v 4.217611 0.065208 0.679442
v 4.059983 0.000000 0.704498
v 4.059983 0.065208 0.704498
v 4.257532 0.000000 0.279124
v 4.257532 0.065208 0.279124
v 4.379761 0.000000 0.190407
v 4.379761 0.065208 0.190407
v 4.466603 0.000000 0.310052
v 4.466603 0.065208 0.310052
v 4.344375 0.000000 0.398769
v 4.344375 0.065208 0.398769
v 3.491138 0.000000 0.564437
v 3.491138 0.065208 0.564437
v 3.583770 0.000000 0.634430
v 3.583770 0.065208 0.634430
v 3.515255 0.000000 0.725104
v 3.515255 0.065208 0.725104
v 3.422624 0.000000 0.655110
v 3.422624 0.065208 0.655110
v 3.647374 0.000000 0.091558
v 3.647374 0.065208 0.091558
v 3.666562 0.000000 0.214117
v 3.666562 0.065208 0.214117
v 3.514670 0.000000 0.315265
v 3.514670 0.065208 0.315265
v 3.429474 0.000000 0.128640
v 3.429474 0.065208 0.128640
v 0.000001 4.208395 0.000000
v 5.000003 4.208395 0.000000
v 5.000003 0.206069 0.000000
v 0.000001 0.206069 0.000000
v 5.000003 4.208395 0.054874
v 0.000003 4.208395 0.054875
v 5.000003 4.414464 0.054874
v 0.000001 4.414464 0.054875
v 5.000003 4.208395 0.000000
v 0.000003 4.208395 0.000000
v 5.000003 -0.270663 0.054874
v 0.000003 -0.270663 0.054875
v 5.000003 0.206069 0.054874
v 0.000001 0.206069 0.054875
v 4.801754 4.208395 0.000000
v 1.342751 4.208395 0.000000
v 4.049958 3.686981 0.000000
v 3.012484 3.515971 0.000000
v 2.570686 3.082160 0.000000
v 2.425529 3.134452 0.000000
v 2.153588 3.712440 0.000000
v 1.633080 0.206069 0.000000
v 4.584516 0.206069 0.000000
v 2.603783 0.430466 0.000000
v 3.800743 0.391914 0.000000
v 4.159908 0.946420 0.000000
v 4.359307 1.259576 0.000000
v 4.029749 1.504572 0.000000
v 3.548733 1.209972 0.000000
v 3.518334 0.700927 0.000000
v 4.043555 0.667238 0.000000
v 3.518334 0.700927 -0.083859
v 4.043555 0.667238 -0.083859
v 4.159908 0.946420 -0.083859
v 4.359307 1.259576 -0.083859
v 4.029749 1.504572 -0.083859
v 3.548733 1.209972 -0.083859
v 3.328856 0.527449 -0.083859
v 4.090750 0.478580 -0.083859
v 4.259533 0.883566 -0.083859
v 4.548785 1.337835 -0.083859
v 4.070723 1.693230 -0.083859
v 3.372952 1.265879 -0.083859
v 3.328856 0.527449 -0.222151
v 4.090750 0.478580 -0.222151
v 4.259533 0.883566 -0.222151
v 4.548785 1.337835 -0.222151
v 4.070723 1.693230 -0.222151
v 3.372952 1.265879 -0.222151
v 4.306383 0.817336 0.000000
v 4.101229 0.488012 0.000000
v 3.692793 1.431760 0.000000
v 4.187462 0.387682 0.000000
v 3.958521 0.461101 -0.331519
v 3.958521 0.461101 -0.086912
v 3.958521 1.553195 -0.331519
v 3.958521 1.553195 -0.086912
v 4.203128 1.553195 -0.331519
v 4.203128 1.553195 -0.086912
v 4.203128 0.461101 -0.331519
v 4.203128 0.461101 -0.086912
v 3.799967 1.408741 -0.084298
v 3.801838 1.400257 -0.019671
v 3.864681 1.338017 -0.095455
v 3.866551 1.329533 -0.030828
v 3.808982 1.208336 -0.110865
v 3.810853 1.199852 -0.046238
v 3.674026 1.292233 -0.095945
v 3.675898 1.283749 -0.031318
v 4.135364 1.469563 -0.107068
v 4.137235 1.461080 -0.042441
v 4.096532 1.381822 -0.117462
v 4.098403 1.373339 -0.052835
v 3.954638 1.378769 -0.113755
v 3.956510 1.370286 -0.049128
v 3.977108 1.535525 -0.093828
v 3.978979 1.527042 -0.029201
vt 0.269191 0.062271
vt 0.329953 0.062271
vt 0.295652 0.062271
vt 0.269191 0.062271
vt 0.329953 0.062271
vt 0.234889 0.062271
vt 0.269191 0.062271
vt 0.234889 0.062271
vt 0.234889 0.062271
vt 0.295652 0.062271
vt 0.295652 0.062271
vt 0.329953 0.062271
vt 0.269191 0.062271
vt 0.269191 0.062271
vt 0.329953 0.062271
vt 0.295652 0.062271
vt 0.269191 0.062271
vt 0.269191 0.062271
vt 0.234889 0.062271
vt 0.269191 0.062271
vt 0.234889 0.062271
vt 0.234889 0.062271
vt 0.295652 0.062271
vt 0.269191 0.062271
vt 0.269191 0.062271
vt 0.269191 0.062271
vt 0.269191 0.062271
vt 0.329953 0.062271
vt 0.329953 0.062271
vt 0.329953 0.062271
vt 0.329953 0.062271
vt 0.269191 0.062271
vt 0.269191 0.062271
vt 0.269191 0.062271
vt 0.269191 0.062271
vt 0.234889 0.062271
vt 0.234889 0.062271
vt 0.234889 0.062271
vt 0.234889 0.062271
vt 0.295652 0.062271
vt 0.295652 0.062271
vt 0.295652 0.062271
vt 0.295652 0.062271
vt 0.269191 0.062271
vt 0.269191 0.062271
vt 0.269191 0.062271
vt 0.269191 0.062271
vt 0.329953 0.062271
vt 0.329953 0.062271
vt 0.329953 0.062271
vt 0.329953 0.062271
vt 0.269191 0.062271
vt 0.269191 0.062271
vt 0.269191 0.062271
vt 0.269191 0.062271
vt 0.234889 0.062271
vt 0.234889 0.062271
vt 0.234889 0.062271
vt 0.234889 0.062271
vt 0.295652 0.062271
vt 0.295652 0.062271
vt 0.295652 0.062271
vt 0.295652 0.062271
vt 0.269191 0.062271
vt 0.269191 0.062271
vt 0.269191 0.062271
vt 0.269191 0.062271
vt 0.329953 0.062271
vt 0.329953 0.062271
vt 0.329953 0.062271
vt 0.329953 0.062271
vt 0.269191 0.062271
vt 0.269191 0.062271
vt 0.269191 0.062271
vt 0.269191 0.062271
vt 0.234889 0.062271
vt 0.234889 0.062271
vt 0.234889 0.062271
vt 0.234889 0.062271
vt 0.295652 0.062271
vt 0.295652 0.062271
vt 0.295652 0.062271
vt 0.295652 0.062271
vt 0.269191 0.062271
vt 0.269191 0.062271
vt 0.269191 0.062271
vt 0.269191 0.062271
vt 0.329953 0.062271
vt 0.329953 0.062271
vt 0.329953 0.062271
vt 0.329953 0.062271
vt 0.269191 0.062271
vt 0.269191 0.062271
vt 0.269191 0.062271
vt 0.269191 0.062271
vt 0.234889 0.062271
vt 0.234889 0.062271
vt 0.234889 0.062271
vt 0.234889 0.062271
vt 0.295652 0.062271
vt 0.295652 0.062271
vt 0.295652 0.062271
vt 0.295652 0.062271
vt 0.169745 0.062271
vt 0.169745 0.062271
vt 0.169745 0.062271
vt 0.169745 0.062271
vt 0.169745 0.062271
vt 0.169745 0.062271
vt 0.675780 0.101843
vt 0.675780 0.101843
vt 0.675780 0.101843
vt 0.675780 0.101843
vt 0.639454 0.101843
vt 0.639454 0.101843
vt 0.639454 0.101843
vt 0.639454 0.101843
vt 0.675780 0.101843
vt 0.675780 0.101843
vt 0.675780 0.101843
vt 0.675780 0.101843
vt 0.639454 0.101843
vt 0.639454 0.101843
vt 0.639454 0.101843
vt 0.639454 0.101843
vt 0.639454 0.101843
vt 0.639454 0.101843
vt 0.700925 0.101843
vt 0.700925 0.101843
vt 0.700925 0.101843
vt 0.700925 0.101843
vt 0.700925 0.101843
vt 0.700925 0.101843
vt 0.700925 0.101843
vt 0.705022 0.101843
vt 0.705022 0.101843
vt 0.705022 0.101843
vt 0.705022 0.101843
vt 0.741894 0.101843
vt 0.741894 0.101843
vt 0.741894 0.101843
vt 0.741894 0.101843
vt 0.741894 0.101843
vt 0.741894 0.101843
vt 0.741894 0.101843
vt 0.741894 0.101843
vt 0.741894 0.101843
vt 0.741894 0.101843
vt 0.741894 0.101843
vt 0.741894 0.101843
vt 0.741894 0.101843
vt 0.741894 0.101843
vt 0.741894 0.101843
vt 0.741894 0.101843
vt 0.741894 0.101843
vt 0.360972 0.062271
vt 0.360972 0.062271
vt 0.360972 0.062271
vt 0.360972 0.062271
vt 0.360972 0.062271
vt 0.360972 0.062271
vt 0.360972 0.062271
vt 0.360972 0.062271
vt 0.360972 0.062271
vt 0.360972 0.062271
vt 0.360972 0.062271
vt 0.360972 0.062271
vt 0.360972 0.062271
vt 0.360972 0.062271
vt 0.360972 0.062271
vt 0.360972 0.062271
vt 0.360972 0.062271
vt 0.360972 0.062271
vt 0.360972 0.062271
vt 0.360972 0.062271
vt 0.360972 0.062271
vt 0.360972 0.062271
vt 0.360972 0.062271
vt 0.360972 0.062271
vt 0.302894 0.062271
vt 0.302894 0.062271
vt 0.302894 0.062271
vt 0.302894 0.062271
vt 0.302894 0.062271
vt 0.302894 0.062271
vt 0.302894 0.062271
vt 0.302894 0.062271
vt 0.302894 0.062271
vt 0.302894 0.062271
vt 0.302894 0.062271
vt 0.302894 0.062271
vt 0.169745 0.062271
vt 0.169745 0.062271
vt 0.169745 0.062271
vt 0.169745 0.062271
vt 0.169745 0.062271
vt 0.169745 0.062271
vt 0.169745 0.062271
vt 0.169745 0.062271
vt 0.169745 0.062271
vt 0.169745 0.062271
vt 0.169745 0.062271
vt 0.169745 0.062271
vt 0.169745 0.062271
vt 0.169745 0.062271
vt 0.169745 0.062271
vt 0.169745 0.062271
vt 0.169745 0.062271
vt 0.169745 0.062271
vt 0.169745 0.062271
vt 0.169745 0.062271
vt 0.169745 0.062271
vt 0.169745 0.062271
vt 0.169745 0.062271
vt 0.169745 0.062271
vt 0.301937 0.060537
vt 0.301937 0.060537
vt 0.301937 0.060537
vt 0.301937 0.060537
vt 0.301937 0.060537
vt 0.301937 0.060537
vt 0.301937 0.060537
vt 0.301937 0.060537
vt 0.301937 0.060537
vt 0.703791 0.101843
vt 0.703791 0.101843
vt 0.703791 0.101843
vt 0.741894 0.101843
vt 0.741894 0.101843
vt 0.741894 0.101843
vt 0.741894 0.101843
vt 0.741894 0.101843
vt 0.741894 0.101843
vt 0.301937 0.395838
vt 0.301937 0.395838
vt 0.301937 0.395838
vt 0.301937 0.395838
vt 0.362700 0.395838
vt 0.362700 0.395838
vt 0.362700 0.395838
vt 0.362700 0.395838
vt 0.301937 0.395838
vt 0.301937 0.395838
vt 0.301937 0.395838
vt 0.301937 0.395838
vt 0.267636 0.395838
vt 0.267636 0.395838
vt 0.267636 0.395838
vt 0.267636 0.395838
vt 0.328398 0.395838
vt 0.328398 0.395838
vt 0.328398 0.395838
vt 0.328398 0.395838
vt 0.328398 0.395838
vt 0.328398 0.395838
vt 0.328398 0.395838
vt 0.328398 0.395838
vt 0.269191 0.062271
vt 0.269191 0.062271
vt 0.269191 0.062271
vt 0.269191 0.062271
vt 0.329953 0.062271
vt 0.329953 0.062271
vt 0.329953 0.062271
vt 0.329953 0.062271
vt 0.269191 0.062271
vt 0.269191 0.062271
vt 0.269191 0.062271
vt 0.269191 0.062271
vt 0.234889 0.062271
vt 0.234889 0.062271
vt 0.234889 0.062271
vt 0.234889 0.062271
vt 0.295652 0.062271
vt 0.295652 0.062271
vt 0.295652 0.062271
vt 0.295652 0.062271
vt 0.269191 0.062271
vt 0.269191 0.062271
vt 0.269191 0.062271
vt 0.269191 0.062271
vt 0.329953 0.062271
vt 0.329953 0.062271
vt 0.329953 0.062271
vt 0.329953 0.062271
vt 0.269191 0.062271
vt 0.269191 0.062271
vt 0.269191 0.062271
vt 0.269191 0.062271
vt 0.234889 0.062271
vt 0.234889 0.062271
vt 0.234889 0.062271
vt 0.234889 0.062271
vt 0.295652 0.062271
vt 0.295652 0.062271
vt 0.295652 0.062271
vt 0.295652 0.062271
vt 0.301937 0.060537
vt 0.301937 0.060537
vt 0.302894 0.062271
vt 0.302894 0.062271
vt 0.302894 0.062271
vt 0.302894 0.062271
vt 0.302894 0.062271
vt 0.302894 0.062271
vt 0.302894 0.062271
vt 0.302894 0.062271
vt 0.302894 0.062271
vt 0.302894 0.062271
vt 0.302894 0.062271
vt 0.302894 0.062271
vt 0.234889 0.062271
vt 0.234889 0.062271
vn 0.115078 0.000000 -0.993357
vn 0.115078 0.000000 -0.993357
vn 0.115078 0.000000 -0.993357
vn 0.115078 0.000000 -0.993357
vn 0.950219 0.000000 -0.311583
vn 0.950219 0.000000 -0.311583
vn 0.950219 0.000000 -0.311583
vn 0.950219 0.000000 -0.311583
vn 0.145534 0.000000 0.989353
vn 0.145534 0.000000 0.989353
vn 0.145534 0.000000 0.989353
vn 0.145534 0.000000 0.989353
vn -0.995926 0.000000 -0.090174
vn -0.995926 0.000000 -0.090174
vn -0.608652 0.000000 -0.793437
vn -0.608652 0.000000 -0.793437
vn 0.000000 1.000000 0.000000
vn 0.000000 1.000000 0.000000
vn 0.000000 1.000000 0.000000
vn 0.000000 1.000000 0.000000
vn 0.000000 1.000000 0.000000
vn -0.774922 0.000000 0.632057
vn -0.774922 0.000000 0.632057
vn -0.995926 0.000000 -0.090174
vn -0.995926 0.000000 -0.090174
vn 0.115069 0.000000 -0.993358
vn 0.115069 0.000000 -0.993358
vn 0.115069 0.000000 -0.993358
vn 0.115069 0.000000 -0.993358
vn 0.950218 0.000000 -0.311585
vn 0.950218 0.000000 -0.311585
vn 0.950218 0.000000 -0.311585
vn 0.950218 0.000000 -0.311585
vn 0.156985 0.000000 0.987601
vn 0.156985 0.000000 0.987601
vn 0.156985 0.000000 0.987601
vn 0.156985 0.000000 0.987601
vn -0.994796 0.000000 -0.101885
vn -0.994796 0.000000 -0.101885
vn -0.994796 0.000000 -0.101885
vn -0.994796 0.000000 -0.101885
vn 0.000000 1.000000 0.000000
vn 0.000000 1.000000 0.000000
vn 0.000000 1.000000 0.000000
vn 0.000000 1.000000 0.000000
vn -0.587409 0.000000 -0.809290
vn -0.587409 0.000000 -0.809290
vn -0.587409 0.000000 -0.809290
vn -0.587409 0.000000 -0.809290
vn 0.809290 0.000000 -0.587410
vn 0.809290 0.000000 -0.587410
vn 0.809290 0.000000 -0.587410
vn 0.809290 0.000000 -0.587410
vn 0.587409 0.000000 0.809290
vn 0.587409 0.000000 0.809290
vn 0.587409 0.000000 0.809290
vn 0.587409 0.000000 0.809290
vn -0.809290 0.000000 0.587410
vn -0.809290 0.000000 0.587410
vn -0.809290 0.000000 0.587410
vn -0.809290 0.000000 0.587410
vn 0.000000 1.000000 -0.000000
vn 0.000000 1.000000 -0.000000
vn 0.000000 1.000000 -0.000000
vn 0.000000 1.000000 -0.000000
vn 0.602863 0.000000 -0.797845
vn 0.602863 0.000000 -0.797845
vn 0.602863 0.000000 -0.797845
vn 0.602863 0.000000 -0.797845
vn 0.797844 0.000000 0.602864
vn 0.797844 0.000000 0.602864
vn 0.797844 0.000000 0.602864
vn 0.797844 0.000000 0.602864
vn -0.602863 0.000000 0.797845
vn -0.602863 0.000000 0.797845
vn -0.602863 0.000000 0.797845
vn -0.602863 0.000000 0.797845
vn -0.797844 0.000000 -0.602864
vn -0.797844 0.000000 -0.602864
vn -0.797844 0.000000 -0.602864
vn -0.797844 0.000000 -0.602864
vn 0.000000 1.000000 0.000000
vn 0.000000 1.000000 0.000000
vn 0.000000 1.000000 0.000000
vn 0.000000 1.000000 0.000000
vn 0.987965 0.000000 -0.154677
vn 0.987965 0.000000 -0.154677
vn 0.987965 0.000000 -0.154677
vn 0.987965 0.000000 -0.154677
vn 0.554269 0.000000 0.832337
vn 0.554269 0.000000 0.832337
vn 0.554269 0.000000 0.832337
vn 0.554269 0.000000 0.832337
vn -0.909691 0.000000 0.415286
vn -0.909691 0.000000 0.415286
vn -0.909691 0.000000 0.415286
vn -0.909691 0.000000 0.415286
vn -0.167766 0.000000 -0.985827
vn -0.167766 0.000000 -0.985827
vn -0.167766 0.000000 -0.985827
vn -0.167766 0.000000 -0.985827
vn 0.000000 1.000000 0.000000
vn 0.000000 1.000000 0.000000
vn 0.000000 1.000000 0.000000
vn 0.000000 1.000000 0.000000
vn 0.000000 0.000000 1.000000
vn 0.000000 0.000000 1.000000
vn 0.000000 0.000000 1.000000
vn 0.000000 0.000000 1.000000
vn 0.000000 0.000000 1.000000
vn 0.000000 0.000000 1.000000
vn 0.000000 0.000000 1.000000
vn 0.000000 0.000000 1.000000
vn 0.000000 0.000000 1.000000
vn 0.000000 0.000000 1.000000
vn 0.000000 -1.000000 0.000000
vn 0.000000 -1.000000 0.000000
vn 0.000000 -1.000000 0.000000
vn 0.000000 -1.000000 0.000000
vn 0.000000 0.000000 1.000000
vn 0.000000 0.000000 1.000000
vn 0.000000 0.000000 1.000000
vn 0.000000 0.000000 1.000000
vn 0.000000 1.000000 -0.000000
vn 0.000000 1.000000 -0.000000
vn 0.000000 1.000000 -0.000000
vn 0.000000 1.000000 0.000000
vn 0.000000 1.000000 0.000000
vn 0.000000 1.000000 -0.000000
vn 0.000000 -0.000000 1.000000
vn 0.000000 -0.000000 1.000000
vn 0.000000 -0.000000 1.000000
vn 0.000000 -0.000000 1.000000
vn 0.000000 -0.000000 1.000000
vn 0.000000 -0.000000 1.000000
vn 0.000000 -0.000000 1.000000
vn 0.000000 0.000000 1.000000
vn 0.000000 0.000000 1.000000
vn 0.000000 0.000000 1.000000
vn 0.000000 0.000000 1.000000
vn 0.000000 0.000000 1.000000
vn 0.000000 0.000000 1.000000
vn 0.000000 0.000000 1.000000
vn 0.000000 -0.000000 1.000000
vn 0.000000 -0.000000 1.000000
vn -0.000000 0.000000 1.000000
vn 0.000000 0.000000 1.000000
vn 0.000000 0.000000 1.000000
vn 0.000000 0.000000 1.000000
vn -0.000000 0.000000 1.000000
vn -0.000000 0.000000 1.000000
vn 0.000000 0.000000 1.000000
vn 0.000000 0.000000 1.000000
vn -0.000000 0.000000 1.000000
vn -0.000000 0.000000 1.000000
vn -0.000000 0.000000 1.000000
vn -0.000000 0.000000 1.000000
vn 0.000000 -0.000000 1.000000
vn -0.000000 0.000000 1.000000
vn 0.000000 -0.000000 1.000000
vn 0.000000 -0.000000 1.000000
vn 0.000000 -0.000000 1.000000
vn 0.000000 -0.000000 1.000000
vn 0.000000 0.000000 1.000000
vn 0.000000 0.000000 1.000000
vn 0.064011 0.997949 0.000000
vn 0.064011 0.997949 0.000000
vn 0.064011 0.997949 0.000000
vn 0.064011 0.997949 0.000000
vn -0.923045 0.384691 0.000000
vn -0.923045 0.384691 0.000000
vn -0.923045 0.384691 0.000000
vn -0.923045 0.384691 0.000000
vn -0.843517 0.537102 0.000000
vn -0.843517 0.537102 0.000000
vn -0.843517 0.537102 0.000000
vn -0.843517 0.537102 0.000000
vn -0.596609 -0.802532 0.000000
vn -0.596609 -0.802532 0.000000
vn -0.596609 -0.802532 0.000000
vn -0.596609 -0.802532 0.000000
vn 0.522283 -0.852772 0.000000
vn 0.522283 -0.852772 0.000000
vn 0.522283 -0.852772 0.000000
vn 0.522283 -0.852772 0.000000
vn 0.998222 -0.059611 0.000000
vn 0.998222 -0.059611 0.000000
vn 0.998222 -0.059611 0.000000
vn 0.998222 -0.059611 0.000000
vn -0.000000 0.000000 -1.000000
vn -0.000000 0.000000 -1.000000
vn -0.000000 0.000000 -1.000000
vn -0.000000 0.000000 -1.000000
vn 0.000000 0.000000 -1.000000
vn 0.000000 0.000000 -1.000000
vn 0.000000 0.000000 -1.000000
vn 0.000000 0.000000 -1.000000
vn -0.000000 0.000000 -1.000000
vn -0.000000 0.000000 -1.000000
vn -0.000000 0.000000 -1.000000
vn -0.000000 0.000000 -1.000000
vn 0.000000 0.000000 -1.000000
vn 0.000000 0.000000 -1.000000
vn 0.000000 0.000000 -1.000000
vn 0.000000 0.000000 -1.000000
vn 0.000000 0.000000 -1.000000
vn 0.000000 0.000000 -1.000000
vn 0.000000 0.000000 -1.000000
vn 0.000000 0.000000 -1.000000
vn -0.000000 0.000000 -1.000000
vn -0.000000 0.000000 -1.000000
vn -0.000000 0.000000 -1.000000
vn -0.000000 0.000000 -1.000000
vn 0.064011 0.997949 0.000000
vn 0.064011 0.997949 0.000000
vn 0.064011 0.997949 0.000000
vn 0.064011 0.997949 0.000000
vn -0.923045 0.384692 0.000000
vn -0.923045 0.384692 0.000000
vn -0.923045 0.384692 0.000000
vn -0.923045 0.384692 0.000000
vn -0.843517 0.537102 0.000000
vn -0.843517 0.537102 0.000000
vn -0.843517 0.537102 0.000000
vn -0.843517 0.537102 0.000000
vn -0.596609 -0.802532 0.000000
vn -0.596609 -0.802532 0.000000
vn -0.596609 -0.802532 0.000000
vn -0.596609 -0.802532 0.000000
vn 0.522283 -0.852772 0.000000
vn 0.522283 -0.852772 0.000000
vn 0.522283 -0.852772 0.000000
vn 0.522283 -0.852772 0.000000
vn 0.998222 -0.059611 0.000000
vn 0.998222 -0.059611 0.000000
vn 0.998222 -0.059611 0.000000
vn 0.998222 -0.059611 0.000000
vn -0.000000 0.000000 1.000000
vn 0.000000 -0.000000 1.000000
vn 0.000000 0.000000 1.000000
vn 0.000000 0.000000 1.000000
vn 0.000000 0.000000 1.000000
vn -0.000000 0.000000 1.000000
vn 0.000000 0.000000 1.000000
vn 0.000000 0.000000 1.000000
vn 0.000000 -0.000000 1.000000
vn 0.000000 0.000000 1.000000
vn 0.000000 0.000000 1.000000
vn 0.000000 0.000000 1.000000
vn -0.000000 0.000000 1.000000
vn -0.000000 0.000000 1.000000
vn 0.000000 0.000000 1.000000
vn -0.000000 0.000000 1.000000
vn 0.000000 0.000000 1.000000
vn 0.000000 0.000000 1.000000
vn -0.000000 0.000000 1.000000
vn 0.000000 0.000000 1.000000
vn 0.000000 0.000000 1.000000
vn 0.000000 0.000000 1.000000
vn 0.000000 0.000000 1.000000
vn 0.000000 0.000000 1.000000
vn 0.000000 0.000000 1.000000
vn 0.000000 0.000000 1.000000
vn 0.000000 -0.000000 1.000000
vn -0.000000 0.000000 1.000000
vn 0.000000 -0.000000 1.000000
vn 0.000000 -0.000000 1.000000
vn 0.000000 -0.000000 1.000000
vn -0.000000 0.000000 1.000000
vn 0.000000 -0.000000 1.000000
vn 0.000000 -0.000000 1.000000
vn 0.000000 -0.000000 1.000000
vn -0.000000 0.000000 1.000000
vn -1.000000 0.000000 0.000000
vn -1.000000 0.000000 0.000000
vn -1.000000 0.000000 0.000000
vn -1.000000 0.000000 0.000000
vn 0.000000 1.000000 0.000000
vn 0.000000 1.000000 0.000000
vn 0.000000 1.000000 0.000000
vn 0.000000 1.000000 0.000000
vn 1.000000 0.000000 0.000000
vn 1.000000 0.000000 0.000000
vn 1.000000 0.000000 0.000000
vn 1.000000 0.000000 0.000000
vn 0.000000 -1.000000 0.000000
vn 0.000000 -1.000000 0.000000
vn 0.000000 -1.000000 0.000000
vn 0.000000 -1.000000 0.000000
vn 0.000000 0.000000 1.000000
vn 0.000000 0.000000 1.000000
vn 0.000000 0.000000 1.000000
vn 0.000000 0.000000 1.000000
vn 0.000000 0.000000 -1.000000
vn 0.000000 0.000000 -1.000000
vn 0.000000 0.000000 -1.000000
vn 0.000000 0.000000 -1.000000
vn 0.741326 0.667871 0.066213
vn 0.741326 0.667871 0.066213
vn 0.741326 0.667871 0.066213
vn 0.741326 0.667871 0.066213
vn 0.919384 -0.385703 -0.077248
vn 0.919384 -0.385703 -0.077248
vn 0.919384 -0.385703 -0.077248
vn 0.919384 -0.385703 -0.077248
vn -0.533124 -0.840695 -0.094928
vn -0.533124 -0.840695 -0.094928
vn -0.533124 -0.840695 -0.094928
vn -0.533124 -0.840695 -0.094928
vn -0.680296 0.723903 0.114725
vn -0.680296 0.723903 0.114725
vn -0.680296 0.723903 0.114725
vn -0.680296 0.723903 0.114725
vn 0.028693 -0.130097 0.991086
vn 0.028693 -0.130097 0.991086
vn 0.028693 -0.130097 0.991086
vn 0.028693 -0.130097 0.991086
vn 0.915034 -0.395679 -0.078431
vn 0.915034 -0.395679 -0.078431
vn 0.915034 -0.395679 -0.078431
vn 0.915034 -0.395679 -0.078431
vn 0.017915 -0.991268 -0.130640
vn 0.017915 -0.991268 -0.130640
vn 0.017915 -0.991268 -0.130640
vn 0.017915 -0.991268 -0.130640
vn -0.989625 0.135945 0.046497
vn -0.989625 0.135945 0.046497
vn -0.989625 0.135945 0.046497
vn -0.989625 0.135945 0.046497
vn 0.390178 0.914298 0.108721
vn 0.390178 0.914298 0.108721
vn 0.390178 0.914298 0.108721
vn 0.390178 0.914298 0.108721
vn 0.028692 -0.130097 0.991086
vn 0.028692 -0.130097 0.991086
vn 0.028692 -0.130097 0.991086
vn 0.028692 -0.130097 0.991086
s off
f 1/17/1 2/1/2 4/18/3 3/14/4
f 3/2/5 4/12/6 6/5/7 5/15/8
f 5/4/9 6/13/10 8/7/11 7/20/12
f 9/21/13 10/22/14 2/9/15 1/8/16
f 2/16/17 10/23/18 8/10/19 6/11/20 4/3/21
f 7/6/22 8/19/23 10/313/24 9/312/25
f 11/24/26 12/25/27 14/26/28 13/27/29
f 13/28/30 14/29/31 16/30/32 15/31/33
f 15/32/34 16/33/35 18/34/36 17/35/37
f 18/36/38 12/37/39 11/38/40 17/39/41
f 12/40/42 18/41/43 16/42/44 14/43/45
f 19/44/46 20/45/47 22/46/48 21/47/49
f 21/48/50 22/49/51 24/50/52 23/51/53
f 23/52/54 24/53/55 26/54/56 25/55/57
f 26/56/58 20/57/59 19/58/60 25/59/61
f 20/60/62 26/61/63 24/62/64 22/63/65
f 27/64/66 28/65/67 30/66/68 29/67/69
f 29/68/70 30/69/71 32/70/72 31/71/73
f 31/72/74 32/73/75 34/74/76 33/75/77
f 34/76/78 28/77/79 27/78/80 33/79/81
f 28/80/82 34/81/83 32/82/84 30/83/85
f 35/84/86 36/85/87 38/86/88 37/87/89
f 37/88/90 38/89/91 40/90/92 39/91/93
f 39/92/94 40/93/95 42/94/96 41/95/97
f 42/96/98 36/97/99 35/98/100 41/99/101
f 36/100/102 42/101/103 40/102/104 38/103/105
f 86/104/106 87/105/107 88/106/108 89/107/109 90/108/110 91/109/111
f 48/110/112 47/111/113 49/112/114 50/113/115
f 47/114/116 48/115/117 52/116/118 51/117/119
f 54/118/120 53/119/121 55/120/122 56/121/123
f 56/122/124 55/123/125 45/124/126 65/125/127 64/126/128 46/127/129
f 58/128/130 63/129/131 62/130/132 61/131/133 60/132/134 59/133/135 57/134/136
f 67/136/137 66/137/138 65/135/139
f 65/135/140 66/137/141 64/138/142
f 71/139/143 61/140/144 62/141/145 46/142/146 64/143/147 66/144/148 72/145/149
f 45/146/150 92/147/151 65/149/152
f 65/149/153 92/147/154 95/148/155
f 45/146/156 44/150/157 69/151/158 92/147/159
f 70/152/160 59/153/161 60/154/162 61/140/163 71/139/164 94/155/165
f 72/156/166 73/157/167 75/158/168 74/159/169
f 73/160/170 68/161/171 76/162/172 75/163/173
f 68/164/174 69/165/175 77/166/176 76/167/177
f 69/168/178 70/169/179 78/170/180 77/171/181
f 70/172/182 71/173/183 79/174/184 78/175/185
f 71/176/186 72/177/187 74/178/188 79/179/189
f 74/180/190 75/310/191 81/304/192 80/183/193
f 75/181/194 76/309/195 82/303/196 81/182/197
f 76/184/198 77/308/199 83/302/200 82/185/201
f 77/186/202 78/307/203 84/301/204 83/187/205
f 78/188/206 79/306/207 85/300/208 84/189/209
f 79/190/210 74/311/211 80/305/212 85/191/213
f 80/192/214 81/193/215 87/194/216 86/195/217
f 81/196/218 82/197/219 88/198/220 87/199/221
f 82/200/222 83/201/223 89/202/224 88/203/225
f 83/204/226 84/205/227 90/206/228 89/207/229
f 84/208/230 85/209/231 91/210/232 90/211/233
f 85/212/234 80/213/235 86/214/236 91/215/237
f 92/298/238 69/217/239 68/299/240
f 72/219/241 93/220/242 92/216/243 68/218/244 73/221/245
f 70/222/246 94/223/247 71/224/248
f 93/225/249 95/226/250 92/227/251
f 65/149/252 95/148/253 67/229/254
f 67/229/255 95/148/256 93/228/257
f 93/228/258 72/145/259 67/229/260
f 67/229/261 72/145/262 66/144/263
f 69/151/264 44/150/265 57/230/266 59/153/267 70/152/268
f 46/142/269 62/141/270 63/231/271 58/232/272 43/233/273
f 96/234/274 97/235/275 99/236/276 98/237/277
f 98/238/278 99/239/279 101/240/280 100/241/281
f 100/242/282 101/243/283 103/244/284 102/245/285
f 102/246/286 103/247/287 97/248/288 96/249/289
f 97/250/290 103/251/291 101/252/292 99/253/293
f 102/254/294 96/255/295 98/256/296 100/257/297
f 104/258/298 105/259/299 107/260/300 106/261/301
f 106/262/302 107/263/303 109/264/304 108/265/305
f 108/266/306 109/267/307 111/268/308 110/269/309
f 111/270/310 105/271/311 104/272/312 110/273/313
f 105/274/314 111/275/315 109/276/316 107/277/317
f 112/278/318 113/279/319 115/280/320 114/281/321
f 114/282/322 115/283/323 117/284/324 116/285/325
f 116/286/326 117/287/327 119/288/328 118/289/329
f 119/290/330 113/291/331 112/292/332 118/293/333
f 113/294/334 119/295/335 117/296/336 115/297/337
