# This file uses centimeters as units for non-parametric coordinates.

v -0.336236 1.168775 1.099828
v 0.336236 1.168775 1.099828
v -0.336236 1.841247 1.099828
v 0.336236 1.841247 1.099828
v -0.336236 1.841247 0.000000
v 0.336236 1.841247 0.000000
v -0.336236 1.168775 0.000000
v 0.336236 1.168775 0.000000
v -0.254342 1.250669 1.099828
v 0.254342 1.250669 1.099828
v 0.254342 1.759353 1.099828
v -0.254342 1.759353 1.099828
v -0.254342 1.250669 0.032349
v 0.254342 1.250669 0.032349
v 0.254342 1.759353 0.032349
v -0.254342 1.759353 0.032349
v -0.254825 1.311007 0.032349
v -0.254828 1.311007 1.140931
v 0.256869 1.311007 0.032349
v 0.256864 1.311007 1.140931
v 0.256864 -0.721054 1.599906
v -0.254828 -0.721054 1.599906
v 0.256869 1.250669 0.032349
v 0.256869 1.250669 1.094421
v 0.256869 -0.721054 1.558733
v -0.254828 -0.721054 1.558733
v -0.254828 1.250669 1.094421
v -0.254825 1.250669 0.032349
v -0.254828 0.002094 1.094421
v -0.254828 0.044382 1.140931
v 0.256864 0.044382 1.140931
v 0.256869 0.002094 1.094421
v 0.256869 0.002094 1.094421
v -0.254828 0.002094 1.094421
v -0.254828 0.044382 1.599906
v 0.256864 0.044382 1.599906
v -0.254828 0.002094 1.558733
v 0.256869 0.002094 1.558733
vt 0.201700 0.062185
vt 0.231474 0.062185
vt 0.261932 0.062185
vt 0.201700 0.062185
vt 0.261932 0.062185
vt 0.168110 0.062185
vt 0.168110 0.062185
vt 0.168110 0.062185
vt 0.201700 0.062185
vt 0.201700 0.062185
vt 0.201700 0.062185
vt 0.201700 0.062185
vt 0.168110 0.062185
vt 0.261932 0.062185
vt 0.201700 0.062185
vt 0.231474 0.062185
vt 0.261932 0.062185
vt 0.231474 0.062185
vt 0.231474 0.062185
vt 0.201700 0.062185
vt 0.263189 0.062185
vt 0.205046 0.062185
vt 0.170688 0.062185
vt 0.205046 0.062185
vt 0.140539 0.062880
vt 0.205046 0.062185
vt 0.170688 0.062185
vt 0.205046 0.062185
vt 0.263189 0.062185
vt 0.263189 0.062185
vt 0.263189 0.062185
vt 0.231474 0.062185
vt 0.205046 0.062185
vt 0.170688 0.062185
vt 0.231474 0.062185
vt 0.140539 0.062880
vt 0.205046 0.062185
vt 0.205046 0.062185
vt 0.231474 0.062185
vt 0.205046 0.062185
vt 0.140539 0.062880
vt 0.140539 0.062880
vt 0.170688 0.062185
vt 0.231474 0.062185
vt 0.231474 0.062185
vt 0.231474 0.062185
vt 0.231474 0.062185
vt 0.231474 0.062185
vt 0.231474 0.062185
vt 0.231474 0.062185
vt 0.231474 0.062185
vt 0.231474 0.062185
vt 0.199990 0.285400
vt 0.199990 0.285400
vt 0.199990 0.285400
vt 0.199990 0.285400
vt 0.168106 0.285431
vt 0.168106 0.285431
vt 0.168106 0.285431
vt 0.168106 0.285431
vt 0.137896 0.285322
vt 0.137896 0.285322
vt 0.137896 0.285322
vt 0.137896 0.285322
vt 0.137896 0.285322
vt 0.137896 0.285322
vt 0.137896 0.285322
vt 0.137896 0.285322
vt 0.137896 0.285322
vt 0.137896 0.285322
vt 0.137896 0.285322
vt 0.137896 0.285322
vt 0.137896 0.285322
vt 0.137896 0.285322
vt 0.137896 0.285322
vt 0.137896 0.285322
vt 0.166838 0.285422
vt 0.166838 0.285422
vt 0.166838 0.285422
vt 0.166838 0.285422
vt 0.106565 0.285324
vt 0.106565 0.285324
vt 0.106565 0.285324
vt 0.106565 0.285324
vt 0.137896 0.285322
vt 0.137896 0.285322
vt 0.137896 0.285322
vt 0.137896 0.285322
vt 0.137896 0.285322
vt 0.203733 0.285431
vt 0.203733 0.285431
vt 0.203733 0.285431
vt 0.203733 0.285431
vt 0.137896 0.285322
vt 0.137896 0.285322
vt 0.137896 0.285322
vt 0.137896 0.285322
vt 0.166838 0.285422
vt 0.166838 0.285422
vt 0.166838 0.285422
vt 0.166838 0.285422
vt 0.166838 0.285422
vt 0.166838 0.285422
vt 0.166838 0.285422
vt 0.166838 0.285422
vt 0.168106 0.285431
vt 0.168106 0.285431
vt 0.168106 0.285431
vt 0.168106 0.285431
vt 0.166838 0.285422
vt 0.166838 0.285422
vt 0.166838 0.285422
vt 0.166838 0.285422
vt 0.137896 0.285322
vt 0.137896 0.285322
vt 0.137896 0.285322
vt 0.137896 0.285322
vt 0.137896 0.285322
vt 0.137896 0.285322
vt 0.137896 0.285322
vt 0.137896 0.285322
vt 0.137896 0.285322
vn 0.000000 0.000000 1.000000
vn 0.000000 0.000000 1.000000
vn 0.000000 0.000000 1.000000
vn 0.000000 0.000000 1.000000
vn 0.000000 1.000000 0.000000
vn 0.000000 1.000000 0.000000
vn 0.000000 1.000000 0.000000
vn 0.000000 1.000000 0.000000
vn 0.000000 -1.000000 0.000000
vn 0.000000 -1.000000 0.000000
vn 0.000000 -1.000000 0.000000
vn 0.000000 -1.000000 0.000000
vn 1.000000 0.000000 0.000000
vn 1.000000 0.000000 0.000000
vn 1.000000 0.000000 0.000000
vn 1.000000 0.000000 0.000000
vn -1.000000 0.000000 0.000000
vn -1.000000 0.000000 0.000000
vn -1.000000 0.000000 0.000000
vn -1.000000 0.000000 0.000000
vn 0.000000 0.000000 1.000000
vn 0.000000 0.000000 1.000000
vn 0.000000 0.000000 1.000000
vn 0.000000 0.000000 1.000000
vn -0.000001 0.000000 1.000000
vn -0.000001 0.000000 1.000000
vn -0.000001 0.000000 1.000000
vn -0.000001 0.000000 1.000000
vn 0.000000 0.000000 1.000000
vn 0.000000 0.000000 1.000000
vn 0.000000 0.000000 1.000000
vn 0.000000 0.000000 1.000000
vn 0.000001 0.000000 1.000000
vn 0.000001 0.000000 1.000000
vn 0.000001 0.000000 1.000000
vn 0.000001 0.000000 1.000000
vn 0.000000 1.000000 0.000000
vn 0.000000 1.000000 0.000000
vn 0.000000 1.000000 0.000000
vn 0.000000 1.000000 0.000000
vn -1.000000 0.000000 0.000000
vn -1.000000 0.000000 0.000000
vn -1.000000 0.000000 0.000000
vn -1.000000 0.000000 0.000000
vn 0.000000 -1.000000 0.000000
vn 0.000000 -1.000000 0.000000
vn 0.000000 -1.000000 0.000000
vn 0.000000 -1.000000 0.000000
vn 1.000000 0.000000 0.000000
vn 1.000000 0.000000 0.000000
vn 1.000000 0.000000 0.000000
vn 1.000000 0.000000 0.000000
vn 0.000000 1.000000 0.000000
vn 0.000000 1.000000 0.000000
vn 0.000000 1.000000 0.000000
vn 0.000000 1.000000 0.000000
vn 0.000000 0.000000 1.000000
vn 0.000000 0.340683 0.940178
vn 0.000000 0.340683 0.940178
vn 0.000000 0.000000 1.000000
vn 1.000000 0.000046 0.000003
vn 1.000000 0.000046 0.000003
vn 1.000000 0.000046 0.000003
vn 1.000000 0.000046 0.000003
vn 1.000000 0.000000 0.000123
vn 1.000000 0.000035 0.000091
vn 1.000000 0.000065 0.000064
vn 1.000000 0.000000 0.000123
vn -1.000000 -0.000000 0.000000
vn -1.000000 -0.000000 0.000000
vn -1.000000 0.000000 0.000000
vn -1.000000 0.000000 0.000000
vn -1.000000 0.000002 -0.000004
vn -1.000000 0.000002 -0.000004
vn -1.000000 0.000002 -0.000004
vn -1.000000 0.000002 -0.000004
vn -0.000000 0.000000 -1.000000
vn -0.000000 0.000000 -1.000000
vn -0.000000 0.000000 -1.000000
vn -0.000000 0.000000 -1.000000
vn 0.000000 -1.000000 0.000000
vn 0.000000 -1.000000 0.000000
vn 0.000000 -1.000000 0.000000
vn 0.000000 -1.000000 0.000000
vn -1.000000 -0.000000 0.000000
vn -1.000000 -0.000000 0.000000
vn -1.000000 -0.000000 0.000000
vn -1.000000 -0.000000 0.000000
vn -1.000000 -0.000000 0.000000
vn 0.000000 0.340683 0.940178
vn 0.000000 0.340683 0.940178
vn 0.000000 0.514259 0.857635
vn 0.000000 0.514259 0.857635
vn 1.000000 0.000052 0.000085
vn 1.000000 0.000054 0.000084
vn 1.000000 0.000000 0.000139
vn 1.000000 0.000000 0.000139
vn -0.000000 -1.000000 -0.000000
vn -0.000000 -1.000000 -0.000000
vn -0.000000 0.000000 -1.000000
vn -0.000000 0.000000 -1.000000
vn 0.000000 0.000000 -1.000000
vn 0.000000 0.000000 -1.000000
vn 0.000000 -0.540290 -0.841479
vn 0.000000 -0.540289 -0.841479
vn 0.000000 0.514259 0.857635
vn 0.000000 0.514259 0.857635
vn 0.000000 0.000000 1.000000
vn 0.000000 0.000000 1.000000
vn 0.000000 -0.540289 -0.841479
vn 0.000000 -0.540290 -0.841479
vn -0.000000 -1.000000 -0.000000
vn -0.000000 -1.000000 -0.000000
vn -1.000000 0.000000 0.000000
vn -1.000000 -0.000000 0.000000
vn -1.000000 -0.000000 0.000000
vn -1.000000 0.000000 0.000000
vn 1.000000 0.000065 0.000064
vn 1.000000 0.000035 0.000091
vn 1.000000 0.000054 0.000084
vn 1.000000 0.000052 0.000085
vn 1.000000 0.000135 -0.000000
s off
f 13/25/1 14/36/2 15/41/3 16/42/4
f 3/3/5 4/17/6 6/5/7 5/14/8
f 7/6/9 8/13/10 2/8/11 1/7/12
f 2/15/13 8/9/14 6/10/15 4/4/16
f 7/11/17 1/1/18 3/20/19 5/12/20
f 1/18/21 2/51/22 10/47/23 9/32/24
f 2/2/25 4/50/26 11/46/27 10/39/28
f 4/16/29 3/49/30 12/45/31 11/44/32
f 3/19/33 1/52/34 9/48/35 12/35/36
f 9/21/37 10/31/38 14/30/39 13/29/40
f 10/22/41 11/38/42 15/37/43 14/26/44
f 11/23/45 12/43/46 16/34/47 15/27/48
f 12/24/49 9/40/50 13/33/51 16/28/52
f 17/53/53 18/54/54 20/55/55 19/56/56
f 18/57/57 30/58/58 31/59/59 20/60/60
f 19/61/61 20/62/62 24/63/63 23/64/64
f 20/65/65 31/66/66 32/67/67 24/68/68
f 29/69/69 30/70/70 18/71/71 27/72/72
f 18/73/73 17/74/74 28/75/75 27/76/76
f 32/77/77 29/78/78 27/79/79 24/80/80
f 24/81/81 27/82/82 28/83/83 23/84/84
f 37/85/85 35/86/86 30/87/87 29/88/88 34/89/89
f 31/90/90 30/91/91 35/92/92 36/93/93
f 38/94/94 36/95/95 21/96/96 25/97/97
f 33/98/98 34/99/99 29/100/100 32/101/101
f 25/102/102 26/103/103 37/104/104 38/105/105
f 36/106/106 35/107/107 22/108/108 21/109/109
f 38/110/110 37/111/111 34/112/112 33/113/113
f 22/114/114 35/115/115 37/116/116 26/117/117
f 32/118/118 31/119/119 36/120/120 38/121/121 33/122/122
