# This file uses centimeters as units for non-parametric coordinates.

v 0.000000 4.208395 0.000000
v 5.000002 4.208395 0.000000
v 5.000002 0.206069 0.000000
v 0.000000 0.206069 0.000000
v 5.000002 4.208395 0.054874
v 0.000002 4.208395 0.054874
v 5.000002 4.414464 0.054874
v 0.000000 4.414464 0.054874
v 5.000002 4.208395 0.000000
v 0.000002 4.208395 0.000000
v 5.000002 -0.270663 0.054874
v 0.000002 -0.270663 0.054874
v 5.000002 0.206069 0.054874
v 0.000000 0.206069 0.054874
v 0.000000 3.064819 0.000000
v 0.000000 3.064819 0.098370
v 0.000000 3.163188 0.000000
v 0.000000 3.163188 0.098370
v 5.000001 3.163188 0.000000
v 5.000001 3.163188 0.098370
v 5.000001 3.064819 0.000000
v 5.000001 3.064819 0.098370
v 0.000000 3.640970 0.000000
v 0.000000 3.640970 0.098370
v 0.000000 3.739339 0.000000
v 0.000000 3.739339 0.098370
v 5.000001 3.739339 0.000000
v 5.000001 3.739339 0.098370
v 5.000001 3.640970 0.000000
v 5.000001 3.640970 0.098370
v 4.052209 3.122838 0.000000
v 4.052209 3.122838 0.086355
v 4.052209 3.669636 0.000000
v 4.052209 3.669636 0.086355
v 4.149553 3.669636 0.000000
v 4.149553 3.669636 0.086355
v 4.149553 3.122838 0.000000
v 4.149553 3.122838 0.086355
v 2.446408 3.122838 0.000000
v 2.446408 3.122838 0.086355
v 2.446408 3.669636 0.000000
v 2.446408 3.669636 0.086355
v 2.543751 3.669636 0.000000
v 2.543751 3.669636 0.086355
v 2.543751 3.122838 0.000000
v 2.543751 3.122838 0.086355
v 0.850451 3.122838 0.000000
v 0.850451 3.122838 0.086355
v 0.850451 3.669636 0.000000
v 0.850451 3.669636 0.086355
v 0.947795 3.669636 0.000000
v 0.947795 3.669636 0.086355
v 0.947795 3.122838 0.000000
v 0.947795 3.122838 0.086355
vt 0.210395 0.110819
vt 0.210395 0.110819
vt 0.210395 0.110819
vt 0.210395 0.110819
vt 0.144280 0.110819
vt 0.144280 0.110819
vt 0.144280 0.110819
vt 0.144280 0.110819
vt 0.107954 0.110819
vt 0.107954 0.110819
vt 0.107954 0.110819
vt 0.107954 0.110819
vt 0.144280 0.110819
vt 0.144280 0.110819
vt 0.144280 0.110819
vt 0.144280 0.110819
vt 0.107954 0.110819
vt 0.107954 0.110819
vt 0.107954 0.110819
vt 0.107954 0.110819
vt 0.204319 0.475915
vt 0.204319 0.475915
vt 0.204319 0.475915
vt 0.204319 0.475915
vt 0.265081 0.475915
vt 0.265081 0.475915
vt 0.265081 0.475915
vt 0.265081 0.475915
vt 0.204319 0.475915
vt 0.204319 0.475915
vt 0.204319 0.475915
vt 0.204319 0.475915
vt 0.170017 0.475915
vt 0.170017 0.475915
vt 0.170017 0.475915
vt 0.170017 0.475915
vt 0.230780 0.475915
vt 0.230780 0.475915
vt 0.230780 0.475915
vt 0.230780 0.475915
vt 0.204319 0.475915
vt 0.204319 0.475915
vt 0.204319 0.475915
vt 0.204319 0.475915
vt 0.265081 0.475915
vt 0.265081 0.475915
vt 0.265081 0.475915
vt 0.265081 0.475915
vt 0.204319 0.475915
vt 0.204319 0.475915
vt 0.204319 0.475915
vt 0.204319 0.475915
vt 0.170017 0.475915
vt 0.170017 0.475915
vt 0.170017 0.475915
vt 0.170017 0.475915
vt 0.230780 0.475915
vt 0.230780 0.475915
vt 0.230780 0.475915
vt 0.230780 0.475915
vt 0.141952 0.475915
vt 0.141952 0.475915
vt 0.141952 0.475915
vt 0.141952 0.475915
vt 0.202714 0.475915
vt 0.202714 0.475915
vt 0.202714 0.475915
vt 0.202714 0.475915
vt 0.141952 0.475915
vt 0.141952 0.475915
vt 0.141952 0.475915
vt 0.141952 0.475915
vt 0.107650 0.475915
vt 0.107650 0.475915
vt 0.107650 0.475915
vt 0.107650 0.475915
vt 0.168413 0.475915
vt 0.168413 0.475915
vt 0.168413 0.475915
vt 0.168413 0.475915
vt 0.141952 0.475915
vt 0.141952 0.475915
vt 0.141952 0.475915
vt 0.141952 0.475915
vt 0.202714 0.475915
vt 0.202714 0.475915
vt 0.202714 0.475915
vt 0.202714 0.475915
vt 0.141952 0.475915
vt 0.141952 0.475915
vt 0.141952 0.475915
vt 0.141952 0.475915
vt 0.107650 0.475915
vt 0.107650 0.475915
vt 0.107650 0.475915
vt 0.107650 0.475915
vt 0.168413 0.475915
vt 0.168413 0.475915
vt 0.168413 0.475915
vt 0.168413 0.475915
vt 0.141952 0.475915
vt 0.141952 0.475915
vt 0.141952 0.475915
vt 0.141952 0.475915
vt 0.202714 0.475915
vt 0.202714 0.475915
vt 0.202714 0.475915
vt 0.202714 0.475915
vt 0.141952 0.475915
vt 0.141952 0.475915
vt 0.141952 0.475915
vt 0.141952 0.475915
vt 0.107650 0.475915
vt 0.107650 0.475915
vt 0.107650 0.475915
vt 0.107650 0.475915
vt 0.168413 0.475915
vt 0.168413 0.475915
vt 0.168413 0.475915
vt 0.168413 0.475915
vn 0.000000 0.000000 1.000000
vn -0.000000 0.000000 1.000000
vn 0.000000 0.000000 1.000000
vn -0.000000 0.000000 1.000000
vn 0.000000 0.000000 1.000000
vn 0.000000 0.000000 1.000000
vn 0.000000 0.000000 1.000000
vn 0.000000 0.000000 1.000000
vn 0.000000 -1.000000 0.000000
vn 0.000000 -1.000000 0.000000
vn 0.000000 -1.000000 0.000000
vn 0.000000 -1.000000 0.000000
vn 0.000000 0.000000 1.000000
vn 0.000000 0.000000 1.000000
vn 0.000000 0.000000 1.000000
vn 0.000000 0.000000 1.000000
vn 0.000000 1.000000 -0.000000
vn 0.000000 1.000000 -0.000000
vn 0.000000 1.000000 -0.000000
vn 0.000000 1.000000 -0.000000
vn -1.000000 0.000000 0.000000
vn -1.000000 0.000000 0.000000
vn -1.000000 0.000000 0.000000
vn -1.000000 0.000000 0.000000
vn 0.000000 1.000000 0.000000
vn 0.000000 1.000000 0.000000
vn 0.000000 1.000000 0.000000
vn 0.000000 1.000000 0.000000
vn 1.000000 0.000000 0.000000
vn 1.000000 0.000000 0.000000
vn 1.000000 0.000000 0.000000
vn 1.000000 0.000000 0.000000
vn 0.000000 -1.000000 0.000000
vn 0.000000 -1.000000 0.000000
vn 0.000000 -1.000000 0.000000
vn 0.000000 -1.000000 0.000000
vn 0.000000 0.000000 1.000000
vn 0.000000 0.000000 1.000000
vn 0.000000 0.000000 1.000000
vn 0.000000 0.000000 1.000000
vn -1.000000 0.000000 0.000000
vn -1.000000 0.000000 0.000000
vn -1.000000 0.000000 0.000000
vn -1.000000 0.000000 0.000000
vn 0.000000 1.000000 0.000000
vn 0.000000 1.000000 0.000000
vn 0.000000 1.000000 0.000000
vn 0.000000 1.000000 0.000000
vn 1.000000 0.000000 0.000000
vn 1.000000 0.000000 0.000000
vn 1.000000 0.000000 0.000000
vn 1.000000 0.000000 0.000000
vn 0.000000 -1.000000 0.000000
vn 0.000000 -1.000000 0.000000
vn 0.000000 -1.000000 0.000000
vn 0.000000 -1.000000 0.000000
vn 0.000000 0.000000 1.000000
vn 0.000000 0.000000 1.000000
vn 0.000000 0.000000 1.000000
vn 0.000000 0.000000 1.000000
vn -1.000000 0.000000 0.000000
vn -1.000000 0.000000 0.000000
vn -1.000000 0.000000 0.000000
vn -1.000000 0.000000 0.000000
vn 0.000000 1.000000 0.000000
vn 0.000000 1.000000 0.000000
vn 0.000000 1.000000 0.000000
vn 0.000000 1.000000 0.000000
vn 1.000000 0.000000 0.000000
vn 1.000000 0.000000 0.000000
vn 1.000000 0.000000 0.000000
vn 1.000000 0.000000 0.000000
vn 0.000000 -1.000000 0.000000
vn 0.000000 -1.000000 0.000000
vn 0.000000 -1.000000 0.000000
vn 0.000000 -1.000000 0.000000
vn 0.000000 0.000000 1.000000
vn 0.000000 0.000000 1.000000
vn 0.000000 0.000000 1.000000
vn 0.000000 0.000000 1.000000
vn -1.000000 0.000000 0.000000
vn -1.000000 0.000000 0.000000
vn -1.000000 0.000000 0.000000
vn -1.000000 0.000000 0.000000
vn 0.000000 1.000000 0.000000
vn 0.000000 1.000000 0.000000
vn 0.000000 1.000000 0.000000
vn 0.000000 1.000000 0.000000
vn 1.000000 0.000000 0.000000
vn 1.000000 0.000000 0.000000
vn 1.000000 0.000000 0.000000
vn 1.000000 0.000000 0.000000
vn 0.000000 -1.000000 0.000000
vn 0.000000 -1.000000 0.000000
vn 0.000000 -1.000000 0.000000
vn 0.000000 -1.000000 0.000000
vn 0.000000 0.000000 1.000000
vn 0.000000 0.000000 1.000000
vn 0.000000 0.000000 1.000000
vn 0.000000 0.000000 1.000000
vn -1.000000 0.000000 0.000000
vn -1.000000 0.000000 0.000000
vn -1.000000 0.000000 0.000000
vn -1.000000 0.000000 0.000000
vn 0.000000 1.000000 0.000000
vn 0.000000 1.000000 0.000000
vn 0.000000 1.000000 0.000000
vn 0.000000 1.000000 0.000000
vn 1.000000 0.000000 0.000000
vn 1.000000 0.000000 0.000000
vn 1.000000 0.000000 0.000000
vn 1.000000 0.000000 0.000000
vn 0.000000 -1.000000 0.000000
vn 0.000000 -1.000000 0.000000
vn 0.000000 -1.000000 0.000000
vn 0.000000 -1.000000 0.000000
vn 0.000000 0.000000 1.000000
vn 0.000000 0.000000 1.000000
vn 0.000000 0.000000 1.000000
vn 0.000000 0.000000 1.000000
s off
f 4/4/1 3/3/2 2/2/3 1/1/4
f 6/5/5 5/6/6 7/7/7 8/8/8
f 10/11/9 9/12/10 5/9/11 6/10/12
f 12/13/13 11/14/14 13/15/15 14/16/16
f 14/17/17 13/18/18 3/19/19 4/20/20
f 15/21/21 16/22/22 18/23/23 17/24/24
f 17/25/25 18/26/26 20/27/27 19/28/28
f 19/29/29 20/30/30 22/31/31 21/32/32
f 21/33/33 22/34/34 16/35/35 15/36/36
f 16/37/37 22/38/38 20/39/39 18/40/40
f 23/41/41 24/42/42 26/43/43 25/44/44
f 25/45/45 26/46/46 28/47/47 27/48/48
f 27/49/49 28/50/50 30/51/51 29/52/52
f 29/53/53 30/54/54 24/55/55 23/56/56
f 24/57/57 30/58/58 28/59/59 26/60/60
f 31/61/61 32/62/62 34/63/63 33/64/64
f 33/65/65 34/66/66 36/67/67 35/68/68
f 35/69/69 36/70/70 38/71/71 37/72/72
f 37/73/73 38/74/74 32/75/75 31/76/76
f 32/77/77 38/78/78 36/79/79 34/80/80
f 39/81/81 40/82/82 42/83/83 41/84/84
f 41/85/85 42/86/86 44/87/87 43/88/88
f 43/89/89 44/90/90 46/91/91 45/92/92
f 45/93/93 46/94/94 40/95/95 39/96/96
f 40/97/97 46/98/98 44/99/99 42/100/100
f 47/101/101 48/102/102 50/103/103 49/104/104
f 49/105/105 50/106/106 52/107/107 51/108/108
f 51/109/109 52/110/110 54/111/111 53/112/112
f 53/113/113 54/114/114 48/115/115 47/116/116
f 48/117/117 54/118/118 52/119/119 50/120/120
