# This file uses centimeters as units for non-parametric coordinates.

v 0.000008 0.000000 0.000000
v 0.000008 0.000000 5.000000
v 5.000008 0.000000 0.000000
v 5.000008 0.000000 5.000000
v 2.250011 0.000000 0.000000
v 2.025013 0.000000 0.000000
v 2.750008 0.000000 0.000000
v 2.975006 0.000000 0.000000
v 5.000011 0.000000 2.250000
v 2.750008 0.000000 2.250000
v 2.750008 0.000000 2.250000
v 5.000011 0.000000 2.025000
v 2.975010 0.000000 2.025000
v 2.750008 0.000000 2.250000
v 5.000008 0.000000 2.750000
v 2.250008 0.000000 2.750000
v 2.025009 0.000000 2.975000
v 5.000008 0.000000 2.975000
v 2.025009 0.000000 2.975000
v 2.025009 0.000000 2.975000
vt 0.262615 0.062211
vt 0.262615 0.062211
vt 0.262615 0.062211
vt 0.262615 0.062211
vt 0.262615 0.062211
vt 0.262615 0.062211
vt 0.262615 0.062211
vt 0.262615 0.062211
vt 0.199895 0.222982
vt 0.199895 0.222982
vt 0.199895 0.222982
vt 0.199895 0.222982
vt 0.262615 0.062211
vt 0.199895 0.219463
vt 0.266750 0.061121
vt 0.199895 0.222982
vt 0.262615 0.062211
vt 0.199895 0.219463
vt 0.262615 0.062211
vt 0.199895 0.222982
vt 0.199895 0.222982
vt 0.262615 0.062211
vt 0.199895 0.219463
vt 0.262615 0.062211
vt 0.199895 0.222982
vt 0.199895 0.222982
vt 0.262615 0.062211
vt 0.262615 0.062211
vt 0.199895 0.219463
vt 0.199895 0.222982
vt 0.262615 0.062211
vt 0.199895 0.219463
vt 0.262615 0.062211
vt 0.199895 0.219463
vt 0.262615 0.062211
vt 0.199895 0.219463
vt 0.199895 0.219463
vt 0.266750 0.061121
vt 0.199895 0.222982
vt 0.199895 0.222982
vn 0.000000 1.000000 0.000000
vn 0.000000 1.000000 0.000000
vn 0.000000 0.000000 0.000000
vn 0.000000 1.000000 0.000000
vn 0.000000 1.000000 0.000000
vn 0.000000 1.000000 0.000000
vn 0.000000 1.000000 0.000000
vn 0.000000 1.000000 0.000000
vn 0.000000 1.000000 0.000000
vn 0.000000 0.000000 0.000000
vn 0.000000 0.000000 0.000000
vn 0.000000 1.000000 0.000000
vn 0.000000 1.000000 0.000000
vn 0.000000 1.000000 0.000000
vn 0.000000 1.000000 0.000000
vn 0.000000 1.000000 0.000000
vn 0.000000 1.000000 0.000000
vn 0.000000 1.000000 0.000000
vn 0.000000 1.000000 0.000000
vn 0.000000 1.000000 0.000000
s 1
f 1/2/1 19/38/2 20/31/3 17/27/4 6/6/5
f 12/18/6 13/36/7 10/14/8 9/37/9
f 14/21/10 11/16/11 10/40/8 13/20/7 8/11/12 7/12/13
f 3/1/14 13/19/7 12/35/6
f 16/24/15 10/15/8 11/17/11 14/22/10 7/7/13 5/5/16
f 6/10/5 17/26/4 16/25/15 5/9/16
f 18/32/17 15/23/18 16/34/15 19/29/2
f 20/39/3 19/30/2 16/25/15 17/26/4
f 3/1/14 8/8/12 13/19/7
f 15/33/18 9/13/9 10/15/8 16/24/15
f 2/3/19 4/4/20 19/38/2
f 2/3/19 19/38/2 1/2/1
f 19/38/2 4/4/20 18/28/17
