# This file uses centimeters as units for non-parametric coordinates.

v 5.000000 3.750000 -0.000000
v 0.000000 3.750000 0.000000
v 5.000000 4.414464 -5.000000
v 0.000000 4.414464 -5.000000
v 0.000000 4.414464 -1.250000
v 5.000000 4.414464 -1.250000
vt 0.231170 0.062211
vt 0.262615 0.062211
vt 0.262615 0.062211
vt 0.231170 0.062211
vt 0.231170 0.062211
vt 0.264356 0.060430
vt 0.262615 0.062211
vt 0.231170 0.062211
vn -0.000000 -0.882998 -0.469376
vn -0.000000 -0.882998 -0.469376
vn -0.000000 -0.991285 -0.131735
vn -0.000000 -0.991285 -0.131735
vn 0.000000 -1.000000 0.000000
vn 0.000000 -1.000000 0.000000
s 1
f 1/2/1 2/3/2 5/6/3 6/7/4
f 3/1/5 6/5/4 5/8/3 4/4/6
