# This file uses centimeters as units for non-parametric coordinates.

v 1.614349 -0.357926 -0.242135
v 1.744783 -0.357926 -0.242135
v 1.575456 0.349296 -0.246627
v 1.610009 0.349296 -0.246627
v 1.575456 0.349296 -0.281181
v 1.610009 0.349296 -0.281181
v 1.614349 -0.357926 -0.372569
v 1.744783 -0.357926 -0.372569
v 1.715276 -0.357926 -0.355371
v 1.833989 -0.357926 -0.355371
v 1.788778 0.285746 -0.428802
v 1.820226 0.285746 -0.428802
v 1.788778 0.285746 -0.460250
v 1.820226 0.285746 -0.460250
v 1.715276 -0.357926 -0.474084
v 1.833989 -0.357926 -0.474084
v 1.772687 -0.357926 -0.219144
v 1.876852 -0.357926 -0.219144
v 1.888100 0.206864 -0.207518
v 1.915694 0.206864 -0.207518
v 1.888100 0.206864 -0.235113
v 1.915694 0.206864 -0.235113
v 1.772687 -0.357926 -0.323309
v 1.876852 -0.357926 -0.323309
vt 0.674971 0.046283
vt 0.704745 0.046283
vt 0.735203 0.046283
vt 0.674971 0.046283
vt 0.704745 0.046283
vt 0.735203 0.046283
vt 0.704745 0.046283
vt 0.674971 0.046283
vt 0.674971 0.046283
vt 0.674971 0.046283
vt 0.674971 0.046283
vt 0.704745 0.046283
vt 0.735203 0.046283
vt 0.704745 0.046283
vt 0.674971 0.046283
vt 0.704745 0.046283
vt 0.735203 0.046283
vt 0.704745 0.046283
vt 0.704745 0.046283
vt 0.674971 0.046283
vt 0.704745 0.046283
vt 0.704745 0.046283
vt 0.704745 0.046283
vt 0.704745 0.046283
vt 0.735203 0.046283
vt 0.735203 0.046283
vt 0.735203 0.046283
vt 0.735203 0.046283
vt 0.704745 0.046283
vt 0.704745 0.046283
vt 0.704745 0.046283
vt 0.704745 0.046283
vt 0.674971 0.046283
vt 0.674971 0.046283
vt 0.674971 0.046283
vt 0.674971 0.046283
vt 0.674971 0.046283
vt 0.674971 0.046283
vt 0.674971 0.046283
vt 0.674971 0.046283
vt 0.704745 0.046283
vt 0.704745 0.046283
vt 0.704745 0.046283
vt 0.704745 0.046283
vt 0.735203 0.046283
vt 0.735203 0.046283
vt 0.735203 0.046283
vt 0.735203 0.046283
vt 0.704745 0.046283
vt 0.704745 0.046283
vt 0.704745 0.046283
vt 0.704745 0.046283
vt 0.674971 0.046283
vt 0.674971 0.046283
vt 0.674971 0.046283
vt 0.674971 0.046283
vt 0.674971 0.046283
vt 0.674971 0.046283
vt 0.674971 0.046283
vt 0.674971 0.046283
vn 0.000000 0.006352 0.999980
vn 0.000000 0.006352 0.999980
vn 0.000000 0.006352 0.999980
vn 0.000000 0.006352 0.999980
vn 0.000000 1.000000 0.000000
vn 0.000000 1.000000 0.000000
vn 0.000000 1.000000 0.000000
vn 0.000000 1.000000 0.000000
vn 0.000000 0.128156 -0.991754
vn 0.000000 0.128156 -0.991754
vn 0.000000 0.128156 -0.991754
vn 0.000000 0.128156 -0.991754
vn 0.982322 0.187200 0.000000
vn 0.982322 0.187200 0.000000
vn 0.982322 0.187200 0.000000
vn 0.982322 0.187200 0.000000
vn -0.998491 -0.054912 0.000000
vn -0.998491 -0.054912 0.000000
vn -0.998491 -0.054912 0.000000
vn -0.998491 -0.054912 0.000000
vn 0.000000 0.113346 0.993555
vn 0.000000 0.113346 0.993555
vn 0.000000 0.113346 0.993556
vn 0.000000 0.113346 0.993556
vn 0.000000 1.000000 0.000000
vn 0.000000 1.000000 0.000000
vn 0.000000 1.000000 0.000000
vn 0.000000 1.000000 0.000000
vn 0.000000 0.021487 -0.999769
vn 0.000000 0.021487 -0.999769
vn 0.000000 0.021487 -0.999769
vn 0.000000 0.021487 -0.999769
vn 0.999772 0.021377 0.000000
vn 0.999771 0.021377 0.000000
vn 0.999771 0.021377 0.000000
vn 0.999771 0.021377 0.000000
vn -0.993543 0.113455 0.000000
vn -0.993543 0.113455 0.000000
vn -0.993543 0.113455 0.000000
vn -0.993543 0.113455 0.000000
vn 0.000000 -0.020580 0.999788
vn 0.000000 -0.020580 0.999788
vn 0.000000 -0.020580 0.999788
vn 0.000000 -0.020580 0.999788
vn 0.000000 1.000000 0.000000
vn 0.000000 1.000000 0.000000
vn 0.000000 1.000000 0.000000
vn 0.000000 1.000000 0.000000
vn 0.000000 0.154288 -0.988026
vn 0.000000 0.154288 -0.988026
vn 0.000000 0.154288 -0.988026
vn 0.000000 0.154288 -0.988026
vn 0.997644 -0.068611 0.000000
vn 0.997644 -0.068611 0.000000
vn 0.997644 -0.068611 0.000000
vn 0.997644 -0.068611 0.000000
vn -0.979753 0.200210 0.000000
vn -0.979753 0.200210 0.000000
vn -0.979753 0.200210 0.000000
vn -0.979753 0.200210 0.000000
s off
f 1/18/1 2/2/2 4/16/3 3/19/4
f 3/3/5 4/17/6 6/6/7 5/13/8
f 5/5/9 6/12/10 8/7/11 7/14/12
f 2/15/13 8/8/14 6/9/15 4/4/16
f 7/10/17 1/1/18 3/20/19 5/11/20
f 9/21/21 10/22/22 12/23/23 11/24/24
f 11/25/25 12/26/26 14/27/27 13/28/28
f 13/29/29 14/30/30 16/31/31 15/32/32
f 10/33/33 16/34/34 14/35/35 12/36/36
f 15/37/37 9/38/38 11/39/39 13/40/40
f 17/41/41 18/42/42 20/43/43 19/44/44
f 19/45/45 20/46/46 22/47/47 21/48/48
f 21/49/49 22/50/50 24/51/51 23/52/52
f 18/53/53 24/54/54 22/55/55 20/56/56
f 23/57/57 17/58/58 19/59/59 21/60/60
