# This file uses centimeters as units for non-parametric coordinates.

v 0.000000 4.208395 0.000000
v 5.000002 4.208395 0.000000
v 5.000002 0.206069 0.000000
v 0.000000 0.206069 0.000000
v 5.000002 4.208395 0.054874
v 0.000002 4.208395 0.054874
v 5.000002 4.414464 0.054874
v 0.000000 4.414464 0.054874
v 5.000002 4.208395 0.000000
v 0.000002 4.208395 0.000000
v 5.000002 -0.270663 0.054874
v 0.000002 -0.270663 0.054874
v 5.000002 0.206069 0.054874
v 0.000000 0.206069 0.054874
v 2.446408 3.122838 0.000000
v 2.446408 3.122838 0.086355
v 2.446408 3.669636 0.000000
v 2.446408 3.669636 0.086355
v 2.543752 3.669636 0.000000
v 2.543752 3.669636 0.086355
v 2.543752 3.122838 0.000000
v 2.543752 3.122838 0.086355
v 0.850451 3.122838 0.000000
v 0.850451 3.122838 0.086355
v 0.850451 3.669636 0.000000
v 0.850451 3.669636 0.086355
v 0.947795 3.669636 0.000000
v 0.947795 3.669636 0.086355
v 0.947795 3.122838 0.000000
v 0.947795 3.122838 0.086355
v 0.000001 3.064819 0.000000
v 0.000001 3.064819 0.098370
v 0.000001 3.163188 0.000000
v 0.000001 3.163188 0.098370
v 2.838592 3.163188 0.000000
v 2.838592 3.163188 0.098370
v 2.724352 3.064819 0.000000
v 2.724352 3.064819 0.098370
v 0.000001 3.640970 0.000000
v 0.000001 3.640970 0.098370
v 0.000001 3.739339 0.000000
v 0.000001 3.739339 0.098370
v 2.838592 3.739339 0.000000
v 2.838592 3.739339 0.098370
v 2.724352 3.640970 0.000000
v 2.724352 3.640970 0.098370
v 2.838592 2.556479 0.000000
v 2.838592 2.556479 0.098370
v 2.724352 2.556479 0.098370
v 2.724352 2.556479 0.000000
v 2.838592 3.163188 0.000000
v 2.838592 3.163188 0.098370
v 2.724352 3.163188 0.098370
v 2.724352 3.163188 0.000000
v 2.508525 1.692678 -0.000004
v 2.508525 1.692678 0.236429
v 2.508525 2.692678 -0.000004
v 2.508525 2.692678 0.236429
v 3.271189 2.692678 -0.000004
v 3.271189 2.692678 0.236429
v 3.271189 1.692678 -0.000004
v 3.271189 1.692678 0.236429
v 3.006971 2.455987 0.236429
v 2.578238 2.455987 0.236429
v 3.006971 2.627953 0.236429
v 2.578238 2.627953 0.236429
v 2.746502 2.627953 0.236429
v 2.746502 2.455987 0.236429
v 2.836298 2.627953 0.236429
v 2.836298 2.455987 0.236429
v 2.836298 2.627953 0.294058
v 2.836298 2.455987 0.294058
v 3.006971 2.455987 0.294058
v 3.006971 2.627953 0.294058
v 2.746502 2.455987 0.294058
v 2.578238 2.455987 0.294058
v 2.746502 2.627953 0.294058
v 2.578238 2.627953 0.294058
v 2.508525 2.192678 0.236429
v 3.271189 2.192678 0.236429
v 2.638064 1.777604 0.236429
v 2.638064 2.107753 0.236429
v 3.141651 1.777604 0.236429
v 3.141651 2.107753 0.236429
v 2.638064 1.777604 0.130135
v 2.638064 2.107753 0.130135
v 3.141651 1.777604 0.130135
v 3.141651 2.107753 0.130135
vt 0.741894 0.101843
vt 0.741894 0.101843
vt 0.741894 0.101843
vt 0.741894 0.101843
vt 0.675780 0.101843
vt 0.675780 0.101843
vt 0.675780 0.101843
vt 0.675780 0.101843
vt 0.639454 0.101843
vt 0.639454 0.101843
vt 0.639454 0.101843
vt 0.639454 0.101843
vt 0.675780 0.101843
vt 0.675780 0.101843
vt 0.675780 0.101843
vt 0.675780 0.101843
vt 0.639454 0.101843
vt 0.639454 0.101843
vt 0.639454 0.101843
vt 0.639454 0.101843
vt 0.141952 0.475915
vt 0.141952 0.475915
vt 0.141952 0.475915
vt 0.141952 0.475915
vt 0.202714 0.475915
vt 0.202714 0.475915
vt 0.202714 0.475915
vt 0.202714 0.475915
vt 0.141952 0.475915
vt 0.141952 0.475915
vt 0.141952 0.475915
vt 0.141952 0.475915
vt 0.107650 0.475915
vt 0.107650 0.475915
vt 0.107650 0.475915
vt 0.107650 0.475915
vt 0.168413 0.475915
vt 0.168413 0.475915
vt 0.168413 0.475915
vt 0.168413 0.475915
vt 0.141952 0.475915
vt 0.141952 0.475915
vt 0.141952 0.475915
vt 0.141952 0.475915
vt 0.202714 0.475915
vt 0.202714 0.475915
vt 0.202714 0.475915
vt 0.202714 0.475915
vt 0.141952 0.475915
vt 0.141952 0.475915
vt 0.141952 0.475915
vt 0.141952 0.475915
vt 0.107650 0.475915
vt 0.107650 0.475915
vt 0.107650 0.475915
vt 0.107650 0.475915
vt 0.168413 0.475915
vt 0.168413 0.475915
vt 0.168413 0.475915
vt 0.168413 0.475915
vt 0.204319 0.475915
vt 0.204319 0.475915
vt 0.204319 0.475915
vt 0.204319 0.475915
vt 0.265081 0.475915
vt 0.265081 0.475915
vt 0.265081 0.475915
vt 0.265081 0.475915
vt 0.204319 0.475915
vt 0.204319 0.475915
vt 0.204319 0.475915
vt 0.204319 0.475915
vt 0.170017 0.475915
vt 0.170017 0.475915
vt 0.170017 0.475915
vt 0.170017 0.475915
vt 0.230780 0.475915
vt 0.230780 0.475915
vt 0.230780 0.475915
vt 0.230780 0.475915
vt 0.204319 0.475915
vt 0.204319 0.475915
vt 0.204319 0.475915
vt 0.204319 0.475915
vt 0.265081 0.475915
vt 0.265081 0.475915
vt 0.265081 0.475915
vt 0.265081 0.475915
vt 0.204319 0.475915
vt 0.204319 0.475915
vt 0.204319 0.475915
vt 0.204319 0.475915
vt 0.170017 0.475915
vt 0.170017 0.475915
vt 0.170017 0.475915
vt 0.170017 0.475915
vt 0.230780 0.475915
vt 0.230780 0.475915
vt 0.230780 0.475915
vt 0.230780 0.475915
vt 0.204319 0.475915
vt 0.204319 0.475915
vt 0.240926 0.475915
vt 0.240926 0.475915
vt 0.240926 0.475915
vt 0.240926 0.475915
vt 0.204319 0.475915
vt 0.204319 0.475915
vt 0.204319 0.475915
vt 0.204319 0.475915
vt 0.240926 0.475915
vt 0.240926 0.475915
vt 0.240926 0.475915
vt 0.240926 0.475915
vt 0.204319 0.475915
vt 0.204319 0.475915
vt 0.301937 0.475915
vt 0.301937 0.475915
vt 0.301937 0.475915
vt 0.301937 0.475915
vt 0.301937 0.475915
vt 0.362700 0.475915
vt 0.362700 0.475915
vt 0.362700 0.475915
vt 0.362700 0.475915
vt 0.301937 0.475915
vt 0.301937 0.475915
vt 0.301937 0.475915
vt 0.301937 0.475915
vt 0.301937 0.475915
vt 0.267636 0.475915
vt 0.267636 0.475915
vt 0.267636 0.475915
vt 0.267636 0.475915
vt 0.267387 0.181704
vt 0.267387 0.181704
vt 0.267387 0.181704
vt 0.267387 0.181704
vt 0.328398 0.475915
vt 0.328398 0.475915
vt 0.328398 0.475915
vt 0.328398 0.475915
vt 0.328398 0.475915
vt 0.328398 0.475915
vt 0.328398 0.475915
vt 0.328398 0.475915
vt 0.328398 0.475915
vt 0.328398 0.475915
vt 0.328398 0.475915
vt 0.328398 0.475915
vt 0.267387 0.355841
vt 0.267387 0.355841
vt 0.267387 0.355841
vt 0.267387 0.355841
vt 0.203664 0.181704
vt 0.203664 0.181704
vt 0.203664 0.181704
vt 0.203664 0.181704
vt 0.203664 0.181704
vt 0.203664 0.181704
vt 0.203664 0.181704
vt 0.203664 0.181704
vt 0.203664 0.181704
vt 0.203664 0.181704
vt 0.203664 0.181704
vt 0.203664 0.181704
vt 0.302638 0.181704
vt 0.302638 0.181704
vt 0.302638 0.181704
vt 0.302638 0.181704
vt 0.203664 0.355841
vt 0.203664 0.355841
vt 0.203664 0.355841
vt 0.203664 0.355841
vt 0.203664 0.355841
vt 0.203664 0.355841
vt 0.203664 0.355841
vt 0.203664 0.355841
vt 0.302638 0.355841
vt 0.302638 0.355841
vt 0.302638 0.355841
vt 0.302638 0.355841
vt 0.203664 0.355841
vt 0.203664 0.355841
vt 0.203664 0.355841
vt 0.203664 0.355841
vt 0.296373 0.475915
vt 0.296373 0.475915
vt 0.296373 0.475915
vt 0.296373 0.475915
vt 0.328398 0.475915
vt 0.328398 0.475915
vt 0.328398 0.475915
vt 0.328398 0.475915
vt 0.328398 0.475915
vt 0.328398 0.475915
vt 0.259344 0.477916
vt 0.259344 0.477916
vt 0.259344 0.477916
vt 0.259344 0.477916
vt 0.357421 0.475915
vt 0.357421 0.475915
vt 0.357421 0.475915
vt 0.357421 0.475915
vt 0.259344 0.477916
vt 0.259344 0.477916
vt 0.259344 0.477916
vt 0.259344 0.477916
vt 0.259344 0.477916
vt 0.259344 0.477916
vt 0.259344 0.477916
vt 0.259344 0.477916
vn 0.000000 0.000000 1.000000
vn -0.000000 0.000000 1.000000
vn 0.000000 0.000000 1.000000
vn -0.000000 0.000000 1.000000
vn 0.000000 0.000000 1.000000
vn 0.000000 0.000000 1.000000
vn 0.000000 0.000000 1.000000
vn 0.000000 0.000000 1.000000
vn 0.000000 -1.000000 0.000000
vn 0.000000 -1.000000 0.000000
vn 0.000000 -1.000000 0.000000
vn 0.000000 -1.000000 0.000000
vn 0.000000 0.000000 1.000000
vn 0.000000 0.000000 1.000000
vn 0.000000 0.000000 1.000000
vn 0.000000 0.000000 1.000000
vn 0.000000 1.000000 -0.000000
vn 0.000000 1.000000 -0.000000
vn 0.000000 1.000000 -0.000000
vn 0.000000 1.000000 -0.000000
vn -1.000000 0.000000 0.000000
vn -1.000000 0.000000 0.000000
vn -1.000000 0.000000 0.000000
vn -1.000000 0.000000 0.000000
vn 0.000000 1.000000 0.000000
vn 0.000000 1.000000 0.000000
vn 0.000000 1.000000 0.000000
vn 0.000000 1.000000 0.000000
vn 1.000000 0.000000 0.000000
vn 1.000000 0.000000 0.000000
vn 1.000000 0.000000 0.000000
vn 1.000000 0.000000 0.000000
vn 0.000000 -1.000000 0.000000
vn 0.000000 -1.000000 0.000000
vn 0.000000 -1.000000 0.000000
vn 0.000000 -1.000000 0.000000
vn 0.000000 0.000000 1.000000
vn 0.000000 0.000000 1.000000
vn 0.000000 0.000000 1.000000
vn 0.000000 0.000000 1.000000
vn -1.000000 0.000000 0.000000
vn -1.000000 0.000000 0.000000
vn -1.000000 0.000000 0.000000
vn -1.000000 0.000000 0.000000
vn 0.000000 1.000000 0.000000
vn 0.000000 1.000000 0.000000
vn 0.000000 1.000000 0.000000
vn 0.000000 1.000000 0.000000
vn 1.000000 0.000000 0.000000
vn 1.000000 0.000000 0.000000
vn 1.000000 0.000000 0.000000
vn 1.000000 0.000000 0.000000
vn 0.000000 -1.000000 0.000000
vn 0.000000 -1.000000 0.000000
vn 0.000000 -1.000000 0.000000
vn 0.000000 -1.000000 0.000000
vn 0.000000 0.000000 1.000000
vn 0.000000 0.000000 1.000000
vn 0.000000 0.000000 1.000000
vn 0.000000 0.000000 1.000000
vn -1.000000 0.000000 0.000000
vn -1.000000 0.000000 0.000000
vn -1.000000 0.000000 0.000000
vn -1.000000 0.000000 0.000000
vn 0.000000 1.000000 0.000000
vn 0.000000 1.000000 0.000000
vn 0.000000 1.000000 0.000000
vn 0.000000 1.000000 0.000000
vn 0.000000 -1.000000 0.000000
vn 0.000000 -1.000000 0.000000
vn 0.000000 -1.000000 0.000000
vn 0.000000 -1.000000 0.000000
vn 0.000000 -1.000000 0.000000
vn 0.000000 -1.000000 0.000000
vn 0.000000 -1.000000 0.000000
vn 0.000000 -1.000000 0.000000
vn 0.000000 0.000000 1.000000
vn 0.000000 0.000000 1.000000
vn 0.000000 0.000000 1.000000
vn 0.000000 0.000000 1.000000
vn -1.000000 0.000000 0.000000
vn -1.000000 0.000000 0.000000
vn -1.000000 0.000000 0.000000
vn -1.000000 0.000000 0.000000
vn 0.000000 1.000000 0.000000
vn 0.000000 1.000000 0.000000
vn 0.000000 1.000000 0.000000
vn 0.000000 1.000000 0.000000
vn 0.000000 -1.000000 0.000000
vn 0.000000 -1.000000 0.000000
vn 0.000000 -1.000000 0.000000
vn 0.000000 -1.000000 0.000000
vn 0.000000 -1.000000 0.000000
vn 0.000000 -1.000000 0.000000
vn 0.000000 -1.000000 0.000000
vn 0.000000 -1.000000 0.000000
vn 0.000000 0.000000 1.000000
vn 0.000000 0.000000 1.000000
vn 0.000000 0.000000 1.000000
vn 0.000000 0.000000 1.000000
vn 1.000000 0.000000 0.000000
vn 1.000000 0.000000 0.000000
vn 1.000000 0.000000 0.000000
vn 1.000000 0.000000 0.000000
vn 0.000000 0.000000 1.000000
vn 0.000000 0.000000 1.000000
vn 0.000000 0.000000 1.000000
vn 0.000000 0.000000 1.000000
vn -1.000000 0.000000 0.000000
vn -1.000000 0.000000 0.000000
vn -1.000000 0.000000 0.000000
vn -1.000000 0.000000 0.000000
vn 0.000000 0.000000 -1.000000
vn 0.000000 0.000000 -1.000000
vn 0.000000 0.000000 -1.000000
vn 0.000000 0.000000 -1.000000
vn 1.000000 0.000000 0.000000
vn 1.000000 0.000000 0.000000
vn 1.000000 0.000000 0.000000
vn 1.000000 0.000000 0.000000
vn 0.000000 0.000000 1.000000
vn 0.000000 0.000000 1.000000
vn 0.000000 0.000000 1.000000
vn 0.000000 0.000000 1.000000
vn -1.000000 0.000000 0.000000
vn -1.000000 0.000000 0.000000
vn -1.000000 0.000000 0.000000
vn -1.000000 0.000000 0.000000
vn 0.000000 0.000000 -1.000000
vn 0.000000 0.000000 -1.000000
vn 0.000000 0.000000 -1.000000
vn 0.000000 0.000000 -1.000000
vn -1.000000 0.000000 0.000000
vn -1.000000 0.000000 0.000000
vn -1.000000 0.000000 0.000000
vn -1.000000 0.000000 0.000000
vn -1.000000 0.000000 0.000000
vn 0.000000 1.000000 0.000000
vn 0.000000 1.000000 0.000000
vn 0.000000 1.000000 0.000000
vn 0.000000 1.000000 0.000000
vn 1.000000 0.000000 0.000000
vn 1.000000 0.000000 0.000000
vn 1.000000 0.000000 0.000000
vn 1.000000 0.000000 0.000000
vn 1.000000 0.000000 0.000000
vn 0.000000 -1.000000 0.000000
vn 0.000000 -1.000000 0.000000
vn 0.000000 -1.000000 0.000000
vn 0.000000 -1.000000 0.000000
vn 0.000000 0.000000 1.000000
vn 0.000000 0.000000 1.000000
vn 0.000000 0.000000 1.000000
vn 0.000000 0.000000 1.000000
vn 0.000000 0.000000 1.000000
vn 0.000000 0.000000 1.000000
vn 0.000000 0.000000 1.000000
vn 0.000000 0.000000 1.000000
vn 0.000000 0.000000 1.000000
vn 0.000000 0.000000 1.000000
vn 0.000000 0.000000 1.000000
vn 0.000000 0.000000 1.000000
vn 0.000000 0.000000 1.000000
vn 0.000000 0.000000 1.000000
vn 0.000000 0.000000 1.000000
vn 0.000000 0.000000 1.000000
vn 0.000000 0.000000 1.000000
vn 0.000000 0.000000 1.000000
vn 0.000000 0.000000 1.000000
vn 0.000000 0.000000 1.000000
vn 0.000000 0.000000 1.000000
vn 0.000000 0.000000 1.000000
vn 0.000000 0.000000 1.000000
vn 0.000000 0.000000 1.000000
vn 0.000000 0.000000 1.000000
vn 0.000000 0.000000 1.000000
vn 0.000000 0.000000 1.000000
vn 0.000000 0.000000 1.000000
vn 0.000000 0.000000 1.000000
vn 0.000000 0.000000 1.000000
vn 0.000000 0.000000 1.000000
vn 0.000000 0.000000 1.000000
vn -1.000000 0.000000 0.000000
vn -1.000000 0.000000 0.000000
vn -1.000000 0.000000 0.000000
vn -1.000000 0.000000 0.000000
vn 0.000000 -1.000000 0.000000
vn 0.000000 -1.000000 0.000000
vn 0.000000 -1.000000 0.000000
vn 0.000000 -1.000000 0.000000
vn 1.000000 0.000000 0.000000
vn 1.000000 0.000000 0.000000
vn 1.000000 0.000000 0.000000
vn 1.000000 0.000000 0.000000
vn 0.000000 1.000000 0.000000
vn 0.000000 1.000000 0.000000
vn 0.000000 1.000000 0.000000
vn 0.000000 1.000000 0.000000
vn 0.000000 -1.000000 0.000000
vn 0.000000 -1.000000 0.000000
vn 0.000000 -1.000000 0.000000
vn 0.000000 -1.000000 0.000000
vn 1.000000 0.000000 0.000000
vn 1.000000 0.000000 0.000000
vn 1.000000 0.000000 0.000000
vn 1.000000 0.000000 0.000000
vn 0.000000 1.000000 0.000000
vn 0.000000 1.000000 0.000000
vn 0.000000 1.000000 0.000000
vn 0.000000 1.000000 0.000000
vn -1.000000 0.000000 0.000000
vn -1.000000 0.000000 0.000000
vn -1.000000 0.000000 0.000000
vn -1.000000 0.000000 0.000000
vn 0.000000 0.000000 1.000000
vn 0.000000 0.000000 1.000000
vn 0.000000 0.000000 1.000000
vn 0.000000 0.000000 1.000000
vn 0.000000 0.000000 1.000000
vn 0.000000 0.000000 1.000000
vn 0.000000 0.000000 1.000000
vn 0.000000 0.000000 1.000000
vn 0.000000 0.000000 1.000000
vn 0.000000 0.000000 1.000000
vn 0.000000 0.000000 1.000000
vn 0.000000 0.000000 1.000000
vn 0.000000 0.000000 1.000000
vn 0.000000 0.000000 1.000000
vn 0.000000 0.000000 1.000000
vn 0.000000 0.000000 1.000000
vn 0.000000 0.000000 1.000000
vn 0.000000 0.000000 1.000000
vn 0.000000 0.000000 1.000000
vn 0.000000 0.000000 1.000000
vn 1.000000 0.000000 0.000000
vn 1.000000 0.000000 0.000000
vn 1.000000 0.000000 0.000000
vn 1.000000 0.000000 0.000000
vn 0.000000 1.000000 0.000000
vn 0.000000 1.000000 0.000000
vn 0.000000 1.000000 0.000000
vn 0.000000 1.000000 0.000000
vn -1.000000 0.000000 0.000000
vn -1.000000 0.000000 0.000000
vn -1.000000 0.000000 0.000000
vn -1.000000 0.000000 0.000000
vn 0.000000 -1.000000 0.000000
vn 0.000000 -1.000000 0.000000
vn 0.000000 -1.000000 0.000000
vn 0.000000 -1.000000 0.000000
s off
f 4/4/1 3/3/2 2/2/3 1/1/4
f 6/5/5 5/6/6 7/7/7 8/8/8
f 5/9/9 6/10/10 10/11/11 9/12/12
f 12/13/13 11/14/14 13/15/15 14/16/16
f 14/17/17 13/18/18 3/19/19 4/20/20
f 15/21/21 16/22/22 18/23/23 17/24/24
f 17/25/25 18/26/26 20/27/27 19/28/28
f 19/29/29 20/30/30 22/31/31 21/32/32
f 21/33/33 22/34/34 16/35/35 15/36/36
f 16/37/37 22/38/38 20/39/39 18/40/40
f 23/41/41 24/42/42 26/43/43 25/44/44
f 25/45/45 26/46/46 28/47/47 27/48/48
f 27/49/49 28/50/50 30/51/51 29/52/52
f 29/53/53 30/54/54 24/55/55 23/56/56
f 24/57/57 30/58/58 28/59/59 26/60/60
f 31/61/61 32/62/62 34/63/63 33/64/64
f 33/65/65 34/66/66 36/67/67 35/68/68
f 47/69/69 48/70/70 49/71/71 50/72/72
f 37/73/73 38/74/74 32/75/75 31/76/76
f 32/77/77 38/78/78 36/79/79 34/80/80
f 39/81/81 40/82/82 42/83/83 41/84/84
f 41/85/85 42/86/86 44/87/87 43/88/88
f 51/89/89 52/90/90 53/91/91 54/92/92
f 45/93/93 46/94/94 40/95/95 39/96/96
f 40/97/97 46/98/98 44/99/99 42/100/100
f 35/101/101 36/102/102 48/70/103 47/69/104
f 36/103/105 38/104/106 49/105/107 48/106/108
f 38/107/109 37/108/110 50/72/111 49/71/112
f 37/108/113 35/101/114 47/69/115 50/72/116
f 43/109/117 44/110/118 52/90/119 51/89/120
f 44/111/121 46/112/122 53/113/123 52/114/124
f 46/115/125 45/116/126 54/92/127 53/91/128
f 45/116/129 43/109/130 51/89/131 54/92/132
f 55/117/133 56/118/134 79/119/135 58/120/136 57/121/137
f 57/122/138 58/123/139 60/124/140 59/125/141
f 59/126/142 60/127/143 80/128/144 62/129/145 61/130/146
f 61/131/147 62/132/148 56/133/149 55/134/150
f 71/135/151 72/136/152 73/137/153 74/138/154
f 79/139/155 80/140/156 63/141/157 70/142/158 68/143/159 64/144/160
f 80/140/161 60/145/162 65/146/163 63/141/164
f 60/145/165 58/147/166 66/148/167 67/149/168 69/150/169 65/146/170
f 58/147/171 79/139/172 64/144/173 66/148/174
f 76/151/175 75/152/176 77/153/177 78/154/178
f 67/149/179 68/143/180 70/142/181 69/150/182
f 69/155/183 70/156/184 72/157/185 71/158/186
f 70/159/187 63/160/188 73/161/189 72/162/190
f 63/163/191 65/164/192 74/165/193 73/166/194
f 65/167/195 69/168/196 71/169/197 74/170/198
f 64/171/199 68/172/200 75/173/201 76/174/202
f 68/175/203 67/176/204 77/177/205 75/178/206
f 67/179/207 66/180/208 78/181/209 77/182/210
f 66/183/211 64/184/212 76/185/213 78/186/214
f 86/187/215 85/188/216 87/189/217 88/190/218
f 79/139/219 56/191/220 81/192/221 82/193/222
f 56/191/223 62/194/224 83/195/225 81/192/226
f 62/194/227 80/140/228 84/196/229 83/195/230
f 80/140/231 79/139/232 82/193/233 84/196/234
f 82/197/235 81/198/236 85/199/237 86/200/238
f 81/201/239 83/202/240 87/203/241 85/204/242
f 83/205/243 84/206/244 88/207/245 87/208/246
f 84/209/247 82/210/248 86/211/249 88/212/250
