# This file uses centimeters as units for non-parametric coordinates.

v -0.000004 0.000000 -5.000000
v -0.000004 0.000000 0.000000
v 4.999996 0.000000 -5.000000
v 4.999996 0.000000 0.000000
v -0.000004 0.000000 -3.437500
v 4.999996 0.000000 -3.437500
v -0.000004 0.000000 -1.562500
v 4.999996 0.000000 -1.562500
v -0.000004 -0.326099 -3.437500
v 4.999996 -0.326099 -3.437500
v -0.000004 -0.326099 -1.562500
v 4.999996 -0.326099 -1.562500
v 3.437496 0.000000 -5.000000
v 3.437496 0.000000 -3.437500
v 3.437496 -0.326099 -3.437500
v 3.437496 -0.326099 -1.562500
v 3.437496 0.000000 -1.562500
v 3.437496 0.000000 0.000000
v 1.562496 0.000000 -5.000000
v 1.562496 0.000000 -3.437500
v 1.562496 -0.326099 -3.437500
v 1.562496 -0.326099 -1.562500
v 1.562496 0.000000 -1.562500
v 1.562496 0.000000 0.000000
v 1.562496 -0.326099 0.000000
v 1.562496 -0.326099 -5.000000
v 3.437496 -0.326099 -5.000000
v 3.437496 -0.326099 0.000000
vt 0.262823 0.061197
vt 0.262823 0.061197
vt 0.208345 0.289184
vt 0.262615 0.062211
vt 0.205131 0.290080
vt 0.233679 0.061197
vt 0.233679 0.061197
vt 0.262823 0.061197
vt 0.262615 0.062211
vt 0.205131 0.290080
vt 0.233679 0.061197
vt 0.233679 0.061197
vt 0.205131 0.290080
vt 0.262823 0.061197
vt 0.233679 0.061197
vt 0.262823 0.061197
vt 0.233679 0.061197
vt 0.233679 0.061197
vt 0.205131 0.290080
vt 0.262823 0.061197
vt 0.233679 0.061197
vt 0.233679 0.061197
vt 0.233679 0.061197
vt 0.205131 0.290080
vt 0.233679 0.061197
vt 0.233679 0.061197
vt 0.262615 0.062211
vt 0.262823 0.061197
vt 0.233679 0.061197
vt 0.262823 0.061197
vt 0.233679 0.061197
vt 0.233679 0.061197
vt 0.233679 0.061197
vt 0.205131 0.290080
vt 0.233679 0.061197
vt 0.233679 0.061197
vt 0.262823 0.061197
vt 0.262823 0.061197
vt 0.233679 0.061197
vt 0.233679 0.061197
vt 0.201224 0.287424
vt 0.233679 0.061197
vt 0.201224 0.287424
vt 0.205131 0.290080
vt 0.233679 0.061197
vt 0.262615 0.062211
vt 0.262823 0.061197
vt 0.233679 0.061197
vt 0.208345 0.289184
vt 0.262823 0.061197
vt 0.233679 0.061197
vt 0.208345 0.289184
vt 0.201224 0.287424
vt 0.201224 0.287424
vt 0.208345 0.289184
vt 0.205131 0.290080
vt 0.208345 0.289184
vt 0.205131 0.290080
vt 0.205131 0.290080
vn 0.000000 1.000000 0.000000
vn 0.000000 1.000000 0.000000
vn 0.000000 1.000000 0.000000
vn 0.000000 1.000000 0.000000
vn 0.000000 0.000000 1.000000
vn 0.000000 0.000000 1.000000
vn 0.000000 0.000000 1.000000
vn 0.000000 0.000000 1.000000
vn 0.000000 1.000000 0.000000
vn 0.000000 1.000000 0.000000
vn 0.000000 1.000000 0.000000
vn 0.000000 1.000000 0.000000
vn 0.000000 1.000000 0.000000
vn 0.000000 1.000000 0.000000
vn 0.000000 1.000000 0.000000
vn 0.000000 1.000000 0.000000
vn 0.000000 0.000000 -1.000000
vn 0.000000 0.000000 -1.000000
vn 0.000000 0.000000 -1.000000
vn 0.000000 0.000000 -1.000000
vn 1.000000 0.000000 0.000000
vn 1.000000 0.000000 0.000000
vn 1.000000 0.000000 0.000000
vn 1.000000 0.000000 0.000000
vn 1.000000 0.000000 0.000000
vn 1.000000 0.000000 0.000000
vn 1.000000 0.000000 0.000000
vn 1.000000 0.000000 0.000000
vn -1.000000 0.000000 0.000000
vn -1.000000 0.000000 0.000000
vn -1.000000 0.000000 0.000000
vn -1.000000 0.000000 0.000000
vn 0.000000 1.000000 0.000000
vn 0.000000 1.000000 0.000000
vn 0.000000 1.000000 0.000000
vn 0.000000 1.000000 0.000000
vn -1.000000 0.000000 0.000000
vn -1.000000 0.000000 0.000000
vn -1.000000 0.000000 0.000000
vn -1.000000 0.000000 0.000000
vn 0.000000 1.000000 0.000000
vn 0.000000 1.000000 0.000000
vn 0.000000 1.000000 0.000000
vn 0.000000 1.000000 0.000000
vn 0.000000 0.000000 1.000000
vn 0.000000 0.000000 1.000000
vn 0.000000 0.000000 1.000000
vn 0.000000 0.000000 1.000000
vn 0.000000 1.000000 0.000000
vn 0.000000 1.000000 0.000000
vn 0.000000 1.000000 0.000000
vn 0.000000 1.000000 0.000000
vn 0.000000 0.000000 -1.000000
vn 0.000000 0.000000 -1.000000
vn 0.000000 0.000000 -1.000000
vn 0.000000 0.000000 -1.000000
vn 0.000000 1.000000 0.000000
vn 0.000000 1.000000 0.000000
vn 0.000000 1.000000 0.000000
vn 0.000000 1.000000 0.000000
vn 0.000000 1.000000 0.000000
vn 0.000000 1.000000 0.000000
vn 0.000000 1.000000 0.000000
vn 0.000000 1.000000 0.000000
vn 0.000000 1.000000 0.000000
vn 0.000000 1.000000 0.000000
vn 0.000000 1.000000 0.000000
vn 0.000000 1.000000 0.000000
s off
f 3/1/1 13/20/2 14/47/3 6/16/4
f 6/6/5 14/7/6 15/11/7 10/12/8
f 8/9/9 17/27/10 18/46/11 4/4/12
f 12/59/13 10/13/14 15/24/15 16/58/16
f 12/15/17 16/17/18 17/18/19 8/21/20
f 21/22/21 26/23/22 19/25/23 20/26/24
f 22/29/25 23/31/26 24/32/27 25/33/28
f 14/7/29 13/35/30 27/36/31 15/11/32
f 16/19/33 15/49/34 21/3/35 22/34/36
f 17/18/37 16/17/38 28/39/39 18/40/40
f 20/28/41 19/30/42 1/50/43 5/2/44
f 21/22/45 20/26/46 5/42/47 9/45/48
f 22/10/49 21/3/50 9/55/51 11/5/52
f 23/31/53 22/29/54 11/48/55 7/51/56
f 24/8/57 23/38/58 7/37/59 2/14/60
f 15/54/61 27/43/62 26/53/63 21/41/64
f 25/57/65 28/56/66 16/44/67 22/52/68
