# This file uses centimeters as units for non-parametric coordinates.

v 1.034981 2.812401 0.043018
v 1.034981 2.812401 0.228710
v 1.034981 2.124021 0.043018
v 1.034981 2.124021 0.228710
v 0.550369 2.124021 0.043018
v 0.550369 2.124021 0.228710
v 0.550369 2.812401 0.043018
v 0.550369 2.812401 0.228710
v 0.631752 2.544758 0.228710
v 0.952141 2.544758 0.228710
v 0.631752 2.213306 0.228710
v 0.952141 2.213306 0.228710
v 0.841217 8.416789 0.050489
v 0.841217 8.416789 0.159334
v 0.841217 2.799839 0.050489
v 0.841217 2.799839 0.159334
v 0.732452 2.799839 0.050489
v 0.732452 2.799839 0.159334
v 0.732452 8.416789 0.050489
v 0.732452 8.416789 0.159334
v 0.720985 2.452446 0.228710
v 0.862907 2.452446 0.228710
v 0.720985 2.305618 0.228710
v 0.862907 2.305618 0.228710
v 1.463127 -0.052511 0.024923
v 1.463127 3.766721 0.024923
v 8.534592 3.766721 0.024923
v 8.534592 -0.052511 0.024923
v 1.190857 3.956069 0.054874
v 1.190857 0.206069 0.054874
v 1.504272 3.750000 0.054874
v 1.504272 -0.270663 0.054874
v 1.190857 3.956069 0.000000
v 1.190857 0.206069 0.000000
v 1.504272 3.750000 -0.033619
v 8.827957 3.956069 0.054874
v 8.827953 0.206069 0.054874
v 8.514542 3.750000 0.054874
v 8.514549 -0.270663 0.054874
v 8.827957 3.956069 0.000000
v 8.827953 0.206069 0.000000
v 8.514542 3.750000 -0.033619
v 8.514542 -0.042082 -0.033619
v 8.175518 3.750000 -0.033619
v 0.000000 8.416789 0.000000
v 9.999992 8.416790 0.000000
v 9.999992 0.206069 0.000000
v 9.999992 8.416790 0.054874
v 0.000000 8.416790 0.054874
v 9.999992 8.828928 0.054874
v 0.000000 8.828928 0.054874
v 9.999992 -0.270663 0.054874
v 9.999992 0.206069 0.054874
v 0.000000 0.206069 0.000000
v 0.000000 0.206069 0.054874
v 0.000000 -0.270663 0.054874
v 1.504272 -0.042082 0.054874
v 1.504272 -0.042082 -0.033619
v 8.514542 -0.042082 0.054874
v 0.309387 0.206069 0.000000
v 1.190857 1.221298 0.000000
v 0.920494 0.543609 0.000000
v 8.827957 0.731714 0.000000
v 9.777035 0.206069 0.000000
v 9.210861 0.454853 0.000000
vt 0.265739 0.084979
vt 0.265739 0.084979
vt 0.265739 0.084979
vt 0.265739 0.084979
vt 0.233912 0.088758
vt 0.233912 0.088758
vt 0.233912 0.088758
vt 0.233912 0.088758
vt 0.265739 0.084979
vt 0.265739 0.084979
vt 0.265739 0.084979
vt 0.265739 0.084979
vt 0.326295 0.085357
vt 0.326295 0.085357
vt 0.326295 0.085357
vt 0.326295 0.085357
vt 0.235904 0.085684
vt 0.235904 0.085684
vt 0.235904 0.085684
vt 0.235904 0.085684
vt 0.292200 0.084979
vt 0.292200 0.084979
vt 0.292200 0.084979
vt 0.292200 0.084979
vt 0.292200 0.084979
vt 0.292200 0.084979
vt 0.292200 0.084979
vt 0.292200 0.084979
vt 0.292200 0.084979
vt 0.292200 0.084979
vt 0.292200 0.084979
vt 0.292200 0.084979
vt 0.292200 0.084979
vt 0.292200 0.084979
vt 0.292200 0.084979
vt 0.292200 0.084979
vt 0.170554 0.476974
vt 0.170554 0.476974
vt 0.170554 0.476974
vt 0.170554 0.476974
vt 0.170554 0.476974
vt 0.170554 0.476974
vt 0.170554 0.476974
vt 0.170554 0.476974
vt 0.197015 0.476974
vt 0.197015 0.476974
vt 0.197015 0.476974
vt 0.197015 0.476974
vt 0.235904 0.085684
vt 0.235904 0.085684
vt 0.235904 0.085684
vt 0.235904 0.085684
vt 0.262497 0.179755
vt 0.262497 0.179755
vt 0.262497 0.179755
vt 0.262497 0.179755
vt 0.697600 0.981690
vt 0.697600 0.981776
vt 0.580253 0.981776
vt 0.580253 0.981690
vt 0.267958 0.063271
vt 0.267958 0.063271
vt 0.267958 0.063271
vt 0.267958 0.063271
vt 0.226089 0.063380
vt 0.226089 0.063380
vt 0.226089 0.063380
vt 0.226089 0.063380
vt 0.226089 0.063380
vt 0.226089 0.063271
vt 0.226089 0.063271
vt 0.226089 0.063271
vt 0.226089 0.063271
vt 0.267958 0.063180
vt 0.267958 0.063180
vt 0.267958 0.063180
vt 0.226089 0.063380
vt 0.226089 0.063380
vt 0.226089 0.063380
vt 0.226089 0.063380
vt 0.226089 0.063380
vt 0.226089 0.063316
vt 0.226089 0.063316
vt 0.226089 0.063316
vt 0.226089 0.063316
vt 0.267958 0.063180
vt 0.267958 0.063180
vt 0.267958 0.063180
vt 0.267958 0.063180
vt 0.226089 0.063271
vt 0.226089 0.063271
vt 0.226089 0.063271
vt 0.226089 0.063271
vt 0.267958 0.063180
vt 0.267958 0.063180
vt 0.267958 0.063180
vt 0.267958 0.063180
vt 0.226089 0.063380
vt 0.226089 0.063380
vt 0.226089 0.063380
vt 0.226089 0.063380
vt 0.267958 0.063180
vt 0.267958 0.063180
vt 0.267958 0.063180
vt 0.267958 0.063180
vt 0.327530 0.062480
vt 0.327530 0.062480
vt 0.327530 0.062480
vt 0.327530 0.062480
vt 0.327530 0.062480
vt 0.326183 0.061133
vt 0.333040 0.062208
vt 0.334735 0.063278
vt 0.334735 0.063278
vt 0.334735 0.063278
vt 0.267958 0.063271
vt 0.267958 0.063271
vt 0.267958 0.063271
vt 0.267958 0.063271
vt 0.222330 0.062948
vt 0.222330 0.062948
vt 0.222330 0.062948
vt 0.222330 0.062948
vt 0.222330 0.062948
vt 0.226089 0.063316
vt 0.226089 0.063316
vt 0.226089 0.063316
vt 0.226089 0.063316
vt 0.226089 0.063316
vt 0.267958 0.063271
vt 0.267958 0.063271
vt 0.267958 0.063271
vt 0.267958 0.063351
vt 0.267958 0.063351
vt 0.267958 0.063351
vt 0.267958 0.063351
vt 0.267958 0.063200
vt 0.267958 0.063200
vt 0.267958 0.063200
vt 0.267958 0.063200
vt 0.267958 0.063180
vt 0.267958 0.063180
vt 0.267958 0.063180
vt 0.267958 0.063180
vt 0.226089 0.063271
vt 0.226089 0.063271
vt 0.226089 0.063271
vt 0.226089 0.063271
vt 0.301648 0.063278
vt 0.301648 0.063278
vt 0.301649 0.063278
vt 0.301648 0.063278
vt 0.301648 0.063278
vt 0.301649 0.063278
vt 0.301648 0.063278
vt 0.301648 0.063278
vt 0.331344 0.061137
vt 0.334735 0.063278
vn 1.000000 0.000000 0.000000
vn 1.000000 0.000000 0.000000
vn 1.000000 0.000000 0.000000
vn 1.000000 0.000000 0.000000
vn 0.000000 -1.000000 0.000000
vn 0.000000 -1.000000 0.000000
vn 0.000000 -1.000000 0.000000
vn 0.000000 -1.000000 0.000000
vn -1.000000 0.000000 0.000000
vn -1.000000 0.000000 0.000000
vn -1.000000 0.000000 0.000000
vn -1.000000 0.000000 0.000000
vn 0.000000 1.000000 0.000000
vn 0.000000 1.000000 0.000000
vn 0.000000 1.000000 0.000000
vn 0.000000 1.000000 0.000000
vn 0.000000 0.000000 1.000000
vn 0.000000 0.000000 1.000000
vn 0.000000 0.000000 1.000000
vn 0.000000 0.000000 1.000000
vn 0.000000 0.000000 1.000000
vn 0.000000 0.000000 1.000000
vn 0.000000 0.000000 1.000000
vn 0.000000 0.000000 1.000000
vn 0.000000 0.000000 1.000000
vn 0.000000 0.000000 1.000000
vn 0.000000 0.000000 1.000000
vn 0.000000 0.000000 1.000000
vn 0.000000 0.000000 1.000000
vn 0.000000 0.000000 1.000000
vn 0.000000 0.000000 1.000000
vn 0.000000 0.000000 1.000000
vn -0.000000 0.000000 1.000000
vn -0.000000 0.000000 1.000000
vn -0.000000 0.000000 1.000000
vn -0.000000 0.000000 1.000000
vn 1.000000 0.000000 0.000000
vn 1.000000 0.000000 0.000000
vn 1.000000 0.000000 0.000000
vn 1.000000 0.000000 0.000000
vn -1.000000 0.000000 0.000000
vn -1.000000 0.000000 0.000000
vn -1.000000 0.000000 0.000000
vn -1.000000 0.000000 0.000000
vn 0.000000 0.000000 1.000000
vn 0.000000 0.000000 1.000000
vn 0.000000 0.000000 1.000000
vn 0.000000 0.000000 1.000000
vn 0.000000 0.000000 1.000000
vn 0.000000 0.000000 1.000000
vn 0.000000 0.000000 1.000000
vn 0.000000 0.000000 1.000000
vn -0.000000 0.000000 1.000000
vn -0.000000 0.000000 1.000000
vn -0.000000 0.000000 1.000000
vn -0.000000 0.000000 1.000000
vn 0.000000 0.000000 1.000000
vn 0.000000 0.000000 1.000000
vn 0.000000 0.000000 1.000000
vn 0.000000 0.000000 1.000000
vn 0.000000 0.000000 1.000000
vn 0.000000 0.000000 1.000000
vn 0.000000 0.000000 1.000000
vn 0.000000 0.000000 1.000000
vn 0.000000 0.000000 1.000000
vn 0.000000 0.000000 1.000000
vn 0.000000 0.000000 1.000000
vn 0.000000 0.000000 1.000000
vn 0.000000 0.000000 1.000000
vn 0.000000 0.000000 1.000000
vn 0.000000 0.000000 1.000000
vn 0.000000 0.000000 1.000000
vn -1.000000 0.000000 0.000000
vn -1.000000 0.000000 0.000000
vn -1.000000 0.000000 0.000000
vn -1.000000 0.000000 0.000000
vn -1.000000 0.000000 0.000000
vn 1.000000 0.000000 0.000000
vn 1.000000 0.000000 0.000000
vn 1.000000 0.000000 0.000000
vn 1.000000 0.000000 0.000000
vn 0.000000 0.000000 1.000000
vn 0.000000 0.000000 1.000000
vn 0.000000 0.000000 1.000000
vn 1.000000 -0.000001 0.000000
vn 1.000000 -0.000001 0.000000
vn 1.000000 -0.000001 0.000000
vn 1.000000 -0.000001 0.000030
vn 1.000000 -0.000001 0.000000
vn 0.000000 1.000000 0.000000
vn 0.000000 1.000000 0.000000
vn 0.000000 1.000000 0.000000
vn 0.000000 1.000000 0.000000
vn 0.000000 0.000000 1.000000
vn 0.000000 0.000000 1.000000
vn 0.000000 0.000000 1.000000
vn 0.000000 0.000000 1.000000
vn 0.000000 -1.000000 0.000000
vn 0.000000 -1.000000 0.000000
vn 0.000000 -1.000000 0.000000
vn 0.000000 -1.000000 0.000000
vn 0.000000 0.000000 1.000000
vn 0.000000 0.000000 1.000000
vn 0.000000 0.000000 1.000000
vn 0.000000 0.000000 1.000000
vn 0.000000 -1.000000 0.000000
vn 0.000000 -1.000000 0.000000
vn 0.000000 -1.000000 0.000000
vn 0.000000 -1.000000 0.000000
vn 0.000000 0.000000 1.000000
vn 0.000000 0.000000 1.000000
vn 0.000000 0.000000 1.000000
vn 0.000000 0.000000 1.000000
vn 0.000000 0.000000 1.000000
vn 0.000000 0.000000 1.000000
vn 0.000000 0.000000 1.000000
vn 0.000000 0.000000 1.000000
vn 0.000000 0.000000 1.000000
vn 0.000000 0.000000 1.000000
vn 0.000000 0.000000 1.000000
vn 0.000000 0.000000 1.000000
vn 0.000000 0.000000 1.000000
vn 0.000000 0.000000 1.000000
vn 0.000000 0.000000 1.000000
vn 0.000000 0.000000 1.000000
vn 0.000000 0.000000 1.000000
vn 0.000000 0.000000 1.000000
vn 0.000000 0.000000 1.000000
vn 0.000000 0.000000 1.000000
vn 0.000000 1.000000 0.000000
vn 0.000000 1.000000 0.000000
vn 0.000000 1.000000 0.000000
vn 0.000000 1.000000 0.000000
vn 0.000000 1.000000 0.000000
vn -0.000000 1.000000 -0.000002
vn -0.000000 1.000000 -0.000002
vn -0.000000 1.000000 -0.000002
vn -0.000000 1.000000 -0.000002
vn -0.000000 1.000000 -0.000002
vn 0.000000 0.000000 1.000000
vn 0.000000 0.000000 1.000000
vn 0.000000 0.000000 1.000000
vn 0.000000 1.000000 0.000000
vn 0.000000 1.000000 0.000000
vn 0.000000 1.000000 0.000000
vn 0.000000 1.000000 0.000000
vn 0.000000 0.000000 1.000000
vn 0.000000 0.000000 1.000000
vn 0.000000 0.000000 1.000000
vn 0.000000 0.000000 1.000000
vn 0.000000 0.000000 1.000000
vn 0.000000 0.000000 1.000000
vn 0.000000 0.000000 1.000000
vn 0.000000 0.000000 1.000000
vn -1.000000 0.000000 0.000000
vn -1.000000 0.000000 0.000000
vn -1.000000 0.000000 0.000000
vn -1.000000 0.000000 0.000000
vn 0.000000 0.000000 1.000000
vn 0.000000 0.000000 1.000000
vn 0.000000 0.000000 1.000000
vn 0.000000 0.000000 1.000000
vn 0.000000 0.000000 1.000000
vn 0.000000 0.000000 1.000000
vn 0.000000 0.000000 1.000000
vn 0.000000 0.000000 1.000000
vn 0.000000 -0.000000 1.000000
vn 0.000000 -0.000000 1.000000
vn 0.000000 0.000000 1.000000
vn 0.000000 0.000000 1.000000
vn 0.000000 0.000000 1.000000
vn 0.000000 0.000000 1.000000
vn 0.000000 0.000000 1.000000
vn 0.000000 0.000000 1.000000
vn 0.000000 0.000000 1.000000
vn 0.000000 0.000000 1.000000
vn 0.000000 0.000000 1.000000
vn 0.000000 0.000000 1.000000
vn 0.000000 -0.000000 1.000000
vn 0.000000 -0.000000 1.000000
vn 0.000000 0.000000 1.000000
vn 0.000000 0.000000 1.000000
vn 0.000000 0.000000 1.000000
vn 0.000000 0.000000 1.000000
vn 0.000000 0.000000 1.000000
vn 0.000000 0.000000 1.000000
vn 0.000000 0.000000 1.000000
vn 0.000000 0.000000 1.000000
s off
f 1/1/1 2/2/2 4/3/3 3/4/4
f 3/5/5 4/6/6 6/7/7 5/8/8
f 5/9/9 6/10/10 8/11/11 7/12/12
f 7/13/13 8/14/14 2/15/15 1/16/16
f 22/53/17 21/54/18 23/55/19 24/56/20
f 2/21/21 8/22/22 9/23/23 10/24/24
f 8/25/25 6/26/26 11/27/27 9/28/28
f 6/29/29 4/30/30 12/31/31 11/32/32
f 4/33/33 2/34/34 10/35/35 12/36/36
f 13/37/37 14/38/38 16/39/39 15/40/40
f 17/41/41 18/42/42 20/43/43 19/44/44
f 14/45/45 20/46/46 18/47/47 16/48/48
f 10/17/49 9/18/50 21/50/51 22/49/52
f 9/18/53 11/19/54 23/51/55 21/50/56
f 11/19/57 12/20/58 24/52/59 23/51/60
f 12/20/61 10/17/62 22/49/63 24/52/64
f 25/57/65 28/58/66 27/59/67 26/60/68
f 30/61/69 57/62/70 31/63/71 29/64/72
f 29/65/73 33/66/74 61/67/75 34/68/76 30/69/77
f 57/70/78 58/71/79 35/72/80 31/73/81
f 37/74/82 59/75/83 39/76/84
f 36/77/85 37/78/86 41/79/87 63/80/88 40/81/89
f 29/82/90 36/83/91 40/84/92 33/85/93
f 31/86/94 38/87/95 36/88/96 29/89/97
f 38/90/98 31/91/99 35/92/100 44/93/101
f 49/94/102 48/95/103 50/96/104 51/97/105
f 48/98/106 49/99/107 45/100/108 46/101/109
f 39/102/110 52/103/111 53/104/112 37/105/113
f 45/106/114 54/107/115 33/111/116
f 54/107/117 60/108/118 33/111/119
f 60/108/120 62/109/121 33/111/122
f 62/109/123 61/110/124 33/111/125
f 32/116/126 30/117/127 55/118/128 56/119/129
f 55/120/130 30/121/131 34/122/132 60/123/133 54/124/134
f 41/125/135 37/126/136 53/127/137 47/128/138 64/129/139
f 30/130/140 32/131/141 57/132/142
f 43/133/143 58/134/144 57/135/145 59/136/146
f 59/137/147 57/138/148 32/139/149 39/140/150
f 37/141/151 36/142/152 38/143/153 59/144/154
f 43/145/155 59/146/156 38/147/157 42/148/158
f 61/149/159 62/150/160 34/152/161
f 34/152/162 62/150/163 60/151/164
f 64/153/165 65/154/166 41/156/167
f 41/156/168 65/154/169 63/155/170
f 45/106/171 33/111/172 46/157/173
f 33/111/174 40/112/175 46/157/176
f 46/157/177 40/112/178 47/158/179
f 47/158/180 40/112/181 64/115/182
f 64/115/183 40/112/184 65/114/185
f 63/113/186 65/114/187 40/112/188
