# This file uses centimeters as units for non-parametric coordinates.

v 1.298639 3.956069 0.054875
v 1.298639 0.206069 0.054875
v 1.504709 3.750000 0.054875
v 1.504709 -0.270663 0.054875
v 1.298639 3.956069 0.000000
v 1.298639 0.206069 0.000000
v 1.504709 3.750000 -0.033619
v 3.710777 3.956069 0.054875
v 3.710775 0.206069 0.054875
v 3.504707 3.750000 0.054875
v 3.504709 -0.270663 0.054875
v 3.710777 3.956069 0.000000
v 3.710775 0.206069 0.000000
v 3.504707 3.750000 -0.033619
v 3.504707 -0.042082 -0.033619
v -0.000001 4.208395 0.000000
v 4.999998 4.208395 0.000000
v 4.999998 0.206069 0.000000
v 4.999998 4.208395 0.054875
v -0.000000 4.208395 0.054875
v 4.999998 4.414464 0.054875
v -0.000002 4.414464 0.054875
v 4.999998 -0.270663 0.054875
v 4.999998 0.206069 0.054875
v -0.000002 0.206069 0.000000
v -0.000002 0.206069 0.054875
v -0.000002 -0.270663 0.054875
v 1.504709 -0.042082 0.054875
v 1.504709 -0.042082 -0.033619
v 3.504707 -0.042082 0.054875
v 1.298639 1.221298 0.000000
v 0.894394 0.543609 0.000000
v 3.710775 0.731714 0.000000
v 4.672648 0.206069 0.000000
v 4.003202 0.454853 0.000000
v 1.823805 3.956069 0.000000
v 1.152366 4.040330 0.000000
v 1.298639 2.636204 0.000000
v 1.035529 3.627088 0.000000
v 1.105571 3.363306 0.000000
v 1.298639 2.274820 0.000000
v 1.124878 2.623593 0.000000
v 4.709198 4.208395 0.000000
v 4.351820 4.046826 0.000000
v 3.710777 3.475157 0.000000
v 3.918577 3.570809 0.000000
v 2.700931 3.956069 0.000000
v 2.518404 4.208394 0.000000
vt 0.674212 0.084519
vt 0.674212 0.084519
vt 0.674212 0.084519
vt 0.674212 0.084519
vt 0.632342 0.084519
vt 0.632342 0.084519
vt 0.632342 0.084519
vt 0.632342 0.084519
vt 0.632342 0.084519
vt 0.632342 0.084519
vt 0.674212 0.084519
vt 0.674212 0.084519
vt 0.674212 0.084519
vt 0.674212 0.084519
vt 0.632342 0.084519
vt 0.632342 0.084519
vt 0.632342 0.084519
vt 0.632342 0.084519
vt 0.632342 0.084519
vt 0.632342 0.084519
vt 0.632342 0.084519
vt 0.632342 0.084519
vt 0.674212 0.084519
vt 0.674212 0.084519
vt 0.674212 0.084519
vt 0.674212 0.084519
vt 0.632342 0.084519
vt 0.632342 0.084519
vt 0.632342 0.084519
vt 0.632342 0.084519
vt 0.632342 0.084519
vt 0.632342 0.084519
vt 0.632342 0.084519
vt 0.674212 0.084519
vt 0.674212 0.084519
vt 0.674212 0.084519
vt 0.674212 0.084519
vt 0.632342 0.084519
vt 0.632342 0.084519
vt 0.632342 0.084519
vt 0.632342 0.084519
vt 0.674212 0.084519
vt 0.674212 0.084519
vt 0.674212 0.084519
vt 0.632342 0.084519
vt 0.632342 0.084519
vt 0.740989 0.084519
vt 0.740989 0.084519
vt 0.704121 0.084519
vt 0.740989 0.084519
vt 0.707902 0.084519
vt 0.301937 0.063512
vt 0.740989 0.084519
vt 0.707902 0.084519
vt 0.628584 0.084518
vt 0.628584 0.084518
vt 0.674212 0.084519
vt 0.674212 0.084519
vt 0.628584 0.084518
vt 0.628584 0.084518
vt 0.674212 0.084519
vt 0.632342 0.084519
vt 0.632342 0.084519
vt 0.674212 0.084519
vt 0.674212 0.084519
vt 0.674212 0.084519
vt 0.632342 0.084519
vt 0.674212 0.084519
vt 0.632342 0.084519
vt 0.674212 0.084519
vt 0.632342 0.084519
vt 0.674212 0.084519
vt 0.674212 0.084519
vt 0.674212 0.084519
vt 0.674212 0.084519
vt 0.674212 0.084519
vt 0.674212 0.084519
vt 0.674212 0.084519
vt 0.674212 0.084519
vt 0.674212 0.084519
vt 0.674212 0.084519
vt 0.740989 0.084519
vt 0.740989 0.084519
vt 0.704121 0.084519
vt 0.301937 0.063512
vt 0.674212 0.084519
vt 0.707902 0.084519
vt 0.632342 0.084519
vt 0.740989 0.084519
vt 0.707902 0.084519
vt 0.632342 0.084519
vt 0.707902 0.084519
vt 0.740989 0.084519
vt 0.632342 0.084519
vt 0.707902 0.084519
vt 0.740989 0.084519
vt 0.707902 0.084519
vt 0.740989 0.084519
vt 0.740989 0.084519
vt 0.707902 0.084519
vt 0.632342 0.084519
vt 0.740989 0.084519
vt 0.740989 0.084519
vt 0.740989 0.084519
vt 0.632342 0.084519
vt 0.704121 0.084519
vt 0.740989 0.084519
vt 0.301937 0.063512
vt 0.301937 0.063512
vt 0.301937 0.063512
vt 0.301937 0.063512
vt 0.740989 0.084519
vt 0.632342 0.084519
vt 0.704121 0.084519
vt 0.740989 0.084519
vt 0.704121 0.084519
vt 0.740989 0.084519
vt 0.704121 0.084519
vt 0.740989 0.084519
vt 0.704121 0.084519
vt 0.704121 0.084519
vt 0.632342 0.084519
vt 0.740989 0.084519
vt 0.704121 0.084519
vt 0.632342 0.084519
vt 0.704121 0.084519
vt 0.704121 0.084519
vt 0.740989 0.084519
vt 0.740989 0.084519
vt 0.740989 0.084519
vt 0.704121 0.084519
vt 0.740989 0.084519
vt 0.740989 0.084519
vt 0.704121 0.084519
vn 0.000000 0.000000 1.000000
vn 0.000000 0.000000 1.000000
vn 0.000000 0.000000 1.000000
vn 0.000000 0.000000 1.000000
vn -1.000000 0.000000 0.000000
vn -1.000000 0.000000 0.000000
vn -1.000000 0.000000 0.000000
vn -1.000000 0.000000 0.000000
vn -1.000000 0.000000 0.000000
vn -1.000000 0.000000 0.000000
vn -1.000000 0.000000 0.000000
vn 1.000000 0.000000 0.000000
vn 1.000000 0.000000 0.000000
vn 1.000000 0.000000 0.000000
vn 1.000000 0.000000 0.000000
vn 0.000000 0.000000 1.000000
vn 0.000000 0.000000 1.000000
vn 0.000000 0.000000 1.000000
vn 1.000000 -0.000001 0.000000
vn 1.000000 -0.000001 0.000000
vn 1.000000 -0.000001 0.000000
vn 1.000000 -0.000001 -0.000000
vn 1.000000 -0.000001 -0.000000
vn 1.000000 -0.000001 0.000000
vn 0.000000 1.000000 0.000000
vn 0.000000 1.000000 0.000000
vn 0.000000 1.000000 0.000000
vn 0.000000 1.000000 0.000002
vn 0.000000 1.000000 0.000002
vn 0.000000 1.000000 0.000000
vn 0.000000 0.000000 1.000000
vn 0.000000 0.000000 1.000000
vn 0.000000 0.000000 1.000000
vn 0.000000 0.000000 1.000000
vn 0.000000 -1.000000 0.000000
vn 0.000000 -1.000000 0.000000
vn 0.000000 -1.000000 0.000000
vn 0.000000 -1.000000 0.000000
vn 0.000000 0.000000 1.000000
vn 0.000000 0.000000 1.000000
vn 0.000000 0.000000 1.000000
vn 0.000000 0.000000 1.000000
vn 0.000000 -1.000000 0.000000
vn 0.000000 -1.000000 0.000000
vn 0.000000 -1.000000 0.000000
vn 0.000000 -1.000000 0.000000
vn 0.000000 0.000000 1.000000
vn 0.000000 0.000000 1.000000
vn 0.000000 0.000000 1.000000
vn 0.000000 0.000000 1.000000
vn -0.000001 -0.000000 1.000000
vn 0.000000 0.000000 1.000000
vn -0.000000 0.000000 1.000000
vn -0.000000 0.000000 1.000000
vn 0.000000 0.000000 1.000000
vn 0.000000 -0.000000 1.000000
vn 0.000000 0.000000 1.000000
vn -0.000000 -0.000001 1.000000
vn 0.000000 -0.000000 1.000000
vn 0.000000 0.000000 1.000000
vn 0.000000 0.000000 1.000000
vn 0.000000 0.000000 1.000000
vn 0.000000 -0.000000 1.000000
vn 0.000000 -0.000000 1.000000
vn 0.000000 -0.000000 1.000000
vn 0.000000 -0.000000 1.000000
vn -0.000000 -0.000000 1.000000
vn 0.000000 -0.000000 1.000000
vn 0.000000 -0.000000 1.000000
vn -0.000000 -0.000000 1.000000
vn 0.000000 0.000000 1.000000
vn 0.000000 0.000000 1.000000
vn -0.000000 -0.000000 1.000000
vn 0.000000 0.000000 1.000000
vn 0.000000 0.000000 1.000000
vn -0.000000 -0.000000 1.000000
vn 0.000001 0.000000 1.000000
vn -0.000000 -0.000000 1.000000
vn 0.000001 -0.000000 1.000000
vn 0.000001 0.000000 1.000000
vn 0.000000 0.000000 1.000000
vn 0.000000 0.000000 1.000000
vn 0.000000 0.000000 1.000000
vn 0.000000 0.000000 1.000000
vn 0.000000 1.000000 0.000000
vn 0.000000 1.000000 0.000000
vn 0.000000 1.000000 0.000000
vn 0.000000 1.000000 0.000000
vn -0.000000 1.000000 -0.000002
vn -0.000000 1.000000 -0.000002
vn -0.000000 1.000000 -0.000002
vn -0.000000 1.000000 -0.000002
vn -0.000000 1.000000 -0.000002
vn 0.000000 0.000000 1.000000
vn 0.000000 0.000000 1.000000
vn 0.000000 0.000000 1.000000
vn 0.000000 1.000000 0.000000
vn 0.000000 1.000000 0.000000
vn 0.000000 1.000000 0.000000
vn 0.000000 1.000000 0.000000
vn 0.000000 0.000000 1.000000
vn 0.000000 0.000000 1.000000
vn 0.000000 0.000000 1.000000
vn 0.000000 0.000000 1.000000
vn 0.000000 0.000000 1.000000
vn 0.000000 0.000000 1.000000
vn 0.000000 0.000000 1.000000
vn 0.000000 0.000000 1.000000
vn -1.000000 0.000000 0.000000
vn -1.000000 0.000000 0.000000
vn -1.000000 0.000000 0.000000
vn -1.000000 0.000000 0.000000
vn -0.000001 0.000000 1.000000
vn 0.000000 0.000000 1.000000
vn 0.000000 0.000000 1.000000
vn 0.000000 0.000000 1.000000
vn 0.000000 0.000000 1.000000
vn 0.000000 0.000000 1.000000
vn 0.000000 0.000000 1.000000
vn 0.000000 0.000000 1.000000
vn 0.000000 -0.000000 1.000000
vn 0.000000 -0.000000 1.000000
vn 0.000000 0.000000 1.000000
vn 0.000001 0.000000 1.000000
vn 0.000000 0.000001 1.000000
vn 0.000000 0.000001 1.000000
vn 0.000000 0.000000 1.000000
vn -0.000000 0.000000 1.000000
vn 0.000000 -0.000000 1.000000
vn -0.000001 -0.000000 1.000000
vn -0.000001 -0.000000 1.000000
vn 0.000000 -0.000000 1.000000
vn -0.000001 0.000000 1.000000
vn -0.000000 -0.000001 1.000000
vn 0.000000 0.000000 1.000000
vn 0.000000 -0.000000 1.000000
vn 0.000000 0.000000 1.000000
vn 0.000000 0.000000 1.000000
vn 0.000000 -0.000000 1.000000
vn 0.000000 -0.000000 1.000000
vn 0.000000 0.000000 1.000000
vn -0.000000 0.000000 1.000000
vn 0.000000 0.000000 1.000000
vn 0.000000 0.000000 1.000000
vn 0.000000 0.000001 1.000000
vn 0.000000 0.000000 1.000000
vn 0.000000 0.000000 1.000000
vn 0.000000 0.000001 1.000000
vn 0.000000 0.000000 1.000000
vn 0.000000 0.000001 1.000000
vn 0.000000 0.000001 1.000000
vn 0.000001 -0.000000 1.000000
vn -0.000000 -0.000000 1.000000
vn 0.000000 -0.000000 1.000000
vn 0.000000 -0.000000 1.000000
vn -0.000000 -0.000000 1.000000
vn 0.000000 -0.000000 1.000000
vn 0.000000 0.000001 1.000000
vn 0.000000 0.000001 1.000000
vn 0.000000 0.000001 1.000000
vn 0.000000 0.000001 1.000000
vn 0.000000 0.000001 1.000000
vn 0.000000 0.000000 1.000000
vn 0.000000 0.000001 1.000000
vn 0.000000 0.000001 1.000000
vn 0.000000 0.000000 1.000000
vn 0.000000 -0.000000 1.000000
vn 0.000000 0.000000 1.000000
vn -0.000001 0.000000 1.000000
vn -0.000001 0.000000 1.000000
vn 0.000000 -0.000000 1.000000
vn -0.000000 0.000000 1.000000
vn 0.000000 0.000000 1.000000
vn 0.000000 0.000000 1.000000
s off
f 2/1/1 28/79/2 3/3/3 1/2/4
f 1/5/5 5/8/6 38/105/7 41/113/8 31/88/9 6/7/10 2/6/11
f 28/67/12 29/69/13 7/10/14 3/9/15
f 9/11/16 30/77/17 11/14/18
f 8/15/19 9/16/20 13/17/21 33/91/22 45/122/23 12/18/24
f 1/19/25 8/20/26 12/21/27 47/125/28 36/101/29 5/22/30
f 3/23/31 10/24/32 8/25/33 1/26/34
f 10/30/35 3/31/36 7/32/37 14/33/38
f 20/34/39 19/35/40 21/36/41 22/37/42
f 19/38/43 20/39/44 16/40/45 17/41/46
f 11/42/47 23/43/48 24/44/49 9/61/50
f 38/52/51 5/85/52 40/108/53
f 40/108/54 5/85/55 39/109/56
f 5/85/57 37/110/58 39/109/59
f 36/111/60 37/110/61 5/85/62
f 17/48/63 44/133/64 18/50/65
f 44/133/66 46/130/67 18/50/68
f 18/50/69 46/130/70 34/93/71
f 34/93/72 46/130/73 35/96/74
f 35/96/75 46/130/76 33/98/77
f 46/130/78 45/123/79 33/98/80
f 4/4/81 2/81/82 26/57/83 27/58/84
f 26/55/85 2/56/86 6/59/87 25/60/88
f 13/63/89 9/62/90 24/45/91 18/46/92 34/94/93
f 2/80/94 4/78/95 28/68/96
f 15/65/97 29/70/98 28/75/99 30/76/100
f 30/64/101 28/66/102 4/73/103 11/74/104
f 9/86/105 8/12/106 10/13/107 30/72/108
f 15/29/109 30/71/110 10/27/111 14/28/112
f 31/100/113 32/90/114 6/54/115
f 6/54/116 32/90/117 25/87/118
f 34/97/119 35/95/120 13/51/121
f 13/51/122 35/95/123 33/92/124
f 43/119/125 44/132/126 17/82/127
f 40/118/128 42/116/129 38/106/130
f 38/106/131 42/116/132 41/114/133
f 37/103/134 16/83/135 39/107/136
f 16/83/137 25/53/138 39/107/139
f 39/107/140 25/53/141 40/112/142
f 16/47/143 37/104/144 48/129/145
f 37/104/146 36/102/147 48/129/148
f 36/102/149 47/128/150 48/129/151
f 45/131/152 46/124/153 12/49/154
f 12/49/155 46/124/156 44/121/157
f 43/134/158 48/127/159 44/120/160
f 44/120/161 48/127/162 12/84/163
f 48/127/164 47/126/165 12/84/166
f 42/115/167 32/99/168 31/89/169 41/117/170
f 42/115/171 40/112/172 25/53/173 32/99/174
