# This file uses centimeters as units for non-parametric coordinates.

v 0.068087 1.711167 0.000000
v -0.068086 1.711167 0.000000
v 0.068087 1.847339 0.000000
v -0.068086 1.847339 0.000000
v 0.030189 1.809441 0.386950
v -0.030188 1.809441 0.386950
v 0.030189 1.749064 0.386950
v -0.030188 1.749064 0.386950
v 0.068087 1.711167 0.178035
v 0.068087 1.847339 0.178035
v -0.068086 1.847339 0.178035
v -0.068086 1.711167 0.178035
v -0.030188 1.809441 0.178035
v 0.030189 1.809441 0.178035
v 0.030189 1.749064 0.178035
v -0.030188 1.749064 0.178035
v 0.037101 1.571513 0.347243
v -0.037101 1.571513 0.347243
v 0.037101 1.984150 0.347243
v -0.037101 1.984150 0.347243
v 0.037101 1.984150 0.397740
v -0.037101 1.984150 0.397740
v 0.037101 1.571513 0.397740
v -0.037101 1.571513 0.397740
v 0.037101 1.814500 0.397740
v -0.037101 1.814500 0.397740
v -0.037101 1.814500 0.347243
v 0.037101 1.814500 0.347243
v -0.037101 1.741163 0.347243
v -0.037101 1.741163 0.397740
v 0.037101 1.741163 0.397740
v 0.037101 1.741163 0.347243
v -0.204402 1.741163 0.347243
v -0.204402 1.741163 0.397740
v -0.204402 1.814500 0.397740
v -0.204402 1.814500 0.347243
v 0.204402 1.741163 0.397740
v 0.204402 1.741163 0.347243
v 0.204402 1.814500 0.347243
v 0.204402 1.814500 0.397740
v 0.297403 2.073148 0.279301
v -0.297403 2.073148 0.279301
v 0.297403 2.073148 0.415184
v -0.297403 2.073148 0.415184
v 0.297403 1.478342 0.415184
v -0.297403 1.478342 0.415184
v 0.297403 1.478342 0.279301
v -0.297403 1.478342 0.279301
v 0.195199 1.970944 0.415184
v -0.195199 1.970944 0.415184
v -0.195199 1.580546 0.415184
v 0.195199 1.580546 0.415184
v 0.195199 1.580546 0.279301
v -0.195199 1.580546 0.279301
v -0.195199 1.970944 0.279301
v 0.195199 1.970944 0.279301
vt 0.203153 0.083673
vt 0.263384 0.083673
vt 0.203153 0.083673
vt 0.232927 0.083673
vt 0.263384 0.083673
vt 0.169562 0.083673
vt 0.232927 0.083673
vt 0.169562 0.083673
vt 0.169562 0.083673
vt 0.203153 0.083673
vt 0.203153 0.083673
vt 0.203153 0.083673
vt 0.203153 0.083673
vt 0.232927 0.083673
vt 0.169562 0.083673
vt 0.263384 0.083673
vt 0.232927 0.083673
vt 0.203153 0.083673
vt 0.263384 0.083673
vt 0.203153 0.083673
vt 0.230463 0.084444
vt 0.169562 0.083673
vt 0.203153 0.083673
vt 0.263384 0.083673
vt 0.263384 0.083673
vt 0.203153 0.083673
vt 0.230463 0.084444
vt 0.203153 0.083673
vt 0.230463 0.084444
vt 0.230463 0.084444
vt 0.203153 0.083673
vt 0.263384 0.083673
vt 0.203153 0.083673
vt 0.169562 0.083673
vt 0.169562 0.083673
vt 0.203153 0.083673
vt 0.230463 0.084444
vt 0.230463 0.084444
vt 0.263384 0.083673
vt 0.203153 0.083673
vt 0.230463 0.084444
vt 0.230463 0.084444
vt 0.230463 0.084444
vt 0.230463 0.084444
vt 0.169562 0.083673
vt 0.230463 0.084444
vt 0.203153 0.083673
vt 0.230463 0.084444
vt 0.230463 0.084444
vt 0.230463 0.084444
vt 0.230463 0.084444
vt 0.230463 0.084444
vt 0.234213 0.180533
vt 0.234213 0.180533
vt 0.234213 0.180533
vt 0.234213 0.180533
vt 0.264671 0.180533
vt 0.264671 0.180533
vt 0.264671 0.180533
vt 0.264671 0.180533
vt 0.234213 0.180533
vt 0.234213 0.180533
vt 0.234213 0.180533
vt 0.234213 0.180533
vt 0.170849 0.180533
vt 0.170849 0.180533
vt 0.170849 0.180533
vt 0.170849 0.180533
vt 0.234213 0.180533
vt 0.234213 0.180533
vt 0.234213 0.180533
vt 0.234213 0.180533
vt 0.204439 0.180533
vt 0.204439 0.180533
vt 0.204439 0.180533
vt 0.204439 0.180533
vt 0.234213 0.180533
vt 0.234213 0.180533
vt 0.234213 0.180533
vt 0.234213 0.180533
vt 0.204439 0.180533
vt 0.204439 0.180533
vt 0.204439 0.180533
vt 0.204439 0.180533
vt 0.204439 0.180533
vt 0.204439 0.180533
vt 0.204439 0.180533
vt 0.204439 0.180533
vt 0.234213 0.180533
vt 0.234213 0.180533
vt 0.234213 0.180533
vt 0.234213 0.180533
vt 0.204439 0.180533
vt 0.204439 0.180533
vt 0.204439 0.180533
vt 0.204439 0.180533
vt 0.234213 0.180533
vt 0.234213 0.180533
vt 0.234213 0.180533
vt 0.234213 0.180533
vt 0.204439 0.180533
vt 0.204439 0.180533
vt 0.204439 0.180533
vt 0.204439 0.180533
vt 0.232114 0.180533
vt 0.232114 0.180533
vt 0.232114 0.180533
vt 0.232114 0.180533
vt 0.262755 0.180533
vt 0.262755 0.180533
vt 0.262755 0.180533
vt 0.262755 0.180533
vt 0.232114 0.180533
vt 0.232114 0.180533
vt 0.232114 0.180533
vt 0.232114 0.180533
vt 0.204439 0.180533
vt 0.204439 0.180533
vt 0.204439 0.180533
vt 0.204439 0.180533
vt 0.232114 0.180533
vt 0.232114 0.180533
vt 0.232114 0.180533
vt 0.232114 0.180533
vt 0.262755 0.180533
vt 0.262755 0.180533
vt 0.262755 0.180533
vt 0.262755 0.180533
vt 0.232114 0.180533
vt 0.232114 0.180533
vt 0.232114 0.180533
vt 0.232114 0.180533
vt 0.266407 0.183280
vt 0.266407 0.183280
vt 0.266407 0.183280
vt 0.266407 0.183280
vt 0.178545 0.181244
vt 0.178545 0.181244
vt 0.178545 0.181244
vt 0.178545 0.181244
vt 0.203513 0.181244
vt 0.203513 0.181244
vt 0.203513 0.181244
vt 0.203513 0.181244
vt 0.203513 0.181244
vt 0.203513 0.181244
vt 0.203513 0.181244
vt 0.203513 0.181244
vt 0.231261 0.180897
vt 0.231261 0.180897
vt 0.231261 0.180897
vt 0.231261 0.180897
vt 0.231261 0.180897
vt 0.231261 0.180897
vt 0.231261 0.180897
vt 0.231261 0.180897
vt 0.231261 0.180897
vt 0.231261 0.180897
vt 0.231261 0.180897
vt 0.231261 0.180897
vt 0.231261 0.180897
vt 0.231261 0.180897
vt 0.231261 0.180897
vt 0.231261 0.180897
vt 0.231261 0.180897
vt 0.231261 0.180897
vt 0.231261 0.180897
vt 0.231261 0.180897
vt 0.231261 0.180897
vt 0.231261 0.180897
vt 0.231261 0.180897
vt 0.231261 0.180897
vt 0.231261 0.180897
vt 0.231261 0.180897
vt 0.231261 0.180897
vt 0.231261 0.180897
vt 0.231261 0.180897
vt 0.231261 0.180897
vt 0.231261 0.180897
vt 0.231261 0.180897
vt 0.266407 0.183280
vt 0.266407 0.183280
vt 0.266407 0.183280
vt 0.266407 0.183280
vt 0.202245 0.180977
vt 0.202245 0.180977
vt 0.202245 0.180977
vt 0.202245 0.180977
vt 0.202245 0.180977
vt 0.202245 0.180977
vt 0.202245 0.180977
vt 0.202245 0.180977
vt 0.172981 0.180977
vt 0.172981 0.180977
vt 0.172981 0.180977
vt 0.172981 0.180977
vn 0.000000 0.000000 1.000000
vn 0.000000 0.000000 1.000000
vn 0.000000 0.000000 1.000000
vn 0.000000 0.000000 1.000000
vn 0.000000 0.000000 1.000000
vn 0.000000 0.000000 1.000000
vn 0.000000 0.000000 1.000000
vn 0.000000 0.000000 1.000000
vn 0.000000 0.000000 1.000000
vn 0.000000 0.000000 1.000000
vn 0.000000 0.000000 1.000000
vn 0.000000 0.000000 1.000000
vn 0.000000 0.000000 1.000000
vn 0.000000 0.000000 1.000000
vn 0.000000 0.000000 1.000000
vn 0.000000 0.000000 1.000000
vn -0.000001 0.000000 1.000000
vn -0.000001 0.000000 1.000000
vn -0.000001 0.000000 1.000000
vn -0.000001 0.000000 1.000000
vn 1.000000 0.000000 0.000000
vn 1.000000 0.000000 0.000000
vn 1.000000 0.000000 0.000000
vn 1.000000 0.000000 0.000000
vn 0.000000 1.000000 0.000000
vn 0.000000 1.000000 0.000000
vn 0.000000 1.000000 0.000000
vn 0.000000 1.000000 0.000000
vn -1.000000 0.000000 0.000000
vn -1.000000 0.000000 0.000000
vn -1.000000 0.000000 0.000000
vn -1.000000 0.000000 0.000000
vn 0.000000 -1.000000 0.000000
vn 0.000000 -1.000000 0.000000
vn 0.000000 -1.000000 0.000000
vn 0.000000 -1.000000 0.000000
vn 0.000000 1.000000 0.000000
vn 0.000000 1.000000 0.000000
vn 0.000000 1.000000 0.000000
vn 0.000000 1.000000 0.000000
vn 1.000000 0.000000 0.000000
vn 1.000000 0.000000 0.000000
vn 1.000000 0.000000 0.000000
vn 1.000000 0.000000 0.000000
vn 0.000000 -1.000000 0.000000
vn 0.000000 -1.000000 0.000000
vn 0.000000 -1.000000 0.000000
vn 0.000000 -1.000000 0.000000
vn -1.000000 0.000000 0.000000
vn -1.000000 0.000000 0.000000
vn -1.000000 0.000000 0.000000
vn -1.000000 0.000000 0.000000
vn 0.000000 0.000000 -1.000000
vn 0.000000 0.000000 -1.000000
vn 0.000000 0.000000 -1.000000
vn 0.000000 0.000000 -1.000000
vn 0.000000 1.000000 0.000000
vn 0.000000 1.000000 0.000000
vn 0.000000 1.000000 0.000000
vn 0.000000 1.000000 0.000000
vn 0.000000 0.000000 1.000000
vn 0.000000 0.000000 1.000000
vn 0.000000 0.000000 1.000000
vn 0.000000 0.000000 1.000000
vn 0.000000 -1.000000 0.000000
vn 0.000000 -1.000000 0.000000
vn 0.000000 -1.000000 0.000000
vn 0.000000 -1.000000 0.000000
vn 0.000000 0.000000 1.000000
vn 0.000000 0.000000 1.000000
vn 0.000000 0.000000 1.000000
vn 0.000000 0.000000 1.000000
vn -1.000000 -0.000001 0.000000
vn -1.000000 -0.000001 0.000000
vn -1.000000 -0.000001 0.000000
vn -1.000000 -0.000001 0.000000
vn 0.000000 0.000000 -1.000000
vn 0.000000 0.000000 -1.000000
vn 0.000000 0.000000 -1.000000
vn 0.000000 0.000000 -1.000000
vn 1.000000 -0.000000 0.000000
vn 1.000000 -0.000000 0.000000
vn 1.000000 -0.000000 0.000000
vn 1.000000 -0.000000 0.000000
vn -1.000000 0.000000 0.000000
vn -1.000000 0.000000 0.000000
vn -1.000000 0.000000 0.000000
vn -1.000000 0.000000 0.000000
vn 0.000000 0.000000 1.000000
vn 0.000000 0.000000 1.000000
vn 0.000000 0.000000 1.000000
vn 0.000000 0.000000 1.000000
vn 1.000000 0.000000 0.000000
vn 1.000000 0.000000 0.000000
vn 1.000000 0.000000 0.000000
vn 1.000000 0.000000 0.000000
vn 0.000000 0.000000 -1.000000
vn 0.000000 0.000000 -1.000000
vn 0.000000 0.000000 -1.000000
vn 0.000000 0.000000 -1.000000
vn -0.000001 -1.000000 0.000000
vn -0.000001 -1.000000 0.000000
vn -0.000001 -1.000000 0.000000
vn -0.000001 -1.000000 0.000000
vn -0.000000 0.000000 1.000000
vn -0.000000 0.000000 1.000000
vn -0.000000 0.000000 1.000000
vn -0.000000 0.000000 1.000000
vn -0.000001 1.000000 0.000000
vn -0.000001 1.000000 0.000000
vn -0.000001 1.000000 0.000000
vn -0.000001 1.000000 0.000000
vn 0.000000 0.000000 -1.000000
vn 0.000000 0.000000 -1.000000
vn 0.000000 0.000000 -1.000000
vn 0.000000 0.000000 -1.000000
vn 0.000001 -1.000000 0.000000
vn 0.000001 -1.000000 0.000000
vn 0.000001 -1.000000 0.000000
vn 0.000001 -1.000000 0.000000
vn -0.000000 0.000000 -1.000000
vn -0.000000 0.000000 -1.000000
vn -0.000000 0.000000 -1.000000
vn -0.000000 0.000000 -1.000000
vn 0.000001 1.000000 0.000000
vn 0.000001 1.000000 0.000000
vn 0.000001 1.000000 0.000000
vn 0.000001 1.000000 0.000000
vn 0.000000 0.000000 1.000000
vn 0.000000 0.000000 1.000000
vn 0.000000 0.000000 1.000000
vn 0.000000 0.000000 1.000000
vn 0.000000 1.000000 0.000000
vn 0.000000 1.000000 0.000000
vn 0.000000 1.000000 0.000000
vn 0.000000 1.000000 0.000000
vn 0.000000 -1.000000 0.000000
vn 0.000000 -1.000000 0.000000
vn 0.000000 -1.000000 0.000000
vn 0.000000 -1.000000 0.000000
vn -1.000000 0.000000 0.000000
vn -1.000000 0.000000 0.000000
vn -1.000000 0.000000 0.000000
vn -1.000000 0.000000 0.000000
vn 1.000000 0.000000 0.000000
vn 1.000000 0.000000 0.000000
vn 1.000000 0.000000 0.000000
vn 1.000000 0.000000 0.000000
vn 0.000000 0.000000 1.000000
vn 0.000000 0.000000 1.000000
vn 0.000000 0.000000 1.000000
vn 0.000000 0.000000 1.000000
vn -0.000000 0.000000 1.000000
vn -0.000000 0.000000 1.000000
vn -0.000000 0.000000 1.000000
vn -0.000000 0.000000 1.000000
vn 0.000000 0.000000 1.000000
vn 0.000000 0.000000 1.000000
vn 0.000000 0.000000 1.000000
vn 0.000000 0.000000 1.000000
vn 0.000000 0.000000 1.000000
vn 0.000000 0.000000 1.000000
vn 0.000000 0.000000 1.000000
vn 0.000000 0.000000 1.000000
vn 0.000000 0.000000 -1.000000
vn 0.000000 0.000000 -1.000000
vn 0.000000 0.000000 -1.000000
vn 0.000000 0.000000 -1.000000
vn 0.000000 0.000000 -1.000000
vn 0.000000 0.000000 -1.000000
vn 0.000000 0.000000 -1.000000
vn 0.000000 0.000000 -1.000000
vn 0.000000 0.000000 -1.000000
vn 0.000000 0.000000 -1.000000
vn 0.000000 0.000000 -1.000000
vn 0.000000 0.000000 -1.000000
vn -0.000000 0.000000 -1.000000
vn -0.000000 0.000000 -1.000000
vn -0.000000 0.000000 -1.000000
vn -0.000000 0.000000 -1.000000
vn 0.000000 1.000000 0.000000
vn 0.000000 1.000000 0.000000
vn 0.000000 1.000000 0.000000
vn 0.000000 1.000000 0.000000
vn -1.000000 0.000000 0.000000
vn -1.000000 0.000000 0.000000
vn -1.000000 0.000000 0.000000
vn -1.000000 0.000000 0.000000
vn 1.000000 0.000000 0.000000
vn 1.000000 0.000000 0.000000
vn 1.000000 0.000000 0.000000
vn 1.000000 0.000000 0.000000
vn 0.000000 -1.000000 0.000000
vn 0.000000 -1.000000 0.000000
vn 0.000000 -1.000000 0.000000
vn 0.000000 -1.000000 0.000000
s off
f 10/52/1 11/49/2 13/29/3 14/43/4
f 5/4/5 6/14/6 8/7/7 7/17/8
f 15/42/9 16/37/10 12/27/11 9/48/12
f 11/50/13 12/46/14 16/38/15 13/30/16
f 14/44/17 15/41/18 9/21/19 10/51/20
f 10/23/21 9/47/22 1/1/23 3/20/24
f 3/2/25 4/19/26 11/25/27 10/24/28
f 2/18/29 12/28/30 11/26/31 4/3/32
f 9/22/33 12/45/34 2/9/35 1/8/36
f 14/32/37 13/39/38 6/5/39 5/16/40
f 7/12/41 15/33/42 14/31/43 5/13/44
f 7/6/45 8/15/46 16/35/47 15/34/48
f 13/40/49 16/36/50 8/10/51 6/11/52
f 32/53/53 29/54/54 27/55/55 28/56/56
f 19/57/57 20/58/58 22/59/59 21/60/60
f 25/61/61 26/62/62 30/63/63 31/64/64
f 23/65/65 24/66/66 18/67/67 17/68/68
f 21/69/69 22/70/70 26/71/71 25/72/72
f 27/73/73 26/74/74 22/75/75 20/76/76
f 28/77/77 27/78/78 20/79/79 19/80/80
f 25/81/81 28/82/82 19/83/83 21/84/84
f 18/85/85 24/86/86 30/87/87 29/88/88
f 31/89/89 30/90/90 24/91/91 23/92/92
f 23/93/93 17/94/94 32/95/95 31/96/96
f 17/97/97 18/98/98 29/99/99 32/100/100
f 29/101/101 30/102/102 34/103/103 33/104/104
f 30/105/105 26/106/106 35/107/107 34/108/108
f 26/109/109 27/110/110 36/111/111 35/112/112
f 27/113/113 29/114/114 33/115/115 36/116/116
f 31/117/117 32/118/118 38/119/119 37/120/120
f 32/121/121 28/122/122 39/123/123 38/124/124
f 28/125/125 25/126/126 40/127/127 39/128/128
f 25/129/129 31/130/130 37/131/131 40/132/132
f 41/133/133 42/134/134 44/135/135 43/136/136
f 45/137/137 46/138/138 48/139/139 47/140/140
f 42/141/141 48/142/142 46/143/143 44/144/144
f 47/145/145 41/146/146 43/147/147 45/148/148
f 43/149/149 44/150/150 50/151/151 49/152/152
f 44/153/153 46/154/154 51/155/155 50/156/156
f 46/157/157 45/158/158 52/159/159 51/160/160
f 45/161/161 43/162/162 49/163/163 52/164/164
f 47/165/165 48/166/166 54/167/167 53/168/168
f 48/169/169 42/170/170 55/171/171 54/172/172
f 42/173/173 41/174/174 56/175/175 55/176/176
f 41/177/177 47/178/178 53/179/179 56/180/180
f 51/181/181 52/182/182 53/183/183 54/184/184
f 52/185/185 49/186/186 56/187/187 53/188/188
f 51/189/189 54/190/190 55/191/191 50/192/192
f 50/193/193 55/194/194 56/195/195 49/196/196
