# This file uses centimeters as units for non-parametric coordinates.

v 5.000000 3.750000 -0.000000
v 0.000000 4.414464 0.000000
v 5.000000 4.414464 -5.000000
v 0.000000 4.414464 -5.000000
v 3.750000 4.414464 0.000000
v 5.000000 4.414464 -1.250000
vt 0.231170 0.062211
vt 0.262615 0.062211
vt 0.234013 0.062211
vt 0.231170 0.062211
vt 0.262615 0.062211
vt 0.235425 0.062211
vt 0.262615 0.062211
vt 0.231378 0.061197
vn -0.006445 -0.999959 -0.006445
vn -0.006445 -0.999959 -0.006445
vn 0.000000 -1.000000 0.000000
vn 0.000000 -1.000000 0.000000
vn 0.000000 -1.000000 0.000000
vn -0.424899 -0.799326 -0.424899
s 1
f 6/8/1 5/6/2 2/3/3 4/4/4 3/1/5
f 5/5/2 6/7/1 1/2/6
