# This file uses centimeters as units for non-parametric coordinates.

v 0.000000 0.000000 -0.000004
v 5.000000 0.000000 -0.000004
v 0.000000 0.000000 -5.000004
v 5.000000 0.000000 -5.000004
v 2.500000 -0.326099 -0.000004
v 1.562500 0.000000 -0.000004
v 1.562500 0.000000 -5.000004
v 3.437500 0.000000 -0.000004
v 3.437500 0.000000 -5.000004
v 1.562500 -0.326099 -0.000004
v 3.437500 -0.326099 -0.000004
v 0.000000 0.000000 -1.562496
v 1.562500 0.000000 -1.562496
v 1.562500 -0.326099 -1.562496
v 3.437500 -0.326099 -1.562496
v 3.437500 0.000000 -1.562496
v 5.000000 0.000000 -1.562496
v 0.000000 -0.326099 -1.562496
v 0.000000 -0.326099 -3.437496
v 1.562500 -0.326099 -3.437496
v 3.437500 -0.326099 -3.437496
v 3.437500 0.000000 -3.437496
v 5.000000 0.000000 -3.437496
v 0.000000 0.000000 -3.437496
v 1.562500 0.000000 -3.437496
v 0.000000 -0.326099 -2.499996
v 1.650169 0.000000 -5.000004
v 1.650169 0.000000 -3.437496
v 1.650169 -0.326099 -3.437496
v 3.437500 -0.326099 -1.666825
v 3.437500 0.000000 -1.666825
v 5.000000 0.000000 -1.666825
vt 0.262615 0.062211
vt 0.262615 0.062211
vt 0.262615 0.062211
vt 0.262615 0.062211
vt 0.265123 0.061964
vt 0.197879 0.288566
vt 0.262615 0.062211
vt 0.231822 0.062211
vt 0.262615 0.062211
vt 0.231822 0.062211
vt 0.197879 0.288566
vt 0.231822 0.062211
vt 0.262615 0.062211
vt 0.197879 0.288566
vt 0.262615 0.062211
vt 0.231822 0.062211
vt 0.235772 0.062211
vt 0.262615 0.062211
vt 0.231822 0.062211
vt 0.231822 0.062211
vt 0.197879 0.288566
vt 0.197879 0.288566
vt 0.202270 0.061250
vt 0.231822 0.062211
vt 0.233063 0.061250
vt 0.262615 0.062211
vt 0.235772 0.062211
vt 0.235772 0.062211
vt 0.205660 0.060624
vt 0.235212 0.059663
vt 0.197879 0.288566
vt 0.197879 0.288566
vt 0.231822 0.062211
vt 0.231822 0.062211
vt 0.262615 0.062211
vt 0.262615 0.062211
vt 0.262615 0.062211
vt 0.262615 0.062211
vt 0.265123 0.061964
vt 0.235571 0.061189
vt 0.235571 0.061189
vt 0.199933 0.288215
vt 0.199933 0.288215
vt 0.199933 0.288215
vt 0.199933 0.288215
vt 0.235212 0.059663
vt 0.235212 0.059663
vt 0.235212 0.059663
vt 0.235212 0.059663
vt 0.199933 0.288215
vt 0.262615 0.062211
vt 0.235772 0.062211
vt 0.265123 0.061964
vt 0.235571 0.061189
vt 0.205660 0.060624
vt 0.235212 0.059663
vt 0.197879 0.288566
vt 0.197879 0.288566
vt 0.202270 0.061250
vt 0.202270 0.061250
vt 0.233063 0.061250
vt 0.233063 0.061250
vt 0.231822 0.062211
vt 0.262615 0.062211
vt 0.262615 0.062211
vt 0.231822 0.062211
vt 0.265123 0.061964
vt 0.235212 0.059663
vt 0.205660 0.060624
vt 0.235571 0.061189
vt 0.235212 0.059663
vt 0.205660 0.060624
vt 0.233063 0.061250
vt 0.262615 0.062211
vt 0.202270 0.061250
vt 0.231822 0.062211
vn 0.000000 1.000000 0.000000
vn 0.000000 0.978908 0.204300
vn 0.000000 0.978908 0.204300
vn 0.000000 1.000000 0.000000
vn 0.000000 1.000000 0.000000
vn 0.000000 1.000000 0.000000
vn 0.000000 1.000000 0.000000
vn 0.000000 1.000000 0.000000
vn 0.000000 1.000000 0.000000
vn 0.000000 0.978908 0.204300
vn -0.198374 0.959454 0.200240
vn 0.359451 0.861155 -0.359453
vn 0.000000 1.000000 0.000000
vn 0.000000 1.000000 0.000000
vn 0.168885 0.971059 -0.168886
vn 0.359451 0.861155 -0.359453
vn 1.000000 0.000000 0.000000
vn 1.000000 0.000000 0.000000
vn 0.000000 1.000000 0.000000
vn 0.000000 1.000000 0.000000
vn 0.000000 1.000000 0.000000
vn 0.000000 1.000000 0.000000
vn 0.000000 1.000000 0.000000
vn -1.000000 0.000000 0.000000
vn -1.000000 0.000000 0.000000
vn -1.000000 0.000000 0.000000
vn -1.000000 0.000000 0.000000
vn 0.000000 1.000000 0.000000
vn 0.000000 1.000000 0.000000
vn 0.000000 1.000000 0.000000
vn 0.000000 1.000000 0.000000
vn 0.168885 0.971059 -0.168886
vn 0.000000 0.985211 -0.171347
vn 0.000000 0.922834 -0.385198
vn 0.359451 0.861155 -0.359453
vn 0.000000 0.985211 0.171347
vn 0.000000 0.985211 0.171347
vn 0.000000 1.000000 0.000000
vn 0.000000 0.985211 -0.171347
vn 0.168885 0.971059 -0.168886
vn 0.000000 0.999868 0.016262
vn 0.000000 1.000000 0.000000
vn -0.297659 0.906159 0.300459
vn 0.000000 0.985211 0.171347
vn -0.198374 0.959454 0.200240
vn -0.297659 0.906159 0.300459
vn -1.000000 0.000000 0.000000
vn -1.000000 0.000000 0.000000
vn 0.000000 1.000000 0.000000
vn 0.000000 1.000000 0.000000
vn 0.000000 1.000000 0.000000
vn 0.000000 1.000000 0.000000
vn 0.000000 0.978908 0.204300
vn 0.000000 0.978908 0.204300
vn 0.000000 0.985211 0.171347
vn 0.000000 0.985211 0.171347
vn 0.000000 0.978908 0.204300
vn 0.000000 0.985211 0.171347
vn -0.297659 0.906159 0.300459
vn -0.198374 0.959454 0.200240
vn -0.297659 0.906159 0.300459
vn 0.000000 1.000000 0.000000
vn 0.000000 1.000000 0.000000
vn 0.000000 1.000000 0.000000
vn 0.000000 1.000000 0.000000
vn 0.000000 1.000000 0.000000
vn 0.000000 1.000000 0.000000
vn 0.359451 0.861155 -0.359453
vn 0.000000 0.922834 -0.385198
vn 0.000000 1.000000 0.000000
vn 0.000000 0.978908 0.204300
vn 0.000000 1.000000 0.000000
vn 0.000000 1.000000 0.000000
vn 0.000000 0.978908 0.204300
vn 0.000000 0.978908 0.204300
vn 0.000000 0.999868 0.016262
vn 0.000000 0.985211 0.171347
vn 0.000000 0.978908 0.204300
vn -1.000000 0.000000 0.000000
vn -1.000000 0.000000 0.000000
vn -1.000000 0.000000 0.000000
vn -1.000000 0.000000 0.000000
vn 0.000000 1.000000 0.000000
vn 0.000000 1.000000 0.000000
vn 0.000000 1.000000 0.000000
vn 0.000000 1.000000 0.000000
s off
f 3/1/1 24/37/2 25/38/3 7/15/4
f 9/9/5 22/35/6 4/4/7
f 9/5/8 27/53/9 28/67/10 22/39/11
f 13/18/12 1/2/13 6/7/14
f 14/20/15 13/19/16 6/16/17 10/10/18
f 14/21/19 10/14/20 5/6/21 11/11/22 15/22/23
f 16/24/24 15/76/25 11/12/26 8/8/27
f 17/26/28 16/74/29 8/13/30 2/3/31
f 14/28/32 18/27/33 12/17/34 13/52/35
f 20/42/36 19/43/37 26/50/38 18/44/39 14/45/40
f 20/31/41 14/21/42 21/32/43 29/57/44
f 22/34/45 21/33/46 30/66/47 31/63/48
f 23/36/49 22/35/50 31/64/51 32/65/52
f 25/71/53 24/30/54 19/46/55 20/47/56
f 28/68/57 29/56/58 21/49/59 22/48/60
f 21/32/61 14/21/62 15/22/63 30/58/64
f 4/4/65 22/35/66 23/36/67
f 13/18/68 12/51/69 1/2/70
f 28/54/71 27/70/72 7/40/73 25/41/74
f 25/29/75 20/72/76 29/69/77 28/55/78
f 31/60/79 30/59/80 15/23/81 16/75/82
f 32/62/83 31/61/84 16/25/85 17/73/86
