# This file uses centimeters as units for non-parametric coordinates.

v 0.000001 8.416789 0.000000
v 5.000002 8.416789 0.000000
v 5.000002 0.206069 0.000000
v 0.000000 0.206069 0.000000
v 5.000002 8.416789 0.054874
v 0.000002 8.416789 0.054874
v 5.000002 8.828928 0.054874
v 0.000000 8.828928 0.054874
v 5.000002 -0.270663 0.054874
v 0.000002 -0.270663 0.054874
v 5.000002 0.206069 0.054874
v 0.000000 0.206069 0.054874
v 2.446408 3.122838 0.000000
v 2.446408 3.122838 0.086355
v 2.446408 3.669636 0.000000
v 2.446408 3.669636 0.086355
v 2.543752 3.669636 0.000000
v 2.543752 3.669636 0.086355
v 2.543752 3.122838 0.000000
v 2.543752 3.122838 0.086355
v 0.850451 3.122838 0.000000
v 0.850451 3.122838 0.086355
v 0.850451 3.669636 0.000000
v 0.850451 3.669636 0.086355
v 0.947795 3.669636 0.000000
v 0.947795 3.669636 0.086355
v 0.947795 3.122838 0.000000
v 0.947795 3.122838 0.086355
v 0.000001 3.064819 0.000000
v 0.000001 3.064819 0.098370
v 0.000001 3.163188 0.000000
v 0.000001 3.163188 0.098370
v 2.838592 3.163188 0.000000
v 2.838592 3.163188 0.098370
v 2.724352 3.064819 0.000000
v 2.724352 3.064819 0.098370
v 0.000001 3.640970 0.000000
v 0.000001 3.640970 0.098370
v 0.000001 3.739339 0.000000
v 0.000001 3.739339 0.098370
v 2.838592 3.739339 0.000000
v 2.838592 3.739339 0.098370
v 2.724352 3.640970 0.000000
v 2.724352 3.640970 0.098370
v 2.838592 2.556479 0.000000
v 2.838592 2.556479 0.098370
v 2.724352 2.556479 0.098370
v 2.724352 2.556479 0.000000
v 2.724352 3.163188 0.098370
v 2.724352 3.163188 0.000000
v 2.508525 1.692678 -0.000004
v 2.508525 1.692678 0.236429
v 2.508525 2.692678 -0.000004
v 2.508525 2.692678 0.236429
v 3.271189 2.692678 -0.000004
v 3.271189 2.692678 0.236429
v 3.271189 1.692678 -0.000004
v 3.271189 1.692678 0.236429
v 3.006971 2.455987 0.236429
v 2.578238 2.455987 0.236429
v 3.006971 2.627953 0.236429
v 2.578238 2.627953 0.236429
v 2.746502 2.627953 0.236429
v 2.746502 2.455987 0.236429
v 2.836298 2.627953 0.236429
v 2.836298 2.455987 0.236429
v 2.836298 2.627953 0.294058
v 2.836298 2.455987 0.294058
v 3.006971 2.455987 0.294058
v 3.006971 2.627953 0.294058
v 2.746502 2.455987 0.294058
v 2.578238 2.455987 0.294058
v 2.746502 2.627953 0.294058
v 2.578238 2.627953 0.294058
v 2.508525 2.192678 0.236429
v 3.271189 2.192678 0.236429
v 2.638064 1.777604 0.236429
v 2.638064 2.107753 0.236429
v 3.141651 1.777604 0.236429
v 3.141651 2.107753 0.236429
v 2.638064 1.777604 0.130135
v 2.638064 2.107753 0.130135
v 3.141651 1.777604 0.130135
v 3.141651 2.107753 0.130135
vt 0.335640 0.061272
vt 0.335640 0.061272
vt 0.335640 0.061272
vt 0.335640 0.061272
vt 0.269526 0.061178
vt 0.269526 0.061178
vt 0.269526 0.061178
vt 0.269526 0.061178
vt 0.233200 0.061450
vt 0.233200 0.061450
vt 0.233200 0.061450
vt 0.233200 0.061450
vt 0.269526 0.061178
vt 0.269526 0.061178
vt 0.269526 0.061178
vt 0.269526 0.061178
vt 0.233200 0.061363
vt 0.233200 0.061363
vt 0.233200 0.061363
vt 0.233200 0.061363
vt 0.141952 0.475915
vt 0.141952 0.475915
vt 0.141952 0.475915
vt 0.141952 0.475915
vt 0.202714 0.475915
vt 0.202714 0.475915
vt 0.202714 0.475915
vt 0.202714 0.475915
vt 0.141952 0.475915
vt 0.141952 0.475915
vt 0.141952 0.475915
vt 0.141952 0.475915
vt 0.107650 0.475915
vt 0.107650 0.475915
vt 0.107650 0.475915
vt 0.107650 0.475915
vt 0.168413 0.475915
vt 0.168413 0.475915
vt 0.168413 0.475915
vt 0.168413 0.475915
vt 0.141952 0.475915
vt 0.141952 0.475915
vt 0.141952 0.475915
vt 0.141952 0.475915
vt 0.202714 0.475915
vt 0.202714 0.475915
vt 0.202714 0.475915
vt 0.202714 0.475915
vt 0.141952 0.475915
vt 0.141952 0.475915
vt 0.141952 0.475915
vt 0.141952 0.475915
vt 0.107650 0.475915
vt 0.107650 0.475915
vt 0.107650 0.475915
vt 0.107650 0.475915
vt 0.168413 0.475915
vt 0.168413 0.475915
vt 0.168413 0.475915
vt 0.168413 0.475915
vt 0.204319 0.475915
vt 0.204319 0.475915
vt 0.204319 0.475915
vt 0.204319 0.475915
vt 0.265081 0.475915
vt 0.265081 0.475915
vt 0.265081 0.475915
vt 0.265081 0.475915
vt 0.204319 0.475915
vt 0.204319 0.475915
vt 0.204319 0.475915
vt 0.204319 0.475915
vt 0.170017 0.475915
vt 0.170017 0.475915
vt 0.170017 0.475915
vt 0.170017 0.475915
vt 0.230780 0.475915
vt 0.230780 0.475915
vt 0.230780 0.475915
vt 0.230780 0.475915
vt 0.204319 0.475915
vt 0.204319 0.475915
vt 0.204319 0.475915
vt 0.204319 0.475915
vt 0.265081 0.475915
vt 0.265081 0.475915
vt 0.265081 0.475915
vt 0.265081 0.475915
vt 0.204319 0.475915
vt 0.204319 0.475915
vt 0.204319 0.475915
vt 0.204319 0.475915
vt 0.170017 0.475915
vt 0.170017 0.475915
vt 0.170017 0.475915
vt 0.170017 0.475915
vt 0.230780 0.475915
vt 0.230780 0.475915
vt 0.230780 0.475915
vt 0.230780 0.475915
vt 0.204319 0.475915
vt 0.204319 0.475915
vt 0.240926 0.475915
vt 0.240926 0.475915
vt 0.240926 0.475915
vt 0.240926 0.475915
vt 0.204319 0.475915
vt 0.204319 0.475915
vt 0.204319 0.475915
vt 0.204319 0.475915
vt 0.240926 0.475915
vt 0.240926 0.475915
vt 0.240926 0.475915
vt 0.240926 0.475915
vt 0.204319 0.475915
vt 0.204319 0.475915
vt 0.301937 0.475915
vt 0.301937 0.475915
vt 0.301937 0.475915
vt 0.301937 0.475915
vt 0.301937 0.475915
vt 0.362700 0.475915
vt 0.362700 0.475915
vt 0.362700 0.475915
vt 0.362700 0.475915
vt 0.301937 0.475915
vt 0.301937 0.475915
vt 0.301937 0.475915
vt 0.301937 0.475915
vt 0.301937 0.475915
vt 0.267636 0.475915
vt 0.267636 0.475915
vt 0.267636 0.475915
vt 0.267636 0.475915
vt 0.267387 0.181704
vt 0.267387 0.181704
vt 0.267387 0.181704
vt 0.267387 0.181704
vt 0.328398 0.475915
vt 0.328398 0.475915
vt 0.328398 0.475915
vt 0.328398 0.475915
vt 0.328398 0.475915
vt 0.328398 0.475915
vt 0.328398 0.475915
vt 0.328398 0.475915
vt 0.328398 0.475915
vt 0.328398 0.475915
vt 0.328398 0.475915
vt 0.328398 0.475915
vt 0.267387 0.355841
vt 0.267387 0.355841
vt 0.267387 0.355841
vt 0.267387 0.355841
vt 0.203664 0.181704
vt 0.203664 0.181704
vt 0.203664 0.181704
vt 0.203664 0.181704
vt 0.203664 0.181704
vt 0.203664 0.181704
vt 0.203664 0.181704
vt 0.203664 0.181704
vt 0.203664 0.181704
vt 0.203664 0.181704
vt 0.203664 0.181704
vt 0.203664 0.181704
vt 0.302638 0.181704
vt 0.302638 0.181704
vt 0.302638 0.181704
vt 0.302638 0.181704
vt 0.203664 0.355841
vt 0.203664 0.355841
vt 0.203664 0.355841
vt 0.203664 0.355841
vt 0.203664 0.355841
vt 0.203664 0.355841
vt 0.203664 0.355841
vt 0.203664 0.355841
vt 0.302638 0.355841
vt 0.302638 0.355841
vt 0.302638 0.355841
vt 0.302638 0.355841
vt 0.203664 0.355841
vt 0.203664 0.355841
vt 0.203664 0.355841
vt 0.203664 0.355841
vt 0.296373 0.475915
vt 0.296373 0.475915
vt 0.296373 0.475915
vt 0.296373 0.475915
vt 0.328398 0.475915
vt 0.328398 0.475915
vt 0.328398 0.475915
vt 0.328398 0.475915
vt 0.328398 0.475915
vt 0.328398 0.475915
vt 0.259344 0.477916
vt 0.259344 0.477916
vt 0.259344 0.477916
vt 0.259344 0.477916
vt 0.357421 0.475915
vt 0.357421 0.475915
vt 0.357421 0.475915
vt 0.357421 0.475915
vt 0.259344 0.477916
vt 0.259344 0.477916
vt 0.259344 0.477916
vt 0.259344 0.477916
vt 0.259344 0.477916
vt 0.259344 0.477916
vt 0.259344 0.477916
vt 0.259344 0.477916
vn 0.000000 0.000000 1.000000
vn -0.000000 0.000000 1.000000
vn 0.000000 0.000000 1.000000
vn -0.000000 0.000000 1.000000
vn 0.000000 0.000000 1.000000
vn 0.000000 0.000000 1.000000
vn 0.000000 0.000000 1.000000
vn 0.000000 0.000000 1.000000
vn 0.000000 -1.000000 0.000000
vn 0.000000 -1.000000 0.000000
vn 0.000000 -1.000000 0.000000
vn 0.000000 -1.000000 0.000000
vn 0.000000 0.000000 1.000000
vn 0.000000 0.000000 1.000000
vn 0.000000 0.000000 1.000000
vn 0.000000 0.000000 1.000000
vn 0.000000 1.000000 -0.000000
vn 0.000000 1.000000 -0.000000
vn 0.000000 1.000000 -0.000000
vn 0.000000 1.000000 -0.000000
vn -1.000000 0.000000 0.000000
vn -1.000000 0.000000 0.000000
vn -1.000000 0.000000 0.000000
vn -1.000000 0.000000 0.000000
vn 0.000000 1.000000 0.000000
vn 0.000000 1.000000 0.000000
vn 0.000000 1.000000 0.000000
vn 0.000000 1.000000 0.000000
vn 1.000000 0.000000 0.000000
vn 1.000000 0.000000 0.000000
vn 1.000000 0.000000 0.000000
vn 1.000000 0.000000 0.000000
vn 0.000000 -1.000000 0.000000
vn 0.000000 -1.000000 0.000000
vn 0.000000 -1.000000 0.000000
vn 0.000000 -1.000000 0.000000
vn 0.000000 0.000000 1.000000
vn 0.000000 0.000000 1.000000
vn 0.000000 0.000000 1.000000
vn 0.000000 0.000000 1.000000
vn -1.000000 0.000000 0.000000
vn -1.000000 0.000000 0.000000
vn -1.000000 0.000000 0.000000
vn -1.000000 0.000000 0.000000
vn 0.000000 1.000000 0.000000
vn 0.000000 1.000000 0.000000
vn 0.000000 1.000000 0.000000
vn 0.000000 1.000000 0.000000
vn 1.000000 0.000000 0.000000
vn 1.000000 0.000000 0.000000
vn 1.000000 0.000000 0.000000
vn 1.000000 0.000000 0.000000
vn 0.000000 -1.000000 0.000000
vn 0.000000 -1.000000 0.000000
vn 0.000000 -1.000000 0.000000
vn 0.000000 -1.000000 0.000000
vn 0.000000 0.000000 1.000000
vn 0.000000 0.000000 1.000000
vn 0.000000 0.000000 1.000000
vn 0.000000 0.000000 1.000000
vn -1.000000 0.000000 0.000000
vn -1.000000 0.000000 0.000000
vn -1.000000 0.000000 0.000000
vn -1.000000 0.000000 0.000000
vn 0.000000 1.000000 0.000000
vn 0.000000 1.000000 0.000000
vn 0.000000 1.000000 0.000000
vn 0.000000 1.000000 0.000000
vn 0.000000 -1.000000 0.000000
vn 0.000000 -1.000000 0.000000
vn 0.000000 -1.000000 0.000000
vn 0.000000 -1.000000 0.000000
vn 0.000000 -1.000000 0.000000
vn 0.000000 -1.000000 0.000000
vn 0.000000 -1.000000 0.000000
vn 0.000000 -1.000000 0.000000
vn 0.000000 0.000000 1.000000
vn 0.000000 0.000000 1.000000
vn 0.000000 0.000000 1.000000
vn 0.000000 0.000000 1.000000
vn -1.000000 0.000000 0.000000
vn -1.000000 0.000000 0.000000
vn -1.000000 0.000000 0.000000
vn -1.000000 0.000000 0.000000
vn 0.000000 1.000000 0.000000
vn 0.000000 1.000000 0.000000
vn 0.000000 1.000000 0.000000
vn 0.000000 1.000000 0.000000
vn 0.000000 -1.000000 0.000000
vn 0.000000 -1.000000 0.000000
vn 0.000000 -1.000000 0.000000
vn 0.000000 -1.000000 0.000000
vn 0.000000 -1.000000 0.000000
vn 0.000000 -1.000000 0.000000
vn 0.000000 -1.000000 0.000000
vn 0.000000 -1.000000 0.000000
vn 0.000000 0.000000 1.000000
vn 0.000000 0.000000 1.000000
vn 0.000000 0.000000 1.000000
vn 0.000000 0.000000 1.000000
vn 1.000000 0.000000 0.000000
vn 1.000000 0.000000 0.000000
vn 1.000000 0.000000 0.000000
vn 1.000000 0.000000 0.000000
vn 0.000000 0.000000 1.000000
vn 0.000000 0.000000 1.000000
vn 0.000000 0.000000 1.000000
vn 0.000000 0.000000 1.000000
vn -1.000000 0.000000 0.000000
vn -1.000000 0.000000 0.000000
vn -1.000000 0.000000 0.000000
vn -1.000000 0.000000 0.000000
vn 0.000000 0.000000 -1.000000
vn 0.000000 0.000000 -1.000000
vn 0.000000 0.000000 -1.000000
vn 0.000000 0.000000 -1.000000
vn 1.000000 0.000000 0.000000
vn 1.000000 0.000000 0.000000
vn 1.000000 0.000000 0.000000
vn 1.000000 0.000000 0.000000
vn 0.000000 0.000000 1.000000
vn 0.000000 0.000000 1.000000
vn 0.000000 0.000000 1.000000
vn 0.000000 0.000000 1.000000
vn -1.000000 0.000000 0.000000
vn -1.000000 0.000000 0.000000
vn -1.000000 0.000000 0.000000
vn -1.000000 0.000000 0.000000
vn 0.000000 0.000000 -1.000000
vn 0.000000 0.000000 -1.000000
vn 0.000000 0.000000 -1.000000
vn 0.000000 0.000000 -1.000000
vn -1.000000 0.000000 0.000000
vn -1.000000 0.000000 0.000000
vn -1.000000 0.000000 0.000000
vn -1.000000 0.000000 0.000000
vn -1.000000 0.000000 0.000000
vn 0.000000 1.000000 0.000000
vn 0.000000 1.000000 0.000000
vn 0.000000 1.000000 0.000000
vn 0.000000 1.000000 0.000000
vn 1.000000 0.000000 0.000000
vn 1.000000 0.000000 0.000000
vn 1.000000 0.000000 0.000000
vn 1.000000 0.000000 0.000000
vn 1.000000 0.000000 0.000000
vn 0.000000 -1.000000 0.000000
vn 0.000000 -1.000000 0.000000
vn 0.000000 -1.000000 0.000000
vn 0.000000 -1.000000 0.000000
vn 0.000000 0.000000 1.000000
vn 0.000000 0.000000 1.000000
vn 0.000000 0.000000 1.000000
vn 0.000000 0.000000 1.000000
vn 0.000000 0.000000 1.000000
vn 0.000000 0.000000 1.000000
vn 0.000000 0.000000 1.000000
vn 0.000000 0.000000 1.000000
vn 0.000000 0.000000 1.000000
vn 0.000000 0.000000 1.000000
vn 0.000000 0.000000 1.000000
vn 0.000000 0.000000 1.000000
vn 0.000000 0.000000 1.000000
vn 0.000000 0.000000 1.000000
vn 0.000000 0.000000 1.000000
vn 0.000000 0.000000 1.000000
vn 0.000000 0.000000 1.000000
vn 0.000000 0.000000 1.000000
vn 0.000000 0.000000 1.000000
vn 0.000000 0.000000 1.000000
vn 0.000000 0.000000 1.000000
vn 0.000000 0.000000 1.000000
vn 0.000000 0.000000 1.000000
vn 0.000000 0.000000 1.000000
vn 0.000000 0.000000 1.000000
vn 0.000000 0.000000 1.000000
vn 0.000000 0.000000 1.000000
vn 0.000000 0.000000 1.000000
vn 0.000000 0.000000 1.000000
vn 0.000000 0.000000 1.000000
vn 0.000000 0.000000 1.000000
vn 0.000000 0.000000 1.000000
vn -1.000000 0.000000 0.000000
vn -1.000000 0.000000 0.000000
vn -1.000000 0.000000 0.000000
vn -1.000000 0.000000 0.000000
vn 0.000000 -1.000000 0.000000
vn 0.000000 -1.000000 0.000000
vn 0.000000 -1.000000 0.000000
vn 0.000000 -1.000000 0.000000
vn 1.000000 0.000000 0.000000
vn 1.000000 0.000000 0.000000
vn 1.000000 0.000000 0.000000
vn 1.000000 0.000000 0.000000
vn 0.000000 1.000000 0.000000
vn 0.000000 1.000000 0.000000
vn 0.000000 1.000000 0.000000
vn 0.000000 1.000000 0.000000
vn 0.000000 -1.000000 0.000000
vn 0.000000 -1.000000 0.000000
vn 0.000000 -1.000000 0.000000
vn 0.000000 -1.000000 0.000000
vn 1.000000 0.000000 0.000000
vn 1.000000 0.000000 0.000000
vn 1.000000 0.000000 0.000000
vn 1.000000 0.000000 0.000000
vn 0.000000 1.000000 0.000000
vn 0.000000 1.000000 0.000000
vn 0.000000 1.000000 0.000000
vn 0.000000 1.000000 0.000000
vn -1.000000 0.000000 0.000000
vn -1.000000 0.000000 0.000000
vn -1.000000 0.000000 0.000000
vn -1.000000 0.000000 0.000000
vn 0.000000 0.000000 1.000000
vn 0.000000 0.000000 1.000000
vn 0.000000 0.000000 1.000000
vn 0.000000 0.000000 1.000000
vn 0.000000 0.000000 1.000000
vn 0.000000 0.000000 1.000000
vn 0.000000 0.000000 1.000000
vn 0.000000 0.000000 1.000000
vn 0.000000 0.000000 1.000000
vn 0.000000 0.000000 1.000000
vn 0.000000 0.000000 1.000000
vn 0.000000 0.000000 1.000000
vn 0.000000 0.000000 1.000000
vn 0.000000 0.000000 1.000000
vn 0.000000 0.000000 1.000000
vn 0.000000 0.000000 1.000000
vn 0.000000 0.000000 1.000000
vn 0.000000 0.000000 1.000000
vn 0.000000 0.000000 1.000000
vn 0.000000 0.000000 1.000000
vn 1.000000 0.000000 0.000000
vn 1.000000 0.000000 0.000000
vn 1.000000 0.000000 0.000000
vn 1.000000 0.000000 0.000000
vn 0.000000 1.000000 0.000000
vn 0.000000 1.000000 0.000000
vn 0.000000 1.000000 0.000000
vn 0.000000 1.000000 0.000000
vn -1.000000 0.000000 0.000000
vn -1.000000 0.000000 0.000000
vn -1.000000 0.000000 0.000000
vn -1.000000 0.000000 0.000000
vn 0.000000 -1.000000 0.000000
vn 0.000000 -1.000000 0.000000
vn 0.000000 -1.000000 0.000000
vn 0.000000 -1.000000 0.000000
s off
f 4/4/1 3/3/2 2/2/3 1/1/4
f 6/5/5 5/6/6 7/7/7 8/8/8
f 5/9/9 6/10/10 1/11/11 2/12/12
f 10/13/13 9/14/14 11/15/15 12/16/16
f 12/17/17 11/18/18 3/19/19 4/20/20
f 13/21/21 14/22/22 16/23/23 15/24/24
f 15/25/25 16/26/26 18/27/27 17/28/28
f 17/29/29 18/30/30 20/31/31 19/32/32
f 19/33/33 20/34/34 14/35/35 13/36/36
f 14/37/37 20/38/38 18/39/39 16/40/40
f 21/41/41 22/42/42 24/43/43 23/44/44
f 23/45/45 24/46/46 26/47/47 25/48/48
f 25/49/49 26/50/50 28/51/51 27/52/52
f 27/53/53 28/54/54 22/55/55 21/56/56
f 22/57/57 28/58/58 26/59/59 24/60/60
f 29/61/61 30/62/62 32/63/63 31/64/64
f 31/65/65 32/66/66 34/67/67 33/68/68
f 45/69/69 46/70/70 47/71/71 48/72/72
f 35/73/73 36/74/74 30/75/75 29/76/76
f 30/77/77 36/78/78 34/79/79 32/80/80
f 37/81/81 38/82/82 40/83/83 39/84/84
f 39/85/85 40/86/86 42/87/87 41/88/88
f 33/89/89 34/90/90 49/91/91 50/92/92
f 43/93/93 44/94/94 38/95/95 37/96/96
f 38/97/97 44/98/98 42/99/99 40/100/100
f 33/101/101 34/102/102 46/70/103 45/69/104
f 34/103/105 36/104/106 47/105/107 46/106/108
f 36/107/109 35/108/110 48/72/111 47/71/112
f 35/108/113 33/101/114 45/69/115 48/72/116
f 41/109/117 42/110/118 34/90/119 33/89/120
f 42/111/121 44/112/122 49/113/123 34/114/124
f 44/115/125 43/116/126 50/92/127 49/91/128
f 43/116/129 41/109/130 33/89/131 50/92/132
f 51/117/133 52/118/134 75/119/135 54/120/136 53/121/137
f 53/122/138 54/123/139 56/124/140 55/125/141
f 55/126/142 56/127/143 76/128/144 58/129/145 57/130/146
f 57/131/147 58/132/148 52/133/149 51/134/150
f 67/135/151 68/136/152 69/137/153 70/138/154
f 75/139/155 76/140/156 59/141/157 66/142/158 64/143/159 60/144/160
f 76/140/161 56/145/162 61/146/163 59/141/164
f 56/145/165 54/147/166 62/148/167 63/149/168 65/150/169 61/146/170
f 54/147/171 75/139/172 60/144/173 62/148/174
f 72/151/175 71/152/176 73/153/177 74/154/178
f 63/149/179 64/143/180 66/142/181 65/150/182
f 65/155/183 66/156/184 68/157/185 67/158/186
f 66/159/187 59/160/188 69/161/189 68/162/190
f 59/163/191 61/164/192 70/165/193 69/166/194
f 61/167/195 65/168/196 67/169/197 70/170/198
f 60/171/199 64/172/200 71/173/201 72/174/202
f 64/175/203 63/176/204 73/177/205 71/178/206
f 63/179/207 62/180/208 74/181/209 73/182/210
f 62/183/211 60/184/212 72/185/213 74/186/214
f 82/187/215 81/188/216 83/189/217 84/190/218
f 75/139/219 52/191/220 77/192/221 78/193/222
f 52/191/223 58/194/224 79/195/225 77/192/226
f 58/194/227 76/140/228 80/196/229 79/195/230
f 76/140/231 75/139/232 78/193/233 80/196/234
f 78/197/235 77/198/236 81/199/237 82/200/238
f 77/201/239 79/202/240 83/203/241 81/204/242
f 79/205/243 80/206/244 84/207/245 83/208/246
f 80/209/247 78/210/248 82/211/249 84/212/250
