# This file uses centimeters as units for non-parametric coordinates.

v -0.000008 3.750000 5.000000
v 5.000000 3.750000 5.000000
v -0.000008 3.750000 0.000000
v 5.000000 3.750000 0.000000
v 2.499996 4.414464 0.000000
v 2.499996 4.414464 5.000000
v -0.000008 4.414464 2.500000
v 2.499996 4.414464 2.500000
v 5.000000 4.414464 2.500000
v -0.000008 4.414464 1.250000
v 1.249994 4.414464 0.000000
v -0.000008 4.414464 3.750000
v 1.249994 4.414464 5.000000
v 5.000000 4.414464 1.250000
v 3.749998 4.414464 0.000000
v 5.000000 4.414464 3.750000
v 3.749998 4.414464 5.000000
vt 0.268949 0.063308
vt 0.268949 0.063308
vt 0.268949 0.063308
vt 0.268949 0.063308
vt 0.234369 0.063308
vt 0.234369 0.063308
vt 0.234369 0.063308
vt 0.234369 0.063308
vt 0.234369 0.063308
vt 0.234369 0.063308
vt 0.268949 0.063308
vt 0.268949 0.063308
vt 0.234369 0.063308
vt 0.268949 0.063308
vt 0.234369 0.063308
vt 0.234369 0.063308
vt 0.268949 0.063308
vt 0.268949 0.063308
vt 0.234369 0.063308
vt 0.234369 0.063308
vt 0.268949 0.063308
vt 0.234369 0.063308
vt 0.268949 0.063308
vt 0.268949 0.063308
vt 0.234369 0.063308
vn 0.027383 -0.999250 -0.027382
vn 0.027382 -0.999250 -0.027382
vn 0.424898 -0.799326 -0.424899
vn 0.000000 -1.000000 0.000000
vn 0.000000 -1.000000 0.000000
vn 0.000000 -1.000000 0.000000
vn -0.027383 -0.999250 -0.027383
vn -0.027382 -0.999250 -0.027383
vn 0.027383 -0.999250 0.027383
vn 0.027383 -0.999250 0.027383
vn 0.000000 -1.000000 0.000000
vn 0.000000 -1.000000 0.000000
vn -0.027383 -0.999250 0.027383
vn -0.027383 -0.999250 0.027383
vn -0.424898 -0.799326 0.424899
vn 0.424898 -0.799326 0.424899
vn -0.424898 -0.799326 -0.424899
s 1
f 12/12/1 13/23/2 1/2/3
f 6/6/4 8/8/5 9/9/6 16/16/7 17/19/8
f 10/10/9 11/25/10 5/5/11 8/8/5 7/7/12
f 14/14/13 15/21/14 4/4/15
f 3/1/16 11/11/10 10/24/9
f 7/7/12 8/8/5 6/6/4 13/13/2 12/22/1
f 9/9/6 8/8/5 5/5/11 15/15/14 14/20/13
f 17/17/8 16/18/7 2/3/17
