# This file uses centimeters as units for non-parametric coordinates.

v 5.000000 0.000000 0.000000
v 5.000000 -0.326099 -5.000000
v 0.000000 0.000000 0.000000
v 0.000000 -0.326099 -5.000000
v 5.000000 0.000000 -1.562500
v 0.000000 0.000000 -1.562500
v 5.000000 -0.326099 -1.562500
v 0.000000 -0.326099 -1.562500
v 2.457457 0.000000 0.000000
v 2.457457 0.000000 -1.562500
v 2.457457 -0.326099 -1.562500
v 2.457457 -0.326099 -5.000000
v 2.542543 0.000000 0.000000
v 2.542543 0.000000 -1.562500
v 2.542543 -0.326099 -1.562500
v 2.542543 -0.326099 -5.000000
vt 0.262615 0.062211
vt 0.262615 0.062211
vt 0.262615 0.062211
vt 0.231822 0.062211
vt 0.203001 0.289748
vt 0.231822 0.062211
vt 0.197879 0.288566
vt 0.203001 0.289748
vt 0.197879 0.288566
vt 0.231822 0.062211
vt 0.262615 0.062211
vt 0.231822 0.062211
vt 0.262615 0.062211
vt 0.236757 0.062211
vt 0.231822 0.062211
vt 0.205964 0.062211
vt 0.197879 0.288566
vt 0.203001 0.289748
vt 0.236757 0.062211
vt 0.262615 0.062211
vt 0.231822 0.062211
vt 0.231822 0.062211
vt 0.197879 0.288566
vt 0.203001 0.289748
vt 0.236757 0.062211
vt 0.205964 0.062211
vt 0.205964 0.062211
vt 0.262615 0.062211
vt 0.231822 0.062211
vt 0.262615 0.062211
vt 0.205964 0.062211
vt 0.236757 0.062211
vn 0.000000 1.000000 0.000000
vn 0.000000 1.000000 0.000000
vn 0.000000 1.000000 0.000000
vn 0.000000 1.000000 0.000000
vn 0.000000 0.000000 -1.000000
vn 0.000000 0.000000 -1.000000
vn 0.000000 0.000000 -1.000000
vn 0.000000 0.000000 -1.000000
vn -0.000000 1.000000 -0.000000
vn -0.000000 1.000000 -0.000000
vn -0.000000 1.000000 -0.000000
vn -0.000000 1.000000 -0.000000
vn 0.000000 1.000000 0.000000
vn 0.000000 1.000000 0.000000
vn 0.000000 1.000000 0.000000
vn 0.000000 1.000000 0.000000
vn 0.000000 0.000000 -1.000000
vn 0.000000 0.000000 -1.000000
vn 0.000000 0.000000 -1.000000
vn 0.000000 0.000000 -1.000000
vn 0.000000 1.000000 -0.000000
vn -0.000000 1.000000 -0.000000
vn -0.000000 1.000000 -0.000000
vn 0.000000 1.000000 -0.000000
vn 0.000000 1.000000 0.000000
vn 0.000000 1.000000 0.000000
vn 0.000000 1.000000 0.000000
vn 0.000000 1.000000 0.000000
vn 0.000000 0.000000 -1.000000
vn 0.000000 0.000000 -1.000000
vn 0.000000 0.000000 -1.000000
vn 0.000000 0.000000 -1.000000
vn 0.000000 1.000000 -0.000000
vn 0.000000 1.000000 -0.000000
vn 0.000000 1.000000 -0.000000
vn 0.000000 1.000000 -0.000000
s off
f 3/1/1 9/13/2 10/30/3 6/11/4
f 6/4/5 10/15/6 11/29/7 8/10/8
f 4/8/9 8/7/10 11/17/11 12/18/12
f 10/14/13 9/32/14 13/19/15 14/25/16
f 11/16/17 10/31/18 14/26/19 15/27/20
f 16/24/21 12/18/22 11/17/23 15/23/24
f 14/20/25 13/28/26 1/2/27 5/3/28
f 15/22/29 14/21/30 5/12/31 7/6/32
f 16/24/33 15/23/34 7/9/35 2/5/36
