# This file uses centimeters as units for non-parametric coordinates.

v 4.681342 0.000000 -0.066961
v 4.820572 0.000000 -0.066961
v 4.681342 3.938918 -0.066961
v 4.820572 3.938918 -0.066961
v 4.681342 3.938918 -0.206192
v 4.820572 3.938918 -0.206192
v 4.681342 0.000000 -0.206192
v 4.820572 0.000000 -0.206192
v 4.181342 0.000000 -0.066961
v 4.320572 0.000000 -0.066961
v 4.181342 4.200027 -0.066961
v 4.320572 4.200027 -0.066961
v 4.181342 4.200027 -0.206192
v 4.320572 4.200027 -0.206192
v 4.181342 0.000000 -0.206192
v 4.320572 0.000000 -0.206192
v 3.681342 0.000000 -0.066961
v 3.820573 0.000000 -0.066961
v 3.681342 4.414464 -0.066961
v 3.820573 4.414464 -0.066961
v 3.681342 4.414464 -0.206192
v 3.820573 4.414464 -0.206192
v 3.681342 0.000000 -0.206192
v 3.820573 0.000000 -0.206192
v 3.181342 -0.326099 -0.066961
v 3.320573 -0.326099 -0.066961
v 3.181342 4.414464 -0.066961
v 3.320573 4.414464 -0.066961
v 3.181342 4.414464 -0.206192
v 3.320573 4.414464 -0.206192
v 3.181342 -0.326099 -0.206192
v 3.320573 -0.326099 -0.206192
v 2.681342 -0.326099 -0.066961
v 2.820572 -0.326099 -0.066961
v 2.681342 4.414464 -0.066961
v 2.820572 4.414464 -0.066961
v 2.681342 4.414464 -0.206192
v 2.820572 4.414464 -0.206192
v 2.681342 -0.326099 -0.206192
v 2.820572 -0.326099 -0.206192
v 2.182907 -0.326099 -0.066961
v 2.322137 -0.326099 -0.066961
v 2.182907 4.414464 -0.066961
v 2.322137 4.414464 -0.066961
v 2.182907 4.414464 -0.206192
v 2.322137 4.414464 -0.206192
v 2.182907 -0.326099 -0.206192
v 2.322137 -0.326099 -0.206192
v 1.682907 -0.326099 -0.066961
v 1.822137 -0.326099 -0.066961
v 1.682907 4.414464 -0.066961
v 1.822137 4.414464 -0.066961
v 1.682907 4.414464 -0.206192
v 1.822137 4.414464 -0.206192
v 1.682907 -0.326099 -0.206192
v 1.822137 -0.326099 -0.206192
v 1.182907 0.000000 -0.066961
v 1.322137 0.000000 -0.066961
v 1.182907 4.414464 -0.066961
v 1.322137 4.414464 -0.066961
v 1.182907 4.414464 -0.206192
v 1.322137 4.414464 -0.206192
v 1.182907 0.000000 -0.206192
v 1.322137 0.000000 -0.206192
v 0.682907 0.000000 -0.066961
v 0.822137 0.000000 -0.066961
v 0.682907 4.200027 -0.066961
v 0.822137 4.200027 -0.066961
v 0.682907 4.200027 -0.206192
v 0.822137 4.200027 -0.206192
v 0.682907 0.000000 -0.206192
v 0.822137 0.000000 -0.206192
v 0.182907 0.000000 -0.066961
v 0.322137 0.000000 -0.066961
v 0.182907 3.938918 -0.066961
v 0.322137 3.938918 -0.066961
v 0.182907 3.938918 -0.206192
v 0.322137 3.938918 -0.206192
v 0.182907 0.000000 -0.206192
v 0.322137 0.000000 -0.206192
v 2.182907 2.904462 -0.066961
v 2.322137 2.904462 -0.066961
v 2.322137 2.904462 -0.206192
v 2.182907 2.904462 -0.206192
v 2.681342 3.235813 -0.066961
v 2.820572 3.235813 -0.066961
v 2.820572 3.235813 -0.206192
v 2.681342 3.235813 -0.206192
v 3.181342 2.639194 -0.066961
v 3.320572 2.639194 -0.066961
v 3.320572 2.639194 -0.206192
v 3.181342 2.639194 -0.206192
v 1.408590 1.495439 -0.206192
v 1.547821 1.495439 -0.206192
v 1.547821 1.495439 -0.066961
v 1.408590 1.495439 -0.066961
v 1.682906 2.582110 -0.066961
v 1.822137 2.582110 -0.066961
v 1.822137 2.582110 -0.206192
v 1.682906 2.582110 -0.206192
v 1.682906 0.544263 -0.206192
v 1.822137 0.544263 -0.206192
v 1.822137 0.544263 -0.066961
v 1.682906 0.544263 -0.066961
v 3.181342 -0.196370 -0.066961
v 3.320573 -0.196370 -0.066961
v 3.320573 -0.196370 -0.206192
v 3.181342 -0.196370 -0.206192
v 2.681342 0.108341 -0.066961
v 2.820572 0.108341 -0.066961
v 2.820572 0.108341 -0.206192
v 2.681342 0.108341 -0.206192
v 2.182907 -0.111350 -0.066961
v 2.322137 -0.111350 -0.066961
v 2.322137 -0.111350 -0.206192
v 2.182907 -0.111350 -0.206192
v 3.681342 1.611409 -0.206192
v 3.681342 1.611409 -0.066961
v 3.820573 1.611409 -0.066961
v 3.820573 1.611409 -0.206192
v 3.869853 0.903794 -0.206192
v 3.869853 0.903794 -0.066961
v 4.009085 0.903794 -0.066961
v 4.009085 0.903794 -0.206192
v 3.681342 0.418892 -0.206192
v 3.681342 0.418892 -0.066961
v 3.820573 0.418892 -0.066961
v 3.820573 0.418892 -0.206192
vt 0.210603 0.084143
vt 0.240377 0.084143
vt 0.210603 0.084143
vt 0.240377 0.084143
vt 0.240377 0.084143
vt 0.210603 0.084143
vt 0.210603 0.084143
vt 0.210603 0.084143
vt 0.210603 0.084143
vt 0.240377 0.084143
vt 0.240377 0.084143
vt 0.210603 0.084143
vt 0.240377 0.084143
vt 0.240377 0.084143
vt 0.240377 0.084143
vt 0.210603 0.084143
vt 0.240377 0.084143
vt 0.240377 0.084143
vt 0.240377 0.084143
vt 0.240377 0.084143
vt 0.240377 0.084143
vt 0.240377 0.084143
vt 0.240377 0.084143
vt 0.240377 0.084143
vt 0.210603 0.084143
vt 0.210603 0.084143
vt 0.210603 0.084143
vt 0.210603 0.084143
vt 0.210603 0.084143
vt 0.210603 0.084143
vt 0.210603 0.084143
vt 0.210603 0.084143
vt 0.240377 0.084143
vt 0.240377 0.084143
vt 0.240377 0.084143
vt 0.240377 0.084143
vt 0.240377 0.084143
vt 0.240377 0.084143
vt 0.240377 0.084143
vt 0.240377 0.084143
vt 0.210603 0.084143
vt 0.210603 0.084143
vt 0.210603 0.084143
vt 0.210603 0.084143
vt 0.210603 0.084143
vt 0.210603 0.084143
vt 0.210603 0.084143
vt 0.210603 0.084143
vt 0.240377 0.084143
vt 0.240377 0.084143
vt 0.240377 0.084143
vt 0.240377 0.084143
vt 0.240377 0.084143
vt 0.240377 0.084143
vt 0.240377 0.084143
vt 0.240377 0.084143
vt 0.210603 0.084143
vt 0.210603 0.084143
vt 0.210603 0.084143
vt 0.210603 0.084143
vt 0.210603 0.084143
vt 0.210603 0.084143
vt 0.210603 0.084143
vt 0.210603 0.084143
vt 0.240377 0.084143
vt 0.240377 0.084143
vt 0.240377 0.084143
vt 0.240377 0.084143
vt 0.240377 0.084143
vt 0.240377 0.084143
vt 0.240377 0.084143
vt 0.240377 0.084143
vt 0.210603 0.084143
vt 0.210603 0.084143
vt 0.210603 0.084143
vt 0.210603 0.084143
vt 0.210603 0.084143
vt 0.210603 0.084143
vt 0.210603 0.084143
vt 0.210603 0.084143
vt 0.240377 0.084143
vt 0.240377 0.084143
vt 0.240377 0.084143
vt 0.240377 0.084143
vt 0.240377 0.084143
vt 0.240377 0.084143
vt 0.240377 0.084143
vt 0.240377 0.084143
vt 0.210603 0.084143
vt 0.210603 0.084143
vt 0.210603 0.084143
vt 0.210603 0.084143
vt 0.210603 0.084143
vt 0.210603 0.084143
vt 0.210603 0.084143
vt 0.210603 0.084143
vt 0.240377 0.084143
vt 0.240377 0.084143
vt 0.240377 0.084143
vt 0.240377 0.084143
vt 0.240377 0.084143
vt 0.240377 0.084143
vt 0.240377 0.084143
vt 0.240377 0.084143
vt 0.210603 0.084143
vt 0.210603 0.084143
vt 0.210603 0.084143
vt 0.210603 0.084143
vt 0.210603 0.084143
vt 0.210603 0.084143
vt 0.210603 0.084143
vt 0.210603 0.084143
vt 0.240377 0.084143
vt 0.240377 0.084143
vt 0.240377 0.084143
vt 0.240377 0.084143
vt 0.240377 0.084143
vt 0.240377 0.084143
vt 0.240377 0.084143
vt 0.240377 0.084143
vt 0.210603 0.084143
vt 0.210603 0.084143
vt 0.210603 0.084143
vt 0.210603 0.084143
vt 0.210603 0.084143
vt 0.210603 0.084143
vt 0.210603 0.084143
vt 0.210603 0.084143
vt 0.240377 0.084143
vt 0.240377 0.084143
vt 0.240377 0.084143
vt 0.240377 0.084143
vt 0.240377 0.084143
vt 0.240377 0.084143
vt 0.240377 0.084143
vt 0.240377 0.084143
vt 0.210603 0.084143
vt 0.210603 0.084143
vt 0.210603 0.084143
vt 0.210603 0.084143
vt 0.210603 0.084143
vt 0.210603 0.084143
vt 0.210603 0.084143
vt 0.210603 0.084143
vt 0.240377 0.084143
vt 0.240377 0.084143
vt 0.240377 0.084143
vt 0.240377 0.084143
vt 0.240377 0.084143
vt 0.240377 0.084143
vt 0.240377 0.084143
vt 0.240377 0.084143
vt 0.210603 0.084143
vt 0.210603 0.084143
vt 0.210603 0.084143
vt 0.210603 0.084143
vt 0.210603 0.084143
vt 0.210603 0.084143
vt 0.210603 0.084143
vt 0.210603 0.084143
vt 0.210603 0.084143
vt 0.240377 0.084143
vt 0.240377 0.084143
vt 0.210603 0.084143
vt 0.240377 0.084143
vt 0.210603 0.084143
vt 0.210603 0.084143
vt 0.240377 0.084143
vt 0.210603 0.084143
vt 0.240377 0.084143
vt 0.240377 0.084143
vt 0.210603 0.084143
vt 0.240377 0.084143
vt 0.210603 0.084143
vt 0.210603 0.084143
vt 0.240377 0.084143
vt 0.210603 0.084143
vt 0.240377 0.084143
vt 0.240377 0.084143
vt 0.210603 0.084143
vt 0.240377 0.084143
vt 0.210603 0.084143
vt 0.210603 0.084143
vt 0.240377 0.084143
vt 0.210603 0.084143
vt 0.240377 0.084143
vt 0.240377 0.084143
vt 0.210603 0.084143
vt 0.240377 0.084143
vt 0.210603 0.084143
vt 0.210603 0.084143
vt 0.240377 0.084143
vt 0.210603 0.084143
vt 0.240377 0.084143
vt 0.240377 0.084143
vt 0.210603 0.084143
vt 0.240377 0.084143
vt 0.210603 0.084143
vt 0.210603 0.084143
vt 0.240377 0.084143
vt 0.210603 0.084143
vt 0.240377 0.084143
vt 0.240377 0.084143
vt 0.210603 0.084143
vt 0.240377 0.084143
vt 0.210603 0.084143
vt 0.210603 0.084143
vt 0.240377 0.084143
vt 0.210603 0.084143
vt 0.240377 0.084143
vt 0.240377 0.084143
vt 0.210603 0.084143
vt 0.240377 0.084143
vt 0.210603 0.084143
vt 0.210603 0.084143
vt 0.240377 0.084143
vt 0.210603 0.084143
vt 0.240377 0.084143
vt 0.240377 0.084143
vt 0.210603 0.084143
vt 0.240377 0.084143
vt 0.210603 0.084143
vt 0.210603 0.084143
vt 0.240377 0.084143
vt 0.210603 0.084143
vt 0.240377 0.084143
vt 0.240377 0.084143
vt 0.210603 0.084143
vt 0.240377 0.084143
vt 0.210603 0.084143
vt 0.210603 0.084143
vt 0.240377 0.084143
vt 0.210603 0.084143
vt 0.240377 0.084143
vt 0.210603 0.084143
vt 0.240377 0.084143
vt 0.240377 0.084143
vt 0.210603 0.084143
vt 0.240377 0.084143
vt 0.210603 0.084143
vt 0.210603 0.084143
vt 0.240377 0.084143
vt 0.210603 0.084143
vt 0.240377 0.084143
vt 0.240377 0.084143
vt 0.210603 0.084143
vt 0.240377 0.084143
vt 0.210603 0.084143
vt 0.210603 0.084143
vt 0.240377 0.084143
vt 0.210603 0.084143
vt 0.240377 0.084143
vt 0.240377 0.084143
vt 0.210603 0.084143
vt 0.240377 0.084143
vt 0.210603 0.084143
vt 0.295485 0.085845
vt 0.295485 0.085845
vt 0.295485 0.085845
vt 0.295485 0.085845
vt 0.295485 0.085845
vt 0.295485 0.085845
vt 0.295485 0.085845
vt 0.295485 0.085845
vt 0.295485 0.085845
vt 0.295485 0.085845
vt 0.295485 0.085845
vt 0.295485 0.085845
vt 0.295485 0.085845
vt 0.295485 0.085845
vt 0.295485 0.085845
vt 0.295485 0.085845
vt 0.295485 0.085845
vt 0.295485 0.085845
vt 0.295485 0.085845
vt 0.295485 0.085845
vt 0.295485 0.085845
vt 0.295485 0.085845
vt 0.295485 0.085845
vt 0.295485 0.085845
vn 0.000000 0.000000 1.000000
vn 0.000000 0.000000 1.000000
vn 0.000000 0.000000 1.000000
vn 0.000000 0.000000 1.000000
vn 0.000000 0.000000 -1.000000
vn 0.000000 0.000000 -1.000000
vn 0.000000 0.000000 -1.000000
vn 0.000000 0.000000 -1.000000
vn 1.000000 0.000000 0.000000
vn 1.000000 0.000000 0.000000
vn 1.000000 0.000000 0.000000
vn 1.000000 0.000000 0.000000
vn -1.000000 0.000000 0.000000
vn -1.000000 0.000000 0.000000
vn -1.000000 0.000000 0.000000
vn -1.000000 0.000000 0.000000
vn 0.000000 0.000000 1.000000
vn 0.000000 0.000000 1.000000
vn 0.000000 0.000000 1.000000
vn 0.000000 0.000000 1.000000
vn 0.000000 0.000000 -1.000000
vn 0.000000 0.000000 -1.000000
vn 0.000000 0.000000 -1.000000
vn 0.000000 0.000000 -1.000000
vn 1.000000 0.000000 0.000000
vn 1.000000 0.000000 0.000000
vn 1.000000 0.000000 0.000000
vn 1.000000 0.000000 0.000000
vn -1.000000 0.000000 0.000000
vn -1.000000 0.000000 0.000000
vn -1.000000 0.000000 0.000000
vn -1.000000 0.000000 0.000000
vn 0.000000 0.000000 1.000000
vn 0.000000 0.000000 1.000000
vn 0.000000 0.000000 1.000000
vn 0.000000 0.000000 1.000000
vn 0.000000 0.000000 -1.000000
vn 0.000000 0.000000 -1.000000
vn 0.000000 0.000000 -1.000000
vn 0.000000 0.000000 -1.000000
vn 0.998562 0.053620 0.000000
vn 0.998562 0.053620 0.000000
vn 1.000000 0.000000 0.000000
vn 1.000000 0.000000 0.000000
vn -0.998562 -0.053620 0.000000
vn -0.998562 -0.053620 0.000000
vn -1.000000 0.000000 0.000000
vn -1.000000 0.000000 0.000000
vn 0.000000 0.000000 1.000000
vn 0.000000 0.000000 1.000000
vn 0.000000 0.000000 1.000000
vn 0.000000 0.000000 1.000000
vn 0.000000 0.000000 -1.000000
vn 0.000000 0.000000 -1.000000
vn 0.000000 0.000000 -1.000000
vn 0.000000 0.000000 -1.000000
vn 1.000000 -0.000000 0.000000
vn 1.000000 -0.000000 0.000000
vn 1.000000 -0.000000 0.000000
vn 1.000000 -0.000000 0.000000
vn -1.000000 0.000000 0.000000
vn -1.000000 0.000000 0.000000
vn -1.000000 0.000000 0.000000
vn -1.000000 0.000000 0.000000
vn 0.000000 0.000000 1.000000
vn 0.000000 0.000000 1.000000
vn 0.000000 0.000000 1.000000
vn 0.000000 0.000000 1.000000
vn 0.000000 0.000000 -1.000000
vn 0.000000 0.000000 -1.000000
vn 0.000000 0.000000 -1.000000
vn 0.000000 0.000000 -1.000000
vn 1.000000 0.000000 0.000000
vn 1.000000 0.000000 0.000000
vn 1.000000 0.000000 0.000000
vn 1.000000 0.000000 0.000000
vn -1.000000 0.000000 0.000000
vn -1.000000 0.000000 0.000000
vn -1.000000 0.000000 0.000000
vn -1.000000 0.000000 0.000000
vn 0.000000 0.000000 1.000000
vn 0.000000 0.000000 1.000000
vn 0.000000 0.000000 1.000000
vn 0.000000 0.000000 1.000000
vn 0.000000 0.000000 -1.000000
vn 0.000000 0.000000 -1.000000
vn 0.000000 0.000000 -1.000000
vn 0.000000 0.000000 -1.000000
vn 1.000000 0.000000 0.000000
vn 1.000000 0.000000 0.000000
vn 1.000000 0.000000 0.000000
vn 1.000000 0.000000 0.000000
vn -1.000000 0.000000 0.000000
vn -1.000000 0.000000 0.000000
vn -1.000000 0.000000 0.000000
vn -1.000000 0.000000 0.000000
vn 0.000000 -0.000000 1.000000
vn 0.000000 -0.000000 1.000000
vn 0.000000 -0.000000 1.000000
vn 0.000000 -0.000000 1.000000
vn 0.000000 0.000000 -1.000000
vn 0.000000 0.000000 -1.000000
vn 0.000000 0.000000 -1.000000
vn 0.000000 0.000000 -1.000000
vn 1.000000 -0.000000 0.000000
vn 1.000000 -0.000000 0.000000
vn 0.988850 0.148917 -0.000000
vn 0.988850 0.148917 -0.000000
vn -1.000000 -0.000000 0.000000
vn -1.000000 -0.000000 0.000000
vn -0.988850 -0.148917 0.000000
vn -0.988850 -0.148917 0.000000
vn 0.000000 0.000000 1.000000
vn 0.000000 0.000000 1.000000
vn 0.000000 0.000000 1.000000
vn 0.000000 0.000000 1.000000
vn 0.000000 0.000000 -1.000000
vn 0.000000 0.000000 -1.000000
vn 0.000000 0.000000 -1.000000
vn 0.000000 0.000000 -1.000000
vn 1.000000 0.000000 0.000000
vn 1.000000 0.000000 0.000000
vn 1.000000 0.000000 0.000000
vn 1.000000 0.000000 0.000000
vn -1.000000 0.000000 0.000000
vn -1.000000 0.000000 0.000000
vn -1.000000 0.000000 0.000000
vn -1.000000 0.000000 0.000000
vn 0.000000 0.000000 1.000000
vn 0.000000 0.000000 1.000000
vn 0.000000 0.000000 1.000000
vn 0.000000 0.000000 1.000000
vn 0.000000 0.000000 -1.000000
vn 0.000000 0.000000 -1.000000
vn 0.000000 0.000000 -1.000000
vn 0.000000 0.000000 -1.000000
vn 1.000000 0.000000 0.000000
vn 1.000000 0.000000 0.000000
vn 1.000000 0.000000 0.000000
vn 1.000000 0.000000 0.000000
vn -1.000000 0.000000 0.000000
vn -1.000000 0.000000 0.000000
vn -1.000000 0.000000 0.000000
vn -1.000000 0.000000 0.000000
vn 0.000000 0.000000 1.000000
vn 0.000000 0.000000 1.000000
vn 0.000000 0.000000 1.000000
vn 0.000000 0.000000 1.000000
vn 0.000000 0.000000 -1.000000
vn 0.000000 0.000000 -1.000000
vn 0.000000 0.000000 -1.000000
vn 0.000000 0.000000 -1.000000
vn 1.000000 0.000000 0.000000
vn 1.000000 0.000000 0.000000
vn 1.000000 0.000000 0.000000
vn 1.000000 0.000000 0.000000
vn -1.000000 0.000000 0.000000
vn -1.000000 0.000000 0.000000
vn -1.000000 0.000000 0.000000
vn -1.000000 0.000000 0.000000
vn 0.000000 0.000000 -1.000000
vn 0.000000 0.000000 -1.000000
vn 0.000000 0.000000 -1.000000
vn 0.000000 0.000000 -1.000000
vn 0.995613 -0.093563 0.000000
vn 0.995613 -0.093563 0.000000
vn 1.000000 0.000000 0.000000
vn 1.000000 0.000000 0.000000
vn 0.000000 0.000000 1.000000
vn 0.000000 0.000000 1.000000
vn 0.000000 0.000000 1.000000
vn 0.000000 0.000000 1.000000
vn -0.995613 0.093563 0.000000
vn -0.995613 0.093563 0.000000
vn -1.000000 0.000000 0.000000
vn -1.000000 0.000000 0.000000
vn 0.000000 0.000000 1.000000
vn 0.000000 0.000000 1.000000
vn 0.000000 0.000000 1.000000
vn 0.000000 0.000000 1.000000
vn 1.000000 -0.000000 -0.000000
vn 1.000000 0.000000 -0.000000
vn 0.995613 -0.093563 0.000000
vn 0.995613 -0.093563 0.000000
vn 0.000000 0.000000 -1.000000
vn 0.000000 0.000000 -1.000000
vn 0.000000 0.000000 -1.000000
vn 0.000000 0.000000 -1.000000
vn -1.000000 -0.000000 0.000000
vn -1.000000 0.000000 0.000000
vn -0.995613 0.093563 0.000000
vn -0.995613 0.093563 0.000000
vn 0.000000 0.000000 -1.000000
vn 0.000000 0.000000 -1.000000
vn 0.000000 0.000000 -1.000000
vn 0.000000 0.000000 -1.000000
vn 0.988850 0.148917 -0.000000
vn 0.988850 0.148917 -0.000000
vn 1.000000 0.000000 -0.000000
vn 1.000000 -0.000000 -0.000000
vn 0.000000 -0.000000 1.000000
vn 0.000000 -0.000000 1.000000
vn 0.000000 0.000000 1.000000
vn 0.000000 0.000000 1.000000
vn -0.988850 -0.148917 0.000000
vn -0.988850 -0.148917 0.000000
vn -1.000000 0.000000 0.000000
vn -1.000000 -0.000000 0.000000
vn 0.000000 0.000000 1.000000
vn 0.000000 0.000000 1.000000
vn 0.000000 0.000000 1.000000
vn 0.000000 0.000000 1.000000
vn 1.000000 0.000000 0.000000
vn 1.000000 0.000000 0.000000
vn 1.000000 0.000000 0.000000
vn 1.000000 0.000000 0.000000
vn 0.000000 0.000000 -1.000000
vn 0.000000 0.000000 -1.000000
vn 0.000000 0.000000 -1.000000
vn 0.000000 0.000000 -1.000000
vn -1.000000 0.000000 0.000000
vn -1.000000 0.000000 0.000000
vn -1.000000 0.000000 0.000000
vn -1.000000 0.000000 0.000000
vn 0.000000 0.000000 1.000000
vn 0.000000 0.000000 1.000000
vn 0.000000 0.000000 1.000000
vn 0.000000 0.000000 1.000000
vn 1.000000 0.000000 0.000000
vn 1.000000 0.000000 0.000000
vn 1.000000 0.000000 0.000000
vn 1.000000 0.000000 0.000000
vn 0.000000 0.000000 -1.000000
vn 0.000000 0.000000 -1.000000
vn 0.000000 0.000000 -1.000000
vn 0.000000 0.000000 -1.000000
vn -1.000000 0.000000 0.000000
vn -1.000000 0.000000 0.000000
vn -1.000000 0.000000 0.000000
vn -1.000000 0.000000 0.000000
vn 0.000000 0.000000 1.000000
vn 0.000000 0.000000 1.000000
vn 0.000000 0.000000 1.000000
vn 0.000000 0.000000 1.000000
vn 1.000000 0.000000 0.000000
vn 1.000000 0.000000 0.000000
vn 1.000000 0.000000 0.000000
vn 1.000000 0.000000 0.000000
vn 0.000000 0.000000 -1.000000
vn 0.000000 0.000000 -1.000000
vn 0.000000 0.000000 -1.000000
vn 0.000000 0.000000 -1.000000
vn -1.000000 0.000000 0.000000
vn -1.000000 0.000000 0.000000
vn -1.000000 0.000000 0.000000
vn -1.000000 0.000000 0.000000
vn -1.000000 0.000000 0.000000
vn -1.000000 0.000000 0.000000
vn -0.998562 -0.053620 0.000000
vn -0.998562 -0.053620 0.000000
vn 0.000000 0.000000 1.000000
vn 0.000000 0.000000 1.000000
vn 0.000000 0.000000 1.000000
vn 0.000000 0.000000 1.000000
vn 1.000000 -0.000000 0.000000
vn 1.000000 -0.000000 0.000000
vn 0.998562 0.053620 0.000000
vn 0.998562 0.053620 0.000000
vn 0.000000 0.000000 -1.000000
vn 0.000000 0.000000 -1.000000
vn 0.000000 0.000000 -1.000000
vn 0.000000 0.000000 -1.000000
vn -0.978932 0.204184 0.000000
vn -0.978933 0.204184 0.000000
vn -1.000000 0.000000 0.000000
vn -1.000000 0.000000 0.000000
vn 0.000000 0.000000 1.000000
vn 0.000000 0.000000 1.000000
vn 0.000000 0.000000 1.000000
vn 0.000000 0.000000 1.000000
vn 0.978932 -0.204184 0.000001
vn 0.978932 -0.204185 0.000001
vn 1.000000 -0.000000 0.000000
vn 1.000000 -0.000000 0.000000
vn 0.000000 0.000000 -1.000000
vn 0.000000 0.000000 -1.000000
vn 0.000000 0.000000 -1.000000
vn 0.000000 0.000000 -1.000000
vn -1.000000 0.000000 -0.000000
vn -1.000000 0.000000 -0.000000
vn -0.978933 0.204184 0.000000
vn -0.978932 0.204184 0.000000
vn 0.000000 0.000000 1.000000
vn 0.000000 0.000000 1.000000
vn 0.000000 0.000000 1.000000
vn 0.000000 0.000000 1.000000
vn 1.000000 0.000000 0.000001
vn 1.000000 0.000000 0.000001
vn 0.978932 -0.204185 0.000001
vn 0.978932 -0.204184 0.000001
vn 0.000000 0.000000 -1.000000
vn 0.000000 0.000000 -1.000000
vn 0.000000 0.000000 -1.000000
vn 0.000000 0.000000 -1.000000
vn 0.000000 -1.000000 0.000000
vn 0.000000 -1.000000 0.000000
vn 0.000000 -1.000000 0.000000
vn 0.000000 -1.000000 0.000000
vn 0.000000 -1.000000 0.000000
vn 0.000000 -1.000000 0.000000
vn 0.000000 -1.000000 0.000000
vn 0.000000 -1.000000 0.000000
vn 0.000000 -1.000000 0.000000
vn 0.000000 -1.000000 0.000000
vn 0.000000 -1.000000 0.000000
vn 0.000000 -1.000000 0.000000
vn 0.000000 1.000000 -0.000003
vn 0.000000 1.000000 -0.000003
vn 0.000000 1.000000 -0.000003
vn 0.000000 1.000000 -0.000003
vn 0.000000 1.000000 -0.000001
vn 0.000000 1.000000 -0.000001
vn 0.000000 1.000000 -0.000001
vn 0.000000 1.000000 -0.000001
vn 0.000000 1.000000 -0.000002
vn 0.000000 1.000000 -0.000002
vn 0.000000 1.000000 -0.000002
vn 0.000000 1.000000 -0.000002
s off
f 1/14/1 2/2/2 4/13/3 3/15/4
f 5/4/5 6/10/6 8/5/7 7/11/8
f 2/12/9 8/6/10 6/7/11 4/3/12
f 7/8/13 1/1/14 3/16/15 5/9/16
f 9/17/17 10/18/18 12/19/19 11/20/20
f 13/21/21 14/22/22 16/23/23 15/24/24
f 10/25/25 16/26/26 14/27/27 12/28/28
f 15/29/29 9/30/30 11/31/31 13/32/32
f 118/236/33 119/237/34 20/35/35 19/36/36
f 21/37/37 22/38/38 120/239/39 117/234/40
f 119/238/41 120/240/42 22/43/43 20/44/44
f 117/233/45 118/235/46 19/47/47 21/48/48
f 89/178/49 90/179/50 28/51/51 27/52/52
f 29/53/53 30/54/54 91/181/55 92/184/56
f 90/180/57 91/182/58 30/59/59 28/60/60
f 92/183/61 89/177/62 27/63/63 29/64/64
f 85/170/65 86/171/66 36/67/67 35/68/68
f 37/69/69 38/70/70 87/173/71 88/176/72
f 86/172/73 87/174/74 38/75/75 36/76/76
f 88/175/77 85/169/78 35/79/79 37/80/80
f 81/162/81 82/163/82 44/83/83 43/84/84
f 45/85/85 46/86/86 83/165/87 84/168/88
f 82/164/89 83/166/90 46/91/91 44/92/92
f 84/167/93 81/161/94 43/95/95 45/96/96
f 49/97/97 50/98/98 103/205/99 104/208/100
f 101/202/101 102/203/102 56/103/103 55/104/104
f 50/105/105 56/106/106 102/204/107 103/206/108
f 55/109/109 49/110/110 104/207/111 101/201/112
f 57/113/113 58/114/114 60/115/115 59/116/116
f 61/117/117 62/118/118 64/119/119 63/120/120
f 58/121/121 64/122/122 62/123/123 60/124/124
f 63/125/125 57/126/126 59/127/127 61/128/128
f 65/129/129 66/130/130 68/131/131 67/132/132
f 69/133/133 70/134/134 72/135/135 71/136/136
f 66/137/137 72/138/138 70/139/139 68/140/140
f 71/141/141 65/142/142 67/143/143 69/144/144
f 73/145/145 74/146/146 76/147/147 75/148/148
f 77/149/149 78/150/150 80/151/151 79/152/152
f 74/153/153 80/154/154 78/155/155 76/156/156
f 79/157/157 73/158/158 75/159/159 77/160/160
f 53/101/161 54/102/162 99/197/163 100/200/164
f 98/196/165 99/198/166 54/107/167 52/108/168
f 97/194/169 98/195/170 52/99/171 51/100/172
f 100/199/173 97/193/174 51/111/175 53/112/176
f 96/192/177 95/189/178 98/195/179 97/194/180
f 95/190/181 94/188/182 99/198/183 98/196/184
f 100/200/185 99/197/186 94/187/187 93/186/188
f 93/185/189 96/191/190 97/193/191 100/199/192
f 93/186/193 94/187/194 102/203/195 101/202/196
f 103/206/197 102/204/198 94/188/199 95/190/200
f 104/208/201 103/205/202 95/189/203 96/192/204
f 101/201/205 104/207/206 96/191/207 93/185/208
f 25/49/209 26/50/210 106/211/211 105/210/212
f 26/57/213 32/58/214 107/214/215 106/212/216
f 108/216/217 107/213/218 32/55/219 31/56/220
f 31/61/221 25/62/222 105/209/223 108/215/224
f 33/65/225 34/66/226 110/219/227 109/218/228
f 34/73/229 40/74/230 111/222/231 110/220/232
f 112/224/233 111/221/234 40/71/235 39/72/236
f 39/77/237 33/78/238 109/217/239 112/223/240
f 41/81/241 42/82/242 114/227/243 113/226/244
f 42/89/245 48/90/246 115/230/247 114/228/248
f 116/232/249 115/229/250 48/87/251 47/88/252
f 47/93/253 41/94/254 113/225/255 116/231/256
f 121/241/257 122/243/258 118/235/259 117/233/260
f 122/244/261 123/245/262 119/237/263 118/236/264
f 123/246/265 124/248/266 120/240/267 119/238/268
f 117/234/269 120/239/270 124/247/271 121/242/272
f 125/249/273 126/251/274 122/243/275 121/241/276
f 126/252/277 127/253/278 123/245/279 122/244/280
f 127/254/281 128/256/282 124/248/283 123/246/284
f 121/242/285 124/247/286 128/255/287 125/250/288
f 23/45/289 17/46/290 126/251/291 125/249/292
f 17/33/293 18/34/294 127/253/295 126/252/296
f 18/41/297 24/42/298 128/256/299 127/254/300
f 125/250/301 128/255/302 24/39/303 23/40/304
f 82/257/305 81/258/306 84/259/307 83/260/308
f 86/261/309 85/262/310 88/263/311 87/264/312
f 90/265/313 89/266/314 92/267/315 91/268/316
f 106/269/317 107/270/318 108/271/319 105/272/320
f 110/273/321 111/274/322 112/275/323 109/276/324
f 114/277/325 115/278/326 116/279/327 113/280/328
