# This file uses centimeters as units for non-parametric coordinates.

v 0.275346 0.553060 0.468853
v 0.275347 0.553060 0.217155
v 0.179737 0.553060 0.468853
v 0.179737 0.553060 0.217155
v 0.179737 -0.012465 0.468853
v 0.275346 -0.012465 0.468853
v 0.179737 0.458029 0.373822
v 0.179737 0.458029 0.217155
v 0.179737 -0.012465 0.373822
v 0.275346 -0.012465 0.373822
v 0.275347 0.458029 0.217155
v 0.275346 0.458029 0.373822
v 0.470408 0.553060 0.468853
v 0.470409 0.553060 0.217155
v 0.374800 0.553060 0.468853
v 0.374800 0.553060 0.217155
v 0.374800 -0.012465 0.468853
v 0.470408 -0.012465 0.468853
v 0.374800 0.458029 0.373822
v 0.374800 0.458029 0.217155
v 0.374800 -0.012465 0.373822
v 0.470408 -0.012465 0.373822
v 0.470409 0.458029 0.217155
v 0.470408 0.458029 0.373822
v 2.358043 0.609796 0.039050
v 2.358043 0.609796 0.248706
v 2.358043 0.400139 0.248706
v 2.358043 0.400139 0.039050
v 2.358043 0.338861 0.000000
v 2.358043 0.671074 0.000000
v 2.641965 0.671074 0.000000
v 2.641965 0.338861 0.000000
v 2.358043 0.671074 0.309984
v 2.641965 0.671074 0.309984
v 2.358043 0.338861 0.309984
v 2.641965 0.338861 0.309984
v 0.036858 0.609796 0.039050
v 0.036858 0.609796 0.248706
v 0.036858 0.400139 0.248706
v 0.036858 0.400139 0.039050
v 0.000000 0.376165 0.272680
v 0.000000 0.376165 0.000000
v 0.000000 0.633770 0.272680
v 0.000000 0.633770 0.000000
v 0.036858 0.633770 0.000000
v 0.036858 0.633770 0.272680
v 0.036858 0.376165 0.272680
v 0.036858 0.376165 0.000000
v 2.417833 0.671074 0.109340
v 2.417833 0.671074 0.233165
v 2.582175 0.671074 0.233165
v 2.582175 0.671074 0.109340
v 2.417833 1.024077 0.109340
v 2.417833 1.160067 0.233165
v 2.582175 1.160067 0.233165
v 2.582175 1.024077 0.109340
v 2.417833 1.024077 0.024456
v 2.417833 1.160067 0.024456
v 2.582175 1.160067 0.024456
v 2.582175 1.024077 0.024456
v 2.389726 1.000820 0.024456
v 2.389726 1.183324 0.024456
v 2.389726 1.183324 0.000000
v 2.389726 1.000820 -0.000000
v 2.610281 1.183324 0.024456
v 2.610281 1.183324 0.000000
v 2.610281 1.000820 0.024456
v 2.610281 1.000820 -0.000000
vt 0.201286 0.047505
vt 0.233170 0.047500
vt 0.171076 0.047485
vt 0.171076 0.047485
vt 0.171076 0.047485
vt 0.201286 0.047505
vt 0.201286 0.047505
vt 0.233170 0.047500
vt 0.171076 0.047485
vt 0.233170 0.047500
vt 0.233170 0.047500
vt 0.201286 0.047505
vt 0.139745 0.047485
vt 0.200018 0.047504
vt 0.139745 0.047485
vt 0.200018 0.047504
vt 0.171076 0.047485
vt 0.139745 0.047485
vt 0.171076 0.047485
vt 0.200018 0.047504
vt 0.171076 0.047485
vt 0.139745 0.047485
vt 0.171076 0.047485
vt 0.200018 0.047504
vt 0.171076 0.047485
vt 0.171076 0.047485
vt 0.171076 0.047485
vt 0.171076 0.047485
vt 0.171076 0.047485
vt 0.171076 0.047485
vt 0.171076 0.047485
vt 0.171076 0.047485
vt 0.233170 0.047500
vt 0.233170 0.047500
vt 0.233170 0.047500
vt 0.233170 0.047500
vt 0.201286 0.047505
vt 0.201286 0.047505
vt 0.201286 0.047505
vt 0.201286 0.047505
vt 0.171076 0.047485
vt 0.171076 0.047485
vt 0.171076 0.047485
vt 0.171076 0.047485
vt 0.171076 0.047485
vt 0.171076 0.047485
vt 0.171076 0.047485
vt 0.171076 0.047485
vt 0.171076 0.047485
vt 0.171076 0.047485
vt 0.171076 0.047485
vt 0.171076 0.047485
vt 0.171076 0.047485
vt 0.171076 0.047485
vt 0.171076 0.047485
vt 0.171076 0.047485
vt 0.200018 0.047504
vt 0.200018 0.047504
vt 0.200018 0.047504
vt 0.200018 0.047504
vt 0.139745 0.047485
vt 0.139745 0.047485
vt 0.139745 0.047485
vt 0.139745 0.047485
vt 0.233597 0.047258
vt 0.231434 0.047121
vt 0.231434 0.047121
vt 0.231434 0.047121
vt 0.203122 0.047258
vt 0.203122 0.047258
vt 0.203122 0.047258
vt 0.203122 0.047258
vt 0.137612 0.047121
vt 0.137612 0.047121
vt 0.137612 0.047121
vt 0.137612 0.047121
vt 0.171203 0.047121
vt 0.171203 0.047121
vt 0.171203 0.047121
vt 0.171203 0.047121
vt 0.231434 0.047121
vt 0.231434 0.047121
vt 0.231434 0.047121
vt 0.231434 0.047121
vt 0.200977 0.047121
vt 0.200977 0.047121
vt 0.200977 0.047121
vt 0.200977 0.047121
vt 0.137612 0.047121
vt 0.137612 0.047121
vt 0.137612 0.047121
vt 0.137612 0.047121
vt 0.200977 0.047121
vt 0.200977 0.047121
vt 0.170260 0.047331
vt 0.167105 0.047258
vt 0.167105 0.047258
vt 0.170260 0.047331
vt 0.170260 0.047331
vt 0.170260 0.047331
vt 0.170260 0.047331
vt 0.170260 0.047331
vt 0.170260 0.047331
vt 0.170260 0.047331
vt 0.170260 0.047331
vt 0.170260 0.047331
vt 0.170260 0.047331
vt 0.167105 0.047258
vt 0.170260 0.047331
vt 0.170260 0.047331
vt 0.170260 0.047331
vt 0.167105 0.047258
vt 0.170260 0.047331
vt 0.170260 0.047331
vt 0.231434 0.047121
vt 0.139778 0.046962
vt 0.200977 0.047121
vt 0.139778 0.046962
vt 0.137612 0.047121
vt 0.139778 0.046962
vt 0.200977 0.047121
vt 0.139778 0.046962
vt 0.231434 0.047121
vt 0.139778 0.046962
vt 0.200977 0.047121
vt 0.200977 0.047121
vt 0.137612 0.047121
vt 0.137612 0.047121
vt 0.139778 0.046962
vt 0.139778 0.046962
vt 0.139778 0.046962
vt 0.231434 0.047121
vt 0.139778 0.046962
vt 0.139778 0.046962
vt 0.137612 0.047121
vt 0.139778 0.046962
vt 0.139778 0.046962
vt 0.139778 0.046962
vt 0.200977 0.047121
vt 0.139778 0.046962
vt 0.231434 0.047121
vt 0.139778 0.046962
vt 0.200977 0.047121
vt 0.139778 0.046962
vt 0.167105 0.047258
vt 0.203122 0.047258
vt 0.167105 0.047258
vt 0.203122 0.047258
vt 0.167105 0.047258
vt 0.233597 0.047258
vt 0.167105 0.047258
vt 0.143701 0.047121
vt 0.167105 0.047258
vt 0.233597 0.047258
vt 0.167105 0.047258
vt 0.143701 0.047121
vt 0.143701 0.047121
vt 0.167105 0.047258
vt 0.233597 0.047258
vt 0.233597 0.047258
vt 0.167105 0.047258
vt 0.167105 0.047258
vt 0.143701 0.047121
vt 0.203122 0.047258
vt 0.203122 0.047258
vt 0.203122 0.047258
vt 0.203122 0.047258
vt 0.203122 0.047258
vt 0.203122 0.047258
vt 0.203122 0.047258
vt 0.203122 0.047258
vt 0.233597 0.047258
vt 0.167105 0.047258
vt 0.167105 0.047258
vt 0.233597 0.047258
vt 0.167105 0.047258
vt 0.233597 0.047258
vt 0.233597 0.047258
vt 0.203122 0.047258
vt 0.233597 0.047258
vt 0.233597 0.047258
vt 0.233597 0.047258
vt 0.231434 0.047121
vt 0.167105 0.047258
vt 0.143701 0.047121
vt 0.167105 0.047258
vt 0.167105 0.047258
vt 0.167105 0.047258
vt 0.143701 0.047121
vt 0.167105 0.047258
vt 0.167105 0.047258
vt 0.167105 0.047258
vt 0.203122 0.047258
vt 0.167105 0.047258
vt 0.167105 0.047258
vt 0.167105 0.047258
vt 0.203122 0.047258
vt 0.231434 0.047121
vt 0.167105 0.047258
vt 0.231434 0.047121
vt 0.167105 0.047258
vt 0.231434 0.047121
vt 0.203122 0.047258
vt 0.203122 0.047258
vt 0.203122 0.047258
vt 0.203122 0.047258
vt 0.203122 0.047258
vt 0.203122 0.047258
vt 0.203122 0.047258
vt 0.203122 0.047258
vt 0.203122 0.047258
vt 0.203122 0.047258
vt 0.143701 0.047121
vt 0.203122 0.047258
vt 0.231434 0.047121
vt 0.143701 0.047121
vn 0.000000 1.000000 0.000000
vn 0.000000 1.000000 0.000000
vn 0.000000 1.000000 0.000000
vn 0.000000 1.000000 0.000000
vn 0.000000 0.000000 1.000000
vn 0.000000 0.000000 1.000000
vn 0.000000 0.000000 1.000000
vn 0.000000 0.000000 1.000000
vn -1.000000 0.000000 0.000000
vn -1.000000 0.000000 0.000000
vn -1.000000 0.000000 0.000000
vn -1.000000 0.000000 0.000000
vn -1.000000 0.000000 0.000000
vn -1.000000 0.000000 0.000000
vn -1.000000 0.000000 0.000000
vn -1.000000 0.000000 0.000000
vn 1.000000 -0.000002 0.000005
vn 1.000000 -0.000002 0.000005
vn 1.000000 -0.000002 0.000005
vn 1.000000 -0.000002 0.000005
vn 1.000000 0.000000 0.000000
vn 1.000000 0.000000 0.000000
vn 1.000000 0.000000 0.000000
vn 1.000000 0.000000 0.000000
vn 0.000000 0.000000 -1.000000
vn 0.000000 0.000000 -1.000000
vn 0.000000 0.000000 -1.000000
vn 0.000000 0.000000 -1.000000
vn 0.000000 -1.000000 0.000000
vn 0.000000 -1.000000 0.000000
vn 0.000000 -1.000000 0.000000
vn 0.000000 -1.000000 0.000000
vn 0.000000 1.000000 0.000000
vn 0.000000 1.000000 0.000000
vn 0.000000 1.000000 0.000000
vn 0.000000 1.000000 0.000000
vn 0.000000 0.000000 1.000000
vn 0.000000 0.000000 1.000000
vn 0.000000 0.000000 1.000000
vn 0.000000 0.000000 1.000000
vn -1.000000 -0.000000 0.000000
vn -1.000000 -0.000000 0.000000
vn -1.000000 -0.000000 0.000000
vn -1.000000 -0.000000 0.000000
vn -1.000000 0.000000 0.000000
vn -1.000000 0.000000 0.000000
vn -1.000000 0.000000 0.000000
vn -1.000000 0.000000 0.000000
vn 1.000000 -0.000002 0.000005
vn 1.000000 -0.000002 0.000005
vn 1.000000 -0.000002 0.000005
vn 1.000000 -0.000002 0.000005
vn 1.000000 0.000000 0.000000
vn 1.000000 0.000000 0.000000
vn 1.000000 0.000000 0.000000
vn 1.000000 0.000000 0.000000
vn 0.000000 0.000000 -1.000000
vn 0.000000 0.000000 -1.000000
vn 0.000000 0.000000 -1.000000
vn 0.000000 0.000000 -1.000000
vn 0.000000 -1.000000 0.000000
vn 0.000000 -1.000000 0.000000
vn 0.000000 -1.000000 0.000000
vn 0.000000 -1.000000 0.000000
vn 0.000000 0.000000 1.000000
vn 0.000000 0.000000 1.000000
vn 0.000000 0.000000 1.000000
vn 0.000000 0.000000 1.000000
vn 0.000000 -1.000000 0.000000
vn 0.000000 -1.000000 0.000000
vn 0.000000 -1.000000 0.000000
vn 0.000000 -1.000000 0.000000
vn -1.000000 0.000000 0.000000
vn -1.000000 0.000000 0.000000
vn -1.000000 0.000000 0.000000
vn -1.000000 0.000000 0.000000
vn 0.000000 1.000000 0.000000
vn 0.000000 1.000000 0.000000
vn 0.000000 1.000000 0.000000
vn 0.000000 1.000000 0.000000
vn 0.000000 0.000000 1.000000
vn 0.000000 0.000000 1.000000
vn 0.000000 0.000000 1.000000
vn 0.000000 0.000000 1.000000
vn 0.000000 -1.000000 0.000000
vn 0.000000 -1.000000 0.000000
vn 0.000000 -1.000000 0.000000
vn 0.000000 -1.000000 0.000000
vn 0.000000 0.000000 -1.000000
vn 0.000000 0.000000 -1.000000
vn 0.000000 0.000000 -1.000000
vn 0.000000 0.000000 -1.000000
vn -1.000000 0.000000 0.000000
vn -1.000000 0.000000 0.000000
vn -1.000000 0.000000 0.000000
vn -1.000000 0.000000 0.000000
vn -1.000000 0.000002 0.000000
vn -1.000000 0.000002 0.000000
vn -1.000000 0.000002 0.000000
vn -1.000000 0.000002 0.000000
vn 1.000000 0.000000 0.000000
vn 1.000000 0.000000 0.000000
vn 1.000000 0.000000 0.000000
vn 1.000000 0.000000 0.000000
vn -1.000000 0.000000 0.000000
vn -1.000000 0.000000 0.000000
vn -1.000000 0.000000 0.000000
vn -1.000000 0.000000 0.000000
vn -1.000000 -0.000001 0.000000
vn -1.000000 -0.000001 0.000000
vn -1.000000 -0.000001 0.000000
vn -1.000000 -0.000001 0.000000
vn 0.000000 1.000000 0.000000
vn 0.000000 1.000000 0.000000
vn 0.000000 1.000000 0.000000
vn 0.000000 1.000000 0.000000
vn 0.000000 0.000000 1.000000
vn 0.000000 0.000000 1.000000
vn 0.000000 0.000000 1.000000
vn 0.000000 0.000000 1.000000
vn 0.000000 -1.000000 0.000000
vn 0.000000 -1.000000 0.000000
vn 0.000000 -1.000000 0.000000
vn 0.000000 -1.000000 0.000000
vn 1.000000 -0.000000 0.000000
vn 1.000000 -0.000000 0.000000
vn 1.000000 -0.000000 0.000000
vn 1.000000 -0.000000 0.000000
vn 1.000000 0.000000 0.000000
vn 1.000000 0.000000 0.000000
vn 1.000000 0.000000 0.000000
vn 1.000000 0.000000 0.000000
vn 1.000000 0.000000 0.000000
vn 1.000000 0.000000 0.000000
vn 1.000000 0.000000 0.000000
vn 1.000000 0.000000 0.000000
vn 1.000000 0.000000 0.000000
vn 1.000000 0.000000 0.000000
vn 1.000000 0.000000 0.000000
vn 1.000000 0.000000 0.000000
vn 0.000000 1.000000 0.000000
vn 0.000000 1.000000 0.000000
vn 0.000000 1.000000 0.000000
vn 0.000000 1.000000 0.000000
vn 0.000000 1.000000 0.000000
vn 0.000000 1.000000 0.000000
vn 0.000000 1.000000 0.000000
vn 0.000000 1.000000 0.000000
vn 0.000000 1.000000 0.000000
vn 0.000000 1.000000 0.000000
vn 0.000000 1.000000 0.000000
vn 0.000000 1.000000 0.000000
vn 0.000000 1.000000 -0.000000
vn 0.000000 1.000000 -0.000000
vn 0.000000 1.000000 -0.000000
vn 0.000000 1.000000 -0.000000
vn -1.000000 0.000000 0.000000
vn -1.000000 0.000000 0.000000
vn -1.000000 0.000000 0.000000
vn -1.000000 0.000000 0.000000
vn 0.000000 0.000000 1.000000
vn 0.000000 0.000000 1.000000
vn 0.000000 0.000000 1.000000
vn 0.000000 0.000000 1.000000
vn 1.000000 0.000000 0.000000
vn 1.000000 0.000000 0.000000
vn 1.000000 0.000000 0.000000
vn 1.000000 0.000000 0.000000
vn 0.000000 0.000000 -1.000000
vn 0.000000 0.000000 -1.000000
vn 0.000000 0.000000 -1.000000
vn 0.000000 0.000000 -1.000000
vn -1.000000 0.000000 0.000000
vn -1.000000 0.000000 0.000000
vn -1.000000 0.000000 0.000000
vn -1.000000 0.000000 0.000000
vn 0.000000 1.000000 0.000000
vn 0.000000 1.000000 0.000000
vn 0.000000 1.000000 0.000000
vn 0.000000 1.000000 0.000000
vn 1.000000 0.000000 0.000000
vn 1.000000 0.000000 0.000000
vn 1.000000 0.000000 0.000000
vn 1.000000 0.000000 0.000000
vn 0.000000 -1.000000 0.000000
vn 0.000000 -1.000000 0.000000
vn 0.000000 -1.000000 0.000000
vn 0.000000 -1.000000 0.000000
vn -1.000000 0.000000 0.000000
vn -1.000000 0.000000 0.000000
vn -1.000000 0.000000 0.000000
vn -1.000000 0.000000 0.000000
vn 0.000000 1.000000 0.000000
vn 0.000000 1.000000 0.000000
vn 0.000000 1.000000 0.000000
vn 0.000000 1.000000 0.000000
vn 1.000000 0.000000 0.000000
vn 1.000000 0.000000 0.000000
vn 1.000000 0.000000 0.000000
vn 1.000000 0.000000 0.000000
vn 0.000000 -1.000000 0.000000
vn 0.000000 -1.000000 0.000000
vn 0.000000 -1.000000 0.000000
vn 0.000000 -1.000000 0.000000
vn -0.000000 0.000000 1.000000
vn -0.000000 0.000000 1.000000
vn -0.000000 0.000000 1.000000
vn -0.000000 0.000000 1.000000
vn 0.000000 0.000000 1.000000
vn 0.000000 0.000000 1.000000
vn 0.000000 0.000000 1.000000
vn 0.000000 0.000000 1.000000
vn 0.000000 0.000000 1.000000
vn 0.000000 0.000000 1.000000
vn 0.000000 0.000000 1.000000
vn 0.000000 0.000000 1.000000
vn 0.000000 0.000000 1.000000
vn 0.000000 0.000000 1.000000
vn 0.000000 0.000000 1.000000
vn 0.000000 0.000000 1.000000
s off
f 1/10/1 2/2/2 4/11/3 3/8/4
f 6/6/5 1/1/6 3/12/7 5/7/8
f 3/3/9 4/31/10 8/27/11 7/23/12
f 5/9/13 3/32/14 7/28/15 9/21/16
f 2/5/17 1/29/18 12/25/19 11/19/20
f 1/4/21 6/30/22 10/26/23 12/17/24
f 9/14/25 7/24/26 12/16/27 10/20/28
f 8/22/29 11/15/30 12/18/31 7/13/32
f 13/33/33 14/34/34 16/35/35 15/36/36
f 18/37/37 13/38/38 15/39/39 17/40/40
f 15/41/41 16/42/42 20/43/43 19/44/44
f 17/45/45 15/46/46 19/47/47 21/48/48
f 14/49/49 13/50/50 24/51/51 23/52/52
f 13/53/53 18/54/54 22/55/55 24/56/56
f 21/57/57 19/58/58 24/59/59 22/60/60
f 20/61/61 23/62/62 24/63/63 19/64/64
f 33/69/65 35/70/66 36/71/67 34/72/68
f 35/73/69 29/74/70 32/75/71 36/76/72
f 42/77/73 41/78/74 43/79/75 44/80/76
f 26/81/77 25/82/78 37/115/79 38/141/80
f 27/85/81 26/86/82 38/117/83 39/139/84
f 28/89/85 27/90/86 39/119/87 40/135/88
f 25/93/89 28/94/90 40/121/91 37/143/92
f 28/95/93 25/113/94 30/111/95 29/98/96
f 25/96/97 26/112/98 33/108/99 30/97/100
f 31/110/101 34/107/102 36/104/103 32/103/104
f 26/99/105 27/109/106 35/105/107 33/100/108
f 27/101/109 28/114/110 29/106/111 35/102/112
f 46/123/113 45/132/114 44/83/115 43/84/116
f 47/125/117 46/126/118 43/87/119 41/88/120
f 48/127/121 47/128/122 41/91/123 42/92/124
f 38/118/125 37/144/126 45/124/127 46/137/128
f 39/120/129 38/142/130 46/138/131 47/133/132
f 40/122/133 39/140/134 47/134/135 48/130/136
f 37/116/137 40/136/138 48/131/139 45/129/140
f 30/183/141 33/66/142 50/215/143 49/202/144
f 33/66/145 34/67/146 51/200/147 50/215/148
f 34/67/149 31/68/150 52/198/151 51/200/152
f 31/182/153 30/65/154 49/181/155 52/180/156
f 49/145/157 50/201/158 54/194/159 53/196/160
f 50/146/161 51/214/162 55/193/163 54/179/164
f 51/147/165 52/199/166 56/190/167 55/192/168
f 52/148/169 49/203/170 53/197/171 56/212/172
f 61/186/173 62/158/174 63/173/175 64/187/176
f 62/175/177 65/160/178 66/172/179 63/159/180
f 65/174/181 67/162/182 68/184/183 66/161/184
f 67/185/185 61/157/186 64/216/187 68/163/188
f 53/149/189 54/195/190 58/176/191 57/153/192
f 54/150/193 55/178/194 59/177/195 58/154/196
f 55/151/197 56/191/198 60/188/199 59/155/200
f 56/152/201 53/213/202 57/189/203 60/156/204
f 57/164/205 58/210/206 62/208/207 61/167/208
f 58/165/209 59/209/210 65/206/211 62/166/212
f 59/168/213 60/207/214 67/204/215 65/169/216
f 60/170/217 57/211/218 61/205/219 67/171/220
