# This file uses centimeters as units for non-parametric coordinates.

v 1.042267 0.840052 -0.266870
v 1.042267 0.840052 -0.160118
v 1.069176 1.585277 -0.266870
v 1.069176 1.585277 -0.160118
v 4.160629 1.473643 -0.266870
v 4.160629 1.473643 -0.160118
v 4.133720 0.728418 -0.266870
v 4.133720 0.728418 -0.160118
v 1.009193 2.161819 -0.266870
v 1.009193 2.161819 -0.160118
v 1.141205 2.895752 -0.266870
v 1.141205 2.895752 -0.160118
v 4.185818 2.348141 -0.266870
v 4.185818 2.348141 -0.160118
v 4.053810 1.614207 -0.266870
v 4.053810 1.614207 -0.160118
v 0.841087 2.331744 -0.322174
v 0.841087 2.331744 -0.240393
v 0.843147 3.077452 -0.322174
v 0.843147 3.077452 -0.240393
v 4.469742 3.067423 -0.322174
v 4.469742 3.067423 -0.240393
v 4.467678 2.321715 -0.322174
v 4.467678 2.321715 -0.240393
v 0.897614 3.228840 -0.266870
v 0.897614 3.228840 -0.160118
v 0.919693 3.974224 -0.266870
v 0.919693 3.974224 -0.160118
v 4.011806 3.882654 -0.266870
v 4.011806 3.882654 -0.160118
v 3.989731 3.137270 -0.266870
v 3.989731 3.137270 -0.160118
v 1.298645 3.956069 0.054874
v 1.504715 3.750000 0.054874
v 1.298645 3.956069 0.000000
v 5.000000 0.206069 0.000000
v 3.710785 3.956069 0.054874
v 3.504715 3.750000 0.054874
v 3.710785 3.956069 0.000000
v 0.000000 4.208395 0.000000
v 5.000000 4.208395 0.000000
v 5.000000 4.208395 0.054874
v 0.000000 4.208395 0.054874
v 5.000000 4.414464 0.054874
v 0.000000 4.414464 0.054874
v 0.000000 4.208395 0.000000
v 0.000000 0.206069 0.000000
v 3.710777 0.644202 0.054874
v 3.504707 0.850271 0.054874
v 3.710785 0.644202 0.000000
v 1.298645 0.644202 0.054874
v 1.504715 0.850271 0.054874
v 1.298645 0.644202 0.000000
v 5.000000 -0.270663 0.054874
v 0.000000 -0.270663 0.054874
v 5.000000 0.206069 0.054874
v 0.000000 0.206069 0.054874
v 1.504715 3.750000 -0.160999
v 3.504715 3.750000 -0.160999
v 3.504707 0.850271 -0.160999
v 1.504715 0.850271 -0.160999
v 1.329899 4.080242 -0.160999
v 3.679527 4.080242 -0.160999
v 1.329899 4.080242 -0.333967
v 3.679527 4.080242 -0.333967
v 3.679520 0.520029 -0.160999
v 3.679520 0.520029 -0.333967
v 1.329899 0.520029 -0.160999
v 1.329899 0.520029 -0.333967
v 3.710785 1.043474 0.000000
v 4.374821 0.827508 0.000000
v 2.423473 0.644202 0.000000
v 0.964333 0.206069 0.000000
v 1.993065 0.364739 0.000000
v 2.433708 0.850271 -0.163006
v 2.433708 0.850271 -0.021002
v 2.433708 3.756805 -0.163006
v 2.433708 3.756805 -0.021002
v 2.575710 3.756805 -0.163006
v 2.575710 3.756805 -0.021002
v 2.575710 0.850271 -0.163006
v 2.575710 0.850271 -0.021002
v 1.411236 2.371137 -0.129482
v 1.411236 2.371137 0.012520
v 3.628010 2.371137 -0.129482
v 3.628010 2.371137 0.012520
v 3.628010 2.229134 -0.129482
v 3.628010 2.229134 0.012520
v 1.411236 2.229134 -0.129482
v 1.411236 2.229134 0.012520
v 1.970921 3.956069 0.000000
v 1.015739 4.011037 0.000000
v 1.298645 2.151883 0.000000
v 1.312931 4.072602 0.000000
v 1.056587 3.192975 0.000000
v 1.134029 2.859895 0.000000
v 1.298645 1.084989 0.000000
v 1.105186 1.708357 0.000000
v 3.512650 0.865004 -0.098703
v 3.512650 0.865004 -0.062984
v 3.512650 1.468193 -0.098703
v 3.512650 1.468193 -0.062984
v 1.466824 1.468193 -0.098703
v 1.466824 1.468193 -0.062984
v 1.466824 0.865004 -0.098703
v 1.466824 0.865004 -0.062984
v 3.084988 0.951983 -0.098703
v 3.084988 0.951983 -0.062984
v 2.782837 0.865004 -0.062984
v 2.990383 1.250650 -0.062984
v 2.990383 1.250650 -0.098703
v 2.802452 1.076607 -0.062984
v 2.802452 1.076607 -0.098703
v 2.516006 1.254178 -0.062984
v 2.516006 1.254178 -0.098703
v 2.180752 1.057297 -0.062984
v 2.180752 1.057297 -0.098703
v 3.353615 1.156772 -0.098703
v 3.353615 1.156772 -0.062984
v 1.702198 1.182732 -0.062984
v 1.702198 1.182732 -0.098703
vt 0.362700 0.399460
vt 0.328398 0.399460
vt 0.362700 0.399460
vt 0.267636 0.399460
vt 0.267636 0.399460
vt 0.267636 0.399460
vt 0.328398 0.399460
vt 0.328398 0.399460
vt 0.362700 0.399460
vt 0.362700 0.399460
vt 0.328398 0.399460
vt 0.267636 0.399460
vt 0.362700 0.399460
vt 0.362700 0.399460
vt 0.362700 0.399460
vt 0.362700 0.399460
vt 0.267636 0.399460
vt 0.267636 0.399460
vt 0.267636 0.399460
vt 0.267636 0.399460
vt 0.328398 0.399460
vt 0.328398 0.399460
vt 0.328398 0.399460
vt 0.328398 0.399460
vt 0.393664 0.399460
vt 0.393664 0.399460
vt 0.393664 0.399460
vt 0.393664 0.399460
vt 0.298600 0.399460
vt 0.298600 0.399460
vt 0.298600 0.399460
vt 0.298600 0.399460
vt 0.359362 0.399460
vt 0.359362 0.399460
vt 0.359362 0.399460
vt 0.359362 0.399460
vt 0.362700 0.399460
vt 0.362700 0.399460
vt 0.362700 0.399460
vt 0.362700 0.399460
vt 0.267636 0.399460
vt 0.267636 0.399460
vt 0.267636 0.399460
vt 0.267636 0.399460
vt 0.328398 0.399460
vt 0.328398 0.399460
vt 0.328398 0.399460
vt 0.328398 0.399460
vt 0.256125 0.060695
vt 0.256125 0.060695
vt 0.256125 0.060708
vt 0.256125 0.060708
vt 0.234868 0.060680
vt 0.234868 0.060680
vt 0.234868 0.060680
vt 0.234868 0.060680
vt 0.203595 0.060695
vt 0.203595 0.060695
vt 0.203595 0.060695
vt 0.203595 0.060695
vt 0.234868 0.060680
vt 0.234868 0.060680
vt 0.234868 0.060680
vt 0.234868 0.060680
vt 0.234868 0.060680
vt 0.234868 0.060689
vt 0.234868 0.060689
vt 0.234868 0.060689
vt 0.234868 0.060689
vt 0.256125 0.060708
vt 0.256125 0.060708
vt 0.256125 0.060708
vt 0.256125 0.060708
vt 0.203595 0.060695
vt 0.203595 0.060695
vt 0.203595 0.060695
vt 0.203595 0.060695
vt 0.256125 0.060708
vt 0.256125 0.060708
vt 0.256125 0.060708
vt 0.256125 0.060708
vt 0.234868 0.060680
vt 0.234868 0.060680
vt 0.234868 0.060680
vt 0.234868 0.060680
vt 0.297943 0.060037
vt 0.297943 0.060037
vt 0.297943 0.060037
vt 0.297943 0.060037
vt 0.297943 0.060037
vt 0.332689 0.060037
vt 0.385338 0.060037
vt 0.332689 0.060037
vt 0.332689 0.060037
vt 0.332689 0.060037
vt 0.332689 0.060037
vt 0.332689 0.060037
vt 0.332689 0.060037
vt 0.332689 0.060037
vt 0.256125 0.060708
vt 0.256125 0.060708
vt 0.256125 0.060695
vt 0.256125 0.060695
vt 0.203595 0.060695
vt 0.203595 0.060695
vt 0.203595 0.060695
vt 0.203595 0.060695
vt 0.234868 0.060689
vt 0.234868 0.060689
vt 0.234868 0.060689
vt 0.234868 0.060689
vt 0.234868 0.060689
vt 0.256125 0.060708
vt 0.256125 0.060708
vt 0.256125 0.060708
vt 0.256125 0.060708
vt 0.203595 0.060695
vt 0.203595 0.060695
vt 0.203595 0.060695
vt 0.203595 0.060695
vt 0.385338 0.060037
vt 0.332689 0.060037
vt 0.332689 0.060037
vt 0.332689 0.060037
vt 0.256125 0.060708
vt 0.256125 0.060708
vt 0.256125 0.060708
vt 0.256125 0.060708
vt 0.234868 0.060689
vt 0.234868 0.060689
vt 0.234868 0.060689
vt 0.234868 0.060689
vt 0.234868 0.060689
vt 0.487021 0.478152
vt 0.487021 0.478152
vt 0.487021 0.478152
vt 0.487021 0.478152
vt 0.487021 0.478152
vt 0.487021 0.478152
vt 0.487021 0.478152
vt 0.487021 0.478152
vt 0.203595 0.060695
vt 0.203595 0.060695
vt 0.203595 0.060695
vt 0.203595 0.060695
vt 0.203595 0.060695
vt 0.203595 0.060695
vt 0.483040 0.476162
vt 0.483040 0.476162
vt 0.483040 0.476162
vt 0.483040 0.476162
vt 0.203595 0.060695
vt 0.203595 0.060695
vt 0.297943 0.060037
vt 0.297943 0.060037
vt 0.297943 0.060037
vt 0.297943 0.060037
vt 0.332689 0.060037
vt 0.332689 0.060037
vt 0.332689 0.060037
vt 0.332689 0.060037
vt 0.332689 0.060037
vt 0.231730 0.061170
vt 0.231730 0.061170
vt 0.231730 0.061170
vt 0.231730 0.061170
vt 0.231730 0.061170
vt 0.231730 0.061170
vt 0.231730 0.061170
vt 0.231730 0.061170
vt 0.258191 0.061170
vt 0.258191 0.061170
vt 0.258191 0.061170
vt 0.258191 0.061170
vt 0.231730 0.061170
vt 0.231730 0.061170
vt 0.231730 0.061170
vt 0.231730 0.061170
vt 0.231730 0.061170
vt 0.231730 0.061170
vt 0.231730 0.061170
vt 0.231730 0.061170
vt 0.258191 0.061170
vt 0.258191 0.061170
vt 0.258191 0.061170
vt 0.258191 0.061170
vt 0.234868 0.060689
vt 0.332689 0.060037
vt 0.332689 0.060037
vt 0.332689 0.060037
vt 0.234868 0.060680
vt 0.385338 0.060037
vt 0.332689 0.060037
vt 0.332689 0.060037
vt 0.385338 0.060037
vt 0.298426 0.060037
vt 0.385338 0.060037
vt 0.385338 0.060037
vt 0.385338 0.060037
vt 0.385338 0.060037
vt 0.385338 0.060037
vt 0.332689 0.060037
vt 0.234868 0.060680
vt 0.298426 0.060037
vt 0.332689 0.060037
vt 0.298426 0.060037
vt 0.332689 0.060037
vt 0.298426 0.060037
vt 0.330306 0.084655
vt 0.330306 0.084655
vt 0.330306 0.084655
vt 0.330306 0.084655
vt 0.391069 0.084655
vt 0.391069 0.084655
vt 0.391069 0.084655
vt 0.391069 0.084655
vt 0.330306 0.084655
vt 0.330306 0.084655
vt 0.330306 0.084655
vt 0.330306 0.084655
vt 0.356767 0.084655
vt 0.356767 0.084655
vt 0.356767 0.084655
vt 0.356767 0.084655
vt 0.391069 0.084655
vt 0.391069 0.084655
vt 0.391069 0.084655
vt 0.391069 0.084655
vt 0.356767 0.084655
vt 0.356767 0.084655
vt 0.356767 0.084655
vt 0.356767 0.084655
vt 0.356767 0.084655
vt 0.356767 0.084655
vt 0.391069 0.084655
vt 0.391069 0.084655
vt 0.391069 0.084655
vt 0.391069 0.084655
vt 0.356767 0.084655
vt 0.356767 0.084655
vt 0.356767 0.084655
vt 0.391069 0.084655
vt 0.391069 0.084655
vt 0.391069 0.084655
vt 0.391069 0.084655
vt 0.356767 0.084655
vt 0.356767 0.084655
vt 0.356767 0.084655
vt 0.356767 0.084655
vt 0.391069 0.084655
vt 0.391069 0.084655
vt 0.391069 0.084655
vt 0.391069 0.084655
vt 0.356767 0.084655
vt 0.356767 0.084655
vt 0.356767 0.084655
vt 0.391069 0.084655
vt 0.391069 0.084655
vt 0.391069 0.084655
vt 0.391069 0.084655
vt 0.391069 0.084655
vt 0.391069 0.084655
vt 0.391069 0.084655
vt 0.391069 0.084655
vt 0.356767 0.084655
vt 0.356767 0.084655
vt 0.356767 0.084655
vt 0.391069 0.084655
vt 0.391069 0.084655
vt 0.356767 0.084655
vn 0.036087 0.999349 0.000000
vn 0.036087 0.999349 0.000000
vn 0.036087 0.999349 0.000000
vn 0.036087 0.999349 0.000000
vn -0.036087 -0.999349 0.000000
vn -0.036087 -0.999349 0.000000
vn -0.036087 -0.999349 0.000000
vn -0.036087 -0.999349 0.000000
vn 0.000000 0.000000 1.000000
vn 0.000000 0.000000 1.000000
vn 0.000000 0.000000 1.000000
vn 0.000000 0.000000 1.000000
vn 0.177022 0.984207 0.000000
vn 0.177022 0.984207 0.000000
vn 0.177022 0.984207 0.000000
vn 0.177022 0.984207 0.000000
vn -0.177022 -0.984207 0.000000
vn -0.177022 -0.984207 0.000000
vn -0.177022 -0.984207 0.000000
vn -0.177022 -0.984207 0.000000
vn 0.000000 0.000000 1.000000
vn 0.000000 0.000000 1.000000
vn 0.000000 0.000000 1.000000
vn 0.000000 0.000000 1.000000
vn 0.002766 0.999996 0.000000
vn 0.002766 0.999996 0.000000
vn 0.002766 0.999996 0.000000
vn 0.002766 0.999996 0.000000
vn -0.002765 -0.999996 0.000000
vn -0.002765 -0.999996 0.000000
vn -0.002765 -0.999996 0.000000
vn -0.002765 -0.999996 0.000000
vn 0.000000 0.000000 1.000000
vn 0.000000 0.000000 1.000000
vn 0.000000 0.000000 1.000000
vn 0.000000 0.000000 1.000000
vn 0.029601 0.999562 0.000000
vn 0.029601 0.999562 0.000000
vn 0.029601 0.999562 0.000000
vn 0.029601 0.999562 0.000000
vn -0.029601 -0.999562 0.000000
vn -0.029601 -0.999562 0.000000
vn -0.029601 -0.999562 0.000000
vn -0.029601 -0.999562 0.000000
vn 0.000000 0.000000 1.000000
vn 0.000000 0.000000 1.000000
vn 0.000000 0.000000 1.000000
vn 0.000000 0.000000 1.000000
vn 0.000000 0.000000 1.000000
vn 0.000000 0.000000 1.000000
vn 0.000000 0.000000 1.000000
vn 0.000000 0.000000 1.000000
vn -1.000000 0.000000 0.000000
vn -1.000000 0.000000 0.000000
vn -1.000000 0.000000 0.000000
vn -1.000000 0.000000 0.000000
vn -1.000000 0.000000 0.000000
vn -1.000000 0.000000 0.000000
vn 1.000000 0.000000 0.000000
vn 1.000000 0.000000 0.000000
vn 1.000000 0.000000 0.000000
vn 1.000000 0.000000 0.000000
vn 1.000000 -0.000001 0.000070
vn 1.000000 -0.000001 0.000070
vn 1.000000 -0.000001 0.000070
vn 1.000000 -0.000001 0.000070
vn 1.000000 -0.000001 0.000070
vn 0.000000 1.000000 0.000000
vn 0.000000 1.000000 0.000000
vn 0.000000 1.000000 0.000000
vn 0.000000 1.000000 0.000000
vn 0.000000 1.000000 0.000000
vn 0.000000 0.000000 1.000000
vn 0.000000 0.000000 1.000000
vn 0.000000 0.000000 1.000000
vn 0.000000 0.000000 1.000000
vn 0.000000 -1.000000 0.000000
vn 0.000000 -1.000000 0.000000
vn 0.000000 -1.000000 0.000000
vn 0.000000 -1.000000 0.000000
vn 0.000000 0.000000 1.000000
vn 0.000000 0.000000 1.000000
vn 0.000000 0.000000 1.000000
vn 0.000000 0.000000 1.000000
vn 0.000000 -1.000000 0.000000
vn 0.000000 -1.000000 0.000000
vn 0.000000 -1.000000 0.000000
vn 0.000000 -1.000000 0.000000
vn 0.000000 0.000000 1.000000
vn 0.000000 0.000000 1.000000
vn 0.000000 0.000000 1.000000
vn 0.000000 0.000000 1.000000
vn 0.000000 0.000000 1.000000
vn 0.000000 0.000000 1.000000
vn 0.000000 0.000000 1.000000
vn 0.000000 0.000000 1.000000
vn 0.000000 0.000000 1.000000
vn 0.000000 0.000000 1.000000
vn 0.000000 0.000000 1.000000
vn 0.000000 0.000000 1.000000
vn 0.000000 0.000000 1.000000
vn 0.000000 0.000000 1.000000
vn -0.000000 0.000000 1.000000
vn -0.000000 0.000000 1.000000
vn -0.000000 0.000000 1.000000
vn -0.000000 0.000000 1.000000
vn -1.000000 0.000003 0.000000
vn -1.000000 0.000003 0.000000
vn -1.000000 0.000003 0.000000
vn -1.000000 0.000003 0.000000
vn 0.000000 -1.000000 -0.000001
vn 0.000000 -1.000000 -0.000001
vn 0.000000 -1.000000 -0.000001
vn 0.000000 -1.000000 -0.000001
vn 0.000000 -1.000000 -0.000001
vn 0.000000 0.000000 1.000000
vn 0.000000 0.000000 1.000000
vn 0.000000 0.000000 1.000000
vn 0.000000 0.000000 1.000000
vn 0.000000 1.000000 0.000000
vn 0.000000 1.000000 0.000000
vn 0.000000 1.000000 0.000000
vn 0.000000 1.000000 0.000000
vn 0.000000 0.000000 1.000000
vn 0.000000 0.000000 1.000000
vn 0.000000 0.000000 1.000000
vn 0.000000 0.000000 1.000000
vn 0.000000 0.000000 1.000000
vn 0.000000 0.000000 1.000000
vn 0.000000 0.000000 1.000000
vn 0.000000 0.000000 1.000000
vn 0.000000 0.000000 1.000000
vn -0.000000 1.000000 -0.000002
vn -0.000000 1.000000 -0.000002
vn -0.000000 1.000000 -0.000002
vn -0.000000 1.000000 -0.000002
vn -0.000000 1.000000 -0.000002
vn 0.000000 -1.000000 0.000000
vn 0.000000 -1.000000 0.000000
vn 0.000000 -1.000000 0.000000
vn 0.000000 -1.000000 0.000000
vn -1.000000 0.000002 0.000000
vn -1.000000 0.000002 0.000000
vn -1.000000 0.000002 0.000000
vn -1.000000 0.000002 0.000000
vn 0.000000 1.000000 0.000000
vn 0.000000 1.000000 0.000000
vn 0.000000 1.000000 0.000000
vn 0.000000 1.000000 0.000000
vn 1.000000 0.000000 0.000000
vn 1.000000 0.000000 0.000000
vn 1.000000 0.000000 0.000000
vn 1.000000 0.000000 0.000000
vn 0.000000 0.000000 -1.000000
vn 0.000000 0.000000 -1.000000
vn 0.000000 0.000000 -1.000000
vn 0.000000 0.000000 -1.000000
vn -0.000000 0.000000 -1.000000
vn -0.000000 0.000000 -1.000000
vn -0.000000 0.000000 -1.000000
vn -0.000000 0.000000 -1.000000
vn 0.000000 0.000000 -1.000000
vn 0.000000 0.000000 -1.000000
vn 0.000000 0.000000 -1.000000
vn 0.000000 0.000000 -1.000000
vn 0.000000 0.000000 1.000000
vn 0.000000 0.000000 1.000000
vn 0.000000 0.000000 1.000000
vn 0.000000 0.000000 1.000000
vn -0.000000 0.000000 -1.000000
vn -0.000000 0.000000 -1.000000
vn -0.000000 0.000000 -1.000000
vn -0.000000 0.000000 -1.000000
vn 0.000000 0.000000 1.000000
vn 0.000000 0.000000 1.000000
vn 0.000000 0.000000 1.000000
vn 0.000000 0.000000 1.000000
vn 0.000000 0.000000 1.000000
vn 0.000000 0.000000 1.000000
vn 0.000000 0.000000 1.000000
vn 0.000000 0.000000 1.000000
vn 0.000000 0.000000 1.000000
vn -1.000000 0.000000 0.000000
vn -1.000000 0.000000 0.000000
vn -1.000000 0.000000 0.000000
vn -1.000000 0.000000 0.000000
vn 1.000000 0.000000 0.000000
vn 1.000000 0.000000 0.000000
vn 1.000000 0.000000 0.000000
vn 1.000000 0.000000 0.000000
vn 0.000000 0.000000 1.000000
vn 0.000000 0.000000 1.000000
vn 0.000000 0.000000 1.000000
vn 0.000000 0.000000 1.000000
vn 0.000000 1.000000 0.000000
vn 0.000000 1.000000 0.000000
vn 0.000000 1.000000 0.000000
vn 0.000000 1.000000 0.000000
vn 0.000000 -1.000000 0.000000
vn 0.000000 -1.000000 0.000000
vn 0.000000 -1.000000 0.000000
vn 0.000000 -1.000000 0.000000
vn 0.000000 0.000000 1.000000
vn 0.000000 0.000000 1.000000
vn 0.000000 0.000000 1.000000
vn 0.000000 0.000000 1.000000
vn 0.000000 0.000000 1.000000
vn 0.000000 0.000000 1.000000
vn 0.000000 0.000000 1.000000
vn 0.000000 0.000000 1.000000
vn 0.000000 0.000000 1.000000
vn 0.000000 0.000000 1.000000
vn 0.000000 0.000000 1.000000
vn 0.000000 0.000000 1.000000
vn 0.000000 0.000000 1.000000
vn 0.000000 0.000000 1.000000
vn 0.000000 0.000000 1.000000
vn 0.000000 0.000000 1.000000
vn 0.000000 0.000000 1.000000
vn 0.000000 0.000000 1.000000
vn 0.000000 0.000000 1.000000
vn 0.000000 0.000000 1.000000
vn 0.000000 0.000000 1.000000
vn 0.000000 0.000000 1.000000
vn 0.000000 0.000000 1.000000
vn 0.000000 0.000000 1.000000
vn 1.000000 0.000000 0.000000
vn 1.000000 0.000000 0.000000
vn 1.000000 0.000000 0.000000
vn 1.000000 0.000000 0.000000
vn 0.250231 0.968186 0.000000
vn 0.403575 0.914947 0.000001
vn 0.403576 0.914946 0.000001
vn 0.250231 0.968186 0.000000
vn -1.000000 0.000000 0.000000
vn -1.000000 0.000000 0.000000
vn -1.000000 0.000000 0.000000
vn -1.000000 0.000000 0.000000
vn 0.000000 0.000000 1.000000
vn 0.000000 0.000000 1.000000
vn -0.000000 0.000000 1.000000
vn 0.000000 0.000000 1.000000
vn -0.770062 0.637969 0.000000
vn 0.250231 0.968186 0.000000
vn 0.250231 0.968186 0.000000
vn -0.770062 0.637969 0.000000
vn 0.000000 0.000000 1.000000
vn 0.000000 0.000000 1.000000
vn 0.000000 0.000000 1.000000
vn 0.000000 0.000000 1.000000
vn -0.000000 0.000000 1.000000
vn -0.000000 0.000000 1.000000
vn 0.403575 0.914947 0.000001
vn 0.007437 0.999972 0.000001
vn 0.007437 0.999972 0.000001
vn 0.403576 0.914946 0.000001
vn -0.000000 0.000000 1.000000
vn -0.000000 0.000000 1.000000
vn -0.000000 0.000000 1.000000
vn 0.007437 0.999972 0.000001
vn -0.031044 0.999518 0.000000
vn -0.031044 0.999518 0.000000
vn 0.007437 0.999972 0.000001
vn -0.000000 0.000000 1.000000
vn 0.000000 0.000000 1.000000
vn -0.000000 0.000000 1.000000
vn -0.000000 0.000000 1.000000
vn -0.031044 0.999518 0.000000
vn -0.087456 0.996168 0.000000
vn -0.087456 0.996168 0.000000
vn -0.031044 0.999518 0.000000
vn -0.000000 0.000000 1.000000
vn -0.000000 0.000000 1.000000
vn -0.000000 0.000000 1.000000
vn -0.087456 0.996168 0.000000
vn 0.498824 0.866703 0.000000
vn 0.498824 0.866703 0.000000
vn -0.087456 0.996168 0.000000
vn -0.890592 0.454803 0.000000
vn -0.770062 0.637969 0.000000
vn -0.770062 0.637969 0.000000
vn -0.890592 0.454803 0.000000
vn 0.000000 0.000000 1.000000
vn 0.000000 0.000000 1.000000
vn 0.000000 0.000000 1.000000
vn 0.498824 0.866703 0.000000
vn 0.771547 0.636173 0.000000
vn 0.771547 0.636173 0.000000
vn 0.498824 0.866703 0.000000
vn 0.000000 0.000000 1.000000
vn -0.000000 0.000000 1.000000
vn -0.000000 0.000000 1.000000
s off
f 3/1/1 4/9/2 6/3/3 5/10/4
f 7/4/5 8/12/6 2/6/7 1/5/8
f 2/11/9 8/7/10 6/8/11 4/2/12
f 11/13/13 12/14/14 14/15/15 13/16/16
f 15/17/17 16/18/18 10/19/19 9/20/20
f 10/21/21 16/22/22 14/23/23 12/24/24
f 19/25/25 20/26/26 22/27/27 21/28/28
f 23/29/29 24/30/30 18/31/31 17/32/32
f 18/33/33 24/34/34 22/35/35 20/36/36
f 27/37/37 28/38/38 30/39/39 29/40/40
f 31/41/41 32/42/42 26/43/43 25/44/44
f 26/45/45 32/46/46 30/47/47 28/48/48
f 34/49/49 33/50/50 51/51/51 52/52/52
f 33/53/53 35/54/54 93/191/55 97/203/56 53/55/57 51/56/58
f 61/57/59 58/58/60 34/59/61 52/60/62
f 50/61/63 70/62/64 39/63/65 37/64/66 48/65/67
f 39/66/68 91/187/69 35/67/70 33/68/71 37/69/72
f 33/70/73 34/71/74 38/72/75 37/73/76
f 34/74/77 58/75/78 59/76/79 38/77/80
f 43/78/81 42/79/82 44/80/83 45/81/84
f 42/82/85 43/83/86 46/84/87 41/85/88
f 72/86/89 74/87/90 73/88/91 36/89/92 50/90/93
f 91/200/94 94/199/95 92/197/96 35/92/97
f 41/95/98 39/96/99 70/97/100 71/98/101 36/99/102
f 37/100/103 38/101/104 49/102/105 48/103/106
f 38/104/107 59/105/108 60/106/109 49/107/110
f 48/108/111 51/109/112 53/110/113 72/111/114 50/112/115
f 49/113/116 52/114/117 51/115/118 48/116/119
f 52/117/120 49/118/121 60/119/122 61/120/123
f 35/121/124 92/198/125 95/195/126 96/201/127 93/192/128
f 55/125/129 54/126/130 56/127/131 57/128/132
f 57/129/133 56/130/134 36/131/135 73/132/136 47/133/137
f 63/134/138 62/135/139 64/136/140 65/137/141
f 66/138/142 63/134/143 65/137/144 67/139/145
f 68/140/146 66/138/147 67/139/148 69/141/149
f 69/141/150 64/136/151 62/135/152 68/140/153
f 59/76/154 58/75/155 62/142/156 63/143/157
f 60/106/158 59/105/159 63/144/160 66/145/161
f 61/120/162 60/119/163 66/146/164 68/147/165
f 69/148/166 67/149/167 65/150/168 64/151/169
f 58/58/170 61/57/171 68/152/172 62/153/173
f 36/154/174 71/155/175 70/156/176 50/157/177
f 47/158/178 73/159/179 74/160/180 72/161/181 53/162/182
f 75/163/183 76/164/184 78/165/185 77/166/186
f 79/167/187 80/168/188 82/169/189 81/170/190
f 76/171/191 82/172/192 80/173/193 78/174/194
f 83/175/195 84/176/196 86/177/197 85/178/198
f 87/179/199 88/180/200 90/181/201 89/182/202
f 84/183/203 90/184/204 88/185/205 86/186/206
f 40/91/207 92/189/208 94/193/209 91/188/210 39/93/211 41/94/212
f 93/196/213 96/208/214 98/206/215 97/204/216
f 97/207/217 98/205/218 96/202/219 47/123/220 53/124/221
f 47/123/222 96/202/223 95/194/224 92/190/225 40/122/226
f 99/209/227 101/210/228 102/211/229 100/212/230
f 107/213/231 111/214/232 110/215/233 108/216/234
f 103/217/235 105/218/236 106/219/237 104/220/238
f 108/221/239 110/222/240 109/223/241 100/224/242
f 118/225/243 107/226/244 108/227/245 119/228/246
f 119/229/247 108/230/248 100/231/249
f 110/232/250 112/233/251 109/234/252
f 111/235/253 113/236/254 112/237/255 110/238/256
f 112/239/257 114/240/258 109/241/259
f 113/242/260 115/243/261 114/244/262 112/245/263
f 114/246/264 116/247/265 106/248/266 109/249/267
f 115/250/268 117/251/269 116/252/270 114/253/271
f 120/254/272 104/255/273 106/256/274
f 117/257/275 121/258/276 120/259/277 116/260/278
f 101/261/279 118/262/280 119/263/281 102/264/282
f 100/265/283 102/266/284 119/267/285
f 121/258/286 103/268/287 104/269/288 120/259/289
f 116/270/290 120/254/291 106/256/292
