# This file uses centimeters as units for non-parametric coordinates.

v -0.000004 0.000000 -0.000000
v -5.000004 0.000000 -0.000000
v -5.000004 1.275576 0.000000
v -0.000004 1.275576 0.000000
v -5.000004 5.625000 0.000000
v -0.000004 5.625000 0.000000
v -5.000004 0.000000 0.192142
v -0.000004 0.000000 0.192142
v -0.000004 1.275576 0.192142
v -5.000004 1.275576 0.192142
v -5.000004 5.293347 0.000000
v -0.000004 5.293347 0.000000
v -5.000004 5.293347 0.151094
v -0.000004 5.293347 0.151094
v -0.000004 5.625000 0.151094
v -5.000004 5.625000 0.151094
v -2.500004 5.625000 0.000000
v -2.500004 5.625000 0.151094
v -2.500004 5.293347 0.151094
v -2.500004 5.293347 0.000000
v -1.289227 5.625000 0.000000
v -1.289227 5.625000 0.151094
v -1.289227 5.293347 0.151094
v -1.289227 5.293347 0.000000
v -1.289227 1.275576 0.000000
v -1.289227 1.275576 0.192142
v -1.289227 0.000000 0.192142
v -1.495297 -0.000000 -0.000000
v -3.701365 5.625000 0.000000
v -3.701365 5.625000 0.151094
v -3.701365 5.293347 0.151094
v -3.701365 5.293347 0.000000
v -3.701365 1.275576 0.000000
v -3.701365 1.275576 0.192142
v -3.701365 0.000000 0.192142
v -3.495296 0.000000 -0.000000
v -0.000004 3.956069 0.000000
v -1.289227 3.956069 0.000000
v -2.500004 3.956069 0.000000
v -3.701365 3.956069 0.000000
v -5.000004 3.956069 0.000000
v -2.500004 3.956069 0.290838
v -3.701365 3.956069 0.290838
v -3.701365 1.275576 0.290838
v -3.701365 0.000000 0.290838
v -1.289227 3.956069 0.290838
v -1.289227 1.275576 0.290838
v -1.289227 0.000000 0.290838
v -2.498615 3.750000 0.290838
v -3.495296 3.750000 0.290838
v -3.495296 1.275576 0.290838
v -3.495296 0.000000 0.290838
v -1.495297 3.750000 0.290838
v -1.495297 1.275576 0.290838
v -1.495297 0.000000 0.290838
v -2.498615 3.750000 0.000000
v -3.495296 3.750000 0.000000
v -3.495296 1.275576 0.000000
v -3.495296 0.000000 -0.000000
v -1.495297 3.750000 0.000000
v -1.495297 1.275576 0.000000
v -1.495297 0.000000 -0.000000
vt 0.765966 0.068316
vt 0.709001 0.068316
vt 0.233321 0.441034
vt 0.233321 0.441034
vt 0.806372 0.068251
vt 0.806372 0.068251
vt 0.765966 0.068316
vt 0.801709 0.068316
vt 0.765966 0.068316
vt 0.739159 0.068316
vt 0.233321 0.441034
vt 0.233321 0.441034
vt 0.765966 0.068316
vt 0.765966 0.068316
vt 0.806372 0.068251
vt 0.806372 0.068251
vt 0.704113 0.067089
vt 0.709001 0.068316
vt 0.801708 0.068316
vt 0.801709 0.068316
vt 0.739159 0.068316
vt 0.739159 0.068316
vt 0.739159 0.068316
vt 0.765966 0.068316
vt 0.765966 0.068316
vt 0.801708 0.068316
vt 0.704113 0.067089
vt 0.765966 0.068316
vt 0.806372 0.068251
vt 0.806372 0.068251
vt 0.765966 0.068316
vt 0.765966 0.068316
vt 0.739159 0.068316
vt 0.739159 0.068316
vt 0.233321 0.441034
vt 0.806372 0.068251
vt 0.806372 0.068251
vt 0.765966 0.068316
vt 0.765966 0.068316
vt 0.739159 0.068316
vt 0.739159 0.068316
vt 0.233321 0.441034
vt 0.233321 0.441034
vt 0.801708 0.068316
vt 0.801708 0.068316
vt 0.765966 0.068316
vt 0.765966 0.068316
vt 0.709001 0.068316
vt 0.709001 0.068316
vt 0.806372 0.068251
vt 0.806372 0.068251
vt 0.765966 0.068316
vt 0.765966 0.068316
vt 0.739159 0.068316
vt 0.739159 0.068316
vt 0.233321 0.441034
vt 0.233321 0.441034
vt 0.801709 0.068316
vt 0.801709 0.068316
vt 0.765966 0.068316
vt 0.765966 0.068316
vt 0.704113 0.067089
vt 0.704113 0.067089
vt 0.233321 0.441034
vt 0.831137 0.067379
vt 0.831137 0.067379
vt 0.233321 0.441034
vt 0.233321 0.441034
vt 0.798258 0.067379
vt 0.798258 0.067379
vt 0.798258 0.067379
vt 0.796829 0.068808
vt 0.796829 0.068808
vt 0.798258 0.067379
vt 0.796829 0.068808
vt 0.796829 0.068808
vt 0.796829 0.068808
vt 0.737962 0.068808
vt 0.737962 0.068808
vt 0.798258 0.067379
vt 0.798258 0.067379
vt 0.798258 0.067379
vt 0.735103 0.068808
vt 0.796829 0.068808
vt 0.798258 0.067379
vt 0.735103 0.068808
vt 0.735103 0.068808
vt 0.796829 0.068808
vt 0.640716 0.067090
vt 0.640716 0.067090
vt 0.735103 0.068808
vt 0.735103 0.068808
vt 0.735103 0.068808
vt 0.640716 0.067090
vt 0.735103 0.068808
vt 0.735103 0.068808
vt 0.735103 0.068808
vt 0.831137 0.067379
vt 0.831137 0.067379
vt 0.831137 0.067379
vt 0.233321 0.441034
vt 0.831137 0.067379
vt 0.831137 0.067379
vt 0.233321 0.441034
vt 0.831137 0.067379
vt 0.737962 0.068808
vt 0.737962 0.068808
vt 0.737962 0.068808
vt 0.737962 0.068808
vt 0.737962 0.068808
vt 0.737962 0.068808
vt 0.737962 0.068808
vt 0.737962 0.068808
vt 0.737962 0.068808
vt 0.737962 0.068808
vt 0.737962 0.068808
vt 0.737962 0.068808
vt 0.796829 0.068808
vt 0.735103 0.068808
vt 0.796829 0.068808
vt 0.796829 0.068808
vt 0.796829 0.068808
vt 0.796829 0.068808
vt 0.735103 0.068808
vt 0.735103 0.068808
vt 0.640716 0.067090
vt 0.640716 0.067090
vt 0.640716 0.067090
vt 0.735103 0.068808
vt 0.735103 0.068808
vt 0.735103 0.068808
vt 0.735103 0.068808
vt 0.798258 0.067379
vt 0.737962 0.068808
vt 0.798258 0.067379
vt 0.737962 0.068808
vt 0.798258 0.067379
vt 0.798258 0.067379
vt 0.737962 0.068808
vt 0.737962 0.068808
vt 0.704114 0.067089
vt 0.704113 0.067089
vt 0.704113 0.067089
vt 0.704113 0.067089
vt 0.704113 0.067089
vt 0.704113 0.067089
vt 0.704113 0.067089
vt 0.704113 0.067089
vn 0.000000 -0.000000 1.000000
vn 0.000000 -0.000000 1.000000
vn 0.000000 -0.000000 1.000000
vn 0.000000 -0.000000 1.000000
vn 0.000000 0.000000 1.000000
vn 0.000000 0.000000 1.000000
vn 0.000000 0.000000 1.000000
vn 0.000000 0.000000 1.000000
vn 0.000000 -1.000000 0.000000
vn 0.000000 -1.000000 0.000000
vn 0.000000 -1.000000 0.000000
vn 0.000000 -1.000000 0.000000
vn 0.000000 1.000000 0.000000
vn 0.000000 1.000000 0.000000
vn 0.000000 1.000000 0.000000
vn 0.000000 1.000000 0.000000
vn 0.000000 0.000000 1.000000
vn 0.000000 0.000000 1.000000
vn 0.000000 0.000000 1.000000
vn 0.000000 0.000000 1.000000
vn 0.000000 -1.000000 0.000000
vn 0.000000 -1.000000 0.000000
vn 0.000000 -1.000000 0.000000
vn 0.000000 -1.000000 0.000000
vn 0.000000 1.000000 0.000000
vn 0.000000 1.000000 0.000000
vn 0.000000 1.000000 0.000000
vn 0.000000 1.000000 0.000000
vn 0.000000 1.000000 0.000000
vn 0.000000 1.000000 0.000000
vn 0.000000 1.000000 0.000000
vn 0.000000 1.000000 0.000000
vn 0.000000 0.000000 1.000000
vn 0.000000 0.000000 1.000000
vn 0.000000 0.000000 1.000000
vn 0.000000 0.000000 1.000000
vn 0.000000 -1.000000 0.000000
vn 0.000000 -1.000000 0.000000
vn 0.000000 -1.000000 0.000000
vn 0.000000 -1.000000 0.000000
vn 0.000000 1.000000 0.000000
vn 0.000000 1.000000 0.000000
vn 0.000000 1.000000 0.000000
vn 0.000000 1.000000 0.000000
vn 0.000000 0.000000 1.000000
vn 0.000000 0.000000 1.000000
vn 0.000000 0.000000 1.000000
vn 0.000000 0.000000 1.000000
vn 0.000000 -1.000000 0.000000
vn 0.000000 -1.000000 0.000000
vn 0.000000 -1.000000 0.000000
vn 0.000000 -1.000000 0.000000
vn 0.000000 1.000000 0.000000
vn 0.000000 1.000000 0.000000
vn 0.000000 1.000000 0.000000
vn 0.000000 1.000000 0.000000
vn 0.000000 0.000000 1.000000
vn 0.000000 0.000000 1.000000
vn 0.000000 0.000000 1.000000
vn 0.000000 0.000000 1.000000
vn 0.000000 -1.000000 0.000000
vn 0.000000 -1.000000 0.000000
vn 0.000000 -1.000000 0.000000
vn 0.000000 -1.000000 0.000000
vn 0.000000 0.000000 1.000000
vn 0.000000 0.000000 1.000000
vn 0.000000 0.000000 1.000000
vn 0.000000 0.000000 1.000000
vn 0.000000 1.000000 0.000000
vn 0.000000 1.000000 0.000000
vn 0.000000 1.000000 0.000000
vn 0.000000 1.000000 0.000000
vn 0.000000 -0.000000 1.000000
vn 0.000000 -0.000000 1.000000
vn 0.000000 -0.000000 1.000000
vn 0.000000 -0.000000 1.000000
vn 0.000000 -1.000000 0.000000
vn 0.000000 -1.000000 0.000000
vn 0.000000 -1.000000 0.000000
vn 0.000000 -1.000000 0.000000
vn 0.000000 0.000000 1.000000
vn 0.000000 0.000000 1.000000
vn 0.000000 0.000000 1.000000
vn 0.000000 0.000000 1.000000
vn 0.000000 0.000000 1.000000
vn 0.000000 0.000000 1.000000
vn 0.000000 0.000000 1.000000
vn 0.000000 0.000000 1.000000
vn 0.000000 0.000000 1.000000
vn 0.000000 0.000000 1.000000
vn 0.000000 0.000000 1.000000
vn 0.000000 0.000000 1.000000
vn 0.000000 0.000000 1.000000
vn 0.000000 0.000000 1.000000
vn 0.000000 0.000000 1.000000
vn 0.000000 0.000000 1.000000
vn 0.000000 1.000000 0.000000
vn 0.000000 1.000000 0.000000
vn 0.000000 1.000000 0.000000
vn 0.000000 1.000000 0.000000
vn -1.000000 0.000000 0.000000
vn -1.000000 0.000000 0.000000
vn -1.000000 0.000000 0.000000
vn -1.000000 0.000000 0.000000
vn -1.000000 0.000000 0.000000
vn -1.000000 0.000000 0.000000
vn -1.000000 0.000000 0.000000
vn -1.000000 0.000000 0.000000
vn -1.000000 0.000000 0.000000
vn 0.000000 1.000000 0.000000
vn 0.000000 1.000000 0.000000
vn 0.000000 1.000000 0.000000
vn 0.000000 1.000000 0.000000
vn 1.000000 0.000000 0.000000
vn 1.000000 0.000000 0.000000
vn 1.000000 0.000000 0.000000
vn 1.000000 0.000000 0.000000
vn 1.000000 0.000000 0.000000
vn 1.000000 0.000000 0.000000
vn 1.000000 0.000000 0.000000
vn 1.000000 0.000000 0.000000
vn 1.000000 0.000000 0.000000
vn 0.000000 0.000000 1.000000
vn 0.000000 0.000000 1.000000
vn 0.000000 0.000000 1.000000
vn 0.000000 0.000000 1.000000
vn -0.000000 0.000000 1.000000
vn -0.000000 0.000000 1.000000
vn -0.000000 0.000000 1.000000
vn -0.000000 0.000000 1.000000
vn 0.000000 0.000000 1.000000
vn 0.000000 0.000000 1.000000
vn 0.000000 0.000000 1.000000
vn 0.000000 0.000000 1.000000
vn 0.000000 0.000000 1.000000
vn 0.000000 0.000000 1.000000
vn 0.000000 0.000000 1.000000
vn 0.000000 0.000000 1.000000
vn 0.000000 0.000000 1.000000
vn 0.000000 0.000000 1.000000
vn 0.000000 0.000000 1.000000
vn 0.000000 0.000000 1.000000
vn 0.000000 0.000000 1.000000
vn 0.000000 0.000000 1.000000
vn 0.000000 0.000000 1.000000
vn 0.000000 0.000000 1.000000
vn 0.000000 -1.000000 0.000000
vn 0.000000 -1.000000 0.000000
vn 0.000000 -1.000000 0.000000
vn 0.000000 -1.000000 0.000000
vn 1.000000 0.000000 0.000000
vn 1.000000 0.000000 0.000000
vn 1.000000 0.000000 0.000000
vn 1.000000 0.000000 0.000000
vn 1.000000 0.000000 0.000000
vn 1.000000 0.000000 0.000000
vn 1.000000 0.000000 0.000000
vn 1.000000 0.000000 0.000000
vn 0.000000 -1.000000 0.000000
vn 0.000000 -1.000000 0.000000
vn 0.000000 -1.000000 0.000000
vn 0.000000 -1.000000 0.000000
vn -1.000000 0.000000 0.000000
vn -1.000000 0.000000 0.000000
vn -1.000000 0.000000 0.000000
vn -1.000000 0.000000 0.000000
vn -1.000000 0.000000 0.000000
vn -1.000000 0.000000 0.000000
vn -1.000000 0.000000 0.000000
vn -1.000000 0.000000 0.000000
vn 0.000000 -1.000000 0.000000
vn 0.000000 -1.000000 0.000000
vn 0.000000 -1.000000 0.000000
vn 0.000000 -1.000000 0.000000
vn -0.000000 -1.000000 0.000000
vn -0.000000 -1.000000 0.000000
vn -0.000000 -1.000000 0.000000
vn -0.000000 -1.000000 0.000000
s off
f 26/46/1 27/47/2 8/28/3 9/7/4
f 22/38/5 23/39/6 14/24/7 15/13/8
f 27/48/9 28/49/10 1/18/11 8/2/12
f 4/19/13 25/44/14 26/45/15 9/26/16
f 37/64/17 38/101/18 25/43/19 4/4/20
f 23/40/21 24/41/22 12/22/23 14/10/24
f 6/6/25 21/36/26 22/37/27 15/15/28
f 18/30/29 17/29/30 29/50/31 30/51/32
f 30/52/33 31/53/34 19/32/35 18/31/36
f 31/54/37 32/55/38 20/34/39 19/33/40
f 22/37/41 21/36/42 17/29/43 18/30/44
f 18/31/45 19/32/46 23/39/47 22/38/48
f 19/33/49 20/34/50 24/41/51 23/40/52
f 30/51/53 29/50/54 5/5/55 16/16/56
f 13/9/57 31/53/58 30/52/59 16/14/60
f 11/21/61 32/55/62 31/54/63 13/23/64
f 3/3/65 33/57/66 40/67/67 41/68/68
f 34/59/69 33/58/70 3/20/71 10/8/72
f 7/1/73 35/61/74 34/60/75 10/25/76
f 2/17/77 36/63/78 35/62/79 7/27/80
f 24/42/81 38/101/82 37/64/83 12/11/84
f 20/35/85 39/104/86 38/101/87 24/42/88
f 32/56/89 40/67/90 39/104/91 20/35/92
f 41/68/93 40/67/94 32/56/95 11/12/96
f 39/66/97 40/103/98 43/102/99 42/99/100
f 40/78/101 33/79/102 34/140/103 44/136/104 43/108/105
f 34/106/106 35/109/107 45/110/108 44/107/109
f 38/65/110 39/105/111 42/100/112 46/98/113
f 25/111/114 38/112/115 46/113/116 47/114/117 26/115/118
f 27/116/119 26/139/120 47/134/121 48/117/122
f 42/69/123 43/137/124 50/133/125 49/80/126
f 43/70/127 44/71/128 51/82/129 50/81/130
f 44/72/131 45/73/132 52/84/133 51/123/134
f 46/74/135 42/138/136 49/135/137 53/85/138
f 47/75/139 46/122/140 53/121/141 54/118/142
f 48/76/143 47/77/144 54/88/145 55/120/146
f 49/89/147 50/90/148 57/94/149 56/126/150
f 50/83/151 51/132/152 58/131/153 57/91/154
f 51/86/155 52/92/156 59/93/157 58/87/158
f 53/127/159 49/89/160 56/126/161 60/128/162
f 54/95/163 53/96/164 60/97/165 61/119/166
f 55/124/167 54/130/168 61/129/169 62/125/170
f 35/141/171 36/142/172 52/143/173 45/144/174
f 28/145/175 27/146/176 48/147/177 55/148/178
