# This file uses centimeters as units for non-parametric coordinates.

v 0.000023 4.398802 0.000000
v 0.000023 4.398802 5.000000
v 5.000023 4.398802 0.000000
v 5.000023 4.398802 5.000000
v 3.990982 4.398802 4.024416
v 3.856251 4.398802 1.310478
v 2.368637 4.398802 4.431078
v 1.025890 4.398802 1.042328
v 2.790653 4.398802 1.105236
v 1.681751 4.398802 0.565763
v 1.030510 4.398802 2.774994
v 1.752502 4.398802 3.901066
v 2.963474 4.398802 4.321609
v 3.394997 4.398802 4.079487
v 4.693390 4.398802 3.589127
v 4.693390 4.398802 2.636484
v 0.743114 4.398802 3.518677
v 0.380077 4.398802 3.625948
v 0.340164 4.398802 4.166754
v 0.895779 4.398802 4.495098
v 1.133648 4.398802 4.090603
vt 0.798056 0.032057
vt 0.798056 0.032057
vt 0.798056 0.032057
vt 0.798056 0.032057
vt 0.798056 0.032057
vt 0.798056 0.032057
vt 0.798056 0.032057
vt 0.798056 0.032057
vt 0.766880 0.032057
vt 0.766879 0.032057
vt 0.766879 0.032057
vt 0.766879 0.032057
vt 0.766879 0.032057
vt 0.766879 0.032057
vt 0.766879 0.032057
vt 0.766879 0.032057
vt 0.798056 0.032057
vt 0.766879 0.032057
vt 0.798056 0.032057
vt 0.798056 0.032057
vt 0.766879 0.032057
vt 0.798056 0.032057
vt 0.798056 0.032057
vt 0.766879 0.032057
vt 0.798056 0.032057
vt 0.798056 0.032057
vt 0.766879 0.032057
vt 0.798056 0.032057
vt 0.798056 0.032057
vt 0.772042 0.032057
vt 0.798056 0.032057
vt 0.772042 0.032057
vt 0.772042 0.032057
vt 0.798056 0.032057
vt 0.772042 0.032057
vt 0.798056 0.032057
vt 0.772042 0.032057
vt 0.798056 0.032057
vn 0.000000 -1.000000 0.000000
vn 0.000000 -1.000000 0.000000
vn 0.000000 -1.000000 0.000000
vn 0.000000 -1.000000 0.000000
vn 0.000000 -1.000000 0.000000
vn 0.000000 -1.000000 0.000000
vn 0.000000 -1.000000 0.000000
vn 0.000000 -1.000000 0.000000
vn 0.000000 -1.000000 0.000000
vn 0.000000 -1.000000 0.000000
vn 0.000000 -1.000000 0.000000
vn 0.000000 -1.000000 0.000000
vn 0.000000 -1.000000 -0.000000
vn 0.000000 -1.000000 -0.000000
vn 0.000000 -1.000000 0.000000
vn 0.000000 -1.000000 -0.000000
vn 0.000000 -1.000000 -0.000000
vn 0.000000 -1.000000 0.000000
vn 0.000000 -1.000000 0.000000
vn 0.000000 -1.000000 0.000000
vn 0.000000 -1.000000 0.000000
vn 0.000000 -1.000000 0.000000
vn 0.000000 -1.000000 0.000000
vn 0.000000 -1.000000 0.000000
vn 0.000000 -1.000000 0.000000
vn 0.000000 -1.000000 0.000000
vn 0.000000 -1.000000 0.000000
vn 0.000000 -1.000000 0.000000
vn 0.000000 -1.000000 0.000000
vn 0.000000 -1.000000 0.000000
vn 0.000000 -1.000000 0.000000
vn 0.000000 -1.000000 0.000000
vn 0.000000 -1.000000 0.000000
vn 0.000000 -1.000000 0.000000
vn 0.000000 -1.000000 0.000000
vn 0.000000 -1.000000 0.000000
vn 0.000000 -1.000000 0.000000
vn 0.000000 -1.000000 0.000000
vn 0.000000 -1.000000 0.000000
vn 0.000000 -1.000000 0.000000
vn 0.000000 -1.000000 0.000000
vn 0.000000 -1.000000 0.000000
vn 0.000000 -1.000000 0.000000
vn 0.000000 -1.000000 0.000000
vn 0.000000 -1.000000 0.000000
vn 0.000000 -1.000000 0.000000
vn 0.000000 -1.000000 0.000000
vn 0.000000 -1.000000 0.000000
vn 0.000000 -1.000000 0.000000
vn 0.000000 -1.000000 0.000000
vn 0.000000 -1.000000 0.000000
vn 0.000000 -1.000000 0.000000
s off
f 6/18/1 16/16/2 15/15/3 5/21/4 14/14/5 13/13/6 7/24/7 12/12/8 11/11/9 8/27/10 10/10/11 9/9/12
f 3/1/13 4/4/14 5/6/15 15/19/16 16/17/17 6/5/18
f 4/4/19 2/3/20 7/7/21 13/22/22 14/20/23 5/6/24
f 2/3/25 1/2/26 8/8/27 11/25/28 17/29/29 18/38/30 19/31/31
f 1/2/32 3/1/33 6/5/34 9/28/35 10/26/36 8/8/37
f 7/7/38 21/34/39 17/29/40 11/25/41 12/23/42
f 17/35/43 21/33/44 20/32/45 19/37/46 18/30/47
f 2/3/48 19/31/49 20/36/50 21/34/51 7/7/52
