# This file uses centimeters as units for non-parametric coordinates.

v 0.000000 0.000000 0.000000
v 0.000000 0.000000 5.000000
v 5.000000 0.000000 0.000000
v 5.000000 0.000000 5.000000
v 4.930747 0.000000 0.069253
v 0.069253 0.000000 0.069253
v 0.069253 0.000000 4.930747
v 4.930747 0.000000 4.930747
v 2.579624 0.000000 4.930747
v 2.579624 0.000000 0.069253
v 2.420376 0.000000 0.069253
v 2.420376 0.000000 4.930747
v 4.930747 0.000000 2.578607
v 2.579624 0.000000 2.578607
v 2.420376 0.000000 2.578607
v 0.069253 0.000000 2.578607
v 0.069253 0.000000 2.421393
v 2.420376 0.000000 2.421393
v 2.579624 0.000000 2.421393
v 4.930747 0.000000 2.421393
vt 0.262646 0.063112
vt 0.262646 0.063112
vt 0.262646 0.063112
vt 0.262646 0.063112
vt 0.387964 0.063926
vt 0.387964 0.063926
vt 0.387964 0.063926
vt 0.387964 0.063926
vt 0.262646 0.063112
vt 0.262646 0.063112
vt 0.387964 0.063926
vt 0.262646 0.063112
vt 0.262646 0.063112
vt 0.262646 0.063112
vt 0.262646 0.063112
vt 0.262646 0.063112
vt 0.262646 0.063112
vt 0.262646 0.063112
vt 0.262646 0.063112
vt 0.387964 0.063926
vt 0.262646 0.063112
vt 0.262646 0.063112
vt 0.387964 0.063926
vt 0.262646 0.063112
vt 0.262646 0.063112
vt 0.262646 0.063112
vt 0.387964 0.063926
vt 0.262646 0.063112
vt 0.262646 0.063112
vt 0.387964 0.063926
vt 0.262646 0.063112
vt 0.262646 0.063112
vt 0.262646 0.063112
vt 0.387964 0.063926
vt 0.262646 0.063112
vt 0.387964 0.063926
vt 0.262646 0.063112
vt 0.387964 0.063926
vt 0.262646 0.063112
vt 0.262646 0.063112
vt 0.387964 0.063926
vt 0.262646 0.063112
vt 0.262646 0.063112
vt 0.387964 0.063926
vt 0.262646 0.063112
vt 0.262646 0.063112
vt 0.262646 0.063112
vt 0.387964 0.063926
vt 0.262646 0.063112
vt 0.262646 0.063112
vt 0.387964 0.063926
vt 0.262646 0.063112
vt 0.262646 0.063112
vt 0.262646 0.063112
vt 0.262646 0.063112
vt 0.262646 0.063112
vt 0.262646 0.063112
vt 0.262646 0.063112
vt 0.262646 0.063112
vt 0.262646 0.063112
vn 0.000000 1.000000 0.000000
vn 0.000000 1.000000 0.000000
vn 0.000000 1.000000 0.000000
vn 0.000000 1.000000 0.000000
vn 0.000000 1.000000 0.000000
vn 0.000000 1.000000 0.000000
vn 0.000000 1.000000 0.000000
vn 0.000000 1.000000 0.000000
vn 0.000000 1.000000 0.000000
vn 0.000000 1.000000 0.000000
vn 0.000000 1.000000 0.000000
vn 0.000000 1.000000 0.000000
vn 0.000000 1.000000 0.000000
vn 0.000000 1.000000 0.000000
vn 0.000000 1.000000 0.000000
vn 0.000000 1.000000 0.000000
vn 0.000000 1.000000 0.000000
vn 0.000000 1.000000 0.000000
vn 0.000000 1.000000 0.000000
vn 0.000000 1.000000 0.000000
vn 0.000000 1.000000 0.000000
vn 0.000000 1.000000 0.000000
vn 0.000000 1.000000 0.000000
vn 0.000000 1.000000 0.000000
vn 0.000000 1.000000 0.000000
vn 0.000000 1.000000 0.000000
vn 0.000000 1.000000 0.000000
vn 0.000000 1.000000 0.000000
vn 0.000000 1.000000 0.000000
vn 0.000000 1.000000 0.000000
vn 0.000000 1.000000 0.000000
vn 0.000000 1.000000 0.000000
vn 0.000000 1.000000 0.000000
vn 0.000000 1.000000 0.000000
vn 0.000000 1.000000 0.000000
vn 0.000000 1.000000 0.000000
vn 0.000000 1.000000 0.000000
vn 0.000000 1.000000 0.000000
vn 0.000000 1.000000 0.000000
vn 0.000000 1.000000 0.000000
vn 0.000000 1.000000 0.000000
vn 0.000000 1.000000 0.000000
vn 0.000000 1.000000 0.000000
vn 0.000000 1.000000 0.000000
vn 0.000000 1.000000 0.000000
vn 0.000000 1.000000 0.000000
vn 0.000000 1.000000 0.000000
vn 0.000000 1.000000 0.000000
vn 0.000000 1.000000 0.000000
vn 0.000000 1.000000 0.000000
vn 0.000000 1.000000 0.000000
vn 0.000000 1.000000 0.000000
vn 0.000000 1.000000 0.000000
vn 0.000000 1.000000 0.000000
vn 0.000000 1.000000 0.000000
vn 0.000000 1.000000 0.000000
vn 0.000000 1.000000 0.000000
vn 0.000000 1.000000 0.000000
vn 0.000000 1.000000 0.000000
vn 0.000000 1.000000 0.000000
s off
f 3/60/1 1/3/2 6/54/3 11/49/4 10/33/5 5/31/6
f 1/59/7 2/4/8 7/46/9 16/39/10 17/29/11 6/53/12
f 2/58/13 4/2/14 8/56/15 9/52/16 12/47/17 7/45/18
f 4/57/19 3/1/20 5/32/21 20/24/22 13/43/23 8/55/24
f 9/9/25 14/42/26 15/35/27 12/12/28
f 18/28/29 19/22/30 10/10/31 11/50/32
f 13/44/33 14/41/34 9/51/35 8/8/36
f 10/34/37 19/23/38 20/20/39 5/5/40
f 6/6/41 17/30/42 18/27/43 11/11/44
f 12/48/45 15/36/46 16/38/47 7/7/48
f 19/19/49 14/40/50 13/13/51 20/25/52
f 18/18/53 15/15/54 14/14/55 19/21/56
f 16/16/57 15/37/58 18/26/59 17/17/60
