# This file uses centimeters as units for non-parametric coordinates.

v 0.000000 0.000000 -0.000004
v 5.000000 0.000000 -0.000004
v 0.000000 0.000000 -5.000004
v 5.000000 0.000000 -5.000004
v 1.562500 0.000000 -0.000004
v 1.562500 0.000000 -5.000004
v 3.437500 0.000000 -0.000004
v 3.437500 0.000000 -5.000004
v 1.562500 -0.326099 -0.000004
v 1.562500 -0.326099 -5.000004
v 3.437500 -0.326099 -0.000004
v 3.437500 -0.326099 -5.000004
v 0.000000 0.000000 -2.464494
v 1.562500 0.000000 -2.464494
v 1.562500 -0.326099 -2.464494
v 3.437500 -0.326099 -2.464494
v 3.437500 0.000000 -2.464494
v 5.000000 0.000000 -2.464494
v 0.000000 0.000000 -2.535513
v 1.562500 0.000000 -2.535513
v 1.562500 -0.326099 -2.535513
v 3.437500 -0.326099 -2.535513
v 3.437500 0.000000 -2.535513
v 5.000000 0.000000 -2.535513
vt 0.262615 0.062211
vt 0.262615 0.062211
vt 0.262615 0.062211
vt 0.262615 0.062211
vt 0.262615 0.062211
vt 0.231822 0.062211
vt 0.231822 0.062211
vt 0.262615 0.062211
vt 0.231822 0.062211
vt 0.197879 0.288566
vt 0.197879 0.288566
vt 0.231822 0.062211
vt 0.231822 0.062211
vt 0.197879 0.288566
vt 0.262615 0.062211
vt 0.197879 0.288566
vt 0.231822 0.062211
vt 0.262615 0.062211
vt 0.231822 0.062211
vt 0.231822 0.062211
vt 0.234910 0.062211
vt 0.262615 0.062211
vt 0.231822 0.062211
vt 0.231822 0.062211
vt 0.197879 0.288566
vt 0.197879 0.288566
vt 0.231822 0.062211
vt 0.231822 0.062211
vt 0.262615 0.062211
vt 0.262615 0.062211
vt 0.262615 0.062211
vt 0.234910 0.062211
vt 0.204117 0.062211
vt 0.204117 0.062211
vt 0.197879 0.288566
vt 0.197879 0.288566
vt 0.204117 0.062211
vt 0.204117 0.062211
vt 0.234910 0.062211
vt 0.234910 0.062211
vt 0.231822 0.062211
vt 0.262615 0.062211
vt 0.262615 0.062211
vt 0.231822 0.062211
vt 0.262615 0.062211
vt 0.231822 0.062211
vt 0.231822 0.062211
vt 0.234910 0.062211
vt 0.204117 0.062211
vt 0.234910 0.062211
vt 0.234910 0.062211
vt 0.204117 0.062211
vt 0.234910 0.062211
vt 0.204117 0.062211
vt 0.204117 0.062211
vt 0.262615 0.062211
vn 0.000000 1.000000 0.000000
vn 0.000000 1.000000 0.000000
vn 0.000000 1.000000 0.000000
vn 0.000000 1.000000 0.000000
vn 1.000000 0.000000 0.000000
vn 1.000000 0.000000 0.000000
vn 1.000000 0.000000 0.000000
vn 1.000000 0.000000 0.000000
vn 0.000000 1.000000 0.000000
vn 0.000000 1.000000 0.000000
vn 0.000000 1.000000 0.000000
vn 0.000000 1.000000 0.000000
vn -1.000000 0.000000 0.000000
vn -1.000000 0.000000 0.000000
vn -1.000000 0.000000 0.000000
vn -1.000000 0.000000 0.000000
vn 0.000000 1.000000 0.000000
vn 0.000000 1.000000 0.000000
vn 0.000000 1.000000 0.000000
vn 0.000000 1.000000 0.000000
vn 0.000000 1.000000 0.000000
vn 0.000000 1.000000 0.000000
vn 0.000000 1.000000 0.000000
vn 0.000000 1.000000 0.000000
vn 1.000000 0.000000 0.000000
vn 1.000000 0.000000 0.000000
vn 1.000000 0.000000 0.000000
vn 1.000000 0.000000 0.000000
vn 0.000000 1.000000 0.000000
vn 0.000000 1.000000 0.000000
vn 0.000000 1.000000 0.000000
vn 0.000000 1.000000 0.000000
vn -1.000000 0.000000 0.000000
vn -1.000000 0.000000 0.000000
vn -1.000000 0.000000 0.000000
vn -1.000000 0.000000 0.000000
vn 0.000000 1.000000 0.000000
vn 0.000000 1.000000 0.000000
vn 0.000000 1.000000 0.000000
vn 0.000000 1.000000 0.000000
vn 0.000000 1.000000 0.000000
vn 0.000000 1.000000 0.000000
vn 0.000000 1.000000 0.000000
vn 0.000000 1.000000 0.000000
vn 1.000000 0.000000 0.000000
vn 1.000000 0.000000 0.000000
vn 1.000000 0.000000 0.000000
vn 1.000000 0.000000 0.000000
vn 0.000000 1.000000 0.000000
vn 0.000000 1.000000 0.000000
vn 0.000000 1.000000 0.000000
vn 0.000000 1.000000 0.000000
vn -1.000000 0.000000 0.000000
vn -1.000000 0.000000 0.000000
vn -1.000000 0.000000 0.000000
vn -1.000000 0.000000 0.000000
vn 0.000000 1.000000 0.000000
vn 0.000000 1.000000 0.000000
vn 0.000000 1.000000 0.000000
vn 0.000000 1.000000 0.000000
s off
f 3/1/1 19/31/2 20/45/3 6/18/4
f 6/6/5 20/46/6 21/47/7 10/17/8
f 8/8/9 23/42/10 24/43/11 4/4/12
f 12/12/13 22/44/14 23/41/15 8/19/16
f 12/11/17 10/14/18 21/35/19 22/36/20
f 14/22/21 13/56/22 1/2/23 5/5/24
f 15/24/25 14/23/26 5/20/27 9/9/28
f 16/26/29 15/25/30 9/16/31 11/10/32
f 17/28/33 16/27/34 11/13/35 7/7/36
f 18/30/37 17/29/38 7/15/39 2/3/40
f 20/32/41 19/48/42 13/21/43 14/53/44
f 21/34/45 20/33/46 14/54/47 15/55/48
f 22/36/49 21/35/50 15/25/51 16/26/52
f 23/38/53 22/37/54 16/52/55 17/49/56
f 18/51/57 24/40/58 23/39/59 17/50/60
