# This file uses centimeters as units for non-parametric coordinates.

v 0.213479 2.175183 0.144603
v 0.316871 2.175183 0.144603
v 0.213479 2.624129 0.144603
v 0.316871 2.624129 0.144603
v 0.213479 2.624129 0.041211
v 0.316871 2.624129 0.041211
v 0.213479 2.175183 0.041211
v 0.316871 2.175183 0.041211
v -0.316872 2.175183 0.144603
v -0.213481 2.175183 0.144603
v -0.316872 2.624129 0.144603
v -0.213481 2.624129 0.144603
v -0.316872 2.624129 0.041211
v -0.213481 2.624129 0.041211
v -0.316872 2.175183 0.041211
v -0.213481 2.175183 0.041211
v -0.051696 2.175183 0.144603
v 0.051695 2.175183 0.144603
v -0.051696 2.624129 0.144603
v 0.051695 2.624129 0.144603
v -0.051696 2.624129 0.041211
v 0.051695 2.624129 0.041211
v -0.051696 2.175183 0.041211
v 0.051695 2.175183 0.041211
v 0.592719 2.052518 0.000000
v -0.592719 2.052518 0.000000
v 0.592719 2.746794 0.000000
v -0.592719 2.746794 0.000000
v 0.592719 2.746794 0.201163
v -0.592719 2.746794 0.201163
v 0.592719 2.052518 0.201163
v -0.592719 2.052518 0.201163
v 0.458808 2.624129 0.201163
v -0.458809 2.624129 0.201163
v -0.458809 2.175183 0.201163
v 0.458808 2.175183 0.201163
v 0.458808 2.624129 0.015863
v -0.458809 2.624129 0.015863
v -0.458809 2.175183 0.015863
v 0.458808 2.175183 0.015863
v -0.000001 2.052518 0.000000
v -0.000001 2.052518 0.201163
v -0.000001 2.175183 0.201163
v -0.000001 2.175183 0.015863
v -0.000001 2.624129 0.015863
v -0.000001 2.624129 0.201163
v -0.000001 2.746794 0.201163
v -0.000001 2.746794 0.000000
vt 0.298348 0.061741
vt 0.328122 0.061741
vt 0.298348 0.061741
vt 0.298348 0.061741
vt 0.298348 0.061741
vt 0.298348 0.061741
vt 0.298348 0.061741
vt 0.298348 0.061741
vt 0.328122 0.061741
vt 0.328122 0.061741
vt 0.328122 0.061741
vt 0.298348 0.061741
vt 0.328122 0.061741
vt 0.328122 0.061741
vt 0.328122 0.061741
vt 0.328122 0.061741
vt 0.298348 0.061741
vt 0.298348 0.061741
vt 0.298348 0.061741
vt 0.298348 0.061741
vt 0.298348 0.061741
vt 0.298348 0.061741
vt 0.298348 0.061741
vt 0.298348 0.061741
vt 0.328122 0.061741
vt 0.328122 0.061741
vt 0.328122 0.061741
vt 0.328122 0.061741
vt 0.298348 0.061741
vt 0.298348 0.061741
vt 0.298348 0.061741
vt 0.298348 0.061741
vt 0.298348 0.061741
vt 0.298348 0.061741
vt 0.298348 0.061741
vt 0.298348 0.061741
vt 0.265638 0.062939
vt 0.265638 0.062939
vt 0.265638 0.062939
vt 0.265638 0.062939
vt 0.173748 0.062668
vt 0.173748 0.062668
vt 0.173748 0.062668
vt 0.173748 0.062668
vt 0.171816 0.062939
vt 0.171816 0.062939
vt 0.171816 0.062939
vt 0.171816 0.062939
vt 0.205406 0.062939
vt 0.205406 0.062939
vt 0.205406 0.062939
vt 0.205406 0.062939
vt 0.205406 0.062939
vt 0.205406 0.062939
vt 0.205406 0.062939
vt 0.205406 0.062939
vt 0.235180 0.062939
vt 0.235180 0.062939
vt 0.235180 0.062939
vt 0.235180 0.062939
vt 0.235180 0.062939
vt 0.235180 0.062939
vt 0.235180 0.062939
vt 0.235180 0.062939
vt 0.235180 0.062939
vt 0.235180 0.062939
vt 0.235180 0.062939
vt 0.235180 0.062939
vt 0.235180 0.062939
vt 0.235180 0.062939
vt 0.235180 0.062939
vt 0.235180 0.062939
vt 0.139861 0.062668
vt 0.139861 0.062668
vt 0.139861 0.062668
vt 0.139861 0.062668
vt 0.209022 0.062939
vt 0.209022 0.062939
vt 0.209022 0.062939
vt 0.209022 0.062939
vt 0.264142 0.062939
vt 0.264142 0.062939
vt 0.264142 0.062939
vt 0.264142 0.062939
vt 0.209022 0.062939
vt 0.209022 0.062939
vt 0.209022 0.062939
vt 0.209022 0.062939
vt 0.171816 0.062939
vt 0.171816 0.062939
vt 0.235180 0.062939
vt 0.235180 0.062939
vt 0.264142 0.062939
vt 0.264142 0.062939
vt 0.173748 0.062668
vt 0.173748 0.062668
vt 0.139861 0.062668
vt 0.139861 0.062668
vt 0.235180 0.062939
vt 0.235180 0.062939
vt 0.265638 0.062939
vt 0.265638 0.062939
vn 0.000000 0.000000 1.000000
vn 0.000000 0.000000 1.000000
vn 0.000000 0.000000 1.000000
vn 0.000000 0.000000 1.000000
vn 1.000000 0.000000 0.000000
vn 1.000000 0.000000 0.000000
vn 1.000000 0.000000 0.000000
vn 1.000000 0.000000 0.000000
vn -1.000000 0.000000 0.000000
vn -1.000000 0.000000 0.000000
vn -1.000000 0.000000 0.000000
vn -1.000000 0.000000 0.000000
vn 0.000000 0.000000 1.000000
vn 0.000000 0.000000 1.000000
vn 0.000000 0.000000 1.000000
vn 0.000000 0.000000 1.000000
vn 1.000000 0.000000 0.000000
vn 1.000000 0.000000 0.000000
vn 1.000000 0.000000 0.000000
vn 1.000000 0.000000 0.000000
vn -1.000000 0.000000 0.000000
vn -1.000000 0.000000 0.000000
vn -1.000000 0.000000 0.000000
vn -1.000000 0.000000 0.000000
vn 0.000000 0.000000 1.000000
vn 0.000000 0.000000 1.000000
vn 0.000000 0.000000 1.000000
vn 0.000000 0.000000 1.000000
vn 1.000000 0.000000 0.000000
vn 1.000000 0.000000 0.000000
vn 1.000000 0.000000 0.000000
vn 1.000000 0.000000 0.000000
vn -1.000000 0.000000 0.000000
vn -1.000000 0.000000 0.000000
vn -1.000000 0.000000 0.000000
vn -1.000000 0.000000 0.000000
vn 0.000000 1.000000 0.000000
vn 0.000000 1.000000 0.000000
vn 0.000000 1.000000 0.000000
vn 0.000000 1.000000 0.000000
vn 0.000000 0.000000 1.000000
vn 0.000000 0.000000 1.000000
vn 0.000000 0.000000 1.000000
vn 0.000000 0.000000 1.000000
vn 0.000000 -1.000000 0.000000
vn 0.000000 -1.000000 0.000000
vn 0.000000 -1.000000 0.000000
vn 0.000000 -1.000000 0.000000
vn -1.000000 0.000000 0.000000
vn -1.000000 0.000000 0.000000
vn -1.000000 0.000000 0.000000
vn -1.000000 0.000000 0.000000
vn 1.000000 0.000000 0.000000
vn 1.000000 0.000000 0.000000
vn 1.000000 0.000000 0.000000
vn 1.000000 0.000000 0.000000
vn 0.000000 0.000000 1.000000
vn 0.000000 0.000000 1.000000
vn 0.000000 0.000000 1.000000
vn 0.000000 0.000000 1.000000
vn 0.000000 0.000000 1.000000
vn 0.000000 0.000000 1.000000
vn 0.000000 0.000000 1.000000
vn 0.000000 0.000000 1.000000
vn 0.000000 0.000000 1.000000
vn 0.000000 0.000000 1.000000
vn 0.000000 0.000000 1.000000
vn 0.000000 0.000000 1.000000
vn -0.000000 0.000000 1.000000
vn -0.000000 0.000000 1.000000
vn -0.000000 0.000000 1.000000
vn -0.000000 0.000000 1.000000
vn 0.000000 -1.000000 0.000000
vn 0.000000 -1.000000 0.000000
vn 0.000000 -1.000000 0.000000
vn 0.000000 -1.000000 0.000000
vn 1.000000 0.000000 0.000000
vn 1.000000 0.000000 0.000000
vn 1.000000 0.000000 0.000000
vn 1.000000 0.000000 0.000000
vn 0.000000 1.000000 0.000000
vn 0.000000 1.000000 0.000000
vn 0.000000 1.000000 0.000000
vn 0.000000 1.000000 0.000000
vn -1.000000 0.000000 0.000000
vn -1.000000 0.000000 0.000000
vn -1.000000 0.000000 0.000000
vn -1.000000 0.000000 0.000000
vn 0.000000 -1.000000 0.000000
vn 0.000000 -1.000000 0.000000
vn 0.000000 -1.000000 0.000000
vn 0.000000 -1.000000 0.000000
vn 0.000000 0.000000 1.000000
vn 0.000000 0.000000 1.000000
vn 0.000000 0.000000 1.000000
vn 0.000000 0.000000 1.000000
vn 0.000000 1.000000 0.000000
vn 0.000000 1.000000 0.000000
vn 0.000000 1.000000 0.000000
vn 0.000000 1.000000 0.000000
vn 0.000000 0.000000 1.000000
vn 0.000000 0.000000 1.000000
vn 0.000000 0.000000 1.000000
vn 0.000000 0.000000 1.000000
vn 0.000000 -1.000000 0.000000
vn 0.000000 -1.000000 0.000000
vn 0.000000 -1.000000 0.000000
vn 0.000000 -1.000000 0.000000
vn 0.000000 0.000000 1.000000
vn 0.000000 0.000000 1.000000
vn 0.000000 0.000000 1.000000
vn 0.000000 0.000000 1.000000
vn 0.000000 1.000000 0.000000
vn 0.000000 1.000000 0.000000
vn 0.000000 1.000000 0.000000
vn 0.000000 1.000000 0.000000
s off
f 1/10/1 2/2/2 4/9/3 3/11/4
f 2/8/5 8/4/6 6/5/7 4/3/8
f 7/6/9 1/1/10 3/12/11 5/7/12
f 9/13/13 10/14/14 12/15/15 11/16/16
f 10/17/17 16/18/18 14/19/19 12/20/20
f 15/21/21 9/22/22 11/23/23 13/24/24
f 17/25/25 18/26/26 20/27/27 19/28/28
f 18/29/29 24/30/30 22/31/31 20/32/32
f 23/33/33 17/34/34 19/35/35 21/36/36
f 47/37/37 48/38/38 28/39/39 30/40/40
f 44/41/41 45/42/42 38/43/43 39/44/44
f 41/45/45 42/46/46 32/47/47 26/48/48
f 26/49/49 32/50/50 30/51/51 28/52/52
f 31/53/53 25/54/54 27/55/55 29/56/56
f 46/57/57 47/58/58 30/59/59 34/60/60
f 30/61/61 32/62/62 35/63/63 34/64/64
f 32/65/65 42/66/66 43/67/67 35/68/68
f 31/69/69 29/70/70 33/71/71 36/72/72
f 45/73/73 46/74/74 34/75/75 38/76/76
f 34/77/77 35/78/78 39/79/79 38/80/80
f 35/81/81 43/82/82 44/83/83 39/84/84
f 36/85/85 33/86/86 37/87/87 40/88/88
f 31/89/89 42/46/90 41/45/91 25/90/92
f 43/67/93 42/66/94 31/91/95 36/92/96
f 44/83/97 43/82/98 36/93/99 40/94/100
f 37/95/101 45/42/102 44/41/103 40/96/104
f 33/97/105 46/74/106 45/73/107 37/98/108
f 29/99/109 47/58/110 46/57/111 33/100/112
f 27/101/113 48/38/114 47/37/115 29/102/116
