# This file uses centimeters as units for non-parametric coordinates.

v 0.539030 -0.034875 -4.192677
v 0.907018 -0.007044 -4.505876
v 0.546384 0.029916 -4.223361
v 0.893543 0.050869 -4.518215
v 0.404591 0.034424 -4.548755
v 0.615677 0.051342 -4.839365
v 0.388439 -0.021521 -4.547395
v 0.613075 -0.012942 -4.858194
v 0.734387 0.006176 -1.502703
v 0.721556 0.002555 -1.668638
v 0.734387 0.034220 -1.502703
v 0.721556 0.037841 -1.668638
v 0.459348 0.031964 -1.466834
v 0.419523 0.034819 -1.591856
v 0.459348 0.008432 -1.466834
v 0.419523 0.005578 -1.591856
v 0.526778 -0.012925 -0.243510
v 0.594233 -0.019396 -0.321981
v 0.526523 0.020561 -0.226791
v 0.593891 0.025463 -0.299577
v 0.312264 0.024678 -0.255221
v 0.406181 0.029320 -0.423111
v 0.312470 -0.001723 -0.268404
v 0.406450 -0.006045 -0.440766
v 0.030994 -0.013424 -0.919356
v 0.398729 -0.013424 -0.856594
v 0.055721 0.036896 -0.935265
v 0.384024 0.045370 -0.882344
v 0.149789 0.041214 -1.176882
v 0.406616 0.049127 -1.199942
v 0.143354 -0.006021 -1.197042
v 0.430977 0.000619 -1.221644
v 1.076959 -0.005774 -4.547435
v 1.186473 -0.005774 -4.595295
v 1.076959 0.050605 -4.547435
v 1.186473 0.050605 -4.595295
v 1.029097 0.050605 -4.656948
v 1.138611 0.050605 -4.704808
v 1.029097 -0.005774 -4.656948
v 1.138611 -0.005774 -4.704808
v 0.961697 -0.000844 -0.895950
v 1.067799 -0.000844 -0.816460
v 0.961697 0.057734 -0.895950
v 1.067799 0.057734 -0.816460
v 1.041184 0.057734 -1.002051
v 1.147285 0.057734 -0.922562
v 1.041184 -0.000844 -1.002051
v 1.147285 -0.000844 -0.922562
v 0.652664 0.007307 -1.831729
v 0.555938 0.007307 -1.297925
v 0.987606 0.007307 -1.771031
v 0.890878 0.007307 -1.237234
v 0.478460 0.004041 -3.710868
v 0.922737 0.004041 -3.399553
v 0.673795 0.004041 -3.989637
v 1.118080 0.004041 -3.678325
vt 0.234424 0.060274
vt 0.234424 0.060274
vt 0.234424 0.060274
vt 0.234424 0.060274
vt 0.295301 0.060274
vt 0.295301 0.060274
vt 0.295301 0.060274
vt 0.295301 0.060274
vt 0.234424 0.060274
vt 0.234424 0.060274
vt 0.234424 0.060274
vt 0.234424 0.060274
vt 0.266033 0.060274
vt 0.266033 0.060274
vt 0.266033 0.060274
vt 0.266033 0.060274
vt 0.266033 0.060274
vt 0.266033 0.060274
vt 0.266033 0.060274
vt 0.266033 0.060274
vt 0.200474 0.060274
vt 0.200474 0.060274
vt 0.200474 0.060274
vt 0.200474 0.060274
vt 0.261350 0.060274
vt 0.261350 0.060274
vt 0.261350 0.060274
vt 0.261350 0.060274
vt 0.200474 0.060274
vt 0.200474 0.060274
vt 0.200474 0.060274
vt 0.200474 0.060274
vt 0.232083 0.060274
vt 0.232083 0.060274
vt 0.232083 0.060274
vt 0.232083 0.060274
vt 0.232083 0.060274
vt 0.232083 0.060274
vt 0.232083 0.060274
vt 0.232083 0.060274
vt 0.234424 0.060274
vt 0.234424 0.060274
vt 0.234424 0.060274
vt 0.234424 0.060274
vt 0.295301 0.060274
vt 0.295301 0.060274
vt 0.295301 0.060274
vt 0.295301 0.060274
vt 0.234424 0.060274
vt 0.234424 0.060274
vt 0.234424 0.060274
vt 0.234424 0.060274
vt 0.266033 0.060274
vt 0.266033 0.060274
vt 0.266033 0.060274
vt 0.266033 0.060274
vt 0.266033 0.060274
vt 0.266033 0.060274
vt 0.266033 0.060274
vt 0.266033 0.060274
vt 0.202339 0.061180
vt 0.202339 0.061180
vt 0.202339 0.061180
vt 0.202339 0.061180
vt 0.235959 0.060274
vt 0.235959 0.060274
vt 0.235959 0.060274
vt 0.235959 0.060274
vt 0.204994 0.060274
vt 0.204994 0.060274
vt 0.204994 0.060274
vt 0.204994 0.060274
vt 0.202339 0.061180
vt 0.202339 0.061180
vt 0.206691 0.060274
vt 0.206691 0.060274
vt 0.206691 0.060274
vt 0.206691 0.060274
vt 0.233213 0.060874
vt 0.233213 0.060874
vt 0.233213 0.060874
vt 0.233213 0.060874
vt 0.293975 0.060874
vt 0.293975 0.060874
vt 0.293975 0.060874
vt 0.293975 0.060874
vt 0.233213 0.060874
vt 0.233213 0.060874
vt 0.233213 0.060874
vt 0.233213 0.060874
vt 0.259674 0.060874
vt 0.259674 0.060874
vt 0.259674 0.060874
vt 0.259674 0.060874
vt 0.259674 0.060874
vt 0.259674 0.060874
vt 0.259674 0.060874
vt 0.259674 0.060874
vt 0.233213 0.060874
vt 0.233213 0.060874
vt 0.233213 0.060874
vt 0.233213 0.060874
vt 0.293975 0.060874
vt 0.293975 0.060874
vt 0.293975 0.060874
vt 0.293975 0.060874
vt 0.233213 0.060874
vt 0.233213 0.060874
vt 0.233213 0.060874
vt 0.233213 0.060874
vt 0.259674 0.060874
vt 0.259674 0.060874
vt 0.259674 0.060874
vt 0.259674 0.060874
vt 0.259674 0.060874
vt 0.259674 0.060874
vt 0.259674 0.060874
vt 0.259674 0.060874
vt 0.362700 0.060874
vt 0.362700 0.060874
vt 0.362700 0.060874
vt 0.362700 0.060874
vt 0.330227 0.059526
vt 0.330227 0.059526
vt 0.330227 0.059526
vt 0.330227 0.059526
vn 0.608497 0.289436 0.738890
vn 0.608497 0.289436 0.738890
vn 0.608497 0.289436 0.738890
vn 0.608497 0.289436 0.738890
vn -0.035517 0.998896 0.030749
vn -0.035517 0.998896 0.030749
vn -0.035517 0.998896 0.030749
vn -0.035517 0.998896 0.030749
vn -0.796442 0.206804 -0.568254
vn -0.796442 0.206804 -0.568254
vn -0.796442 0.206804 -0.568254
vn -0.796442 0.206804 -0.568254
vn 0.757941 0.101667 -0.644351
vn 0.757941 0.101667 -0.644351
vn 0.757941 0.101667 -0.644351
vn 0.757941 0.101667 -0.644351
vn -0.880929 0.273934 0.385908
vn -0.880929 0.273934 0.385908
vn -0.880929 0.273934 0.385908
vn -0.880929 0.273934 0.385908
vn 0.997024 0.000000 -0.077098
vn 0.997024 0.000000 -0.077098
vn 0.997024 0.000000 -0.077098
vn 0.997024 0.000000 -0.077098
vn -0.004639 0.999723 0.023090
vn -0.004639 0.999723 0.023090
vn -0.004639 0.999723 0.023090
vn -0.004639 0.999723 0.023090
vn -0.952826 0.000000 0.303516
vn -0.952826 0.000000 0.303516
vn -0.952826 0.000000 0.303516
vn -0.952826 0.000000 0.303516
vn -0.246381 0.000000 -0.969173
vn -0.246381 0.000000 -0.969173
vn -0.246381 0.000000 -0.969173
vn -0.246381 0.000000 -0.969173
vn 0.129320 0.000000 0.991603
vn 0.129320 0.000000 0.991603
vn 0.129320 0.000000 0.991603
vn 0.129320 0.000000 0.991603
vn 0.707808 -0.311267 0.634130
vn 0.707808 -0.311267 0.634130
vn 0.707808 -0.311267 0.634130
vn 0.707808 -0.311267 0.634130
vn 0.003861 0.999101 0.042209
vn 0.003861 0.999101 0.042209
vn 0.003861 0.999101 0.042209
vn 0.003861 0.999101 0.042209
vn -0.852353 0.228350 -0.470480
vn -0.852353 0.228350 -0.470480
vn -0.852353 0.228350 -0.470480
vn -0.852353 0.228350 -0.470480
vn 0.512486 0.386739 -0.766675
vn 0.512486 0.386739 -0.766675
vn 0.512486 0.386739 -0.766675
vn 0.512486 0.386739 -0.766675
vn -0.126248 -0.443926 0.887125
vn -0.126248 -0.443926 0.887125
vn -0.126248 -0.443926 0.887125
vn -0.126248 -0.443926 0.887125
vn -0.156972 0.364814 0.917753
vn -0.156972 0.364814 0.917753
vn -0.156972 0.364814 0.917753
vn -0.156972 0.364814 0.917753
vn -0.028427 0.999560 0.008503
vn -0.028427 0.999560 0.008503
vn -0.028427 0.999560 0.008503
vn -0.028427 0.999560 0.008503
vn -0.090697 0.384667 -0.918589
vn -0.090697 0.384667 -0.918589
vn -0.090697 0.384667 -0.918589
vn -0.090697 0.384667 -0.918589
vn 0.935309 0.343692 0.084099
vn 0.935309 0.343692 0.084099
vn 0.935309 0.343692 0.084099
vn 0.935309 0.343692 0.084099
vn -0.889031 0.299096 -0.346649
vn -0.889031 0.299096 -0.346649
vn -0.889031 0.299096 -0.346649
vn -0.889031 0.299096 -0.346649
vn 0.400451 0.000000 0.916318
vn 0.400451 0.000000 0.916318
vn 0.400451 0.000000 0.916318
vn 0.400451 0.000000 0.916318
vn 0.000000 1.000000 0.000000
vn 0.000000 1.000000 0.000000
vn 0.000000 1.000000 0.000000
vn 0.000000 1.000000 0.000000
vn -0.400455 0.000000 -0.916316
vn -0.400455 0.000000 -0.916316
vn -0.400455 0.000000 -0.916316
vn -0.400455 0.000000 -0.916316
vn 0.916312 0.000000 -0.400466
vn 0.916312 0.000000 -0.400466
vn 0.916312 0.000000 -0.400466
vn 0.916312 0.000000 -0.400466
vn -0.916311 0.000000 0.400467
vn -0.916311 0.000000 0.400467
vn -0.916311 0.000000 0.400467
vn -0.916311 0.000000 0.400467
vn -0.599584 0.000000 0.800312
vn -0.599584 0.000000 0.800312
vn -0.599584 0.000000 0.800312
vn -0.599584 0.000000 0.800312
vn 0.000000 1.000000 0.000000
vn 0.000000 1.000000 0.000000
vn 0.000000 1.000000 0.000000
vn 0.000000 1.000000 0.000000
vn 0.599578 0.000000 -0.800316
vn 0.599578 0.000000 -0.800316
vn 0.599578 0.000000 -0.800316
vn 0.599578 0.000000 -0.800316
vn 0.800328 0.000000 0.599562
vn 0.800328 0.000000 0.599562
vn 0.800328 0.000000 0.599562
vn 0.800328 0.000000 0.599562
vn -0.800321 0.000000 -0.599572
vn -0.800321 0.000000 -0.599572
vn -0.800321 0.000000 -0.599572
vn -0.800321 0.000000 -0.599572
vn 0.000000 1.000000 0.000000
vn 0.000000 1.000000 0.000000
vn 0.000000 1.000000 0.000000
vn 0.000000 1.000000 0.000000
vn 0.000000 1.000000 0.000000
vn 0.000000 1.000000 0.000000
vn 0.000000 1.000000 0.000000
vn 0.000000 1.000000 0.000000
s off
f 1/1/1 2/2/2 4/3/3 3/4/4
f 3/5/5 4/6/6 6/7/7 5/8/8
f 5/9/9 6/10/10 8/11/11 7/12/12
f 2/13/13 8/14/14 6/15/15 4/16/16
f 7/17/17 1/18/18 3/19/19 5/20/20
f 9/21/21 10/22/22 12/23/23 11/24/24
f 11/25/25 12/26/26 14/27/27 13/28/28
f 13/29/29 14/30/30 16/31/31 15/32/32
f 10/33/33 16/34/34 14/35/35 12/36/36
f 15/37/37 9/38/38 11/39/39 13/40/40
f 17/41/41 18/42/42 20/43/43 19/44/44
f 19/45/45 20/46/46 22/47/47 21/48/48
f 21/49/49 22/50/50 24/51/51 23/52/52
f 18/53/53 24/54/54 22/55/55 20/56/56
f 23/57/57 17/58/58 19/59/59 21/60/60
f 25/61/61 26/62/62 28/63/63 27/64/64
f 27/65/65 28/66/66 30/67/67 29/68/68
f 29/69/69 30/70/70 32/71/71 31/72/72
f 26/62/73 32/73/74 30/74/75 28/63/76
f 31/75/77 25/76/78 27/77/79 29/78/80
f 33/79/81 34/80/82 36/81/83 35/82/84
f 35/83/85 36/84/86 38/85/87 37/86/88
f 37/87/89 38/88/90 40/89/91 39/90/92
f 34/91/93 40/92/94 38/93/95 36/94/96
f 39/95/97 33/96/98 35/97/99 37/98/100
f 41/99/101 42/100/102 44/101/103 43/102/104
f 43/103/105 44/104/106 46/105/107 45/106/108
f 45/107/109 46/108/110 48/109/111 47/110/112
f 42/111/113 48/112/114 46/113/115 44/114/116
f 47/115/117 41/116/118 43/117/119 45/118/120
f 49/119/121 50/120/122 52/121/123 51/122/124
f 53/123/125 54/124/126 56/125/127 55/126/128
