# This file uses centimeters as units for non-parametric coordinates.

v 1.808736 -0.328569 -0.908997
v 1.955909 -0.328569 -0.835972
v 1.836152 -0.297992 -0.918229
v 1.946677 -0.297992 -0.863388
v 1.890992 -0.297992 -1.028754
v 2.001517 -0.297992 -0.973913
v 1.881760 -0.328569 -1.056170
v 2.028933 -0.328569 -0.983145
v 1.670298 -0.328569 -0.508330
v 1.957831 -0.328569 -0.539101
v 1.702266 -0.274751 -0.547961
v 1.918200 -0.274751 -0.571070
v 1.679157 -0.274751 -0.763894
v 1.895091 -0.274751 -0.787003
v 1.639527 -0.328569 -0.795863
v 1.927060 -0.328569 -0.826634
v 1.831164 -0.328569 -0.462861
v 2.029520 -0.328569 -0.439851
v 1.858726 -0.291406 -0.484693
v 2.007689 -0.291406 -0.467413
v 1.876006 -0.291406 -0.633655
v 2.024968 -0.291406 -0.616376
v 1.854174 -0.328569 -0.661217
v 2.052530 -0.328569 -0.638207
vt 0.673675 0.046965
vt 0.703449 0.046965
vt 0.733906 0.046965
vt 0.673675 0.046965
vt 0.703449 0.046965
vt 0.733906 0.046965
vt 0.703449 0.046965
vt 0.673675 0.046965
vt 0.673675 0.046965
vt 0.673675 0.046965
vt 0.673675 0.046965
vt 0.703449 0.046965
vt 0.733906 0.046965
vt 0.703449 0.046965
vt 0.673675 0.046965
vt 0.703449 0.046965
vt 0.733906 0.046965
vt 0.703449 0.046965
vt 0.703449 0.046965
vt 0.673675 0.046965
vt 0.703449 0.046965
vt 0.703449 0.046965
vt 0.703449 0.046965
vt 0.703449 0.046965
vt 0.733906 0.046965
vt 0.733906 0.046965
vt 0.733906 0.046965
vt 0.733906 0.046965
vt 0.703449 0.046965
vt 0.703449 0.046965
vt 0.703449 0.046965
vt 0.703449 0.046965
vt 0.673675 0.046965
vt 0.673675 0.046965
vt 0.673675 0.046965
vt 0.673675 0.046965
vt 0.673675 0.046965
vt 0.673675 0.046965
vt 0.673675 0.046965
vt 0.673675 0.046965
vt 0.703449 0.046965
vt 0.703449 0.046965
vt 0.703449 0.046965
vt 0.703449 0.046965
vt 0.733906 0.046965
vt 0.733906 0.046965
vt 0.733906 0.046965
vt 0.733906 0.046965
vt 0.703449 0.046965
vt 0.703449 0.046965
vt 0.703449 0.046965
vt 0.703449 0.046965
vt 0.673675 0.046965
vt 0.673675 0.046965
vt 0.673675 0.046965
vt 0.673675 0.046965
vt 0.673675 0.046965
vt 0.673675 0.046965
vt 0.673675 0.046965
vt 0.673675 0.046965
vn -0.369427 0.556039 0.744543
vn -0.369427 0.556039 0.744543
vn -0.369427 0.556039 0.744543
vn -0.369427 0.556039 0.744543
vn 0.000000 1.000000 0.000000
vn 0.000000 1.000000 0.000000
vn 0.000000 1.000000 0.000000
vn 0.000000 1.000000 0.000000
vn 0.369427 0.556040 -0.744542
vn 0.369427 0.556040 -0.744542
vn 0.369427 0.556040 -0.744542
vn 0.369427 0.556040 -0.744542
vn 0.744543 0.556039 0.369427
vn 0.744543 0.556039 0.369427
vn 0.744543 0.556039 0.369427
vn 0.744543 0.556039 0.369427
vn -0.744544 0.556037 -0.369428
vn -0.744544 0.556037 -0.369428
vn -0.744544 0.556037 -0.369428
vn -0.744544 0.556037 -0.369428
vn 0.088444 0.556038 0.826438
vn 0.088444 0.556038 0.826438
vn 0.088444 0.556038 0.826438
vn 0.088444 0.556038 0.826438
vn 0.000000 1.000000 -0.000000
vn 0.000000 1.000000 -0.000000
vn 0.000000 1.000000 -0.000000
vn 0.000000 1.000000 -0.000000
vn -0.088444 0.556038 -0.826437
vn -0.088444 0.556038 -0.826437
vn -0.088444 0.556038 -0.826437
vn -0.088444 0.556038 -0.826437
vn 0.826437 0.556039 -0.088444
vn 0.826437 0.556039 -0.088444
vn 0.826437 0.556039 -0.088444
vn 0.826437 0.556039 -0.088444
vn -0.826437 0.556039 0.088444
vn -0.826437 0.556039 0.088444
vn -0.826437 0.556039 0.088444
vn -0.826437 0.556039 0.088444
vn -0.095774 0.556039 0.825620
vn -0.095774 0.556039 0.825620
vn -0.095774 0.556039 0.825620
vn -0.095774 0.556039 0.825620
vn 0.000000 1.000000 -0.000000
vn 0.000000 1.000000 -0.000000
vn 0.000000 1.000000 -0.000000
vn 0.000000 1.000000 -0.000000
vn 0.095773 0.556040 -0.825620
vn 0.095773 0.556040 -0.825619
vn 0.095773 0.556040 -0.825619
vn 0.095774 0.556040 -0.825619
vn 0.825621 0.556038 0.095774
vn 0.825621 0.556038 0.095774
vn 0.825621 0.556038 0.095774
vn 0.825621 0.556038 0.095774
vn -0.825620 0.556039 -0.095773
vn -0.825620 0.556039 -0.095773
vn -0.825620 0.556039 -0.095773
vn -0.825620 0.556039 -0.095773
s off
f 1/18/1 2/2/2 4/16/3 3/19/4
f 3/3/5 4/17/6 6/6/7 5/13/8
f 5/5/9 6/12/10 8/7/11 7/14/12
f 2/15/13 8/8/14 6/9/15 4/4/16
f 7/10/17 1/1/18 3/20/19 5/11/20
f 9/21/21 10/22/22 12/23/23 11/24/24
f 11/25/25 12/26/26 14/27/27 13/28/28
f 13/29/29 14/30/30 16/31/31 15/32/32
f 10/33/33 16/34/34 14/35/35 12/36/36
f 15/37/37 9/38/38 11/39/39 13/40/40
f 17/41/41 18/42/42 20/43/43 19/44/44
f 19/45/45 20/46/46 22/47/47 21/48/48
f 21/49/49 22/50/50 24/51/51 23/52/52
f 18/53/53 24/54/54 22/55/55 20/56/56
f 23/57/57 17/58/58 19/59/59 21/60/60
