# This file uses centimeters as units for non-parametric coordinates.

v 5.000000 0.000000 0.000000
v 0.000000 0.000000 0.000000
v 0.000000 3.750000 0.000000
v 5.000000 3.750000 0.000000
v 0.000000 3.750000 0.000000
v 5.000000 3.750000 0.000000
v 5.000000 3.750000 0.000000
v 3.750000 3.289159 0.000000
v 3.750000 0.000000 0.000000
v 0.000000 3.750000 0.000000
v 1.250000 3.289159 0.000000
v 1.250000 0.000000 0.000000
v 1.250000 3.289159 0.117511
v 1.250000 0.000000 0.117511
v 3.750000 0.000000 0.117511
v 3.750000 3.289159 0.117511
v 1.685884 2.901819 0.117511
v 1.685884 0.000000 0.117511
v 3.314116 0.000000 0.117511
v 3.314116 2.901819 0.117511
v 1.685884 2.901819 0.000000
v 1.685884 0.000000 0.000000
v 3.314116 0.000000 0.000000
v 3.314116 2.901819 0.000000
vt 0.298747 0.062211
vt 0.298747 0.062211
vt 0.298747 0.062211
vt 0.298747 0.062211
vt 0.298747 0.062211
vt 0.298747 0.062211
vt 0.298747 0.062211
vt 0.333327 0.062211
vt 0.227492 0.062211
vt 0.298747 0.062211
vt 0.227492 0.062211
vt 0.298747 0.062211
vt 0.261024 0.062211
vt 0.227492 0.062211
vt 0.261024 0.062211
vt 0.261024 0.062211
vt 0.227492 0.062211
vt 0.261024 0.062211
vt 0.227492 0.062211
vt 0.201295 0.062211
vt 0.227492 0.062211
vt 0.227492 0.062211
vt 0.227492 0.062211
vt 0.201295 0.062211
vt 0.333327 0.062211
vt 0.298747 0.062211
vt 0.333327 0.062211
vt 0.333327 0.062211
vt 0.227492 0.062211
vt 0.227492 0.062211
vt 0.261024 0.062211
vt 0.201295 0.062211
vt 0.227492 0.062211
vt 0.261024 0.062211
vt 0.227492 0.062211
vt 0.227492 0.062211
vt 0.227492 0.062211
vt 0.298747 0.062211
vt 0.227492 0.062211
vt 0.261024 0.062211
vt 0.227492 0.062211
vt 0.298747 0.062211
vt 0.261024 0.062211
vt 0.201295 0.062211
vt 0.261024 0.062211
vt 0.261024 0.062211
vt 0.261024 0.062211
vt 0.261024 0.062211
vn -0.000000 0.000000 1.000000
vn -0.000000 0.000000 1.000000
vn -0.000000 0.000000 1.000000
vn -0.000000 0.000000 1.000000
vn 0.000000 0.000000 0.000000
vn 0.000000 0.000000 0.000000
vn 0.000000 0.000000 0.000000
vn 0.000000 0.000000 0.000000
vn 0.000000 0.000000 1.000000
vn 0.000000 0.000000 1.000000
vn 0.000000 0.000000 1.000000
vn 0.000000 0.000000 1.000000
vn 0.000000 0.000000 0.000000
vn 0.000000 0.000000 0.000000
vn 0.000000 0.000000 0.000000
vn 0.000000 0.000000 0.000000
vn -0.000000 0.000000 1.000000
vn -0.000000 0.000000 1.000000
vn -0.000000 0.000000 1.000000
vn -0.000000 0.000000 1.000000
vn -1.000000 0.000000 0.000000
vn -1.000000 0.000000 0.000000
vn -1.000000 0.000000 0.000000
vn -1.000000 0.000000 0.000000
vn 1.000000 0.000000 0.000000
vn 1.000000 0.000000 0.000000
vn 1.000000 0.000000 0.000000
vn 1.000000 0.000000 0.000000
vn 0.000000 1.000000 0.000000
vn 0.000000 1.000000 0.000000
vn 0.000000 1.000000 0.000000
vn 0.000000 1.000000 0.000000
vn -0.000000 0.000000 1.000000
vn -0.000000 0.000000 1.000000
vn -0.000000 0.000000 1.000000
vn -0.000000 0.000000 1.000000
vn 0.000000 0.000000 1.000000
vn 0.000000 0.000000 1.000000
vn 0.000000 0.000000 1.000000
vn 0.000000 0.000000 1.000000
vn 0.000000 0.000000 1.000000
vn 0.000000 0.000000 1.000000
vn 0.000000 0.000000 1.000000
vn 0.000000 0.000000 1.000000
vn 1.000000 0.000000 0.000000
vn 1.000000 0.000000 0.000000
vn 1.000000 0.000000 0.000000
vn 1.000000 0.000000 0.000000
vn -1.000000 0.000000 0.000000
vn -1.000000 0.000000 0.000000
vn -1.000000 0.000000 0.000000
vn -1.000000 0.000000 0.000000
vn 0.000000 -1.000000 0.000000
vn 0.000000 -1.000000 0.000000
vn 0.000000 -1.000000 0.000000
vn 0.000000 -1.000000 0.000000
s off
f 8/26/1 9/38/2 1/2/3 4/4/4
f 7/7/5 8/26/6 4/4/7 6/6/8
f 8/26/9 7/7/10 10/10/11 11/42/12
f 3/3/13 11/42/14 10/10/15 5/5/16
f 2/1/17 12/12/18 11/42/19 3/3/20
f 11/11/21 12/41/22 14/14/23 13/39/24
f 9/9/25 8/37/26 16/35/27 15/36/28
f 13/27/29 16/25/30 8/8/31 11/28/32
f 13/13/33 14/40/34 18/18/35 17/34/36
f 15/15/37 16/47/38 20/45/39 19/31/40
f 17/46/41 20/43/42 16/16/43 13/48/44
f 17/17/45 18/33/46 22/22/47 21/21/48
f 19/19/49 20/30/50 24/29/51 23/23/52
f 21/32/53 24/24/54 20/20/55 17/44/56
