# This file uses centimeters as units for non-parametric coordinates.

v 1.469381 0.865004 -0.098703
v 1.469381 0.865004 -0.062984
v 1.469381 1.468193 -0.098703
v 1.469381 1.468193 -0.062984
v 3.515207 1.468193 -0.098703
v 3.515207 1.468193 -0.062984
v 3.515207 0.865004 -0.098703
v 3.515207 0.865004 -0.062984
v 1.897045 0.951983 -0.098703
v 1.897045 0.951983 -0.062984
v 2.199194 0.865004 -0.062984
v 1.991646 1.250650 -0.062984
v 1.991646 1.250650 -0.098703
v 2.179579 1.076607 -0.062984
v 2.179579 1.076607 -0.098703
v 2.466022 1.254178 -0.062984
v 2.466022 1.254178 -0.098703
v 2.801279 1.057298 -0.062984
v 2.801279 1.057298 -0.098703
v 1.628416 1.156772 -0.098703
v 1.628416 1.156772 -0.062984
v 3.279833 1.182732 -0.062984
v 3.279833 1.182732 -0.098703
v 3.957737 0.840052 -0.266870
v 3.957737 0.840052 -0.160118
v 3.930828 1.585277 -0.266870
v 3.930828 1.585277 -0.160118
v 0.839371 1.473643 -0.266870
v 0.839371 1.473643 -0.160118
v 0.866280 0.728418 -0.266870
v 0.866280 0.728418 -0.160118
v 3.919962 1.776745 -0.266870
v 3.919962 1.776745 -0.160118
v 3.971191 2.520694 -0.266870
v 3.971191 2.520694 -0.160118
v 0.885027 2.733214 -0.266870
v 0.885027 2.733214 -0.160118
v 0.833797 1.989265 -0.266870
v 0.833797 1.989265 -0.160118
v 4.158916 2.492943 -0.322174
v 4.158916 2.492943 -0.240393
v 4.156853 3.238651 -0.322174
v 4.156853 3.238651 -0.240393
v 0.530258 3.228621 -0.322174
v 0.530258 3.228621 -0.240393
v 0.532322 2.482913 -0.322174
v 0.532322 2.482913 -0.240393
v 4.102386 3.228840 -0.266870
v 4.102386 3.228840 -0.160118
v 4.080311 3.974224 -0.266870
v 4.080311 3.974224 -0.160118
v 0.988194 3.882654 -0.266870
v 0.988194 3.882654 -0.160118
v 1.010269 3.137270 -0.266870
v 1.010269 3.137270 -0.160118
v 3.701357 3.956069 0.054874
v 3.495287 3.750000 0.054874
v 3.701357 3.956069 0.000000
v 0.000002 0.206069 0.000000
v 1.289217 3.956069 0.054874
v 1.495287 3.750000 0.054874
v 1.289217 3.956069 0.000000
v 5.000002 4.208395 0.000000
v 0.000002 4.208395 0.000000
v 0.000002 4.208395 0.054874
v 5.000002 4.208395 0.054874
v 0.000002 4.414464 0.054874
v 5.000002 4.414464 0.054874
v 5.000002 4.208395 0.000000
v 5.000002 0.206069 0.000000
v 1.289225 0.644202 0.054874
v 1.495295 0.850271 0.054874
v 1.289217 0.644202 0.000000
v 3.701357 0.644202 0.054874
v 3.495287 0.850271 0.054874
v 3.701357 0.644202 0.000000
v 0.000002 -0.270663 0.054874
v 5.000002 -0.270663 0.054874
v 0.000002 0.206069 0.054874
v 5.000002 0.206069 0.054874
v 3.495287 3.750000 -0.160999
v 1.495287 3.750000 -0.160999
v 1.495295 0.850271 -0.160999
v 3.495287 0.850271 -0.160999
v 3.670103 4.080242 -0.160999
v 1.320473 4.080242 -0.160999
v 3.670103 4.080242 -0.333967
v 1.320473 4.080242 -0.333967
v 1.320480 0.520029 -0.160999
v 1.320480 0.520029 -0.333967
v 3.670103 0.520029 -0.160999
v 3.670103 0.520029 -0.333967
v 1.289217 0.779773 0.000000
v 0.625183 0.563808 0.000000
v 3.288403 0.644202 0.000000
v 4.486584 0.206069 0.000000
v 4.169724 0.364739 0.000000
v 2.566292 0.850271 -0.163006
v 2.566292 0.850271 -0.021002
v 2.566292 3.756805 -0.163006
v 2.566292 3.756805 -0.021002
v 2.424290 3.756805 -0.163006
v 2.424290 3.756805 -0.021002
v 2.424290 0.850271 -0.163006
v 2.424290 0.850271 -0.021002
v 3.588768 2.371137 -0.129482
v 3.588768 2.371137 0.012520
v 1.371992 2.371137 -0.129482
v 1.371992 2.371137 0.012520
v 1.371992 2.229134 -0.129482
v 1.371992 2.229134 0.012520
v 3.588768 2.229134 -0.129482
v 3.588768 2.229134 0.012520
v 3.029079 3.956069 0.000000
v 3.736790 4.028021 0.000000
v 3.701357 2.151883 0.000000
v 3.308636 4.026071 0.000000
v 3.781502 3.192975 0.000000
v 3.865974 2.859895 0.000000
v 3.701357 1.527765 0.000000
v 3.894815 2.151134 0.000000
v 3.957737 1.345719 -0.321476
v 3.957737 1.345719 -0.214724
v 3.930828 2.090944 -0.321476
v 3.930828 2.090944 -0.214724
v 0.839371 1.979310 -0.321476
v 0.839371 1.979310 -0.214724
v 0.866280 1.234085 -0.321476
v 0.866280 1.234085 -0.214724
v 0.804142 4.208395 0.000000
v 2.363068 4.208395 0.000000
v 1.646795 4.085951 0.000000
vt 0.330306 0.084655
vt 0.391069 0.084655
vt 0.356767 0.084655
vt 0.330306 0.084655
vt 0.391069 0.084655
vt 0.330306 0.084655
vt 0.356767 0.084655
vt 0.356767 0.084655
vt 0.391069 0.084655
vt 0.330306 0.084655
vt 0.330306 0.084655
vt 0.391069 0.084655
vt 0.356767 0.084655
vt 0.330306 0.084655
vt 0.330306 0.084655
vt 0.330306 0.084655
vt 0.391069 0.084655
vt 0.391069 0.084655
vt 0.356767 0.084655
vt 0.356767 0.084655
vt 0.356767 0.084655
vt 0.391069 0.084655
vt 0.356767 0.084655
vt 0.391069 0.084655
vt 0.356767 0.084655
vt 0.391069 0.084655
vt 0.356767 0.084655
vt 0.391069 0.084655
vt 0.356767 0.084655
vt 0.391069 0.084655
vt 0.356767 0.084655
vt 0.391069 0.084655
vt 0.356767 0.084655
vt 0.391069 0.084655
vt 0.356767 0.084655
vt 0.391069 0.084655
vt 0.391069 0.084655
vt 0.391069 0.084655
vt 0.356767 0.084655
vt 0.391069 0.084655
vt 0.391069 0.084655
vt 0.356767 0.084655
vt 0.391069 0.084655
vt 0.356767 0.084655
vt 0.391069 0.084655
vt 0.391069 0.084655
vt 0.356767 0.084655
vt 0.391069 0.084655
vt 0.356767 0.084655
vt 0.391069 0.084655
vt 0.356767 0.084655
vt 0.391069 0.084655
vt 0.391069 0.084655
vt 0.356767 0.084655
vt 0.391069 0.084655
vt 0.391069 0.084655
vt 0.356767 0.084655
vt 0.391069 0.084655
vt 0.356767 0.084655
vt 0.391069 0.084655
vt 0.356767 0.084655
vt 0.391069 0.084655
vt 0.362700 0.399460
vt 0.362700 0.399460
vt 0.362700 0.399460
vt 0.362700 0.399460
vt 0.267636 0.399460
vt 0.267636 0.399460
vt 0.267636 0.399460
vt 0.267636 0.399460
vt 0.328398 0.399460
vt 0.328398 0.399460
vt 0.328398 0.399460
vt 0.328398 0.399460
vt 0.362700 0.399460
vt 0.362700 0.399460
vt 0.362700 0.399460
vt 0.362700 0.399460
vt 0.267636 0.399460
vt 0.267636 0.399460
vt 0.267636 0.399460
vt 0.267636 0.399460
vt 0.328398 0.399460
vt 0.328398 0.399460
vt 0.328398 0.399460
vt 0.328398 0.399460
vt 0.393664 0.399460
vt 0.393664 0.399460
vt 0.393664 0.399460
vt 0.393664 0.399460
vt 0.298600 0.399460
vt 0.298600 0.399460
vt 0.298600 0.399460
vt 0.298600 0.399460
vt 0.359362 0.399460
vt 0.359362 0.399460
vt 0.359362 0.399460
vt 0.359362 0.399460
vt 0.362700 0.399460
vt 0.362700 0.399460
vt 0.362700 0.399460
vt 0.362700 0.399460
vt 0.267636 0.399460
vt 0.267636 0.399460
vt 0.267636 0.399460
vt 0.267636 0.399460
vt 0.328398 0.399460
vt 0.328398 0.399460
vt 0.328398 0.399460
vt 0.328398 0.399460
vt 0.130879 0.110819
vt 0.130879 0.110819
vt 0.130879 0.110819
vt 0.130879 0.110819
vt 0.109622 0.110819
vt 0.109622 0.110819
vt 0.109622 0.110819
vt 0.109622 0.110819
vt 0.109622 0.110819
vt 0.109622 0.110819
vt 0.078349 0.110819
vt 0.078349 0.110819
vt 0.078349 0.110819
vt 0.078349 0.110819
vt 0.109622 0.110819
vt 0.109622 0.110819
vt 0.109622 0.110819
vt 0.109622 0.110819
vt 0.109622 0.110819
vt 0.109622 0.110819
vt 0.109622 0.110819
vt 0.109622 0.110819
vt 0.109622 0.110819
vt 0.109622 0.110819
vt 0.130879 0.110819
vt 0.130879 0.110819
vt 0.130879 0.110819
vt 0.130879 0.110819
vt 0.078349 0.110819
vt 0.078349 0.110819
vt 0.078349 0.110819
vt 0.078349 0.110819
vt 0.130879 0.110819
vt 0.130879 0.110819
vt 0.130879 0.110819
vt 0.130879 0.110819
vt 0.109622 0.110819
vt 0.109622 0.110819
vt 0.109622 0.110819
vt 0.109622 0.110819
vt 0.172697 0.110819
vt 0.172697 0.110819
vt 0.172697 0.110819
vt 0.172697 0.110819
vt 0.172697 0.110819
vt 0.301937 0.060537
vt 0.301937 0.060537
vt 0.301937 0.060537
vt 0.301937 0.060537
vt 0.207443 0.110819
vt 0.207443 0.110819
vt 0.207443 0.110819
vt 0.207443 0.110819
vt 0.207443 0.110819
vt 0.130879 0.110819
vt 0.130879 0.110819
vt 0.130879 0.110819
vt 0.130879 0.110819
vt 0.078349 0.110819
vt 0.078349 0.110819
vt 0.078349 0.110819
vt 0.078349 0.110819
vt 0.109622 0.110819
vt 0.109622 0.110819
vt 0.109622 0.110819
vt 0.109622 0.110819
vt 0.109622 0.110819
vt 0.130879 0.110819
vt 0.130879 0.110819
vt 0.130879 0.110819
vt 0.130879 0.110819
vt 0.078349 0.110819
vt 0.078349 0.110819
vt 0.078349 0.110819
vt 0.078349 0.110819
vt 0.301937 0.060537
vt 0.301937 0.060537
vt 0.301937 0.060537
vt 0.207443 0.110819
vt 0.207443 0.110819
vt 0.130879 0.110819
vt 0.130879 0.110819
vt 0.130879 0.110819
vt 0.130879 0.110819
vt 0.109622 0.110819
vt 0.109622 0.110819
vt 0.109622 0.110819
vt 0.109622 0.110819
vt 0.109622 0.110819
vt 0.487021 0.478152
vt 0.487021 0.478152
vt 0.487021 0.478152
vt 0.487021 0.478152
vt 0.487021 0.478152
vt 0.487021 0.478152
vt 0.487021 0.478152
vt 0.487021 0.478152
vt 0.078349 0.110819
vt 0.078349 0.110819
vt 0.078349 0.110819
vt 0.078349 0.110819
vt 0.078349 0.110819
vt 0.078349 0.110819
vt 0.483040 0.476162
vt 0.483040 0.476162
vt 0.483040 0.476162
vt 0.483040 0.476162
vt 0.078349 0.110819
vt 0.078349 0.110819
vt 0.172697 0.110819
vt 0.172697 0.110819
vt 0.172697 0.110819
vt 0.172697 0.110819
vt 0.207443 0.110819
vt 0.207443 0.110819
vt 0.207443 0.110819
vt 0.207443 0.110819
vt 0.207443 0.110819
vt 0.106484 0.110819
vt 0.106484 0.110819
vt 0.106484 0.110819
vt 0.106484 0.110819
vt 0.106484 0.110819
vt 0.106484 0.110819
vt 0.106484 0.110819
vt 0.106484 0.110819
vt 0.132945 0.110819
vt 0.132945 0.110819
vt 0.132945 0.110819
vt 0.132945 0.110819
vt 0.106484 0.110819
vt 0.106484 0.110819
vt 0.106484 0.110819
vt 0.106484 0.110819
vt 0.106484 0.110819
vt 0.106484 0.110819
vt 0.106484 0.110819
vt 0.106484 0.110819
vt 0.132945 0.110819
vt 0.132945 0.110819
vt 0.132945 0.110819
vt 0.132945 0.110819
vt 0.207443 0.110819
vt 0.207443 0.110819
vt 0.207443 0.110819
vt 0.207443 0.110819
vt 0.173180 0.110819
vt 0.173180 0.110819
vt 0.173180 0.110819
vt 0.173180 0.110819
vt 0.207443 0.110819
vt 0.207443 0.110819
vt 0.207443 0.110819
vt 0.207443 0.110819
vt 0.207443 0.110819
vt 0.207443 0.110819
vt 0.207443 0.110819
vt 0.207443 0.110819
vt 0.362700 0.399460
vt 0.362700 0.399460
vt 0.362700 0.399460
vt 0.362700 0.399460
vt 0.267636 0.399460
vt 0.267636 0.399460
vt 0.267636 0.399460
vt 0.267636 0.399460
vt 0.328398 0.399460
vt 0.328398 0.399460
vt 0.328398 0.399460
vt 0.328398 0.399460
vt 0.173310 0.110819
vt 0.173310 0.110819
vt 0.173310 0.110819
vt 0.207443 0.110819
vt 0.207443 0.110819
vt 0.207443 0.110819
vn -1.000000 0.000000 0.000000
vn -1.000000 0.000000 0.000000
vn -1.000000 0.000000 0.000000
vn -1.000000 0.000000 0.000000
vn -0.250232 0.968186 0.000000
vn -0.250232 0.968186 0.000000
vn -0.403578 0.914945 0.000000
vn -0.403578 0.914945 0.000000
vn 1.000000 0.000000 0.000000
vn 1.000000 0.000000 0.000000
vn 1.000000 0.000000 0.000000
vn 1.000000 0.000000 0.000000
vn -0.000000 0.000000 1.000000
vn -0.000000 0.000000 1.000000
vn 0.000000 0.000000 1.000000
vn 0.000000 0.000000 1.000000
vn 0.770060 0.637971 0.000000
vn 0.770060 0.637971 0.000000
vn -0.250232 0.968186 0.000000
vn -0.250232 0.968186 0.000000
vn -0.000000 0.000000 1.000000
vn -0.000000 0.000000 1.000000
vn -0.000000 0.000000 1.000000
vn 0.000000 0.000000 1.000000
vn 0.000000 0.000000 1.000000
vn 0.000000 0.000000 1.000000
vn -0.403578 0.914945 0.000000
vn -0.403578 0.914945 0.000000
vn -0.007436 0.999972 0.000000
vn -0.007436 0.999972 0.000000
vn 0.000000 0.000000 1.000000
vn 0.000000 0.000000 1.000000
vn 0.000000 0.000000 1.000000
vn -0.007436 0.999972 0.000000
vn -0.007436 0.999972 0.000000
vn 0.031044 0.999518 0.000000
vn 0.031044 0.999518 0.000000
vn 0.000000 0.000000 1.000000
vn 0.000000 0.000000 1.000000
vn 0.000000 0.000000 1.000000
vn 0.000000 0.000000 1.000000
vn 0.031044 0.999518 0.000000
vn 0.031044 0.999518 0.000000
vn 0.087455 0.996168 0.000000
vn 0.087455 0.996168 0.000000
vn 0.000000 0.000000 1.000000
vn 0.000000 0.000000 1.000000
vn 0.000000 0.000000 1.000000
vn 0.087455 0.996168 0.000000
vn 0.087455 0.996168 0.000000
vn -0.498824 0.866704 0.000000
vn -0.498824 0.866704 0.000000
vn 0.890592 0.454803 0.000000
vn 0.890592 0.454803 0.000000
vn 0.770060 0.637971 0.000000
vn 0.770060 0.637971 0.000000
vn -0.000000 0.000000 1.000000
vn -0.000000 0.000000 1.000000
vn -0.000000 0.000000 1.000000
vn -0.498824 0.866704 0.000000
vn -0.498824 0.866704 0.000000
vn -0.771547 0.636173 0.000000
vn -0.771547 0.636173 0.000000
vn 0.000000 0.000000 1.000000
vn 0.000000 0.000000 1.000000
vn 0.000000 0.000000 1.000000
vn -0.036087 0.999349 0.000000
vn -0.036087 0.999349 0.000000
vn -0.036087 0.999349 0.000000
vn -0.036087 0.999349 0.000000
vn 0.036087 -0.999349 0.000000
vn 0.036087 -0.999349 0.000000
vn 0.036087 -0.999349 0.000000
vn 0.036087 -0.999349 0.000000
vn -0.000000 0.000000 1.000000
vn -0.000000 0.000000 1.000000
vn -0.000000 0.000000 1.000000
vn -0.000000 0.000000 1.000000
vn 0.068699 0.997637 0.000000
vn 0.068699 0.997637 0.000000
vn 0.068699 0.997637 0.000000
vn 0.068699 0.997637 0.000000
vn -0.068699 -0.997637 0.000000
vn -0.068699 -0.997637 0.000000
vn -0.068699 -0.997637 0.000000
vn -0.068699 -0.997637 0.000000
vn 0.000000 0.000000 1.000000
vn 0.000000 0.000000 1.000000
vn 0.000000 0.000000 1.000000
vn 0.000000 0.000000 1.000000
vn -0.002765 0.999996 0.000000
vn -0.002765 0.999996 0.000000
vn -0.002765 0.999996 0.000000
vn -0.002765 0.999996 0.000000
vn 0.002765 -0.999996 0.000000
vn 0.002765 -0.999996 0.000000
vn 0.002765 -0.999996 0.000000
vn 0.002765 -0.999996 0.000000
vn -0.000000 0.000000 1.000000
vn -0.000000 0.000000 1.000000
vn -0.000000 0.000000 1.000000
vn -0.000000 0.000000 1.000000
vn -0.029601 0.999562 0.000000
vn -0.029601 0.999562 0.000000
vn -0.029601 0.999562 0.000000
vn -0.029601 0.999562 0.000000
vn 0.029601 -0.999562 0.000000
vn 0.029601 -0.999562 0.000000
vn 0.029601 -0.999562 0.000000
vn 0.029601 -0.999562 0.000000
vn 0.000000 0.000000 1.000000
vn 0.000000 0.000000 1.000000
vn 0.000000 0.000000 1.000000
vn 0.000000 0.000000 1.000000
vn -0.000000 0.000000 1.000000
vn -0.000000 0.000000 1.000000
vn -0.000000 0.000000 1.000000
vn -0.000000 0.000000 1.000000
vn 1.000000 0.000000 0.000000
vn 1.000000 0.000000 0.000000
vn 1.000000 0.000000 0.000000
vn 1.000000 0.000000 0.000000
vn 1.000000 0.000000 0.000000
vn 1.000000 0.000000 0.000000
vn -1.000000 0.000000 0.000000
vn -1.000000 0.000000 0.000000
vn -1.000000 0.000000 0.000000
vn -1.000000 0.000000 0.000000
vn -1.000000 -0.000001 0.000070
vn -1.000000 -0.000001 0.000070
vn -1.000000 -0.000001 0.000070
vn -1.000000 -0.000001 0.000070
vn -1.000000 -0.000001 0.000070
vn 0.000000 1.000000 0.000000
vn 0.000000 1.000000 0.000000
vn 0.000000 1.000000 0.000000
vn 0.000000 1.000000 0.000000
vn 0.000000 1.000000 0.000000
vn 0.000000 0.000000 1.000000
vn 0.000000 0.000000 1.000000
vn 0.000000 0.000000 1.000000
vn 0.000000 0.000000 1.000000
vn 0.000000 -1.000000 0.000000
vn 0.000000 -1.000000 0.000000
vn 0.000000 -1.000000 0.000000
vn 0.000000 -1.000000 0.000000
vn 0.000000 0.000000 1.000000
vn 0.000000 0.000000 1.000000
vn 0.000000 0.000000 1.000000
vn 0.000000 0.000000 1.000000
vn 0.000000 -1.000000 0.000000
vn 0.000000 -1.000000 0.000000
vn 0.000000 -1.000000 0.000000
vn 0.000000 -1.000000 0.000000
vn 0.000000 0.000000 1.000000
vn 0.000000 0.000000 1.000000
vn 0.000000 0.000000 1.000000
vn 0.000000 0.000000 1.000000
vn 0.000000 0.000000 1.000000
vn 0.000000 0.000000 1.000000
vn 0.000000 0.000000 1.000000
vn 0.000000 0.000000 1.000000
vn 0.000000 0.000000 1.000000
vn 0.000000 0.000000 1.000000
vn 0.000000 0.000000 1.000000
vn 0.000000 0.000000 1.000000
vn 0.000000 0.000000 1.000000
vn 0.000000 0.000000 1.000000
vn 0.000000 0.000000 1.000000
vn 0.000000 0.000000 1.000000
vn 0.000000 0.000000 1.000000
vn 0.000000 0.000000 1.000000
vn 1.000000 0.000003 0.000000
vn 1.000000 0.000003 0.000000
vn 1.000000 0.000003 0.000000
vn 1.000000 0.000003 0.000000
vn 0.000000 -1.000000 -0.000001
vn 0.000000 -1.000000 -0.000001
vn 0.000000 -1.000000 -0.000001
vn 0.000000 -1.000000 -0.000001
vn 0.000000 -1.000000 -0.000001
vn 0.000000 0.000000 1.000000
vn 0.000000 0.000000 1.000000
vn 0.000000 0.000000 1.000000
vn 0.000000 0.000000 1.000000
vn 0.000000 1.000000 0.000000
vn 0.000000 1.000000 0.000000
vn 0.000000 1.000000 0.000000
vn 0.000000 1.000000 0.000000
vn 0.000000 0.000000 1.000000
vn 0.000000 0.000000 1.000000
vn 0.000000 0.000000 1.000000
vn 0.000000 0.000000 1.000000
vn 0.000000 0.000000 1.000000
vn 0.000000 0.000000 1.000000
vn 0.000000 0.000000 1.000000
vn 0.000000 0.000000 1.000000
vn 0.000000 0.000000 1.000000
vn 0.000000 1.000000 -0.000002
vn 0.000000 1.000000 -0.000002
vn 0.000000 1.000000 -0.000002
vn 0.000000 1.000000 -0.000002
vn 0.000000 1.000000 -0.000002
vn 0.000000 -1.000000 0.000000
vn 0.000000 -1.000000 0.000000
vn 0.000000 -1.000000 0.000000
vn 0.000000 -1.000000 0.000000
vn 1.000000 0.000002 0.000000
vn 1.000000 0.000002 0.000000
vn 1.000000 0.000002 0.000000
vn 1.000000 0.000002 0.000000
vn 0.000000 1.000000 0.000000
vn 0.000000 1.000000 0.000000
vn 0.000000 1.000000 0.000000
vn 0.000000 1.000000 0.000000
vn -1.000000 0.000000 0.000000
vn -1.000000 0.000000 0.000000
vn -1.000000 0.000000 0.000000
vn -1.000000 0.000000 0.000000
vn 0.000000 0.000000 -1.000000
vn 0.000000 0.000000 -1.000000
vn 0.000000 0.000000 -1.000000
vn 0.000000 0.000000 -1.000000
vn -0.000000 0.000000 -1.000000
vn -0.000000 0.000000 -1.000000
vn -0.000000 0.000000 -1.000000
vn -0.000000 0.000000 -1.000000
vn 0.000000 0.000000 -1.000000
vn 0.000000 0.000000 -1.000000
vn 0.000000 0.000000 -1.000000
vn 0.000000 0.000000 -1.000000
vn 0.000000 0.000000 1.000000
vn 0.000000 0.000000 1.000000
vn 0.000000 0.000000 1.000000
vn 0.000000 0.000000 1.000000
vn 0.000000 0.000000 -1.000000
vn 0.000000 0.000000 -1.000000
vn 0.000000 0.000000 -1.000000
vn 0.000000 0.000000 -1.000000
vn 0.000000 0.000000 1.000000
vn 0.000000 0.000000 1.000000
vn 0.000000 0.000000 1.000000
vn 0.000000 0.000000 1.000000
vn 0.000000 0.000000 1.000000
vn 0.000000 0.000000 1.000000
vn 0.000000 0.000000 1.000000
vn 0.000000 0.000000 1.000000
vn 0.000000 0.000000 1.000000
vn 1.000000 0.000000 0.000000
vn 1.000000 0.000000 0.000000
vn 1.000000 0.000000 0.000000
vn 1.000000 0.000000 0.000000
vn -1.000000 0.000000 0.000000
vn -1.000000 0.000000 0.000000
vn -1.000000 0.000000 0.000000
vn -1.000000 0.000000 0.000000
vn 0.000000 0.000000 1.000000
vn 0.000000 0.000000 1.000000
vn 0.000000 0.000000 1.000000
vn 0.000000 0.000000 1.000000
vn 0.000000 1.000000 0.000000
vn 0.000000 1.000000 0.000000
vn 0.000000 1.000000 0.000000
vn 0.000000 1.000000 0.000000
vn 0.000000 -1.000000 0.000000
vn 0.000000 -1.000000 0.000000
vn 0.000000 -1.000000 0.000000
vn 0.000000 -1.000000 0.000000
vn 0.000000 0.000000 1.000000
vn 0.000000 0.000000 1.000000
vn 0.000000 0.000000 1.000000
vn 0.000000 0.000000 1.000000
vn 0.000000 0.000000 1.000000
vn 0.000000 0.000000 1.000000
vn 0.000000 0.000000 1.000000
vn 0.000000 0.000000 1.000000
vn 0.000000 0.000000 1.000000
vn 0.000000 0.000000 1.000000
vn 0.000000 0.000000 1.000000
vn 0.000000 0.000000 1.000000
vn 0.000000 0.000000 1.000000
vn 0.000000 0.000000 1.000000
vn 0.000000 0.000000 1.000000
vn 0.000000 0.000000 1.000000
vn 0.000000 0.000000 1.000000
vn 0.000000 0.000000 1.000000
vn 0.000000 0.000000 1.000000
vn 0.000000 0.000000 1.000000
vn 0.000000 0.000000 1.000000
vn 0.000000 0.000000 1.000000
vn -0.036087 0.999349 0.000000
vn -0.036087 0.999349 0.000000
vn -0.036087 0.999349 0.000000
vn -0.036087 0.999349 0.000000
vn 0.036087 -0.999349 0.000000
vn 0.036087 -0.999349 0.000000
vn 0.036087 -0.999349 0.000000
vn 0.036087 -0.999349 0.000000
vn 0.000000 0.000000 1.000000
vn 0.000000 0.000000 1.000000
vn 0.000000 0.000000 1.000000
vn 0.000000 0.000000 1.000000
vn 0.000000 0.000000 1.000000
vn 0.000000 0.000000 1.000000
vn 0.000000 0.000000 1.000000
vn 0.000000 0.000000 1.000000
vn 0.000000 0.000000 1.000000
vn 0.000000 0.000000 1.000000
vn 0.000000 0.000000 1.000000
vn 0.000000 0.000000 1.000000
vn 0.000000 0.000000 1.000000
vn 0.000000 0.000000 1.000000
s off
f 1/14/1 2/1/2 4/15/3 3/11/4
f 9/17/5 10/43/6 12/58/7 13/56/8
f 5/4/9 6/10/10 8/6/11 7/16/12
f 10/19/13 2/59/14 11/21/15 12/57/16
f 20/37/17 21/41/18 10/18/19 9/45/20
f 21/42/21 2/20/22 10/44/23
f 12/23/24 11/25/25 14/54/26
f 13/24/27 12/22/28 14/55/29 15/53/30
f 14/27/31 11/29/32 16/51/33
f 15/28/34 14/26/35 16/52/36 17/50/37
f 16/31/38 11/49/39 8/33/40 18/47/41
f 17/32/42 16/30/43 18/48/44 19/46/45
f 22/61/46 8/7/47 6/8/48
f 19/36/49 18/34/50 22/60/51 23/62/52
f 3/2/53 4/9/54 21/38/55 20/40/56
f 2/13/57 21/39/58 4/3/59
f 23/62/60 22/60/61 6/5/62 5/12/63
f 18/35/64 8/7/65 22/61/66
f 26/63/67 28/64/68 29/65/69 27/66/70
f 30/67/71 24/68/72 25/69/73 31/70/74
f 25/71/75 27/72/76 29/73/77 31/74/78
f 34/75/79 36/76/80 37/77/81 35/78/82
f 38/79/83 32/80/84 33/81/85 39/82/86
f 33/83/87 35/84/88 37/85/89 39/86/90
f 42/87/91 44/88/92 45/89/93 43/90/94
f 46/91/95 40/92/96 41/93/97 47/94/98
f 41/95/99 43/96/100 45/97/101 47/98/102
f 50/99/103 52/100/104 53/101/105 51/102/106
f 54/103/107 48/104/108 49/105/109 55/106/110
f 49/107/111 51/108/112 53/109/113 55/110/114
f 57/111/115 75/112/116 74/113/117 56/114/118
f 56/115/119 74/116/120 76/117/121 120/118/122 116/119/123 58/120/124
f 84/121/125 75/122/126 57/123/127 81/124/128
f 73/125/129 71/126/130 60/127/131 62/128/132 93/129/133
f 62/130/134 60/131/135 56/132/136 58/133/137 114/134/138
f 56/135/139 60/136/140 61/137/141 57/138/142
f 57/139/143 61/140/144 82/141/145 81/142/146
f 66/143/147 68/144/148 67/145/149 65/146/150
f 65/147/151 64/148/152 69/149/153 66/150/154
f 95/151/155 73/152/156 59/153/157 96/154/158 97/155/159
f 114/156/160 58/157/161 115/158/162 117/159/163
f 64/160/164 59/161/165 94/162/166 93/163/167 62/164/168
f 60/165/169 71/166/170 72/167/171 61/168/172
f 61/169/173 72/170/174 83/171/175 82/172/176
f 71/173/177 73/174/178 95/175/179 76/176/180 74/177/181
f 72/178/182 71/179/183 74/180/184 75/181/185
f 75/182/186 84/183/187 83/184/188 72/185/189
f 58/157/190 116/186/191 119/187/192 118/188/193 115/158/194
f 78/191/195 80/192/196 79/193/197 77/194/198
f 80/195/199 70/196/200 96/197/201 59/198/202 79/199/203
f 86/200/204 88/201/205 87/202/206 85/203/207
f 89/204/208 90/205/209 88/201/210 86/200/211
f 91/206/212 92/207/213 90/205/214 89/204/215
f 92/207/216 91/206/217 85/203/218 87/202/219
f 82/141/220 86/208/221 85/209/222 81/142/223
f 83/171/224 89/210/225 86/211/226 82/172/227
f 84/183/228 91/212/229 89/213/230 83/184/231
f 92/214/232 87/215/233 88/216/234 90/217/235
f 81/124/236 85/218/237 91/219/238 84/121/239
f 59/220/240 73/221/241 93/222/242 94/223/243
f 70/224/244 76/225/245 95/226/246 97/227/247 96/228/248
f 98/229/249 100/230/250 101/231/251 99/232/252
f 102/233/253 104/234/254 105/235/255 103/236/256
f 99/237/257 101/238/258 103/239/259 105/240/260
f 106/241/261 108/242/262 109/243/263 107/244/264
f 110/245/265 112/246/266 113/247/267 111/248/268
f 107/249/269 109/250/270 111/251/271 113/252/272
f 132/253/273 130/254/274 64/255/275 62/256/276
f 116/257/277 120/258/278 121/259/279 119/260/280
f 120/261/281 76/262/282 70/263/283 119/264/284 121/265/285
f 70/263/286 63/266/287 115/267/288 118/268/289 119/264/290
f 124/269/291 126/270/292 127/271/293 125/272/294
f 128/273/295 122/274/296 123/275/297 129/276/298
f 123/277/299 125/278/300 127/279/301 129/280/302
f 131/281/303 130/282/304 132/283/305
f 63/284/306 131/285/307 132/253/308 62/256/309 114/286/310 117/190/311 115/189/312
