# This file uses centimeters as units for non-parametric coordinates.

v 5.000008 0.000000 4.999999
v 5.000008 0.000000 -0.000002
v 2.500008 0.000000 -0.000002
v 1.435295 0.000000 2.568404
v 2.433983 0.000000 1.241789
v 0.000000 0.000000 0.000000
v 0.000000 0.000000 2.499996
v 0.000000 0.000000 4.999999
vt 0.234962 0.062211
vt 0.234962 0.062211
vt 0.234962 0.062211
vt 0.234962 0.062211
vt 0.234962 0.062211
vt 0.262615 0.062211
vt 0.262615 0.062211
vt 0.262615 0.062211
vt 0.262615 0.062211
vt 0.262615 0.062211
vt 0.262615 0.062211
vt 0.262615 0.062211
vn 0.000000 1.000000 0.000000
vn 0.000000 1.000000 0.000000
vn 0.000000 1.000000 0.000000
vn 0.000000 1.000000 0.000000
vn 0.000000 1.000000 0.000000
vn 0.000000 1.000000 0.000000
vn 0.000000 1.000000 0.000000
vn 0.000000 1.000000 0.000000
s 1
f 7/1/1 4/2/2 5/3/3 3/4/4 6/5/5
f 8/6/6 1/7/7 2/8/8 3/9/4 5/10/3 4/11/2 7/12/1
