# This file uses centimeters as units for non-parametric coordinates.

v 0.000004 0.000000 0.000000
v 0.000004 0.000000 5.000000
v 5.000004 0.000000 0.000000
v 5.000004 0.000000 5.000000
v 0.000004 0.000000 2.500000
v 5.000004 0.000000 2.500000
v 0.000004 0.000000 1.250000
v 5.000004 0.000000 1.250000
v 0.000004 0.000000 3.750000
v 5.000004 0.000000 3.750000
v 0.000004 0.000000 4.375000
v 5.000004 0.000000 4.375000
v 0.000004 0.000000 3.125000
v 5.000004 0.000000 3.125000
v 0.000004 0.000000 1.875000
v 5.000004 0.000000 1.875000
v 0.000004 0.000000 0.625000
v 5.000004 0.000000 0.625000
v 0.000004 0.000000 4.312500
v 5.000004 0.000000 4.312500
v 0.000004 0.000000 3.687500
v 5.000004 0.000000 3.687500
v 0.000004 0.000000 3.062500
v 5.000004 0.000000 3.062500
v 0.000004 0.000000 2.437500
v 5.000004 0.000000 2.437500
v 0.000004 0.000000 1.812500
v 5.000004 0.000000 1.812500
v 0.000004 0.000000 1.187500
v 5.000004 0.000000 1.187500
v 0.000004 0.000000 0.562500
v 5.000004 0.000000 0.562500
v 5.000004 0.000000 4.937500
v 0.000004 0.000000 4.937500
vt 0.798058 0.007891
vt 0.798058 0.007891
vt 0.736298 0.007891
vt 0.736298 0.007891
vt 0.737781 0.007891
vt 0.798058 0.007891
vt 0.737781 0.007891
vt 0.798058 0.007891
vt 0.737781 0.007891
vt 0.798058 0.007891
vt 0.737781 0.007891
vt 0.798058 0.007891
vt 0.737781 0.007891
vt 0.798058 0.007891
vt 0.737781 0.007891
vt 0.798058 0.007891
vt 0.737781 0.007891
vt 0.798058 0.007891
vt 0.798058 0.007891
vt 0.737781 0.007891
vt 0.798058 0.007891
vt 0.737781 0.007891
vt 0.737781 0.007891
vt 0.798058 0.007891
vt 0.737781 0.007891
vt 0.737781 0.007891
vt 0.798058 0.007891
vt 0.737781 0.007891
vt 0.737781 0.007891
vt 0.798058 0.007891
vt 0.798058 0.007891
vt 0.798058 0.007891
vt 0.798058 0.007891
vt 0.737781 0.007891
vt 0.798058 0.007891
vt 0.737781 0.007891
vt 0.798058 0.007891
vt 0.737781 0.007891
vt 0.798058 0.007891
vt 0.737781 0.007891
vt 0.798058 0.007891
vt 0.737781 0.007891
vt 0.798058 0.007891
vt 0.737781 0.007891
vt 0.798058 0.007891
vt 0.737781 0.007891
vt 0.737781 0.007891
vt 0.798058 0.007891
vt 0.737781 0.007891
vt 0.798058 0.007891
vt 0.737781 0.007891
vt 0.798058 0.007891
vt 0.737781 0.007891
vt 0.798058 0.007891
vt 0.737781 0.007891
vt 0.798058 0.007891
vt 0.737781 0.007891
vt 0.798058 0.007891
vt 0.737781 0.007891
vt 0.798058 0.007891
vt 0.736298 0.007891
vt 0.798058 0.007891
vt 0.798058 0.007891
vt 0.736298 0.007891
vn 0.000000 1.000000 0.000000
vn 0.000000 1.000000 0.000000
vn 0.000000 1.000000 0.000000
vn 0.000000 1.000000 0.000000
vn 0.000000 1.000000 0.000000
vn 0.000000 1.000000 0.000000
vn 0.000000 1.000000 0.000000
vn 0.000000 1.000000 0.000000
vn 0.000000 1.000000 0.000000
vn 0.000000 1.000000 0.000000
vn 0.000000 1.000000 0.000000
vn 0.000000 1.000000 0.000000
vn 0.000000 1.000000 0.000000
vn 0.000000 1.000000 0.000000
vn 0.000000 1.000000 0.000000
vn 0.000000 1.000000 0.000000
vn 0.000000 1.000000 0.000000
vn 0.000000 1.000000 0.000000
vn 0.000000 1.000000 0.000000
vn 0.000000 1.000000 0.000000
vn 0.000000 1.000000 0.000000
vn 0.000000 1.000000 0.000000
vn 0.000000 1.000000 0.000000
vn 0.000000 1.000000 0.000000
vn 0.000000 1.000000 0.000000
vn 0.000000 1.000000 0.000000
vn 0.000000 1.000000 0.000000
vn 0.000000 1.000000 0.000000
vn 0.000000 1.000000 0.000000
vn 0.000000 1.000000 0.000000
vn 0.000000 1.000000 0.000000
vn 0.000000 1.000000 0.000000
vn 0.000000 1.000000 0.000000
vn 0.000000 1.000000 0.000000
s 1
f 3/1/1 1/2/2 31/45/3 32/48/4
f 6/6/5 5/32/6 23/37/7 24/56/8
f 8/8/9 7/31/10 27/41/11 28/52/12
f 10/10/13 9/30/14 19/33/15 20/60/16
f 33/61/17 34/64/18 2/3/19 4/4/20
f 14/14/21 13/24/22 21/35/23 22/58/24
f 16/16/25 15/21/26 25/39/27 26/54/28
f 18/18/29 17/19/30 29/43/31 30/50/32
f 20/34/16 19/59/15 11/11/33 12/28/34
f 22/36/24 21/57/23 9/9/14 10/29/13
f 24/38/8 23/55/7 13/13/22 14/25/21
f 26/40/28 25/53/27 5/5/6 6/26/5
f 28/42/12 27/51/11 15/15/26 16/22/25
f 30/44/32 29/49/31 7/7/10 8/23/9
f 32/46/4 31/47/3 17/17/30 18/20/29
f 12/12/34 11/27/33 34/62/18 33/63/17
