# This file uses centimeters as units for non-parametric coordinates.

v 0.000004 0.000000 0.000000
v 0.000004 0.000000 5.000000
v 5.000004 0.000000 0.000000
v 5.000004 0.000000 5.000000
v 0.000004 0.000000 2.500000
v 5.000004 0.000000 2.500000
v 0.000004 0.000000 1.250000
v 5.000004 0.000000 1.250000
v 0.000004 0.000000 3.750000
v 5.000004 0.000000 3.750000
v 0.000004 0.000000 4.375000
v 5.000004 0.000000 4.375000
v 0.000004 0.000000 3.125000
v 5.000004 0.000000 3.125000
v 0.000004 0.000000 1.875000
v 5.000004 0.000000 1.875000
v 0.000004 0.000000 0.625000
v 5.000004 0.000000 0.625000
v 0.000004 0.000000 4.312500
v 5.000004 0.000000 4.312500
v 0.000004 0.000000 3.687500
v 5.000004 0.000000 3.687500
v 0.000004 0.000000 3.062500
v 5.000004 0.000000 3.062500
v 0.000004 0.000000 2.437500
v 5.000004 0.000000 2.437500
v 0.000004 0.000000 1.812500
v 5.000004 0.000000 1.812500
v 0.000004 0.000000 1.187500
v 5.000004 0.000000 1.187500
v 0.000004 0.000000 0.562500
v 5.000004 0.000000 0.562500
v 5.000004 0.000000 4.937500
v 0.000004 0.000000 4.937500
v 3.287563 0.000000 0.000000
v 3.287563 0.000000 0.562500
v 3.287563 0.000000 0.625000
v 3.287563 0.000000 1.187500
v 3.287563 0.000000 1.250000
v 3.287563 0.000000 1.812500
v 3.287563 0.000000 1.875000
v 3.287563 0.000000 2.437500
v 3.287563 0.000000 2.500000
v 3.287563 0.000000 3.062500
v 3.287563 0.000000 3.125000
v 3.287563 0.000000 3.687500
v 3.287563 0.000000 3.750000
v 3.287563 0.000000 4.312500
v 3.287563 0.000000 4.375000
v 3.287563 0.000000 4.937500
v 3.287563 0.000000 5.000000
v 1.590908 0.000000 0.000000
v 1.590908 0.000000 0.562500
v 1.590908 0.000000 0.625000
v 1.590908 0.000000 1.187500
v 1.590908 0.000000 1.250000
v 1.590908 0.000000 1.812500
v 1.590908 0.000000 1.875000
v 1.590908 0.000000 2.437500
v 1.590908 0.000000 2.500000
v 1.590908 0.000000 3.062500
v 1.590908 0.000000 3.125000
v 1.590908 0.000000 3.687500
v 1.590908 0.000000 3.750000
v 1.590908 0.000000 4.312500
v 1.590908 0.000000 4.375000
v 1.590908 0.000000 4.937500
v 1.590908 0.000000 5.000000
v 3.287563 0.000000 1.250000
v 3.287563 0.000000 1.812500
v 1.590908 -0.144093 1.250000
v 1.590908 -0.144093 1.812500
v 0.000004 0.000000 1.250000
v 0.000004 0.000000 1.812500
v 3.287563 0.182810 2.500000
v 5.000004 0.000000 2.500000
v 3.287563 0.182810 3.062500
v 5.000004 0.000000 3.062500
v 1.590908 0.000000 2.500000
v 1.590908 0.000000 3.062500
v 3.287563 0.137379 3.125000
v 5.000004 0.000000 3.125000
v 3.287563 0.137379 3.687500
v 5.000004 0.000000 3.687500
v 1.590908 0.137379 3.125000
v 1.590908 0.137379 3.687500
v 0.000004 0.000000 3.125000
v 0.000004 0.000000 3.687500
v 3.287563 0.000000 4.375000
v 3.287563 0.000000 4.937500
v 1.590908 -0.118409 4.375000
v 1.590908 -0.118409 4.937500
v 0.000004 0.000000 4.375000
v 0.000004 0.000000 4.937500
vt 0.798058 0.007891
vt 0.798058 0.007891
vt 0.736298 0.007891
vt 0.736298 0.007891
vt 0.737781 0.007891
vt 0.798058 0.007891
vt 0.737781 0.007891
vt 0.798058 0.007891
vt 0.737781 0.007891
vt 0.798058 0.007891
vt 0.737781 0.007891
vt 0.798058 0.007891
vt 0.737781 0.007891
vt 0.798058 0.007891
vt 0.737781 0.007891
vt 0.798058 0.007891
vt 0.737781 0.007891
vt 0.798058 0.007891
vt 0.798058 0.007891
vt 0.737781 0.007891
vt 0.798058 0.007891
vt 0.737781 0.007891
vt 0.737781 0.007891
vt 0.798058 0.007891
vt 0.737781 0.007891
vt 0.737781 0.007891
vt 0.798058 0.007891
vt 0.737781 0.007891
vt 0.737781 0.007891
vt 0.798058 0.007891
vt 0.798058 0.007891
vt 0.798058 0.007891
vt 0.798058 0.007891
vt 0.737781 0.007891
vt 0.798058 0.007891
vt 0.737781 0.007891
vt 0.798058 0.007891
vt 0.737781 0.007891
vt 0.798058 0.007891
vt 0.737781 0.007891
vt 0.798058 0.007891
vt 0.737781 0.007891
vt 0.798058 0.007891
vt 0.737781 0.007891
vt 0.798058 0.007891
vt 0.737781 0.007891
vt 0.737781 0.007891
vt 0.798058 0.007891
vt 0.737781 0.007891
vt 0.798058 0.007891
vt 0.737781 0.007891
vt 0.798058 0.007891
vt 0.737781 0.007891
vt 0.798058 0.007891
vt 0.737781 0.007891
vt 0.798058 0.007891
vt 0.737781 0.007891
vt 0.798058 0.007891
vt 0.737781 0.007891
vt 0.798058 0.007891
vt 0.736298 0.007891
vt 0.798058 0.007891
vt 0.798058 0.007891
vt 0.736298 0.007891
vt 0.798058 0.007891
vt 0.798058 0.007891
vt 0.737781 0.007891
vt 0.737781 0.007891
vt 0.798058 0.007891
vt 0.798058 0.007891
vt 0.737781 0.007891
vt 0.737781 0.007891
vt 0.798058 0.007891
vt 0.798058 0.007891
vt 0.737781 0.007891
vt 0.737781 0.007891
vt 0.798058 0.007891
vt 0.798058 0.007891
vt 0.737781 0.007891
vt 0.737781 0.007891
vt 0.798058 0.007891
vt 0.798058 0.007891
vt 0.737781 0.007891
vt 0.737781 0.007891
vt 0.798058 0.007891
vt 0.798058 0.007891
vt 0.737781 0.007891
vt 0.737781 0.007891
vt 0.798058 0.007891
vt 0.798058 0.007891
vt 0.737781 0.007891
vt 0.737781 0.007891
vt 0.798058 0.007891
vt 0.736298 0.007891
vt 0.798058 0.007891
vt 0.736298 0.007891
vt 0.798058 0.007891
vt 0.798058 0.007891
vt 0.737781 0.007891
vt 0.737781 0.007891
vt 0.798058 0.007891
vt 0.798058 0.007891
vt 0.737781 0.007891
vt 0.737781 0.007891
vt 0.798058 0.007891
vt 0.798058 0.007891
vt 0.737781 0.007891
vt 0.737781 0.007891
vt 0.798058 0.007891
vt 0.798058 0.007891
vt 0.737781 0.007891
vt 0.737781 0.007891
vt 0.798058 0.007891
vt 0.798058 0.007891
vt 0.737781 0.007891
vt 0.737781 0.007891
vt 0.798058 0.007891
vt 0.798058 0.007891
vt 0.737781 0.007891
vt 0.737781 0.007891
vt 0.798058 0.007891
vt 0.798058 0.007891
vt 0.737781 0.007891
vt 0.737781 0.007891
vt 0.798058 0.007891
vt 0.736298 0.007891
vt 0.798058 0.007891
vt 0.736298 0.007891
vt 0.798058 0.007891
vt 0.798058 0.007891
vt 0.798058 0.007891
vt 0.798058 0.007891
vt 0.798058 0.007891
vt 0.798058 0.007891
vt 0.798058 0.007891
vt 0.798058 0.007891
vt 0.798058 0.007891
vt 0.798058 0.007891
vt 0.798058 0.007891
vt 0.798058 0.007891
vt 0.798058 0.007891
vt 0.798058 0.007891
vt 0.798058 0.007891
vt 0.798058 0.007891
vt 0.798058 0.007891
vt 0.798058 0.007891
vt 0.798058 0.007891
vt 0.798058 0.007891
vt 0.798058 0.007891
vt 0.798058 0.007891
vt 0.798058 0.007891
vt 0.798058 0.007891
vt 0.798058 0.007891
vt 0.798058 0.007891
vt 0.798058 0.007891
vt 0.798058 0.007891
vt 0.798058 0.007891
vt 0.798058 0.007891
vn 0.000000 1.000000 0.000000
vn 0.000000 1.000000 0.000000
vn 0.000000 1.000000 0.000000
vn 0.000000 1.000000 0.000000
vn 0.106151 0.994350 0.000000
vn 0.106151 0.994350 0.000000
vn 0.106151 0.994350 0.000000
vn 0.106151 0.994350 0.000000
vn 0.000000 1.000000 0.000000
vn 0.000000 1.000000 0.000000
vn 0.000000 1.000000 0.000000
vn 0.000000 1.000000 0.000000
vn 0.000000 1.000000 0.000000
vn 0.000000 1.000000 0.000000
vn 0.000000 1.000000 0.000000
vn 0.000000 1.000000 0.000000
vn 0.000000 1.000000 0.000000
vn 0.000000 1.000000 0.000000
vn 0.000000 1.000000 0.000000
vn 0.000000 1.000000 0.000000
vn 0.079967 0.996798 0.000000
vn 0.079967 0.996798 0.000000
vn 0.079967 0.996798 0.000000
vn 0.079967 0.996798 0.000000
vn 0.000000 1.000000 0.000000
vn 0.000000 1.000000 0.000000
vn 0.000000 1.000000 0.000000
vn 0.000000 1.000000 0.000000
vn 0.000000 1.000000 0.000000
vn 0.000000 1.000000 0.000000
vn 0.000000 1.000000 0.000000
vn 0.000000 1.000000 0.000000
vn 0.000000 1.000000 0.000000
vn 0.000000 1.000000 0.000000
vn 0.000000 1.000000 0.000000
vn 0.000000 1.000000 0.000000
vn 0.000000 1.000000 0.000000
vn 0.000000 1.000000 0.000000
vn 0.000000 1.000000 0.000000
vn 0.000000 1.000000 0.000000
vn 0.000000 1.000000 0.000000
vn 0.000000 1.000000 0.000000
vn 0.000000 1.000000 0.000000
vn 0.000000 1.000000 0.000000
vn 0.000000 1.000000 0.000000
vn 0.000000 1.000000 0.000000
vn 0.000000 1.000000 0.000000
vn 0.000000 1.000000 0.000000
vn 0.000000 1.000000 0.000000
vn 0.000000 1.000000 0.000000
vn 0.000000 1.000000 0.000000
vn 0.000000 1.000000 0.000000
vn 0.000000 1.000000 0.000000
vn 0.000000 1.000000 0.000000
vn 0.000000 1.000000 0.000000
vn 0.000000 1.000000 0.000000
vn 0.000000 1.000000 0.000000
vn 0.000000 1.000000 0.000000
vn 0.000000 1.000000 0.000000
vn 0.000000 1.000000 0.000000
vn 0.000000 1.000000 0.000000
vn 0.000000 1.000000 0.000000
vn 0.000000 1.000000 0.000000
vn 0.000000 1.000000 0.000000
vn 0.000000 1.000000 0.000000
vn 0.000000 1.000000 0.000000
vn 0.000000 1.000000 0.000000
vn 0.000000 1.000000 0.000000
vn 0.000000 1.000000 0.000000
vn 0.000000 1.000000 0.000000
vn 0.000000 1.000000 0.000000
vn 0.000000 1.000000 0.000000
vn 0.000000 1.000000 0.000000
vn 0.000000 1.000000 0.000000
vn 0.000000 1.000000 0.000000
vn 0.000000 1.000000 0.000000
vn 0.000000 1.000000 0.000000
vn 0.000000 1.000000 0.000000
vn 0.000000 1.000000 0.000000
vn 0.000000 1.000000 0.000000
vn -0.084623 0.996413 0.000000
vn -0.084623 0.996413 0.000000
vn -0.084623 0.996413 0.000000
vn -0.084623 0.996413 0.000000
vn 0.000000 1.000000 0.000000
vn 0.000000 1.000000 0.000000
vn 0.000000 1.000000 0.000000
vn 0.000000 1.000000 0.000000
vn 0.000000 1.000000 0.000000
vn 0.000000 1.000000 0.000000
vn 0.000000 1.000000 0.000000
vn 0.000000 1.000000 0.000000
vn 0.000000 1.000000 0.000000
vn 0.000000 1.000000 0.000000
vn 0.000000 1.000000 0.000000
vn 0.000000 1.000000 0.000000
vn -0.107127 0.994245 0.000000
vn -0.107127 0.994245 0.000000
vn -0.107127 0.994245 0.000000
vn -0.107127 0.994245 0.000000
vn 0.000000 1.000000 0.000000
vn 0.000000 1.000000 0.000000
vn 0.000000 1.000000 0.000000
vn 0.000000 1.000000 0.000000
vn 0.000000 1.000000 0.000000
vn 0.000000 1.000000 0.000000
vn 0.000000 1.000000 0.000000
vn 0.000000 1.000000 0.000000
vn 0.000000 1.000000 0.000000
vn 0.000000 1.000000 0.000000
vn 0.000000 1.000000 0.000000
vn 0.000000 1.000000 0.000000
vn 0.000000 1.000000 0.000000
vn 0.000000 1.000000 0.000000
vn 0.000000 1.000000 0.000000
vn 0.000000 1.000000 0.000000
vn 0.000000 1.000000 0.000000
vn 0.000000 1.000000 0.000000
vn 0.000000 1.000000 0.000000
vn 0.000000 1.000000 0.000000
vn -0.069620 0.997574 0.000000
vn -0.069620 0.997574 0.000000
vn -0.069620 0.997574 0.000000
vn -0.069620 0.997574 0.000000
vn 0.000000 1.000000 0.000000
vn 0.000000 1.000000 0.000000
vn 0.000000 1.000000 0.000000
vn 0.000000 1.000000 0.000000
vn 0.000000 1.000000 0.000000
vn 0.000000 1.000000 0.000000
vn 0.000000 1.000000 0.000000
vn 0.000000 1.000000 0.000000
vn 0.000000 1.000000 0.000000
vn 0.000000 1.000000 0.000000
vn 0.000000 1.000000 0.000000
vn 0.000000 1.000000 0.000000
vn 0.000000 1.000000 0.000000
vn 0.000000 1.000000 0.000000
vn 0.000000 1.000000 0.000000
vn 0.000000 1.000000 0.000000
vn 0.000000 1.000000 0.000000
vn 0.000000 1.000000 0.000000
vn 0.000000 1.000000 0.000000
vn 0.000000 1.000000 0.000000
vn 0.090204 0.995923 0.000000
vn 0.090204 0.995923 0.000000
vn 0.090204 0.995923 0.000000
vn 0.090204 0.995923 0.000000
vn 0.000000 1.000000 0.000000
vn 0.000000 1.000000 0.000000
vn 0.000000 1.000000 0.000000
vn 0.000000 1.000000 0.000000
vn 0.000000 1.000000 0.000000
vn 0.000000 1.000000 0.000000
vn 0.000000 1.000000 0.000000
vn 0.000000 1.000000 0.000000
vn 0.000000 1.000000 0.000000
vn 0.000000 1.000000 0.000000
vn 0.000000 1.000000 0.000000
vn 0.000000 1.000000 0.000000
vn 0.000000 1.000000 0.000000
vn 0.000000 1.000000 0.000000
vn 0.000000 1.000000 0.000000
vn 0.000000 1.000000 0.000000
vn 0.000000 1.000000 0.000000
vn 0.000000 1.000000 0.000000
vn 0.000000 1.000000 0.000000
vn 0.000000 1.000000 0.000000
vn -0.086033 0.996292 0.000000
vn -0.086033 0.996292 0.000000
vn -0.086033 0.996292 0.000000
vn -0.086033 0.996292 0.000000
vn 0.000000 1.000000 0.000000
vn 0.000000 1.000000 0.000000
vn 0.000000 1.000000 0.000000
vn 0.000000 1.000000 0.000000
vn 0.000000 1.000000 0.000000
vn 0.000000 1.000000 0.000000
vn 0.000000 1.000000 0.000000
vn 0.000000 1.000000 0.000000
vn 0.000000 1.000000 0.000000
vn 0.000000 1.000000 0.000000
vn 0.000000 1.000000 0.000000
vn 0.000000 1.000000 0.000000
vn 0.074223 0.997242 0.000000
vn 0.074223 0.997242 0.000000
vn 0.074223 0.997242 0.000000
vn 0.074223 0.997242 0.000000
vn 0.000000 1.000000 0.000000
vn 0.000000 1.000000 0.000000
vn 0.000000 1.000000 0.000000
vn 0.000000 1.000000 0.000000
vn 0.000000 0.000000 0.000000
vn 0.000000 0.000000 0.000000
vn 0.000000 0.000000 0.000000
vn 0.000000 0.000000 0.000000
vn 0.000000 0.000000 0.000000
vn 0.000000 0.000000 1.000000
vn 0.000000 0.000000 1.000000
vn 0.000000 0.000000 0.000000
vn 0.000000 0.000000 -1.000000
vn 0.000000 0.000000 -0.000000
vn 0.000000 0.000000 -0.000000
vn 0.000000 0.000000 -1.000000
vn 0.000000 0.000000 1.000000
vn 0.000000 0.000000 0.000000
vn 0.000000 0.000000 0.000000
vn 0.000000 0.000000 1.000000
vn 0.000000 0.000000 0.000000
vn 0.000000 0.000000 0.000000
vn 0.000000 0.000000 0.000000
vn 0.000000 0.000000 0.000000
vn 0.000000 0.000000 -0.000000
vn 0.000000 0.000000 -1.000000
vn 0.000000 0.000000 -1.000000
vn 0.000000 0.000000 -0.000000
vn 0.000000 0.000000 -0.000000
vn 0.000000 0.000000 -1.000000
vn 0.000000 0.000000 -1.000000
vn 0.000000 0.000000 -0.000000
vn 0.000000 0.000000 1.000000
vn 0.000000 0.000000 0.000000
vn 0.000000 0.000000 0.000000
vn 0.000000 0.000000 1.000000
vn 0.000000 0.000000 0.000000
vn 0.000000 0.000000 0.000000
vn 0.000000 0.000000 0.000000
vn 0.000000 0.000000 0.000000
vn 0.000000 0.000000 -1.000000
vn 0.000000 0.000000 -0.000000
vn 0.000000 0.000000 -0.000000
vn 0.000000 0.000000 -1.000000
vn 0.000000 0.000000 0.000000
vn 0.000000 0.000000 0.000000
vn 0.000000 0.000000 0.000000
vn 0.000000 0.000000 0.000000
vn 0.000000 0.000000 0.000000
vn 0.000000 0.000000 1.000000
vn 0.000000 0.000000 1.000000
vn 0.000000 0.000000 0.000000
vn 0.000000 0.000000 -0.000000
vn 0.000000 0.000000 -1.000000
vn 0.000000 0.000000 -1.000000
vn 0.000000 0.000000 -0.000000
vn 0.000000 0.000000 1.000000
vn 0.000000 0.000000 0.000000
vn 0.000000 0.000000 0.000000
vn 0.000000 0.000000 1.000000
vn 0.000000 0.000000 0.000000
vn 0.000000 0.000000 0.000000
vn 0.000000 0.000000 0.000000
vn 0.000000 0.000000 0.000000
vn 0.000000 0.000000 -1.000000
vn 0.000000 0.000000 -1.000000
vn 0.000000 0.000000 -1.000000
vn 0.000000 0.000000 -1.000000
vn 0.000000 0.000000 1.000000
vn 0.000000 0.000000 1.000000
vn 0.000000 0.000000 1.000000
vn 0.000000 0.000000 1.000000
vn 0.000000 0.000000 -1.000000
vn 0.000000 0.000000 -0.000000
vn 0.000000 0.000000 -0.000000
vn 0.000000 0.000000 -1.000000
vn 0.000000 0.000000 0.000000
vn 0.000000 0.000000 0.000000
vn 0.000000 0.000000 0.000000
vn 0.000000 0.000000 0.000000
vn 0.000000 0.000000 0.000000
vn 0.000000 0.000000 1.000000
vn 0.000000 0.000000 1.000000
vn 0.000000 0.000000 0.000000
vn 0.000000 0.000000 0.000000
vn 0.000000 0.000000 0.000000
vn 0.000000 0.000000 0.000000
vn 0.000000 0.000000 0.000000
vn 0.000000 0.000000 0.000000
vn 0.000000 0.000000 1.000000
vn 0.000000 0.000000 1.000000
vn 0.000000 0.000000 0.000000
vn 0.000000 0.000000 -1.000000
vn 0.000000 0.000000 -0.000000
vn 0.000000 0.000000 -0.000000
vn 0.000000 0.000000 -1.000000
vn 0.000000 0.000000 1.000000
vn 0.000000 0.000000 0.000000
vn 0.000000 0.000000 0.000000
vn 0.000000 0.000000 1.000000
vn 0.000000 0.000000 0.000000
vn 0.000000 0.000000 0.000000
vn 0.000000 0.000000 0.000000
vn 0.000000 0.000000 0.000000
vn 0.000000 0.000000 -0.000000
vn 0.000000 0.000000 -1.000000
vn 0.000000 0.000000 -1.000000
vn 0.000000 0.000000 -0.000000
s off
f 3/1/1 35/65/2 36/66/3 32/48/4
f 76/135/5 75/136/6 77/137/7 78/138/8
f 8/8/9 39/73/10 40/74/11 28/52/12
f 10/10/13 47/89/14 48/90/15 20/60/16
f 33/61/17 50/94/18 51/96/19 4/4/20
f 82/141/21 81/142/22 83/156/23 84/144/24
f 16/16/25 41/77/26 42/78/27 26/54/28
f 18/18/29 37/69/30 38/70/31 30/50/32
f 20/34/33 48/91/34 49/92/35 12/28/36
f 22/36/37 46/87/38 47/88/39 10/29/40
f 24/38/41 44/83/42 45/84/43 14/25/44
f 26/40/45 42/79/46 43/80/47 6/26/48
f 28/42/49 40/75/50 41/76/51 16/22/52
f 30/44/53 38/71/54 39/72/55 8/23/56
f 32/46/57 36/67/58 37/68/59 18/20/60
f 12/12/61 49/93/62 50/95/63 33/63/64
f 36/66/65 35/65/66 52/97/67 53/98/68
f 37/68/69 36/67/70 53/99/71 54/100/72
f 38/70/73 37/69/74 54/101/75 55/102/76
f 39/72/77 38/71/78 55/103/79 56/104/80
f 70/129/81 69/130/82 71/131/83 72/132/84
f 41/76/85 40/75/86 57/107/87 58/108/88
f 42/78/89 41/77/90 58/109/91 59/110/92
f 43/80/93 42/79/94 59/111/95 60/112/96
f 77/137/97 75/136/98 79/139/99 80/140/100
f 45/84/101 44/83/102 61/115/103 62/116/104
f 83/143/105 81/158/106 85/157/107 86/155/108
f 47/88/109 46/87/110 63/119/111 64/120/112
f 48/90/113 47/89/114 64/121/115 65/122/116
f 49/92/117 48/91/118 65/123/119 66/124/120
f 90/149/121 89/150/122 91/151/123 92/152/124
f 51/96/125 50/94/126 67/126/127 68/128/128
f 53/98/129 52/97/130 1/2/131 31/45/132
f 54/100/133 53/99/134 31/47/135 17/17/136
f 55/102/137 54/101/138 17/19/139 29/43/140
f 56/104/141 55/103/142 29/49/143 7/7/144
f 72/132/145 71/131/146 73/133/147 74/134/148
f 58/108/149 57/107/150 27/51/151 15/15/152
f 59/110/153 58/109/154 15/21/155 25/39/156
f 60/112/157 59/111/158 25/53/159 5/5/160
f 61/114/161 60/113/162 5/32/163 23/37/164
f 62/116/165 61/115/166 23/55/167 13/13/168
f 86/146/169 85/145/170 87/147/171 88/148/172
f 64/120/173 63/119/174 21/57/175 9/9/176
f 65/122/177 64/121/178 9/30/179 19/33/180
f 66/124/181 65/123/182 19/59/183 11/11/184
f 92/152/185 91/151/186 93/153/187 94/154/188
f 68/128/189 67/126/190 34/64/191 2/3/192
f 40/74/193 39/73/194 69/130/195 70/129/196
f 39/73/197 56/105/198 71/131/199 69/130/200
f 57/106/201 40/74/202 70/129/203 72/132/204
f 56/105/205 7/31/206 73/133/207 71/131/208
f 7/31/209 27/41/210 74/134/211 73/133/212
f 27/41/213 57/106/214 72/132/215 74/134/216
f 6/6/217 43/81/218 75/136/219 76/135/220
f 44/82/221 24/56/222 78/138/223 77/137/224
f 24/56/225 6/6/226 76/135/227 78/138/228
f 43/81/229 60/113/230 79/139/231 75/136/232
f 60/113/233 61/114/234 80/140/235 79/139/236
f 61/114/237 44/82/238 77/137/239 80/140/240
f 14/14/241 45/85/242 81/142/243 82/141/244
f 46/86/245 22/58/246 84/144/247 83/156/248
f 22/58/249 14/14/250 82/141/251 84/144/252
f 45/85/253 62/117/254 85/145/255 81/142/256
f 63/118/257 46/86/258 83/156/259 86/146/260
f 62/117/261 13/24/262 87/147/263 85/145/264
f 13/24/265 21/35/266 88/148/267 87/147/268
f 21/35/269 63/118/270 86/146/271 88/148/272
f 50/95/273 49/93/274 89/150/275 90/149/276
f 49/93/277 66/125/278 91/151/279 89/150/280
f 67/127/281 50/95/282 90/149/283 92/152/284
f 66/125/285 11/27/286 93/153/287 91/151/288
f 11/27/289 34/62/290 94/154/291 93/153/292
f 34/62/293 67/127/294 92/152/295 94/154/296
