# This file uses centimeters as units for non-parametric coordinates.

v 0.000001 8.416789 0.000000
v 5.000002 8.416789 0.000000
v 5.000002 0.206069 0.000000
v 0.000000 0.206069 0.000000
v 5.000002 -0.270663 0.054874
v 0.000002 -0.270663 0.054874
v 5.000002 0.206069 0.054874
v 0.000000 0.206069 0.054874
v 5.000002 8.416789 0.054874
v 0.000002 8.416789 0.054874
v 5.000002 8.828928 0.054874
v 0.000000 8.828928 0.054874
v 4.052209 3.122838 0.000000
v 4.052209 3.122838 0.086355
v 4.052209 3.669636 0.000000
v 4.052209 3.669636 0.086355
v 4.149553 3.669636 0.000000
v 4.149553 3.669636 0.086355
v 4.149553 3.122838 0.000000
v 4.149553 3.122838 0.086355
v 2.446408 3.122838 0.000000
v 2.446408 3.122838 0.086355
v 2.446408 3.669636 0.000000
v 2.446408 3.669636 0.086355
v 2.543751 3.669636 0.000000
v 2.543751 3.669636 0.086355
v 2.543751 3.122838 0.000000
v 2.543751 3.122838 0.086355
v 2.127200 3.640970 0.000000
v 2.127200 3.640970 0.098370
v 2.229721 3.739339 0.000000
v 2.229721 3.739339 0.098370
v 5.000001 3.739339 0.000000
v 5.000001 3.739339 0.098370
v 5.000001 3.640970 0.000000
v 5.000001 3.640970 0.098370
v 2.129333 3.064819 0.000000
v 2.129333 3.064819 0.098370
v 2.231853 3.163188 0.000000
v 2.231853 3.163188 0.098370
v 5.000001 3.163188 0.000000
v 5.000001 3.163188 0.098370
v 5.000001 3.064819 0.000000
v 5.000001 3.064819 0.098370
v 2.127200 4.414464 0.000000
v 2.127200 8.828928 0.098370
v 2.229721 8.828928 0.098370
v 2.229721 4.414464 0.000000
v 2.129333 3.640970 0.000000
v 2.129333 3.640970 0.098370
v 2.231853 3.640970 0.098370
v 2.231853 3.640970 0.000000
vt 0.335640 0.061272
vt 0.335640 0.061272
vt 0.335640 0.061272
vt 0.335640 0.061272
vt 0.269526 0.061178
vt 0.269526 0.061178
vt 0.269526 0.061178
vt 0.269526 0.061178
vt 0.233200 0.061363
vt 0.233200 0.061363
vt 0.233200 0.061363
vt 0.233200 0.061363
vt 0.269526 0.061178
vt 0.269526 0.061178
vt 0.269526 0.061178
vt 0.269526 0.061178
vt 0.233200 0.061450
vt 0.233200 0.061450
vt 0.233200 0.061450
vt 0.233200 0.061450
vt 0.141952 0.475915
vt 0.141952 0.475915
vt 0.141952 0.475915
vt 0.141952 0.475915
vt 0.202714 0.475915
vt 0.202714 0.475915
vt 0.202714 0.475915
vt 0.202714 0.475915
vt 0.141952 0.475915
vt 0.141952 0.475915
vt 0.141952 0.475915
vt 0.141952 0.475915
vt 0.107650 0.475915
vt 0.107650 0.475915
vt 0.107650 0.475915
vt 0.107650 0.475915
vt 0.168413 0.475915
vt 0.168413 0.475915
vt 0.168413 0.475915
vt 0.168413 0.475915
vt 0.141952 0.475915
vt 0.141952 0.475915
vt 0.141952 0.475915
vt 0.141952 0.475915
vt 0.202714 0.475915
vt 0.202714 0.475915
vt 0.202714 0.475915
vt 0.202714 0.475915
vt 0.141952 0.475915
vt 0.141952 0.475915
vt 0.141952 0.475915
vt 0.141952 0.475915
vt 0.107650 0.475915
vt 0.107650 0.475915
vt 0.107650 0.475915
vt 0.107650 0.475915
vt 0.168413 0.475915
vt 0.168413 0.475915
vt 0.168413 0.475915
vt 0.168413 0.475915
vt 0.204319 0.475915
vt 0.204319 0.475915
vt 0.204319 0.475915
vt 0.204319 0.475915
vt 0.265081 0.475915
vt 0.265081 0.475915
vt 0.265081 0.475915
vt 0.265081 0.475915
vt 0.204319 0.475915
vt 0.204319 0.475915
vt 0.204319 0.475915
vt 0.204319 0.475915
vt 0.170017 0.475915
vt 0.170017 0.475915
vt 0.170017 0.475915
vt 0.170017 0.475915
vt 0.230780 0.475915
vt 0.230780 0.475915
vt 0.230780 0.475915
vt 0.230780 0.475915
vt 0.204319 0.475915
vt 0.204319 0.475915
vt 0.204319 0.475915
vt 0.204319 0.475915
vt 0.265081 0.475915
vt 0.265081 0.475915
vt 0.265081 0.475915
vt 0.265081 0.475915
vt 0.204319 0.475915
vt 0.204319 0.475915
vt 0.204319 0.475915
vt 0.204319 0.475915
vt 0.170017 0.475915
vt 0.170017 0.475915
vt 0.170017 0.475915
vt 0.170017 0.475915
vt 0.230780 0.475915
vt 0.230780 0.475915
vt 0.230780 0.475915
vt 0.230780 0.475915
vt 0.204319 0.475915
vt 0.204319 0.475915
vt 0.237345 0.475915
vt 0.237345 0.475915
vt 0.237345 0.475915
vt 0.237345 0.475915
vt 0.204319 0.475915
vt 0.204319 0.475915
vt 0.204319 0.475915
vt 0.204319 0.475915
vt 0.237345 0.475915
vt 0.237345 0.475915
vt 0.237345 0.475915
vt 0.237345 0.475915
vt 0.204319 0.475915
vt 0.204319 0.475915
vn 0.000000 0.000000 1.000000
vn -0.000000 0.000000 1.000000
vn 0.000000 0.000000 1.000000
vn -0.000000 0.000000 1.000000
vn 0.000000 0.000000 1.000000
vn 0.000000 0.000000 1.000000
vn 0.000000 0.000000 1.000000
vn 0.000000 0.000000 1.000000
vn 0.000000 1.000000 -0.000000
vn 0.000000 1.000000 -0.000000
vn 0.000000 1.000000 -0.000000
vn 0.000000 1.000000 -0.000000
vn 0.000000 0.000000 1.000000
vn 0.000000 0.000000 1.000000
vn 0.000000 0.000000 1.000000
vn 0.000000 0.000000 1.000000
vn 0.000000 -1.000000 0.000001
vn 0.000000 -1.000000 0.000000
vn 0.000000 -1.000000 0.000000
vn 0.000000 -1.000000 0.000000
vn -1.000000 0.000000 0.000000
vn -1.000000 0.000000 0.000000
vn -1.000000 0.000000 0.000000
vn -1.000000 0.000000 0.000000
vn 0.000000 1.000000 0.000000
vn 0.000000 1.000000 0.000000
vn 0.000000 1.000000 0.000000
vn 0.000000 1.000000 0.000000
vn 1.000000 0.000000 0.000000
vn 1.000000 0.000000 0.000000
vn 1.000000 0.000000 0.000000
vn 1.000000 0.000000 0.000000
vn 0.000000 -1.000000 0.000000
vn 0.000000 -1.000000 0.000000
vn 0.000000 -1.000000 0.000000
vn 0.000000 -1.000000 0.000000
vn 0.000000 0.000000 1.000000
vn 0.000000 0.000000 1.000000
vn 0.000000 0.000000 1.000000
vn 0.000000 0.000000 1.000000
vn -1.000000 0.000000 0.000000
vn -1.000000 0.000000 0.000000
vn -1.000000 0.000000 0.000000
vn -1.000000 0.000000 0.000000
vn 0.000000 1.000000 0.000000
vn 0.000000 1.000000 0.000000
vn 0.000000 1.000000 0.000000
vn 0.000000 1.000000 0.000000
vn 1.000000 0.000000 0.000000
vn 1.000000 0.000000 0.000000
vn 1.000000 0.000000 0.000000
vn 1.000000 0.000000 0.000000
vn 0.000000 -1.000000 0.000000
vn 0.000000 -1.000000 0.000000
vn 0.000000 -1.000000 0.000000
vn 0.000000 -1.000000 0.000000
vn 0.000000 0.000000 1.000000
vn 0.000000 0.000000 1.000000
vn 0.000000 0.000000 1.000000
vn 0.000000 0.000000 1.000000
vn 0.000000 0.022278 -0.999752
vn 0.000000 0.022278 -0.999752
vn 0.000000 0.022278 -0.999752
vn 0.000000 0.022278 -0.999752
vn 0.000000 1.000000 0.000000
vn 0.000000 1.000000 0.000000
vn 0.000000 1.000000 0.000000
vn 0.000000 1.000000 0.000000
vn 1.000000 0.000000 0.000000
vn 1.000000 0.000000 0.000000
vn 1.000000 0.000000 0.000000
vn 1.000000 0.000000 0.000000
vn 0.000000 -1.000000 0.000000
vn 0.000000 -1.000000 0.000000
vn 0.000000 -1.000000 0.000000
vn 0.000000 -1.000000 0.000000
vn 0.000000 0.000000 1.000000
vn 0.000000 0.000000 1.000000
vn 0.000000 0.000000 1.000000
vn 0.000000 0.000000 1.000000
vn 0.000000 1.000000 0.000000
vn 0.000000 1.000000 0.000000
vn 0.000000 1.000000 0.000000
vn 0.000000 1.000000 0.000000
vn 0.000000 1.000000 0.000000
vn 0.000000 1.000000 0.000000
vn 0.000000 1.000000 0.000000
vn 0.000000 1.000000 0.000000
vn 1.000000 0.000000 0.000000
vn 1.000000 0.000000 0.000000
vn 1.000000 0.000000 0.000000
vn 1.000000 0.000000 0.000000
vn 0.000000 -1.000000 0.000000
vn 0.000000 -1.000000 0.000000
vn 0.000000 -1.000000 0.000000
vn 0.000000 -1.000000 0.000000
vn 0.000000 0.000000 1.000000
vn 0.000000 0.000000 1.000000
vn 0.000000 0.000000 1.000000
vn 0.000000 0.000000 1.000000
vn -1.000000 0.000000 0.000000
vn -1.000000 0.000000 0.000000
vn -1.000000 0.000000 0.000000
vn -1.000000 0.000000 0.000000
vn -0.000000 0.000000 1.000000
vn -0.000000 0.000000 1.000000
vn -0.000000 0.000000 1.000000
vn -0.000000 0.000000 1.000000
vn 1.000000 0.000000 0.000000
vn 1.000000 0.000000 0.000000
vn 1.000000 0.000000 0.000000
vn 1.000000 0.000000 0.000000
vn 0.000000 0.000000 -1.000000
vn 0.000000 0.000000 -1.000000
vn 0.000000 0.000000 -1.000000
vn 0.000000 0.000000 -1.000000
vn -1.000000 0.000000 0.000000
vn -1.000000 0.000000 0.000000
vn -1.000000 0.000000 0.000000
vn -1.000000 0.000000 0.000000
vn -0.000000 0.000000 1.000000
vn -0.000000 0.000000 1.000000
vn -0.000000 0.000000 1.000000
vn -0.000000 0.000000 1.000000
vn 1.000000 0.000000 0.000000
vn 1.000000 0.000000 0.000000
vn 1.000000 0.000000 0.000000
vn 1.000000 0.000000 0.000000
vn 0.000000 0.000000 -1.000000
vn 0.000000 0.000000 -1.000000
vn 0.000000 0.000000 -1.000000
vn 0.000000 0.000000 -1.000000
s off
f 4/1/1 3/2/2 2/3/3 1/4/4
f 6/5/5 5/6/6 7/7/7 8/8/8
f 8/9/9 7/10/10 3/11/11 4/12/12
f 10/13/13 9/14/14 11/15/15 12/16/16
f 1/17/17 2/18/18 9/19/19 10/20/20
f 13/21/21 14/22/22 16/23/23 15/24/24
f 15/25/25 16/26/26 18/27/27 17/28/28
f 17/29/29 18/30/30 20/31/31 19/32/32
f 19/33/33 20/34/34 14/35/35 13/36/36
f 14/37/37 20/38/38 18/39/39 16/40/40
f 21/41/41 22/42/42 24/43/43 23/44/44
f 23/45/45 24/46/46 26/47/47 25/48/48
f 25/49/49 26/50/50 28/51/51 27/52/52
f 27/53/53 28/54/54 22/55/55 21/56/56
f 22/57/57 28/58/58 26/59/59 24/60/60
f 45/61/61 46/62/62 47/63/63 48/64/64
f 31/65/65 32/66/66 34/67/67 33/68/68
f 33/69/69 34/70/70 36/71/71 35/72/72
f 35/73/73 36/74/74 30/75/75 29/76/76
f 30/77/77 36/78/78 34/79/79 32/80/80
f 49/81/81 50/82/82 51/83/83 52/84/84
f 39/85/85 40/86/86 42/87/87 41/88/88
f 41/89/89 42/90/90 44/91/91 43/92/92
f 43/93/93 44/94/94 38/95/95 37/96/96
f 38/97/97 44/98/98 42/99/99 40/100/100
f 29/101/101 30/102/102 46/62/103 45/61/104
f 30/103/105 32/104/106 47/105/107 46/106/108
f 32/107/109 31/108/110 48/64/111 47/63/112
f 31/108/113 29/101/114 45/61/115 48/64/116
f 37/109/117 38/110/118 50/82/119 49/81/120
f 38/111/121 40/112/122 51/113/123 50/114/124
f 40/115/125 39/116/126 52/84/127 51/83/128
f 39/116/129 37/109/130 49/81/131 52/84/132
