# This file uses centimeters as units for non-parametric coordinates.

v 5.000000 3.750000 -0.000000
v 0.000000 3.750000 0.000000
v 5.000000 4.414464 -5.000000
v 0.000000 4.414464 -5.000000
v 3.750000 4.414464 0.000000
v 1.250000 4.414464 0.000000
v 0.000000 4.414464 -1.250000
v 5.000000 4.414464 -1.250000
vt 0.231170 0.062211
vt 0.262615 0.062211
vt 0.262615 0.062211
vt 0.231170 0.062211
vt 0.262615 0.062211
vt 0.262615 0.062211
vt 0.235425 0.062211
vt 0.262615 0.062211
vt 0.231170 0.062211
vt 0.231378 0.061197
vt 0.262615 0.062211
vt 0.231170 0.062211
vt 0.231378 0.061197
vt 0.231378 0.061197
vn -0.031666 -0.998997 -0.031666
vn 0.031666 -0.998997 -0.031666
vn 0.011002 -0.999879 -0.011002
vn -0.011002 -0.999879 -0.011002
vn -0.424899 -0.799326 -0.424899
vn 0.000000 -1.000000 0.000000
vn 0.000000 -1.000000 0.000000
vn 0.424899 -0.799326 -0.424899
s 1
f 5/7/1 6/13/2 7/10/3 8/14/4
f 5/5/1 8/11/4 1/2/5
f 3/1/6 8/9/4 7/12/3 4/4/7
f 7/8/3 6/6/2 2/3/8
