# This file uses centimeters as units for non-parametric coordinates.

v 5.000000 3.750000 0.000008
v 5.000000 3.750000 -5.000000
v 0.000000 3.750000 0.000008
v 0.000000 3.750000 -5.000000
v 1.250000 4.414464 0.000008
v 0.000000 4.414464 -1.249994
v 3.750000 4.414464 0.000008
v 0.000000 4.414464 -3.749998
v 3.750000 4.414464 -3.749998
v 0.625000 4.414464 -0.624993
vt 0.268949 0.063308
vt 0.268949 0.063308
vt 0.268949 0.063308
vt 0.268949 0.063308
vt 0.234369 0.063308
vt 0.268949 0.063308
vt 0.234369 0.063308
vt 0.268949 0.063308
vt 0.268949 0.063308
vt 0.268949 0.063308
vt 0.234369 0.063308
vt 0.234369 0.063308
vt 0.268949 0.063308
vt 0.234369 0.063308
vt 0.234369 0.063308
vt 0.268949 0.063308
vn -0.248791 -0.936059 0.248791
vn -0.469376 -0.882998 0.000000
vn -0.233432 -0.972373 -0.000000
vn -0.181453 -0.966514 0.181453
vn 0.011635 -0.999865 -0.011635
vn 0.000000 -0.972373 0.233432
vn 0.029506 -0.999129 -0.029506
vn 0.000000 -0.882999 0.469376
vn 0.424899 -0.799326 -0.424898
vn 0.011635 -0.999865 -0.011635
s 1
f 2/3/1 1/2/2 7/9/3 9/13/4
f 6/11/5 8/7/6 9/14/4 10/15/7
f 8/8/6 4/4/8 2/3/1 9/13/4
f 3/1/9 6/6/5 10/16/7
f 9/14/4 7/12/3 5/5/10 10/15/7
f 3/1/9 10/16/7 5/10/10
