# This file uses centimeters as units for non-parametric coordinates.

v 0.000000 3.750000 -5.000000
v 5.000000 3.750000 -5.000000
v 0.000000 4.414464 0.000000
v 5.000000 3.750000 0.000000
v 5.000000 3.750000 -3.750000
v 0.000000 4.414464 -3.750000
v 3.750000 3.750000 -5.000000
v 3.750000 4.414464 -3.750000
v 3.750000 4.414464 0.000000
vt 0.231170 0.062211
vt 0.262615 0.062211
vt 0.262615 0.062211
vt 0.262799 0.062211
vt 0.231170 0.062211
vt 0.264356 0.060430
vt 0.262615 0.062211
vt 0.262799 0.062211
vt 0.262615 0.062211
vt 0.263921 0.060875
vt 0.262799 0.062211
vt 0.262799 0.062211
vt 0.231170 0.062211
vt 0.231170 0.062211
vn 0.000000 -0.991285 0.131735
vn 0.000000 -0.882998 0.469376
vn -0.038440 -0.895913 0.442564
vn -0.116531 -0.986327 0.116531
vn -0.131735 -0.991285 0.000000
vn 0.000000 -1.000000 0.000000
vn -0.442564 -0.895913 0.038440
vn -0.469376 -0.882998 0.000000
vn 0.000000 -1.000000 0.000000
s 1
f 6/7/1 1/2/2 7/9/3 8/10/4
f 9/14/5 3/1/6 6/5/1 8/13/4
f 8/10/4 7/9/3 5/6/7
f 9/12/5 8/11/4 5/8/7 4/4/8
f 5/6/7 7/9/3 2/3/9
