# This file uses centimeters as units for non-parametric coordinates.

v 0.000001 8.416789 0.000000
v 5.000002 8.416789 0.000000
v 5.000002 0.206069 0.000000
v -0.000000 0.206069 0.000000
v 5.000002 8.416789 0.054874
v 0.000002 8.416789 0.054875
v 5.000002 8.828928 0.054874
v 0.000000 8.828928 0.054875
v 5.000002 -0.270663 0.054874
v 0.000002 -0.270663 0.054875
v 5.000002 0.206069 0.054874
v 0.000000 0.206069 0.054875
v 2.469103 8.416789 0.000000
v 0.366920 8.416789 0.000000
v 1.862121 8.310133 0.000000
v 0.789922 8.215640 0.000000
v 1.218762 0.206069 0.000000
v 4.298751 0.206069 0.000000
v 3.356447 0.507099 0.000000
vt 0.335640 0.061272
vt 0.335640 0.061272
vt 0.335640 0.061272
vt 0.335640 0.061272
vt 0.269526 0.061178
vt 0.269526 0.061178
vt 0.269526 0.061178
vt 0.269526 0.061178
vt 0.233200 0.061450
vt 0.233200 0.061450
vt 0.233200 0.061450
vt 0.233200 0.061450
vt 0.269526 0.061178
vt 0.269526 0.061178
vt 0.269526 0.061178
vt 0.269526 0.061178
vt 0.233200 0.061363
vt 0.233200 0.061363
vt 0.233200 0.061363
vt 0.233200 0.061363
vt 0.335640 0.061272
vt 0.298496 0.061272
vt 0.298496 0.061272
vt 0.298496 0.061272
vt 0.298496 0.061272
vt 0.233200 0.061363
vt 0.335640 0.061272
vt 0.233200 0.061363
vt 0.298496 0.061272
vt 0.335640 0.061272
vt 0.298496 0.061272
vt 0.335640 0.061272
vt 0.335640 0.061272
vt 0.335640 0.061272
vt 0.335640 0.061272
vt 0.298496 0.061272
vn -0.000000 0.000000 1.000000
vn -0.000000 0.000000 1.000000
vn 0.000000 0.000000 1.000000
vn 0.000000 0.000000 1.000000
vn 0.000000 0.000000 1.000000
vn 0.000000 0.000000 1.000000
vn -0.000000 0.000000 1.000000
vn -0.000000 0.000000 1.000000
vn 0.000000 0.000000 1.000000
vn 0.000000 0.000000 1.000000
vn 0.000000 0.000000 1.000000
vn 0.000000 0.000000 1.000000
vn 0.000000 0.000000 1.000000
vn 0.000000 0.000000 1.000000
vn 0.000000 0.000000 1.000000
vn 0.000000 -1.000000 0.000000
vn 0.000000 -1.000000 0.000000
vn 0.000000 -1.000000 0.000000
vn 0.000000 -1.000000 0.000000
vn 0.000000 0.000000 1.000000
vn 0.000000 0.000000 1.000000
vn 0.000000 0.000000 1.000000
vn 0.000000 0.000000 1.000000
vn 0.000000 1.000000 -0.000000
vn 0.000000 1.000000 -0.000000
vn 0.000000 1.000000 -0.000000
vn 0.000000 1.000000 0.000000
vn 0.000000 1.000000 0.000000
vn 0.000000 1.000000 -0.000000
vn 0.000000 0.000000 1.000000
vn 0.000000 0.000000 1.000000
vn 0.000000 0.000000 1.000000
vn 0.000000 0.000000 1.000000
vn 0.000000 0.000000 1.000000
vn 0.000000 0.000000 1.000000
vn 0.000000 0.000000 1.000000
s off
f 3/3/1 2/2/2 13/21/3 15/35/4 16/33/5 14/34/6 1/1/7 4/4/8 17/32/9 19/30/10 18/27/11
f 6/5/12 5/6/13 7/7/14 8/8/15
f 5/9/16 6/10/17 1/11/18 2/12/19
f 10/13/20 9/14/21 11/15/22 12/16/23
f 12/17/24 11/18/25 3/19/26 18/28/27 17/26/28 4/20/29
f 14/22/30 16/24/31 15/23/32 13/36/33
f 18/31/34 19/29/35 17/25/36
