# This file uses centimeters as units for non-parametric coordinates.

v 1.258301 0.052998 -1.944460
v 1.718292 0.000000 -2.085468
v 1.282249 0.091720 -1.951149
v 1.750389 0.032036 -2.094429
v 1.282372 0.096650 -2.335085
v 1.614967 0.056479 -2.532692
v 1.263489 0.065641 -2.329809
v 1.589668 0.016733 -2.525629
v 1.121429 0.010587 0.935776
v 1.175652 0.006966 0.778425
v 1.121429 0.031914 0.935776
v 1.175652 0.035535 0.778425
v 0.854813 0.029657 0.859299
v 0.867996 0.032512 0.728750
v 0.854813 0.012844 0.859299
v 0.867996 0.009989 0.728750
v -0.107468 0.004629 2.514339
v -0.014168 0.011161 2.469593
v -0.117409 0.035698 2.532692
v -0.027489 0.052780 2.494184
v -0.302277 0.033621 2.420658
v -0.150414 0.063623 2.306349
v -0.294434 0.009127 2.406189
v -0.139915 0.030811 2.286968
v -0.506721 0.000000 0.856787
v -0.194283 0.000000 1.060625
v -0.477707 0.050321 0.852024
v -0.197533 0.058794 1.031151
v -0.295303 0.054638 0.667751
v -0.050491 0.062551 0.748737
v -0.293190 0.007403 0.646694
v -0.019508 0.014043 0.738514
v 1.895905 0.003567 -2.056011
v 2.015419 0.003567 -2.056368
v 1.895905 0.059946 -2.056011
v 2.015419 0.059946 -2.056368
v 1.895546 0.059946 -2.175526
v 2.015060 0.059946 -2.175882
v 1.895546 0.003567 -2.175526
v 2.015060 0.003567 -2.175882
v 0.337898 0.003567 1.248417
v 0.403633 0.003567 1.363548
v 0.337898 0.062146 1.248417
v 0.403633 0.062146 1.363548
v 0.453026 0.062146 1.182682
v 0.518761 0.062146 1.297812
v 0.453026 0.003567 1.182682
v 0.518761 0.003567 1.297812
v -1.461456 0.012364 0.973497
v -1.327484 0.012364 0.447805
v -1.791306 0.012364 0.889435
v -1.657333 0.012364 0.363741
v 2.059044 0.009205 0.969858
v 1.541924 0.009205 0.805878
v 1.956146 0.009205 1.294331
v 1.439034 0.009205 1.130350
v -1.588242 0.012364 1.671402
v -1.045898 0.012364 1.658329
v -1.596443 0.012364 1.331104
v -1.054100 0.012364 1.318031
v -2.059044 0.000000 0.467546
v -1.909012 0.000000 0.578379
v -2.059044 0.060539 0.467546
v -1.909012 0.073402 0.578379
v -1.857246 0.052621 0.219585
v -1.527779 0.062638 0.365408
v -1.857246 0.000000 0.219585
v -1.527779 0.000000 0.365408
v 1.014061 0.005939 -1.526485
v 1.297874 0.005939 -1.064156
v 1.304153 0.005939 -1.704571
v 1.587975 0.005939 -1.242241
vt 0.234424 0.060274
vt 0.234424 0.060274
vt 0.234424 0.060274
vt 0.234424 0.060274
vt 0.295301 0.060274
vt 0.295301 0.060274
vt 0.295301 0.060274
vt 0.295301 0.060274
vt 0.234424 0.060274
vt 0.234424 0.060274
vt 0.234424 0.060274
vt 0.234424 0.060274
vt 0.266033 0.060274
vt 0.266033 0.060274
vt 0.266033 0.060274
vt 0.266033 0.060274
vt 0.266033 0.060274
vt 0.266033 0.060274
vt 0.266033 0.060274
vt 0.266033 0.060274
vt 0.200474 0.060274
vt 0.200474 0.060274
vt 0.200474 0.060274
vt 0.200474 0.060274
vt 0.261350 0.060274
vt 0.261350 0.060274
vt 0.261350 0.060274
vt 0.261350 0.060274
vt 0.200474 0.060274
vt 0.200474 0.060274
vt 0.200474 0.060274
vt 0.200474 0.060274
vt 0.232083 0.060274
vt 0.232083 0.060274
vt 0.232083 0.060274
vt 0.232083 0.060274
vt 0.232083 0.060274
vt 0.232083 0.060274
vt 0.232083 0.060274
vt 0.232083 0.060274
vt 0.234424 0.060274
vt 0.234424 0.060274
vt 0.234424 0.060274
vt 0.234424 0.060274
vt 0.295301 0.060274
vt 0.295301 0.060274
vt 0.295301 0.060274
vt 0.295301 0.060274
vt 0.234424 0.060274
vt 0.234424 0.060274
vt 0.234424 0.060274
vt 0.234424 0.060274
vt 0.266033 0.060274
vt 0.266033 0.060274
vt 0.266033 0.060274
vt 0.266033 0.060274
vt 0.266033 0.060274
vt 0.266033 0.060274
vt 0.266033 0.060274
vt 0.266033 0.060274
vt 0.202339 0.061180
vt 0.202339 0.061180
vt 0.202339 0.061180
vt 0.202339 0.061180
vt 0.235959 0.060274
vt 0.235959 0.060274
vt 0.235959 0.060274
vt 0.235959 0.060274
vt 0.204994 0.060274
vt 0.204994 0.060274
vt 0.204994 0.060274
vt 0.204994 0.060274
vt 0.202339 0.061180
vt 0.202339 0.061180
vt 0.206691 0.060274
vt 0.206691 0.060274
vt 0.206691 0.060274
vt 0.206691 0.060274
vt 0.233213 0.060874
vt 0.233213 0.060874
vt 0.233213 0.060874
vt 0.233213 0.060874
vt 0.293975 0.060874
vt 0.293975 0.060874
vt 0.293975 0.060874
vt 0.293975 0.060874
vt 0.233213 0.060874
vt 0.233213 0.060874
vt 0.233213 0.060874
vt 0.233213 0.060874
vt 0.259674 0.060874
vt 0.259674 0.060874
vt 0.259674 0.060874
vt 0.259674 0.060874
vt 0.259674 0.060874
vt 0.259674 0.060874
vt 0.259674 0.060874
vt 0.259674 0.060874
vt 0.233213 0.060874
vt 0.233213 0.060874
vt 0.233213 0.060874
vt 0.233213 0.060874
vt 0.293975 0.060874
vt 0.293975 0.060874
vt 0.293975 0.060874
vt 0.293975 0.060874
vt 0.233213 0.060874
vt 0.233213 0.060874
vt 0.233213 0.060874
vt 0.233213 0.060874
vt 0.259674 0.060874
vt 0.259674 0.060874
vt 0.259674 0.060874
vt 0.259674 0.060874
vt 0.259674 0.060874
vt 0.259674 0.060874
vt 0.259674 0.060874
vt 0.259674 0.060874
vt 0.362700 0.060874
vt 0.362700 0.060874
vt 0.362700 0.060874
vt 0.362700 0.060874
vt 0.362700 0.060874
vt 0.362700 0.060874
vt 0.362700 0.060874
vt 0.362700 0.060874
vt 0.362700 0.060874
vt 0.362700 0.060874
vt 0.362700 0.060874
vt 0.362700 0.060874
vt 0.796500 0.066922
vt 0.796500 0.066922
vt 0.796500 0.066922
vt 0.796500 0.066922
vt 0.857376 0.066891
vt 0.857376 0.066891
vt 0.857376 0.066891
vt 0.857376 0.066891
vt 0.796500 0.066922
vt 0.796500 0.066922
vt 0.796500 0.066922
vt 0.796500 0.066922
vt 0.828109 0.066922
vt 0.828109 0.066922
vt 0.828109 0.066922
vt 0.828109 0.066922
vt 0.828109 0.066922
vt 0.828109 0.066922
vt 0.828109 0.066922
vt 0.828109 0.066922
vt 0.330227 0.059526
vt 0.330227 0.059526
vt 0.330227 0.059526
vt 0.330227 0.059526
vn 0.290743 -0.018711 0.956618
vn 0.290743 -0.018711 0.956618
vn 0.290743 -0.018711 0.956618
vn 0.290743 -0.018711 0.956618
vn 0.129635 0.991462 0.014087
vn 0.129635 0.991462 0.014087
vn 0.129635 0.991462 0.014087
vn 0.129635 0.991462 0.014087
vn -0.490655 0.156917 -0.857108
vn -0.490655 0.156917 -0.857108
vn -0.490655 0.156917 -0.857108
vn -0.490655 0.156917 -0.857108
vn 0.728585 -0.638126 -0.248917
vn 0.728585 -0.638126 -0.248917
vn 0.728585 -0.638126 -0.248917
vn 0.728585 -0.638126 -0.248917
vn -0.851609 0.524143 0.006095
vn -0.851609 0.524143 0.006095
vn -0.851609 0.524143 0.006095
vn -0.851609 0.524143 0.006095
vn 0.945441 0.000000 0.325794
vn 0.945441 0.000000 0.325794
vn 0.945441 0.000000 0.325794
vn 0.945441 0.000000 0.325794
vn -0.013439 0.999723 0.019340
vn -0.013439 0.999723 0.019340
vn -0.013439 0.999723 0.019340
vn -0.013439 0.999723 0.019340
vn -0.994940 0.000000 -0.100475
vn -0.994940 0.000000 -0.100475
vn -0.994940 0.000000 -0.100475
vn -0.994940 0.000000 -0.100475
vn 0.159399 0.000000 -0.987214
vn 0.159399 0.000000 -0.987214
vn 0.159399 0.000000 -0.987214
vn 0.159399 0.000000 -0.987214
vn -0.275724 0.000000 0.961237
vn -0.275724 0.000000 0.961237
vn -0.275724 0.000000 0.961237
vn -0.275724 0.000000 0.961237
vn 0.424224 -0.356131 0.832590
vn 0.424224 -0.356131 0.832589
vn 0.424224 -0.356131 0.832590
vn 0.424224 -0.356131 0.832589
vn -0.105301 0.984975 0.136878
vn -0.105301 0.984975 0.136878
vn -0.105301 0.984975 0.136878
vn -0.105301 0.984975 0.136878
vn -0.613443 0.246789 -0.750189
vn -0.613443 0.246789 -0.750189
vn -0.613443 0.246789 -0.750189
vn -0.613443 0.246789 -0.750189
vn 0.736174 0.503057 -0.452750
vn 0.736174 0.503057 -0.452750
vn 0.736174 0.503057 -0.452750
vn 0.736174 0.503057 -0.452750
vn -0.425734 -0.557343 0.712825
vn -0.425734 -0.557343 0.712825
vn -0.425734 -0.557343 0.712825
vn -0.425734 -0.557343 0.712825
vn -0.509028 0.364814 0.779616
vn -0.509028 0.364814 0.779616
vn -0.509028 0.364814 0.779616
vn -0.509028 0.364814 0.779616
vn -0.029463 0.999560 -0.003504
vn -0.029463 0.999560 -0.003504
vn -0.029463 0.999560 -0.003504
vn -0.029463 0.999560 -0.003504
vn 0.282122 0.384668 -0.878884
vn 0.282122 0.384668 -0.878885
vn 0.282122 0.384668 -0.878884
vn 0.282122 0.384668 -0.878885
vn 0.824707 0.343691 0.449149
vn 0.824707 0.343691 0.449149
vn 0.824707 0.343691 0.449149
vn 0.824707 0.343691 0.449149
vn -0.677826 0.299096 -0.671635
vn -0.677826 0.299096 -0.671635
vn -0.677826 0.299096 -0.671635
vn -0.677826 0.299096 -0.671635
vn 0.002984 0.000000 0.999996
vn 0.002984 0.000000 0.999996
vn 0.002984 0.000000 0.999996
vn 0.002984 0.000000 0.999996
vn 0.000000 1.000000 -0.000000
vn 0.000000 1.000000 -0.000000
vn 0.000000 1.000000 -0.000000
vn 0.000000 1.000000 -0.000000
vn -0.002984 0.000000 -0.999996
vn -0.002984 0.000000 -0.999996
vn -0.002984 0.000000 -0.999996
vn -0.002984 0.000000 -0.999996
vn 0.999995 0.000000 -0.003000
vn 0.999995 0.000000 -0.003000
vn 0.999995 0.000000 -0.003000
vn 0.999995 0.000000 -0.003000
vn -0.999995 0.000000 0.003000
vn -0.999995 0.000000 0.003000
vn -0.999995 0.000000 0.003000
vn -0.999995 0.000000 0.003000
vn -0.868420 0.000000 0.495829
vn -0.868420 0.000000 0.495829
vn -0.868420 0.000000 0.495829
vn -0.868420 0.000000 0.495829
vn 0.000000 1.000000 0.000000
vn 0.000000 1.000000 0.000000
vn 0.000000 1.000000 0.000000
vn 0.000000 1.000000 0.000000
vn 0.868417 0.000000 -0.495835
vn 0.868417 0.000000 -0.495835
vn 0.868417 0.000000 -0.495835
vn 0.868417 0.000000 -0.495835
vn 0.495852 0.000000 0.868407
vn 0.495852 0.000000 0.868407
vn 0.495852 0.000000 0.868407
vn 0.495852 0.000000 0.868407
vn -0.495841 0.000000 -0.868413
vn -0.495841 0.000000 -0.868413
vn -0.495841 0.000000 -0.868413
vn -0.495841 0.000000 -0.868413
vn 0.000000 1.000000 0.000000
vn 0.000000 1.000000 0.000000
vn 0.000000 1.000000 0.000000
vn 0.000000 1.000000 0.000000
vn 0.000000 1.000000 -0.000000
vn 0.000000 1.000000 -0.000000
vn 0.000000 1.000000 -0.000000
vn 0.000000 1.000000 -0.000000
vn 0.000000 1.000000 0.000000
vn 0.000000 1.000000 0.000000
vn 0.000000 1.000000 0.000000
vn 0.000000 1.000000 0.000000
vn -0.594179 0.000000 0.804333
vn -0.594179 0.000000 0.804333
vn -0.594179 0.000000 0.804333
vn -0.594179 0.000000 0.804333
vn -0.015487 0.998076 -0.060042
vn -0.015487 0.998076 -0.060042
vn -0.015487 0.998076 -0.060042
vn -0.015487 0.998076 -0.060042
vn 0.404730 0.000000 -0.914436
vn 0.404730 0.000000 -0.914436
vn 0.404730 0.000000 -0.914436
vn 0.404730 0.000000 -0.914436
vn 0.487697 0.000000 0.873013
vn 0.487697 0.000000 0.873013
vn 0.487697 0.000000 0.873013
vn 0.487697 0.000000 0.873013
vn -0.775610 0.000000 -0.631213
vn -0.775610 0.000000 -0.631213
vn -0.775610 0.000000 -0.631213
vn -0.775610 0.000000 -0.631213
vn 0.000000 1.000000 0.000000
vn 0.000000 1.000000 0.000000
vn 0.000000 1.000000 0.000000
vn 0.000000 1.000000 0.000000
s off
f 1/1/1 2/2/2 4/3/3 3/4/4
f 3/5/5 4/6/6 6/7/7 5/8/8
f 5/9/9 6/10/10 8/11/11 7/12/12
f 2/13/13 8/14/14 6/15/15 4/16/16
f 7/17/17 1/18/18 3/19/19 5/20/20
f 9/21/21 10/22/22 12/23/23 11/24/24
f 11/25/25 12/26/26 14/27/27 13/28/28
f 13/29/29 14/30/30 16/31/31 15/32/32
f 10/33/33 16/34/34 14/35/35 12/36/36
f 15/37/37 9/38/38 11/39/39 13/40/40
f 17/41/41 18/42/42 20/43/43 19/44/44
f 19/45/45 20/46/46 22/47/47 21/48/48
f 21/49/49 22/50/50 24/51/51 23/52/52
f 18/53/53 24/54/54 22/55/55 20/56/56
f 23/57/57 17/58/58 19/59/59 21/60/60
f 25/61/61 26/62/62 28/63/63 27/64/64
f 27/65/65 28/66/66 30/67/67 29/68/68
f 29/69/69 30/70/70 32/71/71 31/72/72
f 26/62/73 32/73/74 30/74/75 28/63/76
f 31/75/77 25/76/78 27/77/79 29/78/80
f 33/79/81 34/80/82 36/81/83 35/82/84
f 35/83/85 36/84/86 38/85/87 37/86/88
f 37/87/89 38/88/90 40/89/91 39/90/92
f 34/91/93 40/92/94 38/93/95 36/94/96
f 39/95/97 33/96/98 35/97/99 37/98/100
f 41/99/101 42/100/102 44/101/103 43/102/104
f 43/103/105 44/104/106 46/105/107 45/106/108
f 45/107/109 46/108/110 48/109/111 47/110/112
f 42/111/113 48/112/114 46/113/115 44/114/116
f 47/115/117 41/116/118 43/117/119 45/118/120
f 49/119/121 50/120/122 52/121/123 51/122/124
f 53/123/125 54/124/126 56/125/127 55/126/128
f 57/127/129 58/128/130 60/129/131 59/130/132
f 61/131/133 62/132/134 64/133/135 63/134/136
f 63/135/137 64/136/138 66/137/139 65/138/140
f 65/139/141 66/140/142 68/141/143 67/142/144
f 62/143/145 68/144/146 66/145/147 64/146/148
f 67/147/149 61/148/150 63/149/151 65/150/152
f 69/151/153 70/152/154 72/153/155 71/154/156
