# This file uses centimeters as units for non-parametric coordinates.

v -0.098389 0.000000 -0.098389
v -0.098389 0.000000 0.098389
v -0.098389 4.414464 -0.098389
v -0.098389 4.414464 0.098389
v 0.098389 4.414464 -0.098389
v 0.098389 4.414464 0.098389
v 0.098389 0.000000 -0.098389
v 0.098389 0.000000 0.098389
vt 0.267499 0.398849
vt 0.267499 0.398849
vt 0.296758 0.399305
vt 0.267499 0.398849
vt 0.267499 0.398849
vt 0.296758 0.399305
vt 0.201694 0.399305
vt 0.267499 0.398849
vt 0.201694 0.399305
vt 0.201694 0.399305
vt 0.267499 0.398849
vt 0.267499 0.398849
vt 0.267499 0.398849
vt 0.267499 0.398849
vt 0.296758 0.399305
vt 0.267499 0.398849
vt 0.267499 0.398849
vt 0.296758 0.399305
vt 0.267499 0.398849
vt 0.267499 0.398849
vt 0.267499 0.398849
vt 0.267499 0.398849
vt 0.201694 0.399305
vt 0.267499 0.398849
vn -1.000000 0.000000 0.000000
vn -1.000000 0.000000 0.000000
vn -1.000000 0.000000 0.000000
vn -1.000000 0.000000 0.000000
vn 0.000000 1.000000 0.000000
vn 0.000000 1.000000 0.000000
vn 0.000000 1.000000 0.000000
vn 0.000000 1.000000 0.000000
vn 1.000000 0.000000 0.000000
vn 1.000000 0.000000 0.000000
vn 1.000000 0.000000 0.000000
vn 1.000000 0.000000 0.000000
vn 0.000000 -1.000000 0.000000
vn 0.000000 -1.000000 0.000000
vn 0.000000 -1.000000 0.000000
vn 0.000000 -1.000000 0.000000
vn 0.000000 0.000000 1.000000
vn 0.000000 0.000000 1.000000
vn 0.000000 0.000000 1.000000
vn 0.000000 0.000000 1.000000
vn 0.000000 0.000000 -1.000000
vn 0.000000 0.000000 -1.000000
vn 0.000000 0.000000 -1.000000
vn 0.000000 0.000000 -1.000000
s off
f 1/20/1 2/2/2 4/21/3 3/17/4
f 3/3/5 4/15/6 6/6/7 5/18/8
f 5/5/9 6/16/10 8/8/11 7/24/12
f 7/7/13 8/23/14 2/10/15 1/9/16
f 2/19/17 8/11/18 6/12/19 4/4/20
f 7/13/21 1/1/22 3/22/23 5/14/24
