# This file uses centimeters as units for non-parametric coordinates.

v 2.826373 4.323400 0.000000
v 2.826373 4.323400 -5.000000
v 2.826373 4.414464 0.000000
v 2.826373 4.414464 -5.000000
v 2.662478 4.414464 0.000000
v 2.662478 4.414464 -5.000000
v 2.662478 4.323400 0.000000
v 2.662478 4.323400 -5.000000
v 2.337522 4.323400 0.000000
v 2.337522 4.323400 -5.000000
v 2.337522 4.414464 0.000000
v 2.337522 4.414464 -5.000000
v 2.173627 4.414464 0.000000
v 2.173627 4.414464 -5.000000
v 2.173627 4.323400 0.000000
v 2.173627 4.323400 -5.000000
v 2.581947 4.323400 0.000000
v 2.581947 4.323400 -5.000000
v 2.581947 4.414464 0.000000
v 2.581947 4.414464 -5.000000
v 2.418053 4.414464 0.000000
v 2.418053 4.414464 -5.000000
v 2.418053 4.323400 0.000000
v 2.418053 4.323400 -5.000000
v 2.000000 4.414464 0.000000
v 3.000000 4.414464 0.000001
v 2.000000 4.414464 -0.123776
v 3.000000 4.414464 -0.123775
v 2.000000 4.192836 -0.123776
v 3.000000 4.192836 -0.123775
v 2.000000 4.192836 0.000000
v 3.000000 4.192836 0.000001
v 2.097583 4.414464 -0.123776
v 2.902417 4.414464 -0.123776
v 2.902417 4.282744 -0.123776
v 2.097583 4.282744 -0.123776
v 2.097583 4.282744 0.000000
v 2.902417 4.282744 0.000001
v 2.902417 4.414464 0.000001
v 2.097583 4.414464 0.000000
v 2.000000 4.414464 -4.876225
v 3.000000 4.414464 -4.876223
v 2.000000 4.414464 -5.000000
v 3.000000 4.414464 -5.000000
v 2.000000 4.192836 -5.000000
v 3.000000 4.192836 -5.000000
v 2.000000 4.192836 -4.876225
v 3.000000 4.192836 -4.876223
v 2.097584 4.414464 -5.000000
v 2.902417 4.414464 -5.000000
v 2.902417 4.282744 -5.000000
v 2.097584 4.282744 -5.000000
v 2.097584 4.282744 -4.876225
v 2.902417 4.282744 -4.876223
v 2.902417 4.414464 -4.876223
v 2.097584 4.414464 -4.876225
vt 0.210226 0.085499
vt 0.234710 0.085323
vt 0.210226 0.085499
vt 0.234710 0.085323
vt 0.266579 0.085147
vt 0.234710 0.085323
vt 0.266579 0.085147
vt 0.266579 0.085147
vt 0.210226 0.085499
vt 0.210226 0.085499
vt 0.210226 0.085499
vt 0.210226 0.085499
vt 0.234710 0.085323
vt 0.266579 0.085147
vt 0.234710 0.085323
vt 0.210226 0.085499
vt 0.234710 0.085323
vt 0.234710 0.085323
vt 0.234710 0.085323
vt 0.210226 0.085499
vt 0.234710 0.085323
vt 0.234710 0.085323
vt 0.234710 0.085323
vt 0.234710 0.085323
vt 0.234710 0.085323
vt 0.234710 0.085323
vt 0.234710 0.085323
vt 0.234710 0.085323
vt 0.266579 0.085147
vt 0.266579 0.085147
vt 0.266579 0.085147
vt 0.266579 0.085147
vt 0.210226 0.085499
vt 0.210226 0.085499
vt 0.210226 0.085499
vt 0.210226 0.085499
vt 0.210226 0.085499
vt 0.210226 0.085499
vt 0.210226 0.085499
vt 0.210226 0.085499
vt 0.234710 0.085323
vt 0.234710 0.085323
vt 0.234710 0.085323
vt 0.234710 0.085323
vt 0.234710 0.085323
vt 0.234710 0.085323
vt 0.234710 0.085323
vt 0.234710 0.085323
vt 0.266579 0.085147
vt 0.266579 0.085147
vt 0.266579 0.085147
vt 0.266579 0.085147
vt 0.210226 0.085499
vt 0.210226 0.085499
vt 0.210226 0.085499
vt 0.210226 0.085499
vt 0.210226 0.085499
vt 0.210226 0.085499
vt 0.210226 0.085499
vt 0.210226 0.085499
vt 0.170838 0.062167
vt 0.170838 0.062167
vt 0.170838 0.062167
vt 0.170838 0.062167
vt 0.135290 0.061649
vt 0.135290 0.061649
vt 0.135290 0.061649
vt 0.135290 0.061649
vt 0.135290 0.061649
vt 0.135290 0.061649
vt 0.135290 0.061649
vt 0.135290 0.061649
vt 0.196605 0.062166
vt 0.196605 0.062166
vt 0.196605 0.062166
vt 0.196605 0.062166
vt 0.196605 0.062166
vt 0.196605 0.062166
vt 0.196605 0.062166
vt 0.196605 0.062166
vt 0.196605 0.062166
vt 0.196605 0.062166
vt 0.196605 0.062166
vt 0.196605 0.062166
vt 0.196605 0.062166
vt 0.196605 0.062166
vt 0.196605 0.062166
vt 0.196605 0.062166
vt 0.196605 0.062166
vt 0.196605 0.062166
vt 0.196605 0.062166
vt 0.196605 0.062166
vt 0.196605 0.062166
vt 0.196605 0.062166
vt 0.196605 0.062166
vt 0.196605 0.062166
vt 0.140115 0.061964
vt 0.140115 0.061964
vt 0.140115 0.061964
vt 0.140115 0.061964
vt 0.134022 0.061648
vt 0.134022 0.061648
vt 0.134022 0.061648
vt 0.134022 0.061648
vt 0.134022 0.061648
vt 0.134022 0.061648
vt 0.134022 0.061648
vt 0.134022 0.061648
vt 0.170838 0.062167
vt 0.170838 0.062167
vt 0.170838 0.062167
vt 0.170838 0.062167
vt 0.135290 0.061649
vt 0.135290 0.061649
vt 0.135290 0.061649
vt 0.135290 0.061649
vt 0.135290 0.061649
vt 0.135290 0.061649
vt 0.135290 0.061649
vt 0.135290 0.061649
vt 0.196605 0.062166
vt 0.196605 0.062166
vt 0.196605 0.062166
vt 0.196605 0.062166
vt 0.196605 0.062166
vt 0.196605 0.062166
vt 0.196605 0.062166
vt 0.196605 0.062166
vt 0.196605 0.062166
vt 0.196605 0.062166
vt 0.196605 0.062166
vt 0.196605 0.062166
vt 0.196605 0.062166
vt 0.196605 0.062166
vt 0.196605 0.062166
vt 0.196605 0.062166
vt 0.196605 0.062166
vt 0.196605 0.062166
vt 0.196605 0.062166
vt 0.196605 0.062166
vt 0.196605 0.062166
vt 0.196605 0.062166
vt 0.196605 0.062166
vt 0.196605 0.062166
vt 0.140115 0.061964
vt 0.140115 0.061964
vt 0.140115 0.061964
vt 0.140115 0.061964
vt 0.134022 0.061648
vt 0.134022 0.061648
vt 0.134022 0.061648
vt 0.134022 0.061648
vt 0.134022 0.061648
vt 0.134022 0.061648
vt 0.134022 0.061648
vt 0.134022 0.061648
vn 1.000000 0.000000 0.000000
vn 1.000000 0.000000 0.000000
vn 1.000000 0.000000 0.000000
vn 1.000000 0.000000 0.000000
vn -1.000000 0.000000 0.000000
vn -1.000000 0.000000 0.000000
vn -1.000000 0.000000 0.000000
vn -1.000000 0.000000 0.000000
vn 0.000000 -1.000000 0.000000
vn 0.000000 -1.000000 0.000000
vn 0.000000 -1.000000 0.000000
vn 0.000000 -1.000000 0.000000
vn 0.000000 0.000000 -1.000000
vn 0.000000 0.000000 -1.000000
vn 0.000000 0.000000 -1.000000
vn 0.000000 0.000000 -1.000000
vn 0.000000 0.000000 1.000000
vn 0.000000 0.000000 1.000000
vn 0.000000 0.000000 1.000000
vn 0.000000 0.000000 1.000000
vn 1.000000 0.000000 0.000000
vn 1.000000 0.000000 0.000000
vn 1.000000 0.000000 0.000000
vn 1.000000 0.000000 0.000000
vn -1.000000 0.000000 0.000000
vn -1.000000 0.000000 0.000000
vn -1.000000 0.000000 0.000000
vn -1.000000 0.000000 0.000000
vn 0.000000 -1.000000 0.000000
vn 0.000000 -1.000000 0.000000
vn 0.000000 -1.000000 0.000000
vn 0.000000 -1.000000 0.000000
vn 0.000000 0.000000 -1.000000
vn 0.000000 0.000000 -1.000000
vn 0.000000 0.000000 -1.000000
vn 0.000000 0.000000 -1.000000
vn 0.000000 0.000000 1.000000
vn 0.000000 0.000000 1.000000
vn 0.000000 0.000000 1.000000
vn 0.000000 0.000000 1.000000
vn 1.000000 0.000000 0.000000
vn 1.000000 0.000000 0.000000
vn 1.000000 0.000000 0.000000
vn 1.000000 0.000000 0.000000
vn -1.000000 0.000000 0.000000
vn -1.000000 0.000000 0.000000
vn -1.000000 0.000000 0.000000
vn -1.000000 0.000000 0.000000
vn 0.000000 -1.000000 0.000000
vn 0.000000 -1.000000 0.000000
vn 0.000000 -1.000000 0.000000
vn 0.000000 -1.000000 0.000000
vn 0.000000 0.000000 -1.000000
vn 0.000000 0.000000 -1.000000
vn 0.000000 0.000000 -1.000000
vn 0.000000 0.000000 -1.000000
vn 0.000000 0.000000 1.000000
vn 0.000000 0.000000 1.000000
vn 0.000000 0.000000 1.000000
vn 0.000000 0.000000 1.000000
vn 0.000000 -1.000000 0.000000
vn 0.000000 -1.000000 0.000000
vn 0.000000 -1.000000 0.000000
vn 0.000000 -1.000000 0.000000
vn 1.000000 0.000000 0.000000
vn 1.000000 0.000000 0.000000
vn 1.000000 0.000000 0.000000
vn 1.000000 0.000000 0.000000
vn -1.000000 0.000000 0.000000
vn -1.000000 0.000000 0.000000
vn -1.000000 0.000000 0.000000
vn -1.000000 0.000000 0.000000
vn 0.000010 0.000000 -1.000000
vn 0.000010 0.000000 -1.000000
vn 0.000010 0.000000 -1.000000
vn 0.000010 0.000000 -1.000000
vn 0.000001 -0.000005 -1.000000
vn 0.000001 -0.000005 -1.000000
vn 0.000001 -0.000005 -1.000000
vn 0.000001 -0.000005 -1.000000
vn 0.000000 0.000000 -1.000000
vn 0.000000 0.000000 -1.000000
vn 0.000000 0.000000 -1.000000
vn 0.000000 0.000000 -1.000000
vn -0.000001 0.000000 1.000000
vn -0.000001 0.000000 1.000000
vn -0.000001 0.000000 1.000000
vn -0.000001 0.000000 1.000000
vn 0.000000 0.000000 1.000000
vn 0.000000 0.000000 1.000000
vn 0.000000 0.000000 1.000000
vn 0.000000 0.000000 1.000000
vn 0.000000 0.000000 1.000000
vn 0.000000 0.000000 1.000000
vn 0.000000 0.000000 1.000000
vn 0.000000 0.000000 1.000000
vn 0.000000 1.000000 0.000000
vn 0.000000 1.000000 0.000000
vn 0.000000 1.000000 0.000000
vn 0.000000 1.000000 0.000000
vn 1.000000 0.000000 -0.000004
vn 1.000000 0.000000 -0.000004
vn 1.000000 0.000000 -0.000004
vn 1.000000 0.000000 -0.000004
vn -1.000000 0.000000 0.000000
vn -1.000000 0.000000 0.000000
vn -1.000000 0.000000 0.000000
vn -1.000000 0.000000 0.000000
vn 0.000000 -1.000000 0.000000
vn 0.000000 -1.000000 0.000000
vn 0.000000 -1.000000 0.000000
vn 0.000000 -1.000000 0.000000
vn 1.000000 0.000000 0.000000
vn 1.000000 0.000000 0.000000
vn 1.000000 0.000000 0.000000
vn 1.000000 0.000000 0.000000
vn -1.000000 0.000000 0.000000
vn -1.000000 0.000000 0.000000
vn -1.000000 0.000000 0.000000
vn -1.000000 0.000000 0.000000
vn 0.000000 0.000000 -1.000000
vn 0.000000 0.000000 -1.000000
vn 0.000000 0.000000 -1.000000
vn 0.000000 0.000000 -1.000000
vn 0.000000 0.000000 -1.000000
vn 0.000000 0.000000 -1.000000
vn 0.000000 0.000000 -1.000000
vn 0.000000 0.000000 -1.000000
vn 0.000000 0.000000 -1.000000
vn 0.000000 0.000000 -1.000000
vn 0.000000 0.000000 -1.000000
vn 0.000000 0.000000 -1.000000
vn -0.000002 0.000000 1.000000
vn -0.000002 0.000000 1.000000
vn -0.000002 0.000000 1.000000
vn -0.000002 0.000000 1.000000
vn 0.000003 0.000000 1.000000
vn 0.000003 0.000000 1.000000
vn 0.000003 0.000000 1.000000
vn 0.000003 0.000000 1.000000
vn 0.000000 0.000000 1.000000
vn 0.000000 0.000000 1.000000
vn 0.000000 0.000000 1.000000
vn 0.000000 0.000000 1.000000
vn 0.000000 1.000000 0.000000
vn 0.000000 1.000000 0.000000
vn 0.000000 1.000000 0.000000
vn 0.000000 1.000000 0.000000
vn 1.000000 0.000000 0.000000
vn 1.000000 0.000000 0.000000
vn 1.000000 0.000000 0.000000
vn 1.000000 0.000000 0.000000
vn -1.000000 0.000000 0.000000
vn -1.000000 0.000000 0.000000
vn -1.000000 0.000000 0.000000
vn -1.000000 0.000000 0.000000
s off
f 1/18/1 2/2/2 4/17/3 3/19/4
f 5/4/5 6/13/6 8/6/7 7/15/8
f 7/5/9 8/14/10 2/8/11 1/7/12
f 2/16/13 8/9/14 6/10/15 4/3/16
f 7/11/17 1/1/18 3/20/19 5/12/20
f 9/21/21 10/22/22 12/23/23 11/24/24
f 13/25/25 14/26/26 16/27/27 15/28/28
f 15/29/29 16/30/30 10/31/31 9/32/32
f 10/33/33 16/34/34 14/35/35 12/36/36
f 15/37/37 9/38/38 11/39/39 13/40/40
f 17/41/41 18/42/42 20/43/43 19/44/44
f 21/45/45 22/46/46 24/47/47 23/48/48
f 23/49/49 24/50/50 18/51/51 17/52/52
f 18/53/53 24/54/54 22/55/55 20/56/56
f 23/57/57 17/58/58 19/59/59 21/60/60
f 29/61/61 30/62/62 32/63/63 31/64/64
f 26/65/65 32/66/66 30/67/67 28/68/68
f 31/69/69 25/70/70 27/71/71 29/72/72
f 28/73/73 30/74/74 35/75/75 34/76/76
f 30/77/77 29/78/78 36/79/79 35/80/80
f 29/81/81 27/82/82 33/83/83 36/84/84
f 31/85/85 32/86/86 38/87/87 37/88/88
f 32/89/89 26/90/90 39/91/91 38/92/92
f 25/93/93 31/94/94 37/95/95 40/96/96
f 35/97/97 36/98/98 37/99/99 38/100/100
f 36/101/101 33/102/102 40/103/103 37/104/104
f 35/105/105 38/106/106 39/107/107 34/108/108
f 45/109/109 46/110/110 48/111/111 47/112/112
f 42/113/113 48/114/114 46/115/115 44/116/116
f 47/117/117 41/118/118 43/119/119 45/120/120
f 44/121/121 46/122/122 51/123/123 50/124/124
f 46/125/125 45/126/126 52/127/127 51/128/128
f 45/129/129 43/130/130 49/131/131 52/132/132
f 47/133/133 48/134/134 54/135/135 53/136/136
f 48/137/137 42/138/138 55/139/139 54/140/140
f 41/141/141 47/142/142 53/143/143 56/144/144
f 51/145/145 52/146/146 53/147/147 54/148/148
f 52/149/149 49/150/150 56/151/151 53/152/152
f 51/153/153 54/154/154 55/155/155 50/156/156
