# This file uses centimeters as units for non-parametric coordinates.

v 5.000000 0.000000 0.000001
v 5.000000 0.000000 5.000009
v 2.499992 0.000000 0.000000
v 2.041504 0.000000 1.295472
v 1.142982 0.000000 2.899338
v 2.443352 0.000000 2.347694
v 3.250229 0.000000 2.586648
v 3.300423 0.000000 3.546623
v 2.612274 0.000000 4.089623
v 2.030083 0.000000 3.584069
v 1.236176 0.000000 3.611282
v 0.000000 0.000000 0.000000
v -0.000008 0.000000 2.500008
v -0.000008 0.000000 5.000008
vt 0.234962 0.062211
vt 0.234962 0.062211
vt 0.234962 0.062211
vt 0.234962 0.062211
vt 0.262615 0.062211
vt 0.262615 0.062211
vt 0.262615 0.062211
vt 0.262615 0.062211
vt 0.262615 0.062211
vt 0.262615 0.062211
vt 0.262615 0.062211
vt 0.262615 0.062211
vt 0.262615 0.062211
vt 0.262615 0.062211
vt 0.262615 0.062211
vt 0.262615 0.062211
vt 0.262615 0.062211
vt 0.234962 0.062211
vt 0.234962 0.062211
vt 0.234962 0.062211
vt 0.234962 0.062211
vt 0.234962 0.062211
vt 0.234962 0.062211
vt 0.234962 0.062211
vn 0.000000 1.000000 0.000000
vn 0.000000 1.000000 0.000000
vn 0.000000 1.000000 0.000000
vn 0.000000 1.000000 0.000000
vn 0.000000 1.000000 0.000000
vn 0.000000 1.000000 0.000000
vn 0.000000 1.000000 0.000000
vn 0.000000 1.000000 0.000000
vn 0.000000 1.000000 0.000000
vn 0.000000 1.000000 0.000000
vn 0.000000 1.000000 0.000000
vn 0.000000 1.000000 0.000000
vn 0.000000 1.000000 0.000000
vn 0.000000 1.000000 0.000000
s 1
f 13/1/1 4/2/2 3/3/3 12/4/4
f 2/5/5 1/6/6 3/7/3 4/8/2 13/9/1 5/10/7 6/11/8 7/12/9 8/13/10
f 2/5/5 8/13/10 9/14/11 10/15/12 11/16/13 5/10/7 13/9/1 14/17/14
f 5/18/7 11/19/13 10/20/12 9/21/11 8/22/10 7/23/9 6/24/8
