# This file uses centimeters as units for non-parametric coordinates.

v 1.034981 2.812401 0.043018
v 1.034981 2.812401 0.228710
v 1.034981 2.124021 0.043018
v 1.034981 2.124021 0.228710
v 0.550369 2.124021 0.043018
v 0.550369 2.124021 0.228710
v 0.550369 2.812401 0.043018
v 0.550369 2.812401 0.228710
v 0.631752 2.544758 0.228710
v 0.952141 2.544758 0.228710
v 0.631752 2.213306 0.228710
v 0.952141 2.213306 0.228710
v 0.841217 4.423117 0.050489
v 0.841217 4.423117 0.159334
v 0.841217 2.799839 0.050489
v 0.841217 2.799839 0.159334
v 0.732452 2.799839 0.050489
v 0.732452 2.799839 0.159334
v 0.732452 4.423117 0.050489
v 0.732452 4.423117 0.159334
v 0.720985 2.452446 0.228710
v 0.862907 2.452446 0.228710
v 0.720985 2.305618 0.228710
v 0.862907 2.305618 0.228710
v 1.463127 -0.052511 0.024923
v 1.463127 3.766721 0.024923
v 8.534592 3.766721 0.024923
v 8.534592 -0.052511 0.024923
v 1.190857 3.956069 0.054874
v 1.190857 0.206069 0.054874
v 1.504272 3.750000 0.054874
v 1.504272 -0.270663 0.054874
v 1.190857 3.956069 0.000000
v 1.190857 0.206069 0.000000
v 1.504272 3.750000 -0.033619
v 8.827957 3.956069 0.054874
v 8.827953 0.206069 0.054874
v 8.514542 3.750000 0.054874
v 8.514549 -0.270663 0.054874
v 8.827957 3.956069 0.000000
v 8.827953 0.206069 0.000000
v 8.514542 3.750000 -0.033619
v 8.514542 -0.042082 -0.033619
v 8.175518 3.750000 -0.033619
v 0.000000 4.208395 0.000000
v 9.999992 4.208395 0.000000
v 9.999992 0.206069 0.000000
v 9.999992 4.208395 0.054874
v 0.000000 4.208395 0.054874
v 9.999992 4.414464 0.054874
v 0.000000 4.414464 0.054874
v 0.000000 4.208395 0.000000
v 9.999992 -0.270663 0.054874
v 9.999992 0.206069 0.054874
v 0.000000 0.206069 0.000000
v 0.000000 0.206069 0.054874
v 0.000000 -0.270663 0.054874
v 1.504272 -0.042082 0.054874
v 1.504272 -0.042082 -0.033619
v 8.514542 -0.042082 0.054874
v 0.309387 0.206069 0.000000
v 1.190857 1.221298 0.000000
v 0.920494 0.543609 0.000000
v 8.827957 0.731714 0.000000
v 9.777035 0.206069 0.000000
v 9.210861 0.454853 0.000000
v 9.532528 4.046826 0.000000
v 8.827957 3.475157 0.000000
v 9.166553 3.570809 0.000000
v 5.401855 3.956069 0.000000
v 5.036804 4.208394 0.000000
vt 0.265739 0.084979
vt 0.265739 0.084979
vt 0.265739 0.084979
vt 0.265739 0.084979
vt 0.233912 0.088758
vt 0.233912 0.088758
vt 0.233912 0.088758
vt 0.233912 0.088758
vt 0.265739 0.084979
vt 0.265739 0.084979
vt 0.265739 0.084979
vt 0.265739 0.084979
vt 0.326295 0.085357
vt 0.326295 0.085357
vt 0.326295 0.085357
vt 0.326295 0.085357
vt 0.235904 0.085684
vt 0.235904 0.085684
vt 0.235904 0.085684
vt 0.235904 0.085684
vt 0.292200 0.084979
vt 0.292200 0.084979
vt 0.292200 0.084979
vt 0.292200 0.084979
vt 0.292200 0.084979
vt 0.292200 0.084979
vt 0.292200 0.084979
vt 0.292200 0.084979
vt 0.292200 0.084979
vt 0.292200 0.084979
vt 0.292200 0.084979
vt 0.292200 0.084979
vt 0.292200 0.084979
vt 0.292200 0.084979
vt 0.292200 0.084979
vt 0.292200 0.084979
vt 0.170554 0.476974
vt 0.170554 0.476974
vt 0.170554 0.476974
vt 0.170554 0.476974
vt 0.170554 0.476974
vt 0.170554 0.476974
vt 0.170554 0.476974
vt 0.170554 0.476974
vt 0.197015 0.476974
vt 0.197015 0.476974
vt 0.197015 0.476974
vt 0.197015 0.476974
vt 0.235904 0.085684
vt 0.235904 0.085684
vt 0.235904 0.085684
vt 0.235904 0.085684
vt 0.262497 0.179755
vt 0.262497 0.179755
vt 0.262497 0.179755
vt 0.262497 0.179755
vt 0.697600 0.981690
vt 0.697600 0.981776
vt 0.580253 0.981776
vt 0.580253 0.981690
vt 0.267958 0.063271
vt 0.267958 0.063271
vt 0.267958 0.063271
vt 0.267958 0.063271
vt 0.226089 0.063380
vt 0.226089 0.063380
vt 0.226089 0.063380
vt 0.226089 0.063380
vt 0.226089 0.063380
vt 0.226089 0.063271
vt 0.226089 0.063271
vt 0.226089 0.063271
vt 0.226089 0.063271
vt 0.267958 0.063180
vt 0.267958 0.063180
vt 0.267958 0.063180
vt 0.226089 0.063380
vt 0.226089 0.063380
vt 0.226089 0.063380
vt 0.226089 0.063380
vt 0.226089 0.063380
vt 0.226089 0.063380
vt 0.226089 0.063316
vt 0.226089 0.063316
vt 0.226089 0.063316
vt 0.226089 0.063316
vt 0.226089 0.063316
vt 0.267958 0.063180
vt 0.267958 0.063180
vt 0.267958 0.063180
vt 0.267958 0.063180
vt 0.226089 0.063271
vt 0.226089 0.063271
vt 0.226089 0.063271
vt 0.226089 0.063271
vt 0.267958 0.063180
vt 0.267958 0.063180
vt 0.267958 0.063180
vt 0.267958 0.063180
vt 0.226089 0.063380
vt 0.226089 0.063380
vt 0.226089 0.063380
vt 0.226089 0.063380
vt 0.267958 0.063180
vt 0.267958 0.063180
vt 0.267958 0.063180
vt 0.267958 0.063180
vt 0.327530 0.062480
vt 0.327530 0.062480
vt 0.327530 0.062480
vt 0.327530 0.062480
vt 0.327530 0.062480
vt 0.326183 0.061133
vt 0.334735 0.063278
vt 0.334735 0.063278
vt 0.334735 0.063278
vt 0.334735 0.063278
vt 0.334735 0.063278
vt 0.334735 0.063278
vt 0.334735 0.063278
vt 0.334735 0.063278
vt 0.267958 0.063271
vt 0.267958 0.063271
vt 0.267958 0.063271
vt 0.267958 0.063271
vt 0.222330 0.062948
vt 0.222330 0.062948
vt 0.222330 0.062948
vt 0.222330 0.062948
vt 0.222330 0.062948
vt 0.226089 0.063316
vt 0.226089 0.063316
vt 0.226089 0.063316
vt 0.226089 0.063316
vt 0.226089 0.063316
vt 0.267958 0.063271
vt 0.267958 0.063271
vt 0.267958 0.063271
vt 0.267958 0.063351
vt 0.267958 0.063351
vt 0.267958 0.063351
vt 0.267958 0.063351
vt 0.267958 0.063200
vt 0.267958 0.063200
vt 0.267958 0.063200
vt 0.267958 0.063200
vt 0.267958 0.063180
vt 0.267958 0.063180
vt 0.267958 0.063180
vt 0.267958 0.063180
vt 0.226089 0.063271
vt 0.226089 0.063271
vt 0.226089 0.063271
vt 0.226089 0.063271
vt 0.301648 0.063278
vt 0.301648 0.063278
vt 0.301649 0.063278
vt 0.301648 0.063278
vt 0.301648 0.063278
vt 0.301649 0.063278
vt 0.301648 0.063278
vt 0.301648 0.063278
vt 0.296551 0.063153
vt 0.296551 0.063153
vt 0.296551 0.063153
vt 0.296551 0.063153
vt 0.296551 0.063153
vt 0.297867 0.063278
vt 0.297867 0.063278
vt 0.297867 0.063278
vt 0.297867 0.063278
vt 0.334735 0.063278
vt 0.334735 0.063278
vn 1.000000 0.000000 0.000000
vn 1.000000 0.000000 0.000000
vn 1.000000 0.000000 0.000000
vn 1.000000 0.000000 0.000000
vn 0.000000 -1.000000 0.000000
vn 0.000000 -1.000000 0.000000
vn 0.000000 -1.000000 0.000000
vn 0.000000 -1.000000 0.000000
vn -1.000000 0.000000 0.000000
vn -1.000000 0.000000 0.000000
vn -1.000000 0.000000 0.000000
vn -1.000000 0.000000 0.000000
vn 0.000000 1.000000 0.000000
vn 0.000000 1.000000 0.000000
vn 0.000000 1.000000 0.000000
vn 0.000000 1.000000 0.000000
vn 0.000000 0.000000 1.000000
vn 0.000000 0.000000 1.000000
vn 0.000000 0.000000 1.000000
vn 0.000000 0.000000 1.000000
vn 0.000000 0.000000 1.000000
vn 0.000000 0.000000 1.000000
vn 0.000000 0.000000 1.000000
vn 0.000000 0.000000 1.000000
vn 0.000000 0.000000 1.000000
vn 0.000000 0.000000 1.000000
vn 0.000000 0.000000 1.000000
vn 0.000000 0.000000 1.000000
vn 0.000000 0.000000 1.000000
vn 0.000000 0.000000 1.000000
vn 0.000000 0.000000 1.000000
vn 0.000000 0.000000 1.000000
vn -0.000000 0.000000 1.000000
vn -0.000000 0.000000 1.000000
vn -0.000000 0.000000 1.000000
vn -0.000000 0.000000 1.000000
vn 1.000000 0.000000 0.000000
vn 1.000000 0.000000 0.000000
vn 1.000000 0.000000 0.000000
vn 1.000000 0.000000 0.000000
vn -1.000000 0.000000 0.000000
vn -1.000000 0.000000 0.000000
vn -1.000000 0.000000 0.000000
vn -1.000000 0.000000 0.000000
vn 0.000000 0.000000 1.000000
vn 0.000000 0.000000 1.000000
vn 0.000000 0.000000 1.000000
vn 0.000000 0.000000 1.000000
vn 0.000000 0.000000 1.000000
vn 0.000000 0.000000 1.000000
vn 0.000000 0.000000 1.000000
vn 0.000000 0.000000 1.000000
vn -0.000000 0.000000 1.000000
vn -0.000000 0.000000 1.000000
vn -0.000000 0.000000 1.000000
vn -0.000000 0.000000 1.000000
vn 0.000000 0.000000 1.000000
vn 0.000000 0.000000 1.000000
vn 0.000000 0.000000 1.000000
vn 0.000000 0.000000 1.000000
vn 0.000000 0.000000 1.000000
vn 0.000000 0.000000 1.000000
vn 0.000000 0.000000 1.000000
vn 0.000000 0.000000 1.000000
vn 0.000000 0.000000 1.000000
vn 0.000000 0.000000 1.000000
vn 0.000000 0.000000 1.000000
vn 0.000000 0.000000 1.000000
vn 0.000000 0.000000 1.000000
vn 0.000000 0.000000 1.000000
vn 0.000000 0.000000 1.000000
vn 0.000000 0.000000 1.000000
vn -1.000000 0.000000 0.000000
vn -1.000000 0.000000 0.000000
vn -1.000000 0.000000 0.000000
vn -1.000000 0.000000 0.000000
vn -1.000000 0.000000 0.000000
vn 1.000000 0.000000 0.000000
vn 1.000000 0.000000 0.000000
vn 1.000000 0.000000 0.000000
vn 1.000000 0.000000 0.000000
vn 0.000000 0.000000 1.000000
vn 0.000000 0.000000 1.000000
vn 0.000000 0.000000 1.000000
vn 1.000000 -0.000001 0.000000
vn 1.000000 -0.000001 0.000000
vn 1.000000 -0.000001 0.000000
vn 1.000000 -0.000001 0.000030
vn 1.000000 -0.000001 0.000030
vn 1.000000 -0.000001 0.000000
vn 0.000000 1.000000 0.000000
vn 0.000000 1.000000 0.000000
vn 0.000000 1.000000 0.000000
vn 0.000000 1.000000 0.000000
vn 0.000000 1.000000 0.000000
vn 0.000000 0.000000 1.000000
vn 0.000000 0.000000 1.000000
vn 0.000000 0.000000 1.000000
vn 0.000000 0.000000 1.000000
vn 0.000000 -1.000000 0.000000
vn 0.000000 -1.000000 0.000000
vn 0.000000 -1.000000 0.000000
vn 0.000000 -1.000000 0.000000
vn 0.000000 0.000000 1.000000
vn 0.000000 0.000000 1.000000
vn 0.000000 0.000000 1.000000
vn 0.000000 0.000000 1.000000
vn 0.000000 -1.000000 0.000000
vn 0.000000 -1.000000 0.000000
vn 0.000000 -1.000000 0.000000
vn 0.000000 -1.000000 0.000000
vn 0.000000 0.000000 1.000000
vn 0.000000 0.000000 1.000000
vn 0.000000 0.000000 1.000000
vn 0.000000 0.000000 1.000000
vn 0.000000 0.000000 1.000000
vn 0.000000 0.000000 1.000000
vn 0.000000 0.000000 1.000000
vn 0.000000 0.000000 1.000000
vn 0.000000 0.000000 1.000000
vn 0.000000 0.000000 1.000000
vn 0.000000 0.000000 1.000000
vn 0.000000 0.000000 1.000000
vn 0.000000 0.000000 1.000000
vn 0.000000 0.000000 1.000000
vn 0.000000 0.000000 1.000000
vn 0.000000 0.000000 1.000000
vn 0.000000 -0.000000 1.000000
vn 0.000000 0.000000 1.000000
vn 0.000000 -0.000000 1.000000
vn 0.000000 0.000000 1.000000
vn 0.000000 0.000000 1.000000
vn 0.000000 -0.000000 1.000000
vn 0.000000 -0.000000 1.000000
vn 0.000000 0.000000 1.000000
vn 0.000000 0.000000 1.000000
vn 0.000000 0.000000 1.000000
vn 0.000000 0.000000 1.000000
vn 0.000000 0.000000 1.000000
vn 0.000000 0.000000 1.000000
vn 0.000000 0.000000 1.000000
vn 0.000000 0.000000 1.000000
vn 0.000000 0.000000 1.000000
vn 0.000000 0.000000 1.000000
vn 0.000000 0.000000 1.000000
vn 0.000000 0.000000 1.000000
vn 0.000000 0.000000 1.000000
vn 0.000000 0.000000 1.000000
vn 0.000000 0.000000 1.000000
vn 0.000000 1.000000 0.000000
vn 0.000000 1.000000 0.000000
vn 0.000000 1.000000 0.000000
vn 0.000000 1.000000 0.000000
vn 0.000000 1.000000 0.000000
vn -0.000000 1.000000 -0.000002
vn -0.000000 1.000000 -0.000002
vn -0.000000 1.000000 -0.000002
vn -0.000000 1.000000 -0.000002
vn -0.000000 1.000000 -0.000002
vn 0.000000 0.000000 1.000000
vn 0.000000 0.000000 1.000000
vn 0.000000 0.000000 1.000000
vn 0.000000 1.000000 0.000000
vn 0.000000 1.000000 0.000000
vn 0.000000 1.000000 0.000000
vn 0.000000 1.000000 0.000000
vn 0.000000 0.000000 1.000000
vn 0.000000 0.000000 1.000000
vn 0.000000 0.000000 1.000000
vn 0.000000 0.000000 1.000000
vn 0.000000 0.000000 1.000000
vn 0.000000 0.000000 1.000000
vn 0.000000 0.000000 1.000000
vn 0.000000 0.000000 1.000000
vn -1.000000 0.000000 0.000000
vn -1.000000 0.000000 0.000000
vn -1.000000 0.000000 0.000000
vn -1.000000 0.000000 0.000000
vn 0.000000 0.000000 1.000000
vn 0.000000 0.000000 1.000000
vn 0.000000 0.000000 1.000000
vn 0.000000 0.000000 1.000000
vn 0.000000 0.000000 1.000000
vn 0.000000 0.000000 1.000000
vn 0.000000 0.000000 1.000000
vn 0.000000 0.000000 1.000000
vn 0.000000 -0.000000 1.000000
vn 0.000000 -0.000000 1.000000
vn 0.000000 0.000000 1.000000
vn 0.000000 0.000000 1.000000
vn 0.000000 0.000000 1.000000
vn 0.000000 0.000000 1.000000
vn 0.000000 0.000000 1.000000
vn 0.000000 0.000000 1.000000
vn 0.000000 0.000000 1.000000
vn 0.000000 0.000000 1.000000
vn 0.000000 0.000000 1.000000
vn 0.000000 0.000000 1.000000
vn 0.000000 -0.000000 1.000000
vn 0.000000 0.000000 1.000000
vn 0.000000 0.000000 1.000000
vn 0.000000 0.000000 1.000000
vn 0.000000 0.000000 1.000000
s off
f 1/1/1 2/2/2 4/3/3 3/4/4
f 3/5/5 4/6/6 6/7/7 5/8/8
f 5/9/9 6/10/10 8/11/11 7/12/12
f 7/13/13 8/14/14 2/15/15 1/16/16
f 22/53/17 21/54/18 23/55/19 24/56/20
f 2/21/21 8/22/22 9/23/23 10/24/24
f 8/25/25 6/26/26 11/27/27 9/28/28
f 6/29/29 4/30/30 12/31/31 11/32/32
f 4/33/33 2/34/34 10/35/35 12/36/36
f 13/37/37 14/38/38 16/39/39 15/40/40
f 17/41/41 18/42/42 20/43/43 19/44/44
f 14/45/45 20/46/46 18/47/47 16/48/48
f 10/17/49 9/18/50 21/50/51 22/49/52
f 9/18/53 11/19/54 23/51/55 21/50/56
f 11/19/57 12/20/58 24/52/59 23/51/60
f 12/20/61 10/17/62 22/49/63 24/52/64
f 25/57/65 28/58/66 27/59/67 26/60/68
f 30/61/69 58/62/70 31/63/71 29/64/72
f 29/65/73 33/66/74 62/67/75 34/68/76 30/69/77
f 58/70/78 59/71/79 35/72/80 31/73/81
f 37/74/82 60/75/83 39/76/84
f 36/77/85 37/78/86 41/79/87 64/80/88 68/81/89 40/82/90
f 29/83/91 36/84/92 40/85/93 70/86/94 33/87/95
f 31/88/96 38/89/97 36/90/98 29/91/99
f 38/92/100 31/93/101 35/94/102 44/95/103
f 49/96/104 48/97/105 50/98/106 51/99/107
f 48/100/108 49/101/109 52/102/110 46/103/111
f 39/104/112 53/105/113 54/106/114 37/107/115
f 45/108/116 55/109/117 33/113/118
f 55/109/119 61/110/120 33/113/121
f 61/110/122 63/111/123 33/113/124
f 63/111/125 62/112/126 33/113/127
f 46/114/128 67/115/129 47/121/130
f 67/115/131 69/116/132 47/121/133
f 47/121/134 69/116/135 65/120/136
f 65/120/137 69/116/138 66/119/139
f 66/119/140 69/116/141 64/118/142
f 69/116/143 68/117/144 64/118/145
f 32/122/146 30/123/147 56/124/148 57/125/149
f 56/126/150 30/127/151 34/128/152 61/129/153 55/130/154
f 41/131/155 37/132/156 54/133/157 47/134/158 65/135/159
f 30/136/160 32/137/161 58/138/162
f 43/139/163 59/140/164 58/141/165 60/142/166
f 60/143/167 58/144/168 32/145/169 39/146/170
f 37/147/171 36/148/172 38/149/173 60/150/174
f 43/151/175 60/152/176 38/153/177 42/154/178
f 62/155/179 63/156/180 34/158/181
f 34/158/182 63/156/183 61/157/184
f 65/159/185 66/160/186 41/162/187
f 41/162/188 66/160/189 64/161/190
f 67/163/191 46/164/192 71/165/193 70/166/194 40/167/195
f 68/168/196 69/169/197 67/170/198 40/171/199
f 45/108/200 33/113/201 70/172/202 71/173/203
