# This file uses centimeters as units for non-parametric coordinates.

v 5.000002 4.208395 0.054874
v 0.000002 4.208395 0.054875
v 5.000002 4.414464 0.054874
v 0.000000 4.414464 0.054875
v 5.000002 4.208395 0.000000
v 0.000001 4.208395 0.000000
v 5.000002 0.206069 0.000000
v -0.000000 0.206069 0.000000
v 5.000002 -0.270663 0.054874
v 0.000002 -0.270663 0.054875
v 5.000002 0.206069 0.054874
v 0.000000 0.206069 0.054875
v 0.960802 0.489551 0.000000
v 4.039200 0.489551 0.000000
v 4.039200 3.304937 0.000000
v 0.960802 3.304937 0.000000
vt 0.269526 0.061178
vt 0.269526 0.061178
vt 0.269526 0.061178
vt 0.269526 0.061178
vt 0.233200 0.061450
vt 0.233200 0.061450
vt 0.233200 0.061450
vt 0.233200 0.061450
vt 0.828502 0.279718
vt 0.993875 0.279718
vt 0.993875 0.434694
vt 0.828502 0.434694
vt 0.269526 0.061178
vt 0.269526 0.061178
vt 0.269526 0.061178
vt 0.269526 0.061178
vt 0.233200 0.061363
vt 0.233200 0.061363
vt 0.233200 0.061363
vt 0.233200 0.061363
vt 0.329172 0.064657
vt 0.329172 0.064657
vt 0.329172 0.064657
vt 0.329172 0.064657
vt 0.329172 0.064657
vt 0.329172 0.064657
vt 0.329172 0.064657
vt 0.329172 0.064657
vn 0.000000 0.000000 1.000000
vn 0.000000 0.000000 1.000000
vn 0.000000 0.000000 1.000000
vn 0.000000 0.000000 1.000000
vn 0.000000 -1.000000 0.000000
vn 0.000000 -1.000000 0.000000
vn 0.000000 -1.000000 0.000000
vn 0.000000 -1.000000 0.000000
vn -0.000000 0.000000 1.000000
vn -0.000000 0.000000 1.000000
vn 0.000000 0.000000 1.000000
vn -0.000000 0.000000 1.000000
vn 0.000000 0.000000 1.000000
vn 0.000000 0.000000 1.000000
vn 0.000000 0.000000 1.000000
vn 0.000000 0.000000 1.000000
vn 0.000000 1.000000 -0.000000
vn 0.000000 1.000000 -0.000000
vn 0.000000 1.000000 -0.000000
vn 0.000000 1.000000 -0.000000
vn 0.000000 0.000000 1.000000
vn 0.000000 0.000000 1.000000
vn -0.000000 0.000000 1.000000
vn -0.000000 0.000000 1.000000
vn 0.000000 0.000000 1.000000
vn 0.000000 0.000000 1.000000
vn 0.000000 0.000000 1.000000
vn -0.000000 0.000000 1.000000
vn 0.000000 0.000000 1.000000
vn 0.000000 0.000000 1.000000
vn -0.000000 0.000000 1.000000
vn 0.000000 0.000000 1.000000
vn -0.000000 0.000000 1.000000
vn -0.000000 0.000000 1.000000
vn -0.000000 0.000000 1.000000
vn -0.000000 0.000000 1.000000
s off
f 2/1/1 1/2/2 3/3/3 4/4/4
f 1/5/5 2/6/6 6/7/7 5/8/8
f 13/9/9 14/10/10 15/11/11 16/12/12
f 10/13/13 9/14/14 11/15/15 12/16/16
f 12/17/17 11/18/18 7/19/19 8/20/20
f 8/21/21 7/22/22 14/23/23 13/24/24
f 7/22/25 5/25/26 15/26/27 14/23/28
f 5/25/29 6/27/30 16/28/31 15/26/32
f 6/27/33 8/21/34 13/24/35 16/28/36
