# This file uses centimeters as units for non-parametric coordinates.

v 0.000008 0.000000 0.000000
v 0.000008 0.000000 5.000000
v 5.000008 0.000000 0.000000
v 5.000008 0.000000 5.000000
v 2.250011 0.000000 0.000000
v 2.250008 0.000000 5.000000
v 2.025013 0.000000 0.000000
v 2.025005 0.000000 5.000000
v 2.750008 0.000000 0.000000
v 2.750011 0.000000 5.000000
v 2.975006 0.000000 0.000000
v 2.975014 0.000000 5.000000
vt 0.262615 0.062211
vt 0.262615 0.062211
vt 0.262615 0.062211
vt 0.262615 0.062211
vt 0.262615 0.062211
vt 0.262615 0.062211
vt 0.262615 0.062211
vt 0.262615 0.062211
vt 0.262615 0.062211
vt 0.262615 0.062211
vt 0.262615 0.062211
vt 0.262615 0.062211
vt 0.199895 0.222982
vt 0.199895 0.222982
vt 0.199895 0.222982
vt 0.199895 0.222982
vt 0.199895 0.222982
vt 0.199895 0.222982
vt 0.199895 0.222982
vt 0.199895 0.222982
vn 0.000000 1.000000 0.000000
vn 0.000000 1.000000 0.000000
vn 0.000000 1.000000 0.000000
vn 0.000000 1.000000 0.000000
vn 0.000000 1.000000 0.000000
vn 0.000000 1.000000 0.000000
vn 0.000000 1.000000 0.000000
vn 0.000000 1.000000 0.000000
vn 0.000000 1.000000 0.000000
vn 0.000000 1.000000 0.000000
vn 0.000000 1.000000 0.000000
vn 0.000000 1.000000 0.000000
s 1
f 3/1/1 11/11/2 12/12/3 4/4/4
f 6/13/5 5/14/6 7/15/7 8/16/8
f 8/8/8 7/7/7 1/2/9 2/3/10
f 6/6/5 10/10/11 9/9/12 5/5/6
f 12/17/3 11/18/2 9/19/12 10/20/11
