# This file uses centimeters as units for non-parametric coordinates.

v 5.000000 0.000000 0.000000
v 0.000000 0.000000 0.000000
v 0.000000 3.750000 0.000000
v 5.000000 3.750000 0.000000
v 0.139769 0.259357 0.000000
v 4.860231 0.259357 0.000000
v 4.860231 2.362071 0.000000
v 0.139769 2.362071 0.000000
v 0.139769 0.259357 -0.454645
v 4.860231 0.259357 -0.454645
v 4.860231 2.362071 -0.454645
v 0.139769 2.362071 -0.454645
v 0.139769 2.639205 0.000000
v 4.860231 2.639205 0.000000
v 4.860231 3.610795 0.000000
v 0.139769 3.610795 0.000000
v 0.139769 2.639205 -0.454645
v 4.860231 2.639205 -0.454645
v 4.860231 3.610795 -0.454645
v 0.139769 3.610795 -0.454645
v 0.000000 2.362071 0.000000
v 0.000000 2.639205 0.000000
v 5.000000 2.639205 0.000000
v 5.000000 2.362071 0.000000
v 2.647515 2.639205 0.000000
v 2.500000 2.362071 0.000000
v 1.319884 2.362071 0.000000
v 1.467399 2.639205 0.000000
v 3.680115 2.362071 0.000000
v 3.827630 2.639205 0.000000
v 3.237573 2.639205 0.000000
v 3.090058 2.362071 0.000000
v 4.417688 2.639205 0.000000
v 4.270173 2.362071 0.000000
v 2.057457 2.639205 0.000000
v 1.909942 2.362071 0.000000
v 0.877341 2.639205 0.000000
v 0.729827 2.362071 0.000000
v 0.582313 2.639205 0.000000
v 0.434798 2.362071 0.000000
v 1.024856 2.362071 0.000000
v 1.172370 2.639205 0.000000
v 1.762428 2.639205 0.000000
v 1.614913 2.362071 0.000000
v 2.204971 2.362071 0.000000
v 2.352486 2.639205 0.000000
v 2.942544 2.639205 0.000000
v 2.795029 2.362071 0.000000
v 3.385087 2.362071 0.000000
v 3.532601 2.639205 0.000000
v 4.122659 2.639205 0.000000
v 3.975144 2.362071 0.000000
v 4.565202 2.362071 0.000000
v 4.712717 2.639205 0.000000
v 0.434798 2.639205 0.000000
v 0.287283 2.362071 0.000000
v 0.582312 2.362071 0.000000
v 0.729827 2.639205 0.000000
v 1.024856 2.639205 0.000000
v 0.877341 2.362071 0.000000
v 1.172370 2.362071 0.000000
v 1.319885 2.639205 0.000000
v 1.614914 2.639205 0.000000
v 1.467399 2.362071 0.000000
v 1.762428 2.362071 0.000000
v 1.909943 2.639205 0.000000
v 2.204971 2.639205 0.000000
v 2.057456 2.362071 0.000000
v 2.352486 2.362071 0.000000
v 2.500000 2.639205 0.000000
v 2.795029 2.639205 0.000000
v 2.647514 2.362071 0.000000
v 2.942544 2.362071 0.000000
v 3.090058 2.639205 0.000000
v 3.385087 2.639205 0.000000
v 3.237572 2.362071 0.000000
v 3.532601 2.362071 0.000000
v 3.680116 2.639205 0.000000
v 3.975145 2.639205 0.000000
v 3.827630 2.362071 0.000000
v 4.122659 2.362071 0.000000
v 4.270174 2.639205 0.000000
v 4.565202 2.639205 0.000000
v 4.417687 2.362071 0.000000
v 4.712716 2.362071 0.000000
v 4.860231 2.639205 0.000000
v 0.287284 2.639205 0.000000
vt 0.298747 0.083393
vt 0.298747 0.083393
vt 0.298747 0.083393
vt 0.298747 0.083393
vt 0.324043 0.083393
vt 0.233468 0.083393
vt 0.298747 0.083393
vt 0.233468 0.083393
vt 0.266924 0.062211
vt 0.233468 0.083393
vt 0.298747 0.083393
vt 0.233468 0.083393
vt 0.324043 0.083393
vt 0.233468 0.083393
vt 0.204092 0.083393
vt 0.233468 0.083393
vt 0.266924 0.062211
vt 0.233468 0.083393
vt 0.204092 0.083393
vt 0.233468 0.083393
vt 0.266924 0.062211
vt 0.324043 0.083393
vt 0.266924 0.062211
vt 0.266924 0.062211
vt 0.266924 0.062211
vt 0.324043 0.083393
vt 0.266924 0.062211
vt 0.266924 0.062211
vt 0.233468 0.083393
vt 0.324043 0.083393
vt 0.324043 0.083393
vt 0.233468 0.083393
vt 0.324043 0.083393
vt 0.324043 0.083393
vt 0.298747 0.083393
vt 0.204092 0.083393
vt 0.298747 0.083393
vt 0.233468 0.083393
vt 0.233468 0.083393
vt 0.298747 0.083393
vt 0.233468 0.083393
vt 0.298747 0.083393
vt 0.298747 0.083393
vt 0.233468 0.083393
vt 0.233468 0.083393
vt 0.298747 0.083393
vt 0.233468 0.083393
vt 0.204092 0.083393
vt 0.298747 0.083393
vt 0.298747 0.083393
vt 0.298747 0.083393
vt 0.299702 0.219756
vt 0.298747 0.083393
vt 0.298747 0.083393
vt 0.298747 0.083393
vt 0.299702 0.219756
vt 0.298747 0.083393
vt 0.298747 0.083393
vt 0.298747 0.083393
vt 0.298747 0.083393
vt 0.298747 0.083393
vt 0.298747 0.083393
vt 0.298747 0.083393
vt 0.298747 0.083393
vt 0.298747 0.083393
vt 0.298747 0.083393
vt 0.324043 0.083393
vt 0.299702 0.219756
vt 0.299702 0.219756
vt 0.298747 0.083393
vt 0.299702 0.219756
vt 0.298747 0.083393
vt 0.324043 0.083393
vt 0.299702 0.219756
vt 0.299702 0.219756
vt 0.298747 0.083393
vt 0.324043 0.083393
vt 0.299702 0.219756
vt 0.324043 0.083393
vt 0.299702 0.219756
vt 0.299702 0.219756
vt 0.298747 0.083393
vt 0.324043 0.083393
vt 0.299702 0.219756
vt 0.299702 0.219756
vt 0.298747 0.083393
vt 0.324043 0.083393
vt 0.299702 0.219756
vt 0.299702 0.219756
vt 0.298747 0.083393
vt 0.324043 0.083393
vt 0.299702 0.219756
vt 0.299702 0.219756
vt 0.298747 0.083393
vt 0.324043 0.083393
vt 0.299702 0.219756
vt 0.299702 0.219756
vt 0.298747 0.083393
vt 0.299702 0.219756
vt 0.298747 0.083393
vt 0.324043 0.083393
vt 0.299702 0.219756
vt 0.324043 0.083393
vt 0.299702 0.219756
vt 0.299702 0.219756
vt 0.298747 0.083393
vt 0.299702 0.219756
vt 0.298747 0.083393
vt 0.324043 0.083393
vt 0.299702 0.219756
vt 0.324043 0.083393
vt 0.299702 0.219756
vt 0.299702 0.219756
vt 0.298747 0.083393
vt 0.299702 0.219756
vt 0.298747 0.083393
vt 0.324043 0.083393
vt 0.299702 0.219756
vt 0.324043 0.083393
vt 0.299702 0.219756
vt 0.299702 0.219756
vt 0.298747 0.083393
vt 0.299702 0.219756
vt 0.298747 0.083393
vt 0.324043 0.083393
vt 0.299702 0.219756
vt 0.324043 0.083393
vt 0.299702 0.219756
vt 0.299702 0.219756
vt 0.298747 0.083393
vt 0.299702 0.219756
vt 0.298747 0.083393
vt 0.324043 0.083393
vt 0.299702 0.219756
vt 0.324043 0.083393
vt 0.299702 0.219756
vt 0.299702 0.219756
vt 0.298747 0.083393
vt 0.299702 0.219756
vt 0.298747 0.083393
vt 0.324043 0.083393
vt 0.299702 0.219756
vt 0.324043 0.083393
vt 0.299702 0.219756
vt 0.299702 0.219756
vt 0.298747 0.083393
vt 0.299702 0.219756
vt 0.298747 0.083393
vt 0.324043 0.083393
vt 0.299702 0.219756
vt 0.324043 0.083393
vt 0.299702 0.219756
vt 0.299702 0.219756
vt 0.298747 0.083393
vt 0.299702 0.219756
vt 0.298747 0.083393
vt 0.324043 0.083393
vt 0.299702 0.219756
vt 0.324043 0.083393
vt 0.299702 0.219756
vt 0.299702 0.219756
vt 0.298747 0.083393
vt 0.299702 0.219756
vt 0.298747 0.083393
vt 0.324043 0.083393
vt 0.299702 0.219756
vt 0.324043 0.083393
vt 0.299702 0.219756
vt 0.299702 0.219756
vt 0.298747 0.083393
vt 0.299702 0.219756
vt 0.298747 0.083393
vt 0.324043 0.083393
vt 0.299702 0.219756
vt 0.324043 0.083393
vt 0.299702 0.219756
vt 0.299702 0.219756
vt 0.298747 0.083393
vt 0.299702 0.219756
vt 0.298747 0.083393
vt 0.324043 0.083393
vt 0.299702 0.219756
vt 0.324043 0.083393
vt 0.299702 0.219756
vt 0.299702 0.219756
vt 0.298747 0.083393
vt 0.299702 0.219756
vt 0.298747 0.083393
vt 0.324043 0.083393
vt 0.299702 0.219756
vt 0.324043 0.083393
vt 0.299702 0.219756
vt 0.167661 0.060830
vt 0.167661 0.060830
vt 0.167661 0.060830
vt 0.167661 0.060830
vt 0.167661 0.060830
vt 0.167661 0.060830
vt 0.167661 0.060830
vt 0.167661 0.060830
vt 0.167661 0.060830
vt 0.167661 0.060830
vt 0.167661 0.060830
vt 0.167661 0.060830
vt 0.167661 0.060830
vt 0.167661 0.060830
vt 0.167661 0.060830
vt 0.167661 0.060830
vt 0.167661 0.060830
vt 0.167661 0.060830
vt 0.167661 0.060830
vt 0.167661 0.060830
vt 0.167661 0.060830
vt 0.167661 0.060830
vt 0.167661 0.060830
vt 0.167661 0.060830
vt 0.167661 0.060830
vt 0.167661 0.060830
vt 0.167661 0.060830
vt 0.167661 0.060830
vt 0.167661 0.060830
vt 0.167661 0.060830
vt 0.167661 0.060830
vt 0.167661 0.060830
vt 0.167661 0.060830
vt 0.167661 0.060830
vt 0.167661 0.060830
vt 0.167661 0.060830
vt 0.167661 0.060830
vt 0.167661 0.060830
vt 0.167661 0.060830
vt 0.167661 0.060830
vt 0.167661 0.060830
vt 0.167661 0.060830
vt 0.167661 0.060830
vt 0.167661 0.060830
vt 0.167661 0.060830
vt 0.167661 0.060830
vt 0.167661 0.060830
vt 0.167661 0.060830
vt 0.167661 0.060830
vt 0.167661 0.060830
vt 0.167661 0.060830
vt 0.167661 0.060830
vt 0.167661 0.060830
vt 0.167661 0.060830
vt 0.167661 0.060830
vt 0.167661 0.060830
vt 0.167661 0.060830
vt 0.167661 0.060830
vt 0.167661 0.060830
vt 0.167661 0.060830
vt 0.167661 0.060830
vt 0.167661 0.060830
vt 0.167661 0.060830
vt 0.167661 0.060830
vt 0.167661 0.060830
vt 0.167661 0.060830
vt 0.167661 0.060830
vt 0.167661 0.060830
vt 0.167661 0.060830
vt 0.167661 0.060830
vt 0.299702 0.219756
vt 0.299702 0.219756
vt 0.299702 0.219756
vt 0.299702 0.219756
vn 0.000000 0.000000 1.000000
vn 0.000000 0.000000 1.000000
vn 0.000000 0.000000 1.000000
vn 0.000000 0.000000 1.000000
vn 0.000000 0.000000 1.000000
vn 0.000000 0.000000 1.000000
vn 0.000000 0.000000 1.000000
vn 0.000000 0.000000 1.000000
vn 0.000000 0.000000 1.000000
vn 0.000000 0.000000 1.000000
vn 0.000000 0.000000 1.000000
vn 0.000000 0.000000 1.000000
vn 0.000000 0.000000 1.000000
vn 0.000000 0.000000 1.000000
vn 0.000000 0.000000 1.000000
vn 0.000000 0.000000 1.000000
vn 0.000000 1.000000 0.000000
vn 0.000000 1.000000 0.000000
vn 0.000000 1.000000 0.000000
vn 0.000000 1.000000 0.000000
vn -1.000000 0.000000 0.000000
vn -1.000000 0.000000 0.000000
vn -1.000000 0.000000 0.000000
vn -1.000000 0.000000 0.000000
vn 0.000000 -1.000000 -0.000001
vn 0.000000 -1.000000 -0.000001
vn 0.000000 -1.000000 -0.000001
vn 0.000000 -1.000000 -0.000001
vn 0.000000 -1.000000 -0.000001
vn 0.000000 -1.000000 -0.000001
vn 0.000000 -1.000000 -0.000001
vn 0.000000 -1.000000 -0.000001
vn 0.000000 -1.000000 -0.000001
vn 0.000000 -1.000000 -0.000001
vn 0.000000 -1.000000 -0.000001
vn 0.000000 -1.000000 -0.000001
vn 0.000000 -1.000000 -0.000001
vn 0.000000 -1.000000 -0.000001
vn 0.000000 -1.000000 -0.000001
vn 0.000000 -1.000000 -0.000001
vn 0.000000 -1.000000 -0.000001
vn 0.000000 -1.000000 -0.000001
vn 0.000000 -1.000000 -0.000001
vn 0.000000 -1.000000 -0.000001
vn 0.000000 -1.000000 -0.000001
vn 0.000000 -1.000000 -0.000001
vn 0.000000 -1.000000 -0.000001
vn 0.000000 -1.000000 -0.000001
vn 0.000000 -1.000000 -0.000001
vn 0.000000 -1.000000 -0.000001
vn 0.000000 -1.000000 -0.000001
vn 0.000000 -1.000000 -0.000001
vn 0.000000 -1.000000 -0.000001
vn 0.000000 -1.000000 -0.000001
vn 0.000000 -1.000000 -0.000001
vn 0.000000 -1.000000 -0.000001
vn 0.000000 -1.000000 -0.000001
vn 0.000000 -1.000000 -0.000001
vn 0.000000 -1.000000 -0.000001
vn 1.000000 0.000000 0.000000
vn 1.000000 0.000000 0.000000
vn 1.000000 0.000000 0.000000
vn 1.000000 0.000000 0.000000
vn 0.000000 0.000000 1.000000
vn 0.000000 0.000000 1.000000
vn 0.000000 0.000000 1.000000
vn 0.000000 0.000000 1.000000
vn 0.000000 0.000000 1.000000
vn 0.000000 0.000000 1.000000
vn 0.000000 0.000000 1.000000
vn 0.000000 0.000000 1.000000
vn 0.000000 0.000000 1.000000
vn 0.000000 0.000000 1.000000
vn 0.000000 0.000000 1.000000
vn 0.000000 0.000000 1.000000
vn 0.000000 1.000000 0.000000
vn 0.000000 1.000000 0.000000
vn 0.000000 1.000000 0.000000
vn 0.000000 1.000000 0.000000
vn 0.000000 1.000000 0.000000
vn 0.000000 1.000000 0.000000
vn 0.000000 1.000000 0.000000
vn 0.000000 1.000000 0.000000
vn 0.000000 1.000000 0.000000
vn 0.000000 1.000000 0.000000
vn 0.000000 1.000000 0.000000
vn 0.000000 1.000000 0.000000
vn 0.000000 1.000000 0.000000
vn 0.000000 1.000000 0.000000
vn 0.000000 1.000000 0.000000
vn 0.000000 1.000000 0.000000
vn 0.000000 1.000000 0.000000
vn 0.000000 1.000000 0.000000
vn 0.000000 1.000000 0.000000
vn 0.000000 1.000000 0.000000
vn 0.000000 1.000000 0.000000
vn 0.000000 1.000000 0.000000
vn 0.000000 1.000000 0.000000
vn 0.000000 1.000000 0.000000
vn 0.000000 1.000000 0.000000
vn 0.000000 1.000000 0.000000
vn 0.000000 1.000000 0.000000
vn 0.000000 1.000000 0.000000
vn 0.000000 1.000000 0.000000
vn 0.000000 1.000000 0.000000
vn 0.000000 1.000000 0.000000
vn 0.000000 1.000000 0.000000
vn 0.000000 0.000000 0.000000
vn 0.000000 0.000000 0.000000
vn 0.000000 1.000000 0.000000
vn 0.000000 1.000000 0.000000
vn -1.000000 0.000000 0.000000
vn -1.000000 0.000000 0.000000
vn -1.000000 0.000000 0.000000
vn -1.000000 0.000000 0.000000
vn 0.000000 -1.000000 0.000000
vn 0.000000 -1.000000 0.000000
vn 0.000000 -1.000000 0.000000
vn 0.000000 -1.000000 0.000000
vn 1.000000 0.000000 0.000000
vn 1.000000 0.000000 0.000000
vn 1.000000 0.000000 0.000000
vn 1.000000 0.000000 0.000000
vn 0.000000 0.000000 1.000000
vn 0.000000 0.000000 1.000000
vn 0.000000 0.000000 1.000000
vn 0.000000 0.000000 1.000000
vn 0.000000 0.000000 1.000000
vn 0.000000 0.000000 1.000000
vn 0.000000 0.000000 1.000000
vn 0.000000 0.000000 1.000000
vn 0.000000 0.000000 1.000000
vn 0.000000 0.000000 1.000000
vn 0.000000 0.000000 1.000000
vn 0.000000 0.000000 1.000000
vn 0.000000 0.000000 1.000000
vn 0.000000 0.000000 1.000000
vn 0.000000 0.000000 1.000000
vn 0.000000 0.000000 1.000000
vn 0.000000 0.000000 1.000000
vn 0.000000 0.000000 1.000000
vn 0.000000 0.000000 1.000000
vn 0.000000 0.000000 1.000000
vn 0.000000 0.000000 1.000000
vn 0.000000 0.000000 1.000000
vn 0.000000 0.000000 1.000000
vn 0.000000 0.000000 1.000000
vn 0.000000 0.000000 1.000000
vn 0.000000 0.000000 1.000000
vn 0.000000 0.000000 1.000000
vn 0.000000 0.000000 1.000000
vn 0.000000 0.000000 1.000000
vn 0.000000 0.000000 1.000000
vn 0.000000 0.000000 1.000000
vn 0.000000 0.000000 1.000000
vn 0.000000 0.000000 1.000000
vn 0.000000 0.000000 1.000000
vn 0.000000 0.000000 1.000000
vn 0.000000 0.000000 1.000000
vn 0.000000 0.000000 1.000000
vn 0.000000 0.000000 1.000000
vn 0.000000 0.000000 1.000000
vn 0.000000 0.000000 1.000000
vn 0.000000 0.000000 1.000000
vn 0.000000 0.000000 1.000000
vn 0.000000 0.000000 1.000000
vn 0.000000 0.000000 1.000000
vn 0.000000 0.000000 1.000000
vn 0.000000 0.000000 1.000000
vn 0.000000 0.000000 1.000000
vn 0.000000 0.000000 1.000000
vn 0.000000 0.000000 1.000000
vn 0.000000 0.000000 1.000000
vn 0.000000 0.000000 1.000000
vn 0.000000 0.000000 1.000000
vn 0.000000 0.000000 1.000000
vn 0.000000 0.000000 1.000000
vn 0.000000 0.000000 1.000000
vn 0.000000 0.000000 1.000000
vn 0.000000 0.000000 1.000000
vn 0.000000 0.000000 1.000000
vn 0.000000 0.000000 1.000000
vn 0.000000 0.000000 1.000000
vn 0.000000 0.000000 1.000000
vn 0.000000 0.000000 1.000000
vn 0.000000 0.000000 1.000000
vn 0.000000 0.000000 1.000000
vn 0.000000 0.000000 1.000000
vn 0.000000 0.000000 1.000000
vn 0.000000 0.000000 1.000000
vn 0.000000 0.000000 1.000000
vn 0.000000 0.000000 1.000000
vn 0.000000 0.000000 1.000000
vn 0.000000 0.000000 1.000000
vn 0.000000 0.000000 1.000000
vn 0.000000 0.000000 1.000000
vn 0.000000 0.000000 1.000000
vn 0.000000 0.000000 1.000000
vn 0.000000 0.000000 1.000000
vn 0.000000 0.000000 1.000000
vn 0.000000 0.000000 1.000000
vn 0.000000 0.000000 1.000000
vn 0.000000 0.000000 1.000000
vn 0.000000 0.000000 1.000000
vn 0.000000 0.000000 1.000000
vn 0.000000 0.000000 1.000000
vn 0.000000 0.000000 1.000000
vn 0.000000 0.000000 1.000000
vn 0.000000 0.000000 1.000000
vn 0.000000 0.000000 1.000000
vn 0.000000 0.000000 1.000000
vn 0.000000 0.000000 1.000000
vn 0.000000 0.000000 1.000000
vn 0.000000 0.000000 1.000000
vn 0.000000 0.000000 1.000000
vn 0.000000 0.000000 1.000000
vn 0.000000 0.000000 1.000000
vn 0.000000 0.000000 1.000000
vn 0.000000 0.000000 1.000000
vn 0.000000 0.000000 1.000000
vn 0.000000 0.000000 1.000000
vn 0.000000 0.000000 1.000000
vn 0.000000 0.000000 1.000000
vn 0.000000 0.000000 1.000000
vn 0.000000 0.000000 1.000000
vn 0.000000 0.000000 1.000000
vn 0.000000 0.000000 1.000000
vn 0.000000 0.000000 1.000000
vn 0.000000 0.000000 1.000000
vn 0.000000 0.000000 1.000000
vn 0.000000 0.000000 1.000000
vn 0.000000 0.000000 1.000000
vn 0.000000 0.000000 1.000000
vn 0.000000 0.000000 1.000000
vn 0.000000 0.000000 1.000000
vn 0.000000 0.000000 1.000000
vn 0.000000 0.000000 1.000000
vn 0.000000 0.000000 1.000000
vn 0.000000 0.000000 1.000000
vn 0.000000 0.000000 1.000000
vn 0.000000 0.000000 1.000000
vn 0.000000 0.000000 1.000000
vn 0.000000 0.000000 1.000000
vn 0.000000 0.000000 1.000000
vn 0.000000 0.000000 1.000000
vn 0.000000 0.000000 1.000000
vn 0.000000 0.000000 1.000000
vn 0.000000 0.000000 1.000000
vn 0.000000 0.000000 1.000000
vn 0.000000 0.000000 1.000000
vn 0.000000 0.000000 1.000000
vn 0.000000 0.000000 1.000000
vn 0.000000 0.000000 1.000000
vn 0.000000 0.000000 1.000000
vn 0.000000 0.000000 1.000000
vn 0.000000 0.000000 1.000000
vn 0.000000 0.000000 1.000000
vn 0.000000 0.000000 1.000000
vn 0.000000 0.000000 1.000000
vn 0.000000 0.000000 1.000000
vn 0.000000 0.000000 1.000000
vn 0.000000 0.000000 1.000000
vn 0.000000 0.000000 1.000000
vn 0.000000 0.000000 1.000000
vn 0.000000 0.000000 1.000000
vn 0.000000 0.000000 1.000000
s off
f 9/9/1 10/28/2 11/27/3 12/25/4
f 17/17/5 18/24/6 19/23/7 20/21/8
f 2/62/9 1/2/10 6/59/11 5/35/12
f 8/43/13 21/63/14 2/1/15 5/60/16
f 5/5/17 6/34/18 10/33/19 9/26/20
f 6/6/21 7/45/22 11/44/23 10/10/24
f 7/7/25 85/188/26 53/124/27 84/186/28 34/86/29 81/180/30 52/122/31 80/178/32 29/76/33 77/172/34 49/116/35 76/170/36 32/82/37 73/164/38 48/114/39 72/162/40 26/70/41 69/156/42 45/108/43 68/154/44 36/90/45 65/148/46 44/106/47 64/146/48 27/72/49 61/140/50 41/100/51 60/138/52 38/94/53 57/132/54 40/98/55 56/130/56 8/57/57 12/42/58 11/11/59
f 8/8/60 5/47/61 9/32/62 12/12/63
f 14/40/64 23/65/65 4/4/66 15/51/67
f 4/55/68 3/3/69 16/50/70 15/49/71
f 13/52/72 21/56/73 8/68/74 87/69/75
f 13/13/76 87/191/77 55/127/78 39/95/79 58/133/80 37/91/81 59/135/82 42/101/83 62/141/84 28/73/85 63/143/86 43/103/87 66/149/88 35/87/89 67/151/90 46/109/91 70/157/92 25/67/93 71/159/94 47/111/95 74/165/96 31/79/97 75/167/98 50/117/99 78/173/100 30/77/101 79/175/102 51/119/103 82/181/104 33/83/105 83/183/106 54/125/107 86/189/108 14/31/109 18/30/110 17/22/111
f 14/14/112 15/39/113 19/38/114 18/18/115
f 15/15/116 16/48/117 20/36/118 19/19/119
f 16/16/120 13/41/121 17/29/122 20/20/123
f 3/54/124 22/64/125 13/53/126 16/37/127
f 1/61/128 24/66/129 7/58/130 6/46/131
f 49/71/132 50/74/133 75/75/134 76/78/135
f 41/80/136 42/81/137 59/84/138 60/85/139
f 45/88/140 46/89/141 67/92/142 68/93/143
f 53/96/144 54/97/145 83/99/146 84/102/147
f 73/193/148 74/194/149 47/195/150 48/196/151
f 81/197/152 82/198/153 51/199/154 52/200/155
f 65/201/156 66/202/157 43/203/158 44/204/159
f 57/205/160 58/206/161 39/207/162 40/208/163
f 39/104/164 55/105/165 56/107/166 40/110/167
f 61/209/168 62/210/169 42/211/170 41/212/171
f 43/112/172 63/113/173 64/115/174 44/118/175
f 69/213/176 70/214/177 46/215/178 45/216/179
f 47/120/180 71/121/181 72/123/182 48/126/183
f 77/217/184 78/218/185 50/219/186 49/220/187
f 51/128/188 79/129/189 80/131/190 52/134/191
f 85/221/192 86/222/193 54/223/194 53/224/195
f 37/136/196 58/137/197 57/139/198 38/142/199
f 59/225/200 37/226/201 38/227/202 60/228/203
f 27/144/204 28/145/205 62/147/206 61/150/207
f 63/229/208 28/230/209 27/231/210 64/232/211
f 35/152/212 66/153/213 65/155/214 36/158/215
f 67/233/216 35/234/217 36/235/218 68/236/219
f 25/160/220 70/161/221 69/163/222 26/166/223
f 71/237/224 25/238/225 26/239/226 72/240/227
f 31/168/228 74/169/229 73/171/230 32/174/231
f 75/241/232 31/242/233 32/243/234 76/244/235
f 29/176/236 30/177/237 78/179/238 77/182/239
f 79/245/240 30/246/241 29/247/242 80/248/243
f 33/184/244 82/185/245 81/187/246 34/190/247
f 83/249/248 33/250/249 34/251/250 84/252/251
f 14/192/252 86/263/253 85/264/254 7/265/255 23/266/256
f 24/253/257 23/254/258 7/255/259
f 55/256/260 87/257/261 8/258/262 56/259/263
f 21/260/264 13/261/265 22/262/266
