# This file uses centimeters as units for non-parametric coordinates.

v 3.393120 6.827688 -2.465236
v 3.670423 0.772339 -3.008153
v 3.393120 6.837195 -0.047071
v 3.670423 0.603212 -0.047071
v 1.601370 6.837195 -0.047071
v 1.497585 0.747125 -0.047071
v 1.601370 6.827688 -2.465236
v 1.497585 0.916252 -2.996798
v 3.393120 4.242815 -2.465236
v 3.393120 4.027932 -0.047071
v 1.601370 4.031936 -0.047071
v 1.601370 4.231901 -2.465237
vt 0.055484 0.986749
vt 0.055484 0.986749
vt 0.055484 0.986749
vt 0.055484 0.986749
vt 0.055484 0.986749
vt 0.055484 0.986749
vt 0.055484 0.986749
vt 0.055484 0.986749
vt 0.055484 0.986749
vt 0.055484 0.986749
vt 0.055484 0.986749
vt 0.055484 0.986749
vt 0.055484 0.986749
vt 0.055484 0.986749
vt 0.055484 0.986749
vt 0.055484 0.986749
vt 0.055484 0.986749
vt 0.055484 0.986749
vt 0.055484 0.986749
vt 0.055484 0.986749
vt 0.055484 0.986749
vt 0.055484 0.986749
vt 0.055484 0.986749
vt 0.055484 0.986749
vn -0.998901 -0.046752 -0.003337
vn -0.996800 -0.079728 -0.005692
vn -0.996800 -0.079728 -0.005692
vn -0.998784 -0.049167 -0.003510
vn -0.000000 -0.000000 -1.000000
vn -0.000000 -0.000000 -1.000000
vn -0.000000 -0.000000 -1.000000
vn -0.000000 -0.000000 -1.000000
vn 0.999822 -0.018836 -0.001295
vn 0.999509 -0.031259 -0.002149
vn 0.999509 -0.031259 -0.002149
vn 0.999837 -0.018013 -0.001238
vn -0.001458 -0.094304 0.995542
vn -0.002419 -0.156446 0.987684
vn -0.002419 -0.156446 0.987684
vn -0.001467 -0.094840 0.995491
vn -1.000000 0.000000 0.000000
vn -0.998901 -0.046752 -0.003337
vn -0.998784 -0.049167 -0.003510
vn -1.000000 0.000000 0.000000
vn 0.000000 -0.000000 -1.000000
vn -0.000000 -0.000000 -1.000000
vn -0.000000 -0.000000 -1.000000
vn 0.000000 -0.000000 -1.000000
vn 1.000000 0.000000 0.000000
vn 0.999822 -0.018836 -0.001295
vn 0.999837 -0.018013 -0.001238
vn 1.000000 0.000000 0.000000
vn -0.000000 -0.000000 1.000000
vn -0.001458 -0.094304 0.995542
vn -0.001467 -0.094840 0.995491
vn -0.000000 -0.000000 1.000000
s off
f 9/18/1 2/2/2 4/3/3 10/19/4
f 10/20/5 4/6/6 6/7/7 11/21/8
f 11/22/9 6/10/10 8/11/11 12/23/12
f 12/24/13 8/14/14 2/15/15 9/17/16
f 1/1/17 9/18/18 10/19/19 3/4/20
f 3/5/21 10/20/22 11/21/23 5/8/24
f 5/9/25 11/22/26 12/23/27 7/12/28
f 7/13/29 12/24/30 9/17/31 1/16/32
