# This file uses centimeters as units for non-parametric coordinates.

v -1.455306 2.764137 -0.160118
v -2.003821 1.224938 3.990640
v -1.458930 3.105433 -0.160118
v -1.936902 2.389208 3.306806
v -3.433010 2.861343 -0.160118
v -5.210575 2.079111 3.306809
v -3.436215 2.714964 -0.160118
v -5.862934 1.037049 3.990644
v -1.458210 2.717101 0.048624
v -1.458210 3.068689 0.048624
v -3.378262 2.834801 0.059571
v -3.378262 2.678437 0.059571
v -1.466561 3.868007 -0.160118
v -2.015076 2.934472 3.990640
v -1.470185 3.967936 -0.160118
v -1.906452 3.485540 3.306806
v -3.370127 3.975824 -0.160118
v -5.210575 3.390003 3.306809
v -3.373332 3.599226 -0.160118
v -5.862934 2.572080 3.990644
v -1.469465 3.845744 0.048624
v -1.469465 3.950544 0.048624
v -3.378262 3.963261 0.059571
v -3.378262 3.581938 0.059571
vt 0.055484 0.986749
vt 0.055484 0.986749
vt 0.055484 0.986749
vt 0.055484 0.986749
vt 0.055484 0.986749
vt 0.055484 0.986749
vt 0.055484 0.986749
vt 0.055484 0.986749
vt 0.055484 0.986749
vt 0.055484 0.986749
vt 0.055484 0.986749
vt 0.055484 0.986749
vt 0.055484 0.986749
vt 0.055484 0.986749
vt 0.055484 0.986749
vt 0.055484 0.986749
vt 0.055484 0.986749
vt 0.055484 0.986749
vt 0.055484 0.986749
vt 0.055484 0.986749
vt 0.055484 0.986749
vt 0.055484 0.986749
vt 0.055484 0.986749
vt 0.055484 0.986749
vt 0.055484 0.986749
vt 0.055484 0.986749
vt 0.055484 0.986749
vt 0.055484 0.986749
vt 0.055484 0.986749
vt 0.055484 0.986749
vt 0.055484 0.986749
vt 0.055484 0.986749
vt 0.055484 0.986749
vt 0.055484 0.986749
vt 0.055484 0.986749
vt 0.055484 0.986749
vt 0.055484 0.986749
vt 0.055484 0.986749
vt 0.055484 0.986749
vt 0.055484 0.986749
vt 0.055484 0.986749
vt 0.055484 0.986749
vt 0.055484 0.986749
vt 0.055484 0.986749
vt 0.055484 0.986749
vt 0.055484 0.986749
vt 0.055484 0.986749
vt 0.055484 0.986749
vt 0.055484 0.986749
vt 0.055484 0.986749
vt 0.055484 0.986749
vt 0.055484 0.986749
vt 0.055484 0.986749
vt 0.055484 0.986749
vt 0.055484 0.986749
vt 0.055484 0.986749
vn -0.989222 -0.022562 -0.144674
vn -0.988785 -0.022925 -0.147579
vn -0.988785 -0.022925 -0.147579
vn -0.989564 -0.022274 -0.142365
vn 0.103046 -0.978519 -0.178555
vn 0.102101 -0.978430 -0.179583
vn 0.102101 -0.978430 -0.179583
vn 0.102817 -0.978498 -0.178804
vn 0.873823 -0.212406 0.437399
vn 0.866944 -0.215474 0.449420
vn 0.866944 -0.215474 0.449420
vn 0.871119 -0.213626 0.442171
vn -0.035500 0.934963 0.352964
vn -0.035905 0.933186 0.357596
vn -0.035905 0.933186 0.357596
vn -0.035384 0.935466 0.351640
vn 0.000000 0.000000 -1.000000
vn 0.000000 0.000000 -1.000000
vn 0.000000 0.000000 -1.000000
vn 0.000000 0.000000 -1.000000
vn -0.999967 -0.005229 -0.006283
vn -0.989222 -0.022562 -0.144674
vn -0.989564 -0.022274 -0.142365
vn -0.999967 -0.005229 -0.006283
vn 0.119811 -0.979780 -0.160240
vn 0.103046 -0.978519 -0.178555
vn 0.102817 -0.978498 -0.178804
vn 0.119811 -0.979780 -0.160240
vn 0.968237 -0.010249 -0.249823
vn 0.873823 -0.212406 0.437399
vn 0.871119 -0.213626 0.442171
vn 0.968237 -0.010249 -0.249823
vn -0.021539 0.980753 0.194061
vn -0.035500 0.934963 0.352964
vn -0.035384 0.935466 0.351640
vn -0.021539 0.980753 0.194061
vn -0.991435 0.028049 -0.127553
vn -0.991128 0.028880 -0.129737
vn -0.991128 0.028880 -0.129737
vn -0.991559 0.027710 -0.126662
vn 0.014340 -0.988842 -0.148277
vn 0.015380 -0.988207 -0.152352
vn 0.015380 -0.988207 -0.152352
vn 0.014672 -0.988641 -0.149579
vn 0.869034 -0.190367 0.456662
vn 0.858716 -0.197477 0.472874
vn 0.858716 -0.197477 0.472874
vn 0.866344 -0.192253 0.460963
vn -0.106450 0.975107 0.194511
vn -0.105647 0.974661 0.197167
vn -0.105647 0.974661 0.197167
vn -0.106920 0.975365 0.192954
vn 0.000000 0.000000 -1.000000
vn 0.000000 0.000000 -1.000000
vn 0.000000 0.000000 -1.000000
vn 0.000000 0.000000 -1.000000
vn -0.999819 -0.017697 -0.006914
vn -0.991435 0.028049 -0.127553
vn -0.991559 0.027710 -0.126662
vn -0.999819 -0.017697 -0.006914
vn -0.005597 -0.997542 -0.069842
vn 0.014340 -0.988842 -0.148277
vn 0.014672 -0.988641 -0.149579
vn -0.005597 -0.997542 -0.069842
vn 0.999558 -0.004226 0.029438
vn 0.869034 -0.190367 0.456662
vn 0.866344 -0.192253 0.460963
vn 0.999558 -0.004226 0.029438
vn -0.137450 0.986542 0.088561
vn -0.106450 0.975107 0.194511
vn -0.106920 0.975365 0.192954
vn -0.137450 0.986542 0.088561
s off
f 9/1/1 2/4/2 4/3/3 10/2/4
f 10/5/5 4/8/6 6/7/7 11/6/8
f 11/9/9 6/12/10 8/11/11 12/10/12
f 12/13/13 8/16/14 2/15/15 9/14/16
f 7/17/17 5/20/18 3/19/19 1/18/20
f 1/21/21 9/1/22 10/2/23 3/22/24
f 3/23/25 10/5/26 11/6/27 5/24/28
f 5/25/29 11/9/30 12/10/31 7/26/32
f 7/27/33 12/13/34 9/14/35 1/28/36
f 21/29/37 14/32/38 16/31/39 22/30/40
f 22/33/41 16/36/42 18/35/43 23/34/44
f 23/37/45 18/40/46 20/39/47 24/38/48
f 24/41/49 20/44/50 14/43/51 21/42/52
f 19/45/53 17/48/54 15/47/55 13/46/56
f 13/49/57 21/29/58 22/30/59 15/50/60
f 15/51/61 22/33/62 23/34/63 17/52/64
f 17/53/65 23/37/66 24/38/67 19/54/68
f 19/55/69 24/41/70 21/42/71 13/56/72
