# This file uses centimeters as units for non-parametric coordinates.

v 4.694414 0.260572 0.020588
v 3.533347 0.290442 4.617004
v 4.694414 0.653679 0.020588
v 3.337838 1.108583 3.933169
v 0.297695 0.653679 0.020588
v -0.746522 1.229898 3.933172
v 0.297696 0.260572 0.020588
v -1.398881 0.049825 4.617007
v 4.694414 0.260572 0.194957
v 4.694414 0.653679 0.194957
v 0.297696 0.653679 0.205905
v 0.297696 0.260572 0.205905
vt 0.055484 0.986749
vt 0.055484 0.986749
vt 0.055484 0.986749
vt 0.055484 0.986749
vt 0.055484 0.986749
vt 0.055484 0.986749
vt 0.055484 0.986749
vt 0.055484 0.986749
vt 0.055484 0.986749
vt 0.055484 0.986749
vt 0.055484 0.986749
vt 0.055484 0.986749
vt 0.055484 0.986749
vt 0.055484 0.986749
vt 0.055484 0.986749
vt 0.055484 0.986749
vt 0.055484 0.986749
vt 0.055484 0.986749
vt 0.055484 0.986749
vt 0.055484 0.986749
vt 0.055484 0.986749
vt 0.055484 0.986749
vt 0.055484 0.986749
vt 0.055484 0.986749
vt 0.055484 0.986749
vt 0.055484 0.986749
vt 0.055484 0.986749
vt 0.055484 0.986749
vn -0.920850 -0.291157 -0.259352
vn -0.917049 -0.297770 -0.265243
vn -0.917049 -0.297770 -0.265243
vn -0.920586 -0.291621 -0.259766
vn -0.013173 -0.992130 0.124515
vn -0.014006 -0.991099 0.132385
vn -0.014006 -0.991099 0.132385
vn -0.013444 -0.991802 0.127076
vn 0.919325 -0.237081 0.314061
vn 0.916405 -0.241151 0.319451
vn 0.916405 -0.241150 0.319451
vn 0.919506 -0.236826 0.313722
vn -0.024993 0.999618 0.011768
vn -0.025768 0.999594 0.012133
vn -0.025768 0.999594 0.012133
vn -0.024634 0.999629 0.011599
vn 0.000000 0.000000 -1.000000
vn 0.000000 0.000000 -1.000000
vn 0.000000 0.000000 -1.000000
vn 0.000000 0.000000 -1.000000
vn -1.000000 0.000000 0.000000
vn -0.920850 -0.291157 -0.259352
vn -0.920586 -0.291621 -0.259766
vn -1.000000 0.000000 0.000000
vn 0.000000 -1.000000 0.000000
vn -0.013173 -0.992130 0.124515
vn -0.013444 -0.991802 0.127076
vn 0.000000 -1.000000 0.000000
vn 1.000000 0.000001 -0.000001
vn 0.919325 -0.237081 0.314061
vn 0.919506 -0.236826 0.313722
vn 1.000000 0.000001 -0.000001
vn 0.000000 1.000000 0.000000
vn -0.024993 0.999618 0.011768
vn -0.024634 0.999629 0.011599
vn 0.000000 1.000000 0.000000
s off
f 9/22/1 2/2/2 4/3/3 10/23/4
f 10/24/5 4/6/6 6/7/7 11/25/8
f 11/26/9 6/10/10 8/11/11 12/27/12
f 12/28/13 8/14/14 2/15/15 9/21/16
f 7/17/17 5/20/18 3/19/19 1/18/20
f 1/1/21 9/22/22 10/23/23 3/4/24
f 3/5/25 10/24/26 11/25/27 5/8/28
f 5/9/29 11/26/30 12/27/31 7/12/32
f 7/13/33 12/28/34 9/21/35 1/16/36
