# This file uses centimeters as units for non-parametric coordinates.

v 4.706019 0.260572 0.064636
v 3.544952 0.290442 4.661052
v 4.706019 4.179963 0.064636
v 3.349443 3.778997 3.977217
v 0.309300 4.179963 0.064636
v -0.734917 3.672135 3.977220
v 0.309300 0.260572 0.064636
v -1.387276 0.049825 4.661055
v 4.706019 0.260572 0.239005
v 4.706019 4.179963 0.239005
v 0.309300 4.179963 0.249953
v 0.309300 0.260572 0.249953
vt 0.055484 0.986749
vt 0.055484 0.986749
vt 0.055484 0.986749
vt 0.055484 0.986749
vt 0.055484 0.986749
vt 0.055484 0.986749
vt 0.055484 0.986749
vt 0.055484 0.986749
vt 0.055484 0.986749
vt 0.055484 0.986749
vt 0.055484 0.986749
vt 0.055484 0.986749
vt 0.055484 0.986749
vt 0.055484 0.986749
vt 0.055484 0.986749
vt 0.055484 0.986749
vt 0.055484 0.986749
vt 0.055484 0.986749
vt 0.055484 0.986749
vt 0.055484 0.986749
vt 0.055484 0.986749
vt 0.055484 0.986749
vt 0.055484 0.986749
vt 0.055484 0.986749
vt 0.055484 0.986749
vt 0.055484 0.986749
vt 0.055484 0.986749
vt 0.055484 0.986749
vn -0.957272 -0.050448 -0.284756
vn -0.953560 -0.052544 -0.296586
vn -0.953559 -0.052544 -0.296586
vn -0.957494 -0.050320 -0.284030
vn 0.011624 -0.993871 -0.109935
vn 0.012362 -0.993065 -0.116913
vn 0.012362 -0.993065 -0.116913
vn 0.011864 -0.993614 -0.112209
vn 0.952450 -0.051075 0.300384
vn 0.947763 -0.053468 0.314461
vn 0.947763 -0.053468 0.314461
vn 0.951972 -0.051324 0.301852
vn -0.024993 0.999618 0.011768
vn -0.025768 0.999594 0.012133
vn -0.025768 0.999594 0.012133
vn -0.024634 0.999629 0.011599
vn 0.000000 0.000000 -1.000000
vn 0.000000 0.000000 -1.000000
vn 0.000000 0.000000 -1.000000
vn 0.000000 0.000000 -1.000000
vn -1.000000 0.000000 0.000001
vn -0.957272 -0.050448 -0.284756
vn -0.957494 -0.050320 -0.284030
vn -1.000000 0.000000 0.000001
vn 0.000000 -1.000000 0.000000
vn 0.011624 -0.993871 -0.109935
vn 0.011864 -0.993614 -0.112209
vn 0.000000 -1.000000 0.000000
vn 1.000000 0.000000 0.000000
vn 0.952450 -0.051075 0.300384
vn 0.951972 -0.051324 0.301852
vn 1.000000 0.000000 0.000000
vn 0.000000 1.000000 0.000000
vn -0.024993 0.999618 0.011768
vn -0.024634 0.999629 0.011599
vn 0.000000 1.000000 0.000000
s off
f 9/22/1 2/2/2 4/3/3 10/23/4
f 10/24/5 4/6/6 6/7/7 11/25/8
f 11/26/9 6/10/10 8/11/11 12/27/12
f 12/28/13 8/14/14 2/15/15 9/21/16
f 7/17/17 5/20/18 3/19/19 1/18/20
f 1/1/21 9/22/22 10/23/23 3/4/24
f 3/5/25 10/24/26 11/25/27 5/8/28
f 5/9/29 11/26/30 12/27/31 7/12/32
f 7/13/33 12/28/34 9/21/35 1/16/36
