# This file uses centimeters as units for non-parametric coordinates.

v 1.389236 1.303307 -0.475007
v 1.389236 1.303307 0.035734
v 1.389236 5.665460 -0.475007
v 1.389236 5.665460 0.035734
v 3.597742 5.665460 -0.475007
v 3.597742 5.665460 0.035734
v 3.597742 1.303307 -0.475007
v 3.597742 1.303307 0.035734
v 2.493490 6.303870 -0.475007
v 2.493490 6.303870 0.035734
v 2.493490 1.303307 0.035734
v 2.493490 1.303307 -0.475007
v 1.688463 6.226081 3.212555
v 1.688463 0.421689 3.212555
v 3.331514 0.421689 3.212555
v 3.331514 5.486159 3.212555
v 0.045407 0.421689 3.212555
v 0.045407 5.486159 3.212555
v 1.389236 1.949346 -0.475007
v 1.389236 1.949346 0.035734
v 0.045407 1.179159 3.212555
v 3.597742 1.949346 -0.475007
v 3.597742 1.949346 0.035734
v 3.331514 1.179159 3.212555
v 1.389236 2.655716 -0.475007
v 1.389236 2.655716 0.035734
v 0.045407 1.997847 3.212555
v 3.331514 1.997847 3.212555
v 3.597742 2.655716 0.035734
v 3.597742 2.655716 -0.475007
v 3.331514 2.578562 3.212555
v 3.597742 3.156762 0.035734
v 3.597742 3.156762 -0.475007
v 1.389236 3.156762 -0.475007
v 1.389236 3.156762 0.035734
v 0.045407 2.578562 3.212555
v 1.389236 3.795219 -0.475007
v 1.389236 3.795219 0.035734
v 0.045407 3.318537 3.212555
v 3.331514 3.318537 3.212555
v 3.597742 3.795219 0.035734
v 3.597742 3.795219 -0.475007
v 1.389237 4.421516 -0.475007
v 1.389237 4.421516 0.035734
v 0.045407 4.044420 3.212555
v 3.331514 4.044420 3.212555
v 3.597742 4.421516 0.035734
v 3.597742 4.421516 -0.475007
v 1.389236 5.040656 -0.475007
v 1.389236 5.040656 0.035734
v 0.045407 4.762007 3.212555
v 3.331515 4.762007 3.212555
v 3.597742 5.040656 0.035734
v 3.597742 5.040656 -0.475007
vt 0.301937 0.475915
vt 0.362700 0.475915
vt 0.328398 0.475915
vt 0.301937 0.475915
vt 0.362700 0.475915
vt 0.267636 0.475915
vt 0.301937 0.475915
vt 0.267636 0.475915
vt 0.267636 0.475915
vt 0.328398 0.475915
vt 0.328398 0.475915
vt 0.362700 0.475915
vt 0.301937 0.475915
vt 0.301937 0.475915
vt 0.362700 0.475915
vt 0.328398 0.475915
vt 0.301937 0.475915
vt 0.301937 0.475915
vt 0.267636 0.475915
vt 0.301937 0.475915
vt 0.362700 0.475915
vt 0.362700 0.475915
vt 0.328398 0.475915
vt 0.267636 0.475915
vt 0.328398 0.475915
vt 0.267636 0.475915
vt 0.328398 0.475915
vt 0.328398 0.475915
vt 0.328398 0.475915
vt 0.328398 0.475915
vt 0.328398 0.475915
vt 0.328398 0.475915
vt 0.301937 0.475915
vt 0.328398 0.475915
vt 0.301937 0.475915
vt 0.328398 0.475915
vt 0.301937 0.475915
vt 0.328398 0.475915
vt 0.301937 0.475915
vt 0.328398 0.475915
vt 0.301937 0.475915
vt 0.328398 0.475915
vt 0.301937 0.475915
vt 0.328398 0.475915
vt 0.328398 0.475915
vt 0.328398 0.475915
vt 0.301937 0.475915
vt 0.301937 0.475915
vt 0.328398 0.475915
vt 0.328398 0.475915
vt 0.301937 0.475915
vt 0.301937 0.475915
vt 0.301937 0.475915
vt 0.328398 0.475915
vt 0.301937 0.475915
vt 0.328398 0.475915
vt 0.301937 0.475915
vt 0.328398 0.475915
vt 0.301937 0.475915
vt 0.328398 0.475915
vt 0.328398 0.475915
vt 0.328398 0.475915
vt 0.301937 0.475915
vt 0.301937 0.475915
vt 0.301937 0.475915
vt 0.328398 0.475915
vt 0.301937 0.475915
vt 0.328398 0.475915
vt 0.328398 0.475915
vt 0.328398 0.475915
vt 0.301937 0.475915
vt 0.301937 0.475915
vt 0.301937 0.475915
vt 0.328398 0.475915
vt 0.301937 0.475915
vt 0.328398 0.475915
vt 0.328398 0.475915
vt 0.328398 0.475915
vt 0.301937 0.475915
vt 0.301937 0.475915
vn 1.000000 0.000000 0.000000
vn 1.000000 0.000000 0.000000
vn 1.000000 0.000000 0.000000
vn 1.000000 0.000000 0.000000
vn 0.000000 -1.000000 0.000000
vn -0.500511 -0.865730 0.000000
vn -0.500511 -0.865730 0.000000
vn 0.000000 -1.000000 0.000000
vn -1.000000 0.000000 0.000000
vn -1.000000 0.000000 0.000000
vn -1.000000 0.000000 0.000000
vn -1.000000 0.000000 0.000000
vn 0.000000 1.000000 0.000000
vn 0.000000 1.000000 0.000000
vn 0.000000 1.000000 0.000000
vn 0.000000 1.000000 0.000000
vn 0.500511 -0.865730 0.000000
vn 0.000000 -1.000000 0.000000
vn 0.000000 -1.000000 0.000000
vn 0.500511 -0.865730 0.000000
vn 0.000000 1.000000 0.000000
vn 0.000000 1.000000 0.000000
vn 0.000000 1.000000 0.000000
vn 0.000000 1.000000 0.000000
vn 0.000000 0.963583 0.267409
vn 0.000000 0.963583 0.267409
vn 0.000000 0.963583 0.267409
vn 0.000000 0.963583 0.267409
vn -0.996507 0.000000 -0.083510
vn -0.996507 0.000000 -0.083510
vn -0.996507 0.000000 -0.083510
vn -0.996507 0.000000 -0.083510
vn -0.445656 -0.888286 -0.111083
vn -0.445656 -0.888286 -0.111083
vn -0.445656 -0.888286 -0.111083
vn -0.445656 -0.888286 -0.111083
vn 0.000000 0.963583 0.267409
vn 0.000000 0.963583 0.267409
vn 0.000000 0.963583 0.267409
vn 0.000000 0.963583 0.267409
vn 0.445469 -0.887915 0.114734
vn 0.445469 -0.887915 0.114734
vn 0.445469 -0.887915 0.114734
vn 0.445469 -0.887915 0.114734
vn 0.920989 -0.000000 0.389588
vn 0.920989 -0.000000 0.389588
vn 0.920989 0.000000 0.389588
vn 0.920989 0.000000 0.389588
vn 1.000000 0.000000 0.000000
vn 1.000000 0.000000 0.000000
vn 1.000000 0.000000 0.000000
vn 1.000000 0.000000 0.000000
vn 0.920989 -0.000000 0.389588
vn 0.920989 -0.000000 0.389588
vn 0.920989 -0.000000 0.389588
vn 0.920989 -0.000000 0.389588
vn -1.000000 0.000000 0.000000
vn -1.000000 0.000000 0.000000
vn -1.000000 0.000000 0.000000
vn -1.000000 0.000000 0.000000
vn -0.996507 0.000000 -0.083510
vn -0.996507 0.000000 -0.083510
vn -0.996507 0.000000 -0.083510
vn -0.996507 0.000000 -0.083510
vn 1.000000 0.000000 0.000000
vn 1.000000 0.000000 0.000000
vn 1.000000 0.000000 0.000000
vn 1.000000 0.000000 0.000000
vn 0.920989 0.000000 0.389588
vn 0.920989 0.000000 0.389588
vn 0.920989 -0.000000 0.389588
vn 0.920989 -0.000000 0.389588
vn -0.996507 0.000000 -0.083510
vn -0.996507 0.000000 -0.083510
vn -0.996507 0.000000 -0.083510
vn -0.996507 0.000000 -0.083510
vn -1.000000 0.000000 0.000000
vn -1.000000 0.000000 0.000000
vn -1.000000 0.000000 0.000000
vn -1.000000 0.000000 0.000000
vn -0.996507 0.000000 -0.083510
vn -0.996507 0.000000 -0.083510
vn -0.996507 0.000000 -0.083510
vn -0.996507 0.000000 -0.083510
vn -1.000000 0.000000 0.000000
vn -1.000000 0.000000 0.000000
vn -1.000000 0.000000 0.000000
vn -1.000000 0.000000 0.000000
vn 1.000000 0.000000 0.000000
vn 1.000000 0.000000 0.000000
vn 1.000000 -0.000001 0.000000
vn 1.000000 -0.000001 0.000000
vn 0.920989 -0.000000 0.389588
vn 0.920989 -0.000000 0.389588
vn 0.920989 0.000000 0.389588
vn 0.920989 0.000000 0.389588
vn 1.000000 -0.000001 0.000000
vn 1.000000 -0.000001 0.000000
vn 1.000000 -0.000000 0.000000
vn 1.000000 -0.000000 0.000000
vn 0.920989 0.000000 0.389588
vn 0.920989 0.000000 0.389588
vn 0.920989 -0.000000 0.389588
vn 0.920989 -0.000000 0.389588
vn -0.996507 0.000000 -0.083510
vn -0.996507 0.000000 -0.083510
vn -0.996507 0.000000 -0.083510
vn -0.996507 0.000000 -0.083510
vn -1.000000 0.000000 0.000000
vn -1.000000 0.000000 0.000000
vn -1.000000 0.000000 0.000000
vn -1.000000 0.000000 0.000000
vn 1.000000 -0.000000 0.000000
vn 1.000000 -0.000000 0.000000
vn 1.000000 0.000001 0.000000
vn 1.000000 0.000001 0.000000
vn 0.920989 0.000000 0.389588
vn 0.920989 0.000000 0.389588
vn 0.920989 0.000000 0.389588
vn 0.920989 0.000000 0.389588
vn -0.996507 0.000000 -0.083510
vn -0.996507 0.000000 -0.083510
vn -0.996507 0.000000 -0.083510
vn -0.996507 -0.000000 -0.083510
vn -1.000000 0.000000 0.000000
vn -1.000000 0.000000 0.000000
vn -1.000000 0.000000 0.000000
vn -1.000000 0.000000 0.000000
vn 1.000000 0.000001 0.000000
vn 1.000000 0.000001 0.000000
vn 1.000000 0.000000 0.000000
vn 1.000000 0.000000 0.000000
vn 0.920989 0.000000 0.389588
vn 0.920989 0.000000 0.389588
vn 0.920989 0.000000 0.389588
vn 0.920989 0.000000 0.389588
vn -0.996507 -0.000000 -0.083510
vn -0.996507 0.000000 -0.083510
vn -0.996507 -0.000001 -0.083510
vn -0.996507 -0.000001 -0.083510
vn -1.000000 0.000000 0.000000
vn -1.000000 0.000000 0.000000
vn -1.000000 0.000000 0.000000
vn -1.000000 0.000000 0.000000
s off
f 1/17/1 19/33/2 20/35/3 2/1/4
f 9/21/5 5/15/6 6/5/7 10/22/8
f 29/47/9 30/48/10 22/37/11 23/39/12
f 7/6/13 12/26/14 11/24/15 8/19/16
f 3/2/17 9/21/18 10/22/19 4/12/20
f 12/26/21 1/8/22 2/9/23 11/24/24
f 11/25/25 14/27/26 15/28/27 8/10/28
f 23/38/29 24/40/30 28/45/31 29/46/32
f 6/11/33 16/29/34 13/30/35 10/23/36
f 2/16/37 17/31/38 14/27/39 11/25/40
f 10/23/41 13/30/42 18/32/43 4/3/44
f 20/34/45 21/36/46 17/31/47 2/16/48
f 20/35/49 19/33/50 25/41/51 26/43/52
f 26/42/53 27/44/54 21/36/55 20/34/56
f 23/39/57 22/37/58 7/20/59 8/7/60
f 8/10/61 15/28/62 24/40/63 23/38/64
f 26/43/65 25/41/66 34/53/67 35/55/68
f 35/54/69 36/56/70 27/44/71 26/42/72
f 29/46/73 28/45/74 31/49/75 32/50/76
f 32/51/77 33/52/78 30/48/79 29/47/80
f 32/50/81 31/49/82 40/61/83 41/62/84
f 41/63/85 42/64/86 33/52/87 32/51/88
f 35/55/89 34/53/90 37/57/91 38/59/92
f 38/58/93 39/60/94 36/56/95 35/54/96
f 38/59/97 37/57/98 43/65/99 44/67/100
f 44/66/101 45/68/102 39/60/103 38/58/104
f 41/62/105 40/61/106 46/69/107 47/70/108
f 47/71/109 48/72/110 42/64/111 41/63/112
f 44/67/113 43/65/114 49/73/115 50/75/116
f 50/74/117 51/76/118 45/68/119 44/66/120
f 47/70/121 46/69/122 52/77/123 53/78/124
f 53/79/125 54/80/126 48/72/127 47/71/128
f 50/75/129 49/73/130 3/14/131 4/18/132
f 4/3/133 18/32/134 51/76/135 50/74/136
f 53/78/137 52/77/138 16/29/139 6/11/140
f 5/4/141 54/80/142 53/79/143 6/13/144
