# This file uses centimeters as units for non-parametric coordinates.

v -0.060386 0.000000 0.060386
v 0.060386 0.000000 0.060386
v -0.060386 0.034601 0.060386
v 0.060386 0.034601 0.060386
v -0.060386 0.034601 -0.060386
v 0.060386 0.034601 -0.060386
v -0.060386 0.000000 -0.060386
v 0.060386 0.000000 -0.060386
v -0.046332 0.000000 -0.046332
v 0.046332 0.000000 -0.046332
v 0.046332 0.000000 0.046332
v -0.046332 0.000000 0.046332
v -0.046332 0.020633 -0.046332
v 0.046332 0.020633 -0.046332
v 0.046332 0.020633 0.046332
v -0.046332 0.020633 0.046332
vt 0.148966 0.473139
vt 0.161837 0.473139
vt 0.175004 0.473139
vt 0.148966 0.473139
vt 0.161837 0.473139
vt 0.175004 0.473139
vt 0.134444 0.473139
vt 0.161837 0.473139
vt 0.134444 0.473139
vt 0.134444 0.473139
vt 0.148966 0.473139
vt 0.148966 0.473139
vt 0.148966 0.473139
vt 0.148966 0.473139
vt 0.161837 0.473139
vt 0.134444 0.473139
vt 0.175004 0.473139
vt 0.161837 0.473139
vt 0.148966 0.473139
vt 0.161837 0.473139
vt 0.175004 0.473139
vt 0.161837 0.473139
vt 0.161837 0.473139
vt 0.148966 0.473139
vt 0.109469 0.473139
vt 0.109469 0.473139
vt 0.109469 0.473139
vt 0.109469 0.473139
vt 0.357135 0.061574
vt 0.109469 0.473139
vt 0.109469 0.473139
vt 0.109469 0.473139
vt 0.109469 0.473139
vt 0.109469 0.473139
vt 0.109469 0.473139
vt 0.357135 0.061574
vt 0.109469 0.473139
vt 0.357135 0.061574
vt 0.134444 0.473139
vt 0.109469 0.473139
vt 0.109469 0.473139
vt 0.357135 0.061574
vt 0.134444 0.473139
vt 0.109469 0.473139
vt 0.134444 0.473139
vt 0.109469 0.473139
vt 0.134444 0.473139
vt 0.109469 0.473139
vt 0.134444 0.473139
vt 0.134444 0.473139
vt 0.134444 0.473139
vt 0.134444 0.473139
vt 0.134444 0.473139
vt 0.134444 0.473139
vt 0.134444 0.473139
vt 0.134444 0.473139
vn 0.000000 0.000000 1.000000
vn 0.000000 0.000000 1.000000
vn 0.000000 0.000000 1.000000
vn 0.000000 0.000000 1.000000
vn 0.000000 1.000000 0.000000
vn 0.000000 1.000000 0.000000
vn 0.000000 1.000000 0.000000
vn 0.000000 1.000000 0.000000
vn 0.000000 0.000000 -1.000000
vn 0.000000 0.000000 -1.000000
vn 0.000000 0.000000 -1.000000
vn 0.000000 0.000000 -1.000000
vn 0.000000 -1.000000 0.000000
vn 0.000000 -1.000000 0.000000
vn 0.000000 -1.000000 0.000000
vn 0.000000 -1.000000 0.000000
vn 1.000000 0.000000 0.000000
vn 1.000000 0.000000 0.000000
vn 1.000000 0.000000 0.000000
vn 1.000000 0.000000 0.000000
vn -1.000000 0.000000 0.000000
vn -1.000000 0.000000 0.000000
vn -1.000000 0.000000 0.000000
vn -1.000000 0.000000 0.000000
vn 0.000000 -1.000000 0.000000
vn 0.000000 -1.000000 0.000000
vn 0.000000 -1.000000 0.000000
vn 0.000000 -1.000000 0.000000
vn 0.000000 -1.000000 0.000000
vn 0.000000 -1.000000 0.000000
vn 0.000000 -1.000000 0.000000
vn 0.000000 -1.000000 0.000000
vn 0.000000 -1.000000 0.000000
vn 0.000000 -1.000000 0.000000
vn 0.000000 -1.000000 0.000000
vn 0.000000 -1.000000 0.000000
vn 0.000000 -1.000000 0.000000
vn 0.000000 -1.000000 0.000000
vn 0.000000 -1.000000 0.000000
vn 0.000000 -1.000000 0.000000
vn 0.000000 0.000000 1.000000
vn 0.000000 0.000000 1.000000
vn 0.000000 0.000000 1.000000
vn 0.000000 0.000000 1.000000
vn -1.000000 0.000000 0.000000
vn -1.000000 0.000000 0.000000
vn -1.000000 0.000000 0.000000
vn -1.000000 0.000000 0.000000
vn 0.000000 0.000000 -1.000000
vn 0.000000 0.000000 -1.000000
vn 0.000000 0.000000 -1.000000
vn 0.000000 0.000000 -1.000000
vn 1.000000 0.000000 0.000000
vn 1.000000 0.000000 0.000000
vn 1.000000 0.000000 0.000000
vn 1.000000 0.000000 0.000000
s off
f 1/22/1 2/2/2 4/20/3 3/23/4
f 3/3/5 4/21/6 6/6/7 5/17/8
f 5/5/9 6/15/10 8/8/11 7/18/12
f 13/29/13 14/42/14 15/38/15 16/36/16
f 2/19/17 8/11/18 6/12/19 4/4/20
f 7/13/21 1/1/22 3/24/23 5/14/24
f 7/7/25 8/55/26 10/51/27 9/47/28
f 8/16/29 2/54/30 11/50/31 10/45/32
f 2/10/33 1/53/34 12/49/35 11/43/36
f 1/9/37 7/56/38 9/52/39 12/39/40
f 9/25/41 10/46/42 14/41/43 13/33/44
f 10/26/45 11/44/46 15/37/47 14/30/48
f 11/27/49 12/40/50 16/35/51 15/31/52
f 12/28/53 9/48/54 13/34/55 16/32/56
