# This file uses centimeters as units for non-parametric coordinates.

v 0.036822 0.000000 0.067803
v 0.036822 0.000000 -0.067803
v 0.036822 0.283933 0.067803
v 0.036822 0.283933 -0.067803
v -0.036822 0.283933 0.067803
v -0.036822 0.283933 -0.067803
v -0.036822 0.000000 0.067803
v -0.036822 0.000000 -0.067803
v 0.036822 0.283933 0.000002
v -0.036822 0.283933 0.000002
v 0.036822 0.335984 0.000002
v -0.036822 0.335984 0.000002
v 0.036822 0.335984 -0.067803
v -0.036822 0.335984 -0.067803
v 0.021629 0.335984 -0.015035
v -0.021629 0.335984 -0.015035
v 0.021629 0.335984 -0.052768
v -0.021629 0.335984 -0.052768
v 0.036822 0.226322 0.041360
v 0.036822 0.226322 -0.041360
v 0.036822 0.255550 -0.041360
v 0.036822 0.255550 0.000002
v 0.036822 0.255550 0.041360
v -0.036822 0.255550 0.041360
v -0.036822 0.255550 0.000002
v -0.036822 0.255550 -0.041360
v -0.036822 0.226322 -0.041360
v -0.036822 0.226322 0.041360
vt 0.234059 0.171002
vt 0.262468 0.171002
vt 0.294034 0.171003
vt 0.234059 0.171003
vt 0.262468 0.171003
vt 0.258609 0.084856
vt 0.207228 0.171002
vt 0.262468 0.171002
vt 0.207228 0.171002
vt 0.207228 0.171002
vt 0.234059 0.171002
vt 0.234059 0.171003
vt 0.234059 0.171002
vt 0.234059 0.171003
vt 0.258609 0.084856
vt 0.262468 0.171003
vt 0.262468 0.171003
vt 0.294034 0.171003
vt 0.234059 0.171002
vt 0.262468 0.171002
vt 0.262468 0.171003
vt 0.234059 0.171003
vt 0.207228 0.171002
vt 0.262468 0.171002
vt 0.294034 0.171003
vt 0.262468 0.171003
vt 0.262468 0.171003
vt 0.294034 0.171003
vt 0.263026 0.084856
vt 0.263026 0.084856
vt 0.201179 0.084856
vt 0.236443 0.084856
vt 0.205596 0.084856
vt 0.240860 0.084856
vt 0.258609 0.084856
vt 0.258609 0.084856
vt 0.263026 0.084856
vt 0.263026 0.084856
vt 0.109489 0.474775
vt 0.109489 0.474775
vt 0.113907 0.474775
vt 0.113907 0.474775
vt 0.258609 0.084856
vt 0.263026 0.084856
vt 0.263026 0.084856
vt 0.240860 0.084856
vt 0.263026 0.084856
vt 0.258609 0.084856
vt 0.205596 0.084856
vt 0.263026 0.084856
vt 0.201179 0.084856
vt 0.258609 0.084856
vt 0.236443 0.084856
vt 0.258609 0.084856
vt 0.240860 0.084856
vt 0.205596 0.084856
vt 0.205596 0.084856
vt 0.240860 0.084856
vt 0.201179 0.084856
vt 0.236443 0.084856
vt 0.236443 0.084856
vt 0.201179 0.084856
vt 0.262468 0.171002
vt 0.262468 0.171002
vt 0.262468 0.171003
vt 0.262468 0.171003
vt 0.262468 0.171003
vt 0.262468 0.171003
vt 0.262468 0.171003
vt 0.262468 0.171003
vt 0.262468 0.171002
vt 0.262468 0.171002
vt 0.384117 0.065712
vt 0.391029 0.065712
vt 0.391029 0.065712
vt 0.387573 0.065712
vt 0.384117 0.065712
vt 0.384117 0.065712
vt 0.387573 0.065712
vt 0.391029 0.065712
vt 0.391029 0.065712
vt 0.384117 0.065712
vn 1.000000 0.000000 -0.000000
vn 1.000000 0.000000 -0.000000
vn 1.000000 -0.000000 -0.000000
vn 1.000000 -0.000000 -0.000000
vn 1.000000 -0.000000 -0.000000
vn 0.000000 1.000000 0.000000
vn 0.000000 1.000000 0.000000
vn 0.000000 1.000000 0.000000
vn 0.000000 1.000000 0.000000
vn -1.000000 0.000000 0.000000
vn -1.000000 -0.000000 0.000000
vn -1.000000 -0.000000 -0.000000
vn -1.000000 0.000000 0.000000
vn -1.000000 0.000000 0.000000
vn 0.000000 -1.000000 0.000000
vn 0.000000 -1.000000 0.000000
vn 0.000000 -1.000000 0.000000
vn 0.000000 -1.000000 0.000000
vn 0.000000 0.000000 -1.000000
vn 0.000000 0.000000 -1.000000
vn 0.000000 0.000000 -1.000000
vn 0.000000 0.000000 -1.000000
vn 0.000000 0.000000 1.000000
vn 0.000000 0.000000 1.000000
vn 0.000000 0.000000 1.000000
vn 0.000000 0.000000 1.000000
vn 0.000000 1.000000 0.000001
vn 0.000000 1.000000 0.000001
vn 0.000000 1.000000 -0.000000
vn 0.000000 1.000000 -0.000000
vn 0.000000 0.000000 1.000000
vn 0.000000 0.000000 1.000000
vn 0.000000 0.000000 1.000000
vn 0.000000 0.000000 1.000000
vn 1.000000 -0.000000 -0.000000
vn 1.000000 -0.000000 -0.000000
vn 1.000000 0.000000 -0.000000
vn 1.000000 0.000000 -0.000000
vn 0.000000 0.000000 -1.000000
vn 0.000000 0.000000 -1.000000
vn 0.000000 0.000000 -1.000000
vn 0.000000 0.000000 -1.000000
vn -1.000000 -0.000000 -0.000000
vn -1.000000 -0.000000 -0.000000
vn -1.000000 0.000000 -0.000000
vn -1.000000 0.000000 -0.000000
vn 0.000000 1.000000 0.000001
vn 0.000000 1.000000 0.000001
vn 0.000000 1.000000 0.000001
vn 0.000000 1.000000 0.000001
vn 0.000000 1.000000 0.000001
vn 0.000000 1.000000 -0.000001
vn 0.000000 1.000000 -0.000000
vn 0.000000 1.000000 0.000001
vn 0.000000 1.000000 -0.000001
vn 0.000000 1.000000 -0.000001
vn 0.000000 1.000000 -0.000000
vn 0.000000 1.000000 -0.000000
vn 0.000000 1.000000 -0.000001
vn 0.000000 1.000000 0.000001
vn 0.000000 1.000000 0.000001
vn 0.000000 1.000000 -0.000000
vn 1.000000 0.000000 -0.000000
vn 1.000000 0.000000 -0.000000
vn 1.000000 0.000000 -0.000000
vn 1.000000 0.000000 -0.000000
vn 1.000000 0.000000 -0.000000
vn 1.000000 -0.000000 -0.000000
vn 1.000000 -0.000000 -0.000000
vn 1.000000 0.000000 -0.000000
vn 1.000000 -0.000000 -0.000000
vn 1.000000 -0.000000 -0.000000
vn 1.000000 -0.000000 -0.000000
vn 1.000000 -0.000000 -0.000000
vn 1.000000 -0.000000 -0.000000
vn 1.000000 -0.000000 -0.000000
vn 1.000000 -0.000000 -0.000000
vn 1.000000 -0.000000 -0.000000
vn 1.000000 -0.000000 -0.000000
vn 1.000000 0.000000 -0.000000
vn 1.000000 0.000000 -0.000000
vn 1.000000 -0.000000 -0.000000
vn -1.000000 0.000000 0.000000
vn -1.000000 -0.000000 -0.000000
vn -1.000000 -0.000000 0.000000
vn -1.000000 0.000000 0.000000
vn -1.000000 -0.000000 -0.000000
vn -1.000000 -0.000000 -0.000000
vn -1.000000 -0.000000 -0.000000
vn -1.000000 -0.000000 0.000000
vn -1.000000 -0.000000 -0.000000
vn -1.000000 0.000000 0.000000
vn -1.000000 0.000000 0.000000
vn -1.000000 -0.000000 -0.000000
vn -1.000000 0.000000 0.000000
vn -1.000000 0.000000 0.000000
vn -1.000000 0.000000 0.000000
vn -1.000000 0.000000 0.000000
vn -1.000000 0.000000 0.000000
vn -1.000000 0.000000 0.000000
vn -1.000000 0.000000 0.000000
vn -1.000000 0.000000 0.000000
s off
f 19/73/1 20/74/2 21/75/3 22/76/4 23/77/5
f 3/3/6 9/25/7 10/28/8 5/18/9
f 24/78/10 25/79/11 26/80/12 27/81/13 28/82/14
f 7/7/15 8/23/16 2/10/17 1/9/18
f 2/19/19 8/11/20 6/12/21 4/4/22
f 7/13/23 1/1/24 3/22/25 5/14/26
f 16/39/27 15/40/28 17/41/29 18/42/30
f 10/31/31 9/62/32 11/59/33 12/51/34
f 9/32/35 4/58/36 13/55/37 11/53/38
f 4/33/39 6/57/40 14/56/41 13/49/42
f 6/34/43 10/61/44 12/60/45 14/46/46
f 12/6/47 11/54/48 15/48/49 16/35/50
f 11/15/51 13/50/52 17/45/53 15/36/54
f 13/29/55 14/47/56 18/44/57 17/37/58
f 14/30/59 12/52/60 16/43/61 18/38/62
f 1/20/63 2/2/64 20/64/65 19/63/66
f 2/2/67 4/21/68 21/65/69 20/64/70
f 4/21/71 9/26/72 22/66/73 21/65/74
f 9/26/75 3/17/76 23/67/77 22/66/78
f 3/17/79 1/20/80 19/63/81 23/67/82
f 5/5/83 10/27/84 25/69/85 24/68/86
f 10/27/87 6/16/88 26/70/89 25/69/90
f 6/16/91 8/8/92 27/71/93 26/70/94
f 8/8/95 7/24/96 28/72/97 27/71/98
f 7/24/99 5/5/100 24/68/101 28/72/102
