# This file uses centimeters as units for non-parametric coordinates.

v 0.022544 0.210363 0.039370
v 0.101275 0.210363 0.039370
v 0.004338 0.571184 0.057577
v 0.119481 0.571184 0.057577
v 0.004338 0.571184 -0.057577
v 0.119481 0.571184 -0.057577
v 0.022544 0.210363 -0.039370
v 0.101275 0.210363 -0.039370
v 0.018277 0.571184 0.043636
v 0.105542 0.571184 0.043636
v 0.105542 0.571184 -0.043636
v 0.018277 0.571184 -0.043636
v 0.018277 0.551946 0.043636
v 0.105542 0.551946 0.043636
v 0.105542 0.551946 -0.043636
v 0.018277 0.551946 -0.043636
v 0.052022 0.551946 0.009891
v 0.071805 0.551946 0.009891
v 0.071805 0.551946 -0.009891
v 0.052022 0.551946 -0.009891
v 0.052022 0.579608 0.009891
v 0.071805 0.579608 0.009891
v 0.071805 0.579608 -0.009891
v 0.052022 0.579608 -0.009891
v 0.004338 0.256816 0.057577
v 0.119481 0.256816 0.057577
v 0.119481 0.256816 -0.057577
v 0.004338 0.256816 -0.057577
v -0.029549 0.210363 0.091467
v 0.153368 0.210363 0.091467
v 0.153368 0.256816 0.091467
v -0.029549 0.256816 0.091467
v 0.153368 0.210363 -0.091467
v 0.153368 0.256816 -0.091467
v -0.029549 0.256816 -0.091467
v -0.029549 0.210363 -0.091467
v 0.101275 0.044280 -0.039370
v 0.022544 0.044280 -0.039370
v 0.101275 0.044280 0.039370
v 0.022544 0.044280 0.039370
v 0.213996 0.044280 -0.152101
v -0.090177 0.044280 -0.152101
v 0.213996 0.044280 0.152102
v -0.090177 0.044280 0.152102
v 0.213996 0.082673 -0.152101
v -0.090177 0.082673 -0.152101
v 0.213996 0.082673 0.152102
v -0.090177 0.082673 0.152102
v 0.259550 0.082673 -0.197659
v -0.135730 0.082673 -0.197659
v 0.259550 0.082673 0.197659
v -0.135730 0.082673 0.197659
v 0.259550 0.000000 -0.197659
v -0.135730 0.000000 -0.197659
v 0.259550 0.000000 0.197659
v -0.135730 0.000000 0.197659
v -0.259550 0.044280 -0.031390
v -0.259550 0.044280 0.031390
v -0.259550 0.213653 -0.031390
v -0.259550 0.213653 0.031390
v -0.090177 0.213653 -0.031390
v -0.090177 0.213653 0.031390
v -0.090177 0.044280 -0.031390
v -0.090177 0.044280 0.031390
v -0.128944 0.083047 0.031390
v -0.220782 0.083047 0.031390
v -0.128944 0.174886 0.031390
v -0.220782 0.174886 0.031390
v -0.128944 0.083047 -0.031390
v -0.220782 0.083047 -0.031390
v -0.220782 0.174886 -0.031390
v -0.128944 0.174886 -0.031390
vt 0.242012 0.474062
vt 0.242012 0.474062
vt 0.242012 0.444982
vt 0.242012 0.444982
vt 0.204559 0.065099
vt 0.204559 0.065099
vt 0.204559 0.065099
vt 0.204559 0.065099
vt 0.242012 0.444982
vt 0.242012 0.444982
vt 0.242012 0.474062
vt 0.242012 0.474062
vt 0.230273 0.475132
vt 0.266624 0.475132
vt 0.230273 0.475132
vt 0.266624 0.475132
vt 0.266624 0.475132
vt 0.266624 0.475132
vt 0.266624 0.446052
vt 0.266624 0.446052
vt 0.266624 0.475132
vt 0.266624 0.475132
vt 0.266624 0.446052
vt 0.266624 0.446052
vt 0.297657 0.449262
vt 0.297657 0.449262
vt 0.297657 0.449262
vt 0.297657 0.449262
vt 0.297657 0.449262
vt 0.297657 0.449262
vt 0.297657 0.449262
vt 0.297657 0.449262
vt 0.176736 0.444982
vt 0.176736 0.444982
vt 0.176736 0.444982
vt 0.176736 0.444982
vt 0.201348 0.446052
vt 0.201348 0.446052
vt 0.201348 0.446052
vt 0.201348 0.446052
vt 0.176736 0.444982
vt 0.176736 0.444982
vt 0.176736 0.444982
vt 0.176736 0.444982
vt 0.201348 0.446052
vt 0.201348 0.446052
vt 0.201348 0.446052
vt 0.201348 0.446052
vt 0.273045 0.449262
vt 0.273045 0.449262
vt 0.273045 0.449262
vt 0.273045 0.449262
vt 0.273045 0.449262
vt 0.273045 0.449262
vt 0.273045 0.449262
vt 0.273045 0.449262
vt 0.273045 0.449262
vt 0.273045 0.449262
vt 0.273045 0.449262
vt 0.273045 0.449262
vt 0.273045 0.449262
vt 0.273045 0.449262
vt 0.273045 0.449262
vt 0.273045 0.449262
vt 0.142493 0.064028
vt 0.142493 0.064028
vt 0.142493 0.064028
vt 0.142493 0.064028
vt 0.167105 0.065099
vt 0.167105 0.065099
vt 0.167105 0.065099
vt 0.167105 0.065099
vt 0.142493 0.064028
vt 0.142493 0.064028
vt 0.142493 0.064028
vt 0.142493 0.064028
vt 0.167105 0.065099
vt 0.167105 0.065099
vt 0.167105 0.065099
vt 0.167105 0.065099
vt 0.242012 0.444982
vt 0.296282 0.476041
vt 0.296282 0.476041
vt 0.266624 0.446052
vt 0.242012 0.444982
vt 0.296282 0.476041
vt 0.296282 0.476041
vt 0.266624 0.446052
vt 0.242012 0.474062
vt 0.242012 0.474062
vt 0.242012 0.474062
vt 0.296282 0.476041
vt 0.266624 0.475132
vt 0.266624 0.475132
vt 0.266624 0.475132
vt 0.266624 0.475132
vt 0.242012 0.474062
vt 0.242012 0.474062
vt 0.242012 0.474062
vt 0.242012 0.474062
vt 0.266624 0.475132
vt 0.266624 0.475132
vt 0.296282 0.476041
vt 0.266624 0.475132
vt 0.296282 0.476041
vt 0.296282 0.476041
vt 0.296282 0.476041
vt 0.296282 0.476041
vt 0.266624 0.475132
vt 0.266624 0.475132
vt 0.266624 0.475132
vt 0.266624 0.475132
vt 0.296282 0.476041
vt 0.296282 0.476041
vt 0.296282 0.476041
vt 0.296282 0.476041
vt 0.235120 0.475132
vt 0.266624 0.475132
vt 0.235120 0.475132
vt 0.266624 0.475132
vt 0.266624 0.475132
vt 0.266624 0.475132
vt 0.235120 0.475132
vt 0.266624 0.475132
vt 0.235120 0.475132
vt 0.266624 0.475132
vt 0.235120 0.475132
vt 0.266624 0.475132
vt 0.266624 0.475132
vt 0.266624 0.475132
vt 0.296282 0.476041
vt 0.296282 0.476041
vt 0.235120 0.475132
vt 0.235120 0.475132
vt 0.266624 0.475132
vt 0.296282 0.476041
vt 0.296282 0.476041
vt 0.266624 0.475132
vt 0.296282 0.476041
vt 0.296282 0.476041
vt 0.266624 0.475132
vt 0.296282 0.476041
vt 0.296282 0.476041
vt 0.235120 0.475132
vt 0.266624 0.475132
vt 0.266624 0.475132
vt 0.296282 0.476041
vt 0.266624 0.475132
vt 0.266624 0.475132
vt 0.296282 0.476041
vt 0.266624 0.475132
vt 0.266624 0.475132
vt 0.296282 0.476041
vt 0.266624 0.475132
vt 0.266624 0.475132
vt 0.296282 0.476041
vt 0.296282 0.476041
vt 0.296282 0.476041
vt 0.266624 0.475132
vt 0.296282 0.476041
vt 0.296282 0.476041
vt 0.266624 0.475132
vt 0.296282 0.476041
vt 0.296282 0.476041
vt 0.266624 0.475132
vt 0.296282 0.476041
vt 0.296282 0.476041
vt 0.266624 0.475132
vt 0.266624 0.475132
vt 0.230273 0.475132
vt 0.296282 0.476041
vt 0.230273 0.475132
vt 0.266624 0.475132
vt 0.296282 0.476041
vt 0.230273 0.475132
vt 0.266624 0.475132
vt 0.296282 0.476041
vt 0.266624 0.475132
vt 0.230273 0.475132
vt 0.296282 0.476041
vt 0.230273 0.475132
vt 0.266624 0.475132
vt 0.266624 0.475132
vt 0.230273 0.475132
vt 0.296282 0.476041
vt 0.296282 0.476041
vt 0.242012 0.474062
vt 0.266624 0.475132
vt 0.242012 0.474062
vt 0.266624 0.475132
vt 0.242012 0.474062
vt 0.266624 0.475132
vt 0.266624 0.475132
vt 0.242012 0.474062
vt 0.296282 0.476041
vt 0.296282 0.476041
vt 0.242012 0.444982
vt 0.296282 0.476041
vt 0.296282 0.476041
vt 0.296282 0.476041
vt 0.266624 0.446052
vt 0.296282 0.476041
vt 0.242012 0.474062
vt 0.266624 0.475132
vt 0.266624 0.446052
vt 0.296282 0.476041
vt 0.242012 0.444982
vt 0.296282 0.476041
vt 0.266394 0.475915
vt 0.266394 0.475915
vt 0.266394 0.475915
vt 0.266394 0.475915
vt 0.297268 0.478338
vt 0.297268 0.478338
vt 0.297268 0.478338
vt 0.297268 0.478338
vt 0.266394 0.475915
vt 0.266394 0.475915
vt 0.266394 0.475915
vt 0.266394 0.475915
vt 0.202204 0.478338
vt 0.202204 0.478338
vt 0.202204 0.478338
vt 0.202204 0.478338
vt 0.143412 0.478338
vt 0.143412 0.478338
vt 0.143412 0.478338
vt 0.143412 0.478338
vt 0.143412 0.478338
vt 0.143412 0.478338
vt 0.143412 0.478338
vt 0.143412 0.478338
vt 0.233886 0.478338
vt 0.233886 0.478338
vt 0.233886 0.478338
vt 0.233886 0.478338
vt 0.233886 0.478338
vt 0.233886 0.478338
vt 0.233886 0.478338
vt 0.233886 0.478338
vt 0.233886 0.478338
vt 0.233886 0.478338
vt 0.233886 0.478338
vt 0.233886 0.478338
vt 0.233886 0.478338
vt 0.233886 0.478338
vt 0.233886 0.478338
vt 0.233886 0.478338
vn 0.000000 0.000000 1.000000
vn 0.000000 0.000000 1.000000
vn 0.000000 0.000000 1.000000
vn 0.000000 0.000000 1.000000
vn 0.000000 1.000000 0.000000
vn 0.000000 1.000000 0.000000
vn 0.000000 1.000000 0.000000
vn 0.000000 1.000000 0.000000
vn 0.000000 0.000000 -1.000000
vn 0.000000 0.000000 -1.000000
vn 0.000000 0.000000 -1.000000
vn 0.000000 0.000000 -1.000000
vn 0.000000 -1.000000 0.000000
vn 0.000000 -1.000000 0.000000
vn 0.000000 -1.000000 0.000000
vn 0.000000 -1.000000 0.000000
vn 1.000000 0.000000 0.000000
vn 1.000000 0.000000 0.000000
vn 1.000000 0.000000 0.000000
vn 1.000000 0.000000 0.000000
vn -1.000000 0.000000 0.000000
vn -1.000000 0.000000 0.000000
vn -1.000000 0.000000 0.000000
vn -1.000000 0.000000 0.000000
vn 0.000000 1.000000 0.000001
vn 0.000000 1.000000 0.000001
vn 0.000000 1.000000 0.000001
vn 0.000000 1.000000 0.000001
vn 0.000000 1.000000 0.000000
vn 0.000000 1.000000 0.000000
vn 0.000000 1.000000 0.000000
vn 0.000000 1.000000 0.000000
vn 0.000000 1.000000 -0.000001
vn 0.000000 1.000000 -0.000001
vn 0.000000 1.000000 -0.000001
vn 0.000000 1.000000 -0.000001
vn 0.000000 1.000000 0.000000
vn 0.000000 1.000000 0.000000
vn 0.000000 1.000000 0.000000
vn 0.000000 1.000000 0.000000
vn 0.000000 0.000000 -1.000000
vn 0.000000 0.000000 -1.000000
vn 0.000000 0.000000 -1.000000
vn 0.000000 0.000000 -1.000000
vn -1.000000 0.000000 0.000000
vn -1.000000 0.000000 0.000000
vn -1.000000 0.000000 0.000000
vn -1.000000 0.000000 0.000000
vn 0.000000 0.000000 1.000000
vn 0.000000 0.000000 1.000000
vn 0.000000 0.000000 1.000000
vn 0.000000 0.000000 1.000000
vn 1.000000 0.000000 0.000000
vn 1.000000 0.000000 0.000000
vn 1.000000 0.000000 0.000000
vn 1.000000 0.000000 0.000000
vn 0.000000 1.000000 0.000000
vn 0.000000 1.000000 0.000000
vn 0.000000 1.000000 0.000000
vn 0.000000 1.000000 0.000000
vn 0.000000 1.000000 0.000000
vn 0.000000 1.000000 0.000000
vn 0.000000 1.000000 0.000000
vn 0.000000 1.000000 0.000000
vn 0.000000 1.000000 0.000000
vn 0.000000 1.000000 0.000000
vn 0.000000 1.000000 0.000000
vn 0.000000 1.000000 0.000000
vn 0.000000 1.000000 0.000000
vn 0.000000 1.000000 0.000000
vn 0.000000 1.000000 0.000000
vn 0.000000 1.000000 0.000000
vn 0.000000 0.000000 1.000000
vn 0.000000 0.000000 1.000000
vn 0.000000 0.000000 1.000000
vn 0.000000 0.000000 1.000000
vn 1.000000 0.000000 0.000000
vn 1.000000 0.000000 0.000000
vn 1.000000 0.000000 0.000000
vn 1.000000 0.000000 0.000000
vn 0.000000 0.000000 -1.000000
vn 0.000000 0.000000 -1.000000
vn 0.000000 0.000000 -1.000000
vn 0.000000 0.000000 -1.000000
vn -1.000000 0.000000 0.000000
vn -1.000000 0.000000 0.000000
vn -1.000000 0.000000 0.000000
vn -1.000000 0.000000 0.000000
vn 0.000000 0.000000 1.000000
vn 0.000000 0.000000 1.000000
vn 0.000000 0.000000 1.000000
vn 0.000000 0.000000 1.000000
vn 1.000000 0.000000 0.000000
vn 1.000000 0.000000 0.000000
vn 1.000000 0.000000 0.000000
vn 1.000000 0.000000 0.000000
vn 0.000000 0.000000 -1.000000
vn 0.000000 0.000000 -1.000000
vn 0.000000 0.000000 -1.000000
vn 0.000000 0.000000 -1.000000
vn -1.000000 0.000000 0.000000
vn -1.000000 0.000000 0.000000
vn -1.000000 0.000000 0.000000
vn -1.000000 0.000000 0.000000
vn 0.000000 -1.000000 -0.000000
vn 0.000000 -1.000000 -0.000000
vn 0.000000 -1.000000 -0.000000
vn 0.000000 -1.000000 -0.000000
vn 0.000000 1.000000 -0.000000
vn 0.000000 1.000000 -0.000000
vn 0.000000 1.000000 -0.000000
vn 0.000000 1.000000 -0.000000
vn 0.000000 -1.000000 0.000000
vn 0.000000 -1.000000 0.000000
vn 0.000000 -1.000000 0.000000
vn 0.000000 -1.000000 0.000000
vn 0.000000 1.000000 0.000000
vn 0.000000 1.000000 0.000000
vn 0.000000 1.000000 0.000000
vn 0.000000 1.000000 0.000000
vn 0.000000 1.000000 0.000000
vn 0.000000 1.000000 0.000000
vn 0.000000 1.000000 0.000000
vn 0.000000 1.000000 0.000000
vn 0.000000 -1.000000 0.000000
vn 0.000000 -1.000000 0.000000
vn 0.000000 -1.000000 0.000000
vn 0.000000 -1.000000 0.000000
vn 0.000000 -1.000000 0.000000
vn 0.000000 -1.000000 0.000000
vn 0.000000 -1.000000 0.000000
vn 0.000000 -1.000000 0.000000
vn 0.000000 1.000000 0.000000
vn 0.000000 1.000000 0.000000
vn 0.000000 1.000000 0.000000
vn 0.000000 1.000000 0.000000
vn 0.000000 0.000000 -1.000000
vn 0.000000 0.000000 -1.000000
vn 0.000000 0.000000 -1.000000
vn 0.000000 0.000000 -1.000000
vn 1.000000 0.000000 0.000000
vn 1.000000 0.000000 0.000000
vn 1.000000 0.000000 0.000000
vn 1.000000 0.000000 0.000000
vn 0.000000 0.000000 1.000000
vn 0.000000 0.000000 1.000000
vn 0.000000 0.000000 1.000000
vn 0.000000 0.000000 1.000000
vn -1.000000 0.000000 0.000000
vn -1.000000 0.000000 0.000000
vn -1.000000 0.000000 0.000000
vn -1.000000 0.000000 0.000000
vn 0.000000 1.000000 0.000000
vn 0.000000 1.000000 0.000000
vn 0.000000 1.000000 0.000000
vn 0.000000 1.000000 0.000000
vn -0.000000 1.000000 0.000000
vn -0.000000 1.000000 0.000000
vn -0.000000 1.000000 0.000000
vn -0.000000 1.000000 0.000000
vn 0.000000 1.000000 -0.000000
vn 0.000000 1.000000 -0.000000
vn 0.000000 1.000000 -0.000000
vn 0.000000 1.000000 -0.000000
vn 0.000000 1.000000 0.000000
vn 0.000000 1.000000 0.000000
vn 0.000000 1.000000 0.000000
vn 0.000000 1.000000 0.000000
vn 0.000000 0.000000 1.000000
vn 0.000000 0.000000 1.000000
vn 0.000000 0.000000 1.000000
vn 0.000000 0.000000 1.000000
vn -1.000000 0.000000 0.000000
vn -1.000000 0.000000 0.000000
vn -1.000000 0.000000 0.000000
vn -1.000000 0.000000 0.000000
vn 0.000000 0.000000 -1.000000
vn 0.000000 0.000000 -1.000000
vn 0.000000 0.000000 -1.000000
vn 0.000000 0.000000 -1.000000
vn 1.000000 0.000000 0.000000
vn 1.000000 0.000000 0.000000
vn 1.000000 0.000000 0.000000
vn 1.000000 0.000000 0.000000
vn 0.000000 1.000000 -0.000000
vn 0.000000 1.000000 -0.000000
vn 0.000000 1.000000 -0.000000
vn 0.000000 1.000000 -0.000000
vn 0.000000 1.000000 0.000000
vn 0.000000 1.000000 0.000000
vn 0.000000 1.000000 0.000000
vn 0.000000 1.000000 0.000000
vn 0.000000 1.000000 0.000000
vn 0.000000 1.000000 0.000000
vn 0.000000 1.000000 0.000000
vn 0.000000 1.000000 0.000000
vn 0.000000 1.000000 0.000000
vn 0.000000 1.000000 0.000000
vn 0.000000 1.000000 0.000000
vn 0.000000 1.000000 0.000000
vn 0.000000 0.000000 -1.000000
vn 0.000000 0.000000 -1.000000
vn 0.000000 0.000000 -1.000000
vn 0.000000 0.000000 -1.000000
vn 1.000000 0.000000 0.000000
vn 1.000000 0.000000 0.000000
vn 1.000000 0.000000 0.000000
vn 1.000000 0.000000 0.000000
vn 0.000000 0.000000 1.000000
vn 0.000000 0.000000 1.000000
vn 0.000000 0.000000 1.000000
vn 0.000000 0.000000 1.000000
vn -1.000000 0.000000 0.000000
vn -1.000000 0.000000 0.000000
vn -1.000000 0.000000 0.000000
vn -1.000000 0.000000 0.000000
vn -1.000000 0.000000 0.000000
vn -1.000000 0.000000 0.000000
vn -1.000000 0.000000 0.000000
vn -1.000000 0.000000 0.000000
vn 0.000000 1.000000 0.000000
vn 0.000000 1.000000 0.000000
vn 0.000000 1.000000 0.000000
vn 0.000000 1.000000 0.000000
vn 1.000000 0.000000 0.000000
vn 1.000000 0.000000 0.000000
vn 1.000000 0.000000 0.000000
vn 1.000000 0.000000 0.000000
vn 0.000000 -1.000000 0.000000
vn 0.000000 -1.000000 0.000000
vn 0.000000 -1.000000 0.000000
vn 0.000000 -1.000000 0.000000
vn 0.000000 0.000000 1.000000
vn 0.000000 0.000000 1.000000
vn 0.000000 0.000000 1.000000
vn 0.000000 0.000000 1.000000
vn -0.000000 0.000000 1.000000
vn -0.000000 0.000000 1.000000
vn -0.000000 0.000000 1.000000
vn -0.000000 0.000000 1.000000
vn 0.000000 0.000000 1.000000
vn 0.000000 0.000000 1.000000
vn 0.000000 0.000000 1.000000
vn 0.000000 0.000000 1.000000
vn 0.000000 0.000000 1.000000
vn 0.000000 0.000000 1.000000
vn 0.000000 0.000000 1.000000
vn 0.000000 0.000000 1.000000
vn 0.000000 0.000000 -1.000000
vn 0.000000 0.000000 -1.000000
vn 0.000000 0.000000 -1.000000
vn 0.000000 0.000000 -1.000000
vn 0.000000 0.000000 -1.000000
vn 0.000000 0.000000 -1.000000
vn 0.000000 0.000000 -1.000000
vn 0.000000 0.000000 -1.000000
vn 0.000000 0.000000 -1.000000
vn 0.000000 0.000000 -1.000000
vn 0.000000 0.000000 -1.000000
vn 0.000000 0.000000 -1.000000
vn -0.000000 0.000000 -1.000000
vn -0.000000 0.000000 -1.000000
vn -0.000000 0.000000 -1.000000
vn -0.000000 0.000000 -1.000000
vn 0.000000 1.000000 0.000000
vn 0.000000 1.000000 0.000000
vn 0.000000 1.000000 0.000000
vn 0.000000 1.000000 0.000000
vn -1.000000 0.000000 0.000000
vn -1.000000 0.000000 0.000000
vn -1.000000 0.000000 0.000000
vn -1.000000 0.000000 0.000000
vn 0.000000 -1.000000 0.000000
vn 0.000000 -1.000000 0.000000
vn 0.000000 -1.000000 0.000000
vn 0.000000 -1.000000 0.000000
vn 1.000000 0.000000 0.000000
vn 1.000000 0.000000 0.000000
vn 1.000000 0.000000 0.000000
vn 1.000000 0.000000 0.000000
s off
f 25/81/1 26/207/2 4/3/3 3/4/4
f 21/5/5 22/6/6 23/7/7 24/8/8
f 5/9/9 6/10/10 27/85/11 28/197/12
f 54/121/13 53/135/14 55/130/15 56/126/16
f 26/84/17 27/201/18 6/19/19 4/20/20
f 28/88/21 25/205/22 3/23/23 5/24/24
f 3/25/25 4/26/26 10/27/27 9/28/28
f 4/26/29 6/29/30 11/30/31 10/27/32
f 6/29/33 5/31/34 12/32/35 11/30/36
f 5/31/37 3/25/38 9/28/39 12/32/40
f 9/33/41 10/34/42 14/35/43 13/36/44
f 10/37/45 11/38/46 15/39/47 14/40/48
f 11/41/49 12/42/50 16/43/51 15/44/52
f 12/45/53 9/46/54 13/47/55 16/48/56
f 13/49/57 14/50/58 18/51/59 17/52/60
f 14/53/61 15/54/62 19/55/63 18/56/64
f 15/57/65 16/58/66 20/59/67 19/60/68
f 16/61/69 13/62/70 17/63/71 20/64/72
f 17/65/73 18/66/74 22/67/75 21/68/76
f 18/69/77 19/70/78 23/71/79 22/72/80
f 19/73/81 20/74/82 24/75/83 23/76/84
f 20/77/85 17/78/86 21/79/87 24/80/88
f 29/89/89 30/203/90 31/91/91 32/187/92
f 30/204/93 33/193/94 34/95/95 31/96/96
f 35/97/97 34/98/98 33/194/99 36/191/100
f 36/192/101 29/102/102 32/188/103 35/104/104
f 1/1/105 2/2/106 30/90/107 29/189/108
f 26/83/109 25/206/110 32/92/111 31/199/112
f 2/17/113 8/18/114 33/94/115 30/93/116
f 27/86/117 26/208/118 31/200/119 34/195/120
f 28/87/121 27/202/122 34/196/123 35/185/124
f 8/11/125 7/12/126 36/100/127 33/99/128
f 7/21/129 1/22/130 29/190/131 36/101/132
f 25/82/133 28/198/134 35/186/135 32/103/136
f 7/13/137 8/184/138 37/179/139 38/175/140
f 8/14/141 2/182/142 39/173/143 37/178/144
f 2/15/145 1/181/146 40/170/147 39/172/148
f 1/16/149 7/183/150 38/176/151 40/169/152
f 38/105/153 37/180/154 41/167/155 42/163/156
f 37/106/157 39/174/158 43/161/159 41/166/160
f 39/107/161 40/171/162 44/158/163 43/160/164
f 40/108/165 38/177/166 42/164/167 44/157/168
f 42/109/169 41/168/170 45/155/171 46/151/172
f 41/110/173 43/162/174 47/149/175 45/154/176
f 43/111/177 44/159/178 48/146/179 47/148/180
f 44/112/181 42/165/182 46/152/183 48/145/184
f 46/113/185 45/156/186 49/143/187 50/139/188
f 45/114/189 47/150/190 51/137/191 49/142/192
f 47/115/193 48/147/194 52/132/195 51/136/196
f 48/116/197 46/153/198 50/140/199 52/131/200
f 50/117/201 49/144/202 53/134/203 54/127/204
f 49/118/205 51/138/206 55/129/207 53/122/208
f 51/119/209 52/133/210 56/125/211 55/123/212
f 52/120/213 50/141/214 54/128/215 56/124/216
f 57/209/217 58/210/218 60/211/219 59/212/220
f 59/213/221 60/214/222 62/215/223 61/216/224
f 61/217/225 62/218/226 64/219/227 63/220/228
f 63/221/229 64/222/230 58/223/231 57/224/232
f 58/233/233 64/234/234 65/235/235 66/236/236
f 64/234/237 62/237/238 67/238/239 65/235/240
f 62/237/241 60/239/242 68/240/243 67/238/244
f 60/239/245 58/233/246 66/236/247 68/240/248
f 63/241/249 57/242/250 70/243/251 69/244/252
f 57/242/253 59/245/254 71/246/255 70/243/256
f 59/245/257 61/247/258 72/248/259 71/246/260
f 61/247/261 63/241/262 69/244/263 72/248/264
f 66/225/265 65/226/266 69/229/267 70/230/268
f 65/226/269 67/227/270 72/232/271 69/229/272
f 67/227/273 68/228/274 71/231/275 72/232/276
f 68/228/277 66/225/278 70/230/279 71/231/280
