# This file uses centimeters as units for non-parametric coordinates.

v -0.121084 0.000000 0.168018
v 0.121084 0.000000 0.168018
v -0.121084 0.381662 0.232922
v 0.121084 0.381662 0.232922
v -0.121084 0.381662 -0.232922
v 0.121084 0.381662 -0.232922
v -0.121084 0.000000 -0.168018
v 0.121084 0.000000 -0.168018
v -0.050906 0.528751 0.048518
v 0.050906 0.528751 0.048518
v 0.050906 0.528751 -0.048518
v -0.050906 0.528751 -0.048518
v -0.050906 0.545610 0.048518
v 0.050906 0.545610 0.048518
v 0.050906 0.545610 -0.048518
v -0.050906 0.545610 -0.048518
v -0.061669 0.549000 0.058777
v 0.061669 0.549000 0.058777
v 0.061669 0.549000 -0.058777
v -0.061669 0.549000 -0.058777
v -0.061669 0.606370 0.058777
v 0.061669 0.606370 0.058777
v 0.061669 0.606370 -0.058777
v -0.061669 0.606370 -0.058777
v 0.121084 0.252253 0.232922
v -0.121084 0.252253 0.232922
v -0.121084 0.252253 -0.232922
v 0.121084 0.252253 -0.232922
vt 0.205268 0.288257
vt 0.172486 0.288257
vt 0.209880 0.288257
vt 0.236106 0.288257
vt 0.236106 0.288257
vt 0.209880 0.288257
vt 0.140383 0.288257
vt 0.172486 0.288257
vt 0.140383 0.288257
vt 0.140383 0.288257
vt 0.205268 0.288257
vt 0.169940 0.062264
vt 0.205268 0.288257
vt 0.169940 0.062264
vt 0.108913 0.288257
vt 0.140383 0.288257
vt 0.108913 0.288257
vt 0.140383 0.288257
vt 0.140383 0.288257
vt 0.140383 0.288257
vt 0.140383 0.288257
vt 0.140383 0.288257
vt 0.233787 0.085977
vt 0.195760 0.085977
vt 0.172158 0.085977
vt 0.195760 0.085977
vt 0.172158 0.085977
vt 0.172158 0.085977
vt 0.195760 0.085977
vt 0.172158 0.085977
vt 0.209880 0.288257
vt 0.236106 0.288257
vt 0.236106 0.288257
vt 0.209880 0.288257
vt 0.209880 0.288257
vt 0.236106 0.288257
vt 0.137158 0.062264
vt 0.209880 0.288257
vt 0.236106 0.288257
vt 0.209880 0.288257
vt 0.137158 0.062264
vt 0.236106 0.288257
vt 0.169940 0.062264
vt 0.209880 0.288257
vt 0.137158 0.062264
vt 0.236106 0.288257
vt 0.205268 0.288257
vt 0.172486 0.288257
vt 0.137158 0.062264
vt 0.169940 0.062264
vt 0.108913 0.288257
vt 0.108913 0.288257
vt 0.108913 0.288257
vt 0.140383 0.288257
vt 0.108913 0.288257
vt 0.108913 0.288257
vt 0.108913 0.288257
vt 0.140383 0.288257
vt 0.172158 0.085977
vt 0.172158 0.085977
vt 0.172158 0.085977
vt 0.195760 0.085977
vt 0.172158 0.085977
vt 0.195760 0.085977
vt 0.172158 0.085977
vt 0.233787 0.085977
vt 0.195760 0.085977
vt 0.233787 0.085977
vt 0.172158 0.085977
vt 0.172158 0.085977
vt 0.233787 0.085977
vt 0.195760 0.085977
vt 0.172158 0.085977
vt 0.195760 0.085977
vt 0.172158 0.085977
vt 0.172158 0.085977
vt 0.172158 0.085977
vt 0.172158 0.085977
vt 0.172158 0.085977
vt 0.172158 0.085977
vt 0.172158 0.085977
vt 0.172158 0.085977
vt 0.172158 0.085977
vt 0.172158 0.085977
vt 0.172158 0.085977
vt 0.172158 0.085977
vt 0.140383 0.288257
vt 0.172486 0.288257
vt 0.172486 0.288257
vt 0.205268 0.288257
vt 0.137158 0.062264
vt 0.169940 0.062264
vt 0.137158 0.062264
vt 0.169940 0.062264
vt 0.137158 0.062264
vt 0.169940 0.062264
vt 0.172486 0.288257
vt 0.205268 0.288257
vt 0.137158 0.062264
vt 0.169940 0.062264
vt 0.205268 0.288257
vt 0.172486 0.288257
vt 0.172486 0.288257
vt 0.205268 0.288257
vn 0.000000 -0.167650 0.985847
vn 0.000000 -0.167650 0.985847
vn 0.000000 -0.167650 0.985847
vn 0.000000 -0.167650 0.985847
vn 0.000000 1.000000 0.000000
vn 0.000000 1.000000 0.000000
vn 0.000000 1.000000 0.000000
vn 0.000000 1.000000 0.000000
vn 0.000000 -0.167650 -0.985847
vn 0.000000 -0.167650 -0.985847
vn 0.000000 -0.167650 -0.985847
vn 0.000000 -0.167650 -0.985847
vn 0.000000 -1.000000 0.000000
vn 0.000000 -1.000000 0.000000
vn 0.000000 -1.000000 0.000000
vn 0.000000 -1.000000 0.000000
vn 0.991526 -0.129910 0.000000
vn 0.991526 -0.129910 0.000000
vn 1.000000 0.000000 0.000000
vn 1.000000 0.000000 0.000000
vn -0.991526 -0.129910 0.000000
vn -0.991526 -0.129910 0.000000
vn -1.000000 0.000000 0.000000
vn -1.000000 0.000000 0.000000
vn 0.000000 0.781763 0.623575
vn 0.000000 0.781763 0.623575
vn 0.000000 0.781763 0.623575
vn 0.000000 0.781763 0.623575
vn 0.902538 0.430610 0.000000
vn 0.902538 0.430610 0.000000
vn 0.902538 0.430610 0.000000
vn 0.902538 0.430610 0.000000
vn 0.000000 0.781763 -0.623575
vn 0.000000 0.781763 -0.623575
vn 0.000000 0.781763 -0.623575
vn 0.000000 0.781763 -0.623575
vn -0.902538 0.430610 0.000000
vn -0.902538 0.430610 0.000000
vn -0.902538 0.430610 0.000000
vn -0.902538 0.430610 0.000000
vn 0.000000 0.000000 1.000000
vn 0.000000 0.000000 1.000000
vn 0.000000 0.000000 1.000000
vn 0.000000 0.000000 1.000000
vn 1.000000 0.000000 0.000000
vn 1.000000 0.000000 0.000000
vn 1.000000 0.000000 0.000000
vn 1.000000 0.000000 0.000000
vn 0.000000 0.000000 -1.000000
vn 0.000000 0.000000 -1.000000
vn 0.000000 0.000000 -1.000000
vn 0.000000 0.000000 -1.000000
vn -1.000000 0.000000 0.000000
vn -1.000000 0.000000 0.000000
vn -1.000000 0.000000 0.000000
vn -1.000000 0.000000 0.000000
vn 0.000000 -0.949523 0.313697
vn 0.000000 -0.949523 0.313697
vn 0.000000 -0.949523 0.313697
vn 0.000000 -0.949523 0.313697
vn 0.300343 -0.953831 0.000000
vn 0.300343 -0.953831 0.000000
vn 0.300343 -0.953831 0.000000
vn 0.300343 -0.953831 0.000000
vn 0.000000 -0.949523 -0.313697
vn 0.000000 -0.949523 -0.313697
vn 0.000000 -0.949523 -0.313697
vn 0.000000 -0.949523 -0.313697
vn -0.300343 -0.953831 0.000000
vn -0.300343 -0.953831 0.000000
vn -0.300343 -0.953831 0.000000
vn -0.300343 -0.953831 0.000000
vn 0.000000 0.000000 1.000000
vn 0.000000 0.000000 1.000000
vn 0.000000 0.000000 1.000000
vn 0.000000 0.000000 1.000000
vn 1.000000 0.000000 0.000000
vn 1.000000 0.000000 0.000000
vn 1.000000 0.000000 0.000000
vn 1.000000 0.000000 0.000000
vn 0.000000 0.000000 -1.000000
vn 0.000000 0.000000 -1.000000
vn 0.000000 0.000000 -1.000000
vn 0.000000 0.000000 -1.000000
vn -1.000000 0.000000 0.000000
vn -1.000000 0.000000 0.000000
vn -1.000000 0.000000 0.000000
vn -1.000000 0.000000 0.000000
vn 0.000000 -0.167650 0.985847
vn 0.000000 -0.167650 0.985847
vn 0.000000 -0.167650 0.985847
vn 0.000000 -0.167650 0.985847
vn -1.000000 0.000000 0.000000
vn -1.000000 0.000000 0.000000
vn -0.991526 -0.129910 0.000000
vn -0.991526 -0.129910 0.000000
vn 0.000000 -0.167650 -0.985847
vn 0.000000 -0.167650 -0.985847
vn 0.000000 -0.167650 -0.985847
vn 0.000000 -0.167650 -0.985847
vn 1.000000 0.000000 0.000000
vn 1.000000 0.000000 0.000000
vn 0.991526 -0.129910 0.000000
vn 0.991526 -0.129910 0.000000
s off
f 1/48/1 2/2/2 25/89/3 26/103/4
f 21/23/5 22/71/6 23/68/7 24/66/8
f 27/102/9 28/97/10 8/8/11 7/88/12
f 7/7/13 8/87/14 2/10/15 1/9/16
f 2/47/17 8/11/18 28/98/19 25/90/20
f 7/13/21 1/1/22 26/104/23 27/101/24
f 3/3/25 4/44/26 10/40/27 9/31/28
f 4/4/29 6/42/30 11/36/31 10/39/32
f 6/6/33 5/38/34 12/34/35 11/35/36
f 5/5/37 3/46/38 9/32/39 12/33/40
f 9/15/41 10/57/42 14/56/43 13/55/44
f 10/16/45 11/54/46 15/21/47 14/20/48
f 11/17/49 12/53/50 16/51/51 15/52/52
f 12/18/53 9/58/54 13/19/55 16/22/56
f 13/27/57 14/85/58 18/79/59 17/81/60
f 14/28/61 15/84/62 19/78/63 18/73/64
f 15/59/65 16/83/66 20/75/67 19/77/68
f 16/61/69 13/86/70 17/82/71 20/69/72
f 17/30/73 18/80/74 22/70/75 21/63/76
f 18/29/77 19/72/78 23/67/79 22/24/80
f 19/60/81 20/76/82 24/65/83 23/25/84
f 20/62/85 17/74/86 21/64/87 24/26/88
f 26/91/89 25/99/90 4/49/91 3/45/92
f 27/94/93 26/92/94 3/50/95 5/14/96
f 5/37/97 6/41/98 28/95/99 27/93/100
f 25/100/101 28/96/102 6/12/103 4/43/104
