# This file uses centimeters as units for non-parametric coordinates.

v -0.062453 0.000000 -0.062452
v -0.062453 0.000000 0.062453
v -0.036592 0.557372 -0.036591
v -0.036592 0.557372 0.036592
v 0.036592 0.557372 -0.036591
v 0.036592 0.557372 0.036592
v 0.062453 0.000000 -0.062452
v 0.062453 0.000000 0.062453
v 0.086417 0.453829 -0.086418
v 0.086417 0.453829 0.086417
v -0.086418 0.453829 0.086417
v -0.086418 0.453829 -0.086418
v -0.036592 0.615499 -0.036591
v -0.036592 0.615499 0.036592
v 0.036592 0.615499 0.036592
v 0.036592 0.615499 -0.036591
v -0.086418 0.393094 0.086417
v 0.086417 0.393094 0.086417
v 0.086417 0.393094 -0.086418
v -0.086418 0.393094 -0.086418
v -0.086418 0.240349 0.086417
v 0.086418 0.240349 0.086417
v 0.086418 0.240349 -0.086418
v -0.086418 0.240349 -0.086418
v -0.086418 0.039808 0.086417
v 0.086418 0.039808 0.086417
v 0.086418 0.039808 -0.086418
v -0.086418 0.039808 -0.086418
vt 0.294645 0.475915
vt 0.268183 0.475915
vt 0.326696 0.333024
vt 0.355401 0.475915
vt 0.328940 0.475915
vt 0.326696 0.333024
vt 0.267636 0.475915
vt 0.268183 0.475915
vt 0.267636 0.475915
vt 0.267636 0.475915
vt 0.294644 0.475915
vt 0.355401 0.475915
vt 0.294644 0.475915
vt 0.355401 0.475915
vt 0.361574 0.333024
vt 0.328940 0.475915
vt 0.328940 0.475915
vt 0.361574 0.333024
vt 0.294644 0.475915
vt 0.268183 0.475915
vt 0.328940 0.475915
vt 0.355401 0.475915
vt 0.267636 0.475915
vt 0.268183 0.475915
vt 0.328398 0.475915
vt 0.301937 0.475915
vt 0.328940 0.475915
vt 0.355401 0.475915
vt 0.328940 0.475915
vt 0.355401 0.475915
vt 0.355401 0.475915
vt 0.328940 0.475915
vt 0.301937 0.475915
vt 0.328398 0.475915
vt 0.328940 0.475915
vt 0.355401 0.475915
vt 0.328398 0.475915
vt 0.301937 0.475915
vt 0.301937 0.475915
vt 0.328398 0.475915
vt 0.395328 0.333024
vt 0.361574 0.333024
vt 0.326696 0.333024
vt 0.361574 0.333024
vt 0.326696 0.333024
vt 0.361574 0.333024
vt 0.326696 0.333024
vt 0.361574 0.333024
vt 0.326696 0.333024
vt 0.326696 0.333024
vt 0.326696 0.333024
vt 0.361574 0.333024
vt 0.361574 0.333024
vt 0.395328 0.333024
vt 0.395328 0.333024
vt 0.395328 0.333024
vt 0.301937 0.196885
vt 0.328398 0.475915
vt 0.301937 0.196885
vt 0.328398 0.196885
vt 0.328398 0.196885
vt 0.301937 0.196885
vt 0.328398 0.196885
vt 0.301937 0.475915
vt 0.301937 0.196885
vt 0.328398 0.196885
vt 0.301937 0.475915
vt 0.328398 0.475915
vt 0.328398 0.475915
vt 0.301937 0.475915
vt 0.328398 0.475915
vt 0.301937 0.475915
vt 0.328398 0.196885
vt 0.301937 0.196885
vt 0.328398 0.475915
vt 0.301937 0.475915
vt 0.301937 0.196885
vt 0.328398 0.196885
vt 0.328398 0.196885
vt 0.301937 0.196885
vt 0.328398 0.475915
vt 0.301937 0.196885
vt 0.301937 0.475915
vt 0.328398 0.196885
vt 0.301937 0.475915
vt 0.328398 0.475915
vt 0.328398 0.475915
vt 0.301937 0.475915
vt 0.301937 0.475915
vt 0.328398 0.475915
vt 0.268183 0.475915
vt 0.294644 0.475915
vt 0.294644 0.475915
vt 0.268183 0.475915
vt 0.294645 0.475915
vt 0.268183 0.475915
vt 0.328398 0.475915
vt 0.301937 0.475915
vt 0.294644 0.475915
vt 0.268183 0.475915
vt 0.301937 0.475915
vt 0.328398 0.475915
vt 0.328398 0.475915
vt 0.301937 0.475915
vn -1.000000 0.000000 0.000000
vn -1.000000 0.000000 0.000000
vn -1.000000 0.000000 0.000000
vn -1.000000 0.000000 0.000000
vn 0.000000 1.000000 0.000000
vn 0.000000 1.000000 0.000000
vn 0.000000 1.000000 0.000000
vn 0.000000 1.000000 0.000000
vn 1.000000 0.000000 0.000000
vn 1.000000 0.000000 0.000000
vn 1.000000 0.000000 0.000000
vn 1.000000 0.000000 0.000000
vn 0.000000 -1.000000 0.000000
vn 0.000000 -1.000000 0.000000
vn 0.000000 -1.000000 0.000000
vn 0.000000 -1.000000 0.000000
vn 0.000000 0.000000 1.000000
vn 0.000000 0.000000 1.000000
vn 0.000000 0.000000 1.000000
vn 0.000000 0.000000 1.000000
vn 0.000000 0.000000 -1.000000
vn 0.000000 0.000000 -1.000000
vn 0.000000 0.000000 -1.000000
vn 0.000000 0.000000 -1.000000
vn 0.901099 0.433614 0.000000
vn 0.901099 0.433614 0.000000
vn 0.901099 0.433614 0.000000
vn 0.901098 0.433614 0.000000
vn 0.000000 0.433609 0.901101
vn 0.000000 0.433609 0.901101
vn 0.000000 0.433609 0.901101
vn 0.000000 0.433609 0.901101
vn -0.901098 0.433614 0.000000
vn -0.901099 0.433614 0.000000
vn -0.901099 0.433614 0.000000
vn -0.901099 0.433614 0.000000
vn 0.000000 0.433623 -0.901095
vn 0.000000 0.433623 -0.901095
vn 0.000000 0.433623 -0.901095
vn 0.000000 0.433623 -0.901095
vn -1.000000 0.000000 0.000000
vn -1.000000 0.000000 0.000000
vn -1.000000 0.000000 0.000000
vn -1.000000 0.000000 0.000000
vn 0.000000 0.000000 1.000000
vn 0.000000 0.000000 1.000000
vn 0.000000 0.000000 1.000000
vn 0.000000 0.000000 1.000000
vn 1.000000 0.000000 0.000000
vn 1.000000 0.000000 0.000000
vn 1.000000 0.000000 0.000000
vn 1.000000 0.000000 0.000000
vn 0.000000 0.000000 -1.000000
vn 0.000000 0.000000 -1.000000
vn 0.000000 0.000000 -1.000000
vn 0.000000 0.000000 -1.000000
vn 0.000000 0.000000 1.000000
vn 0.000000 0.000000 1.000000
vn 0.000000 0.000000 1.000000
vn 0.000000 0.000000 1.000000
vn 1.000000 0.000006 0.000000
vn 1.000000 0.000006 0.000000
vn 1.000000 0.000006 0.000000
vn 1.000000 0.000006 0.000000
vn 0.000000 0.000000 -1.000000
vn 0.000000 0.000000 -1.000000
vn 0.000000 0.000000 -1.000000
vn 0.000000 0.000000 -1.000000
vn -1.000000 0.000000 0.000000
vn -1.000000 0.000000 0.000000
vn -1.000000 0.000000 0.000000
vn -1.000000 0.000000 0.000000
vn 0.000000 0.000000 1.000000
vn 0.000000 0.000000 1.000000
vn 0.000000 0.000000 1.000000
vn 0.000000 0.000000 1.000000
vn 1.000000 0.000000 0.000000
vn 1.000000 0.000000 0.000000
vn 1.000000 0.000000 0.000000
vn 1.000000 0.000000 0.000000
vn 0.000000 0.000000 -1.000000
vn 0.000000 0.000000 -1.000000
vn 0.000000 0.000000 -1.000000
vn 0.000000 0.000000 -1.000000
vn -1.000000 0.000000 0.000000
vn -1.000000 0.000000 0.000000
vn -1.000000 0.000000 0.000000
vn -1.000000 0.000000 0.000000
vn 0.000000 -0.515750 0.856739
vn 0.000000 -0.515750 0.856739
vn 0.000000 -0.515750 0.856739
vn 0.000000 -0.515750 0.856739
vn 0.856729 -0.515767 0.000000
vn 0.856729 -0.515767 0.000000
vn 0.856729 -0.515767 0.000000
vn 0.856729 -0.515767 0.000000
vn 0.000000 -0.515780 -0.856721
vn 0.000000 -0.515780 -0.856721
vn 0.000000 -0.515780 -0.856721
vn 0.000000 -0.515780 -0.856721
vn -0.856729 -0.515767 0.000000
vn -0.856729 -0.515767 0.000000
vn -0.856729 -0.515767 0.000000
vn -0.856729 -0.515767 0.000000
s off
f 20/64/1 17/83/2 11/38/3 12/33/4
f 13/41/5 14/56/6 15/55/7 16/54/8
f 9/26/9 10/39/10 18/88/11 19/85/12
f 7/7/13 8/23/14 2/10/15 1/9/16
f 17/58/17 18/87/18 10/40/19 11/37/20
f 19/86/21 20/81/22 12/34/23 9/25/24
f 5/5/25 6/16/26 10/27/27 9/35/28
f 11/30/29 10/28/30 6/12/31 4/4/32
f 12/32/33 11/29/34 4/21/35 3/17/36
f 9/36/37 12/31/38 3/22/39 5/14/40
f 3/3/41 4/51/42 14/50/43 13/49/44
f 4/15/45 6/48/46 15/46/47 14/42/48
f 6/6/49 5/47/50 16/45/51 15/43/52
f 5/18/53 3/52/54 13/53/55 16/44/56
f 21/66/57 22/79/58 18/60/59 17/84/60
f 19/62/61 18/59/62 22/80/63 23/77/64
f 23/78/65 24/73/66 20/63/67 19/61/68
f 24/74/69 21/65/70 17/57/71 20/82/72
f 25/90/73 26/103/74 22/68/75 21/75/76
f 23/70/77 22/67/78 26/104/79 27/101/80
f 27/102/81 28/97/82 24/71/83 23/69/84
f 28/98/85 25/89/86 21/76/87 24/72/88
f 2/19/89 8/11/90 26/92/91 25/99/92
f 27/94/93 26/91/94 8/8/95 7/24/96
f 7/13/97 1/1/98 28/95/99 27/93/100
f 1/20/101 2/2/102 25/100/103 28/96/104
