# This file uses centimeters as units for non-parametric coordinates.

v -0.176152 0.000000 0.124847
v 0.020045 0.000000 0.238121
v 0.216241 0.000000 0.124847
v 0.216242 0.000000 -0.101701
v 0.020045 0.000000 -0.214975
v -0.176152 0.000000 -0.101701
v -0.176152 0.225987 0.124847
v 0.020045 0.225987 0.238121
v 0.216241 0.225987 0.124847
v 0.216242 0.225987 -0.101701
v 0.020045 0.225987 -0.214975
v -0.176152 0.225987 -0.101701
v 0.136387 0.000000 -0.055597
v 0.020045 0.000000 -0.122767
v 0.136387 0.000000 0.078743
v 0.020045 0.000000 0.145913
v -0.096297 0.000000 0.078743
v -0.096297 0.000000 -0.055597
v -0.096297 0.225987 -0.055597
v -0.096297 0.225987 0.078743
v 0.020045 0.225987 0.145913
v 0.136387 0.225987 0.078743
v 0.136387 0.225987 -0.055597
v 0.020045 0.225987 -0.122767
v 0.107139 0.000000 -0.038711
v 0.020045 0.000000 -0.088995
v 0.107139 0.000000 0.061857
v 0.020045 0.000000 0.112141
v -0.067049 0.000000 0.061857
v -0.067049 0.000000 -0.038711
v -0.067049 0.225987 -0.038711
v -0.067049 0.225987 0.061857
v 0.020045 0.225987 0.112141
v 0.107139 0.225987 0.061857
v 0.107139 0.225987 -0.038711
v 0.020045 0.225987 -0.088995
v -0.176152 0.225987 0.102192
v -0.176152 0.000000 0.102192
v -0.261846 0.225987 0.057130
v -0.261846 0.000000 0.057130
v -0.267769 0.000000 0.074876
v -0.267769 0.225987 0.074876
vt 0.172877 0.169658
vt 0.172877 0.169658
vt 0.172877 0.169658
vt 0.172877 0.169658
vt 0.172877 0.169658
vt 0.172877 0.169658
vt 0.172877 0.169658
vt 0.172877 0.169658
vt 0.172877 0.169658
vt 0.172877 0.169658
vt 0.172877 0.169658
vt 0.172877 0.169658
vt 0.264814 0.397683
vt 0.264814 0.397683
vt 0.264814 0.397683
vt 0.264814 0.397683
vt 0.264814 0.397683
vt 0.264814 0.397683
vt 0.264814 0.397683
vt 0.264814 0.397683
vt 0.264814 0.397683
vt 0.264814 0.397683
vt 0.264814 0.397683
vt 0.264814 0.397683
vt 0.169593 0.400967
vt 0.169593 0.400967
vt 0.169593 0.400967
vt 0.169593 0.400967
vt 0.169593 0.400967
vt 0.169593 0.400967
vt 0.169593 0.400967
vt 0.169593 0.400967
vt 0.169593 0.400967
vt 0.169593 0.400967
vt 0.169593 0.400967
vt 0.169593 0.400967
vt 0.236905 0.169658
vt 0.236905 0.169658
vt 0.236905 0.169658
vt 0.236905 0.169658
vt 0.236905 0.169658
vt 0.236905 0.169658
vt 0.236905 0.169658
vt 0.236905 0.169658
vt 0.236905 0.169658
vt 0.236905 0.169658
vt 0.236905 0.169658
vt 0.236905 0.169658
vt 0.236905 0.169658
vt 0.236905 0.169658
vt 0.236905 0.169658
vt 0.236905 0.169658
vt 0.236905 0.169658
vt 0.236905 0.169658
vt 0.236905 0.169658
vt 0.236905 0.169658
vt 0.263172 0.169658
vt 0.236905 0.169658
vt 0.236905 0.169658
vt 0.166310 0.169658
vt 0.264814 0.397683
vt 0.264814 0.397683
vt 0.264814 0.397683
vt 0.264814 0.397683
vt 0.264814 0.397683
vt 0.264814 0.397683
vt 0.172877 0.169658
vt 0.264814 0.397683
vt 0.264814 0.397683
vt 0.264814 0.397683
vt 0.172877 0.169658
vt 0.264814 0.397683
vt 0.264814 0.397683
vt 0.264814 0.397683
vt 0.172877 0.169658
vt 0.264814 0.397683
vt 0.264814 0.397683
vt 0.264814 0.397683
vt 0.172877 0.169658
vt 0.264814 0.397683
vt 0.172877 0.169658
vt 0.264814 0.397683
vt 0.172877 0.169658
vt 0.264814 0.397683
vt 0.264814 0.397683
vt 0.264814 0.397683
vt 0.264814 0.397683
vt 0.264814 0.397683
vt 0.264814 0.397683
vt 0.264814 0.397683
vt 0.172877 0.169658
vt 0.264814 0.397683
vt 0.264814 0.397683
vt 0.264814 0.397683
vt 0.172877 0.169658
vt 0.264814 0.397683
vt 0.264814 0.397683
vt 0.264814 0.397683
vt 0.172877 0.169658
vt 0.264814 0.397683
vt 0.264814 0.397683
vt 0.264814 0.397683
vt 0.172877 0.169658
vt 0.264814 0.397683
vt 0.172877 0.169658
vt 0.264814 0.397683
vt 0.172877 0.169658
vt 0.264814 0.397683
vt 0.169593 0.400967
vt 0.169593 0.400967
vt 0.169593 0.400967
vt 0.169593 0.400967
vt 0.169593 0.400967
vt 0.169593 0.400967
vt 0.169593 0.400967
vt 0.169593 0.400967
vt 0.169593 0.400967
vt 0.169593 0.400967
vt 0.169593 0.400967
vt 0.169593 0.400967
vt 0.172877 0.169658
vt 0.148251 0.169658
vt 0.166310 0.169658
vt 0.172877 0.169658
vt 0.236905 0.169658
vt 0.166310 0.169658
vt 0.263172 0.169658
vt 0.166310 0.169658
vt 0.166310 0.169658
vt 0.263172 0.169658
vt 0.263172 0.169658
vt 0.148251 0.169658
vt 0.166310 0.169658
vt 0.166310 0.169658
vt 0.236905 0.169658
vt 0.166310 0.169658
vt 0.148251 0.169658
vt 0.236905 0.169658
vt 0.148251 0.169658
vt 0.236905 0.169658
vt 0.236905 0.169658
vt 0.236905 0.169658
vn -0.500000 0.000000 0.866026
vn -0.500000 0.000000 0.866026
vn -0.500000 0.000000 0.866026
vn -0.500000 0.000000 0.866026
vn 0.500001 0.000000 0.866025
vn 0.500001 0.000000 0.866025
vn 0.500001 0.000000 0.866025
vn 0.500001 0.000000 0.866025
vn 1.000000 0.000000 0.000001
vn 1.000000 0.000000 0.000001
vn 1.000000 0.000000 0.000001
vn 1.000000 0.000000 0.000001
vn 0.500000 0.000000 -0.866026
vn 0.500000 0.000000 -0.866026
vn 0.500000 0.000000 -0.866026
vn 0.500000 0.000000 -0.866026
vn -0.500000 0.000000 -0.866026
vn -0.500000 0.000000 -0.866026
vn -0.500000 0.000000 -0.866026
vn -0.500000 0.000000 -0.866026
vn -0.948571 0.000000 -0.316565
vn -0.948571 0.000000 -0.316565
vn -0.948571 0.000000 -0.316565
vn -0.948571 0.000000 -0.316565
vn 0.000000 -1.000000 0.000000
vn 0.000000 -1.000000 0.000000
vn 0.000000 -1.000000 0.000000
vn 0.000000 -1.000000 0.000000
vn 0.000000 -1.000000 0.000000
vn 0.000000 -1.000000 0.000000
vn 0.000000 -1.000000 0.000000
vn 0.000000 -1.000000 0.000000
vn 0.000000 -1.000000 0.000000
vn 0.000000 -1.000000 0.000000
vn 0.000000 -1.000000 0.000000
vn 0.000000 -1.000000 0.000000
vn 0.000000 -1.000000 0.000000
vn 0.000000 -1.000000 0.000000
vn 0.000000 -1.000000 0.000000
vn 0.000000 -1.000000 0.000000
vn 0.000000 -1.000000 0.000000
vn 0.000000 -1.000000 0.000000
vn 0.000000 -1.000000 0.000000
vn 0.000000 -1.000000 0.000000
vn 0.000000 -1.000000 0.000000
vn 0.000000 -1.000000 0.000000
vn 0.000000 -1.000000 0.000000
vn 0.000000 -1.000000 0.000000
vn 0.000000 -1.000000 0.000000
vn 0.000000 1.000000 0.000000
vn 0.000000 1.000000 0.000000
vn 0.000000 1.000000 0.000000
vn 0.000000 1.000000 0.000000
vn 0.000000 1.000000 0.000000
vn 0.000000 1.000000 -0.000000
vn 0.000000 1.000000 -0.000000
vn 0.000000 1.000000 -0.000000
vn 0.000000 1.000000 -0.000000
vn 0.000000 1.000000 -0.000000
vn 0.000000 1.000000 -0.000000
vn 0.000000 1.000000 -0.000000
vn 0.000000 1.000000 -0.000000
vn 0.000000 1.000000 -0.000000
vn 0.000000 1.000000 -0.000000
vn 0.000000 1.000000 -0.000000
vn 0.000000 1.000000 -0.000000
vn 0.000000 1.000000 0.000000
vn 0.000000 1.000000 0.000000
vn 0.000000 1.000000 0.000000
vn 0.000000 1.000000 0.000000
vn 0.000000 1.000000 0.000000
vn 0.000000 1.000000 0.000000
vn 0.000000 1.000000 0.000000
vn 0.000000 1.000000 0.000000
vn 0.000000 -1.000000 0.000000
vn 0.000000 -1.000000 0.000000
vn 0.000000 -1.000000 0.000000
vn 0.000000 -1.000000 0.000000
vn 0.000000 -1.000000 0.000000
vn 0.000000 -1.000000 0.000000
vn 0.000000 -1.000000 0.000000
vn 0.000000 -1.000000 0.000000
vn 0.000000 -1.000000 0.000000
vn 0.000000 -1.000000 0.000000
vn 0.000000 -1.000000 0.000000
vn 0.000000 -1.000000 0.000000
vn 0.000000 -1.000000 0.000000
vn 0.000000 -1.000000 0.000000
vn 0.000000 -1.000000 0.000000
vn 0.000000 -1.000000 0.000000
vn 0.000000 -1.000000 0.000000
vn 0.000000 -1.000000 0.000000
vn 0.000000 -1.000000 0.000000
vn 0.000000 -1.000000 0.000000
vn 0.000000 -1.000000 0.000000
vn 0.000000 -1.000000 0.000000
vn 0.000000 -1.000000 0.000000
vn 0.000000 -1.000000 0.000000
vn 0.000000 1.000000 -0.000000
vn 0.000000 1.000000 -0.000000
vn 0.000000 1.000000 -0.000000
vn 0.000000 1.000000 -0.000000
vn 0.000000 1.000000 0.000000
vn 0.000000 1.000000 0.000000
vn 0.000000 1.000000 0.000000
vn 0.000000 1.000000 0.000000
vn 0.000000 1.000000 -0.000000
vn 0.000000 1.000000 -0.000000
vn 0.000000 1.000000 -0.000000
vn 0.000000 1.000000 -0.000000
vn 0.000000 1.000000 0.000000
vn 0.000000 1.000000 0.000000
vn 0.000000 1.000000 0.000000
vn 0.000000 1.000000 0.000000
vn 0.000000 1.000000 0.000000
vn 0.000000 1.000000 0.000000
vn 0.000000 1.000000 0.000000
vn 0.000000 1.000000 0.000000
vn 0.000000 1.000000 0.000000
vn 0.000000 1.000000 0.000000
vn 0.000000 1.000000 0.000000
vn 0.000000 1.000000 0.000000
vn -0.500000 0.000000 0.866025
vn -0.500000 0.000000 0.866025
vn -0.500000 0.000000 0.866025
vn -0.500000 0.000000 0.866025
vn -1.000000 0.000000 0.000001
vn -1.000000 0.000000 0.000001
vn -1.000000 0.000000 0.000001
vn -1.000000 0.000000 0.000001
vn -0.499999 0.000000 -0.866026
vn -0.499999 0.000000 -0.866026
vn -0.499999 0.000000 -0.866026
vn -0.499999 0.000000 -0.866026
vn 0.500000 0.000000 -0.866025
vn 0.500000 0.000000 -0.866025
vn 0.500000 0.000000 -0.866025
vn 0.500000 0.000000 -0.866025
vn 1.000000 0.000000 -0.000001
vn 1.000000 0.000000 -0.000001
vn 1.000000 0.000000 -0.000001
vn 1.000000 0.000000 -0.000001
vn 0.499999 0.000000 0.866026
vn 0.499999 0.000000 0.866026
vn 0.499999 0.000000 0.866026
vn 0.499999 0.000000 0.866026
vn -1.000000 0.000000 0.000000
vn -1.000000 0.000000 0.000000
vn -1.000000 0.000000 0.000000
vn -1.000000 0.000000 0.000000
vn 0.465422 0.000000 -0.885089
vn 0.465422 0.000000 -0.885089
vn 0.465422 0.000000 -0.885089
vn 0.465422 0.000000 -0.885089
vn 0.000000 -1.000000 0.000000
vn 0.000000 -1.000000 0.000000
vn 0.000000 -1.000000 0.000000
vn 0.000000 -1.000000 0.000000
vn -0.478840 0.000000 0.877902
vn -0.478840 0.000000 0.877902
vn -0.478840 0.000000 0.877902
vn -0.478840 0.000000 0.877902
vn 0.000000 1.000000 0.000000
vn 0.000000 1.000000 0.000000
vn 0.000000 1.000000 0.000000
vn 0.000000 1.000000 0.000000
s off
f 1/58/1 2/53/2 8/56/3 7/59/4
f 2/54/5 3/49/6 9/52/7 8/55/8
f 3/50/9 4/45/10 10/48/11 9/51/12
f 4/46/13 5/41/14 11/44/15 10/47/16
f 5/42/17 6/37/18 12/40/19 11/43/20
f 39/125/21 40/138/22 41/141/23 42/142/24
f 5/9/25 4/7/26 13/107/27 14/105/28
f 4/7/29 3/5/30 15/103/31 13/107/32
f 3/5/33 2/2/34 16/99/35 15/103/36
f 2/2/37 1/1/38 17/95/39 16/99/40
f 1/1/41 38/124/42 6/11/43 18/91/44 17/95/45
f 6/11/46 5/9/47 14/105/48 18/91/49
f 12/12/50 37/121/51 7/4/52 20/81/53 19/83/54
f 7/4/55 8/3/56 21/79/57 20/81/58
f 8/3/59 9/6/60 22/75/61 21/79/62
f 9/6/63 10/8/64 23/71/65 22/75/66
f 10/8/67 11/10/68 24/67/69 23/71/70
f 11/10/71 12/12/72 19/83/73 24/67/74
f 14/14/75 13/108/76 25/102/77 26/85/78
f 13/13/79 15/104/80 27/98/81 25/101/82
f 15/15/83 16/100/84 28/94/85 27/97/86
f 16/16/87 17/96/88 29/90/89 28/93/90
f 17/17/91 18/92/92 30/88/93 29/89/94
f 18/18/95 14/106/96 26/86/97 30/87/98
f 19/20/99 20/82/100 32/78/101 31/63/102
f 20/19/103 21/80/104 33/74/105 32/77/106
f 21/21/107 22/76/108 34/70/109 33/73/110
f 22/22/111 23/72/112 35/66/113 34/69/114
f 23/23/115 24/68/116 36/62/117 35/65/118
f 24/24/119 19/84/120 31/64/121 36/61/122
f 26/26/123 25/112/124 35/35/125 36/109/126
f 25/25/127 27/114/128 34/34/129 35/111/130
f 27/27/131 28/116/132 33/33/133 34/113/134
f 28/28/135 29/118/136 32/31/137 33/115/138
f 29/29/139 30/120/140 31/32/141 32/117/142
f 30/30/143 26/110/144 36/36/145 31/119/146
f 6/38/147 38/135/148 37/140/149 12/39/150
f 37/122/151 38/139/152 40/132/153 39/137/154
f 38/123/155 1/134/156 41/133/157 40/126/158
f 1/57/159 7/131/160 42/130/161 41/127/162
f 7/60/163 37/136/164 39/129/165 42/128/166
