# This file uses centimeters as units for non-parametric coordinates.

v -0.500000 0.067416 0.024148
v 0.500000 0.027185 0.064379
v -0.500000 0.115713 0.024148
v 0.500000 0.155944 0.064379
v -0.500000 0.115713 -0.024148
v 0.500000 0.155944 -0.064379
v -0.500000 0.067416 -0.024148
v 0.500000 0.027185 -0.064379
v -0.004218 0.115713 -0.024148
v -0.004218 0.115713 0.024148
v -0.004218 0.067416 0.024148
v -0.004218 0.067416 -0.024148
v -0.004218 0.000000 0.091565
v -0.004218 0.183129 0.091565
v -0.004218 0.183129 -0.091565
v -0.004218 0.000000 -0.091565
v 0.060301 0.000000 0.091565
v 0.060301 0.183129 0.091565
v 0.060301 0.183129 -0.091565
v 0.060301 0.000000 -0.091565
v 0.060301 0.038167 0.053397
v 0.060301 0.144962 0.053397
v 0.060301 0.144962 -0.053397
v 0.060301 0.038167 -0.053397
v 0.411762 0.038167 0.053397
v 0.411762 0.144962 0.053397
v 0.411762 0.144962 -0.053397
v 0.411762 0.038167 -0.053397
v 0.411762 0.027185 0.064379
v 0.411762 0.155944 0.064379
v 0.411762 0.155944 -0.064379
v 0.411762 0.027185 -0.064379
vt 0.294430 0.086682
vt 0.236691 0.376650
vt 0.354661 0.086682
vt 0.206917 0.376650
vt 0.324204 0.086682
vt 0.267148 0.376650
vt 0.260839 0.086682
vt 0.236691 0.376650
vt 0.260839 0.086682
vt 0.173326 0.376650
vt 0.206917 0.376650
vt 0.206917 0.376650
vt 0.294430 0.086682
vt 0.294430 0.086682
vt 0.236691 0.376650
vt 0.173326 0.376650
vt 0.354661 0.086682
vt 0.324204 0.086682
vt 0.206917 0.376650
vt 0.236691 0.376650
vt 0.267148 0.376650
vt 0.324204 0.086682
vt 0.324204 0.086682
vt 0.294430 0.086682
vt 0.206423 0.377425
vt 0.206423 0.377425
vt 0.354661 0.086682
vt 0.324204 0.086682
vt 0.324204 0.086682
vt 0.260839 0.086682
vt 0.260839 0.086682
vt 0.324204 0.086682
vt 0.206423 0.377425
vt 0.206423 0.377425
vt 0.267148 0.376650
vt 0.236691 0.376650
vt 0.236691 0.376650
vt 0.267148 0.376650
vt 0.173326 0.376650
vt 0.236691 0.376650
vt 0.236691 0.376650
vt 0.173326 0.376650
vt 0.206423 0.377425
vt 0.206423 0.377425
vt 0.206423 0.377425
vt 0.206423 0.377425
vt 0.206423 0.377425
vt 0.206423 0.377425
vt 0.206423 0.377425
vt 0.206423 0.377425
vt 0.267148 0.376650
vt 0.236691 0.376650
vt 0.236691 0.376650
vt 0.267148 0.376650
vt 0.173326 0.376650
vt 0.236691 0.376650
vt 0.236691 0.376650
vt 0.173326 0.376650
vt 0.206423 0.377425
vt 0.206423 0.377425
vt 0.206423 0.377425
vt 0.206423 0.377425
vt 0.206423 0.377425
vt 0.206423 0.377425
vt 0.206423 0.377425
vt 0.206423 0.377425
vt 0.267148 0.376650
vt 0.236691 0.376650
vt 0.236691 0.376650
vt 0.267148 0.376650
vt 0.173326 0.376650
vt 0.236691 0.376650
vt 0.206423 0.377425
vt 0.206423 0.377425
vt 0.236691 0.376650
vt 0.173326 0.376650
vt 0.206423 0.377425
vt 0.206423 0.377425
vt 0.206423 0.377425
vt 0.206423 0.377425
vt 0.236691 0.376650
vt 0.173326 0.376650
vt 0.206423 0.377425
vt 0.206423 0.377425
vt 0.267148 0.376650
vt 0.236691 0.376650
vt 0.236691 0.376650
vt 0.267148 0.376650
vt 0.206423 0.377425
vt 0.206423 0.377425
vt 0.236691 0.376650
vt 0.173326 0.376650
vt 0.206423 0.377425
vt 0.206423 0.377425
vt 0.206423 0.377425
vt 0.206423 0.377425
vt 0.236691 0.376650
vt 0.173326 0.376650
vt 0.206423 0.377425
vt 0.206423 0.377425
vt 0.267148 0.376650
vt 0.236691 0.376650
vt 0.236691 0.376650
vt 0.267148 0.376650
vt 0.206423 0.377425
vt 0.206423 0.377425
vt 0.236691 0.376650
vt 0.173326 0.376650
vt 0.206423 0.377425
vt 0.206423 0.377425
vt 0.206423 0.377425
vt 0.206423 0.377425
vt 0.206423 0.377425
vt 0.206423 0.377425
vt 0.354661 0.086682
vt 0.324204 0.086682
vt 0.206423 0.377425
vt 0.206423 0.377425
vt 0.206423 0.377425
vt 0.206423 0.377425
vn -0.439064 0.000000 0.898456
vn -0.439064 0.000000 0.898456
vn -0.313481 0.000000 0.949594
vn -0.313481 0.000000 0.949594
vn -0.439064 0.898456 0.000000
vn -0.439064 0.898456 0.000000
vn -0.313481 0.949594 0.000000
vn -0.313481 0.949594 0.000000
vn -0.439064 0.000000 -0.898456
vn -0.439064 0.000000 -0.898456
vn -0.313481 0.000000 -0.949594
vn -0.313481 0.000000 -0.949594
vn -0.439064 -0.898456 0.000000
vn -0.439064 -0.898456 0.000000
vn -0.313481 -0.949594 0.000000
vn -0.313481 -0.949594 0.000000
vn 1.000000 0.000000 0.000000
vn 1.000000 0.000000 0.000000
vn 1.000000 0.000000 0.000000
vn 1.000000 0.000000 0.000000
vn -1.000000 0.000000 0.000000
vn -1.000000 0.000000 0.000000
vn -1.000000 0.000000 0.000000
vn -1.000000 0.000000 0.000000
vn 0.000000 1.000000 0.000000
vn -0.439064 0.898456 0.000000
vn -0.439064 0.898456 0.000000
vn 0.000000 1.000000 0.000000
vn 0.000000 0.000000 1.000000
vn -0.439064 0.000000 0.898456
vn -0.439064 0.000000 0.898456
vn 0.000000 0.000000 1.000000
vn 0.000000 -1.000000 0.000000
vn -0.439064 -0.898456 0.000000
vn -0.439064 -0.898456 0.000000
vn 0.000000 -1.000000 0.000000
vn 0.000000 0.000000 -1.000000
vn -0.439064 0.000000 -0.898456
vn -0.439064 0.000000 -0.898456
vn 0.000000 0.000000 -1.000000
vn -0.313481 0.000000 0.949594
vn -0.313481 0.000000 0.949594
vn 0.227974 0.000000 0.973667
vn 0.227973 0.000000 0.973667
vn -0.313481 0.949594 0.000000
vn -0.313481 0.949594 0.000000
vn 0.227974 0.973667 0.000000
vn 0.227974 0.973667 0.000000
vn -0.313481 0.000000 -0.949594
vn -0.313481 0.000000 -0.949594
vn 0.227973 0.000000 -0.973667
vn 0.227974 0.000000 -0.973667
vn -0.313481 -0.949594 0.000000
vn -0.313481 -0.949594 0.000000
vn 0.227973 -0.973667 0.000000
vn 0.227973 -0.973667 0.000000
vn 0.227973 0.000000 0.973667
vn 0.227974 0.000000 0.973667
vn 0.215898 0.000000 0.976416
vn 0.215898 0.000000 0.976416
vn 0.227974 0.973667 0.000000
vn 0.227974 0.973667 0.000000
vn 0.215897 0.976416 0.000000
vn 0.215897 0.976416 0.000000
vn 0.227974 0.000000 -0.973667
vn 0.227973 0.000000 -0.973667
vn 0.215898 0.000000 -0.976416
vn 0.215898 0.000000 -0.976416
vn 0.227973 -0.973667 0.000000
vn 0.227973 -0.973667 0.000000
vn 0.215897 -0.976416 0.000000
vn 0.215897 -0.976416 0.000000
vn 0.215898 0.000000 0.976416
vn 0.215898 0.000000 0.976416
vn -0.051622 0.000000 0.998667
vn -0.051622 0.000000 0.998667
vn 0.215897 0.976416 0.000000
vn 0.215897 0.976416 0.000000
vn -0.051622 0.998667 0.000000
vn -0.051622 0.998667 0.000000
vn 0.215898 0.000000 -0.976416
vn 0.215898 0.000000 -0.976416
vn -0.051622 0.000000 -0.998667
vn -0.051622 0.000000 -0.998667
vn 0.215897 -0.976416 0.000000
vn 0.215897 -0.976416 0.000000
vn -0.051622 -0.998667 0.000000
vn -0.051622 -0.998667 0.000000
vn -0.051622 0.000000 0.998667
vn -0.051622 0.000000 0.998667
vn -0.056831 0.000000 0.998384
vn -0.056831 0.000000 0.998384
vn -0.051622 0.998667 0.000000
vn -0.051622 0.998667 0.000000
vn -0.056831 0.998384 0.000000
vn -0.056831 0.998384 0.000000
vn -0.051622 0.000000 -0.998667
vn -0.051622 0.000000 -0.998667
vn -0.056831 0.000000 -0.998384
vn -0.056831 0.000000 -0.998384
vn -0.051622 -0.998667 0.000000
vn -0.051622 -0.998667 0.000000
vn -0.056831 -0.998384 0.000000
vn -0.056831 -0.998384 0.000000
vn -0.056831 0.000000 0.998384
vn -0.056831 0.000000 0.998384
vn 0.000000 0.000000 1.000000
vn 0.000000 0.000000 1.000000
vn -0.056831 0.998384 0.000000
vn -0.056831 0.998384 0.000000
vn 0.000000 1.000000 0.000000
vn 0.000000 1.000000 0.000000
vn -0.056831 0.000000 -0.998384
vn -0.056831 0.000000 -0.998384
vn 0.000000 0.000000 -1.000000
vn 0.000000 0.000000 -1.000000
vn -0.056831 -0.998384 0.000000
vn -0.056831 -0.998384 0.000000
vn 0.000000 -1.000000 0.000000
vn 0.000000 -1.000000 0.000000
s off
f 10/120/1 11/117/2 13/33/3 14/111/4
f 9/26/5 10/119/6 14/112/7 15/109/8
f 12/114/9 9/25/10 15/110/11 16/105/12
f 11/118/13 12/113/14 16/106/15 13/34/16
f 2/19/17 8/11/18 6/12/19 4/4/20
f 7/13/21 1/1/22 3/24/23 5/14/24
f 3/3/25 10/27/26 9/115/27 5/17/28
f 1/22/29 11/29/30 10/28/31 3/23/32
f 7/7/33 12/31/34 11/30/35 1/9/36
f 5/5/37 9/116/38 12/32/39 7/18/40
f 14/36/41 13/107/42 17/41/43 18/103/44
f 15/38/45 14/35/46 18/104/47 19/101/48
f 16/40/49 15/37/50 19/102/51 20/97/52
f 13/108/53 16/39/54 20/98/55 17/42/56
f 18/44/57 17/99/58 21/49/59 22/95/60
f 19/46/61 18/43/62 22/96/63 23/93/64
f 20/48/65 19/45/66 23/94/67 24/89/68
f 17/100/69 20/47/70 24/90/71 21/50/72
f 22/52/73 21/91/74 25/57/75 26/87/76
f 23/54/77 22/51/78 26/88/79 27/85/80
f 24/56/81 23/53/82 27/86/83 28/81/84
f 21/92/85 24/55/86 28/82/87 25/58/88
f 26/60/89 25/83/90 29/65/91 30/79/92
f 27/62/93 26/59/94 30/80/95 31/77/96
f 28/64/97 27/61/98 31/78/99 32/73/100
f 25/84/101 28/63/102 32/74/103 29/66/104
f 30/68/105 29/75/106 2/2/107 4/20/108
f 31/70/109 30/67/110 4/21/111 6/6/112
f 32/72/113 31/69/114 6/15/115 8/8/116
f 29/76/117 32/71/118 8/16/119 2/10/120
