# This file uses centimeters as units for non-parametric coordinates.

v -0.143334 0.000000 -0.329340
v -0.143334 0.000000 0.083708
v -0.143334 0.154024 -0.329340
v -0.143334 0.154024 0.083708
v 0.143335 0.154024 -0.329340
v 0.143335 0.154024 0.083708
v 0.143335 0.000000 -0.329340
v 0.143335 0.000000 0.083708
v -0.030131 0.041113 0.083708
v -0.105781 0.041113 0.083708
v -0.030131 0.112910 0.083708
v -0.105781 0.112910 0.083708
v -0.049101 0.059117 0.524764
v -0.086811 0.059117 0.524764
v -0.049101 0.094906 0.524764
v -0.086811 0.094906 0.524764
v -0.111610 0.154024 -0.104499
v -0.111610 0.154024 0.047077
v 0.111611 0.154024 0.047077
v 0.111611 0.154024 -0.104499
v -0.143334 0.034354 -0.329340
v -0.143334 0.034354 0.041392
v -0.143334 0.119670 0.041392
v -0.143334 0.119670 -0.329340
v 0.143335 0.119670 -0.329340
v 0.143335 0.119670 0.041392
v 0.143335 0.034354 0.041392
v 0.143335 0.034354 -0.329340
v -0.089962 0.154024 -0.289592
v 0.089963 0.154024 -0.289592
v -0.089962 0.154024 -0.144248
v 0.089963 0.154024 -0.144248
v 0.099360 0.103664 0.083708
v 0.099360 0.050360 0.083708
v 0.039327 0.103664 0.083708
v 0.039327 0.050360 0.083708
v 0.099360 0.103664 0.160445
v 0.099360 0.050360 0.160445
v 0.039327 0.103664 0.160445
v 0.039327 0.050360 0.160445
vt 0.266476 0.198548
vt 0.266476 0.198548
vt 0.327942 0.198548
vt 0.266476 0.198548
vt 0.327942 0.198548
vt 0.266476 0.198548
vt 0.266476 0.198548
vt 0.266476 0.198548
vt 0.266476 0.198548
vt 0.266476 0.198548
vt 0.297209 0.198548
vt 0.297209 0.198548
vt 0.240471 0.198548
vt 0.240471 0.198548
vt 0.168367 0.061896
vt 0.168367 0.061896
vt 0.201464 0.061896
vt 0.168367 0.061896
vt 0.233379 0.061896
vt 0.168367 0.061896
vt 0.201464 0.061896
vt 0.168367 0.061896
vt 0.327942 0.198548
vt 0.327942 0.198548
vt 0.327942 0.198548
vt 0.327942 0.198548
vt 0.113994 0.061896
vt 0.266476 0.198548
vt 0.266476 0.198548
vt 0.240471 0.198548
vt 0.174277 0.061896
vt 0.266476 0.198548
vt 0.266476 0.198548
vt 0.266476 0.198548
vt 0.240471 0.198548
vt 0.113994 0.061896
vt 0.206192 0.198548
vt 0.327942 0.198548
vt 0.327942 0.198548
vt 0.327942 0.198548
vt 0.327942 0.198548
vt 0.327942 0.198548
vt 0.327942 0.198548
vt 0.206192 0.198548
vt 0.327942 0.198548
vt 0.206192 0.198548
vt 0.327942 0.198548
vt 0.021795 0.518161
vt 0.327942 0.198548
vt 0.327942 0.198548
vt 0.206192 0.198548
vt 0.021795 0.518161
vt 0.327942 0.198548
vt 0.327942 0.198548
vt 0.266476 0.198548
vt 0.327942 0.198548
vt 0.327942 0.198548
vt 0.327942 0.198548
vt 0.266476 0.198548
vt 0.327942 0.198548
vt 0.327942 0.198548
vt 0.021795 0.518161
vt 0.327942 0.198548
vt 0.021795 0.518161
vt 0.327942 0.198548
vt 0.327942 0.198548
vt 0.327942 0.198548
vt 0.327942 0.198548
vt 0.201464 0.061896
vt 0.168367 0.061896
vt 0.201464 0.061896
vt 0.297209 0.198548
vt 0.266476 0.198548
vt 0.113994 0.061896
vt 0.240471 0.198548
vt 0.113994 0.061896
vt 0.174277 0.061896
vt 0.240471 0.198548
vt 0.240471 0.198548
vt 0.240471 0.198548
vt 0.168367 0.061896
vt 0.233379 0.061896
vt 0.233379 0.061896
vt 0.233379 0.061896
vt 0.297209 0.198548
vt 0.297209 0.198548
vt 0.297209 0.198548
vt 0.297209 0.198548
vt 0.297209 0.198548
vt 0.168367 0.061896
vt 0.297209 0.198548
vt 0.297209 0.198548
vt 0.297209 0.198548
vt 0.297209 0.198548
vt 0.297209 0.198548
vt 0.297209 0.198548
vt 0.297209 0.198548
vt 0.297209 0.198548
vt 0.168367 0.061896
vt 0.168367 0.061896
vt 0.168367 0.061896
vt 0.168367 0.061896
vt 0.174277 0.061896
vt 0.266476 0.198548
vt 0.174277 0.061896
vt 0.266476 0.198548
vt 0.174277 0.061896
vt 0.174277 0.061896
vt 0.174277 0.061896
vt 0.174277 0.061896
vt 0.297209 0.198548
vt 0.297209 0.198548
vt 0.297209 0.198548
vt 0.297209 0.198548
vt 0.232197 0.063078
vt 0.194372 0.063078
vt 0.170731 0.063078
vt 0.194372 0.063078
vt 0.170732 0.063078
vt 0.194372 0.063078
vt 0.170732 0.063078
vt 0.194372 0.063078
vt 0.170731 0.063078
vt 0.194372 0.063078
vt 0.170731 0.063078
vt 0.232197 0.063078
vt 0.194372 0.063078
vt 0.232197 0.063078
vt 0.170732 0.063078
vt 0.170731 0.063078
vt 0.232197 0.063078
vt 0.194372 0.063078
vt 0.194372 0.063078
vt 0.170732 0.063078
vn -1.000000 0.000000 0.000000
vn -1.000000 0.000000 0.000000
vn -1.000000 -0.000000 0.000000
vn -1.000000 -0.000000 0.000000
vn 0.000000 1.000000 0.000000
vn 0.000000 1.000000 0.000000
vn 0.000000 1.000000 0.000000
vn 0.000000 1.000000 0.000000
vn 1.000000 -0.000000 0.000000
vn 1.000000 -0.000000 0.000000
vn 1.000000 0.000000 0.000000
vn 1.000000 0.000000 0.000000
vn 0.000000 -1.000000 0.000000
vn 0.000000 -1.000000 0.000000
vn 0.000000 -1.000000 0.000000
vn 0.000000 -1.000000 0.000000
vn 0.000000 0.000000 1.000000
vn 0.000000 0.000000 1.000000
vn 0.000000 0.000000 1.000000
vn 0.000000 0.000000 1.000000
vn 0.000000 0.000000 -1.000000
vn 0.000000 0.000000 -1.000000
vn 0.000000 0.000000 -1.000000
vn 0.000000 0.000000 -1.000000
vn 0.000000 0.000000 1.000000
vn 0.000000 0.000000 1.000000
vn -0.000000 0.000000 1.000000
vn 0.000000 0.000000 1.000000
vn 0.000000 0.000000 1.000000
vn 0.000000 0.000000 1.000000
vn 0.000000 0.000000 1.000000
vn 0.000000 0.000000 1.000000
vn 0.000000 0.000000 1.000000
vn 0.000000 0.000000 1.000000
vn 0.000000 0.000000 1.000000
vn -0.000000 0.000000 1.000000
vn 0.000000 0.000000 1.000000
vn 0.000000 0.000000 1.000000
vn 0.000000 0.000000 1.000000
vn 0.000000 0.000000 1.000000
vn 0.000000 -0.998382 0.056871
vn 0.000000 -0.998382 0.056871
vn 0.000000 -0.998382 0.056871
vn 0.000000 -0.998382 0.056871
vn 0.998204 0.000000 0.059914
vn 0.998204 0.000000 0.059914
vn 0.998204 0.000000 0.059914
vn 0.998204 0.000000 0.059914
vn 0.000000 0.998381 0.056872
vn 0.000000 0.998381 0.056872
vn 0.000000 0.998382 0.056872
vn 0.000000 0.998382 0.056872
vn -0.998204 0.000000 0.059914
vn -0.998204 0.000000 0.059914
vn -0.998204 0.000000 0.059914
vn -0.998204 0.000000 0.059914
vn 0.000000 1.000000 -0.000000
vn 0.000000 1.000000 0.000000
vn 0.000000 1.000000 0.000000
vn 0.000000 1.000000 0.000000
vn 0.000000 1.000000 0.000000
vn 0.000000 1.000000 0.000000
vn 0.000000 1.000000 0.000000
vn 0.000000 1.000000 0.000000
vn 0.000000 1.000000 0.000000
vn 0.000000 1.000000 -0.000000
vn 0.000000 1.000000 0.000000
vn 0.000000 1.000000 0.000000
vn 0.000000 1.000000 -0.000000
vn 0.000000 1.000000 -0.000000
vn 0.000000 1.000000 0.000000
vn 0.000000 1.000000 0.000000
vn -1.000000 0.000000 0.000000
vn -1.000000 0.000000 0.000000
vn -1.000000 0.000000 0.000000
vn -1.000000 0.000000 0.000000
vn -1.000000 0.000000 0.000000
vn -1.000000 -0.000000 0.000000
vn -1.000000 -0.000000 0.000000
vn -1.000000 0.000000 0.000000
vn -1.000000 -0.000000 0.000000
vn -1.000000 -0.000000 0.000000
vn -1.000000 -0.000000 0.000000
vn -1.000000 -0.000000 0.000000
vn 1.000000 -0.000000 0.000000
vn 1.000000 -0.000000 0.000000
vn 1.000000 -0.000000 0.000000
vn 1.000000 -0.000000 0.000000
vn 1.000000 -0.000000 0.000000
vn 1.000000 0.000000 0.000000
vn 1.000000 0.000000 0.000000
vn 1.000000 -0.000000 0.000000
vn 1.000000 0.000000 0.000000
vn 1.000000 0.000000 0.000000
vn 1.000000 0.000000 0.000000
vn 1.000000 0.000000 0.000000
vn 0.000000 0.000000 -1.000000
vn 0.000000 0.000000 -1.000000
vn 0.000000 0.000000 -1.000000
vn 0.000000 0.000000 -1.000000
vn 0.000000 0.000000 -1.000000
vn 0.000000 0.000000 -1.000000
vn 0.000000 0.000000 -1.000000
vn 0.000000 0.000000 -1.000000
vn 0.000000 1.000000 -0.000000
vn 0.000000 1.000000 -0.000000
vn 0.000000 1.000000 -0.000000
vn 0.000000 1.000000 -0.000000
vn 0.000000 1.000000 -0.000000
vn 0.000000 1.000000 0.000000
vn 0.000000 1.000000 0.000000
vn 0.000000 1.000000 -0.000000
vn 0.000000 1.000000 0.000000
vn 0.000000 1.000000 0.000000
vn 0.000000 1.000000 0.000000
vn 0.000000 1.000000 0.000000
vn 0.000000 1.000000 0.000000
vn 0.000000 1.000000 -0.000000
vn 0.000000 1.000000 -0.000000
vn 0.000000 1.000000 0.000000
vn 0.000000 0.000000 1.000000
vn 0.000000 0.000000 1.000000
vn 0.000000 0.000000 1.000000
vn 0.000000 0.000000 1.000000
vn 0.000000 0.000000 1.000000
vn -0.000000 0.000000 1.000000
vn -0.000000 0.000000 1.000000
vn 0.000000 0.000000 1.000000
vn -0.000000 0.000000 1.000000
vn -0.000000 0.000000 1.000000
vn -0.000000 0.000000 1.000000
vn -0.000000 0.000000 1.000000
vn -0.000000 0.000000 1.000000
vn 0.000000 0.000000 1.000000
vn 0.000000 0.000000 1.000000
vn -0.000000 0.000000 1.000000
vn 1.000000 0.000000 0.000000
vn 1.000000 0.000000 0.000000
vn 1.000000 0.000000 0.000000
vn 1.000000 0.000000 0.000000
vn 0.000000 1.000000 0.000000
vn 0.000000 1.000000 0.000000
vn 0.000000 1.000000 0.000000
vn 0.000000 1.000000 0.000000
vn -1.000000 0.000000 0.000000
vn -1.000000 0.000000 0.000000
vn -1.000000 0.000000 0.000000
vn -1.000000 0.000000 0.000000
vn 0.000000 -1.000000 0.000000
vn 0.000000 -1.000000 0.000000
vn 0.000000 -1.000000 0.000000
vn 0.000000 -1.000000 0.000000
s off
f 21/77/1 22/110/2 23/109/3 24/103/4
f 17/48/5 18/52/6 19/62/7 20/64/8
f 25/31/9 26/108/10 27/107/11 28/105/12
f 7/7/13 8/8/14 2/10/15 1/9/16
f 14/19/17 13/84/18 15/83/19 16/82/20
f 28/76/21 21/27/22 24/74/23 25/36/24
f 2/97/25 8/11/26 9/94/27 10/85/28
f 38/115/29 37/131/30 39/128/31 40/126/32
f 6/95/33 4/91/34 12/88/35 11/72/36
f 4/92/37 2/96/38 10/86/39 12/87/40
f 10/15/41 9/102/42 13/100/43 14/81/44
f 9/16/45 11/90/46 15/70/47 13/20/48
f 11/17/49 12/71/50 16/69/51 15/21/52
f 12/18/53 10/101/54 14/99/55 16/22/56
f 3/58/57 4/67/58 18/63/59 17/53/60
f 4/68/61 6/65/62 19/61/63 18/24/64
f 6/66/65 5/56/66 20/47/67 19/25/68
f 30/37/69 29/51/70 31/46/71 32/44/72
f 1/1/73 2/2/74 22/28/75 21/106/76
f 2/2/77 4/4/78 23/29/79 22/28/80
f 4/4/81 3/59/82 24/73/83 23/29/84
f 5/55/85 6/6/86 26/32/87 25/104/88
f 6/6/89 8/8/90 27/33/91 26/32/92
f 8/8/93 7/7/94 28/34/95 27/33/96
f 7/13/97 1/80/98 21/78/99 28/35/100
f 3/79/101 5/14/102 25/75/103 24/30/104
f 5/5/105 3/60/106 29/50/107 30/41/108
f 3/3/109 17/54/110 31/45/111 29/38/112
f 17/23/113 20/49/114 32/43/115 31/39/116
f 20/26/117 5/57/118 30/42/119 32/40/120
f 8/98/121 6/12/122 33/112/123 34/111/124
f 6/12/125 11/89/126 35/113/127 33/112/128
f 11/89/129 9/93/130 36/114/131 35/113/132
f 9/93/133 8/98/134 34/111/135 36/114/136
f 34/119/137 33/134/138 37/130/139 38/123/140
f 33/120/141 35/132/142 39/127/143 37/116/144
f 35/121/145 36/129/146 40/125/147 39/117/148
f 36/122/149 34/133/150 38/124/151 40/118/152
