# This file uses centimeters as units for non-parametric coordinates.

v -0.120790 0.000000 -0.160008
v -0.259361 0.000000 -0.080004
v -0.259359 0.000000 0.080003
v -0.120790 0.000000 0.160007
v 0.017780 0.000000 0.080003
v 0.017780 0.000000 -0.080004
v -0.120790 0.451121 -0.160008
v -0.259361 0.451121 -0.080004
v -0.259359 0.451121 0.080003
v -0.120790 0.451121 0.160007
v 0.017780 0.451121 0.080003
v 0.017780 0.451121 -0.080004
v -0.120788 0.000000 -0.000000
v 0.017780 0.396457 -0.080004
v 0.017780 0.396457 0.080003
v -0.120790 0.396457 0.160007
v -0.259361 0.396457 0.080004
v -0.259361 0.396457 -0.080004
v -0.120790 0.396457 -0.160008
v -0.259361 0.086598 -0.080004
v -0.259361 0.086598 0.080004
v -0.120790 0.086598 0.160007
v 0.017780 0.086598 0.080003
v 0.017780 0.086598 -0.080003
v -0.120790 0.086598 -0.160008
v -0.007598 0.451121 -0.065351
v -0.120788 0.451121 -0.130703
v -0.233981 0.451121 -0.065351
v -0.233981 0.451121 0.065351
v -0.120790 0.451121 0.130701
v -0.007598 0.451121 0.065350
v 0.017780 0.086598 0.041559
v 0.017780 0.086598 -0.041559
v 0.017780 0.396457 -0.041559
v 0.017780 0.396457 0.041559
v 0.017780 0.164262 -0.041559
v 0.017780 0.164262 -0.080003
v -0.120790 0.164262 -0.160008
v -0.259361 0.164262 -0.080004
v -0.259361 0.164262 0.080004
v -0.120790 0.164262 0.160007
v 0.017780 0.164262 0.080003
v 0.017780 0.164262 0.041559
v -0.007598 0.021521 -0.065351
v -0.120788 0.021521 -0.130703
v -0.233981 0.021521 -0.065351
v -0.233981 0.021521 0.065351
v -0.120790 0.021521 0.130701
v -0.007598 0.021521 0.065350
v 0.144802 0.510770 -0.160008
v 0.259362 0.588732 -0.080004
v 0.259360 0.588731 0.080003
v 0.144802 0.510770 0.160007
v 0.030243 0.432808 0.080003
v 0.030243 0.432808 -0.080004
v 0.017780 0.451121 -0.080004
v 0.017780 0.451121 0.080003
v 0.132340 0.529083 0.160007
v 0.246899 0.607044 0.080004
v 0.246899 0.607044 -0.080004
v 0.132340 0.529083 -0.160008
vt 0.232080 0.046385
vt 0.232080 0.046385
vt 0.170810 0.027123
vt 0.170810 0.027123
vt 0.204543 0.046385
vt 0.204543 0.046385
vt 0.143274 0.027123
vt 0.143274 0.027123
vt 0.232080 0.046385
vt 0.232080 0.046385
vt 0.170810 0.027123
vt 0.170810 0.027123
vt 0.204543 0.046385
vt 0.204543 0.046385
vt 0.143274 0.027123
vt 0.143274 0.027123
vt 0.232080 0.046385
vt 0.232080 0.046385
vt 0.170810 0.027123
vt 0.170810 0.027123
vt 0.204543 0.046385
vt 0.204543 0.046385
vt 0.143274 0.027123
vt 0.143274 0.027123
vt 0.304151 0.061830
vt 0.304151 0.061830
vt 0.304151 0.061830
vt 0.304151 0.061830
vt 0.304151 0.061830
vt 0.304151 0.061830
vt 0.304151 0.061830
vt 0.304151 0.061830
vt 0.304151 0.061830
vt 0.304151 0.061830
vt 0.304151 0.061830
vt 0.304151 0.061830
vt 0.304151 0.061830
vt 0.304151 0.061830
vt 0.304151 0.061830
vt 0.304151 0.061830
vt 0.304151 0.061830
vt 0.304151 0.061830
vt 0.330804 0.061830
vt 0.330804 0.061830
vt 0.330804 0.061830
vt 0.330804 0.061830
vt 0.330804 0.061830
vt 0.330804 0.061830
vt 0.325533 0.061890
vt 0.325533 0.061890
vt 0.325533 0.061890
vt 0.304151 0.061830
vt 0.304151 0.061830
vt 0.304151 0.061830
vt 0.304151 0.061830
vt 0.331688 0.061830
vt 0.331688 0.061830
vt 0.331688 0.061830
vt 0.331688 0.061830
vt 0.304151 0.061830
vt 0.304151 0.061830
vt 0.304151 0.061830
vt 0.304151 0.061830
vt 0.331688 0.061830
vt 0.331688 0.061830
vt 0.331688 0.061830
vt 0.331688 0.061830
vt 0.304151 0.061830
vt 0.304151 0.061830
vt 0.304151 0.061830
vt 0.304151 0.061830
vt 0.304151 0.061830
vt 0.304151 0.061830
vt 0.304151 0.061830
vt 0.304151 0.061830
vt 0.331688 0.061830
vt 0.331688 0.061830
vt 0.331688 0.061830
vt 0.331688 0.061830
vt 0.304151 0.061830
vt 0.304151 0.061830
vt 0.304151 0.061830
vt 0.304151 0.061830
vt 0.325533 0.061890
vt 0.325533 0.061890
vt 0.325533 0.061890
vt 0.304151 0.061830
vt 0.304151 0.061830
vt 0.304151 0.061830
vt 0.304151 0.061830
vt 0.331688 0.061830
vt 0.331688 0.061830
vt 0.331688 0.061830
vt 0.331688 0.061830
vt 0.353980 0.061830
vt 0.353980 0.061830
vt 0.353980 0.061830
vt 0.353980 0.061830
vt 0.353980 0.061830
vt 0.353980 0.061830
vt 0.353980 0.061830
vt 0.353980 0.061830
vt 0.353980 0.061830
vt 0.353980 0.061830
vt 0.353980 0.061830
vt 0.353980 0.061830
vt 0.232080 0.046385
vt 0.232080 0.046385
vt 0.170810 0.027123
vt 0.170810 0.027123
vt 0.325533 0.061890
vt 0.325533 0.061890
vt 0.325533 0.061890
vt 0.325533 0.061890
vt 0.325533 0.061890
vt 0.325533 0.061890
vt 0.325533 0.061890
vt 0.232080 0.046385
vt 0.232080 0.046385
vt 0.204543 0.046385
vt 0.204543 0.046385
vt 0.232080 0.046385
vt 0.232080 0.046385
vt 0.204543 0.046385
vt 0.204543 0.046385
vt 0.232080 0.046385
vt 0.232080 0.046385
vt 0.204543 0.046385
vt 0.204543 0.046385
vt 0.232080 0.046385
vt 0.170810 0.027123
vt 0.325533 0.061890
vt 0.143274 0.027123
vt 0.170810 0.027123
vt 0.232080 0.046385
vt 0.170810 0.027123
vt 0.143274 0.027123
vt 0.143274 0.027123
vt 0.170810 0.027123
vt 0.170810 0.027123
vt 0.143274 0.027123
vt 0.143274 0.027123
vt 0.170810 0.027123
vt 0.170810 0.027123
vt 0.143274 0.027123
vt 0.170810 0.027123
vt 0.330804 0.061830
vt 0.330804 0.061830
vt 0.330804 0.061830
vt 0.330804 0.061830
vt 0.330804 0.061830
vt 0.330804 0.061830
vt 0.353980 0.061830
vt 0.353980 0.061830
vt 0.353980 0.061830
vt 0.358234 0.061931
vt 0.353980 0.061830
vt 0.353980 0.061830
vt 0.304151 0.061830
vt 0.304151 0.061830
vt 0.304151 0.061830
vt 0.304151 0.061830
vt 0.331688 0.061830
vt 0.331688 0.061830
vt 0.331688 0.061830
vt 0.331688 0.061830
vt 0.295901 0.062061
vt 0.295901 0.062061
vt 0.295901 0.062061
vt 0.295901 0.062061
vt 0.331688 0.061830
vt 0.331688 0.061830
vt 0.331688 0.061830
vt 0.331688 0.061830
vt 0.304151 0.061830
vt 0.304151 0.061830
vt 0.304151 0.061830
vt 0.304151 0.061830
vt 0.323114 0.062061
vt 0.323114 0.062061
vt 0.323114 0.062061
vt 0.323114 0.062061
vt 0.353375 0.061720
vt 0.353375 0.061720
vt 0.353375 0.061720
vt 0.353375 0.061720
vt 0.353375 0.061720
vt 0.353375 0.061720
vn -0.499999 0.000000 -0.866026
vn -0.499999 0.000000 -0.866026
vn -0.499999 0.000000 -0.866026
vn -0.499999 0.000000 -0.866026
vn -1.000000 0.000000 0.000000
vn -1.000000 0.000000 0.000000
vn -1.000000 0.000000 0.000000
vn -1.000000 0.000000 0.000000
vn -0.499995 0.000000 0.866028
vn -0.499995 0.000000 0.866028
vn -0.499995 0.000000 0.866028
vn -0.499995 0.000000 0.866028
vn 0.499999 0.000000 0.866026
vn 0.499999 0.000000 0.866026
vn 0.499999 0.000000 0.866026
vn 0.499999 0.000000 0.866026
vn 1.000000 0.000000 0.000000
vn 1.000000 0.000000 0.000000
vn 1.000000 0.000000 0.000000
vn 1.000000 0.000000 0.000000
vn 1.000000 0.000000 0.000000
vn 1.000000 0.000000 0.000000
vn 0.500001 -0.000001 -0.866025
vn 0.500001 -0.000001 -0.866025
vn 0.500001 -0.000001 -0.866025
vn 0.500001 -0.000001 -0.866025
vn 0.000000 -1.000000 0.000000
vn 0.000000 -1.000000 0.000000
vn 0.000000 -1.000000 0.000000
vn 0.000000 -1.000000 0.000000
vn 0.000000 -1.000000 0.000000
vn 0.000000 -1.000000 0.000000
vn 0.000000 -1.000000 0.000000
vn 0.000000 -1.000000 0.000000
vn 0.000000 -1.000000 0.000000
vn 0.000000 -1.000000 0.000000
vn 0.000000 -1.000000 0.000000
vn 0.000000 -1.000000 0.000000
vn 0.000000 -1.000000 0.000000
vn 0.000000 -1.000000 0.000000
vn 0.000000 -1.000000 0.000000
vn 0.000000 -1.000000 0.000000
vn 0.000000 -1.000000 0.000000
vn 0.000000 -1.000000 0.000000
vn 0.000000 1.000000 0.000000
vn 0.000000 1.000000 0.000000
vn 0.000000 1.000000 0.000000
vn 0.000000 1.000000 0.000000
vn 0.000000 1.000000 0.000000
vn 0.000000 1.000000 0.000000
vn 0.499999 0.000000 0.866026
vn 0.499999 0.000000 0.866026
vn 0.499999 0.000000 0.866026
vn 0.499999 0.000000 0.866026
vn -0.500000 0.000016 0.866026
vn -0.500000 0.000016 0.866026
vn -0.500000 0.000016 0.866026
vn -0.500000 0.000016 0.866026
vn -1.000000 0.000018 0.000006
vn -1.000000 0.000018 0.000006
vn -1.000000 0.000018 0.000006
vn -1.000000 0.000018 0.000006
vn -0.499999 0.000000 -0.866026
vn -0.499999 0.000000 -0.866026
vn -0.499999 0.000000 -0.866026
vn -0.499999 0.000000 -0.866026
vn 0.499999 0.000000 -0.866026
vn 0.499999 0.000000 -0.866026
vn 0.499999 0.000000 -0.866026
vn 0.499999 0.000000 -0.866026
vn -1.000000 -0.000011 0.000006
vn -1.000000 -0.000011 0.000006
vn -1.000000 -0.000011 0.000006
vn -1.000000 -0.000011 0.000006
vn -0.500000 -0.000010 0.866026
vn -0.500000 -0.000010 0.866026
vn -0.500000 -0.000010 0.866026
vn -0.500000 -0.000010 0.866026
vn 0.499999 0.000000 0.866026
vn 0.499999 0.000000 0.866026
vn 0.499999 0.000000 0.866026
vn 0.499999 0.000000 0.866026
vn 0.500001 0.000005 -0.866025
vn 0.500001 0.000005 -0.866025
vn 0.500001 0.000005 -0.866025
vn 0.500001 0.000005 -0.866025
vn -0.499999 0.000000 -0.866026
vn -0.499999 0.000000 -0.866026
vn -0.499999 0.000000 -0.866026
vn -0.499999 0.000000 -0.866026
vn 0.000000 1.000000 0.000001
vn 0.000000 1.000000 0.000001
vn 0.000000 1.000000 0.000001
vn 0.000000 1.000000 0.000001
vn 0.000000 1.000000 0.000001
vn 0.000000 1.000000 0.000001
vn 0.000000 1.000000 0.000001
vn 0.000000 1.000000 0.000001
vn 0.000000 1.000000 0.000000
vn 0.000000 1.000000 0.000000
vn 0.000000 1.000000 0.000000
vn 0.000000 1.000000 0.000000
vn 0.000000 1.000000 0.000001
vn 0.000000 1.000000 0.000001
vn 0.000000 1.000000 0.000001
vn 0.000000 1.000000 0.000001
vn 0.000000 1.000000 -0.000001
vn 0.000000 1.000000 -0.000001
vn 0.000000 1.000000 -0.000001
vn 0.000000 1.000000 -0.000001
vn 0.000000 1.000000 0.000000
vn 0.000000 1.000000 0.000000
vn 0.000000 1.000000 0.000000
vn 0.000000 1.000000 0.000000
vn 1.000000 -0.000000 0.000000
vn 1.000000 -0.000000 0.000000
vn 1.000000 -0.000000 0.000000
vn 1.000000 -0.000000 0.000000
vn 1.000000 0.000000 0.000000
vn 1.000000 0.000000 0.000000
vn 1.000000 0.000000 0.000000
vn 1.000000 0.000000 0.000000
vn 1.000000 0.000000 0.000000
vn 1.000000 0.000000 0.000000
vn 1.000000 0.000000 0.000000
vn 1.000000 0.000000 0.000000
vn 0.500003 -0.000001 -0.866024
vn 0.500003 -0.000001 -0.866024
vn 0.500003 -0.000001 -0.866024
vn 0.500003 -0.000001 -0.866024
vn -0.499999 0.000000 -0.866026
vn -0.499999 0.000000 -0.866026
vn -0.499999 0.000000 -0.866026
vn -0.499999 0.000000 -0.866026
vn -1.000000 0.000000 0.000000
vn -1.000000 0.000000 0.000000
vn -1.000000 0.000000 0.000000
vn -1.000000 0.000000 0.000000
vn -0.499995 0.000000 0.866028
vn -0.499995 0.000000 0.866028
vn -0.499995 0.000000 0.866028
vn -0.499995 0.000000 0.866028
vn 0.499999 0.000000 0.866026
vn 0.499999 0.000000 0.866026
vn 0.499999 0.000000 0.866026
vn 0.499999 0.000000 0.866026
vn 1.000000 0.000000 0.000000
vn 1.000000 0.000000 0.000000
vn 1.000000 0.000000 0.000000
vn 1.000000 0.000000 0.000000
vn -0.500002 0.000000 0.866024
vn -0.500002 0.000000 0.866024
vn -0.500002 0.000000 0.866024
vn -0.500002 0.000000 0.866024
vn 0.499996 0.000000 0.866028
vn 0.499996 0.000000 0.866028
vn 0.499996 0.000000 0.866028
vn 0.499996 0.000000 0.866028
vn 1.000000 0.000000 0.000000
vn 1.000000 0.000000 0.000000
vn 1.000000 0.000000 0.000000
vn 1.000000 0.000000 0.000000
vn 0.499997 0.000000 -0.866027
vn 0.499997 0.000000 -0.866027
vn 0.499997 0.000000 -0.866027
vn 0.499997 0.000000 -0.866027
vn -0.499996 0.000000 -0.866028
vn -0.499996 0.000000 -0.866028
vn -0.499996 0.000000 -0.866028
vn -0.499996 0.000000 -0.866028
vn -1.000000 0.000000 0.000000
vn -1.000000 0.000000 0.000000
vn -1.000000 0.000000 0.000000
vn -1.000000 0.000000 0.000000
vn 0.562612 -0.826721 0.000000
vn 0.562612 -0.826721 0.000001
vn 0.562612 -0.826721 0.000000
vn 0.562612 -0.826721 0.000000
vn 0.562612 -0.826721 -0.000000
vn 0.562612 -0.826721 -0.000000
vn -0.413360 -0.281305 0.866026
vn -0.413360 -0.281305 0.866026
vn -0.413360 -0.281305 0.866026
vn -0.413360 -0.281305 0.866026
vn 0.413361 0.281297 0.866028
vn 0.413362 0.281297 0.866028
vn 0.413383 0.281273 0.866026
vn 0.413383 0.281273 0.866026
vn 0.826726 0.562605 0.000001
vn 0.826726 0.562605 0.000001
vn 0.826746 0.562576 0.000006
vn 0.826746 0.562576 0.000006
vn 0.413360 0.281305 -0.866026
vn 0.413360 0.281305 -0.866026
vn 0.413360 0.281305 -0.866026
vn 0.413360 0.281305 -0.866026
vn -0.413363 -0.281304 -0.866025
vn -0.413363 -0.281304 -0.866025
vn -0.413360 -0.281305 -0.866026
vn -0.413360 -0.281305 -0.866026
vn -0.826721 -0.562612 0.000000
vn -0.826721 -0.562612 0.000000
vn -0.826721 -0.562612 0.000000
vn -0.826721 -0.562612 0.000000
vn -0.562612 0.826721 0.000000
vn -0.562612 0.826721 0.000000
vn -0.562612 0.826721 0.000000
vn -0.562612 0.826721 0.000000
vn -0.562612 0.826721 0.000000
vn -0.562612 0.826721 0.000000
vn 1.000000 0.000000 0.000000
vn 1.000000 0.000000 0.000000
vn 1.000000 0.000000 0.000000
vn 1.000000 0.000000 0.000000
vn 1.000000 0.000000 0.000000
vn 1.000000 0.000000 0.000000
vn 1.000000 0.000000 0.000000
vn 1.000000 0.000000 0.000000
vn 1.000000 0.000000 0.000000
vn 1.000000 0.000000 0.000000
vn 1.000000 0.000000 0.000000
vn 1.000000 0.000000 0.000000
s off
f 38/143/1 39/140/2 18/3/3 19/4/4
f 39/141/5 40/138/6 17/7/7 18/8/8
f 40/139/9 41/136/10 16/11/11 17/12/12
f 41/137/13 42/133/14 15/15/15 16/16/16
f 35/50/17 34/113/18 14/114/19 12/115/20 11/116/21 15/49/22
f 37/145/23 38/142/24 19/23/25 14/24/26
f 2/25/27 1/26/28 13/27/29
f 3/28/30 2/29/31 13/30/32
f 4/31/33 3/32/34 13/33/35
f 5/34/36 4/35/37 13/36/38
f 6/37/39 5/38/40 13/39/41
f 1/40/42 6/41/43 13/42/44
f 44/147/45 45/148/46 46/149/47 47/150/48 48/151/49 49/152/50
f 16/52/51 15/53/52 11/54/53 10/55/54
f 17/56/55 16/57/56 10/58/57 9/59/58
f 18/60/59 17/61/60 9/62/61 8/63/62
f 19/64/63 18/65/64 8/66/65 7/67/66
f 14/68/67 19/69/68 7/70/69 12/71/70
f 2/72/71 3/73/72 21/74/73 20/75/74
f 3/76/75 4/77/76 22/78/77 21/79/78
f 4/80/79 5/81/80 23/82/81 22/83/82
f 6/87/83 1/88/84 25/89/85 24/90/86
f 1/91/87 2/92/88 20/93/89 25/94/90
f 12/95/91 7/96/92 27/97/93 26/98/94
f 7/96/95 8/99/96 28/100/97 27/97/98
f 8/99/99 9/101/100 29/102/101 28/100/102
f 9/101/103 10/103/104 30/104/105 29/102/106
f 10/103/107 11/105/108 31/106/109 30/104/110
f 11/105/111 12/95/112 26/98/113 31/106/114
f 36/146/115 37/144/116 14/19/117 34/109/118
f 15/20/119 42/134/120 43/131/121 35/110/122
f 24/18/123 37/119/124 36/118/125 33/108/126
f 24/21/127 25/22/128 38/121/129 37/120/130
f 25/1/131 20/2/132 39/123/133 38/122/134
f 20/5/135 21/6/136 40/125/137 39/124/138
f 21/9/139 22/10/140 41/127/141 40/126/142
f 22/13/143 23/14/144 42/129/145 41/128/146
f 43/135/147 42/130/148 23/17/149 32/107/150
f 26/43/151 27/44/152 45/148/153 44/147/154
f 27/44/155 28/45/156 46/149/157 45/148/158
f 28/45/159 29/46/160 47/150/161 46/149/162
f 29/46/163 30/47/164 48/151/165 47/150/166
f 30/47/167 31/48/168 49/152/169 48/151/170
f 31/48/171 26/43/172 44/147/173 49/152/174
f 55/153/175 50/154/176 51/155/177 52/156/178 53/157/179 54/158/180
f 58/159/181 57/160/182 54/161/183 53/162/184
f 59/163/185 58/164/186 53/165/187 52/166/188
f 60/167/189 59/168/190 52/169/191 51/170/192
f 61/171/193 60/172/194 51/173/195 50/174/196
f 56/175/197 61/176/198 50/177/199 55/178/200
f 54/179/201 57/180/202 56/181/203 55/182/204
f 61/183/205 56/184/206 57/185/207 58/186/208 59/187/209 60/188/210
f 33/112/211 32/51/212 23/84/213 5/85/214 6/86/215 24/111/216
f 36/117/217 34/113/218 35/50/219 43/132/220 32/51/221 33/112/222
