# This file uses centimeters as units for non-parametric coordinates.

v -0.153429 0.000000 0.108741
v 0.017459 0.000000 0.207404
v 0.188348 0.000000 0.108741
v 0.188348 0.000000 -0.088584
v 0.017459 0.000000 -0.187247
v -0.153429 0.000000 -0.088584
v -0.153429 0.375288 0.108741
v 0.017459 0.375288 0.207404
v 0.188348 0.375288 0.108741
v 0.188348 0.375288 -0.088584
v 0.017459 0.375288 -0.187247
v -0.153429 0.375288 -0.088584
v 0.118794 0.000000 -0.048427
v 0.017459 0.000000 -0.106933
v 0.118794 0.000000 0.068584
v 0.017459 0.000000 0.127089
v -0.083875 0.000000 0.068584
v -0.083875 0.000000 -0.048427
v -0.083875 0.375288 -0.048427
v -0.083875 0.375288 0.068584
v 0.017459 0.375288 0.127089
v 0.118794 0.375288 0.068584
v 0.118794 0.375288 -0.048427
v 0.017459 0.375288 -0.106933
v 0.102210 0.000000 -0.038853
v 0.017460 0.000000 -0.087784
v 0.102210 0.000000 0.059009
v 0.017459 0.000000 0.107940
v -0.067291 0.000000 0.059009
v -0.067291 0.000000 -0.038853
v -0.067291 0.375288 -0.038853
v -0.067291 0.375288 0.059009
v 0.017459 0.375288 0.107940
v 0.102210 0.375288 0.059009
v 0.102210 0.375288 -0.038853
v 0.017460 0.375288 -0.087784
v -0.153429 0.375288 0.089008
v -0.153429 0.000000 0.089008
v -0.223352 0.375288 -0.028645
v -0.223352 0.000000 -0.028645
v -0.238317 0.000000 -0.022196
v -0.238317 0.375288 -0.022196
v 0.188348 0.126697 -0.088584
v 0.188348 0.185333 0.108741
v 0.017459 0.110438 0.207404
v 0.188348 0.126781 0.036820
v 0.084493 0.164327 0.168702
v -0.108022 0.062163 0.134957
vt 0.263499 0.062978
vt 0.263499 0.062978
vt 0.297599 0.062978
vt 0.297599 0.062978
vt 0.263499 0.062978
vt 0.297599 0.062978
vt 0.263499 0.062978
vt 0.297599 0.062978
vt 0.297599 0.062978
vt 0.297599 0.062978
vt 0.297599 0.062978
vt 0.297599 0.062978
vt 0.264814 0.397683
vt 0.264814 0.397683
vt 0.264814 0.397683
vt 0.264814 0.397683
vt 0.264814 0.397683
vt 0.264814 0.397683
vt 0.264814 0.397683
vt 0.264814 0.397683
vt 0.264814 0.397683
vt 0.264814 0.397683
vt 0.264814 0.397683
vt 0.264814 0.397683
vt 0.169593 0.400967
vt 0.169593 0.400967
vt 0.169593 0.400967
vt 0.169593 0.400967
vt 0.169593 0.400967
vt 0.169593 0.400967
vt 0.169593 0.400967
vt 0.169593 0.400967
vt 0.169593 0.400967
vt 0.169593 0.400967
vt 0.169593 0.400967
vt 0.169593 0.400967
vt 0.361627 0.062978
vt 0.361627 0.062978
vt 0.361627 0.062978
vt 0.361627 0.062978
vt 0.361627 0.062978
vt 0.361627 0.062978
vt 0.361627 0.062978
vt 0.361627 0.062978
vt 0.327527 0.062978
vt 0.327527 0.062978
vt 0.361627 0.062978
vt 0.361627 0.062978
vt 0.327527 0.062978
vt 0.327527 0.062978
vt 0.361627 0.062978
vt 0.361627 0.062978
vt 0.327527 0.062978
vt 0.327527 0.062978
vt 0.361627 0.062978
vt 0.361627 0.062978
vt 0.387895 0.062978
vt 0.327527 0.062978
vt 0.361627 0.062978
vt 0.291032 0.062978
vt 0.264814 0.397683
vt 0.264814 0.397683
vt 0.264814 0.397683
vt 0.264814 0.397683
vt 0.264814 0.397683
vt 0.264814 0.397683
vt 0.297599 0.062978
vt 0.264814 0.397683
vt 0.264814 0.397683
vt 0.264814 0.397683
vt 0.297599 0.062978
vt 0.264814 0.397683
vt 0.264814 0.397683
vt 0.264814 0.397683
vt 0.297599 0.062978
vt 0.264814 0.397683
vt 0.264814 0.397683
vt 0.264814 0.397683
vt 0.297599 0.062978
vt 0.264814 0.397683
vt 0.297599 0.062978
vt 0.264814 0.397683
vt 0.297599 0.062978
vt 0.264814 0.397683
vt 0.264814 0.397683
vt 0.264814 0.397683
vt 0.264814 0.397683
vt 0.264814 0.397683
vt 0.264814 0.397683
vt 0.264814 0.397683
vt 0.297599 0.062978
vt 0.264814 0.397683
vt 0.264814 0.397683
vt 0.264814 0.397683
vt 0.297599 0.062978
vt 0.264814 0.397683
vt 0.264814 0.397683
vt 0.264814 0.397683
vt 0.263499 0.062978
vt 0.264814 0.397683
vt 0.264814 0.397683
vt 0.264814 0.397683
vt 0.263499 0.062978
vt 0.264814 0.397683
vt 0.263499 0.062978
vt 0.264814 0.397683
vt 0.263499 0.062978
vt 0.264814 0.397683
vt 0.169593 0.400967
vt 0.169593 0.400967
vt 0.169593 0.400967
vt 0.169593 0.400967
vt 0.169593 0.400967
vt 0.169593 0.400967
vt 0.169593 0.400967
vt 0.169593 0.400967
vt 0.169593 0.400967
vt 0.169593 0.400967
vt 0.169593 0.400967
vt 0.169593 0.400967
vt 0.297599 0.062978
vt 0.272973 0.062978
vt 0.291032 0.062978
vt 0.297599 0.062978
vt 0.361627 0.062978
vt 0.291032 0.062978
vt 0.387895 0.062978
vt 0.291032 0.062978
vt 0.291032 0.062978
vt 0.387895 0.062978
vt 0.387895 0.062978
vt 0.272973 0.062978
vt 0.291032 0.062978
vt 0.291032 0.062978
vt 0.361627 0.062978
vt 0.291032 0.062978
vt 0.272973 0.062978
vt 0.361627 0.062978
vt 0.272973 0.062978
vt 0.361627 0.062978
vt 0.361627 0.062978
vt 0.361627 0.062978
vt 0.361627 0.062978
vt 0.361627 0.062978
vt 0.361627 0.062978
vt 0.361627 0.062978
vt 0.361627 0.062978
vt 0.361627 0.062978
vt 0.361627 0.062978
vt 0.361627 0.062978
vt 0.361627 0.062978
vt 0.327527 0.062978
vt 0.297599 0.062978
vt 0.361627 0.062978
vt 0.327527 0.062978
vt 0.327527 0.062978
vt 0.327527 0.062978
vt 0.327527 0.062978
vt 0.327527 0.062978
vt 0.327527 0.062978
vt 0.327527 0.062978
vt 0.327527 0.062978
vt 0.263499 0.062978
vt 0.327527 0.062978
vt 0.263499 0.062978
vt 0.263499 0.062978
vt 0.263499 0.062978
vt 0.263499 0.062978
vt 0.263499 0.062978
vt 0.263499 0.062978
vt 0.297599 0.062978
vt 0.263499 0.062978
vn -0.500000 0.000000 0.866025
vn -0.500000 0.000000 0.866025
vn -0.500000 0.000000 0.866025
vn -0.500000 -0.000000 0.866025
vn 0.500001 0.000000 0.866025
vn 0.500001 0.000000 0.866025
vn 0.500001 0.000000 0.866025
vn 0.500001 -0.000000 0.866025
vn 0.500001 -0.000000 0.866025
vn 1.000000 0.000000 0.000001
vn 1.000000 0.000000 0.000001
vn 1.000000 0.000000 0.000001
vn 1.000000 0.000000 0.000001
vn 1.000000 0.000000 0.000001
vn 0.500000 0.000000 -0.866026
vn 0.500000 0.000000 -0.866026
vn 0.500000 0.000000 -0.866025
vn -0.500000 0.000000 -0.866026
vn -0.500000 0.000000 -0.866026
vn -0.500000 0.000000 -0.866026
vn -0.500000 0.000000 -0.866026
vn -0.395721 0.000000 -0.918371
vn -0.395721 0.000000 -0.918371
vn -0.395721 0.000000 -0.918371
vn -0.395721 0.000000 -0.918371
vn 0.000000 -1.000000 0.000000
vn 0.000000 -1.000000 0.000000
vn 0.000000 -1.000000 0.000000
vn 0.000000 -1.000000 0.000000
vn 0.000000 -1.000000 0.000000
vn 0.000000 -1.000000 0.000000
vn 0.000000 -1.000000 0.000000
vn 0.000000 -1.000000 0.000000
vn 0.000000 -1.000000 0.000000
vn 0.000000 -1.000000 0.000000
vn 0.000000 -1.000000 0.000000
vn 0.000000 -1.000000 0.000000
vn 0.000000 -1.000000 0.000000
vn 0.000000 -1.000000 0.000000
vn 0.000000 -1.000000 0.000000
vn 0.000000 -1.000000 0.000000
vn 0.000000 -1.000000 0.000000
vn 0.000000 -1.000000 0.000000
vn 0.000000 -1.000000 0.000000
vn 0.000000 -1.000000 0.000000
vn 0.000000 -1.000000 0.000000
vn 0.000000 -1.000000 0.000000
vn 0.000000 -1.000000 0.000000
vn 0.000000 -1.000000 0.000000
vn 0.000000 -1.000000 0.000000
vn 0.000000 1.000000 0.000000
vn 0.000000 1.000000 0.000000
vn 0.000000 1.000000 0.000000
vn 0.000000 1.000000 0.000000
vn 0.000000 1.000000 0.000000
vn 0.000000 1.000000 0.000000
vn 0.000000 1.000000 0.000000
vn 0.000000 1.000000 0.000000
vn 0.000000 1.000000 0.000000
vn 0.000000 1.000000 0.000000
vn 0.000000 1.000000 0.000000
vn 0.000000 1.000000 0.000000
vn 0.000000 1.000000 0.000000
vn 0.000000 1.000000 0.000000
vn 0.000000 1.000000 0.000000
vn 0.000000 1.000000 0.000000
vn 0.000000 1.000000 0.000000
vn 0.000000 1.000000 0.000000
vn 0.000000 1.000000 0.000000
vn 0.000000 1.000000 0.000000
vn 0.000000 1.000000 0.000000
vn 0.000000 1.000000 0.000000
vn 0.000000 1.000000 0.000000
vn 0.000000 1.000000 0.000000
vn 0.000000 1.000000 0.000000
vn 0.000000 -1.000000 0.000000
vn 0.000000 -1.000000 0.000000
vn 0.000000 -1.000000 0.000000
vn 0.000000 -1.000000 0.000000
vn 0.000000 -1.000000 0.000000
vn 0.000000 -1.000000 0.000000
vn 0.000000 -1.000000 0.000000
vn 0.000000 -1.000000 0.000000
vn 0.000000 -1.000000 0.000000
vn 0.000000 -1.000000 0.000000
vn 0.000000 -1.000000 0.000000
vn 0.000000 -1.000000 0.000000
vn 0.000000 -1.000000 0.000000
vn 0.000000 -1.000000 0.000000
vn 0.000000 -1.000000 0.000000
vn 0.000000 -1.000000 0.000000
vn 0.000000 -1.000000 0.000000
vn 0.000000 -1.000000 0.000000
vn 0.000000 -1.000000 0.000000
vn 0.000000 -1.000000 0.000000
vn 0.000000 -1.000000 0.000000
vn 0.000000 -1.000000 0.000000
vn 0.000000 -1.000000 0.000000
vn 0.000000 -1.000000 0.000000
vn 0.000000 1.000000 0.000000
vn 0.000000 1.000000 0.000000
vn 0.000000 1.000000 0.000001
vn 0.000000 1.000000 0.000000
vn 0.000000 1.000000 0.000000
vn 0.000000 1.000000 0.000000
vn 0.000000 1.000000 0.000001
vn 0.000000 1.000000 0.000001
vn 0.000000 1.000000 0.000000
vn 0.000000 1.000000 0.000000
vn 0.000000 1.000000 0.000001
vn 0.000000 1.000000 0.000001
vn 0.000000 1.000000 0.000000
vn 0.000000 1.000000 0.000000
vn 0.000000 1.000000 -0.000000
vn 0.000000 1.000000 0.000001
vn 0.000000 1.000000 0.000000
vn 0.000000 1.000000 0.000000
vn 0.000000 1.000000 -0.000000
vn 0.000000 1.000000 -0.000000
vn 0.000000 1.000000 0.000000
vn 0.000000 1.000000 0.000000
vn 0.000000 1.000000 0.000000
vn 0.000000 1.000000 -0.000000
vn -0.500000 0.000000 0.866025
vn -0.500000 0.000000 0.866025
vn -0.500000 0.000000 0.866025
vn -0.500000 0.000000 0.866025
vn -1.000000 0.000000 0.000001
vn -1.000000 0.000000 0.000001
vn -1.000000 0.000000 0.000001
vn -1.000000 0.000000 0.000001
vn -0.499999 0.000000 -0.866026
vn -0.499999 0.000000 -0.866026
vn -0.499999 0.000000 -0.866026
vn -0.499999 0.000000 -0.866026
vn 0.500000 0.000000 -0.866026
vn 0.500000 0.000000 -0.866026
vn 0.500000 0.000000 -0.866026
vn 0.500000 0.000000 -0.866026
vn 1.000000 0.000000 -0.000001
vn 1.000000 0.000000 -0.000001
vn 1.000000 0.000000 -0.000001
vn 1.000000 0.000000 -0.000001
vn 0.499999 0.000000 0.866026
vn 0.499999 0.000000 0.866026
vn 0.499999 0.000000 0.866026
vn 0.499999 0.000000 0.866026
vn -1.000000 0.000000 0.000000
vn -1.000000 0.000000 0.000000
vn -1.000000 0.000000 0.000000
vn -1.000000 0.000000 0.000000
vn 0.859643 0.000000 -0.510895
vn 0.859643 0.000000 -0.510895
vn 0.859643 0.000000 -0.510895
vn 0.859643 0.000000 -0.510895
vn 0.000000 -1.000000 0.000000
vn 0.000000 -1.000000 0.000000
vn 0.000000 -1.000000 0.000000
vn 0.000000 -1.000000 0.000000
vn -0.839092 0.000000 0.543989
vn -0.839092 0.000000 0.543989
vn -0.839092 0.000000 0.543989
vn -0.839092 0.000000 0.543989
vn 0.000000 1.000000 0.000000
vn 0.000000 1.000000 0.000000
vn 0.000000 1.000000 0.000000
vn 0.000000 1.000000 0.000000
vn 0.500000 0.000000 -0.866025
vn 0.500000 0.000000 -0.866026
vn 0.500000 0.000000 -0.866026
vn 0.500000 0.000000 -0.866026
vn 1.000000 0.000000 0.000001
vn 1.000000 0.000000 0.000001
vn 1.000000 0.000000 0.000001
vn 1.000000 0.000000 0.000001
vn 1.000000 0.000000 0.000001
vn 0.500001 -0.000000 0.866025
vn 0.500001 -0.000000 0.866025
vn 0.500001 0.000000 0.866025
vn 0.500001 0.000000 0.866025
vn 0.500001 0.000000 0.866025
vn -0.500000 0.000000 0.866025
vn -0.500000 -0.000000 0.866025
vn -0.500000 0.000000 0.866025
vn -0.500000 0.000000 0.866025
vn -0.500000 0.000000 0.866025
s off
f 1/58/1 2/53/2 45/156/3 48/152/4
f 2/54/5 3/49/6 44/159/7 47/157/8 45/155/9
f 3/50/10 4/45/11 43/162/12 46/160/13 44/158/14
f 4/46/15 5/164/16 43/161/17
f 5/42/18 6/37/19 12/40/20 11/43/21
f 39/125/22 40/138/23 41/141/24 42/142/25
f 5/163/26 4/172/27 13/169/28 14/105/29
f 4/7/30 3/170/31 15/167/32 13/107/33
f 3/5/34 2/168/35 16/166/36 15/103/37
f 2/2/38 1/1/39 17/165/40 16/99/41
f 1/153/42 38/124/43 6/11/44 18/91/45 17/95/46
f 6/11/47 5/9/48 14/171/49 18/91/50
f 12/12/51 37/121/52 7/4/53 20/81/54 19/83/55
f 7/4/56 8/3/57 21/79/58 20/81/59
f 8/3/60 9/6/61 22/75/62 21/79/63
f 9/6/64 10/8/65 23/71/66 22/75/67
f 10/8/68 11/10/69 24/67/70 23/71/71
f 11/10/72 12/12/73 19/83/74 24/67/75
f 14/14/76 13/108/77 25/102/78 26/85/79
f 13/13/80 15/104/81 27/98/82 25/101/83
f 15/15/84 16/100/85 28/94/86 27/97/87
f 16/16/88 17/96/89 29/90/90 28/93/91
f 17/17/92 18/92/93 30/88/94 29/89/95
f 18/18/96 14/106/97 26/86/98 30/87/99
f 19/20/100 20/82/101 32/78/102 31/63/103
f 20/19/104 21/80/105 33/74/106 32/77/107
f 21/21/108 22/76/109 34/70/110 33/73/111
f 22/22/112 23/72/113 35/66/114 34/69/115
f 23/23/116 24/68/117 36/62/118 35/65/119
f 24/24/120 19/84/121 31/64/122 36/61/123
f 26/26/124 25/112/125 35/35/126 36/109/127
f 25/25/128 27/114/129 34/34/130 35/111/131
f 27/27/132 28/116/133 33/33/134 34/113/135
f 28/28/136 29/118/137 32/31/138 33/115/139
f 29/29/140 30/120/141 31/32/142 32/117/143
f 30/30/144 26/110/145 36/36/146 31/119/147
f 6/38/148 38/135/149 37/140/150 12/39/151
f 37/122/152 38/139/153 40/132/154 39/137/155
f 38/123/156 1/134/157 41/133/158 40/126/159
f 1/57/160 7/131/161 42/130/162 41/127/163
f 7/60/164 37/136/165 39/129/166 42/128/167
f 43/144/168 5/41/169 11/44/170 10/47/171
f 44/146/172 46/149/173 43/143/174 10/48/175 9/51/176
f 45/148/177 47/150/178 44/145/179 9/52/180 8/55/181
f 1/154/182 48/151/183 45/147/184 8/56/185 7/59/186
