# This file uses centimeters as units for non-parametric coordinates.

v -0.269301 0.451383 -0.053896
v -0.269301 0.343229 0.224731
v -0.269301 0.486527 -0.040255
v -0.269301 0.378372 0.238373
v 0.269300 0.486527 -0.040255
v 0.269300 0.378372 0.238373
v 0.269300 0.451383 -0.053896
v 0.269300 0.343229 0.224731
v -0.230679 0.468356 0.006557
v -0.230679 0.396544 0.191561
v 0.230679 0.396543 0.191561
v 0.230679 0.468356 0.006558
v 0.230679 0.433212 -0.007084
v 0.230679 0.361400 0.177918
v -0.230679 0.361400 0.177918
v -0.230679 0.433212 -0.007084
v 0.173227 0.451383 -0.053896
v 0.173227 0.486527 -0.040255
v 0.173227 0.468356 0.006558
v 0.173227 0.433212 -0.007084
v -0.172810 0.451383 -0.053896
v -0.172810 0.486527 -0.040255
v -0.172810 0.468356 0.006558
v -0.172810 0.433212 -0.007084
v -0.172002 0.000000 -0.190821
v -0.172002 0.000000 0.153724
v -0.219553 0.558076 -0.238373
v -0.219553 0.558076 0.201276
v 0.220095 0.558076 -0.238373
v 0.220095 0.558076 0.201276
v 0.172543 0.000000 -0.190821
v 0.172543 0.000000 0.153724
v -0.162879 0.558076 -0.181698
v -0.162879 0.558076 0.144601
v 0.163420 0.558076 0.144601
v 0.163420 0.558076 -0.181698
v -0.127587 0.085528 -0.146405
v -0.127587 0.085528 0.109308
v 0.128128 0.085528 0.109308
v 0.128128 0.085528 -0.146405
vt 0.201943 0.063065
vt 0.172805 0.063065
vt 0.236244 0.063065
vt 0.201943 0.063065
vt 0.172805 0.063065
vt 0.236244 0.063065
vt 0.141180 0.063065
vt 0.172805 0.063065
vt 0.141180 0.063065
vt 0.141180 0.063065
vt 0.201943 0.063065
vt 0.201943 0.063065
vt 0.201943 0.063065
vt 0.201943 0.063065
vt 0.236244 0.063065
vt 0.172805 0.063065
vt 0.172805 0.063065
vt 0.236244 0.063065
vt 0.201943 0.063065
vt 0.172805 0.063065
vt 0.172805 0.063065
vt 0.201943 0.063065
vt 0.141180 0.063065
vt 0.172805 0.063065
vt 0.140435 0.062799
vt 0.169699 0.062799
vt 0.140435 0.062799
vt 0.169699 0.062799
vt 0.140435 0.062799
vt 0.169699 0.062799
vt 0.140435 0.062799
vt 0.169699 0.062799
vt 0.141180 0.063065
vt 0.140435 0.062799
vt 0.141180 0.063065
vt 0.169699 0.062799
vt 0.141180 0.063065
vt 0.140435 0.062799
vt 0.141180 0.063065
vt 0.169699 0.062799
vt 0.236244 0.063065
vt 0.140435 0.062799
vt 0.236244 0.063065
vt 0.169699 0.062799
vt 0.236244 0.063065
vt 0.140435 0.062799
vt 0.236244 0.063065
vt 0.169699 0.062799
vt 0.141180 0.063065
vt 0.141180 0.063065
vt 0.141180 0.063065
vt 0.141180 0.063065
vt 0.236244 0.063065
vt 0.236244 0.063065
vt 0.236244 0.063065
vt 0.236244 0.063065
vt 0.141180 0.063065
vt 0.141180 0.063065
vt 0.141180 0.063065
vt 0.141180 0.063065
vt 0.236244 0.063065
vt 0.236244 0.063065
vt 0.236244 0.063065
vt 0.236244 0.063065
vt 0.201943 0.063065
vt 0.141180 0.063065
vt 0.201943 0.063065
vt 0.236244 0.063065
vt 0.236244 0.063065
vt 0.169699 0.062799
vt 0.141180 0.063065
vt 0.169699 0.062799
vt 0.201943 0.063065
vt 0.141180 0.063065
vt 0.201943 0.063065
vt 0.236244 0.063065
vt 0.236244 0.063065
vt 0.169699 0.062799
vt 0.141180 0.063065
vt 0.169699 0.062799
vt 0.264955 0.475915
vt 0.264955 0.475915
vt 0.264955 0.475915
vt 0.264955 0.475915
vt 0.254697 0.475915
vt 0.254697 0.475915
vt 0.254697 0.475915
vt 0.254697 0.475915
vt 0.264955 0.475915
vt 0.264955 0.475915
vt 0.264955 0.475915
vt 0.264955 0.475915
vt 0.230653 0.475915
vt 0.230653 0.475915
vt 0.230653 0.475915
vt 0.230653 0.475915
vt 0.291416 0.475915
vt 0.291416 0.475915
vt 0.291416 0.475915
vt 0.291416 0.475915
vt 0.291416 0.475915
vt 0.291416 0.475915
vt 0.291416 0.475915
vt 0.291416 0.475915
vt 0.325717 0.475915
vt 0.325717 0.475915
vt 0.325717 0.475915
vt 0.325717 0.475915
vt 0.325717 0.475915
vt 0.325717 0.475915
vt 0.325717 0.475915
vt 0.325717 0.475915
vt 0.260245 0.475915
vt 0.260245 0.475915
vt 0.260245 0.475915
vt 0.260245 0.475915
vt 0.289097 0.475915
vt 0.289097 0.475915
vt 0.289097 0.475915
vt 0.289097 0.475915
vt 0.260245 0.475915
vt 0.260245 0.475915
vt 0.260245 0.475915
vt 0.260245 0.475915
vt 0.289097 0.475915
vt 0.289097 0.475915
vt 0.289097 0.475915
vt 0.289097 0.475915
vn -1.000000 -0.000000 0.000000
vn -1.000000 -0.000000 0.000000
vn -1.000000 -0.000000 0.000000
vn -1.000000 -0.000000 0.000000
vn 1.000000 -0.000000 0.000000
vn 1.000000 -0.000000 0.000000
vn 1.000000 -0.000000 0.000000
vn 1.000000 -0.000000 0.000000
vn 0.000000 -0.361855 0.932235
vn 0.000000 -0.361855 0.932235
vn 0.000000 -0.361855 0.932235
vn 0.000000 -0.361855 0.932235
vn 0.000000 0.361855 -0.932235
vn 0.000000 0.361855 -0.932235
vn 0.000000 0.361855 -0.932235
vn 0.000000 0.361855 -0.932235
vn -0.000002 0.932231 0.361863
vn -0.000002 0.932231 0.361863
vn -0.000002 0.932231 0.361863
vn -0.000002 0.932231 0.361863
vn 0.000000 0.932230 0.361866
vn 0.000000 0.932230 0.361866
vn 0.000000 0.932230 0.361866
vn 0.000000 0.932230 0.361866
vn 0.000002 0.932231 0.361864
vn 0.000002 0.932231 0.361864
vn 0.000002 0.932231 0.361864
vn 0.000002 0.932231 0.361864
vn 0.000001 0.932232 0.361861
vn 0.000001 0.932232 0.361861
vn 0.000001 0.932232 0.361861
vn 0.000001 0.932232 0.361861
vn 0.000007 -0.932231 -0.361864
vn 0.000007 -0.932231 -0.361864
vn 0.000007 -0.932231 -0.361864
vn 0.000007 -0.932231 -0.361864
vn -0.000000 -0.932233 -0.361859
vn -0.000000 -0.932233 -0.361859
vn -0.000000 -0.932233 -0.361859
vn -0.000000 -0.932233 -0.361859
vn -0.000002 -0.932231 -0.361864
vn -0.000002 -0.932231 -0.361864
vn -0.000002 -0.932231 -0.361864
vn -0.000002 -0.932231 -0.361864
vn -0.000001 -0.932230 -0.361867
vn -0.000001 -0.932230 -0.361867
vn -0.000001 -0.932230 -0.361867
vn -0.000001 -0.932230 -0.361867
vn -1.000000 -0.000000 0.000000
vn -1.000000 -0.000000 0.000000
vn -1.000000 -0.000000 0.000000
vn -1.000000 -0.000000 0.000000
vn -0.000001 -0.361877 0.932226
vn -0.000001 -0.361877 0.932226
vn -0.000001 -0.361877 0.932226
vn -0.000001 -0.361877 0.932226
vn 0.000000 0.361877 -0.932226
vn 0.000000 0.361877 -0.932226
vn 0.000000 0.361877 -0.932226
vn 0.000000 0.361877 -0.932226
vn 1.000000 0.000000 0.000000
vn 1.000000 0.000000 0.000000
vn 1.000000 0.000000 0.000000
vn 1.000000 0.000000 0.000000
vn 0.000000 0.361855 -0.932234
vn 0.000000 0.361855 -0.932234
vn 0.000000 0.361855 -0.932234
vn 0.000000 0.361855 -0.932234
vn -0.000002 0.932232 0.361862
vn -0.000002 0.932232 0.361862
vn -0.000002 0.932232 0.361862
vn -0.000002 0.932232 0.361862
vn -0.000008 -0.361866 0.932230
vn -0.000008 -0.361866 0.932230
vn -0.000008 -0.361866 0.932230
vn -0.000008 -0.361866 0.932230
vn -0.000001 -0.932230 -0.361865
vn -0.000001 -0.932231 -0.361865
vn -0.000001 -0.932230 -0.361865
vn -0.000001 -0.932231 -0.361865
vn -0.996390 -0.084898 0.000000
vn -0.996390 -0.084898 0.000000
vn -0.996390 -0.084898 0.000000
vn -0.996390 -0.084898 0.000000
vn 0.000000 1.000000 0.000000
vn 0.000000 1.000000 0.000000
vn 0.000000 1.000000 0.000000
vn 0.000000 1.000000 0.000000
vn 0.996390 -0.084900 0.000000
vn 0.996390 -0.084900 0.000000
vn 0.996390 -0.084900 0.000000
vn 0.996390 -0.084900 0.000000
vn 0.000000 -1.000000 0.000000
vn 0.000000 -1.000000 0.000000
vn 0.000000 -1.000000 0.000000
vn 0.000000 -1.000000 0.000000
vn 0.000000 -0.084900 0.996390
vn 0.000000 -0.084900 0.996390
vn 0.000000 -0.084900 0.996390
vn 0.000000 -0.084900 0.996390
vn 0.000000 -0.084900 -0.996390
vn 0.000000 -0.084900 -0.996390
vn 0.000000 -0.084900 -0.996390
vn 0.000000 -0.084900 -0.996390
vn 0.000000 1.000000 0.000000
vn 0.000000 1.000000 0.000000
vn 0.000000 1.000000 0.000000
vn 0.000000 1.000000 0.000000
vn 0.000000 1.000000 0.000000
vn 0.000000 1.000000 0.000000
vn 0.000000 1.000000 0.000000
vn 0.000000 1.000000 0.000000
vn 0.000000 1.000000 0.000000
vn 0.000000 1.000000 0.000000
vn 0.000000 1.000000 0.000000
vn 0.000000 1.000000 0.000000
vn 0.000000 1.000000 -0.000000
vn 0.000000 1.000000 -0.000000
vn 0.000000 1.000000 -0.000000
vn 0.000000 1.000000 -0.000000
vn 0.997223 0.074476 0.000000
vn 0.997223 0.074476 0.000000
vn 0.997223 0.074476 0.000000
vn 0.997223 0.074476 0.000000
vn 0.000000 0.074478 -0.997223
vn 0.000000 0.074478 -0.997223
vn 0.000000 0.074478 -0.997223
vn 0.000000 0.074478 -0.997223
vn -0.997223 0.074476 0.000000
vn -0.997223 0.074476 0.000000
vn -0.997223 0.074476 0.000000
vn -0.997223 0.074476 0.000000
vn 0.000000 0.074478 0.997223
vn 0.000000 0.074478 0.997223
vn 0.000000 0.074478 0.997223
vn 0.000000 0.074478 0.997223
s off
f 1/20/1 2/2/2 4/21/3 3/17/4
f 5/5/5 6/16/6 8/8/7 7/24/8
f 2/19/9 8/11/10 6/12/11 4/4/12
f 7/13/13 17/65/14 18/67/15 5/14/16
f 3/3/17 4/63/18 10/55/19 9/47/20
f 4/15/21 6/62/22 11/54/23 10/45/24
f 6/6/25 5/61/26 12/53/27 11/43/28
f 5/18/29 18/68/30 19/69/31 12/41/32
f 7/7/33 8/59/34 14/51/35 13/39/36
f 8/23/37 2/58/38 15/50/39 14/37/40
f 2/10/41 1/57/42 16/49/43 15/35/44
f 20/71/45 17/66/46 7/60/47 13/52/48
f 11/27/49 12/42/50 13/29/51 14/38/52
f 12/28/53 19/70/54 20/72/55 13/40/56
f 11/44/57 14/30/58 15/36/59 10/26/60
f 10/46/61 15/31/62 16/34/63 9/25/64
f 22/75/65 21/73/66 1/1/67 3/22/68
f 23/77/69 22/76/70 3/64/71 9/56/72
f 24/80/73 23/78/74 9/48/75 16/32/76
f 1/9/77 21/74/78 24/79/79 16/33/80
f 25/81/81 26/82/82 28/83/83 27/84/84
f 37/85/85 38/86/86 39/87/87 40/88/88
f 29/89/89 30/90/90 32/91/91 31/92/92
f 31/93/93 32/94/94 26/95/95 25/96/96
f 26/97/97 32/98/98 30/99/99 28/100/100
f 31/101/101 25/102/102 27/103/103 29/104/104
f 27/105/105 28/106/106 34/107/107 33/108/108
f 28/106/109 30/109/110 35/110/111 34/107/112
f 30/109/113 29/111/114 36/112/115 35/110/116
f 29/111/117 27/105/118 33/108/119 36/112/120
f 33/113/121 34/114/122 38/115/123 37/116/124
f 34/117/125 35/118/126 39/119/127 38/120/128
f 35/121/129 36/122/130 40/123/131 39/124/132
f 36/125/133 33/126/134 37/127/135 40/128/136
