# This file uses centimeters as units for non-parametric coordinates.

v -0.412325 -0.000000 0.412326
v 0.412325 -0.000000 0.412326
v -0.090790 1.470218 0.090791
v 0.090790 1.470218 0.090791
v -0.090790 1.470218 -0.090787
v 0.090790 1.470218 -0.090787
v -0.412325 -0.000000 -0.412322
v 0.412325 -0.000000 -0.412322
v -0.412325 0.221680 0.412326
v -0.412325 0.221680 -0.412322
v 0.412325 0.221680 -0.412322
v 0.412325 0.221680 0.412326
v -0.269558 0.221680 0.269559
v -0.269558 0.221680 -0.269555
v 0.269558 0.221680 -0.269555
v 0.269558 0.221680 0.269559
v -0.210047 0.637305 0.210048
v -0.210047 0.637305 -0.210044
v 0.210049 0.637305 -0.210044
v 0.210049 0.637305 0.210048
v -0.183937 0.819665 0.183936
v -0.183935 0.819665 -0.183936
v 0.183941 0.819665 -0.183936
v 0.183937 0.819665 0.183936
v -0.260380 -0.000000 -0.260380
v 0.260380 -0.000000 -0.260380
v 0.260380 -0.000000 0.260380
v -0.260380 -0.000000 0.260380
vt 0.263466 0.376837
vt 0.297274 0.376837
vt 0.331082 0.376837
vt 0.263466 0.376837
vt 0.297274 0.376837
vt 0.331082 0.376837
vt 0.235487 0.376837
vt 0.297274 0.376837
vt 0.235487 0.376837
vt 0.235487 0.376837
vt 0.263466 0.376837
vt 0.263466 0.376837
vt 0.263466 0.376837
vt 0.263466 0.376837
vt 0.331082 0.376837
vt 0.297274 0.376837
vt 0.297274 0.376837
vt 0.331082 0.376837
vt 0.235487 0.376837
vt 0.297274 0.376837
vt 0.263466 0.376837
vt 0.297274 0.376837
vt 0.297274 0.376837
vt 0.263466 0.376837
vt 0.263466 0.376837
vt 0.297274 0.376837
vt 0.327364 0.374860
vt 0.297274 0.376837
vt 0.327364 0.374860
vt 0.263466 0.376837
vt 0.327364 0.374860
vt 0.327364 0.374860
vt 0.327364 0.374860
vt 0.327364 0.374860
vt 0.263466 0.376837
vt 0.297274 0.376837
vt 0.297274 0.376837
vt 0.263466 0.376837
vt 0.297274 0.376837
vt 0.263466 0.376837
vt 0.327364 0.374860
vt 0.327364 0.374860
vt 0.263466 0.376837
vt 0.297274 0.376837
vt 0.327364 0.374860
vt 0.327364 0.374860
vt 0.327364 0.374860
vt 0.327364 0.374860
vt 0.297274 0.376837
vt 0.327364 0.374860
vt 0.263466 0.376837
vt 0.327364 0.374860
vt 0.263466 0.376837
vt 0.297274 0.376837
vt 0.327364 0.374860
vt 0.327364 0.374860
vt 0.263466 0.376837
vt 0.297274 0.376837
vt 0.355639 0.478546
vt 0.297274 0.376837
vt 0.389447 0.478546
vt 0.263466 0.376837
vt 0.389447 0.478546
vt 0.355639 0.478546
vt 0.355639 0.478546
vt 0.389447 0.478546
vt 0.263466 0.376837
vt 0.297274 0.376837
vt 0.297274 0.376837
vt 0.263466 0.376837
vt 0.297274 0.376837
vt 0.263466 0.376837
vt 0.355639 0.478546
vt 0.389447 0.478546
vt 0.263466 0.376837
vt 0.297274 0.376837
vt 0.389447 0.478546
vt 0.355639 0.478546
vt 0.355639 0.478546
vt 0.389447 0.478546
vt 0.297274 0.376837
vt 0.355639 0.478546
vt 0.263466 0.376837
vt 0.389447 0.478546
vt 0.263466 0.376837
vt 0.297274 0.376837
vt 0.355639 0.478546
vt 0.389447 0.478546
vt 0.235487 0.376837
vt 0.235487 0.376837
vt 0.235487 0.376837
vt 0.235487 0.376837
vt 0.111234 0.376450
vt 0.111234 0.376450
vt 0.111234 0.376450
vt 0.111234 0.376450
vn 0.000000 -0.000000 1.000000
vn 0.000000 -0.000000 1.000000
vn 0.000000 0.257300 0.966332
vn 0.000000 0.257300 0.966332
vn 0.000000 1.000000 0.000000
vn 0.000000 1.000000 0.000000
vn 0.000000 1.000000 0.000000
vn 0.000000 1.000000 0.000000
vn 0.000000 0.257300 -0.966332
vn 0.000000 0.257300 -0.966332
vn 0.000000 -0.000000 -1.000000
vn 0.000000 -0.000000 -1.000000
vn 0.000000 -1.000000 0.000000
vn 0.000000 -1.000000 0.000000
vn 0.000000 -1.000000 0.000000
vn 0.000000 -1.000000 0.000000
vn 1.000000 -0.000000 0.000000
vn 1.000000 -0.000000 0.000000
vn 0.966332 0.257298 0.000000
vn 0.966332 0.257298 0.000000
vn -1.000000 -0.000000 0.000000
vn -1.000000 -0.000000 0.000000
vn -0.966332 0.257298 0.000000
vn -0.966332 0.257298 0.000000
vn -0.966332 0.257298 0.000000
vn -0.966332 0.257298 0.000000
vn -0.725770 0.687938 0.000000
vn -0.725770 0.687938 0.000000
vn 0.000000 0.687937 -0.725770
vn 0.000000 0.687936 -0.725771
vn 0.000000 0.257300 -0.966332
vn 0.000000 0.257300 -0.966332
vn 0.966332 0.257298 0.000000
vn 0.966332 0.257298 0.000000
vn 0.725771 0.687936 0.000000
vn 0.725771 0.687936 0.000000
vn 0.000000 0.257300 0.966332
vn 0.000000 0.257300 0.966332
vn 0.000000 0.687936 0.725771
vn 0.000000 0.687937 0.725770
vn -0.725770 0.687938 0.000000
vn -0.725770 0.687938 0.000000
vn -0.989904 0.141739 -0.000001
vn -0.989904 0.141739 -0.000001
vn 0.000000 0.141735 -0.989905
vn 0.000000 0.141735 -0.989905
vn 0.000000 0.687936 -0.725771
vn 0.000000 0.687937 -0.725770
vn 0.725771 0.687936 0.000000
vn 0.725771 0.687936 0.000000
vn 0.989905 0.141734 0.000001
vn 0.989905 0.141734 0.000001
vn 0.000000 0.687937 0.725770
vn 0.000000 0.687936 0.725771
vn 0.000000 0.141739 0.989904
vn 0.000000 0.141739 0.989904
vn -0.989904 0.141739 -0.000001
vn -0.989904 0.141739 -0.000001
vn -0.989905 0.141735 -0.000003
vn -0.989905 0.141735 -0.000003
vn 0.000000 0.141735 -0.989905
vn 0.000000 0.141734 -0.989905
vn 0.000000 0.141735 -0.989905
vn 0.000000 0.141735 -0.989905
vn 0.989905 0.141734 0.000001
vn 0.989905 0.141734 0.000001
vn 0.989904 0.141737 0.000006
vn 0.989904 0.141737 0.000006
vn 0.000000 0.141739 0.989904
vn 0.000000 0.141739 0.989904
vn 0.000000 0.141737 0.989904
vn 0.000000 0.141737 0.989904
vn -0.989905 0.141735 -0.000003
vn -0.989905 0.141735 -0.000003
vn -0.989905 0.141735 -0.000004
vn -0.989905 0.141735 -0.000004
vn 0.000000 0.141739 -0.989904
vn 0.000000 0.141739 -0.989904
vn 0.000000 0.141734 -0.989905
vn 0.000000 0.141735 -0.989905
vn 0.989904 0.141737 0.000006
vn 0.989904 0.141737 0.000006
vn 0.989904 0.141739 0.000007
vn 0.989904 0.141739 0.000007
vn 0.000000 0.141737 0.989904
vn 0.000000 0.141737 0.989904
vn 0.000000 0.141733 0.989905
vn 0.000000 0.141733 0.989905
vn 0.000000 -1.000000 0.000000
vn 0.000000 -1.000000 0.000000
vn 0.000000 -1.000000 0.000000
vn 0.000000 -1.000000 0.000000
vn 0.000000 -1.000000 0.000000
vn 0.000000 -1.000000 0.000000
vn 0.000000 -1.000000 0.000000
vn 0.000000 -1.000000 0.000000
vn 0.000000 -1.000000 0.000000
vn 0.000000 -1.000000 0.000000
vn 0.000000 -1.000000 0.000000
vn 0.000000 -1.000000 0.000000
vn 0.000000 -1.000000 0.000000
vn 0.000000 -1.000000 0.000000
vn 0.000000 -1.000000 0.000000
vn 0.000000 -1.000000 0.000000
s off
f 1/23/1 2/2/2 12/54/3 9/26/4
f 3/3/5 4/15/6 6/6/7 5/18/8
f 10/28/9 11/49/10 8/8/11 7/20/12
f 25/93/13 26/94/14 27/95/15 28/96/16
f 2/21/17 8/11/18 11/30/19 12/53/20
f 7/13/21 1/1/22 9/25/23 10/51/24
f 10/27/25 9/55/26 13/33/27 14/47/28
f 14/48/29 15/45/30 11/29/31 10/52/32
f 12/32/33 11/50/34 15/46/35 16/41/36
f 9/56/37 12/31/38 16/42/39 13/34/40
f 14/35/41 13/43/42 17/57/43 18/83/44
f 18/60/45 19/81/46 15/37/47 14/36/48
f 16/40/49 15/38/50 19/62/51 20/85/52
f 13/44/53 16/39/54 20/86/55 17/58/56
f 18/59/57 17/87/58 21/65/59 22/79/60
f 22/80/61 23/77/62 19/61/63 18/84/64
f 20/64/65 19/82/66 23/78/67 24/73/68
f 17/88/69 20/63/70 24/74/71 21/66/72
f 22/67/73 21/75/74 3/24/75 5/14/76
f 5/5/77 6/16/78 23/69/79 22/68/80
f 24/72/81 23/70/82 6/12/83 4/4/84
f 21/76/85 24/71/86 4/22/87 3/17/88
f 7/7/89 8/19/90 26/90/91 25/89/92
f 8/19/93 2/10/94 27/91/95 26/90/96
f 2/10/97 1/9/98 28/92/99 27/91/100
f 1/9/101 7/7/102 25/89/103 28/92/104
