# This file uses centimeters as units for non-parametric coordinates.

v -5.000002 0.704200 5.000000
v -5.000002 0.704200 0.000000
v 4.999998 0.704200 5.000000
v 4.999998 0.704200 0.000000
v -5.000002 0.704200 2.500000
v 4.999998 0.704200 2.500000
v -5.000002 0.704200 3.750000
v 4.999998 0.704200 3.750000
v -5.000002 0.704200 1.250000
v 4.999998 0.704200 1.250000
v -5.000002 0.704200 0.625000
v 4.999998 0.704200 0.625000
v -5.000002 0.704200 1.875000
v 4.999998 0.704200 1.875000
v -5.000002 0.704200 3.125000
v 4.999998 0.704200 3.125000
v -5.000002 0.704200 4.375000
v 4.999998 0.704200 4.375000
v -5.000002 0.704200 0.687500
v 4.999998 0.704200 0.687500
v -5.000002 0.704200 1.312500
v 4.999998 0.704200 1.312500
v -5.000002 0.704200 1.937500
v 4.999998 0.704200 1.937500
v -5.000002 0.704200 2.562500
v 4.999998 0.704200 2.562500
v -5.000002 0.704200 3.187500
v 4.999998 0.704200 3.187500
v -5.000002 0.704200 3.812500
v 4.999998 0.704200 3.812500
v -5.000002 0.704200 4.437500
v 4.999998 0.704200 4.437500
v 4.999998 0.704200 0.062500
v -5.000002 0.704200 0.062500
v 4.999998 0.545798 5.000000
v -5.000002 0.545798 5.000000
v -5.000002 0.545798 4.437500
v -5.000002 0.545798 0.000000
v 4.999998 0.545798 0.000000
v 4.999998 0.545798 0.062500
v -5.000002 0.545798 2.500000
v -5.000002 0.545798 1.937500
v 4.999998 0.545798 2.500000
v 4.999998 0.545798 2.562500
v -5.000002 0.545798 3.750000
v -5.000002 0.545798 3.187500
v 4.999998 0.545798 3.750000
v 4.999998 0.545798 3.812500
v -5.000002 0.545798 1.250000
v -5.000002 0.545798 0.687500
v 4.999998 0.545798 1.250000
v 4.999998 0.545798 1.312500
v -5.000002 0.545798 0.625000
v -5.000002 0.545798 0.062500
v 4.999998 0.545798 0.625000
v 4.999998 0.545798 0.687500
v -5.000002 0.545798 1.875000
v -5.000002 0.545798 1.312500
v 4.999998 0.545798 1.875000
v 4.999998 0.545798 1.937500
v -5.000002 0.545798 3.125000
v -5.000002 0.545798 2.562500
v 4.999998 0.545798 3.125000
v 4.999998 0.545798 3.187500
v -5.000002 0.545798 4.375000
v -5.000002 0.545798 3.812500
v 4.999998 0.545798 4.375000
v 4.999998 0.545798 4.437500
v -4.888041 0.000000 4.886680
v 4.888036 0.000000 4.886680
v -4.888041 0.545798 4.886680
v 4.888036 0.545798 4.886680
v -4.888041 0.545798 0.000000
v 4.888036 0.545798 0.000000
v -4.888041 0.000000 0.000000
v 4.888036 0.000000 0.000000
v -4.999999 0.545798 5.000000
v 5.000002 0.545798 5.000000
v 5.000002 0.545798 0.000000
v -4.999999 0.545798 0.000000
vt 0.798058 0.007891
vt 0.798058 0.007891
vt 0.736298 0.007891
vt 0.736298 0.007891
vt 0.737781 0.007891
vt 0.798058 0.007891
vt 0.737781 0.007891
vt 0.798058 0.007891
vt 0.737781 0.007891
vt 0.798058 0.007891
vt 0.737781 0.007891
vt 0.798058 0.007891
vt 0.737781 0.007891
vt 0.798058 0.007891
vt 0.737781 0.007891
vt 0.798058 0.007891
vt 0.737781 0.007891
vt 0.798058 0.007891
vt 0.798058 0.007891
vt 0.737781 0.007891
vt 0.798058 0.007891
vt 0.737781 0.007891
vt 0.737781 0.007891
vt 0.798058 0.007891
vt 0.737781 0.007891
vt 0.737781 0.007891
vt 0.798058 0.007891
vt 0.737781 0.007891
vt 0.737781 0.007891
vt 0.798058 0.007891
vt 0.798058 0.007891
vt 0.798058 0.007891
vt 0.798058 0.007891
vt 0.737781 0.007891
vt 0.798058 0.007891
vt 0.737781 0.007891
vt 0.798058 0.007891
vt 0.737781 0.007891
vt 0.798058 0.007891
vt 0.737781 0.007891
vt 0.798058 0.007891
vt 0.737781 0.007891
vt 0.798058 0.007891
vt 0.737781 0.007891
vt 0.798058 0.007891
vt 0.737781 0.007891
vt 0.737781 0.007891
vt 0.798058 0.007891
vt 0.737781 0.007891
vt 0.798058 0.007891
vt 0.737781 0.007891
vt 0.798058 0.007891
vt 0.737781 0.007891
vt 0.798058 0.007891
vt 0.737781 0.007891
vt 0.798058 0.007891
vt 0.737781 0.007891
vt 0.798058 0.007891
vt 0.737781 0.007891
vt 0.798058 0.007891
vt 0.736298 0.007891
vt 0.798058 0.007891
vt 0.798058 0.007891
vt 0.736298 0.007891
vt 0.764364 0.009051
vt 0.764364 0.009051
vt 0.764364 0.009051
vt 0.764364 0.009051
vt 0.764364 0.009051
vt 0.764364 0.009051
vt 0.675384 0.009051
vt 0.675384 0.009051
vt 0.675384 0.009051
vt 0.675384 0.009051
vt 0.764364 0.009051
vt 0.675384 0.009051
vt 0.675384 0.009051
vt 0.764364 0.009051
vt 0.675384 0.009051
vt 0.764364 0.009051
vt 0.764364 0.009051
vt 0.675384 0.009051
vt 0.764364 0.009051
vt 0.675384 0.009051
vt 0.675384 0.009051
vt 0.764364 0.009051
vt 0.675384 0.009051
vt 0.764364 0.009051
vt 0.764364 0.009051
vt 0.675384 0.009051
vt 0.764364 0.009051
vt 0.675384 0.009051
vt 0.675384 0.009051
vt 0.764364 0.009051
vt 0.675384 0.009051
vt 0.764364 0.009051
vt 0.764364 0.009051
vt 0.675384 0.009051
vt 0.764364 0.009051
vt 0.675384 0.009051
vt 0.675384 0.009051
vt 0.764364 0.009051
vt 0.675384 0.009051
vt 0.764364 0.009051
vt 0.764364 0.009051
vt 0.675384 0.009051
vt 0.764364 0.009051
vt 0.675384 0.009051
vt 0.675384 0.009051
vt 0.764364 0.009051
vt 0.675384 0.009051
vt 0.764364 0.009051
vt 0.764364 0.009051
vt 0.675384 0.009051
vt 0.764364 0.009051
vt 0.675384 0.009051
vt 0.675384 0.009051
vt 0.764364 0.009051
vt 0.675384 0.009051
vt 0.764364 0.009051
vt 0.764364 0.009051
vt 0.675384 0.009051
vt 0.764364 0.009051
vt 0.675384 0.009051
vt 0.675384 0.009051
vt 0.764364 0.009051
vt 0.675384 0.009051
vt 0.764364 0.009051
vt 0.764364 0.009051
vt 0.675384 0.009051
vt 0.675384 0.009051
vt 0.675384 0.009051
vt 0.675384 0.009051
vt 0.675384 0.009051
vt 0.764364 0.009051
vt 0.675384 0.009051
vt 0.764364 0.009051
vt 0.675384 0.009051
vt 0.764364 0.009051
vt 0.675384 0.009051
vt 0.764364 0.009051
vt 0.675384 0.009051
vt 0.764364 0.009051
vt 0.675384 0.009051
vt 0.764364 0.009051
vt 0.675384 0.009051
vt 0.764364 0.009051
vt 0.675384 0.009051
vt 0.764364 0.009051
vt 0.764364 0.009051
vt 0.675384 0.009051
vt 0.675384 0.009051
vt 0.764364 0.009051
vt 0.675384 0.009051
vt 0.764364 0.009051
vt 0.764364 0.009051
vt 0.675384 0.009051
vt 0.675384 0.009051
vt 0.764364 0.009051
vt 0.675384 0.009051
vt 0.764364 0.009051
vt 0.764364 0.009051
vt 0.675384 0.009051
vt 0.675384 0.009051
vt 0.764364 0.009051
vt 0.675384 0.009051
vt 0.764364 0.009051
vt 0.764364 0.009051
vt 0.675384 0.009051
vt 0.675384 0.009051
vt 0.764364 0.009051
vt 0.675384 0.009051
vt 0.764364 0.009051
vt 0.764364 0.009051
vt 0.675384 0.009051
vt 0.675384 0.009051
vt 0.764364 0.009051
vt 0.675384 0.009051
vt 0.764364 0.009051
vt 0.764364 0.009051
vt 0.675384 0.009051
vt 0.675384 0.009051
vt 0.764364 0.009051
vt 0.675384 0.009051
vt 0.764364 0.009051
vt 0.764364 0.009051
vt 0.675384 0.009051
vt 0.675384 0.009051
vt 0.764364 0.009051
vt 0.764364 0.009051
vt 0.764364 0.009051
vt 0.675384 0.009051
vt 0.235458 0.441533
vt 0.235458 0.441533
vt 0.235458 0.441533
vt 0.235458 0.441533
vt 0.205684 0.441533
vt 0.205684 0.441533
vt 0.205684 0.441533
vt 0.205684 0.441533
vt 0.205684 0.441533
vt 0.205684 0.441533
vt 0.205684 0.441533
vt 0.205684 0.441533
vt 0.144409 0.440109
vt 0.144409 0.440109
vt 0.144409 0.440109
vt 0.144409 0.440109
vt 0.144409 0.440109
vt 0.144409 0.440109
vt 0.144409 0.440109
vt 0.144409 0.440109
vt 0.144409 0.440109
vt 0.144409 0.440109
vt 0.144409 0.440109
vt 0.144409 0.440109
vn -0.000000 1.000000 0.000000
vn 0.000000 1.000000 0.000000
vn 0.000000 1.000000 0.000000
vn -0.000000 1.000000 0.000000
vn 0.000000 1.000000 0.000000
vn 0.000000 1.000000 0.000000
vn 0.000000 1.000000 0.000000
vn 0.000000 1.000000 0.000000
vn 0.000000 1.000000 0.000000
vn 0.000000 1.000000 0.000000
vn 0.000000 1.000000 0.000000
vn 0.000000 1.000000 0.000000
vn 0.000000 1.000000 0.000000
vn 0.000000 1.000000 0.000000
vn 0.000000 1.000000 0.000000
vn 0.000000 1.000000 0.000000
vn 0.000000 1.000000 0.000000
vn -0.000000 1.000000 0.000000
vn -0.000000 1.000000 0.000000
vn 0.000000 1.000000 0.000000
vn 0.000000 1.000000 0.000000
vn 0.000000 1.000000 0.000000
vn 0.000000 1.000000 0.000000
vn 0.000000 1.000000 0.000000
vn 0.000000 1.000000 0.000000
vn 0.000000 1.000000 0.000000
vn 0.000000 1.000000 0.000000
vn 0.000000 1.000000 0.000000
vn 0.000000 1.000000 0.000000
vn 0.000000 1.000000 0.000000
vn 0.000000 1.000000 0.000000
vn 0.000000 1.000000 0.000000
vn 0.000000 1.000000 0.000000
vn 0.000000 1.000000 0.000000
vn 0.000000 1.000000 0.000000
vn 0.000000 1.000000 0.000000
vn 0.000000 1.000000 0.000000
vn 0.000000 1.000000 0.000000
vn 0.000000 1.000000 0.000000
vn 0.000000 1.000000 0.000000
vn 0.000000 1.000000 0.000000
vn 0.000000 1.000000 0.000000
vn 0.000000 1.000000 0.000000
vn 0.000000 1.000000 0.000000
vn 0.000000 1.000000 0.000000
vn 0.000000 1.000000 0.000000
vn 0.000000 1.000000 0.000000
vn 0.000000 1.000000 0.000000
vn 0.000000 1.000000 0.000000
vn 0.000000 1.000000 0.000000
vn 0.000000 1.000000 0.000000
vn 0.000000 1.000000 0.000000
vn 0.000000 1.000000 0.000000
vn 0.000000 1.000000 0.000000
vn 0.000000 1.000000 0.000000
vn 0.000000 1.000000 0.000000
vn 0.000000 1.000000 0.000000
vn 0.000000 1.000000 0.000000
vn 0.000000 1.000000 0.000000
vn 0.000000 1.000000 0.000000
vn 0.000000 1.000000 0.000000
vn 0.000000 1.000000 0.000000
vn 0.000000 1.000000 0.000000
vn 0.000000 1.000000 0.000000
vn 0.000000 0.000000 1.000000
vn 0.000000 0.000000 1.000000
vn 0.000000 0.000000 1.000000
vn 0.000000 0.000000 1.000000
vn -1.000000 0.000000 0.000000
vn -1.000000 0.000000 0.000000
vn -1.000000 0.000000 0.000000
vn -1.000000 0.000000 0.000000
vn 1.000000 0.000000 0.000000
vn 1.000000 0.000000 0.000000
vn 1.000000 0.000000 0.000000
vn 1.000000 0.000000 0.000000
vn -1.000000 0.000000 0.000000
vn -1.000000 0.000000 0.000000
vn -1.000000 0.000000 0.000000
vn -1.000000 0.000000 0.000000
vn 1.000000 0.000000 0.000000
vn 1.000000 0.000000 0.000000
vn 1.000000 0.000000 0.000000
vn 1.000000 0.000000 0.000000
vn -1.000000 0.000000 0.000000
vn -1.000000 0.000000 0.000000
vn -1.000000 0.000000 0.000000
vn -1.000000 0.000000 0.000000
vn 1.000000 0.000000 0.000000
vn 1.000000 0.000000 0.000000
vn 1.000000 0.000000 0.000000
vn 1.000000 0.000000 0.000000
vn -1.000000 0.000000 0.000000
vn -1.000000 0.000000 0.000000
vn -1.000000 0.000000 0.000000
vn -1.000000 0.000000 0.000000
vn 1.000000 0.000000 0.000000
vn 1.000000 0.000000 0.000000
vn 1.000000 0.000000 0.000000
vn 1.000000 0.000000 0.000000
vn -1.000000 0.000000 0.000000
vn -1.000000 0.000000 0.000000
vn -1.000000 0.000000 0.000000
vn -1.000000 0.000000 0.000000
vn 1.000000 0.000000 0.000000
vn 1.000000 0.000000 0.000000
vn 1.000000 0.000000 0.000000
vn 1.000000 0.000000 0.000000
vn -1.000000 0.000000 0.000000
vn -1.000000 0.000000 0.000000
vn -1.000000 0.000000 0.000000
vn -1.000000 0.000000 0.000000
vn 1.000000 0.000000 0.000000
vn 1.000000 0.000000 0.000000
vn 1.000000 0.000000 0.000000
vn 1.000000 0.000000 0.000000
vn -1.000000 0.000000 0.000000
vn -1.000000 0.000000 0.000000
vn -1.000000 0.000000 0.000000
vn -1.000000 0.000000 0.000000
vn 1.000000 0.000000 0.000000
vn 1.000000 0.000000 0.000000
vn 1.000000 0.000000 0.000000
vn 1.000000 0.000000 0.000000
vn -1.000000 0.000000 0.000000
vn -1.000000 0.000000 0.000000
vn -1.000000 0.000000 0.000000
vn -1.000000 0.000000 0.000000
vn 1.000000 0.000000 0.000000
vn 1.000000 0.000000 0.000000
vn 1.000000 0.000000 0.000000
vn 1.000000 0.000000 0.000000
vn -1.000000 0.000000 0.000000
vn -1.000000 0.000000 0.000000
vn -1.000000 0.000000 0.000000
vn -1.000000 0.000000 0.000000
vn 1.000000 0.000000 0.000000
vn 1.000000 0.000000 0.000000
vn 1.000000 0.000000 0.000000
vn 1.000000 0.000000 0.000000
vn -1.000000 0.000000 0.000000
vn -1.000000 0.000000 0.000000
vn -1.000000 0.000000 0.000000
vn -1.000000 0.000000 0.000000
vn 1.000000 0.000000 0.000000
vn 1.000000 0.000000 0.000000
vn 1.000000 0.000000 0.000000
vn 1.000000 0.000000 0.000000
vn -1.000000 0.000000 0.000000
vn -1.000000 0.000000 0.000000
vn -1.000000 0.000000 0.000000
vn -1.000000 0.000000 0.000000
vn 1.000000 0.000000 0.000000
vn 1.000000 0.000000 0.000000
vn 1.000000 0.000000 0.000000
vn 1.000000 0.000000 0.000000
vn -1.000000 0.000000 0.000000
vn -1.000000 0.000000 0.000000
vn -1.000000 0.000000 0.000000
vn -1.000000 0.000000 0.000000
vn 1.000000 0.000000 0.000000
vn 1.000000 0.000000 0.000000
vn 1.000000 0.000000 0.000000
vn 1.000000 0.000000 0.000000
vn -1.000000 0.000000 0.000000
vn -1.000000 0.000000 0.000000
vn -1.000000 0.000000 0.000000
vn -1.000000 0.000000 0.000000
vn 1.000000 0.000000 0.000000
vn 1.000000 0.000000 0.000000
vn 1.000000 0.000000 0.000000
vn 1.000000 0.000000 0.000000
vn -1.000000 0.000000 0.000000
vn -1.000000 0.000000 0.000000
vn -1.000000 0.000000 0.000000
vn -1.000000 0.000000 0.000000
vn 1.000000 0.000000 0.000000
vn 1.000000 0.000000 0.000000
vn 1.000000 0.000000 0.000000
vn 1.000000 0.000000 0.000000
vn -1.000000 0.000000 0.000000
vn -1.000000 0.000000 0.000000
vn -1.000000 0.000000 0.000000
vn -1.000000 0.000000 0.000000
vn 1.000000 0.000000 0.000000
vn 1.000000 0.000000 0.000000
vn 1.000000 0.000000 0.000000
vn 1.000000 0.000000 0.000000
vn 1.000000 0.000000 0.000000
vn 1.000000 0.000000 0.000000
vn 1.000000 0.000000 0.000000
vn 1.000000 0.000000 0.000000
vn -1.000000 0.000000 0.000000
vn -1.000000 0.000000 0.000000
vn -1.000000 0.000000 0.000000
vn -1.000000 0.000000 0.000000
vn 0.000000 0.000000 1.000000
vn 0.000000 0.000000 1.000000
vn 0.000000 0.000000 1.000000
vn 0.000000 0.000000 1.000000
vn 1.000000 0.000000 0.000000
vn 1.000000 0.000000 0.000000
vn 1.000000 0.000000 0.000000
vn 1.000000 0.000000 0.000000
vn -1.000000 0.000000 0.000000
vn -1.000000 0.000000 0.000000
vn -1.000000 0.000000 0.000000
vn -1.000000 0.000000 0.000000
vn 0.000000 -1.000000 -0.000000
vn 0.000000 -1.000000 -0.000000
vn 0.000000 -1.000000 -0.000000
vn 0.000000 -1.000000 -0.000000
vn 0.000000 -1.000000 0.000000
vn 0.000000 -1.000000 0.000000
vn 0.000000 -1.000000 0.000000
vn 0.000000 -1.000000 0.000000
vn 0.000000 -1.000000 0.000000
vn 0.000000 -1.000000 0.000000
vn 0.000000 -1.000000 0.000000
vn 0.000000 -1.000000 0.000000
s off
f 3/1/1 32/48/2 31/45/3 1/2/4
f 6/6/5 24/56/6 23/37/7 5/32/8
f 8/8/9 28/52/10 27/41/11 7/31/12
f 10/10/13 20/60/14 19/33/15 9/30/16
f 33/61/17 4/4/18 2/3/19 34/64/20
f 14/14/21 22/58/22 21/35/23 13/24/24
f 16/16/25 26/54/26 25/39/27 15/21/28
f 18/18/29 30/50/30 29/43/31 17/19/32
f 20/34/33 12/28/34 11/11/35 19/59/36
f 22/36/37 10/29/38 9/9/39 21/57/40
f 24/38/41 14/25/42 13/13/43 23/55/44
f 26/40/45 6/26/46 5/5/47 25/53/48
f 28/42/49 16/22/50 15/15/51 27/51/52
f 30/44/53 8/23/54 7/7/55 29/49/56
f 32/46/57 18/20/58 17/17/59 31/47/60
f 12/12/61 33/63/62 34/62/63 11/27/64
f 1/65/65 36/68/66 35/67/67 3/66/68
f 31/69/69 37/70/70 36/68/71 1/65/72
f 33/71/73 40/74/74 39/73/75 4/72/76
f 23/75/77 42/78/78 41/141/79 5/189/80
f 26/79/81 44/82/82 43/184/83 6/187/84
f 27/83/85 46/86/86 45/137/87 7/183/88
f 30/87/89 48/90/90 47/178/91 8/181/92
f 19/91/93 50/94/94 49/145/95 9/177/96
f 22/95/97 52/98/98 51/172/99 10/175/100
f 34/99/101 54/102/102 53/147/103 11/171/104
f 20/103/105 56/106/106 55/166/107 12/169/108
f 21/107/109 58/110/110 57/143/111 13/165/112
f 24/111/113 60/114/114 59/160/115 14/163/116
f 25/115/117 62/118/118 61/139/119 15/159/120
f 28/119/121 64/122/122 63/154/123 16/157/124
f 29/123/125 66/126/126 65/135/127 17/153/128
f 32/127/129 68/130/130 67/148/131 18/151/132
f 11/100/133 53/101/134 50/146/135 19/176/136
f 10/96/137 51/97/138 56/167/139 20/168/140
f 9/92/141 49/93/142 58/144/143 21/164/144
f 14/112/145 59/113/146 52/173/147 22/174/148
f 13/108/149 57/109/150 42/142/151 23/188/152
f 6/80/153 43/81/154 60/161/155 24/162/156
f 5/76/157 41/77/158 62/140/159 25/158/160
f 16/120/161 63/121/162 44/185/163 26/186/164
f 15/116/165 61/117/166 46/138/167 27/182/168
f 8/88/169 47/89/170 64/155/171 28/156/172
f 7/84/173 45/85/174 66/136/175 29/152/176
f 18/128/177 67/129/178 48/179/179 30/180/180
f 17/124/181 65/125/182 37/134/183 31/192/184
f 3/66/185 35/67/186 68/149/187 32/150/188
f 12/104/189 55/105/190 40/190/191 33/191/192
f 2/131/193 38/132/194 54/133/195 34/170/196
f 69/193/197 70/194/198 72/195/199 71/196/200
f 70/197/201 76/198/202 74/199/203 72/200/204
f 75/201/205 69/202/206 71/203/207 73/204/208
f 71/205/209 72/206/210 78/207/211 77/208/212
f 72/209/213 74/210/214 79/211/215 78/212/216
f 73/213/217 71/214/218 77/215/219 80/216/220
