# This file uses centimeters as units for non-parametric coordinates.

v -0.365152 0.020506 -0.242375
v -0.365152 0.020506 0.242375
v -0.365152 0.290821 -0.242375
v -0.365152 0.290821 0.242375
v 0.365152 0.290821 -0.242375
v 0.365152 0.290821 0.242375
v 0.365152 0.020506 -0.242375
v 0.365152 0.020506 0.242375
v -0.365152 0.150010 -0.242375
v -0.365152 0.150010 0.242375
v 0.365152 0.150010 0.242375
v 0.365152 0.150010 -0.242375
v 0.365152 0.175447 0.242375
v -0.365153 0.175447 0.242375
v -0.365153 0.175447 -0.242375
v 0.365152 0.175447 -0.242375
v -0.365152 0.020506 0.099540
v -0.365152 0.290821 0.099540
v 0.365152 0.290821 0.099540
v 0.365152 0.020506 0.099540
v 0.365152 0.290821 -0.099540
v -0.365152 0.290821 -0.099540
v -0.365152 0.020506 -0.099540
v 0.365152 0.020506 -0.099540
v -0.365152 0.020506 -0.074251
v -0.365152 0.290821 -0.074251
v 0.365153 0.290821 -0.074251
v 0.365153 0.020506 -0.074251
v 0.365152 0.290821 0.075445
v -0.365152 0.290821 0.075445
v -0.365152 0.020506 0.075445
v 0.365152 0.020506 0.075445
v 0.217531 0.000000 -0.263917
v 0.217531 0.000000 0.263917
v 0.217531 0.313648 -0.263917
v 0.217531 0.313648 0.263917
v 0.299439 0.313648 -0.263917
v 0.299439 0.313648 0.263917
v 0.299439 0.000000 -0.263917
v 0.299439 0.000000 0.263917
v -0.299439 0.000000 -0.263917
v -0.299439 0.000000 0.263917
v -0.299439 0.313648 -0.263917
v -0.299439 0.313648 0.263917
v -0.217532 0.313648 -0.263917
v -0.217532 0.313648 0.263917
v -0.217532 0.000000 -0.263917
v -0.217532 0.000000 0.263917
vt 0.294772 0.400041
vt 0.268311 0.400041
vt 0.329074 0.400041
vt 0.294772 0.400041
vt 0.268311 0.400041
vt 0.329074 0.400041
vt 0.234010 0.400041
vt 0.268311 0.400041
vt 0.234010 0.400041
vt 0.234010 0.400041
vt 0.294772 0.400041
vt 0.294772 0.400041
vt 0.294772 0.400041
vt 0.294772 0.400041
vt 0.329074 0.400041
vt 0.268311 0.400041
vt 0.268311 0.400041
vt 0.329074 0.400041
vt 0.294772 0.400041
vt 0.268311 0.400041
vt 0.268311 0.400041
vt 0.294772 0.400041
vt 0.234010 0.400041
vt 0.268311 0.400041
vt 0.232694 0.400041
vt 0.206233 0.400041
vt 0.206233 0.400041
vt 0.232694 0.400041
vt 0.206233 0.400041
vt 0.294772 0.400041
vt 0.232694 0.400041
vt 0.206233 0.400041
vt 0.206233 0.400041
vt 0.232694 0.400041
vt 0.268311 0.400041
vt 0.294772 0.400041
vt 0.232694 0.400041
vt 0.206233 0.400041
vt 0.294772 0.400041
vt 0.268311 0.400041
vt 0.234010 0.400041
vt 0.266995 0.400041
vt 0.329074 0.400041
vt 0.171931 0.400041
vt 0.329074 0.400041
vt 0.329074 0.400041
vt 0.268311 0.400041
vt 0.234010 0.400041
vt 0.234010 0.400041
vt 0.268311 0.400041
vt 0.171931 0.400041
vt 0.329074 0.400041
vt 0.268311 0.400041
vt 0.329074 0.400041
vt 0.234010 0.400041
vt 0.329074 0.400041
vt 0.329074 0.400041
vt 0.268311 0.400041
vt 0.234010 0.400041
vt 0.234010 0.400041
vt 0.268311 0.400041
vt 0.171931 0.400041
vt 0.269173 0.399709
vt 0.171931 0.400041
vt 0.266995 0.400041
vt 0.269173 0.399709
vt 0.266995 0.400041
vt 0.234010 0.400041
vt 0.269173 0.399709
vt 0.268311 0.400041
vt 0.171931 0.400041
vt 0.329074 0.400041
vt 0.269173 0.399709
vt 0.268311 0.400041
vt 0.266995 0.400041
vt 0.269173 0.399709
vt 0.171931 0.400041
vt 0.269173 0.399709
vt 0.234010 0.400041
vt 0.266995 0.400041
vt 0.269173 0.399709
vt 0.266995 0.400041
vt 0.171931 0.400041
vt 0.269173 0.399709
vt 0.171931 0.400041
vt 0.266995 0.400041
vt 0.269173 0.399709
vt 0.266995 0.400041
vt 0.294772 0.400041
vt 0.268311 0.400041
vt 0.294772 0.400041
vt 0.268311 0.400041
vt 0.294772 0.400041
vt 0.268311 0.400041
vt 0.294772 0.400041
vt 0.268311 0.400041
vt 0.232694 0.400041
vt 0.206233 0.400041
vt 0.232694 0.400041
vt 0.206233 0.400041
vt 0.268311 0.400041
vt 0.232694 0.400041
vt 0.268311 0.400041
vt 0.294772 0.400041
vt 0.301937 0.400041
vt 0.301937 0.400041
vt 0.301937 0.400041
vt 0.301937 0.400041
vt 0.362700 0.400041
vt 0.362700 0.400041
vt 0.362700 0.400041
vt 0.362700 0.400041
vt 0.301937 0.400041
vt 0.301937 0.400041
vt 0.301937 0.400041
vt 0.301937 0.400041
vt 0.267636 0.400041
vt 0.267636 0.400041
vt 0.267636 0.400041
vt 0.267636 0.400041
vt 0.328398 0.400041
vt 0.328398 0.400041
vt 0.328398 0.400041
vt 0.328398 0.400041
vt 0.328398 0.400041
vt 0.328398 0.400041
vt 0.328398 0.400041
vt 0.328398 0.400041
vt 0.301937 0.400041
vt 0.301937 0.400041
vt 0.301937 0.400041
vt 0.301937 0.400041
vt 0.362700 0.400041
vt 0.362700 0.400041
vt 0.362700 0.400041
vt 0.362700 0.400041
vt 0.301937 0.400041
vt 0.301937 0.400041
vt 0.301937 0.400041
vt 0.301937 0.400041
vt 0.267636 0.400041
vt 0.267636 0.400041
vt 0.267636 0.400041
vt 0.267636 0.400041
vt 0.328398 0.400041
vt 0.328398 0.400041
vt 0.328398 0.400041
vt 0.328398 0.400041
vt 0.328398 0.400041
vt 0.328398 0.400041
vt 0.328398 0.400041
vt 0.328398 0.400041
vn 0.000000 1.000000 -0.000000
vn 0.000000 1.000000 -0.000000
vn 0.000000 1.000000 0.000000
vn 0.000000 1.000000 0.000000
vn 0.000000 -1.000000 -0.000000
vn 0.000000 -1.000000 -0.000000
vn 0.000000 -1.000000 0.000000
vn 0.000000 -1.000000 0.000000
vn 0.000000 0.000000 1.000000
vn 0.000000 0.000000 1.000000
vn 0.000000 0.000000 1.000000
vn 0.000000 0.000000 1.000000
vn 0.000000 0.000000 -1.000000
vn 0.000000 0.000000 -1.000000
vn 0.000000 0.000000 -1.000000
vn 0.000000 0.000000 -1.000000
vn 0.000000 0.000000 1.000000
vn 0.000000 0.000000 1.000000
vn 0.000000 0.000000 1.000000
vn 0.000000 0.000000 1.000000
vn 1.000000 0.000001 0.000000
vn 1.000000 0.000001 0.000000
vn 1.000000 0.000001 0.000000
vn 1.000000 0.000001 0.000000
vn 1.000000 0.000001 0.000000
vn 1.000000 0.000001 0.000000
vn 1.000000 0.000001 0.000000
vn 1.000000 0.000001 0.000000
vn 0.000000 0.000000 -1.000000
vn 0.000000 0.000000 -1.000000
vn 0.000000 0.000000 -1.000000
vn 0.000000 0.000000 -1.000000
vn 0.000000 0.000000 1.000000
vn 0.000000 0.000000 1.000000
vn 0.000000 0.000000 1.000000
vn 0.000000 0.000000 1.000000
vn -1.000000 0.000008 0.000000
vn -1.000000 0.000008 0.000000
vn -1.000000 0.000008 0.000000
vn -1.000000 0.000008 0.000000
vn -1.000000 0.000008 0.000000
vn -1.000000 -0.000000 0.000000
vn -1.000000 -0.000000 0.000000
vn -1.000000 0.000008 0.000000
vn 0.000000 0.000000 -1.000000
vn 0.000000 0.000000 -1.000000
vn 0.000000 0.000000 -1.000000
vn 0.000000 0.000000 -1.000000
vn 1.000000 -0.000001 0.000000
vn 1.000000 -0.000001 0.000000
vn 1.000000 0.000001 0.000000
vn 1.000000 0.000001 0.000000
vn 1.000000 -0.000001 0.000000
vn 1.000000 -0.000001 0.000000
vn 1.000000 -0.000001 0.000000
vn 1.000000 -0.000001 0.000000
vn 1.000000 -0.000001 0.000000
vn 1.000000 -0.000001 0.000000
vn 1.000000 -0.000001 0.000000
vn 1.000000 -0.000001 0.000000
vn 0.000000 1.000000 0.000000
vn 0.000000 1.000000 0.000000
vn 0.000000 1.000000 -0.000000
vn 0.000000 1.000000 -0.000000
vn -1.000000 -0.000006 0.000000
vn -1.000000 -0.000006 0.000000
vn -1.000000 -0.000000 0.000000
vn -1.000000 -0.000000 0.000000
vn -1.000000 0.000000 0.000000
vn -1.000000 0.000000 0.000000
vn -1.000000 0.000000 0.000000
vn -1.000000 0.000000 0.000000
vn -1.000000 0.000000 0.000000
vn -1.000000 -0.000006 0.000000
vn -1.000000 -0.000006 0.000000
vn -1.000000 0.000000 0.000000
vn 0.000000 -1.000000 0.000000
vn 0.000000 -1.000000 0.000000
vn 0.000000 -1.000000 -0.000000
vn 0.000000 -1.000000 -0.000000
vn 0.000000 1.000000 0.000000
vn 0.000000 1.000000 0.000000
vn 0.000000 1.000000 0.000000
vn 0.000000 1.000000 0.000000
vn 0.000000 -1.000000 0.000000
vn 0.000000 -1.000000 0.000000
vn 0.000000 -1.000000 0.000000
vn 0.000000 -1.000000 0.000000
vn 0.000000 1.000000 0.000000
vn 0.000000 1.000000 0.000000
vn 0.000000 1.000000 0.000000
vn 0.000000 1.000000 0.000000
vn 0.000000 -1.000000 0.000000
vn 0.000000 -1.000000 0.000000
vn 0.000000 -1.000000 0.000000
vn 0.000000 -1.000000 0.000000
vn 0.000000 1.000000 -0.000000
vn 0.000000 1.000000 -0.000000
vn 0.000000 1.000000 -0.000000
vn 0.000000 1.000000 -0.000000
vn 0.000000 -1.000000 -0.000000
vn 0.000000 -1.000000 -0.000000
vn 0.000000 -1.000000 -0.000000
vn 0.000000 -1.000000 -0.000000
vn -1.000000 0.000000 0.000000
vn -1.000000 0.000000 0.000000
vn -1.000000 0.000000 0.000000
vn -1.000000 0.000000 0.000000
vn 0.000000 1.000000 0.000000
vn 0.000000 1.000000 0.000000
vn 0.000000 1.000000 0.000000
vn 0.000000 1.000000 0.000000
vn 1.000000 0.000000 0.000000
vn 1.000000 0.000000 0.000000
vn 1.000000 0.000000 0.000000
vn 1.000000 0.000000 0.000000
vn 0.000000 -1.000000 0.000000
vn 0.000000 -1.000000 0.000000
vn 0.000000 -1.000000 0.000000
vn 0.000000 -1.000000 0.000000
vn 0.000000 0.000000 1.000000
vn 0.000000 0.000000 1.000000
vn 0.000000 0.000000 1.000000
vn 0.000000 0.000000 1.000000
vn 0.000000 0.000000 -1.000000
vn 0.000000 0.000000 -1.000000
vn 0.000000 0.000000 -1.000000
vn 0.000000 0.000000 -1.000000
vn -1.000000 0.000000 0.000000
vn -1.000000 0.000000 0.000000
vn -1.000000 0.000000 0.000000
vn -1.000000 0.000000 0.000000
vn 0.000000 1.000000 0.000000
vn 0.000000 1.000000 0.000000
vn 0.000000 1.000000 0.000000
vn 0.000000 1.000000 0.000000
vn 1.000000 0.000000 0.000000
vn 1.000000 0.000000 0.000000
vn 1.000000 0.000000 0.000000
vn 1.000000 0.000000 0.000000
vn 0.000000 -1.000000 0.000000
vn 0.000000 -1.000000 0.000000
vn 0.000000 -1.000000 0.000000
vn 0.000000 -1.000000 0.000000
vn 0.000000 0.000000 1.000000
vn 0.000000 0.000000 1.000000
vn 0.000000 0.000000 1.000000
vn 0.000000 0.000000 1.000000
vn 0.000000 0.000000 -1.000000
vn 0.000000 0.000000 -1.000000
vn 0.000000 0.000000 -1.000000
vn 0.000000 0.000000 -1.000000
s off
f 29/67/1 30/65/2 18/42/3 19/75/4
f 31/64/5 32/62/6 20/44/7 17/71/8
f 10/28/9 11/102/10 13/34/11 14/99/12
f 12/31/13 9/25/14 15/37/15 16/97/16
f 2/19/17 8/11/18 11/30/19 10/95/20
f 20/69/21 32/61/22 28/76/23 24/50/24 7/24/25 12/92/26 11/101/27 8/8/28
f 7/13/29 1/1/30 9/104/31 12/91/32
f 14/36/33 13/93/34 6/12/35 4/4/36
f 18/73/37 30/58/38 26/81/39 22/47/40 3/17/41 15/90/42 14/35/43 4/21/44
f 16/39/45 15/89/46 3/22/47 5/14/48
f 16/98/49 13/33/50 11/29/51 12/32/52
f 21/87/53 27/53/54 29/66/55 19/74/56 6/16/57 13/94/58 16/40/59 5/5/60
f 21/88/61 22/86/62 26/82/63 27/80/64
f 9/26/65 10/27/66 14/100/67 15/38/68
f 23/84/69 25/78/70 31/63/71 17/70/72 2/2/73 10/96/74 9/103/75 1/20/76
f 23/85/77 24/83/78 28/77/79 25/51/80
f 19/43/81 18/72/82 4/15/83 6/6/84
f 17/41/85 20/68/86 8/23/87 2/10/88
f 3/3/89 22/46/90 21/45/91 5/18/92
f 7/7/93 24/49/94 23/48/95 1/9/96
f 30/57/97 29/56/98 27/54/99 26/52/100
f 32/60/101 31/59/102 25/79/103 28/55/104
f 33/105/105 34/106/106 36/107/107 35/108/108
f 35/109/109 36/110/110 38/111/111 37/112/112
f 37/113/113 38/114/114 40/115/115 39/116/116
f 39/117/117 40/118/118 34/119/119 33/120/120
f 34/121/121 40/122/122 38/123/123 36/124/124
f 39/125/125 33/126/126 35/127/127 37/128/128
f 41/129/129 42/130/130 44/131/131 43/132/132
f 43/133/133 44/134/134 46/135/135 45/136/136
f 45/137/137 46/138/138 48/139/139 47/140/140
f 47/141/141 48/142/142 42/143/143 41/144/144
f 42/145/145 48/146/146 46/147/147 44/148/148
f 47/149/149 41/150/150 43/151/151 45/152/152
