# This file uses centimeters as units for non-parametric coordinates.

v 4.080376 0.111942 -0.127316
v 4.080376 0.111942 -0.017323
v 4.080376 3.244376 -0.127316
v 4.080376 3.244376 -0.017323
v 4.210184 3.244376 -0.127316
v 4.210184 3.244376 -0.017323
v 4.210184 0.111942 -0.127316
v 4.210184 0.111942 -0.017323
v 3.274742 0.111942 -0.127316
v 3.274742 0.111942 -0.017323
v 3.274742 3.244376 -0.127316
v 3.274742 3.244376 -0.017323
v 3.404551 3.244376 -0.127316
v 3.404551 3.244376 -0.017323
v 3.404551 0.111942 -0.127316
v 3.404551 0.111942 -0.017323
v 2.465422 0.111942 -0.127316
v 2.465422 0.111942 -0.017323
v 2.465422 3.244376 -0.127316
v 2.465422 3.244376 -0.017323
v 2.595230 3.244376 -0.127316
v 2.595230 3.244376 -0.017323
v 2.595230 0.111942 -0.127316
v 2.595230 0.111942 -0.017323
v 1.644836 0.111942 -0.127316
v 1.644836 0.111942 -0.017323
v 1.644836 3.244376 -0.127316
v 1.644836 3.244376 -0.017323
v 1.774645 3.244376 -0.127316
v 1.774645 3.244376 -0.017323
v 1.774645 0.111942 -0.127316
v 1.774645 0.111942 -0.017323
v 0.842457 0.111942 -0.127316
v 0.842457 0.111942 -0.017323
v 0.842457 3.244376 -0.127316
v 0.842457 3.244376 -0.017323
v 0.972265 3.244376 -0.127316
v 0.972265 3.244376 -0.017323
v 0.972265 0.111942 -0.127316
v 0.972265 0.111942 -0.017323
v 0.000000 3.317008 0.000000
v 5.000000 3.317008 0.000000
v 0.000000 3.317008 -0.164033
v 5.000000 3.317008 -0.164033
v 0.000000 0.000000 -0.164033
v 5.000000 0.000000 -0.164033
v 0.000000 0.000000 0.000000
v 5.000000 0.000000 0.000000
v 0.122406 3.196677 -0.164033
v 4.860825 3.196677 -0.164033
v 4.860825 0.120331 -0.164033
v 0.122406 0.120331 -0.164033
v 0.122406 0.120331 0.000000
v 4.860825 0.120331 0.000000
v 4.860825 3.196677 0.000000
v 0.122406 3.196677 0.000000
vt 0.267092 0.087149
vt 0.240631 0.087149
vt 0.267092 0.087149
vt 0.240631 0.087149
vt 0.240631 0.087149
vt 0.267092 0.087149
vt 0.267092 0.087149
vt 0.267092 0.087149
vt 0.267092 0.087149
vt 0.240631 0.087149
vt 0.240631 0.087149
vt 0.267092 0.087149
vt 0.240631 0.087149
vt 0.240631 0.087149
vt 0.267092 0.087149
vt 0.240631 0.087149
vt 0.240631 0.087149
vt 0.240631 0.087149
vt 0.240631 0.087149
vt 0.240631 0.087149
vt 0.240631 0.087149
vt 0.240631 0.087149
vt 0.240631 0.087149
vt 0.240631 0.087149
vt 0.267092 0.087149
vt 0.267092 0.087149
vt 0.267092 0.087149
vt 0.267092 0.087149
vt 0.267092 0.087149
vt 0.267092 0.087149
vt 0.267092 0.087149
vt 0.267092 0.087149
vt 0.240631 0.087149
vt 0.240631 0.087149
vt 0.240631 0.087149
vt 0.240631 0.087149
vt 0.240631 0.087149
vt 0.240631 0.087149
vt 0.240631 0.087149
vt 0.240631 0.087149
vt 0.267092 0.087149
vt 0.267092 0.087149
vt 0.267092 0.087149
vt 0.267092 0.087149
vt 0.267092 0.087149
vt 0.267092 0.087149
vt 0.267092 0.087149
vt 0.267092 0.087149
vt 0.240631 0.087149
vt 0.240631 0.087149
vt 0.240631 0.087149
vt 0.240631 0.087149
vt 0.240631 0.087149
vt 0.240631 0.087149
vt 0.240631 0.087149
vt 0.240631 0.087149
vt 0.267092 0.087149
vt 0.267092 0.087149
vt 0.267092 0.087149
vt 0.267092 0.087149
vt 0.267092 0.087149
vt 0.267092 0.087149
vt 0.267092 0.087149
vt 0.267092 0.087149
vt 0.240631 0.087149
vt 0.240631 0.087149
vt 0.240631 0.087149
vt 0.240631 0.087149
vt 0.240631 0.087149
vt 0.240631 0.087149
vt 0.240631 0.087149
vt 0.240631 0.087149
vt 0.267092 0.087149
vt 0.267092 0.087149
vt 0.267092 0.087149
vt 0.267092 0.087149
vt 0.267092 0.087149
vt 0.267092 0.087149
vt 0.267092 0.087149
vt 0.267092 0.087149
vt 0.299009 0.089105
vt 0.299009 0.089105
vt 0.299009 0.089105
vt 0.299009 0.089105
vt 0.211148 0.087069
vt 0.211148 0.087069
vt 0.211148 0.087069
vt 0.211148 0.087069
vt 0.236115 0.087069
vt 0.236115 0.087069
vt 0.236115 0.087069
vt 0.236115 0.087069
vt 0.236115 0.087069
vt 0.236115 0.087069
vt 0.236115 0.087069
vt 0.236115 0.087069
vt 0.263863 0.086723
vt 0.263863 0.086723
vt 0.263863 0.086723
vt 0.263863 0.086723
vt 0.263863 0.086723
vt 0.263863 0.086723
vt 0.263863 0.086723
vt 0.263863 0.086723
vt 0.263863 0.086723
vt 0.263863 0.086723
vt 0.263863 0.086723
vt 0.263863 0.086723
vt 0.263863 0.086723
vt 0.263863 0.086723
vt 0.263863 0.086723
vt 0.263863 0.086723
vt 0.263863 0.086723
vt 0.263863 0.086723
vt 0.263863 0.086723
vt 0.263863 0.086723
vt 0.263863 0.086723
vt 0.263863 0.086723
vt 0.263863 0.086723
vt 0.263863 0.086723
vt 0.263863 0.086723
vt 0.263863 0.086723
vt 0.263863 0.086723
vt 0.263863 0.086723
vt 0.263863 0.086723
vt 0.263863 0.086723
vt 0.263863 0.086723
vt 0.263863 0.086723
vt 0.299009 0.089105
vt 0.299009 0.089105
vt 0.299009 0.089105
vt 0.299009 0.089105
vt 0.234848 0.086802
vt 0.234848 0.086802
vt 0.234848 0.086802
vt 0.234848 0.086802
vt 0.234848 0.086802
vt 0.234848 0.086802
vt 0.234848 0.086802
vt 0.234848 0.086802
vt 0.205584 0.086802
vt 0.205584 0.086802
vt 0.205584 0.086802
vt 0.205584 0.086802
vn -1.000000 0.000000 0.000000
vn -1.000000 0.000000 0.000000
vn -1.000000 0.000000 0.000000
vn -1.000000 0.000000 0.000000
vn 1.000000 0.000000 0.000000
vn 1.000000 0.000000 0.000000
vn 1.000000 0.000000 0.000000
vn 1.000000 0.000000 0.000000
vn 0.000000 0.000000 1.000000
vn 0.000000 0.000000 1.000000
vn 0.000000 0.000000 1.000000
vn 0.000000 0.000000 1.000000
vn 0.000000 0.000000 -1.000000
vn 0.000000 0.000000 -1.000000
vn 0.000000 0.000000 -1.000000
vn 0.000000 0.000000 -1.000000
vn -1.000000 0.000000 0.000000
vn -1.000000 0.000000 0.000000
vn -1.000000 0.000000 0.000000
vn -1.000000 0.000000 0.000000
vn 1.000000 0.000000 0.000000
vn 1.000000 0.000000 0.000000
vn 1.000000 0.000000 0.000000
vn 1.000000 0.000000 0.000000
vn 0.000000 0.000000 1.000000
vn 0.000000 0.000000 1.000000
vn 0.000000 0.000000 1.000000
vn 0.000000 0.000000 1.000000
vn 0.000000 0.000000 -1.000000
vn 0.000000 0.000000 -1.000000
vn 0.000000 0.000000 -1.000000
vn 0.000000 0.000000 -1.000000
vn -1.000000 0.000000 0.000000
vn -1.000000 0.000000 0.000000
vn -1.000000 0.000000 0.000000
vn -1.000000 0.000000 0.000000
vn 1.000000 0.000000 0.000000
vn 1.000000 0.000000 0.000000
vn 1.000000 0.000000 0.000000
vn 1.000000 0.000000 0.000000
vn 0.000000 0.000000 1.000000
vn 0.000000 0.000000 1.000000
vn 0.000000 0.000000 1.000000
vn 0.000000 0.000000 1.000000
vn 0.000000 0.000000 -1.000000
vn 0.000000 0.000000 -1.000000
vn 0.000000 0.000000 -1.000000
vn 0.000000 0.000000 -1.000000
vn -1.000000 0.000000 0.000000
vn -1.000000 0.000000 0.000000
vn -1.000000 0.000000 0.000000
vn -1.000000 0.000000 0.000000
vn 1.000000 0.000000 0.000000
vn 1.000000 0.000000 0.000000
vn 1.000000 0.000000 0.000000
vn 1.000000 0.000000 0.000000
vn 0.000000 0.000000 1.000000
vn 0.000000 0.000000 1.000000
vn 0.000000 0.000000 1.000000
vn 0.000000 0.000000 1.000000
vn 0.000000 0.000000 -1.000000
vn 0.000000 0.000000 -1.000000
vn 0.000000 0.000000 -1.000000
vn 0.000000 0.000000 -1.000000
vn -1.000000 0.000000 0.000000
vn -1.000000 0.000000 0.000000
vn -1.000000 0.000000 0.000000
vn -1.000000 0.000000 0.000000
vn 1.000000 0.000000 0.000000
vn 1.000000 0.000000 0.000000
vn 1.000000 0.000000 0.000000
vn 1.000000 0.000000 0.000000
vn 0.000000 0.000000 1.000000
vn 0.000000 0.000000 1.000000
vn 0.000000 0.000000 1.000000
vn 0.000000 0.000000 1.000000
vn 0.000000 0.000000 -1.000000
vn 0.000000 0.000000 -1.000000
vn 0.000000 0.000000 -1.000000
vn 0.000000 0.000000 -1.000000
vn 0.000000 1.000000 0.000000
vn 0.000000 1.000000 0.000000
vn 0.000000 1.000000 0.000000
vn 0.000000 1.000000 0.000000
vn 0.000000 -1.000000 0.000000
vn 0.000000 -1.000000 0.000000
vn 0.000000 -1.000000 0.000000
vn 0.000000 -1.000000 0.000000
vn 1.000000 0.000000 0.000000
vn 1.000000 0.000000 0.000000
vn 1.000000 0.000000 0.000000
vn 1.000000 0.000000 0.000000
vn -1.000000 0.000000 0.000000
vn -1.000000 0.000000 0.000000
vn -1.000000 0.000000 0.000000
vn -1.000000 0.000000 0.000000
vn 0.000000 0.000000 -1.000000
vn 0.000000 0.000000 -1.000000
vn 0.000000 0.000000 -1.000000
vn 0.000000 0.000000 -1.000000
vn -0.000000 0.000000 -1.000000
vn -0.000000 0.000000 -1.000000
vn -0.000000 0.000000 -1.000000
vn -0.000000 0.000000 -1.000000
vn 0.000000 0.000000 -1.000000
vn 0.000000 0.000000 -1.000000
vn 0.000000 0.000000 -1.000000
vn 0.000000 0.000000 -1.000000
vn -0.000000 0.000000 -1.000000
vn -0.000000 0.000000 -1.000000
vn -0.000000 0.000000 -1.000000
vn -0.000000 0.000000 -1.000000
vn 0.000000 0.000000 1.000000
vn 0.000000 0.000000 1.000000
vn 0.000000 0.000000 1.000000
vn 0.000000 0.000000 1.000000
vn 0.000000 0.000000 1.000000
vn 0.000000 0.000000 1.000000
vn 0.000000 0.000000 1.000000
vn 0.000000 0.000000 1.000000
vn 0.000000 0.000000 1.000000
vn 0.000000 0.000000 1.000000
vn 0.000000 0.000000 1.000000
vn 0.000000 0.000000 1.000000
vn 0.000000 0.000000 1.000000
vn 0.000000 0.000000 1.000000
vn 0.000000 0.000000 1.000000
vn 0.000000 0.000000 1.000000
vn 0.000000 1.000000 0.000000
vn 0.000000 1.000000 0.000000
vn 0.000000 1.000000 0.000000
vn 0.000000 1.000000 0.000000
vn 1.000000 0.000000 0.000000
vn 1.000000 0.000000 0.000000
vn 1.000000 0.000000 0.000000
vn 1.000000 0.000000 0.000000
vn -1.000000 0.000000 0.000000
vn -1.000000 0.000000 0.000000
vn -1.000000 0.000000 0.000000
vn -1.000000 0.000000 0.000000
vn 0.000000 -1.000000 0.000000
vn 0.000000 -1.000000 0.000000
vn 0.000000 -1.000000 0.000000
vn 0.000000 -1.000000 0.000000
s off
f 1/13/1 2/2/2 4/14/3 3/11/4
f 5/4/5 6/10/6 8/5/7 7/16/8
f 2/12/9 8/6/10 6/7/11 4/3/12
f 7/8/13 1/1/14 3/15/15 5/9/16
f 9/17/17 10/18/18 12/19/19 11/20/20
f 13/21/21 14/22/22 16/23/23 15/24/24
f 10/25/25 16/26/26 14/27/27 12/28/28
f 15/29/29 9/30/30 11/31/31 13/32/32
f 17/33/33 18/34/34 20/35/35 19/36/36
f 21/37/37 22/38/38 24/39/39 23/40/40
f 18/41/41 24/42/42 22/43/43 20/44/44
f 23/45/45 17/46/46 19/47/47 21/48/48
f 25/49/49 26/50/50 28/51/51 27/52/52
f 29/53/53 30/54/54 32/55/55 31/56/56
f 26/57/57 32/58/58 30/59/59 28/60/60
f 31/61/61 25/62/62 27/63/63 29/64/64
f 33/65/65 34/66/66 36/67/67 35/68/68
f 37/69/69 38/70/70 40/71/71 39/72/72
f 34/73/73 40/74/74 38/75/75 36/76/76
f 39/77/77 33/78/78 35/79/79 37/80/80
f 41/81/81 42/82/82 44/83/83 43/84/84
f 45/85/85 46/86/86 48/87/87 47/88/88
f 42/89/89 48/90/90 46/91/91 44/92/92
f 47/93/93 41/94/94 43/95/95 45/96/96
f 43/97/97 44/98/98 50/99/99 49/100/100
f 44/101/101 46/102/102 51/103/103 50/104/104
f 46/105/105 45/106/106 52/107/107 51/108/108
f 45/109/109 43/110/110 49/111/111 52/112/112
f 47/113/113 48/114/114 54/115/115 53/116/116
f 48/117/117 42/118/118 55/119/119 54/120/120
f 42/121/121 41/122/122 56/123/123 55/124/124
f 41/125/125 47/126/126 53/127/127 56/128/128
f 51/129/129 52/130/130 53/131/131 54/132/132
f 52/133/133 49/134/134 56/135/135 53/136/136
f 51/137/137 54/138/138 55/139/139 50/140/140
f 50/141/141 55/142/142 56/143/143 49/144/144
