# This file uses centimeters as units for non-parametric coordinates.

v -2.463145 2.553534 1.096266
v 2.457739 2.553534 1.096266
v -2.463145 2.659065 1.096266
v 2.457739 2.659065 1.096266
v -2.463145 2.659065 -1.096266
v 2.457739 2.659065 -1.096266
v -2.463145 2.553534 -1.096266
v 2.457739 2.553534 -1.096266
v -2.512105 0.386853 1.256052
v 2.512105 0.386853 1.256052
v -2.512105 0.386853 -1.256052
v 2.512105 0.386853 -1.256052
v -2.512105 0.272395 1.256052
v -2.512105 0.272395 -1.256052
v 2.512105 0.272395 -1.256052
v 2.512105 0.272395 1.256052
v -2.512105 0.272395 1.155530
v -2.512105 0.272395 -1.155530
v 2.512105 0.272395 -1.155530
v 2.512105 0.272395 1.155530
v -2.512105 0.000000 1.155530
v -2.512105 0.000000 -1.155530
v 2.512105 0.000000 -1.155530
v 2.512105 0.000000 1.155530
v -2.460330 0.311422 0.142711
v 2.448666 0.311422 0.142711
v -2.460330 3.123000 0.081535
v 2.448666 3.123000 0.081535
v -2.460330 3.123000 -0.081535
v 2.448666 3.123000 -0.081535
v -2.460330 0.311422 -0.142711
v 2.448666 0.311422 -0.142711
v -2.460330 2.679430 0.142711
v -2.460330 2.679430 -0.142711
v 2.448666 2.679430 -0.142711
v 2.448666 2.679430 0.142711
v -2.463140 1.796111 1.096266
v 2.457739 1.796111 1.096266
v -2.463140 1.901642 1.096266
v 2.457739 1.901642 1.096266
v -2.463140 1.901642 -1.096266
v 2.457739 1.901642 -1.096266
v -2.463140 1.796111 -1.096266
v 2.457739 1.796111 -1.096266
v -2.463140 1.038688 1.096266
v 2.457739 0.362390 1.096266
v -2.463140 1.144219 1.096266
v 2.457739 0.467922 1.096266
v -2.463140 1.144219 -1.096266
v 2.457739 0.467922 -1.096266
v -2.463140 1.038688 -1.096266
v 2.457739 0.362390 -1.096266
v -2.500337 0.311422 -1.207975
v -2.500337 0.311422 1.207975
v -2.500337 2.715775 -1.207975
v -2.500337 2.715775 1.207975
v -2.423199 2.715775 -1.207975
v -2.423199 2.715775 1.207975
v -2.423199 0.311422 -1.207975
v -2.423199 0.311422 1.207975
v 2.418024 0.311422 -1.207975
v 2.418024 0.311422 1.207975
v 2.418024 2.715711 -1.207975
v 2.418024 2.715711 1.207975
v 2.495162 2.715711 -1.207975
v 2.495162 2.715711 1.207975
v 2.495162 0.311422 -1.207975
v 2.495162 0.311422 1.207975
vt 0.395290 0.062654
vt 0.395290 0.062654
vt 0.467058 0.056958
vt 0.467058 0.056958
vt 0.467058 0.056958
vt 0.467058 0.056958
vt 0.395290 0.062654
vt 0.395290 0.062654
vt 0.330358 0.062654
vt 0.330358 0.062654
vt 0.330358 0.062654
vt 0.360374 0.062654
vt 0.467058 0.056958
vt 0.467058 0.056958
vt 0.467058 0.056958
vt 0.467058 0.056958
vt 0.330358 0.062654
vt 0.360374 0.062654
vt 0.330358 0.062654
vt 0.330358 0.062654
vt 0.402126 0.056958
vt 0.402126 0.056958
vt 0.402126 0.056958
vt 0.402126 0.056958
vt 0.467058 0.056958
vt 0.467058 0.056958
vt 0.467058 0.056958
vt 0.467058 0.056958
vt 0.360168 0.059047
vt 0.360168 0.059047
vt 0.360168 0.059047
vt 0.360168 0.059047
vt 0.360168 0.059047
vt 0.360168 0.059047
vt 0.360168 0.059047
vt 0.360168 0.059047
vt 0.229835 0.059001
vt 0.229836 0.059001
vt 0.229836 0.059001
vt 0.229835 0.059001
vt 0.229836 0.059001
vt 0.229835 0.059001
vt 0.229835 0.059001
vt 0.229836 0.059001
vt 0.367950 0.057981
vt 0.367950 0.057981
vt 0.367950 0.057981
vt 0.367950 0.057981
vt 0.367950 0.057981
vt 0.367950 0.057981
vt 0.367950 0.057981
vt 0.367950 0.057981
vt 0.272679 0.059051
vt 0.272679 0.059051
vt 0.272679 0.059051
vt 0.329285 0.059048
vt 0.329285 0.059048
vt 0.329285 0.059048
vt 0.272679 0.059051
vt 0.272679 0.059051
vt 0.272679 0.059051
vt 0.263147 0.059951
vt 0.263147 0.059951
vt 0.263147 0.059951
vt 0.263147 0.059951
vt 0.272679 0.059051
vt 0.272679 0.059051
vt 0.272679 0.059051
vt 0.272679 0.059051
vt 0.272679 0.059051
vt 0.467058 0.056958
vt 0.467058 0.056958
vt 0.467058 0.056958
vt 0.467058 0.056958
vt 0.467058 0.056958
vt 0.467058 0.056958
vt 0.467058 0.056958
vt 0.467058 0.056958
vt 0.467058 0.056958
vt 0.467058 0.056958
vt 0.467058 0.056958
vt 0.467058 0.056958
vt 0.256312 0.062654
vt 0.256312 0.062654
vt 0.467058 0.056958
vt 0.467058 0.056958
vt 0.467058 0.056958
vt 0.467058 0.056958
vt 0.256312 0.062654
vt 0.256312 0.062654
vt 0.256312 0.062654
vt 0.256312 0.062654
vt 0.467058 0.056958
vt 0.467058 0.056958
vt 0.467058 0.056958
vt 0.467058 0.056958
vt 0.256312 0.062654
vt 0.256312 0.062654
vt 0.297322 0.058966
vt 0.297322 0.058966
vt 0.297322 0.058966
vt 0.297322 0.058966
vt 0.297322 0.058966
vt 0.297322 0.058966
vt 0.297322 0.058966
vt 0.297322 0.058966
vt 0.297322 0.058966
vt 0.297322 0.058966
vt 0.297322 0.058966
vt 0.297322 0.058966
vt 0.297322 0.058966
vt 0.297322 0.058966
vt 0.297322 0.058966
vt 0.297322 0.058966
vt 0.297322 0.058966
vt 0.297322 0.058966
vt 0.297322 0.058966
vt 0.297322 0.058966
vt 0.297322 0.058966
vt 0.297322 0.058966
vt 0.297322 0.058966
vt 0.297322 0.058966
vt 0.263147 0.059951
vt 0.263147 0.059951
vt 0.263147 0.059951
vt 0.263147 0.059951
vt 0.359976 0.058097
vt 0.359976 0.058097
vt 0.359976 0.058097
vt 0.359976 0.058097
vt 0.359976 0.058097
vt 0.359976 0.058097
vt 0.359976 0.058097
vt 0.359976 0.058097
vt 0.424909 0.058097
vt 0.424909 0.058097
vt 0.424909 0.058097
vt 0.424909 0.058097
vt 0.424909 0.058097
vt 0.424909 0.058097
vt 0.424909 0.058097
vt 0.424909 0.058097
vt 0.424909 0.058097
vt 0.424909 0.058097
vt 0.424909 0.058097
vt 0.424909 0.058097
vt 0.424909 0.058097
vt 0.424909 0.058097
vt 0.424909 0.058097
vt 0.424909 0.058097
vt 0.321245 0.062654
vt 0.321245 0.062654
vt 0.321245 0.062654
vt 0.321245 0.062654
vt 0.321245 0.062654
vt 0.321245 0.062654
vt 0.321245 0.062654
vt 0.321245 0.062654
vt 0.321245 0.062654
vt 0.321245 0.062654
vt 0.321245 0.062654
vt 0.321245 0.062654
vt 0.321245 0.062654
vt 0.321245 0.062654
vt 0.321245 0.062654
vt 0.321245 0.062654
vt 0.360374 0.062654
vt 0.360374 0.062654
vt 0.360374 0.062654
vt 0.330358 0.062654
vt 0.330358 0.062654
vt 0.360374 0.062654
vt 0.360374 0.062654
vt 0.360374 0.062654
vn 0.000000 0.000000 1.000000
vn 0.000000 0.000000 1.000000
vn 0.000000 0.000000 1.000000
vn 0.000000 0.000000 1.000000
vn 0.000000 1.000000 0.000000
vn 0.000000 1.000000 0.000000
vn 0.000000 1.000000 0.000000
vn 0.000000 1.000000 0.000000
vn 0.000000 0.000000 -1.000000
vn 0.000000 0.000000 -1.000000
vn 0.000000 0.000000 -1.000000
vn 0.000000 0.000000 -1.000000
vn 0.000000 -1.000000 0.000000
vn 0.000000 -1.000000 0.000000
vn 0.000000 -1.000000 0.000000
vn 0.000000 -1.000000 0.000000
vn 1.000000 0.000000 0.000000
vn 1.000000 0.000000 0.000000
vn 1.000000 0.000000 0.000000
vn 1.000000 0.000000 0.000000
vn -1.000000 0.000000 0.000000
vn -1.000000 0.000000 0.000000
vn -1.000000 0.000000 0.000000
vn -1.000000 0.000000 0.000000
vn 0.000000 1.000000 0.000000
vn 0.000000 1.000000 0.000000
vn 0.000000 1.000000 0.000000
vn 0.000000 1.000000 0.000000
vn 0.000000 0.000000 -1.000000
vn 0.000000 0.000000 -1.000000
vn 0.000000 0.000000 -1.000000
vn 0.000000 0.000000 -1.000000
vn 0.000000 0.000000 1.000000
vn 0.000000 0.000000 1.000000
vn 0.000000 0.000000 1.000000
vn 0.000000 0.000000 1.000000
vn 0.000000 -1.000000 0.000000
vn 0.000000 -1.000000 0.000000
vn 0.000000 -1.000000 0.000000
vn 0.000000 -1.000000 0.000000
vn 0.000000 -1.000000 0.000000
vn 0.000000 -1.000000 0.000000
vn 0.000000 -1.000000 0.000000
vn 0.000000 -1.000000 0.000000
vn 0.000000 0.000000 -1.000000
vn 0.000000 0.000000 -1.000000
vn 0.000000 0.000000 -1.000000
vn 0.000000 0.000000 -1.000000
vn 0.000000 0.000000 1.000000
vn 0.000000 0.000000 1.000000
vn 0.000000 0.000000 1.000000
vn 0.000000 0.000000 1.000000
vn -1.000000 0.000000 0.000000
vn -1.000000 0.000000 0.000000
vn -1.000000 0.000000 0.000000
vn 1.000000 0.000000 0.000000
vn 1.000000 0.000000 0.000000
vn 1.000000 0.000000 0.000000
vn -1.000000 0.000000 0.000000
vn -1.000000 0.000000 0.000000
vn -1.000000 0.000000 0.000000
vn -1.000000 0.000000 0.000000
vn -1.000000 0.000000 0.000000
vn -1.000000 0.000000 0.000000
vn -1.000000 0.000000 0.000000
vn 1.000000 0.000000 0.000000
vn 1.000000 0.000000 0.000000
vn 1.000000 0.000000 0.000000
vn 1.000000 0.000000 0.000000
vn 1.000000 0.000000 0.000000
vn 1.000000 0.000000 0.000000
vn 1.000000 0.000000 0.000000
vn 1.000000 -0.000003 0.000000
vn 1.000000 -0.000003 0.000000
vn 1.000000 -0.000003 0.000000
vn 1.000000 -0.000003 0.000000
vn -1.000000 -0.000002 0.000000
vn -1.000000 -0.000002 0.000000
vn -1.000000 -0.000002 0.000000
vn -1.000000 -0.000002 0.000000
vn 0.000000 0.000000 1.000000
vn 0.000000 0.000000 1.000000
vn 0.000000 0.000000 1.000000
vn 0.000000 0.000000 1.000000
vn 0.000000 1.000000 0.000000
vn 0.000000 1.000000 0.000000
vn 0.000000 1.000000 0.000000
vn 0.000000 1.000000 0.000000
vn 0.000000 0.000000 -1.000000
vn 0.000000 0.000000 -1.000000
vn 0.000000 0.000000 -1.000000
vn 0.000000 0.000000 -1.000000
vn 0.000000 -1.000000 0.000000
vn 0.000000 -1.000000 0.000000
vn 0.000000 -1.000000 0.000000
vn 0.000000 -1.000000 0.000000
vn 1.000000 0.000000 0.000000
vn 1.000000 0.000000 0.000000
vn 1.000000 0.000000 0.000000
vn 1.000000 0.000000 0.000000
vn -1.000000 0.000000 0.000000
vn -1.000000 0.000000 0.000000
vn -1.000000 0.000000 0.000000
vn -1.000000 0.000000 0.000000
vn -1.000000 0.000000 0.000000
vn -1.000000 0.000000 0.000000
vn -1.000000 0.000000 0.000000
vn -1.000000 0.000000 0.000000
vn 0.000000 0.136624 -0.990623
vn 0.000000 0.136624 -0.990623
vn 0.000000 0.136624 -0.990623
vn 0.000000 0.136624 -0.990623
vn 1.000000 -0.000000 0.000000
vn 1.000000 -0.000000 0.000000
vn 1.000000 -0.000000 0.000000
vn 1.000000 -0.000000 0.000000
vn 0.000000 0.136624 0.990623
vn 0.000000 0.136624 0.990623
vn 0.000000 0.136624 0.990623
vn 0.000000 0.136624 0.990623
vn 0.000000 0.000000 1.000000
vn 0.000000 0.000000 1.000000
vn 0.000000 0.000000 1.000000
vn 0.000000 0.000000 1.000000
vn 0.000000 1.000000 0.000000
vn 0.000000 1.000000 0.000000
vn 0.000000 1.000000 0.000000
vn 0.000000 1.000000 0.000000
vn 0.000000 0.000000 -1.000000
vn 0.000000 0.000000 -1.000000
vn 0.000000 0.000000 -1.000000
vn 0.000000 0.000000 -1.000000
vn 0.000000 -1.000000 0.000000
vn 0.000000 -1.000000 0.000000
vn 0.000000 -1.000000 0.000000
vn 0.000000 -1.000000 0.000000
vn 1.000000 0.000000 0.000000
vn 1.000000 0.000000 0.000000
vn 1.000000 0.000000 0.000000
vn 1.000000 0.000000 0.000000
vn -1.000000 0.000000 0.000000
vn -1.000000 0.000000 0.000000
vn -1.000000 0.000000 0.000000
vn -1.000000 0.000000 0.000000
vn 0.000000 0.000000 1.000000
vn 0.000000 0.000000 1.000000
vn 0.000000 0.000000 1.000000
vn 0.000000 0.000000 1.000000
vn 0.000000 1.000000 0.000000
vn 0.000000 1.000000 0.000000
vn 0.000000 1.000000 0.000000
vn 0.000000 1.000000 0.000000
vn 0.000000 0.000000 -1.000000
vn 0.000000 0.000000 -1.000000
vn 0.000000 0.000000 -1.000000
vn 0.000000 0.000000 -1.000000
vn 0.000000 -1.000000 0.000000
vn 0.000000 -1.000000 0.000000
vn 0.000000 -1.000000 0.000000
vn 0.000000 -1.000000 0.000000
vn 1.000000 0.000000 0.000000
vn 1.000000 0.000000 0.000000
vn 1.000000 0.000000 0.000000
vn 1.000000 0.000000 0.000000
vn -1.000000 0.000000 0.000000
vn -1.000000 0.000000 0.000000
vn -1.000000 0.000000 0.000000
vn -1.000000 0.000000 0.000000
vn -1.000000 0.000000 0.000000
vn -1.000000 0.000000 0.000000
vn -1.000000 0.000000 0.000000
vn -1.000000 0.000000 0.000000
vn 1.000000 0.000000 0.000000
vn 1.000000 0.000000 0.000000
vn 1.000000 0.000000 0.000000
vn 1.000000 0.000000 0.000000
vn 0.000000 0.000000 1.000000
vn 0.000000 0.000000 1.000000
vn 0.000000 0.000000 1.000000
vn 0.000000 0.000000 1.000000
vn 0.000000 0.000000 -1.000000
vn 0.000000 0.000000 -1.000000
vn 0.000000 0.000000 -1.000000
vn 0.000000 0.000000 -1.000000
vn 0.000000 1.000000 0.000000
vn 0.000000 1.000000 0.000000
vn 0.000000 1.000000 0.000000
vn 0.000000 1.000000 0.000000
vn -1.000000 0.000000 0.000000
vn -1.000000 0.000000 0.000000
vn -1.000000 0.000000 0.000000
vn -1.000000 0.000000 0.000000
vn 1.000000 0.000000 0.000000
vn 1.000000 0.000000 0.000000
vn 1.000000 0.000000 0.000000
vn 1.000000 0.000000 0.000000
vn 0.000000 0.000000 1.000000
vn 0.000000 0.000000 1.000000
vn 0.000000 0.000000 1.000000
vn 0.000000 0.000000 1.000000
vn 0.000000 0.000000 -1.000000
vn 0.000000 0.000000 -1.000000
vn 0.000000 0.000000 -1.000000
vn 0.000000 0.000000 -1.000000
vn 0.000000 1.000000 0.000000
vn 0.000000 1.000000 0.000000
vn 0.000000 1.000000 0.000000
vn 0.000000 1.000000 0.000000
s off
f 1/99/1 2/100/2 4/101/3 3/102/4
f 3/3/5 4/4/6 6/5/7 5/6/8
f 5/103/9 6/104/10 8/105/11 7/106/12
f 7/8/13 8/7/14 2/2/15 1/1/16
f 2/100/17 8/105/18 6/104/19 4/101/20
f 7/106/21 1/99/22 3/102/23 5/103/24
f 9/13/25 10/14/26 12/15/27 11/16/28
f 11/29/29 12/30/30 15/31/31 14/32/32
f 13/33/33 16/34/34 10/35/35 9/36/36
f 14/37/37 15/38/38 19/39/39 18/40/40
f 16/41/41 13/42/42 17/43/43 20/44/44
f 18/45/45 19/46/46 23/47/47 22/48/48
f 20/49/49 17/50/50 21/51/51 24/52/52
f 9/53/53 17/54/54 13/55/55
f 20/56/56 10/57/57 16/58/58
f 11/59/59 14/60/60 18/61/61
f 17/62/62 18/63/63 22/64/64 21/65/65
f 19/123/66 20/124/67 24/125/68 23/126/69
f 12/66/70 19/67/71 15/68/72
f 12/66/73 10/69/74 20/70/75 19/67/76
f 11/59/77 18/61/78 17/54/79 9/53/80
f 25/172/81 26/174/82 36/173/83 33/12/84
f 27/21/85 28/22/86 30/23/87 29/24/88
f 34/168/89 35/18/90 32/169/91 31/167/92
f 31/20/93 32/19/94 26/10/95 25/9/96
f 26/10/97 32/19/98 35/170/99 36/11/100
f 34/17/101 31/20/102 25/9/103 33/171/104
f 29/83/105 34/84/106 33/89/107 27/90/108
f 29/127/109 30/128/110 35/129/111 34/130/112
f 36/91/113 35/92/114 30/97/115 28/98/116
f 33/131/117 36/132/118 28/133/119 27/134/120
f 37/107/121 38/108/122 40/109/123 39/110/124
f 39/25/125 40/26/126 42/27/127 41/28/128
f 41/111/129 42/112/130 44/113/131 43/114/132
f 43/71/133 44/72/134 38/73/135 37/74/136
f 38/108/137 44/113/138 42/112/139 40/109/140
f 43/114/141 37/107/142 39/110/143 41/111/144
f 45/115/145 46/116/146 48/117/147 47/118/148
f 47/75/149 48/76/150 50/77/151 49/78/152
f 49/119/153 50/120/154 52/121/155 51/122/156
f 51/79/157 52/80/158 46/81/159 45/82/160
f 46/116/161 52/121/162 50/120/163 48/117/164
f 51/122/165 45/115/166 47/118/167 49/119/168
f 53/151/169 54/152/170 56/153/171 55/154/172
f 57/155/173 58/156/174 60/157/175 59/158/176
f 54/135/177 60/136/178 58/137/179 56/138/180
f 59/139/181 53/140/182 55/141/183 57/142/184
f 55/85/185 56/86/186 58/87/187 57/88/188
f 61/159/189 62/160/190 64/161/191 63/162/192
f 65/163/193 66/164/194 68/165/195 67/166/196
f 62/143/197 68/144/198 66/145/199 64/146/200
f 67/147/201 61/148/202 63/149/203 65/150/204
f 63/93/205 64/94/206 66/95/207 65/96/208
