# This file uses centimeters as units for non-parametric coordinates.

v -0.199001 0.947047 0.078801
v -1.076773 3.253066 0.078801
v 2.375271 3.253066 0.078801
v 1.872477 0.884638 0.078801
v -0.973831 3.253066 0.078801
v 0.051970 2.794194 0.078801
v 0.745850 2.645026 0.078801
v 1.386906 2.794194 0.078801
v 2.296715 3.253066 0.078801
v 2.045195 1.535472 0.078801
v -0.617172 1.440515 0.078801
v -0.814404 2.251455 0.078801
v 1.524117 0.776177 0.078801
v 1.116379 0.244686 0.078801
v 0.842854 0.401440 0.078801
v 0.439110 0.320747 0.078801
v 0.417875 0.876754 0.078801
v 0.213701 1.035972 0.078801
v 0.206123 1.286172 0.078801
v 0.361561 1.126085 0.078801
v 0.458050 1.012026 0.078801
v 1.108608 0.649316 0.078801
v 1.031342 0.559347 0.078801
v 1.098255 0.441283 0.078801
v 1.223082 0.635143 0.078801
v 0.439110 0.320747 0.108903
v -0.199001 0.947047 0.108903
v 0.417875 0.876754 0.108903
v 0.213701 1.035972 0.108903
v 0.206123 1.286172 0.108903
v -1.076773 3.253066 0.108903
v -0.814404 2.251455 0.108903
v -0.617172 1.440515 0.108903
v 0.361561 1.126085 0.108903
v 0.458050 1.012026 0.108903
v 2.375271 3.253066 0.108903
v 2.296715 3.253066 0.108903
v 1.386906 2.794194 0.108903
v 0.745850 2.645026 0.108903
v 0.051970 2.794194 0.108903
v -0.973831 3.253066 0.108903
v 1.223082 0.635143 0.108903
v 1.524117 0.776177 0.108903
v 1.098255 0.441283 0.108903
v 1.116379 0.244686 0.108903
v 1.108608 0.649316 0.108903
v 1.872477 0.884638 0.108903
v 2.045195 1.535472 0.108903
v 1.031342 0.559347 0.108903
v 0.842854 0.401440 0.108903
v -1.020638 3.127268 -0.122207
v -1.020638 3.127268 0.122207
v -1.099964 3.358450 -0.122207
v -1.099964 3.358450 0.122207
v -1.050611 3.375385 -0.122207
v -1.050611 3.375385 0.122207
v -0.971285 3.144202 -0.122207
v -0.971285 3.144202 0.122207
v 2.273890 3.127347 -0.122207
v 2.273890 3.127347 0.122207
v 2.341005 3.362365 -0.122207
v 2.341005 3.362365 0.122207
v 2.391178 3.348037 -0.122207
v 2.391178 3.348037 0.122207
v 2.324060 3.113019 -0.122207
v 2.324060 3.113019 0.122207
v 1.580376 0.111942 -0.042872
v 1.580376 0.111942 0.067121
v 1.580376 3.244376 -0.042872
v 1.580376 3.244376 0.067121
v 1.710184 3.244376 -0.042872
v 1.710184 3.244376 0.067121
v 1.710184 0.111942 -0.042872
v 1.710184 0.111942 0.067121
v 0.774742 0.111942 -0.042872
v 0.774742 0.111942 0.067121
v 0.774742 3.244376 -0.042872
v 0.774742 3.244376 0.067121
v 0.904551 3.244376 -0.042872
v 0.904551 3.244376 0.067121
v 0.904551 0.111942 -0.042872
v 0.904551 0.111942 0.067121
v -0.034578 0.111942 -0.042872
v -0.034578 0.111942 0.067121
v -0.034578 3.244376 -0.042872
v -0.034578 3.244376 0.067121
v 0.095230 3.244376 -0.042872
v 0.095230 3.244376 0.067121
v 0.095230 0.111942 -0.042872
v 0.095230 0.111942 0.067121
v -0.855164 0.111942 -0.042872
v -0.855164 0.111942 0.067121
v -0.855164 3.244376 -0.042872
v -0.855164 3.244376 0.067121
v -0.725355 3.244376 -0.042872
v -0.725355 3.244376 0.067121
v -0.725355 0.111942 -0.042872
v -0.725355 0.111942 0.067121
v -1.657543 0.111942 -0.042872
v -1.657543 0.111942 0.067121
v -1.657543 3.244376 -0.042872
v -1.657543 3.244376 0.067121
v -1.527735 3.244376 -0.042872
v -1.527735 3.244376 0.067121
v -1.527735 0.111942 -0.042872
v -1.527735 0.111942 0.067121
v -2.500000 3.317008 0.084444
v 2.500000 3.317008 0.084444
v -2.500000 3.317008 -0.079590
v 2.500000 3.317008 -0.079590
v -2.500000 -0.000000 -0.079590
v 2.500000 -0.000000 -0.079590
v -2.500000 -0.000000 0.084444
v 2.500000 -0.000000 0.084444
v -2.377594 3.196677 -0.079590
v 2.360825 3.196677 -0.079590
v 2.360825 0.120331 -0.079590
v -2.377594 0.120331 -0.079590
v -2.377594 0.120331 0.084444
v 2.360825 0.120331 0.084444
v 2.360825 3.196677 0.084444
v -2.377594 3.196677 0.084444
vt 0.328398 0.475915
vt 0.328398 0.475915
vt 0.328398 0.475915
vt 0.328398 0.475915
vt 0.328398 0.475915
vt 0.328398 0.475915
vt 0.328398 0.475915
vt 0.328398 0.475915
vt 0.328398 0.475915
vt 0.328398 0.475915
vt 0.328398 0.475915
vt 0.328398 0.475915
vt 0.328398 0.475915
vt 0.328398 0.475915
vt 0.328398 0.475915
vt 0.328398 0.475915
vt 0.328398 0.475915
vt 0.328398 0.475915
vt 0.328398 0.475915
vt 0.328398 0.475915
vt 0.328398 0.475915
vt 0.328398 0.475915
vt 0.328398 0.475915
vt 0.328398 0.475915
vt 0.328398 0.475915
vt 0.328398 0.475915
vt 0.328398 0.475915
vt 0.328398 0.475915
vt 0.328398 0.475915
vt 0.328398 0.475915
vt 0.328398 0.475915
vt 0.328398 0.475915
vt 0.328398 0.475915
vt 0.328398 0.475915
vt 0.328398 0.475915
vt 0.328398 0.475915
vt 0.328398 0.475915
vt 0.328398 0.475915
vt 0.328398 0.475915
vt 0.328398 0.475915
vt 0.328398 0.475915
vt 0.328398 0.475915
vt 0.328398 0.475915
vt 0.328398 0.475915
vt 0.328398 0.475915
vt 0.328398 0.475915
vt 0.328398 0.475915
vt 0.328398 0.475915
vt 0.328398 0.475915
vt 0.328398 0.475915
vt 0.328398 0.475915
vt 0.328398 0.475915
vt 0.328398 0.475915
vt 0.328398 0.475915
vt 0.328398 0.475915
vt 0.328398 0.475915
vt 0.328398 0.475915
vt 0.328398 0.475915
vt 0.328398 0.475915
vt 0.328398 0.475915
vt 0.328398 0.475915
vt 0.328398 0.475915
vt 0.328398 0.475915
vt 0.328398 0.475915
vt 0.328398 0.475915
vt 0.328398 0.475915
vt 0.328398 0.475915
vt 0.328398 0.475915
vt 0.328398 0.475915
vt 0.328398 0.475915
vt 0.328398 0.475915
vt 0.328398 0.475915
vt 0.328398 0.475915
vt 0.328398 0.475915
vt 0.328398 0.475915
vt 0.174473 0.064206
vt 0.174473 0.064206
vt 0.174473 0.064206
vt 0.174473 0.064206
vt 0.235235 0.064206
vt 0.235235 0.064206
vt 0.235235 0.064206
vt 0.235235 0.064206
vt 0.174473 0.064206
vt 0.174473 0.064206
vt 0.174473 0.064206
vt 0.174473 0.064206
vt 0.140172 0.064206
vt 0.140171 0.064206
vt 0.140171 0.064206
vt 0.140172 0.064206
vt 0.200934 0.064206
vt 0.200934 0.064206
vt 0.200934 0.064206
vt 0.200934 0.064206
vt 0.200934 0.064206
vt 0.200934 0.064206
vt 0.200934 0.064206
vt 0.200934 0.064206
vt 0.174473 0.064206
vt 0.174473 0.064206
vt 0.174473 0.064206
vt 0.174473 0.064206
vt 0.235235 0.064206
vt 0.235235 0.064206
vt 0.235235 0.064206
vt 0.235235 0.064206
vt 0.174473 0.064206
vt 0.174473 0.064206
vt 0.174473 0.064206
vt 0.174473 0.064206
vt 0.140172 0.064206
vt 0.140171 0.064206
vt 0.140171 0.064206
vt 0.140172 0.064206
vt 0.200934 0.064206
vt 0.200934 0.064206
vt 0.200934 0.064206
vt 0.200934 0.064206
vt 0.200934 0.064206
vt 0.200934 0.064206
vt 0.200934 0.064206
vt 0.200934 0.064206
vt 0.240631 0.087149
vt 0.240631 0.087149
vt 0.240631 0.087149
vt 0.240631 0.087149
vt 0.240631 0.087149
vt 0.240631 0.087149
vt 0.240631 0.087149
vt 0.240631 0.087149
vt 0.267092 0.087149
vt 0.267092 0.087149
vt 0.267092 0.087149
vt 0.267092 0.087149
vt 0.267092 0.087149
vt 0.267092 0.087149
vt 0.267092 0.087149
vt 0.267092 0.087149
vt 0.240631 0.087149
vt 0.240631 0.087149
vt 0.240631 0.087149
vt 0.240631 0.087149
vt 0.240631 0.087149
vt 0.240631 0.087149
vt 0.240631 0.087149
vt 0.240631 0.087149
vt 0.267092 0.087149
vt 0.267092 0.087149
vt 0.267092 0.087149
vt 0.267092 0.087149
vt 0.267092 0.087149
vt 0.267092 0.087149
vt 0.267092 0.087149
vt 0.267092 0.087149
vt 0.240631 0.087149
vt 0.240631 0.087149
vt 0.240631 0.087149
vt 0.240631 0.087149
vt 0.240631 0.087149
vt 0.240631 0.087149
vt 0.240631 0.087149
vt 0.240631 0.087149
vt 0.267092 0.087149
vt 0.267092 0.087149
vt 0.267092 0.087149
vt 0.267092 0.087149
vt 0.267092 0.087149
vt 0.267092 0.087149
vt 0.267092 0.087149
vt 0.267092 0.087149
vt 0.240631 0.087149
vt 0.240631 0.087149
vt 0.240631 0.087149
vt 0.240631 0.087149
vt 0.240631 0.087149
vt 0.240631 0.087149
vt 0.240631 0.087149
vt 0.240631 0.087149
vt 0.267092 0.087149
vt 0.267092 0.087149
vt 0.267092 0.087149
vt 0.267092 0.087149
vt 0.267092 0.087149
vt 0.267092 0.087149
vt 0.267092 0.087149
vt 0.267092 0.087149
vt 0.240631 0.087149
vt 0.240631 0.087149
vt 0.240631 0.087149
vt 0.240631 0.087149
vt 0.240631 0.087149
vt 0.240631 0.087149
vt 0.240631 0.087149
vt 0.240631 0.087149
vt 0.267092 0.087149
vt 0.267092 0.087149
vt 0.267092 0.087149
vt 0.267092 0.087149
vt 0.267092 0.087149
vt 0.267092 0.087149
vt 0.267092 0.087149
vt 0.267092 0.087149
vt 0.299009 0.089105
vt 0.299009 0.089105
vt 0.299009 0.089105
vt 0.299009 0.089105
vt 0.211148 0.087069
vt 0.211148 0.087069
vt 0.211148 0.087069
vt 0.211148 0.087069
vt 0.236115 0.087069
vt 0.236115 0.087069
vt 0.236115 0.087069
vt 0.236115 0.087069
vt 0.236115 0.087069
vt 0.236115 0.087069
vt 0.236115 0.087069
vt 0.236115 0.087069
vt 0.263863 0.086723
vt 0.263863 0.086723
vt 0.263863 0.086723
vt 0.263863 0.086723
vt 0.263863 0.086723
vt 0.263863 0.086723
vt 0.263863 0.086723
vt 0.263863 0.086723
vt 0.263863 0.086723
vt 0.263863 0.086723
vt 0.263863 0.086723
vt 0.263863 0.086723
vt 0.263863 0.086723
vt 0.263863 0.086723
vt 0.263863 0.086723
vt 0.263863 0.086723
vt 0.263863 0.086723
vt 0.263863 0.086723
vt 0.263863 0.086723
vt 0.263863 0.086723
vt 0.263863 0.086723
vt 0.263863 0.086723
vt 0.263863 0.086723
vt 0.263863 0.086723
vt 0.263863 0.086723
vt 0.263863 0.086723
vt 0.263863 0.086723
vt 0.263863 0.086723
vt 0.263863 0.086723
vt 0.263863 0.086723
vt 0.263863 0.086723
vt 0.263863 0.086723
vt 0.299009 0.089105
vt 0.299009 0.089105
vt 0.299009 0.089105
vt 0.299009 0.089105
vt 0.234848 0.086802
vt 0.234848 0.086802
vt 0.234848 0.086802
vt 0.234848 0.086802
vt 0.234848 0.086802
vt 0.234848 0.086802
vt 0.234848 0.086802
vt 0.234848 0.086802
vt 0.205584 0.086802
vt 0.205584 0.086802
vt 0.205584 0.086802
vt 0.205584 0.086802
vn -0.000000 0.000000 1.000000
vn -0.000000 0.000000 1.000000
vn -0.000000 0.000000 1.000000
vn -0.000000 0.000000 1.000000
vn -0.000000 0.000000 1.000000
vn -0.000000 0.000000 1.000000
vn -0.000000 0.000000 1.000000
vn -0.000000 0.000000 1.000000
vn 0.000000 0.000000 1.000000
vn 0.000000 0.000000 1.000000
vn 0.000000 0.000000 1.000000
vn 0.000000 0.000000 1.000000
vn 0.000000 0.000000 1.000000
vn 0.000000 0.000000 1.000000
vn 0.000000 0.000000 1.000000
vn 0.000000 0.000000 1.000000
vn 0.000000 0.000000 1.000000
vn 0.000000 0.000000 1.000000
vn 0.000000 0.000000 1.000000
vn 0.000000 0.000000 1.000000
vn 0.000000 0.000000 1.000000
vn 0.000000 0.000000 1.000000
vn 0.000000 0.000000 1.000000
vn 0.000000 0.000000 1.000000
vn 0.000000 0.000000 1.000000
vn 0.000000 0.000000 1.000000
vn 0.000000 0.000000 1.000000
vn 0.000000 0.000000 1.000000
vn 0.000000 0.000000 1.000000
vn 0.000000 0.000000 1.000000
vn 0.000000 0.000000 1.000000
vn 0.000000 0.000000 1.000000
vn 0.000000 0.000000 1.000000
vn 0.000000 0.000000 1.000000
vn 0.000000 0.000000 1.000000
vn 0.000000 0.000000 1.000000
vn 0.000000 0.000000 1.000000
vn -0.000000 0.000000 -1.000000
vn -0.000000 0.000000 -1.000000
vn -0.000000 0.000000 -1.000000
vn -0.000000 0.000000 -1.000000
vn -0.000000 0.000000 -1.000000
vn -0.000000 0.000000 -1.000000
vn -0.000000 0.000000 -1.000000
vn -0.000000 0.000000 -1.000000
vn 0.000000 0.000000 -1.000000
vn 0.000000 0.000000 -1.000000
vn 0.000000 0.000000 -1.000000
vn 0.000000 0.000000 -1.000000
vn 0.000000 0.000000 -1.000000
vn 0.000000 0.000000 -1.000000
vn 0.000000 0.000000 -1.000000
vn 0.000000 0.000000 -1.000000
vn 0.000000 0.000000 -1.000000
vn 0.000000 0.000000 -1.000000
vn -0.000000 0.000000 -1.000000
vn -0.000000 0.000000 -1.000000
vn -0.000000 0.000000 -1.000000
vn -0.000000 0.000000 -1.000000
vn -0.000000 0.000000 -1.000000
vn -0.000000 0.000000 -1.000000
vn -0.000000 0.000000 -1.000000
vn -0.000000 0.000000 -1.000000
vn -0.000000 0.000000 -1.000000
vn -0.000000 0.000000 -1.000000
vn -0.000000 0.000000 -1.000000
vn -0.000000 0.000000 -1.000000
vn -0.000000 0.000000 -1.000000
vn -0.000000 0.000000 -1.000000
vn -0.000000 0.000000 -1.000000
vn -0.000000 0.000000 -1.000000
vn -0.000000 0.000000 -1.000000
vn -0.000000 0.000000 -1.000000
vn -0.000000 0.000000 -1.000000
vn -0.700471 -0.713681 0.000000
vn -0.700471 -0.713681 0.000000
vn -0.700471 -0.713681 0.000000
vn -0.700471 -0.713681 0.000000
vn 0.614941 0.788573 0.000000
vn 0.614941 0.788573 0.000000
vn 0.614941 0.788573 0.000000
vn 0.614941 0.788573 0.000000
vn 0.999542 0.030273 0.000000
vn 0.999542 0.030273 0.000000
vn 0.999542 0.030273 0.000000
vn 0.999542 0.030273 0.000000
vn -0.967362 -0.253398 0.000000
vn -0.967362 -0.253398 0.000000
vn -0.967362 -0.253398 0.000000
vn -0.967362 -0.253398 0.000000
vn -0.971674 -0.236324 0.000000
vn -0.971674 -0.236324 0.000000
vn -0.971674 -0.236324 0.000000
vn -0.971674 -0.236324 0.000000
vn -0.762913 -0.646501 0.000000
vn -0.762913 -0.646501 0.000000
vn -0.762913 -0.646501 0.000000
vn -0.762913 -0.646501 0.000000
vn -0.717449 -0.696611 0.000000
vn -0.717449 -0.696611 0.000000
vn -0.717449 -0.696611 0.000000
vn -0.717449 -0.696611 0.000000
vn -0.763461 -0.645854 0.000000
vn -0.763461 -0.645854 0.000000
vn -0.763461 -0.645854 0.000000
vn -0.763461 -0.645854 0.000000
vn -0.000003 1.000000 0.000000
vn -0.000003 1.000000 0.000000
vn -0.000003 1.000000 0.000000
vn -0.000003 1.000000 0.000000
vn -0.450326 0.892864 0.000000
vn -0.450326 0.892864 0.000000
vn -0.450326 0.892864 0.000000
vn -0.450326 0.892864 0.000000
vn -0.226635 0.973980 0.000000
vn -0.226635 0.973980 0.000000
vn -0.226635 0.973980 0.000000
vn -0.226635 0.973980 0.000000
vn 0.210174 0.977664 0.000000
vn 0.210174 0.977664 0.000000
vn 0.210174 0.977664 0.000000
vn 0.210174 0.977664 0.000000
vn 0.408338 0.912831 0.000000
vn 0.408338 0.912831 0.000000
vn 0.408338 0.912831 0.000000
vn 0.408338 0.912831 0.000000
vn 0.000002 1.000000 0.000000
vn 0.000002 1.000000 0.000000
vn 0.000002 1.000000 0.000000
vn 0.000002 1.000000 0.000000
vn -0.840779 0.541378 0.000000
vn -0.840779 0.541378 0.000000
vn -0.840779 0.541378 0.000000
vn -0.840779 0.541378 0.000000
vn 0.793418 -0.608677 0.000000
vn 0.793418 -0.608677 0.000000
vn 0.793418 -0.608677 0.000000
vn 0.793418 -0.608677 0.000000
vn -0.122873 -0.992423 0.000000
vn -0.122873 -0.992423 0.000000
vn -0.122873 -0.992423 0.000000
vn -0.122873 -0.992423 0.000000
vn 0.297273 -0.954793 0.000000
vn 0.297273 -0.954793 0.000000
vn 0.297273 -0.954793 0.000000
vn 0.297273 -0.954793 0.000000
vn 0.966544 -0.256501 0.000000
vn 0.966544 -0.256501 0.000000
vn 0.966544 -0.256501 0.000000
vn 0.966544 -0.256501 0.000000
vn 0.982031 -0.188720 0.000000
vn 0.982031 -0.188720 0.000000
vn 0.982031 -0.188720 0.000000
vn 0.982031 -0.188720 0.000000
vn 0.869989 0.493072 0.000000
vn 0.869989 0.493072 0.000000
vn 0.869989 0.493072 0.000000
vn 0.869989 0.493072 0.000000
vn 0.758630 -0.651522 0.000000
vn 0.758630 -0.651522 0.000000
vn 0.758630 -0.651522 0.000000
vn 0.758630 -0.651522 0.000000
vn -0.958617 0.284700 0.000000
vn -0.958617 0.284700 0.000000
vn -0.958617 0.284700 0.000000
vn -0.958617 0.284700 0.000000
vn 0.195985 -0.980607 0.000000
vn 0.195985 -0.980607 0.000000
vn 0.195985 -0.980607 0.000000
vn 0.195985 -0.980607 0.000000
vn -0.497225 -0.867621 0.000000
vn -0.497225 -0.867621 0.000000
vn -0.497225 -0.867621 0.000000
vn -0.497225 -0.867621 0.000000
vn -0.945866 -0.324558 0.000000
vn -0.945866 -0.324558 0.000000
vn -0.945866 -0.324558 0.000000
vn -0.945866 -0.324558 0.000000
vn -0.324560 0.945865 0.000000
vn -0.324560 0.945865 0.000000
vn -0.324560 0.945865 0.000000
vn -0.324560 0.945865 0.000000
vn 0.945866 0.324559 0.000000
vn 0.945866 0.324559 0.000000
vn 0.945866 0.324559 0.000000
vn 0.945866 0.324559 0.000000
vn 0.324560 -0.945865 0.000000
vn 0.324560 -0.945865 0.000000
vn 0.324560 -0.945865 0.000000
vn 0.324560 -0.945865 0.000000
vn 0.000000 0.000000 1.000000
vn 0.000000 0.000000 1.000000
vn 0.000000 0.000000 1.000000
vn 0.000000 0.000000 1.000000
vn 0.000000 0.000000 -1.000000
vn 0.000000 0.000000 -1.000000
vn 0.000000 0.000000 -1.000000
vn 0.000000 0.000000 -1.000000
vn -0.961559 0.274599 0.000000
vn -0.961559 0.274599 0.000000
vn -0.961559 0.274599 0.000000
vn -0.961559 0.274599 0.000000
vn 0.274595 0.961560 0.000000
vn 0.274595 0.961560 0.000000
vn 0.274595 0.961560 0.000000
vn 0.274595 0.961560 0.000000
vn 0.961557 -0.274607 0.000000
vn 0.961557 -0.274607 0.000000
vn 0.961557 -0.274607 0.000000
vn 0.961557 -0.274607 0.000000
vn -0.274606 -0.961557 0.000000
vn -0.274606 -0.961557 0.000000
vn -0.274606 -0.961557 0.000000
vn -0.274606 -0.961557 0.000000
vn 0.000000 0.000000 1.000000
vn 0.000000 0.000000 1.000000
vn 0.000000 0.000000 1.000000
vn 0.000000 0.000000 1.000000
vn 0.000000 0.000000 -1.000000
vn 0.000000 0.000000 -1.000000
vn 0.000000 0.000000 -1.000000
vn 0.000000 0.000000 -1.000000
vn -1.000000 0.000000 0.000000
vn -1.000000 0.000000 0.000000
vn -1.000000 0.000000 0.000000
vn -1.000000 0.000000 0.000000
vn 1.000000 0.000000 0.000000
vn 1.000000 0.000000 0.000000
vn 1.000000 0.000000 0.000000
vn 1.000000 0.000000 0.000000
vn 0.000000 0.000000 1.000000
vn 0.000000 0.000000 1.000000
vn 0.000000 0.000000 1.000000
vn 0.000000 0.000000 1.000000
vn 0.000000 0.000000 -1.000000
vn 0.000000 0.000000 -1.000000
vn 0.000000 0.000000 -1.000000
vn 0.000000 0.000000 -1.000000
vn -1.000000 0.000000 0.000000
vn -1.000000 0.000000 0.000000
vn -1.000000 0.000000 0.000000
vn -1.000000 0.000000 0.000000
vn 1.000000 0.000000 0.000000
vn 1.000000 0.000000 0.000000
vn 1.000000 0.000000 0.000000
vn 1.000000 0.000000 0.000000
vn 0.000000 0.000000 1.000000
vn 0.000000 0.000000 1.000000
vn 0.000000 0.000000 1.000000
vn 0.000000 0.000000 1.000000
vn 0.000000 0.000000 -1.000000
vn 0.000000 0.000000 -1.000000
vn 0.000000 0.000000 -1.000000
vn 0.000000 0.000000 -1.000000
vn -1.000000 0.000000 0.000000
vn -1.000000 0.000000 0.000000
vn -1.000000 0.000000 0.000000
vn -1.000000 0.000000 0.000000
vn 1.000000 0.000000 0.000000
vn 1.000000 0.000000 0.000000
vn 1.000000 0.000000 0.000000
vn 1.000000 0.000000 0.000000
vn 0.000000 0.000000 1.000000
vn 0.000000 0.000000 1.000000
vn 0.000000 0.000000 1.000000
vn 0.000000 0.000000 1.000000
vn 0.000000 0.000000 -1.000000
vn 0.000000 0.000000 -1.000000
vn 0.000000 0.000000 -1.000000
vn 0.000000 0.000000 -1.000000
vn -1.000000 0.000000 0.000000
vn -1.000000 0.000000 0.000000
vn -1.000000 0.000000 0.000000
vn -1.000000 0.000000 0.000000
vn 1.000000 0.000000 0.000000
vn 1.000000 0.000000 0.000000
vn 1.000000 0.000000 0.000000
vn 1.000000 0.000000 0.000000
vn 0.000000 0.000000 1.000000
vn 0.000000 0.000000 1.000000
vn 0.000000 0.000000 1.000000
vn 0.000000 0.000000 1.000000
vn 0.000000 0.000000 -1.000000
vn 0.000000 0.000000 -1.000000
vn 0.000000 0.000000 -1.000000
vn 0.000000 0.000000 -1.000000
vn -1.000000 0.000000 0.000000
vn -1.000000 0.000000 0.000000
vn -1.000000 0.000000 0.000000
vn -1.000000 0.000000 0.000000
vn 1.000000 0.000000 0.000000
vn 1.000000 0.000000 0.000000
vn 1.000000 0.000000 0.000000
vn 1.000000 0.000000 0.000000
vn 0.000000 0.000000 1.000000
vn 0.000000 0.000000 1.000000
vn 0.000000 0.000000 1.000000
vn 0.000000 0.000000 1.000000
vn 0.000000 0.000000 -1.000000
vn 0.000000 0.000000 -1.000000
vn 0.000000 0.000000 -1.000000
vn 0.000000 0.000000 -1.000000
vn 0.000000 1.000000 0.000000
vn 0.000000 1.000000 0.000000
vn 0.000000 1.000000 0.000000
vn 0.000000 1.000000 0.000000
vn 0.000000 -1.000000 0.000000
vn 0.000000 -1.000000 0.000000
vn 0.000000 -1.000000 0.000000
vn 0.000000 -1.000000 0.000000
vn 1.000000 0.000000 0.000000
vn 1.000000 0.000000 0.000000
vn 1.000000 0.000000 0.000000
vn 1.000000 0.000000 0.000000
vn -1.000000 0.000000 0.000000
vn -1.000000 0.000000 0.000000
vn -1.000000 0.000000 0.000000
vn -1.000000 0.000000 0.000000
vn 0.000000 0.000000 -1.000000
vn 0.000000 0.000000 -1.000000
vn 0.000000 0.000000 -1.000000
vn 0.000000 0.000000 -1.000000
vn 0.000000 0.000000 -1.000000
vn 0.000000 0.000000 -1.000000
vn 0.000000 0.000000 -1.000000
vn 0.000000 0.000000 -1.000000
vn 0.000000 0.000000 -1.000000
vn 0.000000 0.000000 -1.000000
vn 0.000000 0.000000 -1.000000
vn 0.000000 0.000000 -1.000000
vn -0.000000 0.000000 -1.000000
vn -0.000000 0.000000 -1.000000
vn -0.000000 0.000000 -1.000000
vn -0.000000 0.000000 -1.000000
vn 0.000000 0.000000 1.000000
vn 0.000000 0.000000 1.000000
vn 0.000000 0.000000 1.000000
vn 0.000000 0.000000 1.000000
vn 0.000000 0.000000 1.000000
vn 0.000000 0.000000 1.000000
vn 0.000000 0.000000 1.000000
vn 0.000000 0.000000 1.000000
vn 0.000000 0.000000 1.000000
vn 0.000000 0.000000 1.000000
vn 0.000000 0.000000 1.000000
vn 0.000000 0.000000 1.000000
vn 0.000000 0.000000 1.000000
vn 0.000000 0.000000 1.000000
vn 0.000000 0.000000 1.000000
vn 0.000000 0.000000 1.000000
vn 0.000000 1.000000 0.000000
vn 0.000000 1.000000 0.000000
vn 0.000000 1.000000 0.000000
vn 0.000000 1.000000 0.000000
vn 1.000000 0.000000 0.000000
vn 1.000000 0.000000 0.000000
vn 1.000000 0.000000 0.000000
vn 1.000000 0.000000 0.000000
vn -1.000000 0.000000 0.000000
vn -1.000000 0.000000 0.000000
vn -1.000000 0.000000 0.000000
vn -1.000000 0.000000 0.000000
vn 0.000000 -1.000000 0.000000
vn 0.000000 -1.000000 0.000000
vn 0.000000 -1.000000 0.000000
vn 0.000000 -1.000000 0.000000
s off
f 27/51/1 26/52/2 28/53/3 29/54/4 30/55/5 31/56/6 32/57/7 33/58/8
f 31/56/9 30/55/10 34/59/11 35/60/12 36/61/13 37/62/14 38/63/15 39/64/16 40/65/17 41/66/18
f 43/70/19 42/67/20 44/68/21 45/69/22
f 36/61/23 35/60/24 46/71/25 42/67/26 43/70/27 47/72/28 48/73/29
f 45/69/30 44/68/31 49/74/32 46/71/33 35/60/34 28/53/35 26/52/36 50/75/37
f 1/26/38 11/33/39 12/32/40 2/31/41 19/30/42 18/29/43 17/28/44 16/27/45
f 2/31/46 5/41/47 6/40/48 7/39/49 8/38/50 9/37/51 3/36/52 21/35/53 20/34/54 19/30/55
f 13/42/56 14/45/57 24/44/58 25/43/59
f 3/36/60 10/48/61 4/47/62 13/42/63 25/43/64 22/46/65 21/35/66
f 14/45/67 15/50/68 16/27/69 17/28/70 21/35/71 22/46/72 23/49/73 24/44/74
f 1/4/75 16/16/76 26/52/77 27/51/78
f 17/17/79 18/18/80 29/54/81 28/53/82
f 18/18/83 19/19/84 30/55/85 29/54/86
f 2/1/87 12/12/88 32/57/89 31/56/90
f 12/12/91 11/11/92 33/58/93 32/57/94
f 11/11/95 1/4/96 27/51/97 33/58/98
f 19/19/99 20/20/100 34/59/101 30/55/102
f 20/20/103 21/21/104 35/60/105 34/59/106
f 3/3/107 9/9/108 37/62/109 36/61/110
f 9/9/111 8/8/112 38/63/113 37/62/114
f 8/8/115 7/7/116 39/64/117 38/63/118
f 7/7/119 6/6/120 40/65/121 39/64/122
f 6/6/123 5/5/124 41/66/125 40/65/126
f 5/5/127 2/1/128 31/56/129 41/66/130
f 25/25/131 24/24/132 44/68/133 42/67/134
f 14/14/135 13/13/136 43/70/137 45/69/138
f 22/22/139 25/25/140 42/67/141 46/71/142
f 13/13/143 4/2/144 47/72/145 43/70/146
f 4/2/147 10/10/148 48/73/149 47/72/150
f 10/10/151 3/3/152 36/61/153 48/73/154
f 24/24/155 23/23/156 49/74/157 44/68/158
f 23/23/159 22/22/160 46/71/161 49/74/162
f 21/21/163 17/17/164 28/53/165 35/60/166
f 16/16/167 15/15/168 50/75/169 26/52/170
f 15/15/171 14/14/172 45/69/173 50/75/174
f 51/76/175 52/77/176 54/78/177 53/79/178
f 53/80/179 54/81/180 56/82/181 55/83/182
f 55/84/183 56/85/184 58/86/185 57/87/186
f 57/88/187 58/89/188 52/90/189 51/91/190
f 52/92/191 58/93/192 56/94/193 54/95/194
f 57/96/195 51/97/196 53/98/197 55/99/198
f 59/100/199 60/101/200 62/102/201 61/103/202
f 61/104/203 62/105/204 64/106/205 63/107/206
f 63/108/207 64/109/208 66/110/209 65/111/210
f 65/112/211 66/113/212 60/114/213 59/115/214
f 60/116/215 66/117/216 64/118/217 62/119/218
f 65/120/219 59/121/220 61/122/221 63/123/222
f 67/124/223 68/125/224 70/126/225 69/127/226
f 71/128/227 72/129/228 74/130/229 73/131/230
f 68/132/231 74/133/232 72/134/233 70/135/234
f 73/136/235 67/137/236 69/138/237 71/139/238
f 75/140/239 76/141/240 78/142/241 77/143/242
f 79/144/243 80/145/244 82/146/245 81/147/246
f 76/148/247 82/149/248 80/150/249 78/151/250
f 81/152/251 75/153/252 77/154/253 79/155/254
f 83/156/255 84/157/256 86/158/257 85/159/258
f 87/160/259 88/161/260 90/162/261 89/163/262
f 84/164/263 90/165/264 88/166/265 86/167/266
f 89/168/267 83/169/268 85/170/269 87/171/270
f 91/172/271 92/173/272 94/174/273 93/175/274
f 95/176/275 96/177/276 98/178/277 97/179/278
f 92/180/279 98/181/280 96/182/281 94/183/282
f 97/184/283 91/185/284 93/186/285 95/187/286
f 99/188/287 100/189/288 102/190/289 101/191/290
f 103/192/291 104/193/292 106/194/293 105/195/294
f 100/196/295 106/197/296 104/198/297 102/199/298
f 105/200/299 99/201/300 101/202/301 103/203/302
f 107/204/303 108/205/304 110/206/305 109/207/306
f 111/208/307 112/209/308 114/210/309 113/211/310
f 108/212/311 114/213/312 112/214/313 110/215/314
f 113/216/315 107/217/316 109/218/317 111/219/318
f 109/220/319 110/221/320 116/222/321 115/223/322
f 110/224/323 112/225/324 117/226/325 116/227/326
f 112/228/327 111/229/328 118/230/329 117/231/330
f 111/232/331 109/233/332 115/234/333 118/235/334
f 113/236/335 114/237/336 120/238/337 119/239/338
f 114/240/339 108/241/340 121/242/341 120/243/342
f 108/244/343 107/245/344 122/246/345 121/247/346
f 107/248/347 113/249/348 119/250/349 122/251/350
f 117/252/351 118/253/352 119/254/353 120/255/354
f 118/256/355 115/257/356 122/258/357 119/259/358
f 117/260/359 120/261/360 121/262/361 116/263/362
f 116/264/363 121/265/364 122/266/365 115/267/366
