# This file uses centimeters as units for non-parametric coordinates.

v -0.493162 0.000000 -0.064442
v -0.493162 0.000000 0.064440
v -0.493162 0.904787 -0.064442
v -0.493162 0.904787 0.064440
v 0.493162 0.904787 -0.064442
v 0.493162 0.904787 0.064440
v 0.493162 0.000000 -0.064442
v 0.493162 0.000000 0.064440
v 0.426657 0.066897 0.064440
v -0.426661 0.066897 0.064440
v 0.426657 0.837890 0.064440
v -0.426661 0.837890 0.064440
v 0.391344 0.098804 0.002819
v -0.391344 0.098804 0.002819
v 0.391344 0.805983 0.002819
v -0.391344 0.805983 0.002819
v 0.213490 0.782375 0.002819
v 0.349876 0.273365 0.002819
v -0.349863 0.631423 0.002819
v -0.213484 0.122412 0.002819
v 0.079561 0.698694 0.002819
v 0.253082 0.398144 0.002819
v -0.253080 0.506643 0.002819
v -0.079559 0.206094 0.002819
v 0.008198 0.613908 0.002819
v 0.161524 0.460579 0.002819
v -0.161512 0.444207 0.002819
v -0.008184 0.290880 0.002819
v -0.022888 0.559183 0.002819
v 0.103930 0.485964 0.002819
v -0.103928 0.418823 0.002819
v 0.022892 0.345604 0.002819
v -0.031090 0.513157 0.002819
v 0.057310 0.489470 0.002819
v -0.057308 0.415317 0.002819
v 0.031094 0.391631 0.002819
v -0.028780 0.484254 0.002819
v 0.028790 0.484254 0.002819
v -0.028782 0.420533 0.002819
v 0.028788 0.420534 0.002819
vt 0.200963 0.088417
vt 0.174502 0.088417
vt 0.235264 0.088417
vt 0.200963 0.088417
vt 0.174502 0.088417
vt 0.235264 0.088417
vt 0.140200 0.088417
vt 0.174502 0.088417
vt 0.140200 0.088417
vt 0.140200 0.088417
vt 0.200963 0.088417
vt 0.200963 0.088417
vt 0.200963 0.088417
vt 0.200963 0.088417
vt 0.235264 0.088417
vt 0.174502 0.088417
vt 0.174502 0.088417
vt 0.235264 0.088417
vt 0.200963 0.088417
vt 0.174502 0.088417
vt 0.174502 0.088417
vt 0.200963 0.088417
vt 0.140200 0.088417
vt 0.174502 0.088417
vt 0.172000 0.088417
vt 0.172000 0.088417
vt 0.172000 0.088417
vt 0.200963 0.088417
vt 0.172000 0.088417
vt 0.172000 0.088417
vt 0.200963 0.088417
vt 0.172000 0.088417
vt 0.200963 0.088417
vt 0.172000 0.088417
vt 0.172000 0.088417
vt 0.200963 0.088417
vt 0.200963 0.088417
vt 0.172000 0.088417
vt 0.172000 0.088417
vt 0.200963 0.088417
vt 0.200963 0.088417
vt 0.172000 0.088417
vt 0.200963 0.088417
vt 0.200963 0.088417
vt 0.200963 0.088417
vt 0.200963 0.088417
vt 0.200963 0.088417
vt 0.172000 0.088417
vt 0.200963 0.088417
vt 0.200963 0.088417
vt 0.200963 0.088417
vt 0.200963 0.088417
vt 0.201263 0.181317
vt 0.201263 0.181317
vt 0.201263 0.181317
vt 0.201263 0.181317
vt 0.173447 0.181317
vt 0.173447 0.181317
vt 0.173447 0.181317
vt 0.173447 0.181317
vt 0.143837 0.181317
vt 0.143837 0.181317
vt 0.143837 0.181317
vt 0.143837 0.181317
vt 0.112433 0.181317
vt 0.112433 0.181317
vt 0.112433 0.181317
vt 0.112433 0.181317
vt 0.080132 0.181317
vt 0.080132 0.181317
vt 0.080132 0.181317
vt 0.080132 0.181317
vt 0.049625 0.181317
vt 0.049625 0.181317
vt 0.049625 0.181317
vt 0.049625 0.181317
vt 0.016247 0.181920
vt 0.049625 0.181317
vt 0.049625 0.181317
vt 0.049625 0.181317
vt 0.173447 0.181317
vt 0.173447 0.181317
vt 0.173447 0.181317
vt 0.173447 0.181317
vt 0.173447 0.181317
vt 0.173447 0.181317
vt 0.201263 0.181317
vt 0.173447 0.181317
vt 0.173447 0.181317
vt 0.173447 0.181317
vt 0.201263 0.181317
vt 0.173447 0.181317
vt 0.201263 0.181317
vt 0.173447 0.181317
vt 0.201263 0.181317
vt 0.173447 0.181317
vt 0.143837 0.181317
vt 0.143837 0.181317
vt 0.143837 0.181317
vt 0.143837 0.181317
vt 0.143837 0.181317
vt 0.143837 0.181317
vt 0.143837 0.181317
vt 0.143837 0.181317
vt 0.143837 0.181317
vt 0.143837 0.181317
vt 0.143837 0.181317
vt 0.143837 0.181317
vt 0.112433 0.181317
vt 0.112433 0.181317
vt 0.112433 0.181317
vt 0.112433 0.181317
vt 0.112433 0.181317
vt 0.112433 0.181317
vt 0.112433 0.181317
vt 0.112433 0.181317
vt 0.112433 0.181317
vt 0.112433 0.181317
vt 0.112433 0.181317
vt 0.112433 0.181317
vt 0.080132 0.181317
vt 0.080132 0.181317
vt 0.080132 0.181317
vt 0.080132 0.181317
vt 0.080132 0.181317
vt 0.080132 0.181317
vt 0.080132 0.181317
vt 0.080132 0.181317
vt 0.080132 0.181317
vt 0.080132 0.181317
vt 0.080132 0.181317
vt 0.080132 0.181317
vt 0.049625 0.181317
vt 0.049625 0.181317
vt 0.049625 0.181317
vt 0.016247 0.181920
vt 0.049625 0.181317
vt 0.016247 0.181920
vt 0.049625 0.181317
vt 0.049625 0.181317
vt 0.016247 0.181920
vt 0.049625 0.181317
vt 0.049625 0.181317
vt 0.049625 0.181317
vn -1.000000 0.000000 0.000000
vn -1.000000 0.000000 0.000000
vn -1.000000 0.000000 0.000000
vn -1.000000 0.000000 0.000000
vn 0.000000 1.000000 0.000000
vn 0.000000 1.000000 0.000000
vn 0.000000 1.000000 0.000000
vn 0.000000 1.000000 0.000000
vn 1.000000 0.000000 0.000000
vn 1.000000 0.000000 0.000000
vn 1.000000 0.000000 0.000000
vn 1.000000 0.000000 0.000000
vn 0.000000 -1.000000 0.000000
vn 0.000000 -1.000000 0.000000
vn 0.000000 -1.000000 0.000000
vn 0.000000 -1.000000 0.000000
vn 0.000000 0.000000 -1.000000
vn 0.000000 0.000000 -1.000000
vn 0.000000 0.000000 -1.000000
vn 0.000000 0.000000 -1.000000
vn 0.000000 0.000000 1.000000
vn 0.000000 0.000000 1.000000
vn 0.000000 0.000000 1.000000
vn 0.000000 0.000000 1.000000
vn 0.000000 0.000000 1.000000
vn 0.000000 0.000000 1.000000
vn 0.000000 0.000000 1.000000
vn 0.000000 0.000000 1.000000
vn 0.000000 0.000000 1.000000
vn 0.000000 0.000000 1.000000
vn 0.000000 0.000000 1.000000
vn 0.000000 0.000000 1.000000
vn -0.000000 0.000000 1.000000
vn -0.000000 0.000000 1.000000
vn -0.000000 0.000000 1.000000
vn -0.000000 0.000000 1.000000
vn 0.000000 0.888019 0.459807
vn 0.000000 0.888019 0.459807
vn 0.000000 0.888019 0.459807
vn 0.000000 0.888019 0.459807
vn -0.867634 0.000000 0.497204
vn -0.867634 0.000000 0.497204
vn -0.867634 0.000000 0.497204
vn -0.867634 0.000000 0.497204
vn 0.000000 -0.888018 0.459808
vn 0.000000 -0.888018 0.459808
vn 0.000000 -0.888018 0.459808
vn 0.000000 -0.888018 0.459808
vn 0.867610 0.000000 0.497245
vn 0.867610 0.000000 0.497245
vn 0.867610 0.000000 0.497245
vn 0.867610 0.000000 0.497245
vn 0.000000 0.000000 1.000000
vn 0.000000 0.000000 1.000000
vn 0.000000 0.000000 1.000000
vn 0.000000 0.000000 1.000000
vn 0.000000 0.000000 1.000000
vn 0.000000 0.000000 1.000000
vn 0.000000 0.000000 1.000000
vn -0.000000 0.000000 1.000000
vn -0.000000 0.000000 1.000000
vn -0.000000 0.000000 1.000000
vn -0.000000 0.000000 1.000000
vn -0.000000 0.000000 1.000000
vn -0.000000 0.000000 1.000000
vn 0.000000 0.000000 1.000000
vn 0.000000 0.000000 1.000000
vn 0.000000 0.000000 1.000000
vn 0.000000 0.000000 1.000000
vn 0.000000 0.000000 1.000000
vn 0.000000 0.000000 1.000000
vn 0.000000 0.000000 1.000000
vn 0.000000 0.000000 1.000000
vn 0.000000 0.000000 1.000000
vn 0.000000 0.000000 1.000000
vn 0.000000 0.000000 1.000000
vn 0.000000 0.000000 1.000000
vn 0.000000 0.000000 1.000000
vn 0.000000 0.000000 1.000000
vn 0.000000 0.000000 1.000000
vn -0.000000 0.000000 1.000000
vn -0.000000 0.000000 1.000000
vn -0.000000 0.000000 1.000000
vn -0.000000 0.000000 1.000000
vn -0.000000 0.000000 1.000000
vn -0.000000 0.000000 1.000000
vn -0.000000 0.000000 1.000000
vn -0.000000 0.000000 1.000000
vn -0.000000 0.000000 1.000000
vn -0.000000 0.000000 1.000000
vn -0.000000 0.000000 1.000000
vn -0.000000 0.000000 1.000000
vn 0.000000 0.000000 1.000000
vn 0.000000 0.000000 1.000000
vn 0.000000 0.000000 1.000000
vn 0.000000 0.000000 1.000000
vn -0.000000 0.000000 1.000000
vn -0.000000 0.000000 1.000000
vn -0.000000 0.000000 1.000000
vn -0.000000 0.000000 1.000000
vn -0.000000 0.000000 1.000000
vn -0.000000 0.000000 1.000000
vn -0.000000 0.000000 1.000000
vn -0.000000 0.000000 1.000000
vn 0.000000 0.000000 1.000000
vn 0.000000 0.000000 1.000000
vn 0.000000 0.000000 1.000000
vn 0.000000 0.000000 1.000000
vn 0.000000 0.000000 1.000000
vn 0.000000 0.000000 1.000000
vn 0.000000 0.000000 1.000000
vn 0.000000 0.000000 1.000000
vn 0.000000 0.000000 1.000000
vn 0.000000 0.000000 1.000000
vn 0.000000 0.000000 1.000000
vn 0.000000 0.000000 1.000000
vn 0.000000 0.000000 1.000000
vn 0.000000 0.000000 1.000000
vn 0.000000 0.000000 1.000000
vn 0.000000 0.000000 1.000000
vn 0.000000 0.000000 1.000000
vn 0.000000 0.000000 1.000000
vn 0.000000 0.000000 1.000000
vn 0.000000 0.000000 1.000000
vn 0.000000 0.000000 1.000000
vn 0.000000 0.000000 1.000000
vn 0.000000 0.000000 1.000000
vn 0.000000 0.000000 1.000000
vn 0.000000 0.000000 1.000000
vn 0.000000 0.000000 1.000000
vn 0.000000 0.000000 1.000000
vn 0.000000 0.000000 1.000000
vn 0.000000 0.000000 1.000000
vn 0.000000 0.000000 1.000000
vn 0.000000 0.000000 1.000000
vn 0.000000 0.000000 1.000000
vn -0.000000 0.000000 1.000000
vn -0.000000 0.000000 1.000000
vn -0.000000 0.000000 1.000000
vn -0.000000 0.000000 1.000000
vn -0.000000 0.000000 1.000000
vn -0.000000 0.000000 1.000000
vn -0.000000 0.000000 1.000000
vn -0.000000 0.000000 1.000000
vn 0.000000 0.000000 1.000000
vn 0.000000 0.000000 1.000000
vn 0.000000 0.000000 1.000000
vn 0.000000 0.000000 1.000000
vn 0.000000 0.000000 1.000000
vn 0.000000 0.000000 1.000000
vn 0.000000 0.000000 1.000000
vn 0.000000 0.000000 1.000000
vn -0.000000 0.000000 1.000000
vn -0.000000 0.000000 1.000000
vn 0.000000 0.000000 1.000000
vn -0.000000 0.000000 1.000000
vn -0.000000 0.000000 1.000000
vn 0.000000 0.000000 1.000000
vn 0.000000 0.000000 1.000000
vn 0.000000 0.000000 1.000000
s off
f 1/20/1 2/2/2 4/21/3 3/17/4
f 3/3/5 4/15/6 6/6/7 5/18/8
f 5/5/9 6/16/10 8/8/11 7/24/12
f 7/7/13 8/23/14 2/10/15 1/9/16
f 7/13/17 1/1/18 3/22/19 5/14/20
f 2/19/21 8/52/22 9/47/23 10/43/24
f 8/11/25 6/50/26 11/41/27 9/46/28
f 6/12/29 4/49/30 12/37/31 11/40/32
f 4/4/33 2/51/34 10/44/35 12/36/36
f 10/25/37 9/48/38 13/39/39 14/32/40
f 9/26/41 11/42/42 15/35/43 13/29/44
f 11/27/45 12/38/46 16/34/47 15/30/48
f 12/28/49 10/45/50 14/33/51 16/31/52
f 38/77/53 37/136/54 39/138/55 40/141/56
f 18/93/57 15/54/58 17/95/59
f 17/95/60 16/55/61 19/91/62
f 19/91/63 14/56/64 20/87/65
f 20/87/66 13/53/67 18/93/68
f 18/57/69 17/96/70 21/90/71 22/81/72
f 17/58/73 19/92/74 23/86/75 21/89/76
f 19/59/77 20/88/78 24/84/79 23/85/80
f 20/60/81 18/94/82 22/82/83 24/83/84
f 22/61/85 21/108/86 25/105/87 26/97/88
f 21/62/89 23/106/90 27/102/91 25/104/92
f 23/63/93 24/103/94 28/100/95 27/101/96
f 24/64/97 22/107/98 26/98/99 28/99/100
f 26/65/101 25/120/102 29/117/103 30/109/104
f 25/66/105 27/118/106 31/114/107 29/116/108
f 27/67/109 28/115/110 32/112/111 31/113/112
f 28/68/113 26/119/114 30/110/115 32/111/116
f 30/69/117 29/132/118 33/129/119 34/121/120
f 29/70/121 31/130/122 35/126/123 33/128/124
f 31/71/125 32/127/126 36/124/127 35/125/128
f 32/72/129 30/131/130 34/122/131 36/123/132
f 34/73/133 33/144/134 37/140/135 38/133/136
f 33/74/137 35/142/138 39/137/139 37/78/140
f 35/75/141 36/139/142 40/135/143 39/79/144
f 36/76/145 34/143/146 38/134/147 40/80/148
f 14/56/149 13/53/150 20/87/151
f 16/55/152 14/56/153 19/91/154
f 15/54/155 16/55/156 17/95/157
f 13/53/158 15/54/159 18/93/160
