# This file uses centimeters as units for non-parametric coordinates.

v -0.332083 0.000000 0.534361
v 0.327784 0.000000 0.534361
v -0.332083 0.638854 0.534361
v 0.327784 0.638854 0.534361
v -0.332083 0.638854 -0.498647
v 0.327784 0.638854 -0.498647
v -0.332083 0.000000 -0.498647
v 0.327784 0.000000 -0.498647
v -0.294750 0.638854 0.500534
v 0.290452 0.638854 0.500534
v 0.290452 0.638854 -0.464820
v -0.294750 0.638854 -0.464820
v -0.294750 0.044847 0.500534
v 0.290452 0.044847 0.500534
v 0.290452 0.044847 -0.464820
v -0.294750 0.044847 -0.464820
v 0.327784 0.041171 0.092036
v 0.327784 0.041171 0.445428
v 0.327784 0.215112 0.092036
v 0.327784 0.215112 0.445428
v 0.327784 0.215112 0.287998
v 0.327784 0.041171 0.287998
v 0.327784 0.215112 0.251806
v 0.327784 0.041171 0.251806
v -0.332083 0.049634 -0.435678
v -0.332083 0.049634 -0.240090
v -0.332083 0.235212 -0.240090
v -0.332083 0.235212 -0.435678
v -0.332083 0.745084 0.835257
v 0.327784 0.745083 0.835257
v 0.290452 0.763250 0.821775
v -0.294750 0.763250 0.821775
v -0.332083 0.742934 -0.835258
v 0.327784 0.742934 -0.835258
v -0.294750 0.763512 -0.819963
v 0.290452 0.763512 -0.819963
v -0.612587 0.744433 0.534361
v -0.612587 0.744433 -0.498647
v -0.601193 0.755776 0.500534
v -0.601193 0.755776 -0.464820
v 0.612587 0.745889 0.534361
v 0.612587 0.745889 -0.498647
v 0.595388 0.757753 -0.464820
v 0.595388 0.757753 0.500534
v 0.244817 0.000000 0.534361
v -0.332083 0.303728 0.534361
v -0.332083 0.107587 -0.240090
v 0.133798 0.121939 0.534361
v -0.052667 0.156138 0.534361
v -0.215188 0.296147 0.534361
v -0.332083 0.199264 0.359040
v -0.332083 0.191987 0.020722
v -0.332083 0.087822 -0.173381
v -0.332083 0.162235 -0.435678
v -0.332083 0.260599 -0.498647
v 0.327784 0.321674 -0.498647
v 0.327784 0.036554 0.025789
v 0.327784 0.000000 0.152938
v -0.128512 0.323140 -0.498647
v 0.031654 0.261581 -0.498647
v 0.193928 0.237970 -0.498647
v 0.327784 0.317135 -0.403544
v 0.327784 0.188571 -0.276944
v 0.327784 0.126190 -0.071064
vt 0.329772 0.397534
vt 0.364802 0.397534
vt 0.368559 0.397534
vt 0.389338 0.397534
vt 0.364802 0.397534
vt 0.368559 0.397534
vt 0.267410 0.397534
vt 0.305236 0.397534
vt 0.267410 0.397534
vt 0.267410 0.397534
vt 0.329772 0.397534
vt 0.389337 0.397534
vt 0.329772 0.397534
vt 0.389338 0.397534
vt 0.302841 0.397534
vt 0.364802 0.397534
vt 0.364802 0.397534
vt 0.302841 0.397534
vt 0.267410 0.397534
vt 0.305236 0.397534
vt 0.389338 0.397534
vt 0.364802 0.397534
vt 0.305236 0.397534
vt 0.389338 0.397534
vt 0.272223 0.397534
vt 0.301347 0.397534
vt 0.272223 0.397534
vt 0.301348 0.397534
vt 0.330472 0.397534
vt 0.301347 0.397534
vt 0.272223 0.397534
vt 0.301348 0.397534
vt 0.272223 0.397534
vt 0.301348 0.397534
vt 0.272223 0.397534
vt 0.330472 0.397534
vt 0.301347 0.397534
vt 0.330472 0.397534
vt 0.368559 0.397534
vt 0.272223 0.397534
vt 0.272223 0.397534
vt 0.330472 0.397534
vt 0.423074 0.397534
vt 0.301347 0.397534
vt 0.368559 0.397534
vt 0.272223 0.397534
vt 0.423074 0.397534
vt 0.301348 0.397534
vt 0.389338 0.397534
vt 0.389337 0.397534
vt 0.389337 0.397534
vt 0.389338 0.397534
vt 0.389338 0.397534
vt 0.389338 0.397534
vt 0.389338 0.397534
vt 0.389338 0.397534
vt 0.236219 0.064319
vt 0.236219 0.064319
vt 0.236219 0.064319
vt 0.236219 0.064319
vt 0.236219 0.064319
vt 0.236219 0.064319
vt 0.236219 0.064319
vt 0.236219 0.064319
vt 0.170705 0.062225
vt 0.329772 0.397534
vt 0.389338 0.397534
vt 0.389338 0.397534
vt 0.230271 0.062225
vt 0.329772 0.397534
vt 0.230271 0.062225
vt 0.170706 0.062225
vt 0.368559 0.397534
vt 0.368559 0.397534
vt 0.423074 0.397534
vt 0.368559 0.397534
vt 0.368559 0.397534
vt 0.368559 0.397534
vt 0.423074 0.397534
vt 0.368559 0.397534
vt 0.368559 0.397534
vt 0.368559 0.397534
vt 0.423074 0.397534
vt 0.368559 0.397534
vt 0.368559 0.397534
vt 0.368559 0.397534
vt 0.423074 0.397534
vt 0.368559 0.397534
vt 0.423074 0.397534
vt 0.368559 0.397534
vt 0.423074 0.397534
vt 0.423074 0.397534
vt 0.423074 0.397534
vt 0.368559 0.397534
vt 0.368559 0.397534
vt 0.423074 0.397534
vt 0.423074 0.397534
vt 0.423074 0.397534
vt 0.423074 0.397534
vt 0.368559 0.397534
vt 0.368559 0.397534
vt 0.423074 0.397534
vt 0.423074 0.397534
vt 0.368559 0.397534
vt 0.302841 0.397534
vt 0.368559 0.397534
vt 0.368559 0.397534
vt 0.368559 0.397534
vt 0.368559 0.397534
vt 0.302841 0.397534
vt 0.368559 0.397534
vt 0.368559 0.397534
vt 0.368559 0.397534
vt 0.302841 0.397534
vt 0.302841 0.397534
vt 0.302841 0.397534
vt 0.368559 0.397534
vt 0.368559 0.397534
vt 0.302841 0.397534
vt 0.368559 0.397534
vt 0.368559 0.397534
vt 0.368559 0.397534
vt 0.368559 0.397534
vt 0.302841 0.397534
vt 0.368559 0.397534
vt 0.368559 0.397534
vt 0.302841 0.397534
vt 0.368559 0.397534
vt 0.368559 0.397534
vt 0.368559 0.397534
vt 0.302841 0.397534
vt 0.302841 0.397534
vt 0.302841 0.397534
vt 0.368559 0.397534
vt 0.368559 0.397534
vt 0.368559 0.397534
vt 0.302841 0.397534
vt 0.368559 0.397534
vt 0.302841 0.397534
vt 0.368559 0.397534
vt 0.368559 0.397534
vt 0.368559 0.397534
vt 0.302841 0.397534
vt 0.368559 0.397534
vt 0.364802 0.397534
vt 0.267410 0.397534
vt 0.364802 0.397534
vt 0.389338 0.397534
vt 0.230271 0.062225
vt 0.389338 0.397534
vt 0.364802 0.397534
vt 0.364802 0.397534
vt 0.364802 0.397534
vt 0.389338 0.397534
vt 0.389338 0.397534
vt 0.389338 0.397534
vt 0.230271 0.062225
vt 0.389338 0.397534
vt 0.364802 0.397534
vt 0.389338 0.397534
vt 0.364802 0.397534
vt 0.389337 0.397534
vt 0.389337 0.397534
vt 0.267410 0.397534
vt 0.329772 0.397534
vt 0.364802 0.397534
vt 0.364802 0.397534
vt 0.364802 0.397534
vt 0.389337 0.397534
vt 0.389337 0.397534
vt 0.389337 0.397534
vt 0.329772 0.397534
vt 0.329772 0.397534
vt 0.389338 0.397534
vt 0.329772 0.397534
vt 0.329772 0.397534
vt 0.329772 0.397534
vt 0.305236 0.397534
vt 0.329772 0.397534
vt 0.305236 0.397534
vt 0.305236 0.397534
vt 0.305236 0.397534
vt 0.329772 0.397534
vt 0.305236 0.397534
vt 0.170705 0.062225
vt 0.329772 0.397534
vt 0.329772 0.397534
vt 0.170706 0.062225
vt 0.329772 0.397534
vt 0.329772 0.397534
vt 0.329772 0.397534
vt 0.329772 0.397534
vt 0.329772 0.397534
vt 0.305236 0.397534
vt 0.329772 0.397534
vt 0.305236 0.397534
vt 0.305236 0.397534
vt 0.305236 0.397534
vt 0.305236 0.397534
vt 0.329772 0.397534
vt 0.329772 0.397534
vt 0.329772 0.397534
vn -0.000000 0.000000 1.000000
vn -0.000000 0.000000 1.000000
vn -0.000000 0.000000 1.000000
vn -0.000000 0.000000 1.000000
vn -0.000000 0.000000 1.000000
vn -0.000000 0.000000 1.000000
vn -0.000000 1.000000 0.000000
vn -0.000000 1.000000 0.000000
vn -0.000000 1.000000 0.000000
vn -0.000000 1.000000 0.000000
vn -0.000000 -0.000000 -1.000000
vn -0.000000 0.000000 -1.000000
vn -0.000000 0.000000 -1.000000
vn -0.000000 0.000000 -1.000000
vn -0.000000 0.000000 -1.000000
vn 0.000000 0.000000 -1.000000
vn 0.000000 0.000000 -1.000000
vn 0.000000 -1.000000 0.000000
vn 0.000000 -1.000000 0.000000
vn 0.000000 -1.000000 0.000000
vn 0.000000 -1.000000 0.000000
vn 0.000000 -1.000000 0.000000
vn 0.000000 -1.000000 0.000000
vn 1.000000 0.000000 0.000000
vn 1.000000 0.000000 0.000000
vn 1.000000 0.000000 0.000000
vn 1.000000 0.000000 0.000000
vn -1.000000 0.000000 0.000000
vn -1.000000 0.000000 0.000000
vn -1.000000 0.000000 0.000000
vn -1.000000 0.000000 0.000000
vn 0.000000 0.595957 0.803017
vn 0.000000 0.595957 0.803017
vn 0.000000 0.595957 0.803017
vn 0.000000 0.595957 0.803017
vn 0.567821 0.823152 0.000000
vn 0.567821 0.823152 0.000000
vn 0.567821 0.823152 0.000000
vn 0.567821 0.823152 0.000000
vn 0.000000 0.596527 -0.802593
vn 0.000000 0.596527 -0.802593
vn 0.000000 0.596527 -0.802593
vn 0.000000 0.596527 -0.802593
vn -0.705547 0.708663 0.000000
vn -0.705547 0.708663 0.000000
vn -0.705547 0.708663 0.000000
vn -0.705547 0.708663 0.000000
vn 0.000000 0.000000 -1.000000
vn 0.000000 0.000000 -1.000000
vn 0.000000 0.000000 -1.000000
vn 0.000000 0.000000 -1.000000
vn -1.000000 0.000000 0.000000
vn -1.000000 0.000000 0.000000
vn -1.000000 0.000000 0.000000
vn -1.000000 0.000000 0.000000
vn -0.000000 0.000000 1.000000
vn -0.000000 0.000000 1.000000
vn -0.000000 0.000000 1.000000
vn -0.000000 0.000000 1.000000
vn 1.000000 0.000000 0.000000
vn 1.000000 0.000000 0.000000
vn 1.000000 0.000000 0.000000
vn 1.000000 0.000000 0.000000
vn 1.000000 0.000001 0.000000
vn 1.000000 0.000000 0.000000
vn 1.000000 -0.000000 0.000000
vn 1.000000 0.000000 0.000000
vn 1.000000 -0.000000 0.000000
vn 1.000000 -0.000000 0.000000
vn 1.000000 -0.000000 0.000000
vn 1.000000 -0.000000 0.000000
vn 1.000000 0.000001 0.000000
vn 1.000000 0.000000 0.000000
vn 1.000000 0.000000 0.000000
vn 1.000000 0.000000 0.000000
vn 1.000000 0.000000 0.000000
vn 1.000000 0.000000 0.000000
vn 1.000000 0.000000 0.000000
vn 1.000000 0.000000 0.000000
vn 1.000000 0.000000 0.000000
vn 1.000000 0.000000 0.000000
vn 1.000000 0.000000 0.000000
vn 1.000000 0.000000 0.000000
vn 1.000000 0.000000 0.000000
vn 1.000000 0.000000 0.000000
vn 1.000000 0.000000 0.000000
vn 1.000000 0.000000 0.000000
vn 1.000000 0.000000 0.000000
vn 1.000000 0.000000 0.000000
vn 1.000000 0.000000 0.000000
vn -1.000000 -0.000000 0.000000
vn -1.000000 -0.000000 0.000000
vn -1.000000 -0.000000 0.000000
vn -1.000000 -0.000000 0.000000
vn -1.000000 0.000000 0.000000
vn -1.000000 -0.000000 0.000000
vn -1.000000 0.000000 -0.000000
vn -1.000000 0.000000 -0.000000
vn -1.000000 0.000000 0.000000
vn -1.000000 -0.000000 0.000000
vn -1.000000 0.000000 0.000000
vn -1.000000 0.000000 0.000000
vn -1.000000 0.000000 0.000000
vn -1.000000 0.000000 0.000000
vn -1.000000 0.000000 0.000000
vn -1.000000 0.000000 0.000000
vn -1.000000 0.000000 0.000000
vn -1.000000 0.000000 0.000000
vn -1.000000 0.000000 0.000000
vn -0.000000 -0.942960 0.332905
vn -0.000000 -0.942960 0.332905
vn -0.000000 -0.942960 0.332905
vn -0.000000 -0.942960 0.332905
vn 0.409130 0.855582 -0.317162
vn 0.409130 0.855582 -0.317162
vn 0.409130 0.855582 -0.317162
vn 0.409130 0.855582 -0.317162
vn 0.000000 0.932525 -0.361106
vn 0.000000 0.932525 -0.361106
vn 0.000000 0.932525 -0.361106
vn 0.000000 0.932525 -0.361106
vn -0.409120 0.855586 -0.317164
vn -0.409120 0.855586 -0.317164
vn -0.409120 0.855586 -0.317164
vn -0.409120 0.855586 -0.317164
vn 0.000000 -0.955374 -0.295399
vn 0.000000 -0.955374 -0.295399
vn 0.000000 -0.955374 -0.295399
vn 0.000000 -0.955374 -0.295399
vn -0.424038 0.859856 0.284322
vn -0.424038 0.859856 0.284322
vn -0.424038 0.859856 0.284322
vn -0.424038 0.859856 0.284322
vn 0.000000 0.943561 0.331198
vn 0.000000 0.943561 0.331198
vn 0.000000 0.943561 0.331198
vn 0.000000 0.943561 0.331198
vn 0.424046 0.859852 0.284321
vn 0.424046 0.859852 0.284321
vn 0.424046 0.859852 0.284321
vn 0.424046 0.859852 0.284321
vn -0.352262 -0.935901 0.000000
vn -0.352262 -0.935901 0.000000
vn -0.352262 -0.935901 0.000000
vn -0.352262 -0.935901 0.000000
vn 0.327730 0.864538 0.381008
vn 0.327730 0.864538 0.381008
vn 0.327730 0.864538 0.381008
vn 0.327730 0.864538 0.381008
vn 0.356479 0.934303 0.000000
vn 0.356479 0.934303 0.000000
vn 0.356479 0.934303 0.000000
vn 0.356479 0.934303 0.000000
vn 0.327730 0.864539 -0.381005
vn 0.327730 0.864539 -0.381005
vn 0.327730 0.864539 -0.381005
vn 0.327730 0.864539 -0.381005
vn 0.351796 -0.936077 0.000000
vn 0.351796 -0.936077 0.000000
vn 0.351796 -0.936077 0.000000
vn 0.351796 -0.936077 0.000000
vn -0.325982 0.850889 -0.411974
vn -0.325982 0.850889 -0.411974
vn -0.325982 0.850889 -0.411974
vn -0.325982 0.850889 -0.411974
vn -0.363276 0.931682 0.000000
vn -0.363276 0.931682 0.000000
vn -0.363276 0.931682 0.000000
vn -0.363276 0.931682 0.000000
vn -0.325982 0.850889 0.411975
vn -0.325982 0.850889 0.411975
vn -0.325982 0.850889 0.411975
vn -0.325982 0.850889 0.411975
vn -0.000000 0.000000 1.000000
vn -0.000000 0.000000 1.000000
vn -0.000000 0.000000 1.000000
vn -0.000000 0.000000 1.000000
vn -0.000000 0.000000 1.000000
vn -0.000000 0.000000 1.000000
vn -0.000000 0.000000 1.000000
vn -0.000000 0.000000 1.000000
vn -1.000000 -0.000000 0.000000
vn -1.000000 0.000000 0.000000
vn -1.000000 0.000000 -0.000000
vn -1.000000 0.000000 -0.000000
vn -1.000000 -0.000000 0.000000
vn -1.000000 0.000000 0.000000
vn -1.000000 0.000000 0.000000
vn -1.000000 0.000000 0.000000
vn -1.000000 0.000000 0.000000
vn -1.000000 0.000000 0.000000
vn -1.000000 0.000000 0.000000
vn -1.000000 0.000000 0.000000
vn -1.000000 0.000000 0.000000
vn -1.000000 0.000000 0.000000
vn -1.000000 0.000000 0.000000
vn 0.000000 0.000000 -1.000000
vn 0.000000 0.000000 -1.000000
vn -0.000000 0.000000 -1.000000
vn -0.000000 0.000000 -1.000000
vn -0.000000 0.000000 -1.000000
vn -0.000000 0.000000 -1.000000
vn -0.000000 -0.000000 -1.000000
vn 1.000000 0.000001 0.000000
vn 1.000000 -0.000000 0.000000
vn 1.000000 -0.000000 0.000000
vn 1.000000 -0.000000 0.000000
vn 1.000000 -0.000000 0.000000
vn 1.000000 0.000000 0.000000
vn 1.000000 0.000000 0.000000
vn 1.000000 0.000000 0.000000
vn 1.000000 -0.000000 0.000000
vn 1.000000 0.000000 0.000000
vn 1.000000 0.000001 0.000000
vn 1.000000 -0.000000 0.000000
vn 1.000000 -0.000000 0.000000
vn 1.000000 -0.000000 0.000000
vn 1.000000 -0.000000 0.000000
s off
f 1/23/1 45/199/2 48/198/3 49/197/4 50/196/5 46/194/6
f 13/29/7 14/42/8 15/38/9 16/36/10
f 55/184/11 59/182/12 60/181/13 61/180/14 56/178/15 8/8/16 7/20/17
f 7/7/18 8/19/19 58/164/20 2/10/21 45/146/22 1/9/23
f 23/57/24 24/58/25 17/59/26 19/60/27
f 25/65/28 26/72/29 47/188/30 54/185/31
f 29/73/32 30/144/33 31/142/34 32/141/35
f 41/85/36 42/111/37 43/108/38 44/107/39
f 34/77/40 33/138/41 35/136/42 36/135/43
f 38/81/44 37/125/45 39/122/46 40/121/47
f 9/25/48 10/46/49 14/41/50 13/33/51
f 10/26/52 11/44/53 15/37/54 14/30/55
f 11/27/56 12/40/57 16/35/58 15/31/59
f 12/28/60 9/48/61 13/34/62 16/32/63
f 57/173/64 58/165/65 8/11/66
f 8/189/67 56/179/68 62/177/69 63/176/70 64/175/71 57/172/72
f 6/12/73 4/4/74 20/52/75 21/53/76 23/55/77 19/51/78
f 4/4/79 2/21/80 18/49/81 20/52/82
f 18/61/83 22/62/84 21/63/85 20/64/86
f 21/53/87 22/54/88 24/56/89 23/55/90
f 1/1/91 26/202/92 25/70/93 7/201/94
f 1/200/95 46/195/96 51/193/97 52/192/98 53/191/99 47/187/100 26/66/101
f 3/24/102 5/14/103 28/68/104 27/67/105
f 54/186/106 55/183/107 7/13/108 25/190/109
f 3/131/110 4/116/111 30/143/112 29/139/113
f 4/117/114 10/109/115 31/104/116 30/74/117
f 10/91/118 9/99/119 32/103/120 31/75/121
f 9/100/122 3/130/123 29/140/124 32/76/125
f 6/114/126 5/127/127 33/137/128 34/133/129
f 5/128/130 12/123/131 35/101/132 33/78/133
f 12/97/134 11/93/135 36/102/136 35/79/137
f 11/94/138 6/113/139 34/134/140 36/80/141
f 5/18/142 3/132/143 37/124/144 38/119/145
f 3/3/146 9/126/147 39/95/148 37/82/149
f 9/47/150 12/98/151 40/96/152 39/83/153
f 12/39/154 5/129/155 38/120/156 40/84/157
f 4/15/158 6/115/159 42/110/160 41/105/161
f 6/6/162 11/112/163 43/90/164 42/86/165
f 11/43/166 10/92/167 44/89/168 43/87/169
f 10/45/170 4/118/171 41/106/172 44/88/173
f 46/147/174 50/153/175 49/152/176 48/151/177 45/145/178 2/2/179 4/22/180 3/17/181
f 47/150/182 53/156/183 52/155/184 51/154/185 46/148/186 3/24/187 27/67/188
f 54/157/189 47/149/190 27/71/191 28/69/192
f 5/14/193 55/160/194 54/158/195 28/68/196
f 5/5/197 6/16/198 56/161/199 61/168/200 60/167/201 59/166/202 55/159/203
f 57/163/204 64/171/205 63/170/206 62/169/207 56/162/208 6/12/209 19/51/210 17/50/211
f 2/21/212 58/174/213 57/163/214 17/50/215 24/56/216 22/54/217 18/49/218
