# This file uses centimeters as units for non-parametric coordinates.

v -0.426147 0.246165 0.083246
v -0.426147 1.127018 0.083246
v 0.486057 1.127018 0.083246
v 0.486057 0.246165 0.083246
v 0.486057 0.246165 -0.190857
v 0.486057 1.127018 -0.190857
v -0.426147 1.127018 -0.190857
v -0.426147 0.246165 -0.190857
v 0.342188 0.385088 -0.660861
v -0.282280 0.385088 -0.660861
v -0.282280 0.988095 -0.660861
v 0.342188 0.988095 -0.660861
v 0.409369 1.052966 -0.190857
v 0.409369 0.320216 -0.190857
v -0.349461 1.052966 -0.190857
v -0.349461 0.320216 -0.190857
v 0.357971 0.369849 0.083246
v -0.298061 0.369849 0.083246
v 0.357971 1.003334 0.083246
v -0.298061 1.003334 0.083246
v -0.236897 0.273774 0.083246
v -0.298164 0.273774 0.083246
v -0.236897 0.327797 0.083246
v -0.298164 0.327797 0.083246
v -0.368710 0.000000 -0.748916
v -0.368710 0.000000 0.056847
v 0.437056 0.000000 -0.748916
v 0.437056 0.000000 0.056847
v 0.437056 0.100903 -0.748916
v 0.437056 0.100903 0.056847
v -0.368710 0.100903 0.056847
v -0.368710 0.100903 -0.748916
v -0.189140 0.378290 -0.569348
v -0.189140 0.378290 -0.122720
v 0.257486 0.378290 -0.122720
v 0.257486 0.378290 -0.569348
v 0.257486 0.100903 -0.122720
v 0.257486 0.100903 -0.569348
v -0.189140 0.100903 -0.122720
v -0.189140 0.100903 -0.569348
v -0.597122 0.000000 0.158987
v -0.597122 0.000000 0.646764
v -0.597122 0.066218 0.158987
v -0.597122 0.066218 0.646764
v 0.597124 0.066218 0.158987
v 0.597124 0.066218 0.646764
v 0.597124 0.000000 0.158987
v 0.597124 0.000000 0.646764
v -0.368710 0.000000 -0.222343
v 0.437056 0.000000 -0.222343
v 0.437054 0.100903 -0.297437
v 0.257486 0.100903 -0.452899
v 0.257486 0.378290 -0.546759
v -0.189140 0.378290 -0.546759
v -0.189140 0.100903 -0.376433
v -0.368710 0.100903 -0.321303
v 0.486057 0.372656 -0.190857
v 0.486057 0.601490 0.083246
v 0.357971 0.616804 0.083246
v 0.486057 0.467035 -0.052989
v -0.298061 0.765894 0.083246
v -0.426147 0.865089 0.083246
v -0.426147 0.768934 -0.190857
v -0.349461 0.752539 -0.190857
v -0.298203 0.369713 -0.549470
v -0.426147 0.879524 -0.058633
v -0.326401 0.728670 -0.352188
v -0.317410 0.514960 -0.415088
v 0.437057 0.000000 -0.082707
v 0.437054 0.100903 -0.004435
v 0.343510 0.100903 -0.036698
v 0.119072 0.100903 0.056847
v -0.235554 0.000000 0.056847
v 0.437056 0.058822 -0.049644
v 0.200096 0.100903 -0.012978
v 0.068188 0.052993 0.056847
v -0.102396 0.043695 0.056847
vt 0.207120 0.444978
vt 0.177405 0.444978
vt 0.177405 0.444978
vt 0.207120 0.444978
vt 0.265392 0.444978
vt 0.265392 0.444978
vt 0.265392 0.444978
vt 0.265392 0.444978
vt 0.177405 0.444978
vt 0.207120 0.444978
vt 0.207120 0.444978
vt 0.177405 0.444978
vt 0.139579 0.444978
vt 0.139579 0.444978
vt 0.139579 0.444978
vt 0.139579 0.444978
vt 0.231656 0.444978
vt 0.231656 0.444978
vt 0.231656 0.444978
vt 0.231656 0.444978
vt 0.207120 0.444978
vt 0.207120 0.444978
vt 0.207120 0.444978
vt 0.207120 0.444978
vt 0.265392 0.444978
vt 0.265392 0.444978
vt 0.265392 0.444978
vt 0.265392 0.444978
vt 0.207120 0.444978
vt 0.177405 0.444978
vt 0.207120 0.444978
vt 0.207120 0.444978
vt 0.139579 0.444978
vt 0.139579 0.444978
vt 0.139579 0.444978
vt 0.139579 0.444978
vt 0.177160 0.443749
vt 0.147445 0.443749
vt 0.177160 0.443749
vt 0.177160 0.443749
vt 0.177160 0.443749
vt 0.177160 0.443749
vt 0.177160 0.443749
vt 0.177160 0.443749
vt 0.147445 0.443749
vt 0.177160 0.443749
vt 0.177160 0.443749
vt 0.147445 0.443749
vt 0.147445 0.443749
vt 0.147445 0.443749
vt 0.147445 0.443749
vt 0.147445 0.443749
vt 0.173015 0.198461
vt 0.173015 0.198461
vt 0.173015 0.198461
vt 0.173015 0.198461
vt 0.201941 0.444978
vt 0.231656 0.444978
vt 0.231656 0.444978
vt 0.201941 0.444978
vt 0.231656 0.444978
vt 0.231656 0.444978
vt 0.201941 0.444978
vt 0.201941 0.444978
vt 0.201941 0.444978
vt 0.201941 0.444978
vt 0.201941 0.444978
vt 0.201941 0.444978
vt 0.021950 0.520847
vt 0.021950 0.520847
vt 0.021950 0.520847
vt 0.021950 0.520847
vt 0.168571 0.441935
vt 0.149192 0.441935
vt 0.149192 0.441935
vt 0.168571 0.441935
vt 0.226844 0.441935
vt 0.207464 0.441935
vt 0.207464 0.441935
vt 0.226844 0.441935
vt 0.168571 0.441935
vt 0.114955 0.441935
vt 0.114955 0.441935
vt 0.168571 0.441935
vt 0.130745 0.441935
vt 0.111365 0.441935
vt 0.111365 0.441935
vt 0.130745 0.441935
vt 0.173727 0.441935
vt 0.139491 0.441935
vt 0.139491 0.441935
vt 0.173727 0.441935
vt 0.193107 0.441935
vt 0.193107 0.441935
vt 0.193107 0.441935
vt 0.193107 0.441935
vt 0.168571 0.441935
vt 0.149192 0.441935
vt 0.149192 0.441935
vt 0.168571 0.441935
vt 0.173727 0.441935
vt 0.173727 0.441935
vt 0.173727 0.441935
vt 0.173727 0.441935
vt 0.168571 0.441935
vt 0.149192 0.441935
vt 0.149192 0.441935
vt 0.168571 0.441935
vt 0.193107 0.441935
vt 0.193107 0.441935
vt 0.193107 0.441935
vt 0.193107 0.441935
vt 0.171765 0.441720
vt 0.244114 0.441720
vt 0.244114 0.441720
vt 0.206001 0.441720
vt 0.206001 0.441720
vt 0.171765 0.441720
vt 0.206001 0.441720
vt 0.206001 0.441720
vt 0.244114 0.441720
vt 0.206001 0.441720
vt 0.206001 0.441720
vt 0.244114 0.441720
vt 0.244114 0.441720
vt 0.244114 0.441720
vt 0.244114 0.441720
vt 0.244114 0.441720
vt 0.270245 0.443727
vt 0.270245 0.443727
vt 0.270245 0.443727
vt 0.270245 0.443727
vt 0.789031 0.580351
vt 0.789031 0.501915
vt 0.994443 0.501915
vt 0.994443 0.580351
vt 0.270245 0.443727
vt 0.270245 0.443727
vt 0.270245 0.443727
vt 0.270245 0.443727
vt 0.232419 0.443727
vt 0.232419 0.443727
vt 0.232419 0.443727
vt 0.232419 0.443727
vt 0.294781 0.443727
vt 0.294781 0.443727
vt 0.294781 0.443727
vt 0.294781 0.443727
vt 0.294781 0.443727
vt 0.294781 0.443727
vt 0.294781 0.443727
vt 0.294781 0.443727
vt 0.149192 0.441935
vt 0.111366 0.441935
vt 0.168571 0.441935
vt 0.130745 0.441935
vt 0.168571 0.441935
vt 0.244114 0.441720
vt 0.168571 0.441935
vt 0.244114 0.441720
vt 0.226843 0.441935
vt 0.168571 0.441935
vt 0.226843 0.441935
vt 0.168571 0.441935
vt 0.168571 0.441935
vt 0.244114 0.441720
vt 0.168571 0.441935
vt 0.244114 0.441720
vt 0.207120 0.444978
vt 0.177160 0.443749
vt 0.207120 0.444978
vt 0.231656 0.444978
vt 0.201941 0.444978
vt 0.021950 0.520847
vt 0.207120 0.444978
vt 0.231656 0.444978
vt 0.021950 0.520847
vt 0.207120 0.444978
vt 0.231656 0.444978
vt 0.207120 0.444978
vt 0.177160 0.443749
vt 0.207120 0.444978
vt 0.177160 0.443749
vt 0.177405 0.444978
vt 0.139579 0.444978
vt 0.207120 0.444978
vt 0.207120 0.444978
vt 0.207120 0.444978
vt 0.206001 0.441720
vt 0.149192 0.441935
vt 0.130745 0.441935
vt 0.168571 0.441935
vt 0.149192 0.441935
vt 0.206001 0.441720
vt 0.207464 0.441935
vt 0.149192 0.441935
vt 0.149192 0.441935
vt 0.207464 0.441935
vt 0.206001 0.441720
vt 0.149192 0.441935
vt 0.149192 0.441935
vt 0.206001 0.441720
vt 0.111366 0.441935
vt 0.149192 0.441935
vt 0.177405 0.444978
vt 0.207120 0.444978
vt 0.177405 0.444978
vt 0.147445 0.443749
vt 0.177405 0.444978
vt 0.177405 0.444978
vt 0.147445 0.443749
vt 0.177405 0.444978
vt 0.201941 0.444978
vt 0.177405 0.444978
vt 0.201941 0.444978
vt 0.177405 0.444978
vt 0.201941 0.444978
vt 0.231656 0.444978
vt 0.177405 0.444978
vt 0.147445 0.443749
vt 0.177405 0.444978
vt 0.147445 0.443749
vt 0.201941 0.444978
vt 0.201941 0.444978
vt 0.201941 0.444978
vt 0.201941 0.444978
vt 0.201941 0.444978
vt 0.201941 0.444978
vt 0.201941 0.444978
vt 0.201941 0.444978
vt 0.201941 0.444978
vt 0.201941 0.444978
vt 0.201941 0.444978
vt 0.201941 0.444978
vt 0.149192 0.441935
vt 0.111366 0.441935
vt 0.149192 0.441935
vt 0.206001 0.441720
vt 0.206001 0.441720
vt 0.206001 0.441720
vt 0.173727 0.441935
vt 0.206001 0.441720
vt 0.111365 0.441935
vt 0.139491 0.441935
vt 0.149192 0.441935
vt 0.206001 0.441720
vt 0.173727 0.441935
vt 0.173727 0.441935
vt 0.139491 0.441935
vt 0.173727 0.441935
vt 0.139491 0.441935
vt 0.171765 0.441720
vt 0.139491 0.441935
vt 0.171765 0.441720
vt 0.171765 0.441720
vt 0.171765 0.441720
vt 0.114955 0.441935
vt 0.171765 0.441720
vt 0.114955 0.441935
vt 0.114955 0.441935
vn -1.000000 0.000000 0.000000
vn -1.000000 0.000000 0.000000
vn -1.000000 0.000000 0.000000
vn -1.000000 0.000000 0.000000
vn -1.000000 0.000000 0.000000
vn 0.000000 1.000000 0.000000
vn 0.000000 1.000000 0.000000
vn 0.000000 1.000000 0.000000
vn 0.000000 1.000000 0.000000
vn 1.000000 0.000000 0.000000
vn 1.000000 0.000000 0.000000
vn 1.000000 0.000000 0.000000
vn 1.000000 0.000000 0.000000
vn 1.000000 0.000000 0.000000
vn 0.000000 -1.000000 0.000000
vn 0.000000 -1.000000 0.000000
vn 0.000000 -1.000000 0.000000
vn 0.000000 -1.000000 0.000000
vn 0.000000 0.000000 1.000000
vn 0.000000 0.000000 1.000000
vn 0.000000 0.000000 1.000000
vn -0.000000 0.000000 1.000000
vn 0.000000 0.000000 1.000000
vn 0.000000 0.000000 1.000000
vn 0.000000 0.000000 -1.000000
vn 0.000000 0.000000 -1.000000
vn 0.000000 0.000000 -1.000000
vn 0.000000 0.000000 -1.000000
vn 0.989939 0.000000 -0.141498
vn 0.989939 0.000000 -0.141498
vn 0.989939 0.000000 -0.141498
vn 0.989939 0.000000 -0.141498
vn 0.000000 0.990609 -0.136725
vn 0.000000 0.990609 -0.136725
vn 0.000000 0.990609 -0.136725
vn 0.000000 0.990609 -0.136725
vn -0.989939 0.000001 -0.141498
vn -0.989939 0.000001 -0.141498
vn -0.989939 0.000001 -0.141498
vn -0.989938 0.000001 -0.141498
vn -0.989939 0.000000 -0.141496
vn 0.000000 -0.990609 -0.136727
vn 0.000000 -0.990609 -0.136727
vn 0.000000 -0.990609 -0.136727
vn 0.000000 -0.990609 -0.136727
vn 0.000000 -0.990609 -0.136727
vn -0.000000 0.000000 -1.000000
vn -0.000000 0.000000 -1.000000
vn -0.000000 0.000000 -1.000000
vn 0.000000 0.000000 -1.000000
vn 0.000000 0.000000 -1.000000
vn 0.000000 0.000000 -1.000000
vn 0.000000 0.000000 -1.000000
vn 0.000000 0.000000 -1.000000
vn -0.000000 0.000000 -1.000000
vn -0.000000 0.000000 -1.000000
vn 0.000000 0.000000 -1.000000
vn 0.000000 0.000000 -1.000000
vn 0.000000 0.000000 -1.000000
vn 0.000000 0.000000 -1.000000
vn 0.000000 0.000000 -1.000000
vn 0.000000 0.000000 1.000000
vn 0.000000 0.000000 1.000000
vn 0.000000 0.000000 1.000000
vn 0.000000 0.000000 1.000000
vn 0.000000 0.000000 1.000000
vn -0.000000 0.000000 1.000000
vn -0.000000 0.000000 1.000000
vn 0.000000 0.000000 1.000000
vn 0.000000 0.000000 1.000000
vn 0.000000 0.000000 1.000000
vn 0.000000 0.000000 1.000000
vn 0.000000 0.000000 1.000000
vn -0.000000 0.000000 1.000000
vn -0.000000 0.000000 1.000000
vn 0.000000 0.000000 1.000000
vn 0.000000 0.000000 1.000000
vn 0.000000 0.000000 1.000000
vn 0.000000 0.000000 1.000000
vn 0.000000 0.000000 1.000000
vn 0.000000 0.000000 1.000000
vn 0.000000 0.000000 1.000000
vn 0.000000 0.000000 1.000000
vn 0.000000 0.000000 1.000000
vn 0.000000 0.000000 1.000000
vn 0.000000 0.000000 1.000000
vn 0.000000 0.000000 1.000000
vn 0.000000 0.000000 1.000000
vn 0.000000 0.000000 1.000000
vn -0.000000 0.000000 1.000000
vn -0.000000 0.000000 1.000000
vn -0.000000 0.000000 1.000000
vn -0.000000 0.000000 1.000000
vn -1.000000 0.000000 0.000000
vn -1.000000 0.000000 0.000000
vn -1.000000 0.000000 0.000000
vn -1.000000 0.000000 0.000000
vn 0.000000 1.000000 0.000000
vn 0.000000 1.000000 0.000000
vn 0.000000 1.000000 0.000000
vn 0.000000 1.000000 0.000000
vn 1.000000 0.000027 -0.000004
vn 1.000000 0.000025 -0.000003
vn 1.000000 0.000023 -0.000001
vn 1.000000 0.000000 0.000000
vn 1.000000 0.000000 0.000000
vn 0.000000 -1.000000 0.000000
vn 0.000000 -1.000000 0.000000
vn 0.000000 -1.000000 0.000000
vn 0.000000 -1.000000 0.000000
vn 0.000000 -1.000000 0.000000
vn 0.000000 -1.000000 0.000000
vn -0.000000 0.000001 1.000000
vn -0.000000 0.000000 1.000000
vn -0.000000 0.000000 1.000000
vn 0.000000 -0.000002 1.000000
vn 0.000000 0.000000 1.000000
vn 0.000000 0.000000 1.000000
vn 0.000000 0.000000 -1.000000
vn 0.000000 0.000000 -1.000000
vn 0.000000 0.000000 -1.000000
vn 0.000000 0.000000 -1.000000
vn 1.000000 0.000000 0.000000
vn 1.000000 0.000000 0.000000
vn 1.000000 0.000000 0.000000
vn 1.000000 0.000000 0.000000
vn 0.000000 0.000000 1.000000
vn 0.000000 0.000000 1.000000
vn 0.000000 0.000000 1.000000
vn 0.000000 0.000000 1.000000
vn -1.000000 -0.000000 0.000000
vn -1.000000 -0.000000 0.000000
vn -1.000000 0.000000 0.000000
vn -1.000000 0.000000 0.000000
vn 0.000000 0.000000 -1.000000
vn 0.000000 0.000000 -1.000000
vn 0.000000 0.000000 -1.000000
vn 0.000000 0.000000 -1.000000
vn 0.000000 1.000000 0.000000
vn 0.000000 1.000000 0.000000
vn 0.000000 1.000000 0.000000
vn -0.000000 1.000000 -0.000000
vn 0.000000 1.000000 0.000000
vn 0.000000 1.000000 0.000000
vn 0.000000 1.000000 -0.000001
vn 0.000000 1.000000 0.000000
vn 0.000000 1.000000 0.000000
vn 0.000000 1.000000 0.000000
vn 0.000000 1.000000 0.000000
vn 0.000000 1.000000 0.000001
vn 0.000000 1.000000 0.000001
vn 0.000000 1.000000 0.000001
vn 0.000000 1.000000 0.000001
vn -1.000000 0.000000 0.000000
vn -1.000000 0.000000 0.000000
vn -1.000000 0.000000 0.000000
vn -1.000000 0.000000 0.000000
vn 0.000000 1.000000 0.000000
vn 0.000000 1.000000 0.000000
vn 0.000000 1.000000 0.000000
vn 0.000000 1.000000 0.000000
vn 1.000000 0.000000 0.000000
vn 1.000000 0.000000 0.000000
vn 1.000000 0.000000 0.000000
vn 1.000000 0.000000 0.000000
vn 0.000000 -1.000000 0.000000
vn 0.000000 -1.000000 0.000000
vn 0.000000 -1.000000 0.000000
vn 0.000000 -1.000000 0.000000
vn 0.000000 0.000000 1.000000
vn 0.000000 0.000000 1.000000
vn 0.000000 0.000000 1.000000
vn 0.000000 0.000000 1.000000
vn 0.000000 0.000000 -1.000000
vn 0.000000 0.000000 -1.000000
vn 0.000000 0.000000 -1.000000
vn 0.000000 0.000000 -1.000000
vn 0.000000 -1.000000 0.000000
vn 0.000000 -1.000000 0.000000
vn 0.000000 -1.000000 0.000000
vn 0.000000 -1.000000 0.000000
vn 1.000000 0.000000 0.000000
vn 1.000000 0.000013 0.000001
vn 1.000000 0.000020 -0.000002
vn 1.000000 0.000000 0.000000
vn 0.000000 1.000000 0.000000
vn 0.000000 1.000000 0.000000
vn 0.000000 1.000000 0.000000
vn 0.000000 1.000000 0.000000
vn 1.000000 0.000000 0.000000
vn 1.000000 0.000000 0.000000
vn 1.000000 0.000000 0.000000
vn 1.000000 0.000000 0.000000
vn 0.000000 1.000000 0.000000
vn 0.000000 1.000000 0.000000
vn 0.000000 1.000000 0.000000
vn 0.000000 1.000000 0.000000
vn -1.000000 0.000000 0.000000
vn -1.000000 -0.000000 0.000000
vn -1.000000 -0.000000 0.000000
vn -1.000000 0.000000 0.000000
vn 0.000000 1.000000 0.000000
vn 0.000000 1.000000 0.000000
vn 0.000000 1.000000 0.000000
vn 0.000000 1.000000 0.000000
vn -1.000000 0.000000 0.000000
vn -1.000000 0.000000 0.000000
vn -1.000000 0.000000 0.000000
vn -1.000000 0.000000 0.000000
vn -0.000000 0.000000 -1.000000
vn -0.000000 0.000000 -1.000000
vn -0.000000 0.000000 -1.000000
vn -0.000000 0.000000 -1.000000
vn 1.000000 0.000000 0.000000
vn 1.000000 0.000000 0.000000
vn 1.000000 0.000000 0.000000
vn 1.000000 0.000000 0.000000
vn 1.000000 0.000000 0.000000
vn -0.000000 0.000000 1.000000
vn -0.000000 0.000000 1.000000
vn 0.000000 0.000000 1.000000
vn 0.000000 0.000000 1.000000
vn 0.000000 0.000000 1.000000
vn -0.000000 0.000000 1.000000
vn -0.000000 0.000000 1.000000
vn 0.000000 0.000000 1.000000
vn -1.000000 0.000000 0.000000
vn -1.000000 0.000000 0.000000
vn -1.000000 0.000000 0.000000
vn -1.000000 0.000000 0.000000
vn -1.000000 0.000000 0.000000
vn -0.000000 0.000000 -1.000000
vn -0.000000 0.000000 -1.000000
vn 0.000000 0.000000 -1.000000
vn 0.000000 0.000000 -1.000000
vn -0.989939 0.000000 -0.141496
vn -0.989938 0.000001 -0.141498
vn -0.989939 0.000001 -0.141498
vn -0.989939 0.000001 -0.141498
vn -0.989939 0.000001 -0.141498
vn -0.989939 0.000000 -0.141496
vn -0.989939 0.000000 -0.141496
vn 1.000000 0.000020 -0.000002
vn 1.000000 0.000013 0.000001
vn 1.000000 0.000023 -0.000001
vn 1.000000 0.000025 -0.000003
vn 1.000000 0.000027 -0.000004
vn 0.000000 1.000000 0.000000
vn 0.000000 1.000000 0.000000
vn 0.000000 1.000000 0.000000
vn 0.000000 1.000000 0.000000
vn 0.000000 1.000000 0.000000
vn 0.000000 1.000000 -0.000001
vn 0.000000 1.000000 0.000000
vn 0.000000 1.000000 0.000000
vn -0.000000 1.000000 -0.000000
vn 0.000000 1.000000 -0.000001
vn 0.000000 1.000000 -0.000001
vn 0.000000 0.000000 1.000000
vn 0.000000 -0.000002 1.000000
vn -0.000000 0.000000 1.000000
vn -0.000000 0.000000 1.000000
vn -0.000000 0.000001 1.000000
vn 0.000000 0.000000 1.000000
s off
f 62/214/1 66/212/2 63/210/3 8/2/4 1/3/5
f 6/5/6 7/6/7 2/7/8 3/8/9
f 5/9/10 57/221/11 60/219/12 58/216/13 4/12/14
f 8/13/15 5/14/16 4/15/17 1/16/18
f 17/70/19 59/174/20 19/71/21 20/72/22 61/177/23 18/69/24
f 9/17/25 10/18/26 11/19/27 12/20/28
f 12/21/29 13/22/30 14/23/31 9/24/32
f 11/25/33 15/26/34 13/27/35 12/28/36
f 64/209/37 67/207/38 68/205/39 65/184/40 16/30/41
f 9/33/42 14/34/43 16/35/44 65/185/45 10/36/46
f 14/222/47 57/220/48 5/38/49
f 7/41/50 6/42/51 13/43/52 15/44/53
f 8/45/54 63/211/55 64/208/56 16/48/57
f 5/49/58 8/50/59 16/51/60 14/52/61
f 22/53/62 21/54/63 23/55/64 24/56/65
f 4/226/66 58/217/67 59/173/68 17/60/69
f 3/58/70 2/61/71 20/62/72 19/59/73
f 61/215/74 62/213/75 1/232/76 18/228/77
f 1/63/78 4/57/79 21/65/80 22/231/81
f 4/225/82 17/223/83 23/67/84 21/234/85
f 17/224/86 18/64/87 24/68/88 23/230/89
f 18/227/90 1/233/91 22/66/92 24/229/93
f 56/190/94 49/153/95 26/74/96 31/75/97
f 53/198/98 54/195/99 34/78/100 35/79/101
f 69/260/102 74/259/103 70/257/104 30/82/105 28/83/106
f 49/154/107 50/203/108 69/236/109 28/86/110 73/243/111 26/87/112
f 72/253/113 76/251/114 77/249/115 73/244/116 28/90/117 30/91/118
f 27/93/119 25/94/120 32/95/121 29/96/122
f 52/200/123 53/197/124 35/98/125 37/99/126
f 39/101/127 37/102/128 35/103/129 34/104/130
f 54/196/131 55/193/132 39/106/133 34/107/134
f 38/109/135 40/110/136 33/111/137 36/112/138
f 30/113/139 70/258/140 71/255/141
f 71/256/142 75/254/143 72/252/144 30/118/145
f 55/194/146 56/189/147 31/122/148 39/123/149
f 29/125/150 32/126/151 40/127/152 38/128/153
f 41/129/154 42/130/155 44/131/156 43/132/157
f 43/133/158 44/134/159 46/135/160 45/136/161
f 45/137/162 46/138/163 48/139/164 47/140/165
f 47/141/166 48/142/167 42/143/168 41/144/169
f 42/145/170 48/146/171 46/147/172 44/148/173
f 47/149/174 41/150/175 43/151/176 45/152/177
f 27/85/178 50/156/179 49/191/180 25/88/181
f 29/81/182 51/157/183 50/155/184 27/84/185
f 52/160/186 51/158/187 29/114/188 38/115/189
f 36/97/190 53/162/191 52/159/192 38/100/193
f 33/77/194 54/163/195 53/161/196 36/80/197
f 40/105/198 55/165/199 54/164/200 33/108/201
f 32/121/202 56/168/203 55/166/204 40/124/205
f 25/73/206 49/192/207 56/167/208 32/76/209
f 6/37/210 57/170/211 14/39/212 13/40/213
f 58/171/214 60/175/215 57/169/216 6/10/217 3/11/218
f 59/218/219 58/172/220 3/58/221 19/59/222
f 2/61/223 62/179/224 61/176/225 20/62/226
f 7/1/227 63/180/228 66/186/229 62/178/230 2/4/231
f 64/183/232 63/181/233 7/46/234 15/47/235
f 10/29/236 65/206/237 68/188/238 67/187/239 64/182/240 15/31/241 11/32/242
f 50/204/243 51/201/244 70/237/245 74/245/246 69/235/247
f 71/239/248 70/238/249 51/202/250 52/199/251 37/116/252
f 31/117/253 72/242/254 75/246/255 71/240/256 37/119/257 39/120/258
f 26/89/259 73/250/260 77/248/261 76/247/262 72/241/263 31/92/264
