# This file uses centimeters as units for non-parametric coordinates.

v -0.331750 0.556172 -0.475569
v -0.331750 0.556172 0.475569
v 0.331750 0.556172 -0.475569
v 0.331750 0.556172 0.475569
v 0.331750 0.436886 -0.475569
v 0.331750 0.436886 0.475569
v -0.331750 0.436886 0.475569
v -0.331750 0.436886 -0.475569
v -0.312777 0.000000 -0.448369
v -0.312777 0.000000 0.448369
v -0.312777 0.436886 0.448369
v -0.312777 0.436886 -0.448369
v 0.312777 0.436886 -0.448369
v 0.312777 0.436886 0.448369
v 0.312777 0.000000 0.448369
v 0.312777 0.000000 -0.448369
v 0.125110 0.436886 0.448369
v -0.125111 0.436886 0.448369
v 0.125110 0.353704 0.448369
v -0.125111 0.353704 0.448369
v -0.125111 0.436886 -0.448369
v 0.125110 0.436886 -0.448369
v -0.125111 0.353704 -0.448369
v 0.125110 0.353704 -0.448369
v -0.125111 0.353704 0.413958
v -0.125111 0.436886 0.413957
v 0.125110 0.353704 0.413958
v 0.125110 0.436886 0.413957
v 0.125110 0.353704 -0.413957
v 0.125110 0.436886 -0.413957
v -0.125111 0.353704 -0.413958
v -0.125111 0.436886 -0.413958
v -0.155672 0.268720 0.448370
v -0.155673 0.104458 0.448369
v 0.155672 0.104458 0.448369
v 0.155672 0.268720 0.448369
v 0.312777 0.000000 0.160172
v 0.312777 0.194350 -0.448369
v -0.312777 0.304403 -0.448369
v -0.312777 0.127243 0.448369
v -0.188318 0.082752 0.448369
v -0.101061 0.000000 0.448369
v 0.312777 0.208588 -0.214166
v 0.048003 0.168484 -0.448369
v -0.210842 0.223277 -0.448369
v -0.312777 0.199111 -0.193008
v -0.312777 0.230827 0.159139
v -0.312777 0.189741 0.345096
v 0.331750 0.556172 0.157236
v 0.042601 0.556172 0.475569
v -0.090003 0.436886 0.475569
v 0.269882 0.556172 0.266617
v 0.154844 0.556172 0.328499
v 0.135542 0.556172 0.431609
v -0.042715 0.504130 0.475569
v 0.331750 0.436886 0.077304
vt 0.294898 0.401434
vt 0.270362 0.401434
vt 0.298245 0.401434
vt 0.264508 0.401434
vt 0.239973 0.401434
vt 0.265381 0.401434
vt 0.232536 0.401434
vt 0.334036 0.401434
vt 0.232536 0.401434
vt 0.232536 0.401434
vt 0.358572 0.401434
vt 0.231644 0.401434
vt 0.294898 0.401434
vt 0.264508 0.401434
vt 0.298245 0.401434
vt 0.207109 0.401434
vt 0.239973 0.401434
vt 0.298245 0.401434
vt 0.232536 0.401434
vt 0.270362 0.401434
vt 0.294898 0.401434
vt 0.239972 0.401434
vt 0.270362 0.401434
vt 0.264508 0.401434
vt 0.264508 0.401434
vt 0.229648 0.402179
vt 0.207109 0.401434
vt 0.229648 0.402179
vt 0.300068 0.401434
vt 0.264508 0.401434
vt 0.229648 0.402179
vt 0.239973 0.401434
vt 0.334036 0.401434
vt 0.300068 0.401434
vt 0.334036 0.401434
vt 0.229648 0.402179
vt 0.229648 0.402179
vt 0.358572 0.401434
vt 0.229648 0.402179
vt 0.358572 0.401434
vt 0.270605 0.401434
vt 0.358572 0.401434
vt 0.270605 0.401434
vt 0.270605 0.401434
vt 0.270605 0.401434
vt 0.358572 0.401434
vt 0.270605 0.401434
vt 0.270605 0.401434
vt 0.358572 0.401434
vt 0.229648 0.402179
vt 0.270605 0.401434
vt 0.358572 0.401434
vt 0.229648 0.402179
vt 0.358572 0.401434
vt 0.229648 0.402179
vt 0.229648 0.402179
vt 0.358572 0.401434
vt 0.229648 0.402179
vt 0.270605 0.401434
vt 0.358572 0.401434
vt 0.229648 0.402179
vt 0.358572 0.401434
vt 0.300068 0.401434
vt 0.239972 0.401434
vt 0.334036 0.401434
vt 0.358572 0.401434
vt 0.334036 0.401434
vt 0.358572 0.401434
vt 0.231644 0.401434
vt 0.300068 0.401434
vt 0.239973 0.401434
vt 0.264508 0.401434
vt 0.270605 0.401434
vt 0.270605 0.401434
vt 0.270605 0.401434
vt 0.270605 0.401434
vt 0.270605 0.401434
vt 0.270605 0.401434
vt 0.270605 0.401434
vt 0.270605 0.401434
vt 0.141681 0.477719
vt 0.141681 0.477719
vt 0.141681 0.477719
vt 0.141681 0.477719
vt 0.141681 0.477719
vt 0.141681 0.477719
vt 0.141681 0.477719
vt 0.141681 0.477719
vt 0.270605 0.401434
vt 0.270605 0.401434
vt 0.270605 0.401434
vt 0.270605 0.401434
vt 0.270605 0.401434
vt 0.270605 0.401434
vt 0.270605 0.401434
vt 0.270605 0.401434
vt 0.270605 0.401434
vt 0.270605 0.401434
vt 0.270605 0.401434
vt 0.270605 0.401434
vt 0.270605 0.401434
vt 0.270605 0.401434
vt 0.270605 0.401434
vt 0.270605 0.401434
vt 0.323711 0.472493
vt 0.358572 0.401434
vt 0.358572 0.401434
vt 0.358572 0.401434
vt 0.323711 0.472493
vt 0.358572 0.401434
vt 0.323711 0.472493
vt 0.323711 0.472493
vt 0.270362 0.401434
vt 0.232536 0.401434
vt 0.270362 0.401434
vt 0.294898 0.401434
vt 0.270362 0.401434
vt 0.294898 0.401434
vt 0.270362 0.401434
vt 0.294898 0.401434
vt 0.294898 0.401434
vt 0.232536 0.401434
vt 0.358572 0.401434
vt 0.270362 0.401434
vt 0.294898 0.401434
vt 0.294898 0.401434
vt 0.270362 0.401434
vt 0.270362 0.401434
vt 0.270362 0.401434
vt 0.294898 0.401434
vt 0.358572 0.401434
vt 0.294898 0.401434
vt 0.334036 0.401434
vt 0.358572 0.401434
vt 0.334036 0.401434
vt 0.334036 0.401434
vt 0.334036 0.401434
vt 0.358572 0.401434
vt 0.334036 0.401434
vt 0.358572 0.401434
vt 0.358572 0.401434
vt 0.334036 0.401434
vt 0.358572 0.401434
vt 0.334036 0.401434
vt 0.334036 0.401434
vt 0.294898 0.401434
vt 0.265381 0.401434
vt 0.207109 0.401434
vt 0.298245 0.401434
vt 0.264508 0.401434
vt 0.231645 0.401434
vt 0.229648 0.402179
vt 0.298245 0.401434
vt 0.298245 0.401434
vt 0.298245 0.401434
vt 0.264508 0.401434
vt 0.239973 0.401434
vt 0.229648 0.402179
vt 0.298245 0.401434
vt 0.239972 0.401434
vt 0.207109 0.401434
vt 0.231645 0.401434
vt 0.264508 0.401434
vt 0.265381 0.401434
vt 0.231645 0.401434
vt 0.265381 0.401434
vt 0.265381 0.401434
vt 0.265381 0.401434
vn -1.000000 0.000000 0.000000
vn -1.000000 0.000000 0.000000
vn -1.000000 0.000000 0.000000
vn -1.000000 -0.000000 0.000000
vn -1.000000 -0.000001 -0.000000
vn -1.000000 0.000000 0.000000
vn -1.000000 0.000000 0.000000
vn -0.000000 1.000000 -0.000000
vn -0.000000 1.000000 -0.000000
vn -0.000000 1.000000 -0.000000
vn -0.000000 1.000000 -0.000000
vn -0.000000 1.000000 -0.000000
vn 0.000000 1.000000 0.000000
vn 1.000000 0.000000 0.000000
vn 1.000000 0.000000 0.000000
vn 1.000000 0.000000 0.000000
vn 1.000000 0.000000 0.000000
vn 1.000000 -0.000000 0.000000
vn 1.000000 -0.000000 -0.000000
vn 0.000000 -1.000000 0.000000
vn 0.000000 -1.000000 0.000000
vn 0.000000 -1.000000 0.000000
vn 0.000000 -1.000000 0.000000
vn 0.000000 -1.000000 0.000000
vn 0.000000 -1.000000 0.000000
vn -0.000001 -0.000001 1.000000
vn 0.000000 -0.000001 1.000000
vn 0.000001 0.000000 1.000000
vn -0.000001 0.000000 1.000000
vn 0.000000 -0.000001 -1.000000
vn 0.000000 -0.000001 -1.000000
vn 0.000000 -0.000001 -1.000000
vn 0.000001 -0.000001 -1.000000
vn 0.000000 -0.000001 -1.000000
vn 0.000000 -0.000001 -1.000000
vn 0.000000 -0.000001 -1.000000
vn 0.000000 -0.000001 -1.000000
vn 0.000000 -0.000001 -1.000000
vn 0.000000 -0.000001 -1.000000
vn 1.000000 0.000000 0.000000
vn 1.000000 -0.000000 0.000000
vn 1.000000 0.000000 0.000000
vn 1.000000 0.000000 0.000000
vn 0.000000 -0.000000 1.000000
vn 0.000000 0.000000 1.000000
vn -0.000000 0.000000 1.000000
vn 0.000000 0.000000 1.000000
vn 0.000000 0.000000 1.000000
vn -1.000000 0.000000 0.000000
vn -1.000000 0.000000 0.000000
vn -1.000000 0.000000 0.000000
vn -1.000000 0.000000 0.000000
vn 0.000000 0.000000 -1.000000
vn 0.000000 0.000000 -1.000000
vn 0.000000 0.000000 -1.000000
vn 0.000000 0.000000 -1.000000
vn 0.000000 -1.000000 0.000000
vn 0.000000 -1.000000 0.000000
vn 0.000000 -1.000000 0.000000
vn 0.000000 -1.000000 0.000000
vn 0.000000 -1.000000 0.000000
vn 0.000001 -1.000000 0.000000
vn 0.000000 -1.000000 0.000000
vn 0.000000 -1.000000 0.000000
vn 0.000000 -1.000000 0.000000
vn -0.000000 -1.000000 0.000002
vn -0.000000 -1.000000 0.000000
vn -0.000000 -1.000000 0.000002
vn -0.000000 -1.000000 0.000002
vn -0.000000 -1.000000 0.000002
vn -0.000000 -1.000000 0.000002
vn -0.000000 -1.000000 0.000002
vn -0.000000 -1.000000 -0.000002
vn -0.000000 -1.000000 -0.000002
vn -0.000000 -1.000000 -0.000002
vn -0.000000 -1.000000 -0.000002
vn -0.000000 -1.000000 -0.000002
vn -0.000000 -1.000000 -0.000002
vn -0.000001 0.000006 1.000000
vn -0.000001 0.000006 1.000000
vn -0.000001 0.000006 1.000000
vn -0.000001 0.000006 1.000000
vn 0.000002 0.000000 -1.000000
vn 0.000002 0.000000 -1.000000
vn 0.000002 0.000000 -1.000000
vn 0.000002 0.000000 -1.000000
vn 1.000000 0.000000 0.000000
vn 1.000000 0.000000 0.000000
vn 1.000000 0.000000 0.000000
vn 1.000000 0.000000 0.000000
vn 0.000000 1.000000 0.000000
vn 0.000000 1.000000 0.000000
vn 0.000000 1.000000 0.000000
vn 0.000000 1.000000 0.000000
vn -1.000000 0.000000 0.000000
vn -1.000000 0.000000 0.000000
vn -1.000000 0.000000 0.000000
vn -1.000000 0.000000 0.000000
vn 0.000000 -1.000000 0.000000
vn 0.000000 -1.000000 0.000000
vn 0.000000 -1.000000 0.000000
vn 0.000000 -1.000000 0.000000
vn -1.000000 -0.000000 0.000000
vn -1.000000 -0.000000 0.000000
vn -1.000000 -0.000000 0.000000
vn -1.000000 -0.000000 0.000000
vn 0.000000 1.000000 0.000000
vn 0.000000 1.000000 0.000000
vn 0.000000 1.000000 0.000000
vn 0.000000 1.000000 0.000000
vn 1.000000 0.000000 0.000000
vn 1.000000 0.000000 0.000000
vn 1.000000 0.000000 0.000000
vn 1.000000 0.000000 0.000000
vn 0.000000 -1.000000 0.000000
vn 0.000000 -1.000000 0.000000
vn 0.000000 -1.000000 0.000000
vn 0.000000 -1.000000 0.000000
vn -0.000002 0.000001 1.000000
vn -0.000002 0.000001 1.000000
vn -0.000001 -0.000001 1.000000
vn -0.000001 0.000000 1.000000
vn -0.000001 0.000001 1.000000
vn -0.000002 0.000001 1.000000
vn -0.000002 0.000001 1.000000
vn -0.000000 -0.000002 1.000000
vn -0.000001 -0.000002 1.000000
vn 0.000001 -0.000000 1.000000
vn 0.000000 -0.000001 1.000000
vn -0.000001 -0.000001 1.000000
vn 0.000001 0.000001 1.000000
vn 0.000001 0.000000 1.000000
vn 0.000000 -0.000001 1.000000
vn 0.000001 -0.000000 1.000000
vn 0.000001 0.000000 1.000000
vn 0.000001 0.000000 1.000000
vn -0.000001 0.000000 1.000000
vn 0.000001 0.000000 1.000000
vn 0.000001 0.000001 1.000000
vn -0.000001 0.000001 1.000000
vn 1.000000 -0.000000 -0.000000
vn 1.000000 -0.000000 0.000000
vn 1.000000 0.000000 0.000000
vn 1.000000 0.000000 0.000000
vn 0.000000 -0.000001 -1.000000
vn 0.000000 -0.000001 -1.000000
vn 0.000001 -0.000001 -1.000000
vn 0.000000 -0.000001 -1.000000
vn 0.000000 -0.000001 -1.000000
vn 0.000000 -0.000001 -1.000000
vn -1.000000 0.000000 0.000000
vn -1.000000 0.000000 0.000000
vn -1.000000 -0.000001 -0.000000
vn -1.000000 -0.000000 0.000000
vn -1.000000 0.000000 0.000000
vn -1.000000 0.000000 0.000000
vn -1.000000 0.000000 0.000000
vn -0.000001 -0.000000 1.000000
vn -0.000002 0.000001 1.000000
vn -0.000002 0.000001 1.000000
vn -0.000001 -0.000000 1.000000
vn -0.000001 -0.000002 1.000000
vn -0.000000 -0.000002 1.000000
vn 0.000000 1.000000 0.000000
vn 0.000000 1.000000 0.000000
vn -0.000000 1.000000 -0.000000
vn -0.000000 1.000000 -0.000000
vn -0.000000 1.000000 -0.000000
vn -0.000000 1.000000 -0.000000
vn -0.000000 1.000000 -0.000000
vn 0.000000 1.000000 0.000000
vn 0.000000 0.000000 1.000000
vn -0.000000 0.000000 1.000000
vn 0.000000 0.000000 1.000000
vn 0.000000 -0.000000 1.000000
vn 0.000000 0.000000 1.000000
vn 1.000000 0.000000 0.000000
vn 1.000000 -0.000000 0.000000
vn 1.000000 0.000000 0.000000
vn 1.000000 0.000000 0.000000
s off
f 39/139/1 46/137/2 47/136/3 48/135/4 40/133/5 11/33/6 12/65/7
f 49/147/8 52/168/9 53/167/10 54/166/11 50/164/12 4/6/13
f 13/35/14 14/67/15 15/8/16 37/145/17 43/144/18 38/142/19
f 16/7/20 37/114/21 15/19/22 42/122/23 10/10/24 9/9/25
f 34/105/26 35/109/27 36/111/28 33/112/29
f 38/143/30 44/141/31 45/140/32 39/138/33 12/66/34 21/54/35 23/52/36 24/49/37 22/46/38 13/40/39
f 3/5/40 49/160/41 56/157/42 5/71/43
f 50/165/44 55/162/45 51/151/46 6/69/47 4/12/48
f 8/32/49 7/64/50 2/22/51 1/17/52
f 5/25/53 8/72/54 1/24/55 3/14/56
f 7/29/57 8/70/58 12/34/59 11/63/60
f 5/26/61 56/158/62 6/28/63 14/31/64 13/36/65
f 6/28/66 51/152/67 7/37/68 11/39/69 18/50/70 17/53/71 14/31/72
f 8/55/73 5/26/74 13/36/75 22/56/76 21/58/77 12/61/78
f 26/81/79 25/82/80 27/83/81 28/84/82
f 30/85/83 29/86/84 31/87/85 32/88/86
f 18/59/87 20/104/88 25/101/89 26/73/90
f 20/44/91 19/102/92 27/99/93 25/74/94
f 19/43/95 17/100/96 28/97/97 27/75/98
f 17/41/99 18/103/100 26/98/101 28/76/102
f 22/51/103 24/96/104 29/93/105 30/77/106
f 24/48/107 23/94/108 31/91/109 29/78/110
f 23/47/111 21/92/112 32/89/113 31/79/114
f 21/45/115 22/95/116 30/90/117 32/80/118
f 40/134/119 41/131/120 34/106/121 33/110/122 20/57/123 18/42/124 11/38/125
f 41/131/126 42/123/127 15/11/128 35/107/129 34/106/130
f 19/60/131 36/108/132 35/107/133 15/11/134 14/68/135 17/62/136
f 33/110/137 36/108/138 19/60/139 20/57/140
f 38/115/141 43/124/142 37/113/143 16/20/144
f 16/13/145 9/1/146 39/118/147 45/126/148 44/125/149 38/116/150
f 9/23/151 10/2/152 40/119/153 48/129/154 47/128/155 46/127/156 39/117/157
f 10/21/158 41/130/159 40/120/160
f 10/146/161 42/132/162 41/121/163
f 1/3/164 2/15/165 50/149/166 54/155/167 53/154/168 52/153/169 49/159/170 3/18/171
f 7/30/172 51/163/173 55/156/174 50/150/175 2/4/176
f 56/161/177 49/148/178 4/16/179 6/27/180
