# This file uses centimeters as units for non-parametric coordinates.

v -0.261715 0.000000 -0.261714
v -0.261715 0.000000 0.261714
v -0.261715 1.000000 -0.261714
v -0.261715 1.000000 0.261714
v 0.261711 1.000000 -0.261714
v 0.261711 1.000000 0.261714
v 0.261711 0.000000 -0.261714
v 0.261711 0.000000 0.261714
v 0.261711 0.916455 -0.261714
v 0.261711 0.916455 0.261714
v -0.261715 0.916455 0.261714
v -0.261715 0.916455 -0.261714
v -0.261715 0.881018 0.261714
v 0.261711 0.881018 0.261714
v 0.261711 0.881018 -0.261714
v -0.261715 0.881018 -0.261714
v 0.151870 0.032499 0.261714
v -0.151873 0.032499 0.261714
v 0.151870 0.104576 0.261714
v -0.151873 0.104576 0.261714
v 0.151870 0.032499 0.409190
v -0.151873 0.032499 0.409190
v 0.151870 0.104576 0.409190
v -0.151873 0.104576 0.409190
vt 0.267175 0.062001
vt 0.240714 0.062001
vt 0.301477 0.062001
vt 0.267175 0.062001
vt 0.240714 0.062001
vt 0.301477 0.062001
vt 0.206413 0.062001
vt 0.240714 0.062001
vt 0.206413 0.062001
vt 0.206413 0.062001
vt 0.267175 0.062001
vt 0.267175 0.062001
vt 0.267175 0.062001
vt 0.267175 0.062001
vt 0.301477 0.062001
vt 0.240714 0.062001
vt 0.240714 0.062001
vt 0.301477 0.062001
vt 0.267175 0.062001
vt 0.240714 0.062001
vt 0.240714 0.062001
vt 0.267175 0.062001
vt 0.206413 0.062001
vt 0.240714 0.062001
vt 0.200955 0.062001
vt 0.174494 0.062001
vt 0.240714 0.062001
vt 0.267175 0.062001
vt 0.174494 0.062001
vt 0.267175 0.062001
vt 0.200955 0.062001
vt 0.240714 0.062001
vt 0.174494 0.062001
vt 0.200955 0.062001
vt 0.240714 0.062001
vt 0.267175 0.062001
vt 0.267175 0.062001
vt 0.240714 0.062001
vt 0.267175 0.062001
vt 0.240714 0.062001
vt 0.200955 0.062001
vt 0.174494 0.062001
vt 0.267175 0.062001
vt 0.240714 0.062001
vt 0.174494 0.062001
vt 0.200955 0.062001
vt 0.200955 0.062001
vt 0.174494 0.062001
vt 0.267175 0.062001
vt 0.174494 0.062001
vt 0.240714 0.062001
vt 0.200955 0.062001
vt 0.240714 0.062001
vt 0.267175 0.062001
vt 0.174494 0.062001
vt 0.200955 0.062001
vt 0.173467 0.061100
vt 0.173467 0.061100
vt 0.234690 0.061100
vt 0.173467 0.061100
vt 0.142231 0.061100
vt 0.173467 0.061100
vt 0.234690 0.061100
vt 0.173467 0.061100
vt 0.234690 0.061100
vt 0.173467 0.061100
vt 0.234690 0.061100
vt 0.267175 0.062001
vt 0.173467 0.061100
vt 0.142231 0.061100
vt 0.142231 0.061100
vt 0.142231 0.061100
vt 0.173467 0.061100
vt 0.267175 0.062001
vt 0.173467 0.061100
vt 0.173467 0.061100
vt 0.267175 0.062001
vt 0.173467 0.061100
vt 0.267175 0.062001
vt 0.173467 0.061100
vn -1.000000 0.000000 0.000000
vn -1.000000 0.000000 0.000000
vn -1.000000 0.000000 0.000000
vn -1.000000 0.000000 0.000000
vn 0.000000 1.000000 0.000000
vn 0.000000 1.000000 0.000000
vn 0.000000 1.000000 0.000000
vn 0.000000 1.000000 0.000000
vn 1.000000 0.000000 0.000000
vn 1.000000 0.000000 0.000000
vn 1.000000 0.000000 0.000000
vn 1.000000 0.000000 0.000000
vn 0.000000 -1.000000 0.000000
vn 0.000000 -1.000000 0.000000
vn 0.000000 -1.000000 0.000000
vn 0.000000 -1.000000 0.000000
vn 0.000000 0.000000 1.000000
vn 0.000000 0.000000 1.000000
vn -0.000000 0.000000 1.000000
vn -0.000000 0.000000 1.000000
vn 0.000000 0.000000 -1.000000
vn 0.000000 0.000000 -1.000000
vn -0.000000 0.000000 -1.000000
vn -0.000000 0.000000 -1.000000
vn 1.000000 0.000000 0.000000
vn 1.000000 0.000000 0.000000
vn 1.000000 0.000000 0.000000
vn 1.000000 0.000000 0.000000
vn -0.000000 0.000000 1.000000
vn -0.000000 0.000000 1.000000
vn -0.000000 0.000000 1.000000
vn -0.000000 0.000000 1.000000
vn -1.000000 0.000000 0.000000
vn -1.000000 0.000000 0.000000
vn -1.000000 0.000000 0.000000
vn -1.000000 0.000000 0.000000
vn -0.000000 0.000000 -1.000000
vn -0.000000 0.000000 -1.000000
vn -0.000000 0.000000 -1.000000
vn -0.000000 0.000000 -1.000000
vn 0.000000 0.000000 1.000000
vn 0.000000 0.000000 1.000000
vn 0.000000 0.000000 1.000000
vn 0.000000 0.000000 1.000000
vn 1.000000 0.000000 0.000000
vn 1.000000 0.000000 0.000000
vn 1.000000 0.000000 0.000000
vn 1.000000 0.000000 0.000000
vn 0.000000 0.000000 -1.000000
vn 0.000000 0.000000 -1.000000
vn 0.000000 0.000000 -1.000000
vn 0.000000 0.000000 -1.000000
vn -1.000000 0.000000 0.000000
vn -1.000000 0.000000 0.000000
vn -1.000000 0.000000 0.000000
vn -1.000000 0.000000 0.000000
vn 0.000000 0.000000 1.000000
vn 0.000000 0.000000 1.000000
vn 0.000000 0.000000 1.000000
vn 0.000000 0.000000 1.000000
vn -0.000000 0.000000 1.000000
vn -0.000000 0.000000 1.000000
vn -0.000000 0.000000 1.000000
vn -0.000000 0.000000 1.000000
vn 0.000000 0.000000 1.000000
vn 0.000000 0.000000 1.000000
vn 0.000000 0.000000 1.000000
vn 0.000000 0.000000 1.000000
vn 0.000000 0.000000 1.000000
vn 0.000000 0.000000 1.000000
vn 0.000000 0.000000 1.000000
vn 0.000000 0.000000 1.000000
vn 0.000000 -1.000000 0.000000
vn 0.000000 -1.000000 0.000000
vn 0.000000 -1.000000 0.000000
vn 0.000000 -1.000000 0.000000
vn 1.000000 0.000000 0.000000
vn 1.000000 0.000000 0.000000
vn 1.000000 0.000000 0.000000
vn 1.000000 0.000000 0.000000
vn 0.000000 1.000000 0.000000
vn 0.000000 1.000000 0.000000
vn 0.000000 1.000000 0.000000
vn 0.000000 1.000000 0.000000
vn -1.000000 0.000000 0.000000
vn -1.000000 0.000000 0.000000
vn -1.000000 0.000000 0.000000
vn -1.000000 0.000000 0.000000
s off
f 16/42/1 13/33/2 11/29/3 12/50/4
f 3/3/5 4/15/6 6/6/7 5/18/8
f 9/26/9 10/55/10 14/48/11 15/45/12
f 7/7/13 8/23/14 2/10/15 1/9/16
f 13/34/17 14/47/18 10/56/19 11/52/20
f 15/46/21 16/41/22 12/31/23 9/25/24
f 5/5/25 6/16/26 10/27/27 9/53/28
f 11/30/29 10/28/30 6/12/31 4/4/32
f 12/32/33 11/51/34 4/21/35 3/17/36
f 9/54/37 12/49/38 3/22/39 5/14/40
f 22/61/41 21/72/42 23/71/43 24/70/44
f 15/38/45 14/35/46 8/8/47 7/24/48
f 7/13/49 1/1/50 16/39/51 15/37/52
f 1/20/53 2/2/54 13/44/55 16/40/56
f 2/19/57 8/11/58 17/79/59 18/77/60
f 8/11/61 14/36/62 19/68/63 17/79/64
f 14/36/65 13/43/66 20/74/67 19/68/68
f 13/43/69 2/19/70 18/77/71 20/74/72
f 18/57/73 17/80/74 21/75/75 22/69/76
f 17/58/77 19/76/78 23/66/79 21/62/80
f 19/59/81 20/67/82 24/65/83 23/63/84
f 20/60/85 18/78/86 22/73/87 24/64/88
