# This file uses centimeters as units for non-parametric coordinates.

v 0.077415 0.443336 -0.143160
v 0.138855 0.326035 -0.072138
v -0.170229 0.125021 -0.454662
v -0.108789 0.007721 -0.383640
v -0.464764 0.117300 -0.212618
v -0.403324 0.000000 -0.141597
v -0.217117 0.435616 0.098884
v -0.155680 0.318315 0.169906
v -0.412539 0.017595 -0.152250
v -0.164894 0.335910 0.159252
v -0.207903 0.418020 0.109537
v -0.455547 0.099705 -0.201965
v -0.179596 0.106939 -0.428737
v -0.136589 0.024828 -0.379022
v 0.111055 0.343143 -0.067519
v 0.068048 0.425254 -0.117234
v 0.233194 0.320222 -0.179285
v 0.232197 0.169968 -0.180311
v -0.171650 0.320792 0.130211
v -0.172646 0.170538 0.129184
v 0.059919 0.317185 0.433127
v 0.058922 0.166931 0.432100
v 0.464762 0.316615 0.123631
v 0.463764 0.166361 0.122605
v 0.059072 0.189469 0.432253
v 0.463915 0.188899 0.122758
v 0.464613 0.294076 0.123478
v 0.059769 0.294647 0.432973
v -0.157188 0.298026 0.149170
v -0.157887 0.192849 0.148450
v 0.246958 0.192278 -0.161045
v 0.247654 0.297456 -0.160326
v -0.190304 0.168650 0.129192
v -0.191078 0.018396 0.130396
v 0.202808 0.169221 0.453458
v 0.202034 0.018967 0.454662
v 0.445435 0.165614 0.159325
v 0.444660 0.015360 0.160528
v 0.052322 0.165043 -0.164941
v 0.051548 0.014789 -0.163738
v 0.444775 0.037898 0.160348
v 0.051662 0.037327 -0.163918
v 0.052208 0.142505 -0.164761
v 0.445318 0.143075 0.159505
v 0.218000 0.146455 0.435080
v 0.217457 0.041277 0.435923
v -0.175653 0.040707 0.111657
v -0.175112 0.145884 0.110814
vt 0.203714 0.110375
vt 0.203714 0.110375
vt 0.203714 0.110375
vt 0.203714 0.110375
vt 0.419014 0.060758
vt 0.419014 0.060758
vt 0.419014 0.060758
vt 0.419014 0.060758
vt 0.358252 0.060758
vt 0.358252 0.060758
vt 0.358252 0.060758
vt 0.358252 0.060758
vt 0.323950 0.060758
vt 0.323950 0.060758
vt 0.323950 0.060758
vt 0.323950 0.060758
vt 0.230175 0.110375
vt 0.230175 0.110375
vt 0.230175 0.110375
vt 0.230175 0.110375
vt 0.230175 0.110375
vt 0.230175 0.110375
vt 0.230175 0.110375
vt 0.230175 0.110375
vt 0.264476 0.110375
vt 0.264476 0.110375
vt 0.264476 0.110375
vt 0.264476 0.110375
vt 0.203714 0.110375
vt 0.203714 0.110375
vt 0.203714 0.110375
vt 0.203714 0.110375
vt 0.169412 0.110375
vt 0.169412 0.110375
vt 0.169412 0.110375
vt 0.169412 0.110375
vt 0.203714 0.110375
vt 0.203714 0.110375
vt 0.203714 0.110375
vt 0.203714 0.110375
vt 0.264476 0.110375
vt 0.264476 0.110375
vt 0.264476 0.110375
vt 0.264476 0.110375
vt 0.169413 0.110375
vt 0.169413 0.110375
vt 0.169413 0.110375
vt 0.169413 0.110375
vt 0.264476 0.110375
vt 0.264476 0.110375
vt 0.264476 0.110375
vt 0.264476 0.110375
vt 0.169412 0.110375
vt 0.169412 0.110375
vt 0.169413 0.110375
vt 0.169413 0.110375
vt 0.203714 0.183890
vt 0.203714 0.183890
vt 0.203714 0.183890
vt 0.203714 0.183890
vt 0.419014 0.060758
vt 0.419014 0.060758
vt 0.419014 0.060758
vt 0.419014 0.060758
vt 0.358252 0.060758
vt 0.358252 0.060758
vt 0.358252 0.060758
vt 0.358252 0.060758
vt 0.323950 0.060758
vt 0.323950 0.060758
vt 0.323950 0.060758
vt 0.323950 0.060758
vt 0.230175 0.183890
vt 0.230175 0.183890
vt 0.230175 0.183890
vt 0.230175 0.183890
vt 0.230175 0.183890
vt 0.230175 0.183890
vt 0.230175 0.183890
vt 0.230175 0.183890
vt 0.264476 0.183890
vt 0.264476 0.183890
vt 0.264476 0.183890
vt 0.264476 0.183890
vt 0.203714 0.183890
vt 0.203714 0.183890
vt 0.203714 0.183890
vt 0.203714 0.183890
vt 0.169412 0.183890
vt 0.169412 0.183890
vt 0.169412 0.183890
vt 0.169412 0.183890
vt 0.203714 0.183890
vt 0.203714 0.183890
vt 0.203714 0.183890
vt 0.203714 0.183890
vt 0.264476 0.183890
vt 0.264476 0.183890
vt 0.264476 0.183890
vt 0.264476 0.183890
vt 0.169413 0.183890
vt 0.169413 0.183890
vt 0.169413 0.183890
vt 0.169413 0.183890
vt 0.264476 0.183890
vt 0.264476 0.183890
vt 0.264476 0.183890
vt 0.264476 0.183890
vt 0.169412 0.183890
vt 0.169412 0.183890
vt 0.169413 0.183890
vt 0.169413 0.183890
vt 0.203714 0.110050
vt 0.203714 0.110050
vt 0.203714 0.110050
vt 0.203714 0.110050
vt 0.419014 0.060758
vt 0.419014 0.060758
vt 0.419014 0.060758
vt 0.419014 0.060758
vt 0.358252 0.060758
vt 0.358252 0.060758
vt 0.358252 0.060758
vt 0.358252 0.060758
vt 0.323950 0.060758
vt 0.323950 0.060758
vt 0.323950 0.060758
vt 0.323950 0.060758
vt 0.230175 0.110050
vt 0.230175 0.110050
vt 0.230175 0.110050
vt 0.230175 0.110050
vt 0.230175 0.110050
vt 0.230175 0.110050
vt 0.230175 0.110050
vt 0.230175 0.110050
vt 0.264476 0.110050
vt 0.264476 0.110050
vt 0.264476 0.110050
vt 0.264476 0.110050
vt 0.203714 0.110050
vt 0.203714 0.110050
vt 0.203714 0.110050
vt 0.203714 0.110050
vt 0.169412 0.110050
vt 0.169412 0.110050
vt 0.169412 0.110050
vt 0.169412 0.110050
vt 0.203714 0.110050
vt 0.203714 0.110050
vt 0.203714 0.110050
vt 0.203714 0.110050
vt 0.264476 0.110050
vt 0.264476 0.110050
vt 0.264476 0.110050
vt 0.264476 0.110050
vt 0.169413 0.110050
vt 0.169413 0.110050
vt 0.169413 0.110050
vt 0.169413 0.110050
vt 0.264476 0.110050
vt 0.264476 0.110050
vt 0.264476 0.110050
vt 0.264476 0.110050
vt 0.169412 0.110050
vt 0.169412 0.110050
vt 0.169413 0.110050
vt 0.169413 0.110050
vn 0.772432 0.020248 -0.634775
vn 0.772432 0.020248 -0.634775
vn 0.772432 0.020248 -0.634775
vn 0.772432 0.020248 -0.634775
vn -0.485962 -0.624647 -0.611274
vn -0.485962 -0.624647 -0.611274
vn -0.485962 -0.624647 -0.611274
vn -0.485962 -0.624647 -0.611274
vn -0.772429 -0.020253 0.634778
vn -0.772429 -0.020253 0.634778
vn -0.772429 -0.020253 0.634778
vn -0.772429 -0.020253 0.634778
vn 0.485962 0.624647 0.611275
vn 0.485962 0.624647 0.611275
vn 0.485962 0.624647 0.611275
vn 0.485962 0.624647 0.611275
vn 0.408884 -0.780647 0.472657
vn 0.408884 -0.780647 0.472657
vn 0.408884 -0.780647 0.472657
vn 0.408884 -0.780647 0.472657
vn -0.408884 0.780647 -0.472657
vn -0.408884 0.780647 -0.472657
vn -0.408884 0.780647 -0.472657
vn -0.408884 0.780647 -0.472657
vn -0.485973 -0.624628 -0.611286
vn -0.485973 -0.624629 -0.611286
vn -0.485973 -0.624628 -0.611285
vn -0.485973 -0.624628 -0.611286
vn -0.772455 -0.020204 0.634748
vn -0.772455 -0.020204 0.634748
vn -0.772455 -0.020204 0.634748
vn -0.772455 -0.020204 0.634748
vn 0.485972 0.624631 0.611283
vn 0.485972 0.624631 0.611283
vn 0.485972 0.624631 0.611283
vn 0.485972 0.624631 0.611283
vn -0.772437 -0.020237 0.634769
vn -0.772437 -0.020237 0.634769
vn -0.772437 -0.020237 0.634769
vn -0.772437 -0.020237 0.634769
vn -0.485956 -0.624657 -0.611269
vn -0.485956 -0.624657 -0.611269
vn -0.485956 -0.624657 -0.611269
vn -0.485956 -0.624657 -0.611269
vn 0.485969 0.624634 0.611283
vn 0.485969 0.624634 0.611283
vn 0.485969 0.624634 0.611283
vn 0.485969 0.624634 0.611283
vn -0.485975 -0.624645 -0.611266
vn -0.485975 -0.624645 -0.611266
vn -0.485975 -0.624645 -0.611266
vn -0.485975 -0.624645 -0.611266
vn 0.485975 0.624643 0.611269
vn 0.485975 0.624643 0.611269
vn 0.485975 0.624643 0.611269
vn 0.485975 0.624643 0.611269
vn -0.607302 0.009459 -0.794415
vn -0.607302 0.009459 -0.794415
vn -0.607302 0.009459 -0.794415
vn -0.607302 0.009459 -0.794415
vn -0.794443 0.001111 0.607338
vn -0.794443 0.001111 0.607338
vn -0.794443 0.001111 0.607338
vn -0.794443 0.001111 0.607338
vn 0.607302 -0.009463 0.794415
vn 0.607302 -0.009463 0.794415
vn 0.607302 -0.009463 0.794415
vn 0.607302 -0.009463 0.794415
vn 0.794443 -0.001112 -0.607338
vn 0.794443 -0.001112 -0.607338
vn 0.794443 -0.001112 -0.607338
vn 0.794443 -0.001112 -0.607338
vn -0.006635 -0.999955 -0.006835
vn -0.006635 -0.999955 -0.006835
vn -0.006635 -0.999955 -0.006835
vn -0.006635 -0.999955 -0.006835
vn 0.006635 0.999955 0.006835
vn 0.006635 0.999955 0.006835
vn 0.006635 0.999955 0.006835
vn 0.006635 0.999955 0.006835
vn -0.794443 0.001129 0.607337
vn -0.794443 0.001129 0.607338
vn -0.794443 0.001129 0.607337
vn -0.794443 0.001129 0.607337
vn 0.607304 -0.009459 0.794414
vn 0.607303 -0.009459 0.794414
vn 0.607303 -0.009459 0.794414
vn 0.607303 -0.009459 0.794414
vn 0.794444 -0.001164 -0.607337
vn 0.794444 -0.001164 -0.607337
vn 0.794443 -0.001164 -0.607337
vn 0.794444 -0.001164 -0.607337
vn 0.607302 -0.009451 0.794415
vn 0.607302 -0.009451 0.794415
vn 0.607302 -0.009451 0.794415
vn 0.607302 -0.009451 0.794415
vn -0.794443 0.001132 0.607338
vn -0.794443 0.001132 0.607338
vn -0.794443 0.001132 0.607338
vn -0.794443 0.001132 0.607338
vn 0.794444 -0.001144 -0.607337
vn 0.794444 -0.001144 -0.607337
vn 0.794444 -0.001144 -0.607337
vn 0.794444 -0.001144 -0.607337
vn -0.794452 0.001114 0.607326
vn -0.794452 0.001114 0.607326
vn -0.794452 0.001114 0.607326
vn -0.794452 0.001114 0.607326
vn 0.794452 -0.001119 -0.607326
vn 0.794452 -0.001119 -0.607326
vn 0.794452 -0.001119 -0.607326
vn 0.794452 -0.001119 -0.607326
vn -0.636302 0.009458 0.771382
vn -0.636302 0.009458 0.771382
vn -0.636302 0.009458 0.771382
vn -0.636302 0.009458 0.771382
vn 0.771423 0.001111 0.636322
vn 0.771423 0.001111 0.636322
vn 0.771423 0.001111 0.636322
vn 0.771423 0.001111 0.636322
vn 0.636303 -0.009474 -0.771381
vn 0.636303 -0.009474 -0.771381
vn 0.636303 -0.009474 -0.771381
vn 0.636303 -0.009474 -0.771381
vn -0.771423 -0.001111 -0.636322
vn -0.771423 -0.001111 -0.636322
vn -0.771423 -0.001111 -0.636322
vn -0.771423 -0.001111 -0.636322
vn -0.005156 -0.999955 0.008010
vn -0.005156 -0.999955 0.008010
vn -0.005156 -0.999955 0.008010
vn -0.005156 -0.999955 0.008010
vn 0.005156 0.999955 -0.008010
vn 0.005156 0.999955 -0.008010
vn 0.005156 0.999955 -0.008010
vn 0.005156 0.999955 -0.008010
vn 0.771423 0.001179 0.636321
vn 0.771423 0.001179 0.636321
vn 0.771423 0.001179 0.636321
vn 0.771423 0.001179 0.636321
vn 0.636303 -0.009400 -0.771382
vn 0.636303 -0.009400 -0.771382
vn 0.636303 -0.009400 -0.771382
vn 0.636303 -0.009400 -0.771382
vn -0.771425 -0.001146 -0.636320
vn -0.771425 -0.001146 -0.636320
vn -0.771425 -0.001146 -0.636320
vn -0.771425 -0.001146 -0.636320
vn 0.636303 -0.009443 -0.771381
vn 0.636303 -0.009443 -0.771381
vn 0.636303 -0.009443 -0.771381
vn 0.636303 -0.009443 -0.771381
vn 0.771423 0.001112 0.636322
vn 0.771423 0.001112 0.636322
vn 0.771423 0.001112 0.636322
vn 0.771423 0.001112 0.636322
vn -0.771422 -0.001144 -0.636323
vn -0.771422 -0.001144 -0.636323
vn -0.771422 -0.001144 -0.636323
vn -0.771422 -0.001144 -0.636323
vn 0.771448 0.001116 0.636291
vn 0.771448 0.001116 0.636291
vn 0.771448 0.001116 0.636291
vn 0.771448 0.001116 0.636291
vn -0.771428 -0.001122 -0.636315
vn -0.771428 -0.001122 -0.636315
vn -0.771428 -0.001122 -0.636315
vn -0.771428 -0.001122 -0.636315
s off
f 2/1/1 4/2/2 3/3/3 1/4/4
f 13/5/5 14/6/6 9/7/7 12/8/8
f 9/9/9 10/10/10 11/11/11 12/12/12
f 10/13/13 15/14/14 16/15/15 11/16/16
f 4/17/17 2/18/18 8/19/19 6/20/20
f 7/21/21 1/22/22 3/23/23 5/24/24
f 9/25/25 14/26/26 4/27/27 6/28/28
f 10/29/29 9/30/30 6/31/31 8/32/32
f 2/33/33 15/34/34 10/35/35 8/36/36
f 5/37/37 12/38/38 11/39/39 7/40/40
f 3/41/41 13/42/42 12/43/43 5/44/44
f 7/45/45 11/46/46 16/47/47 1/48/48
f 4/49/49 14/50/50 13/51/51 3/52/52
f 15/53/53 2/54/54 1/55/55 16/56/56
f 18/57/57 20/58/58 19/59/59 17/60/60
f 29/61/61 30/62/62 25/63/63 28/64/64
f 25/65/65 26/66/66 27/67/67 28/68/68
f 26/69/69 31/70/70 32/71/71 27/72/72
f 20/73/73 18/74/74 24/75/75 22/76/76
f 23/77/77 17/78/78 19/79/79 21/80/80
f 25/81/81 30/82/82 20/83/83 22/84/84
f 26/85/85 25/86/86 22/87/87 24/88/88
f 18/89/89 31/90/90 26/91/91 24/92/92
f 21/93/93 28/94/94 27/95/95 23/96/96
f 19/97/97 29/98/98 28/99/99 21/100/100
f 23/101/101 27/102/102 32/103/103 17/104/104
f 20/105/105 30/106/106 29/107/107 19/108/108
f 31/109/109 18/110/110 17/111/111 32/112/112
f 34/113/113 36/114/114 35/115/115 33/116/116
f 45/117/117 46/118/118 41/119/119 44/120/120
f 41/121/121 42/122/122 43/123/123 44/124/124
f 42/125/125 47/126/126 48/127/127 43/128/128
f 36/129/129 34/130/130 40/131/131 38/132/132
f 39/133/133 33/134/134 35/135/135 37/136/136
f 41/137/137 46/138/138 36/139/139 38/140/140
f 42/141/141 41/142/142 38/143/143 40/144/144
f 34/145/145 47/146/146 42/147/147 40/148/148
f 37/149/149 44/150/150 43/151/151 39/152/152
f 35/153/153 45/154/154 44/155/155 37/156/156
f 39/157/157 43/158/158 48/159/159 33/160/160
f 36/161/161 46/162/162 45/163/163 35/164/164
f 47/165/165 34/166/166 33/167/167 48/168/168
