# This file uses centimeters as units for non-parametric coordinates.

v -2.091979 0.000000 -0.308725
v -2.091979 0.000000 0.308725
v -2.091979 1.000000 -0.308725
v -2.091979 0.582081 0.308725
v -1.954854 1.000000 -0.308725
v -1.954854 0.582081 0.308725
v -1.954854 0.000000 -0.308725
v -1.954854 0.000000 0.308725
v -1.954854 0.582081 -0.033172
v -2.091979 0.582081 -0.033172
v -2.091979 0.000000 -0.033172
v -1.954854 0.000000 -0.033172
v -1.954854 1.000000 -0.156802
v -2.091979 1.000000 -0.156802
v -2.023416 0.963092 -0.272551
v -2.023416 0.317753 0.215718
v -2.023416 0.963092 -0.179407
v -2.023416 0.418987 0.215718
v 2.023417 0.963092 -0.179407
v 2.023417 0.418987 0.215718
v 2.023417 0.963092 -0.272551
v 2.023417 0.317753 0.215718
v 2.023417 0.418987 -0.179407
v -2.023416 0.418987 -0.179407
v -2.023416 0.317753 -0.272551
v 2.023417 0.317753 -0.272551
v 1.954854 0.000000 -0.308725
v 1.954854 0.000000 0.308725
v 1.954854 1.000000 -0.308725
v 1.954854 0.582081 0.308725
v 2.091979 1.000000 -0.308725
v 2.091979 0.582081 0.308725
v 2.091979 0.000000 -0.308725
v 2.091979 0.000000 0.308725
v 2.091979 0.582081 -0.033172
v 1.954854 0.582081 -0.033172
v 1.954854 0.000000 -0.033172
v 2.091979 0.000000 -0.033172
v 2.091979 1.000000 -0.156802
v 1.954854 1.000000 -0.156802
vt 0.228917 0.398367
vt 0.173600 0.398367
vt 0.300089 0.398367
vt 0.228917 0.398367
vt 0.173600 0.398367
vt 0.300089 0.398367
vt 0.139299 0.398367
vt 0.173600 0.398367
vt 0.139299 0.398367
vt 0.139299 0.398367
vt 0.228917 0.398367
vt 0.228917 0.398367
vt 0.228917 0.398367
vt 0.228917 0.398367
vt 0.300089 0.398367
vt 0.173600 0.398367
vt 0.173600 0.398367
vt 0.300089 0.398367
vt 0.228917 0.398367
vt 0.173600 0.398367
vt 0.173600 0.398367
vt 0.228917 0.398367
vt 0.139299 0.398367
vt 0.173600 0.398367
vt 0.173600 0.398367
vt 0.300089 0.398367
vt 0.228954 0.398367
vt 0.173600 0.398367
vt 0.173600 0.398367
vt 0.139299 0.398367
vt 0.139299 0.398367
vt 0.173600 0.398367
vt 0.173600 0.398367
vt 0.300089 0.398367
vt 0.228954 0.398367
vt 0.173600 0.398367
vt 0.228954 0.398367
vt 0.300089 0.398367
vt 0.300089 0.398367
vt 0.228954 0.398367
vt 0.173600 0.398367
vt 0.173600 0.398367
vt 0.173600 0.398367
vt 0.173600 0.398367
vt 0.300089 0.398367
vt 0.300089 0.398367
vt 0.300089 0.398367
vt 0.300089 0.398367
vt 0.173600 0.398367
vt 0.173600 0.398367
vt 0.173600 0.398367
vt 0.173600 0.398367
vt 0.139299 0.398367
vt 0.139299 0.398367
vt 0.139299 0.398367
vt 0.139299 0.398367
vt 0.228917 0.398367
vt 0.228917 0.398367
vt 0.228917 0.398367
vt 0.228917 0.398367
vt 0.300405 0.397881
vt 0.300405 0.397881
vt 0.300405 0.397881
vt 0.300405 0.397881
vt 0.229271 0.397682
vt 0.229271 0.397682
vt 0.229271 0.397682
vt 0.229271 0.397682
vt 0.173600 0.398367
vt 0.173600 0.398367
vt 0.229271 0.397682
vt 0.229271 0.397682
vt 0.229271 0.397682
vt 0.229271 0.397682
vt 0.173600 0.398367
vt 0.173600 0.398367
vt 0.173600 0.398367
vt 0.173600 0.398367
vt 0.173600 0.398367
vt 0.173600 0.398367
vt 0.300089 0.398367
vt 0.300089 0.398367
vt 0.300089 0.398367
vt 0.300089 0.398367
vt 0.173600 0.398367
vt 0.173600 0.398367
vt 0.173600 0.398367
vt 0.173600 0.398367
vt 0.139299 0.398367
vt 0.139299 0.398367
vt 0.139299 0.398367
vt 0.139299 0.398367
vt 0.228917 0.398367
vt 0.228917 0.398367
vt 0.228917 0.398367
vt 0.228917 0.398367
vt 0.228917 0.398367
vt 0.228917 0.398367
vt 0.228917 0.398367
vt 0.228917 0.398367
vt 0.228954 0.398367
vt 0.228954 0.398367
vt 0.228954 0.398367
vt 0.228954 0.398367
vt 0.173600 0.398367
vt 0.173600 0.398367
vt 0.173600 0.398367
vt 0.139299 0.398367
vt 0.139299 0.398367
vt 0.173600 0.398367
vt 0.173600 0.398367
vt 0.173600 0.398367
vt 0.300089 0.398367
vt 0.300089 0.398367
vt 0.300089 0.398367
vt 0.300089 0.398367
vt 0.173600 0.398367
vt 0.173600 0.398367
vt 0.139299 0.398367
vt 0.173600 0.398367
vt 0.173600 0.398367
vt 0.139299 0.398367
vt 0.173600 0.398367
vt 0.173600 0.398367
vt 0.173600 0.398367
vt 0.173600 0.398367
vt 0.173600 0.398367
vt 0.173600 0.398367
vt 0.139299 0.398367
vt 0.173600 0.398367
vt 0.173600 0.398367
vt 0.139299 0.398367
vn -1.000000 0.000000 0.000000
vn -1.000000 0.000000 0.000000
vn -1.000000 0.000000 0.000000
vn -1.000000 0.000000 0.000000
vn 0.000000 0.744132 0.668032
vn 0.000000 0.744132 0.668032
vn 0.000000 1.000000 0.000000
vn 0.000000 1.000000 0.000000
vn 1.000000 0.000000 0.000000
vn 1.000000 0.000000 0.000000
vn 1.000000 0.000000 0.000000
vn 1.000000 0.000000 0.000000
vn 0.000000 -1.000000 0.000000
vn 0.000000 -1.000000 0.000000
vn 0.000000 -1.000000 0.000000
vn 0.000000 -1.000000 0.000000
vn 0.000000 0.000000 1.000000
vn 0.000000 0.000000 1.000000
vn 0.000000 0.000000 1.000000
vn 0.000000 0.000000 1.000000
vn 0.000000 0.000000 -1.000000
vn 0.000000 0.000000 -1.000000
vn 0.000000 0.000000 -1.000000
vn 0.000000 0.000000 -1.000000
vn 0.000000 0.550461 0.834861
vn 0.000000 0.550461 0.834861
vn 0.000000 0.744132 0.668032
vn 0.000000 0.744132 0.668032
vn -1.000000 0.000000 0.000000
vn -1.000000 0.000000 0.000000
vn -1.000000 0.000000 0.000000
vn -1.000000 0.000000 0.000000
vn -1.000000 0.000000 0.000000
vn 0.000000 -1.000000 0.000000
vn 0.000000 -1.000000 0.000000
vn 0.000000 -1.000000 0.000000
vn 0.000000 -1.000000 0.000000
vn 1.000000 0.000000 0.000000
vn 1.000000 0.000000 0.000000
vn 1.000000 0.000000 0.000000
vn 1.000000 0.000000 0.000000
vn 1.000000 0.000000 0.000000
vn 0.000000 1.000000 0.000000
vn 0.000000 0.550461 0.834861
vn 0.000000 0.550461 0.834861
vn 0.000000 1.000000 0.000000
vn -1.000000 0.000000 0.000000
vn -1.000000 0.000000 0.000000
vn -1.000000 0.000000 0.000000
vn -1.000000 0.000000 0.000000
vn 0.000000 0.587599 0.809152
vn 0.000000 0.587599 0.809152
vn 0.000000 1.000000 0.000000
vn 0.000000 1.000000 0.000000
vn 1.000000 0.000001 0.000000
vn 1.000000 0.000001 0.000000
vn 1.000000 0.000001 0.000000
vn 1.000000 0.000001 0.000000
vn 0.000000 -0.603368 -0.797463
vn 0.000000 -0.603368 -0.797463
vn 0.000000 -1.000000 0.000000
vn 0.000000 -1.000000 0.000000
vn 0.000000 0.000000 1.000000
vn 0.000000 0.000000 1.000000
vn 0.000000 0.000000 1.000000
vn 0.000000 0.000000 1.000000
vn 0.000000 1.000000 0.000000
vn 0.000000 1.000000 0.000000
vn 0.000000 1.000000 0.000000
vn 0.000000 1.000000 0.000000
vn 0.000000 0.000000 1.000000
vn 0.000000 0.587599 0.809152
vn 0.000000 0.587599 0.809152
vn 0.000000 0.000000 1.000000
vn -1.000000 0.000000 0.000000
vn -1.000000 0.000000 0.000000
vn -1.000000 0.000000 0.000000
vn -1.000000 0.000000 0.000000
vn 0.000000 0.000000 -1.000000
vn 0.000000 -0.603368 -0.797463
vn 0.000000 -0.603368 -0.797463
vn 0.000000 0.000000 -1.000000
vn 1.000000 0.000000 0.000000
vn 1.000000 0.000001 0.000000
vn 1.000000 0.000001 0.000000
vn 1.000000 0.000000 0.000000
vn -1.000000 -0.000000 0.000000
vn -1.000000 -0.000000 0.000000
vn -1.000000 0.000000 0.000000
vn -1.000000 0.000000 0.000000
vn 0.000000 0.744132 0.668033
vn 0.000000 0.744132 0.668033
vn 0.000000 1.000000 0.000000
vn 0.000000 1.000000 0.000000
vn 1.000000 0.000000 0.000000
vn 1.000000 0.000000 0.000000
vn 1.000000 0.000000 0.000000
vn 1.000000 0.000000 0.000000
vn 0.000000 -1.000000 0.000000
vn 0.000000 -1.000000 0.000000
vn 0.000000 -1.000000 0.000000
vn 0.000000 -1.000000 0.000000
vn 0.000000 0.000000 1.000000
vn 0.000000 0.000000 1.000000
vn 0.000000 0.000000 1.000000
vn 0.000000 0.000000 1.000000
vn 0.000000 0.000000 -1.000000
vn 0.000000 0.000000 -1.000000
vn 0.000000 0.000000 -1.000000
vn 0.000000 0.000000 -1.000000
vn 0.000000 0.550461 0.834861
vn 0.000000 0.550461 0.834861
vn 0.000000 0.744132 0.668033
vn 0.000000 0.744132 0.668033
vn -1.000000 -0.000000 0.000000
vn -1.000000 -0.000000 0.000000
vn -1.000000 -0.000000 0.000000
vn -1.000000 -0.000000 0.000000
vn -1.000000 -0.000000 0.000000
vn 0.000000 -1.000000 0.000000
vn 0.000000 -1.000000 0.000000
vn 0.000000 -1.000000 0.000000
vn 0.000000 -1.000000 0.000000
vn 1.000000 0.000000 0.000000
vn 1.000000 0.000000 0.000000
vn 1.000000 0.000000 0.000000
vn 1.000000 0.000000 0.000000
vn 1.000000 0.000000 0.000000
vn 0.000000 1.000000 0.000000
vn 0.000000 0.550461 0.834861
vn 0.000000 0.550461 0.834861
vn 0.000000 1.000000 0.000000
s off
f 10/28/1 11/131/2 2/2/3 4/21/4
f 9/26/5 10/39/6 4/15/7 6/6/8
f 12/130/9 9/128/10 6/16/11 8/8/12
f 11/132/13 12/129/14 8/23/15 2/10/16
f 2/19/17 8/11/18 6/12/19 4/4/20
f 7/13/21 1/1/22 3/22/23 5/14/24
f 13/37/25 14/35/26 10/27/27 9/40/28
f 1/20/29 11/29/30 10/127/31 14/36/32 3/17/33
f 7/7/34 12/31/35 11/30/36 1/9/37
f 5/5/38 13/33/39 9/25/40 12/32/41 7/24/42
f 3/3/43 14/38/44 13/34/45 5/18/46
f 24/126/47 25/125/48 16/43/49 18/44/50
f 23/45/51 24/46/52 18/47/53 20/48/54
f 26/123/55 23/50/56 20/51/57 22/52/58
f 25/53/59 26/54/60 22/55/61 16/56/62
f 16/57/63 22/58/64 20/59/65 18/60/66
f 21/61/67 15/62/68 17/63/69 19/64/70
f 17/65/71 24/66/72 23/67/73 19/68/74
f 15/69/75 25/42/76 24/41/77 17/70/78
f 21/71/79 26/72/80 25/73/81 15/74/82
f 19/75/83 23/124/84 26/49/85 21/76/86
f 36/77/87 37/121/88 28/79/89 30/80/90
f 35/81/91 36/82/92 30/83/93 32/84/94
f 38/120/95 35/118/96 32/87/97 34/88/98
f 37/122/99 38/119/100 34/91/101 28/92/102
f 28/93/103 34/94/104 32/95/105 30/96/106
f 33/97/107 27/98/108 29/99/109 31/100/110
f 39/101/111 40/102/112 36/103/113 35/104/114
f 27/105/115 37/78/116 36/117/117 40/106/118 29/107/119
f 33/108/120 38/90/121 37/89/122 27/109/123
f 31/110/124 39/111/125 35/86/126 38/85/127 33/112/128
f 29/113/129 40/114/130 39/115/131 31/116/132
