# This file uses centimeters as units for non-parametric coordinates.

v -2.184083 2.553534 0.539596
v 2.173273 2.553534 0.539596
v -2.184083 2.659065 0.539596
v 2.173273 2.659065 0.539596
v -2.184083 2.659065 -0.474405
v 2.173273 2.659065 -0.474405
v -2.184083 2.553534 -0.474405
v 2.173273 2.553534 -0.474405
v -2.469642 0.386853 0.699382
v 2.469642 0.386853 0.699382
v -2.469642 0.386853 -0.634191
v 2.469642 0.386853 -0.634191
v -2.469642 0.272395 0.699382
v -2.469642 0.272395 -0.634191
v 2.469642 0.272395 -0.634191
v 2.469642 0.272395 0.699382
v -2.469642 0.272395 0.598859
v -2.469642 0.272395 -0.533668
v 2.469642 0.272395 -0.533668
v 2.469642 0.272395 0.598859
v -2.469642 0.000000 0.598859
v -2.469642 0.000000 -0.533668
v 2.469642 0.000000 -0.533668
v 2.469642 0.000000 0.598859
v -2.366090 0.311422 -0.413959
v 2.342763 0.311422 -0.413959
v -2.366090 3.123000 -0.475135
v 2.342763 3.123000 -0.475135
v -2.366090 3.123000 -0.638206
v 2.342763 3.123000 -0.638206
v -2.366090 0.311422 -0.699382
v 2.342763 0.311422 -0.699382
v -2.366090 2.679430 -0.413959
v -2.366090 2.679430 -0.699382
v 2.342763 2.679430 -0.699382
v 2.342763 2.679430 -0.413959
v -2.184074 1.796111 0.539596
v 2.173273 1.796111 0.539596
v -2.184074 1.901642 0.539596
v 2.173273 1.901642 0.539596
v -2.184074 1.901642 -0.474405
v 2.173273 1.901642 -0.474405
v -2.184074 1.796111 -0.474405
v 2.173273 1.796111 -0.474405
v -2.184074 1.038688 0.539596
v 2.173273 1.038688 0.539596
v -2.184074 1.144219 0.539596
v 2.173273 1.144219 0.539596
v -2.184074 1.144219 -0.474405
v 2.173273 1.144219 -0.474405
v -2.184074 1.038688 -0.474405
v 2.173273 1.038688 -0.474405
vt 0.395290 0.062654
vt 0.395290 0.062654
vt 0.467058 0.056958
vt 0.467058 0.056958
vt 0.467058 0.056958
vt 0.467058 0.056958
vt 0.395290 0.062654
vt 0.395290 0.062654
vt 0.260450 0.062654
vt 0.330358 0.062654
vt 0.260450 0.062654
vt 0.330358 0.062654
vt 0.467058 0.056958
vt 0.467058 0.056958
vt 0.467058 0.056958
vt 0.467058 0.056958
vt 0.260450 0.062654
vt 0.330358 0.062654
vt 0.330358 0.062654
vt 0.260450 0.062654
vt 0.402126 0.056958
vt 0.402126 0.056958
vt 0.402126 0.056958
vt 0.402126 0.056958
vt 0.467058 0.056958
vt 0.467058 0.056958
vt 0.467058 0.056958
vt 0.467058 0.056958
vt 0.360168 0.062838
vt 0.360168 0.062838
vt 0.360168 0.062838
vt 0.360168 0.062838
vt 0.360168 0.062838
vt 0.360168 0.062838
vt 0.360168 0.062838
vt 0.360168 0.062838
vt 0.229835 0.062804
vt 0.229836 0.062804
vt 0.229836 0.062804
vt 0.229835 0.062804
vt 0.229836 0.062804
vt 0.229835 0.062804
vt 0.229835 0.062804
vt 0.229836 0.062804
vt 0.367950 0.062038
vt 0.367950 0.062038
vt 0.367950 0.062038
vt 0.367950 0.062038
vt 0.367950 0.062038
vt 0.367950 0.062038
vt 0.367950 0.062038
vt 0.367950 0.062038
vt 0.050633 0.025934
vt 0.050633 0.025934
vt 0.050633 0.025934
vt 0.050633 0.025934
vt 0.272679 0.062841
vt 0.272679 0.062841
vt 0.272679 0.062841
vt 0.267292 0.062839
vt 0.267292 0.062839
vt 0.267292 0.062839
vt 0.272679 0.062841
vt 0.272679 0.062841
vt 0.272679 0.062841
vt 0.263147 0.063517
vt 0.263147 0.063517
vt 0.263147 0.063517
vt 0.263147 0.063517
vt 0.272679 0.062841
vt 0.272679 0.062841
vt 0.272679 0.062841
vt 0.272679 0.062841
vt 0.272679 0.062841
vt 0.467058 0.056958
vt 0.467058 0.056958
vt 0.467058 0.056958
vt 0.467058 0.056958
vt 0.467058 0.056958
vt 0.467058 0.056958
vt 0.467058 0.056958
vt 0.467058 0.056958
vt 0.467058 0.056958
vt 0.467058 0.056958
vt 0.467058 0.056958
vt 0.467058 0.056958
vt 0.256312 0.062654
vt 0.256312 0.062654
vt 0.256312 0.062654
vt 0.256312 0.062654
vt 0.256312 0.062654
vt 0.256312 0.062654
vt 0.256312 0.062654
vt 0.256312 0.062654
vt 0.297322 0.062778
vt 0.297322 0.062778
vt 0.297322 0.062778
vt 0.297322 0.062778
vt 0.297322 0.062778
vt 0.297322 0.062778
vt 0.297322 0.062778
vt 0.297322 0.062778
vt 0.297322 0.062778
vt 0.297322 0.062778
vt 0.297322 0.062778
vt 0.297322 0.062778
vt 0.297322 0.062778
vt 0.297322 0.062778
vt 0.297322 0.062778
vt 0.297322 0.062778
vt 0.297322 0.062778
vt 0.297322 0.062778
vt 0.297322 0.062778
vt 0.297322 0.062778
vt 0.297322 0.062778
vt 0.297322 0.062778
vt 0.297322 0.062778
vt 0.297322 0.062778
vt 0.263147 0.063517
vt 0.263147 0.063517
vt 0.263147 0.063517
vt 0.263147 0.063517
vt 0.359976 0.058097
vt 0.359976 0.058097
vt 0.359976 0.058097
vt 0.359976 0.058097
vt 0.359976 0.058097
vt 0.359976 0.058097
vt 0.359976 0.058097
vt 0.359976 0.058097
vt 0.260450 0.062654
vt 0.330358 0.062654
vt 0.260450 0.062654
vt 0.260450 0.062654
vt 0.330358 0.062654
vt 0.330358 0.062654
vt 0.260450 0.062654
vt 0.330358 0.062654
vn 0.000000 0.000000 1.000000
vn 0.000000 0.000000 1.000000
vn 0.000000 0.000000 1.000000
vn 0.000000 0.000000 1.000000
vn 0.000000 1.000000 0.000000
vn 0.000000 1.000000 0.000000
vn 0.000000 1.000000 0.000000
vn 0.000000 1.000000 0.000000
vn 0.000000 0.000000 -1.000000
vn 0.000000 0.000000 -1.000000
vn 0.000000 0.000000 -1.000000
vn 0.000000 0.000000 -1.000000
vn 0.000000 -1.000000 0.000000
vn 0.000000 -1.000000 0.000000
vn 0.000000 -1.000000 0.000000
vn 0.000000 -1.000000 0.000000
vn 1.000000 0.000000 0.000000
vn 1.000000 0.000000 0.000000
vn 1.000000 0.000000 0.000000
vn 1.000000 0.000000 0.000000
vn -1.000000 0.000000 0.000000
vn -1.000000 0.000000 0.000000
vn -1.000000 0.000000 0.000000
vn -1.000000 0.000000 0.000000
vn 0.000000 1.000000 0.000000
vn 0.000000 1.000000 0.000000
vn 0.000000 1.000000 0.000000
vn 0.000000 1.000000 0.000000
vn 0.000000 0.000000 -1.000000
vn 0.000000 0.000000 -1.000000
vn 0.000000 0.000000 -1.000000
vn 0.000000 0.000000 -1.000000
vn 0.000000 0.000000 1.000000
vn 0.000000 0.000000 1.000000
vn 0.000000 0.000000 1.000000
vn 0.000000 0.000000 1.000000
vn 0.000000 -1.000000 0.000000
vn 0.000000 -1.000000 0.000000
vn 0.000000 -1.000000 0.000000
vn 0.000000 -1.000000 0.000000
vn 0.000000 -1.000000 0.000000
vn 0.000000 -1.000000 0.000000
vn 0.000000 -1.000000 0.000000
vn 0.000000 -1.000000 0.000000
vn 0.000000 0.000000 -1.000000
vn 0.000000 0.000000 -1.000000
vn 0.000000 0.000000 -1.000000
vn 0.000000 0.000000 -1.000000
vn 0.000000 0.000000 1.000000
vn 0.000000 0.000000 1.000000
vn 0.000000 0.000000 1.000000
vn 0.000000 0.000000 1.000000
vn 0.000000 -1.000000 0.000000
vn 0.000000 -1.000000 0.000000
vn 0.000000 -1.000000 0.000000
vn 0.000000 -1.000000 0.000000
vn -1.000000 0.000000 0.000000
vn -1.000000 0.000000 0.000000
vn -1.000000 0.000000 0.000000
vn 1.000000 0.000000 0.000000
vn 1.000000 0.000000 0.000000
vn 1.000000 0.000000 0.000000
vn -1.000000 0.000000 0.000000
vn -1.000000 0.000000 0.000000
vn -1.000000 0.000000 0.000000
vn -1.000000 0.000000 0.000000
vn -1.000000 0.000000 0.000000
vn -1.000000 0.000000 0.000000
vn -1.000000 0.000000 0.000000
vn 1.000000 0.000000 0.000000
vn 1.000000 0.000000 0.000000
vn 1.000000 0.000000 0.000000
vn 1.000000 0.000000 0.000000
vn 1.000000 0.000000 0.000000
vn 1.000000 0.000000 0.000000
vn 1.000000 0.000000 0.000000
vn 1.000000 -0.000001 0.000000
vn 1.000000 -0.000001 0.000000
vn 1.000000 -0.000001 0.000000
vn 1.000000 -0.000001 0.000000
vn -1.000000 -0.000002 0.000000
vn -1.000000 -0.000002 0.000000
vn -1.000000 -0.000002 0.000000
vn -1.000000 -0.000002 0.000000
vn 0.000000 0.000000 1.000000
vn 0.000000 0.000000 1.000000
vn 0.000000 0.000000 1.000000
vn 0.000000 0.000000 1.000000
vn 0.000000 1.000000 0.000000
vn 0.000000 1.000000 0.000000
vn 0.000000 1.000000 0.000000
vn 0.000000 1.000000 0.000000
vn 0.000000 0.000000 -1.000000
vn 0.000000 0.000000 -1.000000
vn 0.000000 0.000000 -1.000000
vn 0.000000 0.000000 -1.000000
vn 0.000000 -1.000000 0.000000
vn 0.000000 -1.000000 0.000000
vn 0.000000 -1.000000 0.000000
vn 0.000000 -1.000000 0.000000
vn 1.000000 0.000000 0.000000
vn 1.000000 0.000000 0.000000
vn 1.000000 0.000000 0.000000
vn 1.000000 0.000000 0.000000
vn -1.000000 0.000000 0.000000
vn -1.000000 0.000000 0.000000
vn -1.000000 0.000000 0.000000
vn -1.000000 0.000000 0.000000
vn -1.000000 0.000000 0.000000
vn -1.000000 0.000000 0.000000
vn -1.000000 0.000000 0.000000
vn -1.000000 0.000000 0.000000
vn 0.000000 0.136623 -0.990623
vn 0.000000 0.136623 -0.990623
vn 0.000000 0.136623 -0.990623
vn 0.000000 0.136623 -0.990623
vn 1.000000 0.000000 0.000000
vn 1.000000 0.000000 0.000000
vn 1.000000 0.000000 0.000000
vn 1.000000 0.000000 0.000000
vn 0.000000 0.136623 0.990623
vn 0.000000 0.136623 0.990623
vn 0.000000 0.136623 0.990623
vn 0.000000 0.136623 0.990623
vn 0.000000 0.000000 1.000000
vn 0.000000 0.000000 1.000000
vn 0.000000 0.000000 1.000000
vn 0.000000 0.000000 1.000000
vn 0.000000 1.000000 0.000000
vn 0.000000 1.000000 0.000000
vn 0.000000 1.000000 0.000000
vn 0.000000 1.000000 0.000000
vn 0.000000 0.000000 -1.000000
vn 0.000000 0.000000 -1.000000
vn 0.000000 0.000000 -1.000000
vn 0.000000 0.000000 -1.000000
vn 0.000000 -1.000000 0.000000
vn 0.000000 -1.000000 0.000000
vn 0.000000 -1.000000 0.000000
vn 0.000000 -1.000000 0.000000
vn 1.000000 0.000000 0.000000
vn 1.000000 0.000000 0.000000
vn 1.000000 0.000000 0.000000
vn 1.000000 0.000000 0.000000
vn -1.000000 0.000000 0.000000
vn -1.000000 0.000000 0.000000
vn -1.000000 0.000000 0.000000
vn -1.000000 0.000000 0.000000
vn 0.000000 0.000000 1.000000
vn 0.000000 0.000000 1.000000
vn 0.000000 0.000000 1.000000
vn 0.000000 0.000000 1.000000
vn 0.000000 1.000000 0.000000
vn 0.000000 1.000000 0.000000
vn 0.000000 1.000000 0.000000
vn 0.000000 1.000000 0.000000
vn 0.000000 0.000000 -1.000000
vn 0.000000 0.000000 -1.000000
vn 0.000000 0.000000 -1.000000
vn 0.000000 0.000000 -1.000000
vn 0.000000 -1.000000 0.000000
vn 0.000000 -1.000000 0.000000
vn 0.000000 -1.000000 0.000000
vn 0.000000 -1.000000 0.000000
vn 1.000000 0.000000 0.000000
vn 1.000000 0.000000 0.000000
vn 1.000000 0.000000 0.000000
vn 1.000000 0.000000 0.000000
vn -1.000000 0.000000 0.000000
vn -1.000000 0.000000 0.000000
vn -1.000000 0.000000 0.000000
vn -1.000000 0.000000 0.000000
s off
f 1/95/1 2/96/2 4/97/3 3/98/4
f 3/3/5 4/4/6 6/5/7 5/6/8
f 5/99/9 6/100/10 8/101/11 7/102/12
f 7/8/13 8/7/14 2/2/15 1/1/16
f 2/96/17 8/101/18 6/100/19 4/97/20
f 7/102/21 1/95/22 3/98/23 5/99/24
f 9/13/25 10/14/26 12/15/27 11/16/28
f 11/29/29 12/30/30 15/31/31 14/32/32
f 13/33/33 16/34/34 10/35/35 9/36/36
f 14/37/37 15/38/38 19/39/39 18/40/40
f 16/41/41 13/42/42 17/43/43 20/44/44
f 18/45/45 19/46/46 23/47/47 22/48/48
f 20/49/49 17/50/50 21/51/51 24/52/52
f 22/53/53 23/54/54 24/55/55 21/56/56
f 9/57/57 17/58/58 13/59/59
f 20/60/60 10/61/61 16/62/62
f 11/63/63 14/64/64 18/65/65
f 17/66/66 18/67/67 22/68/68 21/69/69
f 19/119/70 20/120/71 24/121/72 23/122/73
f 12/70/74 19/71/75 15/72/76
f 12/70/77 10/73/78 20/74/79 19/71/80
f 11/63/81 18/65/82 17/58/83 9/57/84
f 25/138/85 26/10/86 36/132/87 33/12/88
f 27/21/89 28/22/90 30/23/91 29/24/92
f 34/135/93 35/18/94 32/19/95 31/136/96
f 31/136/97 32/19/98 26/10/99 25/138/100
f 26/137/101 32/133/102 35/131/103 36/11/104
f 34/17/105 31/20/106 25/9/107 33/134/108
f 29/87/109 34/88/110 33/89/111 27/90/112
f 29/123/113 30/124/114 35/125/115 34/126/116
f 36/91/117 35/92/118 30/93/119 28/94/120
f 33/127/121 36/128/122 28/129/123 27/130/124
f 37/103/125 38/104/126 40/105/127 39/106/128
f 39/25/129 40/26/130 42/27/131 41/28/132
f 41/107/133 42/108/134 44/109/135 43/110/136
f 43/75/137 44/76/138 38/77/139 37/78/140
f 38/104/141 44/109/142 42/108/143 40/105/144
f 43/110/145 37/103/146 39/106/147 41/107/148
f 45/111/149 46/112/150 48/113/151 47/114/152
f 47/79/153 48/80/154 50/81/155 49/82/156
f 49/115/157 50/116/158 52/117/159 51/118/160
f 51/83/161 52/84/162 46/85/163 45/86/164
f 46/112/165 52/117/166 50/116/167 48/113/168
f 51/118/169 45/111/170 47/114/171 49/115/172
