# This file uses centimeters as units for non-parametric coordinates.

v -1.450314 0.000000 1.011791
v 1.450314 0.000000 1.011795
v -1.450314 0.000000 -1.011796
v 1.450314 0.000000 -1.011793
v -1.450314 1.430712 -1.011796
v -1.450314 1.234239 1.011791
v 1.450314 1.234239 1.011795
v 1.450314 1.430712 -1.011793
v -1.515791 1.234239 1.057470
v 1.515791 1.234239 1.057474
v 1.515791 1.438084 1.057474
v -1.515791 1.438084 1.057470
v 1.515791 1.634557 -1.057471
v -1.515791 1.634557 -1.057474
v 1.515791 1.430712 -1.057471
v -1.515791 1.430712 -1.057474
v -1.304708 1.458362 0.839198
v 1.304701 1.458362 0.839201
v 1.304701 1.614280 -0.839195
v -1.304708 1.614280 -0.839197
v -1.304708 1.148720 0.839198
v 1.304701 1.148720 0.839201
v 1.304701 1.148720 -0.839195
v -1.304708 1.148720 -0.839197
v -1.450314 0.651632 -1.011796
v -1.450314 0.591301 1.011791
v 1.450314 0.591301 1.011795
v 1.450314 0.651632 -1.011793
v -0.925694 0.731866 1.011791
v 0.925688 0.731866 1.011795
v 0.925688 1.227914 1.011795
v -0.925694 1.227914 1.011791
v -1.190044 1.148720 0.696765
v 1.190037 1.148720 0.696768
v 1.190037 1.148720 -0.696766
v -1.190044 1.148720 -0.696768
v -0.010639 1.148720 -0.696766
v -0.010639 1.148720 0.696768
v 0.106598 1.148720 -0.696766
v 0.106598 1.148720 0.696768
v -0.583889 1.148720 -0.696768
v -0.583889 1.148720 0.696765
v -0.670855 1.148720 -0.696768
v -0.670855 1.148720 0.696765
v 0.694767 1.148720 -0.696766
v 0.694767 1.148720 0.696768
v 0.593887 1.148720 -0.696766
v 0.593887 1.148720 0.696768
v 0.694767 0.628617 -0.696766
v 0.694767 0.628617 0.696768
v 1.190037 0.628617 0.696768
v 1.190037 0.628617 -0.696766
v -0.583889 0.628617 -0.696768
v -0.583889 0.628617 0.696767
v -0.010639 0.628617 0.696768
v -0.010639 0.628617 -0.696766
v 0.106598 0.628617 0.696768
v 0.593887 0.628617 0.696768
v -0.670855 0.628617 -0.696768
v -1.190044 0.628617 -0.696768
v 0.106598 0.628617 -0.696766
v 0.593887 0.628617 -0.696766
v -1.190044 0.628617 0.696765
v -0.670855 0.628617 0.696765
v -0.052774 1.390139 0.840441
v 0.096442 1.390139 0.840441
v -0.052774 1.454834 0.846402
v 0.096442 1.454834 0.846402
v -0.052774 1.611698 -0.855947
v 0.096442 1.611698 -0.855947
v -0.052774 1.547002 -0.861908
v 0.096442 1.547002 -0.861908
vt 0.704605 0.083741
vt 0.704605 0.083741
vt 0.206252 0.063102
vt 0.267182 0.063102
vt 0.206252 0.063102
vt 0.242507 0.063076
vt 0.704605 0.083741
vt 0.704605 0.083741
vt 0.735070 0.086390
vt 0.704605 0.083741
vt 0.735070 0.086390
vt 0.704605 0.083740
vt 0.356882 0.061531
vt 0.704605 0.083740
vt 0.735070 0.086390
vt 0.206252 0.063102
vt 0.267182 0.063102
vt 0.242507 0.063076
vt 0.267182 0.063102
vt 0.328462 0.065320
vt 0.242507 0.063076
vt 0.267182 0.063102
vt 0.242507 0.063076
vt 0.206252 0.063102
vt 0.173454 0.442698
vt 0.356882 0.061531
vt 0.328462 0.065320
vt 0.356882 0.061531
vt 0.356882 0.061531
vt 0.356882 0.061531
vt 0.356882 0.061531
vt 0.328462 0.065320
vt 0.242507 0.063076
vt 0.242507 0.063076
vt 0.242507 0.063076
vt 0.704605 0.083741
vt 0.206252 0.063102
vt 0.206252 0.063102
vt 0.206252 0.063102
vt 0.206252 0.063102
vt 0.170489 0.063102
vt 0.170489 0.063102
vt 0.170489 0.063102
vt 0.170489 0.063102
vt 0.170489 0.063102
vt 0.170489 0.063102
vt 0.267182 0.063102
vt 0.170489 0.063102
vt 0.244173 0.063076
vt 0.207577 0.063102
vt 0.244173 0.063076
vt 0.207577 0.063102
vt 0.362867 0.091379
vt 0.244173 0.063076
vt 0.207577 0.063102
vt 0.325641 0.087204
vt 0.207577 0.063102
vt 0.207577 0.063102
vt 0.244173 0.063076
vt 0.362867 0.091379
vt 0.207577 0.063102
vt 0.362867 0.091379
vt 0.244173 0.063076
vt 0.244173 0.063076
vt 0.244173 0.063076
vt 0.362867 0.091379
vt 0.267182 0.063102
vt 0.207577 0.063102
vt 0.267182 0.063102
vt 0.244173 0.063076
vt 0.267182 0.063102
vt 0.207577 0.063102
vt 0.267182 0.063102
vt 0.267182 0.063102
vt 0.267182 0.063102
vt 0.267182 0.063102
vt 0.264611 0.086474
vt 0.293340 0.092229
vt 0.325641 0.087204
vt 0.293340 0.092229
vt 0.170489 0.063102
vt 0.325641 0.087204
vt 0.293340 0.092229
vt 0.325641 0.087204
vt 0.293340 0.092229
vt 0.325641 0.087204
vt 0.325641 0.087204
vt 0.264611 0.086474
vt 0.328462 0.065320
vt 0.293340 0.092229
vt 0.293340 0.092229
vt 0.356882 0.061531
vt 0.356882 0.061531
vt 0.328462 0.065320
vt 0.735070 0.086390
vt 0.325641 0.087204
vt 0.356882 0.061531
vt 0.356882 0.061531
vt 0.356882 0.061531
vt 0.362867 0.091379
vt 0.328462 0.065320
vt 0.356882 0.061531
vt 0.735070 0.086390
vt 0.735070 0.086390
vt 0.735070 0.086390
vt 0.735070 0.086390
vt 0.325641 0.087204
vt 0.328462 0.065320
vt 0.173454 0.442698
vt 0.173454 0.442698
vt 0.173454 0.442698
vt 0.328462 0.065320
vt 0.325641 0.087204
vt 0.293340 0.092229
vt 0.293340 0.092229
vt 0.264611 0.086474
vt 0.325641 0.087204
vt 0.264611 0.086474
vt 0.293340 0.092229
vt 0.293340 0.092229
vt 0.293340 0.092229
vt 0.325641 0.087204
vt 0.264611 0.086474
vt 0.325641 0.087204
vt 0.293340 0.092229
vt 0.242507 0.063076
vt 0.293340 0.092229
vt 0.325641 0.087204
vt 0.293340 0.092229
vt 0.362867 0.091379
vt 0.362867 0.091379
vt 0.362867 0.091379
vt 0.362867 0.091379
vt 0.362867 0.091379
vt 0.362877 0.090465
vt 0.151009 0.063102
vt 0.362877 0.090465
vt 0.362867 0.091379
vt 0.362867 0.091379
vt 0.362877 0.090465
vt 0.362867 0.091379
vt 0.362877 0.090465
vt 0.362877 0.090465
vt 0.362877 0.090465
vt 0.362867 0.091379
vt 0.151009 0.063102
vt 0.151009 0.063102
vt 0.151009 0.063102
vt 0.151009 0.063102
vt 0.362877 0.090465
vt 0.206252 0.063102
vt 0.206252 0.063102
vt 0.362877 0.090465
vt 0.206252 0.063102
vt 0.206252 0.063102
vt 0.242674 0.063076
vt 0.362877 0.090465
vt 0.242674 0.063076
vt 0.242674 0.063076
vt 0.362877 0.090465
vt 0.242674 0.063076
vt 0.242674 0.063076
vt 0.242674 0.063076
vt 0.242674 0.063076
vt 0.242674 0.063076
vt 0.151009 0.063102
vt 0.151009 0.063102
vt 0.151009 0.063102
vt 0.362877 0.090465
vt 0.362867 0.091379
vt 0.362867 0.091379
vt 0.362877 0.090465
vt 0.362867 0.091379
vt 0.362877 0.090465
vt 0.362877 0.090465
vt 0.362867 0.091379
vt 0.325641 0.087204
vt 0.293340 0.092229
vt 0.325641 0.087204
vt 0.325641 0.087204
vt 0.293340 0.092229
vt 0.325641 0.087204
vt 0.264611 0.086474
vt 0.325641 0.087204
vt 0.325641 0.087204
vt 0.325641 0.087204
vt 0.293340 0.092229
vt 0.325641 0.087204
vt 0.325641 0.087204
vt 0.325641 0.087204
vt 0.325641 0.087204
vt 0.293340 0.092229
vt 0.325641 0.087204
vt 0.293340 0.092229
vt 0.293340 0.092229
vt 0.325641 0.087204
vt 0.293340 0.092229
vt 0.325641 0.087204
vt 0.325641 0.087204
vt 0.293340 0.092229
vt 0.293340 0.092229
vt 0.325641 0.087204
vt 0.325641 0.087204
vt 0.293340 0.092229
vt 0.325641 0.087204
vt 0.264611 0.086474
vt 0.325641 0.087204
vt 0.293340 0.092229
vt 0.264611 0.086474
vt 0.293340 0.092229
vt 0.293340 0.092229
vt 0.264611 0.086474
vt 0.264611 0.086474
vt 0.264611 0.086474
vt 0.293340 0.092229
vt 0.293340 0.092229
vt 0.264611 0.086474
vt 0.264611 0.086474
vt 0.293340 0.092229
vt 0.264611 0.086474
vt 0.264611 0.086474
vt 0.293340 0.092229
vt 0.293340 0.092229
vt 0.264611 0.086474
vt 0.267182 0.063102
vt 0.267182 0.063102
vt 0.267182 0.063102
vt 0.267182 0.063102
vt 0.267182 0.063102
vt 0.267182 0.063102
vt 0.267182 0.063102
vt 0.267182 0.063102
vt 0.170489 0.063102
vt 0.170489 0.063102
vt 0.170489 0.063102
vt 0.170489 0.063102
vt 0.170489 0.063102
vt 0.170489 0.063102
vt 0.170489 0.063102
vt 0.170489 0.063102
vn -0.000001 0.000000 1.000000
vn -0.000001 0.000000 1.000000
vn -0.000001 0.000000 1.000000
vn -0.000001 0.000000 1.000000
vn 0.000000 1.000000 0.000000
vn 0.000000 1.000000 0.000000
vn 0.000000 1.000000 0.000000
vn 0.000000 1.000000 0.000000
vn 0.000001 0.000000 -1.000000
vn 0.000001 0.000000 -1.000000
vn 0.000001 0.000000 -1.000000
vn 0.000001 0.000000 -1.000000
vn 0.000000 -1.000000 0.000000
vn 0.000000 -1.000000 0.000000
vn 0.000000 -1.000000 0.000000
vn 0.000000 -1.000000 0.000000
vn 1.000000 0.000000 0.000000
vn 1.000000 0.000000 0.000000
vn 1.000000 0.000000 0.000000
vn 1.000000 0.000000 0.000000
vn -1.000000 0.000000 0.000000
vn -1.000000 0.000000 0.000000
vn -1.000000 0.000000 0.000000
vn -1.000000 0.000000 0.000000
vn -1.000000 0.000000 0.000000
vn -1.000000 0.000000 0.000000
vn -1.000000 0.000000 0.000000
vn -1.000000 0.000000 0.000000
vn -0.000002 0.000000 1.000000
vn -0.000002 0.000000 1.000000
vn -0.000002 0.000000 1.000000
vn -0.000002 0.000000 1.000000
vn 1.000000 0.000000 0.000000
vn 1.000000 0.000000 0.000000
vn 1.000000 0.000000 0.000000
vn 1.000000 0.000000 0.000000
vn 0.000001 0.000000 -1.000000
vn 0.000001 0.000000 -1.000000
vn 0.000001 0.000000 -1.000000
vn 0.000001 0.000000 -1.000000
vn 0.000000 -1.000000 0.000001
vn 0.000000 -1.000000 0.000001
vn 0.000000 -1.000000 0.000001
vn 0.000000 -1.000000 0.000001
vn 0.000000 -1.000000 0.000002
vn 0.000000 -1.000000 0.000002
vn 0.000000 -1.000000 0.000002
vn 0.000000 -1.000000 0.000002
vn 0.000001 -0.995523 -0.094523
vn 0.000001 -0.995523 -0.094523
vn 0.000001 -0.995523 -0.094523
vn 0.000001 -0.995523 -0.094523
vn -0.000001 -0.995523 -0.094523
vn -0.000001 -0.995523 -0.094523
vn -0.000001 -0.995523 -0.094523
vn -0.000001 -0.995523 -0.094523
vn -0.000000 0.995713 0.092501
vn -0.000000 0.995713 0.092501
vn -0.000000 0.995713 0.092501
vn -0.000000 0.995713 0.092501
vn 0.000001 0.995713 0.092499
vn 0.000001 0.995713 0.092499
vn 0.000001 0.995713 0.092499
vn 0.000001 0.995713 0.092499
vn -0.000000 0.995713 0.092498
vn -0.000000 0.995713 0.092498
vn -0.000000 0.995713 0.092498
vn -0.000000 0.995713 0.092498
vn -0.000001 0.995713 0.092499
vn -0.000001 0.995713 0.092499
vn -0.000001 0.995713 0.092499
vn -0.000001 0.995713 0.092499
vn 0.000001 0.000000 -1.000000
vn 0.000001 0.000000 -1.000000
vn 0.000001 0.000000 -1.000000
vn 0.000001 0.000000 -1.000000
vn -1.000000 0.000000 0.000000
vn -1.000000 0.000000 0.000000
vn -1.000000 0.000000 0.000000
vn -1.000000 0.000000 0.000000
vn -0.000001 0.000000 1.000000
vn -0.000001 0.000000 1.000000
vn -0.000001 0.000000 1.000000
vn -0.000001 0.000000 1.000000
vn 1.000000 0.000000 0.000000
vn 1.000000 0.000000 0.000000
vn 1.000000 0.000000 0.000000
vn 1.000000 0.000000 0.000000
vn -1.000000 0.000000 0.000000
vn -1.000000 0.000000 0.000000
vn -1.000000 0.000000 0.000000
vn -1.000000 0.000000 0.000000
vn -0.000001 0.000000 1.000000
vn -0.000001 0.000000 1.000000
vn -0.000001 0.000000 1.000000
vn -0.000001 0.000000 1.000000
vn 1.000000 0.000000 0.000000
vn 1.000000 0.000000 0.000000
vn 1.000000 0.000000 0.000000
vn 1.000000 0.000000 0.000000
vn 0.000001 0.000000 -1.000000
vn 0.000001 0.000000 -1.000000
vn 0.000001 0.000000 -1.000000
vn 0.000001 0.000000 -1.000000
vn -0.000002 -0.000000 1.000000
vn -0.000002 -0.000000 1.000000
vn -0.000002 -0.000000 1.000000
vn -0.000002 -0.000000 1.000000
vn 0.000000 0.000000 1.000000
vn 0.000000 0.000000 1.000000
vn 0.000000 0.000000 1.000000
vn 0.000000 0.000000 1.000000
vn -0.000002 0.000000 1.000000
vn -0.000002 0.000000 1.000000
vn -0.000002 0.000000 1.000000
vn -0.000002 0.000000 1.000000
vn 0.000000 0.000000 1.000000
vn 0.000000 0.000000 1.000000
vn 0.000000 0.000000 1.000000
vn 0.000000 0.000000 1.000000
vn 0.000000 1.000000 0.000001
vn 0.000000 1.000000 0.000001
vn 0.000000 1.000000 0.000001
vn 0.000000 1.000000 0.000001
vn 0.000000 1.000000 0.000001
vn 0.000000 1.000000 0.000001
vn 0.000000 1.000000 0.000001
vn 0.000000 1.000000 0.000001
vn 0.000000 1.000000 0.000001
vn 0.000000 1.000000 0.000001
vn 0.000000 1.000000 -0.000000
vn 0.000000 1.000000 -0.000000
vn 0.000000 1.000000 -0.000000
vn 0.000000 1.000000 -0.000000
vn 0.000000 1.000000 0.000000
vn 0.000000 1.000000 0.000000
vn 0.000000 1.000000 0.000000
vn 0.000000 1.000000 0.000000
vn 0.000000 1.000000 0.000000
vn 0.000000 1.000000 0.000000
vn 0.000000 1.000000 0.000000
vn 0.000000 1.000000 0.000000
vn 0.000000 1.000000 0.000000
vn 0.000000 1.000000 0.000000
vn -0.000000 1.000000 -0.000000
vn -0.000000 1.000000 -0.000000
vn -0.000000 1.000000 -0.000000
vn -0.000000 1.000000 -0.000000
vn 0.000001 1.000000 -0.000000
vn 0.000001 1.000000 -0.000000
vn 0.000001 1.000000 -0.000000
vn 0.000001 1.000000 -0.000000
vn 0.000000 1.000000 -0.000000
vn 0.000000 1.000000 -0.000000
vn 0.000000 1.000000 -0.000000
vn 0.000000 1.000000 -0.000000
vn 0.000000 1.000000 -0.000000
vn 0.000000 1.000000 -0.000000
vn 0.000000 1.000000 -0.000000
vn 0.000000 1.000000 -0.000000
vn 1.000000 -0.000000 0.000000
vn 1.000000 -0.000000 0.000000
vn 1.000000 -0.000000 0.000000
vn 1.000000 -0.000000 0.000000
vn 0.000000 0.000000 -1.000000
vn 0.000000 0.000000 -1.000000
vn 0.000000 0.000000 -1.000000
vn 0.000000 0.000000 -1.000000
vn -1.000000 -0.000000 0.000000
vn -1.000000 -0.000000 0.000000
vn -1.000000 -0.000000 0.000000
vn -1.000000 -0.000000 0.000000
vn 0.000000 0.000000 1.000000
vn 0.000000 0.000000 1.000000
vn 0.000000 0.000000 1.000000
vn 0.000000 0.000000 1.000000
vn 1.000000 0.000000 0.000000
vn 1.000000 0.000000 0.000000
vn 1.000000 0.000000 0.000000
vn 1.000000 0.000000 0.000000
vn 0.000005 0.000000 -1.000000
vn 0.000005 0.000000 -1.000000
vn 0.000005 0.000000 -1.000000
vn 0.000005 0.000000 -1.000000
vn -1.000000 0.000000 0.000000
vn -1.000000 0.000000 0.000000
vn -1.000000 0.000000 0.000000
vn -1.000000 0.000000 0.000000
vn -0.000003 0.000000 1.000000
vn -0.000003 0.000000 1.000000
vn -0.000003 0.000000 1.000000
vn -0.000003 0.000000 1.000000
vn 0.000000 0.000000 -1.000000
vn 0.000000 0.000000 -1.000000
vn 0.000000 0.000000 -1.000000
vn 0.000000 0.000000 -1.000000
vn -1.000000 0.000000 0.000000
vn -1.000000 0.000000 0.000000
vn -1.000000 0.000000 0.000000
vn -1.000000 0.000000 0.000000
vn 0.000000 0.000000 1.000000
vn 0.000000 0.000000 1.000000
vn 0.000000 0.000000 1.000000
vn 0.000000 0.000000 1.000000
vn 1.000000 -0.000000 0.000000
vn 1.000000 -0.000000 0.000000
vn 1.000000 0.000000 0.000000
vn 1.000000 0.000000 0.000000
vn 1.000000 0.000000 0.000000
vn 1.000000 0.000000 0.000000
vn 1.000000 0.000000 0.000000
vn 1.000000 0.000000 0.000000
vn 0.000000 0.000000 -1.000000
vn 0.000000 0.000000 -1.000000
vn 0.000000 0.000000 -1.000000
vn 0.000000 0.000000 -1.000000
vn -1.000000 0.000000 0.000000
vn -1.000000 0.000000 0.000000
vn -1.000000 0.000000 0.000000
vn -1.000000 0.000000 0.000000
vn 0.000000 0.000000 1.000000
vn 0.000000 0.000000 1.000000
vn 0.000000 0.000000 1.000000
vn 0.000000 0.000000 1.000000
vn 0.000000 0.000000 1.000000
vn 0.000000 1.000000 0.000000
vn 0.000000 0.000000 1.000000
vn 0.000000 1.000000 -0.000000
vn 0.000000 1.000000 0.000000
vn 0.000000 0.000000 -1.000000
vn -0.000000 1.000000 0.000000
vn 0.000000 0.000000 -1.000000
vn 0.000000 1.000000 0.000000
vn 0.000000 1.000000 0.000000
vn -0.000005 0.000000 1.000000
vn 0.000000 1.000000 -0.000002
vn 0.000000 -0.091757 0.995782
vn 0.000000 -0.091757 0.995782
vn 0.000000 -0.091757 0.995782
vn 0.000000 -0.091757 0.995782
vn 0.000000 0.995781 0.091757
vn 0.000000 0.995781 0.091757
vn 0.000000 0.995781 0.091757
vn 0.000000 0.995781 0.091757
vn 0.000000 0.091757 -0.995781
vn 0.000000 0.091757 -0.995781
vn 0.000000 0.091757 -0.995781
vn 0.000000 0.091757 -0.995781
vn 0.000000 -0.995781 -0.091757
vn 0.000000 -0.995781 -0.091757
vn 0.000000 -0.995781 -0.091757
vn 0.000000 -0.995781 -0.091757
vn 1.000000 -0.000000 0.000000
vn 1.000000 -0.000000 0.000000
vn 1.000000 -0.000000 0.000000
vn 1.000000 -0.000000 0.000000
vn -1.000000 0.000000 0.000000
vn -1.000000 0.000000 0.000000
vn -1.000000 0.000000 0.000000
vn -1.000000 0.000000 0.000000
s off
f 9/6/1 10/18/2 11/21/3 12/23/4
f 50/77/5 51/88/6 52/116/7 49/118/8
f 14/33/9 13/34/10 15/35/11 16/126/12
f 3/1/13 4/2/14 2/7/15 1/8/16
f 10/3/17 15/5/18 13/16/19 11/24/20
f 16/37/21 9/38/22 12/39/23 14/40/24
f 25/20/25 26/27/26 6/32/27 5/89/28
f 29/25/29 30/109/30 31/110/31 32/111/32
f 27/94/33 28/101/34 8/108/35 7/112/36
f 5/13/37 8/26/38 28/28/39 25/29/40
f 6/238/41 7/42/42 10/43/43 9/237/44
f 8/45/45 5/235/46 16/48/47 15/233/48
f 7/239/49 8/234/50 15/81/51 10/240/52
f 5/46/53 6/41/54 9/44/55 16/236/56
f 12/4/57 11/232/58 18/228/59 17/22/60
f 11/17/61 13/230/62 19/226/63 18/19/64
f 13/47/65 14/229/66 20/225/67 19/67/68
f 14/69/69 12/231/70 17/227/71 20/71/72
f 17/49/73 18/51/74 22/54/75 21/59/76
f 18/50/77 19/52/78 23/55/79 22/57/80
f 19/63/81 20/64/82 24/65/83 23/70/84
f 20/58/85 17/61/86 21/68/87 24/72/88
f 3/1/89 1/8/90 26/10/91 25/12/92
f 1/9/93 2/11/94 27/15/95 26/95/96
f 2/7/97 4/2/98 28/14/99 27/36/100
f 25/103/101 28/104/102 4/105/103 3/106/104
f 26/30/105 27/31/106 30/92/107 29/93/108
f 27/31/109 7/97/110 31/98/111 30/92/112
f 7/97/113 6/99/114 32/102/115 31/98/116
f 6/99/117 26/30/118 29/93/119 32/102/120
f 21/53/121 22/60/122 34/62/123 46/66/124 48/100/125 40/130/126 38/131/127 42/132/128 44/133/129 33/134/130
f 22/60/131 23/176/132 35/170/133 34/62/134
f 23/135/135 24/175/136 36/174/137 43/140/138 41/172/139 37/142/140 39/143/141 47/144/142 45/169/143 35/137/144
f 24/138/145 21/53/146 33/134/147 36/139/148
f 37/160/149 38/153/150 40/150/151 39/157/152
f 43/173/153 44/133/154 42/132/155 41/141/156
f 47/171/157 48/100/158 46/66/159 45/145/160
f 50/204/161 49/223/162 45/80/163 46/208/164
f 46/82/165 34/205/166 51/203/167 50/56/168
f 51/222/169 34/83/170 35/201/171 52/78/172
f 35/84/173 45/207/174 49/79/175 52/202/176
f 41/85/177 42/200/178 54/197/179 53/219/180
f 42/86/181 38/198/182 55/196/183 54/87/184
f 38/90/185 37/195/186 56/194/187 55/91/188
f 37/96/189 41/199/190 53/193/191 56/107/192
f 33/113/193 44/179/194 64/180/195 63/177/196
f 44/114/197 43/187/198 59/211/199 64/115/200
f 43/117/201 36/185/202 60/186/203 59/188/204
f 36/119/205 33/178/206 63/210/207 60/120/208
f 39/121/209 40/192/210 57/216/211 61/215/212
f 40/122/213 48/191/214 58/189/215 57/190/216
f 58/127/217 48/125/218 47/181/219 62/129/220
f 47/128/221 39/184/222 61/124/223 62/182/224
f 60/123/225 63/183/226 64/206/227 59/209/228
f 57/212/229 58/213/230 62/214/231 61/217/232
f 53/218/233 54/220/234 55/221/235 56/224/236
f 65/166/237 66/167/238 68/168/239 67/136/240
f 67/73/241 68/74/242 70/75/243 69/76/244
f 69/148/245 70/147/246 72/146/247 71/149/248
f 71/155/249 72/154/250 66/152/251 65/151/252
f 66/165/253 72/164/254 70/163/255 68/162/256
f 71/161/257 65/159/258 67/158/259 69/156/260
