# This file uses centimeters as units for non-parametric coordinates.

v -2.424235 0.000000 0.499168
v 2.424235 0.000000 0.499168
v -2.424235 1.887888 0.499168
v 2.424235 1.887888 0.499168
v -2.424235 1.887888 -0.499168
v 2.424235 1.887888 -0.499168
v -2.424235 0.000000 -0.499168
v 2.424235 0.000000 -0.499168
v -2.326993 0.537863 0.499168
v 2.326993 0.537863 0.499168
v 2.326993 1.887888 0.499168
v -2.326993 1.887888 0.499168
v 2.326993 1.887888 -0.372824
v -2.326993 1.887888 -0.372824
v 2.326993 0.537863 -0.372824
v -2.326993 0.537863 -0.372824
v -2.326993 1.757611 0.499168
v 2.326993 1.757611 0.499168
v -2.326993 1.887888 0.499168
v 2.326993 1.887888 0.499168
v -2.326993 1.887888 0.389194
v 2.326993 1.887888 0.389194
v -2.326993 1.757611 0.389194
v 2.326993 1.757611 0.389194
v -2.326993 0.919342 0.185072
v 2.326993 0.919342 0.185072
v -2.326993 0.994360 0.185072
v 2.326993 0.994360 0.185072
v -2.326993 0.994360 -0.372824
v 2.326993 0.994360 -0.372824
v -2.326993 0.919342 -0.372824
v 2.326993 0.919342 -0.372824
v -2.326993 1.468326 0.185072
v 2.326993 1.468326 0.185072
v -2.326993 1.543344 0.185072
v 2.326993 1.543344 0.185072
v -2.326993 1.543344 -0.372824
v 2.326993 1.543344 -0.372824
v -2.326993 1.468326 -0.372824
v 2.326993 1.468326 -0.372824
vt 0.204081 0.063462
vt 0.233855 0.063462
vt 0.264313 0.063462
vt 0.204081 0.063462
vt 0.233855 0.063462
vt 0.264313 0.063462
vt 0.170491 0.063462
vt 0.233855 0.063462
vt 0.170491 0.063462
vt 0.170491 0.063462
vt 0.204081 0.063462
vt 0.204081 0.063462
vt 0.204081 0.063462
vt 0.204081 0.063462
vt 0.233855 0.063462
vt 0.170491 0.063462
vt 0.264313 0.063462
vt 0.233855 0.063462
vt 0.204081 0.063462
vt 0.233855 0.063462
vt 0.264313 0.063462
vt 0.233855 0.063462
vt 0.233855 0.063462
vt 0.204081 0.063462
vt 0.233855 0.063462
vt 0.233855 0.063462
vt 0.233855 0.063462
vt 0.233855 0.063462
vt 0.264313 0.063462
vt 0.264313 0.063462
vt 0.264313 0.063462
vt 0.264313 0.063462
vt 0.327884 0.063367
vt 0.327884 0.063367
vt 0.301613 0.063367
vt 0.301613 0.063367
vt 0.261433 0.063706
vt 0.261433 0.063706
vt 0.261433 0.063706
vt 0.261433 0.063706
vt 0.261433 0.063706
vt 0.261433 0.063706
vt 0.261433 0.063706
vt 0.261433 0.063706
vt 0.301613 0.063367
vt 0.301613 0.063367
vt 0.327884 0.063367
vt 0.327884 0.063367
vt 0.233855 0.063462
vt 0.233855 0.063462
vt 0.233855 0.063462
vt 0.233855 0.063462
vt 0.264313 0.063462
vt 0.264313 0.063462
vt 0.264313 0.063462
vt 0.264313 0.063462
vt 0.233855 0.063462
vt 0.233855 0.063462
vt 0.233855 0.063462
vt 0.233855 0.063462
vt 0.170491 0.063462
vt 0.170491 0.063462
vt 0.170491 0.063462
vt 0.170491 0.063462
vt 0.204081 0.063462
vt 0.204081 0.063462
vt 0.204081 0.063462
vt 0.204081 0.063462
vt 0.204081 0.063462
vt 0.204081 0.063462
vt 0.204081 0.063462
vt 0.204081 0.063462
vt 0.355910 0.063462
vt 0.355910 0.063462
vt 0.355910 0.063462
vt 0.355910 0.063462
vt 0.386368 0.063462
vt 0.386368 0.063462
vt 0.386368 0.063462
vt 0.386368 0.063462
vt 0.355910 0.063462
vt 0.355910 0.063462
vt 0.355910 0.063462
vt 0.355910 0.063462
vt 0.292546 0.063462
vt 0.292546 0.063462
vt 0.292546 0.063462
vt 0.292546 0.063462
vt 0.326136 0.063462
vt 0.326136 0.063462
vt 0.326136 0.063462
vt 0.326136 0.063462
vt 0.326136 0.063462
vt 0.326136 0.063462
vt 0.326136 0.063462
vt 0.326136 0.063462
vt 0.355910 0.063462
vt 0.355910 0.063462
vt 0.355910 0.063462
vt 0.355910 0.063462
vt 0.386368 0.063462
vt 0.386368 0.063462
vt 0.386368 0.063462
vt 0.386368 0.063462
vt 0.355910 0.063462
vt 0.355910 0.063462
vt 0.355910 0.063462
vt 0.355910 0.063462
vt 0.292546 0.063462
vt 0.292546 0.063462
vt 0.292546 0.063462
vt 0.292546 0.063462
vt 0.326136 0.063462
vt 0.326136 0.063462
vt 0.326136 0.063462
vt 0.326136 0.063462
vt 0.326136 0.063462
vt 0.326136 0.063462
vt 0.326136 0.063462
vt 0.326136 0.063462
vt 0.261433 0.063706
vt 0.264313 0.063462
vt 0.261433 0.063706
vt 0.264313 0.063462
vt 0.233855 0.063462
vt 0.261433 0.063706
vt 0.233855 0.063462
vt 0.261433 0.063706
vt 0.264313 0.063462
vt 0.264313 0.063462
vt 0.233855 0.063462
vt 0.233855 0.063462
vn 0.000000 1.000000 0.000000
vn 0.000000 1.000000 0.000000
vn 0.000000 1.000000 0.000000
vn 0.000000 1.000000 0.000000
vn 0.000000 0.000000 1.000000
vn 0.000000 0.000000 1.000000
vn 0.000000 0.000000 1.000000
vn 0.000000 0.000000 1.000000
vn 0.000000 0.000000 -1.000000
vn 0.000000 0.000000 -1.000000
vn 0.000000 0.000000 -1.000000
vn 0.000000 0.000000 -1.000000
vn 0.000000 -1.000000 0.000000
vn 0.000000 -1.000000 0.000000
vn 0.000000 -1.000000 0.000000
vn 0.000000 -1.000000 0.000000
vn 1.000000 0.000000 0.000000
vn 1.000000 0.000000 0.000000
vn 1.000000 0.000000 0.000000
vn 1.000000 0.000000 0.000000
vn -1.000000 0.000000 0.000000
vn -1.000000 0.000000 0.000000
vn -1.000000 0.000000 0.000000
vn -1.000000 0.000000 0.000000
vn 0.000000 0.000000 1.000000
vn 0.000000 0.000000 1.000000
vn 0.000000 0.000000 1.000000
vn 0.000000 0.000000 1.000000
vn 0.000000 0.000000 1.000000
vn 0.000000 0.000000 1.000000
vn 0.000000 0.000000 1.000000
vn 0.000000 0.000000 1.000000
vn 0.000000 0.000000 1.000000
vn 0.000000 0.000000 1.000000
vn 0.000000 0.000000 1.000000
vn 0.000000 0.000000 1.000000
vn 0.000000 1.000000 0.000000
vn 0.000000 1.000000 0.000000
vn 0.000000 1.000000 0.000000
vn 0.000000 1.000000 0.000000
vn 0.000000 1.000000 0.000001
vn 0.000000 1.000000 0.000001
vn 0.000000 1.000000 0.000001
vn 0.000000 1.000000 0.000001
vn 0.000000 1.000000 0.000000
vn 0.000000 1.000000 0.000000
vn 0.000000 1.000000 0.000000
vn 0.000000 1.000000 0.000000
vn -1.000000 0.000000 0.000000
vn -1.000000 0.000000 0.000000
vn -1.000000 0.000000 0.000000
vn 1.000000 0.000000 0.000000
vn 1.000000 0.000000 0.000000
vn 1.000000 0.000000 0.000000
vn -1.000000 0.000000 0.000000
vn -1.000000 0.000000 0.000000
vn -1.000000 0.000000 0.000000
vn 1.000000 0.000000 0.000000
vn 1.000000 0.000000 0.000000
vn 1.000000 0.000000 0.000000
vn 0.000000 0.000000 1.000000
vn 0.000000 0.000000 1.000000
vn 0.000000 0.000000 1.000000
vn 0.000000 0.000000 1.000000
vn 0.000000 1.000000 0.000000
vn 0.000000 1.000000 0.000000
vn 0.000000 1.000000 0.000000
vn 0.000000 1.000000 0.000000
vn 0.000000 0.000000 -1.000000
vn 0.000000 0.000000 -1.000000
vn 0.000000 0.000000 -1.000000
vn 0.000000 0.000000 -1.000000
vn 0.000000 -1.000000 0.000000
vn 0.000000 -1.000000 0.000000
vn 0.000000 -1.000000 0.000000
vn 0.000000 -1.000000 0.000000
vn 1.000000 0.000000 0.000000
vn 1.000000 0.000000 0.000000
vn 1.000000 0.000000 0.000000
vn 1.000000 0.000000 0.000000
vn -1.000000 0.000000 0.000000
vn -1.000000 0.000000 0.000000
vn -1.000000 0.000000 0.000000
vn -1.000000 0.000000 0.000000
vn 0.000000 0.000000 1.000000
vn 0.000000 0.000000 1.000000
vn 0.000000 0.000000 1.000000
vn 0.000000 0.000000 1.000000
vn 0.000000 1.000000 0.000000
vn 0.000000 1.000000 0.000000
vn 0.000000 1.000000 0.000000
vn 0.000000 1.000000 0.000000
vn 0.000000 0.000000 -1.000000
vn 0.000000 0.000000 -1.000000
vn 0.000000 0.000000 -1.000000
vn 0.000000 0.000000 -1.000000
vn 0.000000 -1.000000 0.000000
vn 0.000000 -1.000000 0.000000
vn 0.000000 -1.000000 0.000000
vn 0.000000 -1.000000 0.000000
vn 1.000000 0.000000 0.000000
vn 1.000000 0.000000 0.000000
vn 1.000000 0.000000 0.000000
vn 1.000000 0.000000 0.000000
vn -1.000000 0.000000 0.000000
vn -1.000000 0.000000 0.000000
vn -1.000000 0.000000 0.000000
vn -1.000000 0.000000 0.000000
vn 0.000000 0.000000 1.000000
vn 0.000000 0.000000 1.000000
vn 0.000000 0.000000 1.000000
vn 0.000000 0.000000 1.000000
vn 0.000000 1.000000 0.000000
vn 0.000000 1.000000 0.000000
vn 0.000000 1.000000 0.000000
vn 0.000000 1.000000 0.000000
vn 0.000000 0.000000 -1.000000
vn 0.000000 0.000000 -1.000000
vn 0.000000 0.000000 -1.000000
vn 0.000000 0.000000 -1.000000
vn 0.000000 -1.000000 0.000000
vn 0.000000 -1.000000 0.000000
vn 0.000000 -1.000000 0.000000
vn 0.000000 -1.000000 0.000000
vn 1.000000 0.000000 0.000000
vn 1.000000 0.000000 0.000000
vn 1.000000 0.000000 0.000000
vn 1.000000 0.000000 0.000000
vn -1.000000 0.000000 0.000000
vn -1.000000 0.000000 0.000000
vn -1.000000 0.000000 0.000000
vn -1.000000 0.000000 0.000000
s off
f 9/33/1 10/34/2 15/47/3 16/48/4
f 16/35/5 15/36/6 13/45/7 14/46/8
f 5/5/9 6/15/10 8/8/11 7/18/12
f 7/7/13 8/16/14 2/10/15 1/9/16
f 2/19/17 8/11/18 6/12/19 4/4/20
f 7/13/21 1/1/22 3/24/23 5/14/24
f 1/22/25 2/131/26 10/127/27 9/25/28
f 2/2/29 4/20/30 11/27/31 10/26/32
f 3/23/33 1/132/34 9/125/35 12/28/36
f 4/21/37 6/130/38 13/124/39 11/29/40
f 6/6/41 5/129/42 14/122/43 13/30/44
f 5/17/45 3/3/46 12/32/47 14/31/48
f 10/37/49 11/128/50 15/123/51
f 12/40/52 9/41/53 16/42/54
f 11/38/55 13/43/56 15/39/57
f 14/44/58 12/126/59 16/121/60
f 17/49/61 18/50/62 20/51/63 19/52/64
f 19/53/65 20/54/66 22/55/67 21/56/68
f 21/57/69 22/58/70 24/59/71 23/60/72
f 23/61/73 24/62/74 18/63/75 17/64/76
f 18/65/77 24/66/78 22/67/79 20/68/80
f 23/69/81 17/70/82 19/71/83 21/72/84
f 25/73/85 26/74/86 28/75/87 27/76/88
f 27/77/89 28/78/90 30/79/91 29/80/92
f 29/81/93 30/82/94 32/83/95 31/84/96
f 31/85/97 32/86/98 26/87/99 25/88/100
f 26/89/101 32/90/102 30/91/103 28/92/104
f 31/93/105 25/94/106 27/95/107 29/96/108
f 33/97/109 34/98/110 36/99/111 35/100/112
f 35/101/113 36/102/114 38/103/115 37/104/116
f 37/105/117 38/106/118 40/107/119 39/108/120
f 39/109/121 40/110/122 34/111/123 33/112/124
f 34/113/125 40/114/126 38/115/127 36/116/128
f 39/117/129 33/118/130 35/119/131 37/120/132
