# This file uses centimeters as units for non-parametric coordinates.

v -0.443617 0.790224 0.588198
v -0.443617 0.790224 -0.330454
v -0.443617 1.020166 -0.330454
v 0.443619 1.020166 0.588198
v 0.443621 1.020166 -0.330454
v 0.443619 0.790224 0.588198
v 0.443621 0.790224 -0.330454
v 0.443619 0.645032 0.588198
v -0.443617 0.645032 0.588198
v 0.443621 0.790224 -0.489599
v -0.443617 0.790224 -0.489599
v 0.443621 1.020166 -0.489599
v -0.443617 1.020166 -0.489599
v -0.443617 0.645032 -0.489599
v 0.443621 0.645032 -0.489599
v -0.443617 1.869870 -0.429045
v 0.443621 1.869870 -0.429045
v -0.443617 1.869870 -0.588198
v 0.443621 1.869870 -0.588198
v 0.443621 0.645032 -0.393141
v -0.443617 0.645032 -0.393141
v -0.395754 0.000000 -0.329359
v -0.395754 0.000000 -0.437529
v -0.395754 0.645032 -0.329359
v -0.395754 0.645032 -0.437529
v -0.287583 0.645032 -0.329359
v -0.287583 0.645032 -0.437529
v -0.287583 0.000000 -0.329359
v -0.287583 0.000000 -0.437529
v -0.395754 0.000000 0.537439
v -0.395754 0.000000 0.429270
v -0.395754 0.645032 0.537439
v -0.395754 0.645032 0.429270
v -0.287583 0.645032 0.537439
v -0.287583 0.645032 0.429270
v -0.287583 0.000000 0.537439
v -0.287583 0.000000 0.429270
v 0.288053 0.000000 0.537439
v 0.288053 0.000000 0.429270
v 0.288053 0.645032 0.537439
v 0.288053 0.645032 0.429270
v 0.396236 0.645032 0.537439
v 0.396236 0.645032 0.429270
v 0.396236 0.000000 0.537439
v 0.396236 0.000000 0.429270
v 0.288053 0.000000 -0.329359
v 0.288053 0.000000 -0.437529
v 0.288053 0.645032 -0.329359
v 0.288053 0.645032 -0.437529
v 0.396236 0.645032 -0.329359
v 0.396236 0.645032 -0.437529
v 0.396236 0.000000 -0.329359
v 0.396236 0.000000 -0.437529
v -0.332710 1.356042 -0.369452
v 0.332714 1.356042 -0.369452
v -0.332710 1.721432 -0.411856
v 0.332714 1.721432 -0.411856
v -0.332710 1.356042 -0.528605
v 0.332714 1.356042 -0.528605
v 0.332714 1.721432 -0.571005
v -0.332712 1.721432 -0.571005
v -0.093868 1.020166 0.588198
v -0.443617 0.862152 0.588198
v -0.443617 1.020166 0.304603
v -0.122243 0.897965 0.588198
v -0.293816 0.902387 0.588198
v -0.443617 0.872777 0.415735
v -0.300542 1.020166 0.191554
v -0.077515 1.020166 0.278890
v -0.145718 1.020166 0.443277
v -0.029362 1.020166 0.508853
v -0.392840 0.881521 0.539578
v -0.392840 0.889541 0.409395
v -0.392840 1.000797 0.325508
v -0.322168 1.000797 0.477488
v -0.284838 1.000797 0.240173
v -0.151387 1.000797 0.317561
v -0.181644 1.000797 0.445512
v -0.102518 1.000797 0.501531
v -0.128833 1.000797 0.539578
v -0.150250 0.908554 0.539579
v -0.279763 0.911892 0.539579
v -0.443617 1.586786 -0.396199
v -0.332710 1.503490 -0.397729
v -0.332713 1.503490 -0.556879
v -0.443617 1.586786 -0.555349
v 0.056677 1.356042 -0.369452
v 0.405962 1.134213 -0.343696
v 0.443621 1.085676 -0.340646
v 0.443621 1.128858 -0.502212
v 0.397966 1.158426 -0.505656
v 0.053298 1.356042 -0.528605
v 0.176473 1.234073 -0.355290
v 0.205837 1.135422 -0.343836
v 0.245437 1.153616 -0.505097
v 0.188494 1.282916 -0.520112
v -0.035221 1.869870 -0.429045
v -0.026416 1.721432 -0.411856
v -0.026415 1.721432 -0.571005
v -0.035221 1.869870 -0.588198
v -0.216182 1.721432 -0.571005
v -0.216182 1.721432 -0.411856
v -0.288243 1.869870 -0.429045
v -0.288243 1.869870 -0.588198
vt 0.203400 0.442560
vt 0.140959 0.442560
vt 0.357616 0.061847
vt 0.140959 0.442560
vt 0.262881 0.442560
vt 0.140959 0.181883
vt 0.140959 0.442560
vt 0.171563 0.181883
vt 0.171563 0.181883
vt 0.203400 0.442560
vt 0.203400 0.442560
vt 0.109882 0.181883
vt 0.171563 0.181883
vt 0.171563 0.181883
vt 0.140959 0.181883
vt 0.140959 0.181883
vt 0.140959 0.181883
vt 0.171563 0.181883
vt 0.140959 0.181883
vt 0.109882 0.181883
vt 0.140959 0.181883
vt 0.267968 0.045611
vt 0.205526 0.045611
vt 0.205526 0.045611
vt 0.140959 0.181883
vt 0.140959 0.181883
vt 0.140959 0.181883
vt 0.109882 0.181883
vt 0.140959 0.181883
vt 0.140959 0.181883
vt 0.140959 0.181883
vt 0.140959 0.181883
vt 0.267968 0.045611
vt 0.236131 0.045611
vt 0.236131 0.045611
vt 0.140959 0.442560
vt 0.140959 0.442560
vt 0.262881 0.442560
vt 0.171563 0.181883
vt 0.140959 0.442560
vt 0.140959 0.442560
vt 0.262881 0.442560
vt 0.299448 0.061847
vt 0.329662 0.061847
vt 0.140959 0.181883
vt 0.205526 0.045611
vt 0.171563 0.181883
vt 0.171563 0.181883
vt 0.140959 0.181883
vt 0.109882 0.181883
vt 0.109882 0.181883
vt 0.140959 0.181883
vt 0.171563 0.181883
vt 0.140959 0.181883
vt 0.140959 0.181883
vt 0.140959 0.181883
vt 0.109882 0.181883
vt 0.171563 0.181883
vt 0.109882 0.181883
vt 0.140959 0.181883
vt 0.171563 0.181883
vt 0.140959 0.181883
vt 0.140959 0.181883
vt 0.171563 0.181883
vt 0.140959 0.181883
vt 0.267968 0.045611
vt 0.171563 0.181883
vt 0.171563 0.181883
vt 0.140959 0.181883
vt 0.236131 0.045611
vt 0.267968 0.045611
vt 0.236131 0.045611
vt 0.205526 0.045611
vt 0.140959 0.181883
vt 0.140959 0.181883
vt 0.171563 0.181883
vt 0.140959 0.181883
vt 0.109882 0.181883
vt 0.140959 0.181883
vt 0.171563 0.181883
vt 0.109882 0.181883
vt 0.109882 0.181883
vt 0.109882 0.181883
vt 0.109882 0.181883
vt 0.109882 0.181883
vt 0.109882 0.181883
vt 0.109882 0.181883
vt 0.109882 0.181883
vt 0.109882 0.181883
vt 0.109882 0.181883
vt 0.171563 0.181883
vt 0.171563 0.181883
vt 0.171563 0.181883
vt 0.171563 0.181883
vt 0.171563 0.181883
vt 0.171563 0.181883
vt 0.171563 0.181883
vt 0.171563 0.181883
vt 0.109882 0.181883
vt 0.109882 0.181883
vt 0.109882 0.181883
vt 0.109882 0.181883
vt 0.109882 0.181883
vt 0.109882 0.181883
vt 0.109882 0.181883
vt 0.109882 0.181883
vt 0.109882 0.181883
vt 0.109882 0.181883
vt 0.171563 0.181883
vt 0.171563 0.181883
vt 0.171563 0.181883
vt 0.171563 0.181883
vt 0.171563 0.181883
vt 0.171563 0.181883
vt 0.171563 0.181883
vt 0.171563 0.181883
vt 0.109882 0.181883
vt 0.109882 0.181883
vt 0.109882 0.181883
vt 0.109882 0.181883
vt 0.109882 0.181883
vt 0.109882 0.181883
vt 0.109882 0.181883
vt 0.109882 0.181883
vt 0.109882 0.181883
vt 0.109882 0.181883
vt 0.171563 0.181883
vt 0.171563 0.181883
vt 0.171563 0.181883
vt 0.171563 0.181883
vt 0.171563 0.181883
vt 0.171563 0.181883
vt 0.171563 0.181883
vt 0.171563 0.181883
vt 0.109882 0.181883
vt 0.109882 0.181883
vt 0.109882 0.181883
vt 0.109882 0.181883
vt 0.109882 0.181883
vt 0.109882 0.181883
vt 0.109882 0.181883
vt 0.109882 0.181883
vt 0.109882 0.181883
vt 0.109882 0.181883
vt 0.171563 0.181883
vt 0.171563 0.181883
vt 0.171563 0.181883
vt 0.171563 0.181883
vt 0.171563 0.181883
vt 0.171563 0.181883
vt 0.171563 0.181883
vt 0.171563 0.181883
vt 0.236131 0.045611
vt 0.171563 0.181883
vt 0.236131 0.045611
vt 0.236131 0.045611
vt 0.171563 0.181883
vt 0.236131 0.045611
vt 0.236131 0.045611
vt 0.236131 0.045611
vt 0.174450 0.045611
vt 0.174450 0.045611
vt 0.174450 0.045611
vt 0.174450 0.045611
vt 0.174450 0.045611
vt 0.109882 0.181883
vt 0.109882 0.181883
vt 0.174450 0.045611
vt 0.174450 0.045611
vt 0.174450 0.045611
vt 0.174450 0.045611
vt 0.174450 0.045611
vt 0.174450 0.045611
vt 0.109882 0.181883
vt 0.109882 0.181883
vt 0.174450 0.045611
vt 0.262881 0.442560
vt 0.203400 0.442560
vt 0.140959 0.442560
vt 0.203400 0.442560
vt 0.140959 0.442560
vt 0.262881 0.442560
vt 0.203400 0.442560
vt 0.203400 0.442560
vt 0.140959 0.442560
vt 0.262881 0.442560
vt 0.262881 0.442560
vt 0.262881 0.442560
vt 0.262881 0.442560
vt 0.299448 0.061847
vt 0.236397 0.446406
vt 0.236397 0.446406
vt 0.236397 0.446406
vt 0.236397 0.446406
vt 0.236397 0.446406
vt 0.236397 0.446406
vt 0.236397 0.446406
vt 0.236397 0.446406
vt 0.236397 0.446406
vt 0.236397 0.446406
vt 0.236397 0.446406
vt 0.329662 0.061847
vt 0.329662 0.061847
vt 0.236397 0.446406
vt 0.236397 0.446406
vt 0.329662 0.061847
vt 0.357616 0.061847
vt 0.329662 0.061847
vt 0.357616 0.061847
vt 0.357616 0.061847
vt 0.357616 0.061847
vt 0.357616 0.061847
vt 0.299448 0.061847
vt 0.357616 0.061847
vt 0.299448 0.061847
vt 0.236397 0.446406
vt 0.236397 0.446406
vt 0.236397 0.446406
vt 0.236397 0.446406
vt 0.236397 0.446406
vt 0.236397 0.446406
vt 0.236397 0.446406
vt 0.140959 0.181883
vt 0.171563 0.181883
vt 0.236131 0.045611
vt 0.174450 0.045611
vt 0.236131 0.045611
vt 0.174450 0.045611
vt 0.205526 0.045611
vt 0.236131 0.045611
vt 0.171563 0.181883
vt 0.109882 0.181883
vt 0.236131 0.045611
vt 0.205526 0.045611
vt 0.236131 0.045611
vt 0.205526 0.045611
vt 0.236131 0.045611
vt 0.236131 0.045611
vt 0.236131 0.045611
vt 0.174450 0.045611
vt 0.236131 0.045611
vt 0.236131 0.045611
vt 0.236131 0.045611
vt 0.236131 0.045611
vt 0.171563 0.181883
vt 0.109882 0.181883
vt 0.236131 0.045611
vt 0.174450 0.045611
vt 0.171563 0.181883
vt 0.171563 0.181883
vt 0.236131 0.045611
vt 0.171563 0.181883
vt 0.140959 0.181883
vt 0.171563 0.181883
vt 0.171563 0.181883
vt 0.140959 0.181883
vt 0.236131 0.045611
vt 0.171563 0.181883
vt 0.171563 0.181883
vt 0.171563 0.181883
vt 0.236131 0.045611
vt 0.236131 0.045611
vt 0.236131 0.045611
vt 0.171563 0.181883
vt 0.140959 0.181883
vt 0.236131 0.045611
vt 0.205526 0.045611
vt 0.109882 0.181883
vt 0.171563 0.181883
vt 0.171563 0.181883
vt 0.109882 0.181883
vt 0.236131 0.045611
vt 0.236131 0.045611
vt 0.236131 0.045611
vt 0.236131 0.045611
vt 0.236131 0.045611
vt 0.236131 0.045611
vt 0.236131 0.045611
vt 0.205351 0.181770
vt 0.173514 0.181770
vt 0.236131 0.045611
vt 0.174450 0.045611
vt 0.173514 0.181770
vt 0.174450 0.045611
vt 0.205351 0.181770
vt 0.236131 0.045611
vt 0.173514 0.181770
vt 0.111833 0.181770
vt 0.236131 0.045611
vt 0.174450 0.045611
vt 0.267968 0.045611
vt 0.236131 0.045611
vt 0.267968 0.045611
vt 0.236131 0.045611
vt 0.205351 0.181770
vt 0.173514 0.181770
vt 0.174450 0.045611
vt 0.236131 0.045611
vt 0.173514 0.181770
vt 0.205351 0.181770
vt 0.111833 0.181770
vt 0.173514 0.181770
vt 0.267968 0.045611
vt 0.173514 0.181770
vt 0.236131 0.045611
vt 0.111833 0.181770
vt 0.236131 0.045611
vt 0.267968 0.045611
vt 0.173514 0.181770
vt 0.111833 0.181770
vn -0.879081 0.416399 0.232009
vn -0.879081 0.416399 0.232009
vn -0.879081 0.416399 0.232009
vn -0.879081 0.416399 0.232009
vn -0.000001 1.000000 0.000001
vn -0.000001 1.000000 0.000001
vn -0.000001 1.000000 0.000001
vn -0.000001 1.000000 0.000001
vn -0.000001 1.000000 0.000001
vn -0.000001 1.000000 0.000001
vn -0.000001 1.000000 0.000001
vn 1.000000 0.000000 0.000002
vn 1.000000 -0.000000 0.000002
vn 1.000000 -0.000000 0.000002
vn 1.000000 -0.000000 0.000002
vn 0.000000 -1.000000 0.000000
vn 0.000000 -1.000000 0.000000
vn 0.000000 -1.000000 0.000000
vn 0.000000 -1.000000 0.000000
vn 0.000000 0.000000 -1.000000
vn -0.000670 -0.055725 -0.998446
vn 0.000000 -0.054229 -0.998529
vn 0.000000 0.000000 -1.000000
vn -0.166957 0.369543 0.914092
vn -0.166957 0.369543 0.914092
vn -0.166957 0.369543 0.914091
vn -0.166957 0.369543 0.914092
vn -0.166957 0.369543 0.914091
vn 1.000000 -0.000001 0.000002
vn 1.000000 -0.000001 0.000002
vn 1.000000 -0.000000 0.000002
vn 1.000000 -0.000000 0.000002
vn 0.000000 0.000000 -1.000000
vn 0.000000 0.000000 -1.000000
vn 0.000000 0.000000 -1.000000
vn 0.000000 0.000000 -1.000000
vn 0.000000 -0.000000 1.000000
vn 0.000000 0.000000 1.000000
vn 0.000000 0.000000 1.000000
vn 0.000000 -0.000000 1.000000
vn -1.000000 0.000000 0.000000
vn -1.000000 -0.000000 -0.000000
vn -1.000000 -0.000000 -0.000000
vn -1.000000 0.000000 0.000000
vn 0.000000 1.000000 0.000000
vn 0.000000 1.000000 0.000000
vn 0.000000 1.000000 0.000000
vn 0.000000 1.000000 0.000000
vn 1.000000 -0.000000 0.000000
vn 1.000000 -0.000000 0.000000
vn 1.000000 -0.000000 0.000000
vn 1.000000 -0.000000 0.000002
vn 1.000000 -0.000000 0.000002
vn 1.000000 0.000000 0.000000
vn 1.000000 -0.000000 0.000000
vn 1.000000 -0.000000 0.000002
vn 1.000000 -0.000001 0.000002
vn 1.000000 0.000000 0.000000
vn 1.000000 0.000000 0.000000
vn 1.000000 -0.000000 0.000002
vn 0.000000 -1.000000 0.000000
vn 0.000000 -1.000000 0.000000
vn 0.000000 -1.000000 0.000000
vn 0.000000 -1.000000 0.000000
vn -1.000000 -0.000000 -0.000000
vn -1.000000 0.000000 0.000000
vn -1.000000 0.000000 0.000000
vn -1.000000 0.000000 0.000000
vn -1.000000 -0.000000 -0.000000
vn -1.000000 0.000000 0.000000
vn -1.000000 0.000000 0.000000
vn -1.000000 -0.000000 -0.000000
vn -1.000000 0.000000 0.000000
vn -1.000000 0.000000 0.000000
vn -1.000000 -0.000000 -0.000000
vn -1.000000 0.000000 0.000000
vn -1.000000 0.000000 0.000000
vn -1.000000 0.000000 0.000000
vn -1.000000 0.000000 0.000000
vn -1.000000 0.000000 0.000000
vn 0.000000 1.000000 0.000000
vn 0.000000 1.000000 0.000000
vn 0.000000 1.000000 0.000000
vn 0.000000 1.000000 0.000000
vn 1.000000 0.000000 0.000000
vn 1.000000 0.000000 0.000000
vn 1.000000 0.000000 0.000000
vn 1.000000 0.000000 0.000000
vn 0.000000 -1.000000 0.000000
vn 0.000000 -1.000000 0.000000
vn 0.000000 -1.000000 0.000000
vn 0.000000 -1.000000 0.000000
vn 0.000000 0.000000 -1.000000
vn 0.000000 0.000000 -1.000000
vn 0.000000 0.000000 -1.000000
vn 0.000000 0.000000 -1.000000
vn 0.000000 0.000000 1.000000
vn 0.000000 0.000000 1.000000
vn 0.000000 0.000000 1.000000
vn 0.000000 0.000000 1.000000
vn -1.000000 0.000000 0.000000
vn -1.000000 0.000000 0.000000
vn -1.000000 0.000000 0.000000
vn -1.000000 0.000000 0.000000
vn 0.000000 1.000000 0.000000
vn 0.000000 1.000000 0.000000
vn 0.000000 1.000000 0.000000
vn 0.000000 1.000000 0.000000
vn 1.000000 0.000000 0.000000
vn 1.000000 0.000000 0.000000
vn 1.000000 0.000000 0.000000
vn 1.000000 0.000000 0.000000
vn 0.000000 -1.000000 0.000000
vn 0.000000 -1.000000 0.000000
vn 0.000000 -1.000000 0.000000
vn 0.000000 -1.000000 0.000000
vn 0.000000 0.000000 -1.000000
vn 0.000000 0.000000 -1.000000
vn 0.000000 0.000000 -1.000000
vn 0.000000 0.000000 -1.000000
vn 0.000000 0.000000 1.000000
vn 0.000000 0.000000 1.000000
vn 0.000000 0.000000 1.000000
vn 0.000000 0.000000 1.000000
vn -1.000000 0.000000 0.000000
vn -1.000000 0.000000 0.000000
vn -1.000000 0.000000 0.000000
vn -1.000000 0.000000 0.000000
vn 0.000000 1.000000 0.000000
vn 0.000000 1.000000 0.000000
vn 0.000000 1.000000 0.000000
vn 0.000000 1.000000 0.000000
vn 1.000000 0.000000 0.000000
vn 1.000000 0.000000 0.000000
vn 1.000000 0.000000 0.000000
vn 1.000000 0.000000 0.000000
vn 0.000000 -1.000000 0.000000
vn 0.000000 -1.000000 0.000000
vn 0.000000 -1.000000 0.000000
vn 0.000000 -1.000000 0.000000
vn 0.000000 0.000000 -1.000000
vn 0.000000 0.000000 -1.000000
vn 0.000000 0.000000 -1.000000
vn 0.000000 0.000000 -1.000000
vn 0.000000 0.000000 1.000000
vn 0.000000 0.000000 1.000000
vn 0.000000 0.000000 1.000000
vn 0.000000 0.000000 1.000000
vn -1.000000 0.000000 0.000000
vn -1.000000 0.000000 0.000000
vn -1.000000 0.000000 0.000000
vn -1.000000 0.000000 0.000000
vn 0.000000 1.000000 0.000000
vn 0.000000 1.000000 0.000000
vn 0.000000 1.000000 0.000000
vn 0.000000 1.000000 0.000000
vn 1.000000 0.000000 0.000000
vn 1.000000 0.000000 0.000000
vn 1.000000 0.000000 0.000000
vn 1.000000 0.000000 0.000000
vn 0.000000 -1.000000 0.000000
vn 0.000000 -1.000000 0.000000
vn 0.000000 -1.000000 0.000000
vn 0.000000 -1.000000 0.000000
vn 0.000000 0.000000 -1.000000
vn 0.000000 0.000000 -1.000000
vn 0.000000 0.000000 -1.000000
vn 0.000000 0.000000 -1.000000
vn 0.000000 0.000000 1.000000
vn 0.000000 0.000000 1.000000
vn 0.000000 0.000000 1.000000
vn 0.000000 0.000000 1.000000
vn 0.000175 0.115390 0.993320
vn 0.004088 0.115131 0.993342
vn -0.000000 0.115332 0.993327
vn -0.000000 0.115332 0.993327
vn 0.000000 0.115332 0.993327
vn 0.007086 0.118649 0.992911
vn 0.001466 0.116019 0.993246
vn 0.001466 0.116019 0.993246
vn 0.007086 0.118649 0.992911
vn 0.031285 0.122020 0.992034
vn 0.029209 0.107336 0.993794
vn 0.000000 0.115031 0.993362
vn 0.000000 0.115031 0.993362
vn 0.000000 0.115031 0.993362
vn -0.000000 0.115031 0.993362
vn 0.004088 0.115131 0.993342
vn 0.000175 0.115390 0.993320
vn 0.020880 0.117095 0.992901
vn -0.000670 -0.055725 -0.998446
vn -0.006801 -0.118531 -0.992927
vn -0.000000 -0.115355 -0.993324
vn -0.000000 -0.115355 -0.993324
vn -0.000000 -0.115355 -0.993324
vn 0.000072 -0.115332 -0.993327
vn 0.000000 -0.054229 -0.998529
vn 0.000000 -0.054229 -0.998529
vn 0.000072 -0.115332 -0.993327
vn 0.000279 -0.115266 -0.993335
vn 0.000000 -0.115056 -0.993359
vn 0.000000 -0.115056 -0.993359
vn 0.000000 -0.115056 -0.993359
vn 0.000000 -0.115056 -0.993359
vn -0.031305 -0.122024 -0.992033
vn -0.006801 -0.118531 -0.992927
vn -0.000670 -0.055725 -0.998446
vn -0.029211 -0.107339 -0.993793
vn -1.000000 0.000000 0.000000
vn -1.000000 0.000000 0.000000
vn -1.000000 0.000000 0.000000
vn -1.000000 0.000000 0.000000
vn 1.000000 0.000002 -0.000007
vn 1.000000 0.000004 -0.000004
vn 1.000000 0.000004 -0.000004
vn 1.000000 0.000002 -0.000008
vn 0.000000 -1.000000 0.000001
vn -0.000000 -1.000000 0.000000
vn -0.000000 -1.000000 0.000000
vn -0.000000 -1.000000 0.000001
vn 0.000000 1.000000 0.000000
vn 0.000000 1.000000 0.000000
vn 0.000000 1.000000 0.000000
vn 0.000000 1.000000 0.000000
vn 0.000000 -0.000000 1.000000
vn 0.000000 -0.000000 1.000000
vn 0.000000 -0.000000 1.000000
vn 0.000000 -0.000000 1.000000
vn 0.000000 -0.000000 1.000000
vn 0.000000 -0.000000 1.000000
vn 0.000000 -0.000000 1.000000
vn -1.000000 -0.000000 -0.000000
vn -1.000000 -0.000000 -0.000000
vn -1.000000 -0.000000 -0.000000
vn -1.000000 -0.000000 -0.000000
vn -1.000000 -0.000000 -0.000000
vn -1.000000 -0.000000 -0.000000
vn 0.000000 1.000000 -0.000000
vn 0.000000 1.000000 -0.000000
vn 0.000000 1.000000 -0.000000
vn 0.000000 1.000000 -0.000000
vn 0.000000 1.000000 -0.000000
vn 0.000000 1.000000 -0.000000
vn 0.000000 1.000000 -0.000000
vn 0.000000 1.000000 -0.000000
vn 0.000000 1.000000 -0.000000
vn -0.285900 0.954765 0.081762
vn -0.284161 0.955115 0.083718
vn -0.306368 0.950112 0.058532
vn -0.306368 0.950112 0.058532
vn -0.098595 0.599112 0.794571
vn -0.098595 0.599112 0.794571
vn -0.098595 0.599112 0.794571
vn -0.098595 0.599112 0.794571
vn 0.232476 0.927031 0.294226
vn 0.232476 0.927031 0.294226
vn 0.232476 0.927031 0.294226
vn 0.232476 0.927031 0.294226
vn -0.146862 0.936707 0.317824
vn -0.146862 0.936707 0.317824
vn -0.146862 0.936707 0.317824
vn -0.146862 0.936707 0.317824
vn -0.371202 0.920097 -0.125021
vn -0.371202 0.920097 -0.125021
vn -0.371202 0.920097 -0.125021
vn -0.371202 0.920097 -0.125021
vn -0.310543 0.808905 0.499235
vn -0.310543 0.808905 0.499235
vn -0.310543 0.808905 0.499235
vn -0.310543 0.808905 0.499235
vn -0.243443 0.951454 -0.188338
vn -0.243443 0.951454 -0.188338
vn -0.243443 0.951454 -0.188338
vn -0.243443 0.951454 -0.188338
vn -0.831433 0.193043 0.521012
vn -0.831433 0.193043 0.521012
vn -0.831433 0.193043 0.521012
vn -0.831433 0.193043 0.521012
vn 0.025250 0.979708 0.198832
vn 0.025250 0.979708 0.198832
vn 0.025250 0.979708 0.198832
vn 0.025250 0.979708 0.198832
vn -0.257728 0.959575 0.113101
vn -0.257728 0.959575 0.113101
vn -0.284161 0.955115 0.083718
vn -0.285900 0.954765 0.081762
vn 0.031285 0.122020 0.992034
vn 0.016574 0.101823 0.994664
vn 0.013200 0.104516 0.994436
vn 0.029209 0.107336 0.993794
vn 1.000000 0.000001 -0.000010
vn 1.000000 0.000001 -0.000010
vn 1.000000 0.000002 -0.000007
vn 1.000000 0.000002 -0.000008
vn -0.013193 -0.104531 -0.994434
vn -0.016565 -0.101835 -0.994663
vn -0.031305 -0.122024 -0.992033
vn -0.029211 -0.107339 -0.993793
vn -1.000000 0.000000 0.000000
vn -1.000000 0.000000 0.000000
vn -1.000000 0.000000 0.000000
vn -1.000000 0.000000 0.000000
vn 0.004088 0.115131 0.993342
vn 0.009428 0.114795 0.993344
vn 0.000000 0.115332 0.993327
vn -0.000000 0.115332 0.993327
vn -0.000000 0.115332 0.993327
vn 0.005920 0.114822 0.993369
vn 0.007676 0.114759 0.993364
vn 0.009428 0.114795 0.993344
vn 0.004088 0.115131 0.993342
vn 0.020880 0.117095 0.992901
vn 1.000000 -0.000000 0.000000
vn 1.000000 0.000000 0.000000
vn 1.000000 0.000000 0.000000
vn 1.000000 -0.000000 0.000000
vn 0.000072 -0.115332 -0.993327
vn 0.000203 -0.115290 -0.993332
vn 0.000151 -0.115170 -0.993346
vn 0.000116 -0.115143 -0.993349
vn 0.000279 -0.115266 -0.993335
vn -0.000000 -0.115355 -0.993324
vn 0.000203 -0.115290 -0.993332
vn 0.000072 -0.115332 -0.993327
vn -0.000000 -0.115355 -0.993324
vn -0.000000 -0.115355 -0.993324
vn 0.000000 1.000000 0.000000
vn 0.000000 1.000000 0.000000
vn 0.000000 1.000000 0.000000
vn 0.000000 1.000000 0.000000
vn 0.000000 0.115031 0.993362
vn 0.007676 0.114759 0.993364
vn 0.005920 0.114822 0.993369
vn 0.000000 0.115031 0.993362
vn -0.000000 -1.000000 0.000000
vn 0.000000 -1.000000 0.000000
vn 0.000000 -1.000000 0.000000
vn -0.000000 -1.000000 0.000000
vn 0.000116 -0.115143 -0.993349
vn 0.000151 -0.115170 -0.993346
vn 0.000000 -0.115056 -0.993359
vn 0.000000 -0.115056 -0.993359
vn 0.000000 1.000000 0.000000
vn 0.000000 1.000000 0.000000
vn 0.000000 1.000000 0.000000
vn 0.000000 1.000000 0.000000
vn 0.000001 -1.000000 0.000002
vn 0.000001 -1.000000 0.000002
vn 0.000000 -1.000000 0.000001
vn -0.000000 -1.000000 0.000001
vn 0.013200 0.104516 0.994436
vn 0.016574 0.101823 0.994664
vn 0.000000 0.115031 0.993362
vn -0.000000 0.115031 0.993362
vn 0.000000 1.000000 0.000000
vn 0.000000 1.000000 0.000000
vn 0.000000 1.000000 0.000000
vn 0.000000 1.000000 0.000000
vn 0.000000 -0.115056 -0.993359
vn -0.016565 -0.101835 -0.994663
vn -0.013193 -0.104531 -0.994434
vn 0.000000 -0.115056 -0.993359
s off
f 72/190/1 75/43/2 74/213/3 73/215/4
f 75/3/5 80/207/6 79/209/7 78/210/8 77/211/9 76/212/10 74/214/11
f 4/4/12 6/40/13 7/7/14 5/36/15
f 9/78/16 21/51/17 20/57/18 8/12/19
f 11/53/20 13/48/21 12/67/22 10/14/23
f 80/208/24 75/44/25 72/202/26 82/203/27 81/206/28
f 8/75/29 20/56/30 7/60/31 6/6/32
f 10/64/33 15/61/34 14/58/35 11/18/36
f 1/8/37 9/13/38 8/76/39 6/80/40
f 9/77/41 1/79/42 2/74/43 21/52/44
f 100/285/45 104/295/46 103/300/47 97/279/48
f 12/69/49 90/253/50 89/256/51 5/63/52
f 7/27/53 10/65/54 12/15/55 5/25/56
f 20/55/57 15/62/58 10/21/59 7/26/60
f 21/50/61 14/59/62 15/20/63 20/28/64
f 2/31/65 11/54/66 14/19/67 21/29/68
f 3/45/69 13/49/70 11/17/71 2/30/72
f 86/265/73 13/16/74 3/32/75 83/223/76
f 22/81/77 24/84/78 25/83/79 23/82/80
f 24/84/81 26/86/82 27/85/83 25/83/84
f 26/86/85 28/88/86 29/87/87 27/85/88
f 28/88/89 22/90/90 23/89/91 29/87/92
f 23/91/93 25/94/94 27/93/95 29/92/96
f 28/95/97 26/98/98 24/97/99 22/96/100
f 30/99/101 32/102/102 33/101/103 31/100/104
f 32/102/105 34/104/106 35/103/107 33/101/108
f 34/104/109 36/106/110 37/105/111 35/103/112
f 36/106/113 30/108/114 31/107/115 37/105/116
f 31/109/117 33/112/118 35/111/119 37/110/120
f 36/113/121 34/116/122 32/115/123 30/114/124
f 38/117/125 40/120/126 41/119/127 39/118/128
f 40/120/129 42/122/130 43/121/131 41/119/132
f 42/122/133 44/124/134 45/123/135 43/121/136
f 44/124/137 38/126/138 39/125/139 45/123/140
f 39/127/141 41/130/142 43/129/143 45/128/144
f 44/131/145 42/134/146 40/133/147 38/132/148
f 46/135/149 48/138/150 49/137/151 47/136/152
f 48/138/153 50/140/154 51/139/155 49/137/156
f 50/140/157 52/142/158 53/141/159 51/139/160
f 52/142/161 46/144/162 47/143/163 53/141/164
f 47/145/165 49/148/166 51/147/167 53/146/168
f 52/149/169 50/152/170 48/151/171 46/150/172
f 5/9/173 88/258/174 94/259/175 93/260/176 87/231/177 54/154/178 3/39/179
f 3/39/180 54/154/181 84/270/182 83/224/183
f 102/302/184 98/309/185 97/280/186 103/299/187
f 88/258/188 5/9/189 89/255/190
f 13/47/191 58/157/192 92/245/193 96/249/194 95/250/195 91/252/196 12/68/197
f 12/68/198 91/252/199 90/254/200
f 99/283/201 101/287/202 104/296/203 100/304/204
f 85/269/205 58/157/206 13/47/207 86/264/208
f 59/161/209 55/164/210 57/163/211 60/162/212
f 84/271/213 54/167/214 58/166/215 85/268/216
f 101/288/217 99/306/218 98/310/219 102/301/220
f 92/246/221 58/175/222 54/174/223 87/232/224
f 6/10/225 4/11/226 62/178/227 65/183/228 66/184/229 63/180/230 1/1/231
f 1/41/232 63/179/233 67/185/234 64/181/235 3/37/236 2/2/237
f 62/177/238 4/42/239 5/5/240 3/38/241 64/182/242 68/186/243 69/187/244 70/188/245 71/189/246
f 63/191/247 72/194/248 73/193/249 67/192/250
f 67/192/251 73/193/252 74/196/253 64/195/254
f 64/195/255 74/196/256 76/198/257 68/197/258
f 68/197/259 76/198/260 77/200/261 69/199/262
f 69/199/263 77/200/264 78/204/265 70/201/266
f 70/201/267 78/204/268 79/216/269 71/205/270
f 71/205/271 79/216/272 80/218/273 62/217/274
f 62/217/275 80/218/276 81/220/277 65/219/278
f 65/219/279 81/220/280 82/222/281 66/221/282
f 66/221/283 82/222/284 72/194/285 63/191/286
f 84/225/287 56/274/288 16/278/289 83/266/290
f 61/165/291 56/168/292 84/226/293 85/228/294
f 18/272/295 61/160/296 85/227/297 86/230/298
f 16/46/299 18/73/300 86/229/301 83/267/302
f 88/257/303 55/153/304 87/247/305 93/241/306 94/242/307
f 17/262/308 57/156/309 55/263/310 88/233/311 89/235/312
f 90/236/313 19/23/314 17/24/315 89/234/316
f 91/251/317 59/261/318 60/275/319 19/277/320 90/237/321
f 92/239/322 59/158/323 91/238/324 95/243/325 96/244/326
f 55/173/327 59/176/328 92/240/329 87/248/330
f 98/281/331 57/276/332 17/34/333 97/307/334
f 99/284/335 60/171/336 57/170/337 98/282/338
f 19/70/339 60/159/340 99/305/341 100/286/342
f 17/66/343 19/71/344 100/303/345 97/308/346
f 56/169/347 61/172/348 101/297/349 102/290/350
f 16/35/351 56/155/352 102/289/353 103/292/354
f 104/293/355 18/22/356 16/33/357 103/291/358
f 101/298/359 61/273/360 18/72/361 104/294/362
