# This file uses centimeters as units for non-parametric coordinates.

v -0.500001 0.000000 -0.053074
v -0.500001 0.000000 0.053074
v -0.500001 1.212103 -0.053074
v -0.500001 1.212103 0.053074
v 0.499999 1.212103 -0.053074
v 0.499999 1.212103 0.053074
v 0.499999 0.000000 -0.053074
v 0.499999 0.000000 0.053074
v 0.426063 0.081792 0.053074
v -0.426064 0.081792 0.053074
v 0.426063 1.130311 0.053074
v -0.426064 1.130311 0.053074
v 0.390798 0.125184 0.002321
v -0.390800 0.125184 0.002321
v 0.390798 1.086919 0.002321
v -0.390800 1.086919 0.002321
v 0.353194 0.125184 0.002321
v -0.390800 0.261737 0.002321
v 0.276015 0.365287 0.002321
v 0.083532 0.394689 0.002321
v -0.036224 0.215426 0.002321
v -0.194674 0.407405 0.002321
v -0.350865 0.388020 0.002321
v -0.166684 0.482206 0.002321
v 0.068953 0.467676 0.002321
v -0.224364 0.855262 0.002321
v -0.178754 0.945930 0.002321
v 0.083477 0.993022 0.002321
v 0.144811 0.845625 0.002321
v -0.200195 0.564075 0.002321
v 0.107455 0.551813 0.002321
v -0.225911 0.403528 0.002321
v -0.177081 0.125184 0.002321
v 0.132023 0.387282 0.002321
v 0.055511 0.125184 0.002321
v -0.043015 0.401077 0.002321
v 0.027786 0.395944 0.002321
v -0.058479 1.005942 0.002321
v -0.390800 0.466848 0.002321
v -0.268503 1.005604 0.002321
v -0.144621 1.086919 0.002321
v -0.294442 0.551821 0.002321
v -0.272971 0.776662 0.002321
v 0.113605 1.086919 0.002321
v 0.207409 1.030887 0.002321
v 0.259048 0.771523 0.002321
v 0.197035 0.498109 0.002321
v 0.341941 0.423315 0.002321
v -0.105789 0.738996 0.002321
v -0.105789 0.689794 0.002321
v -0.063790 0.689794 0.002321
v -0.063790 0.738996 0.002321
v 0.036516 0.738996 0.002321
v 0.036516 0.689794 0.002321
v 0.074427 0.689794 0.002321
v 0.074427 0.738996 0.002321
vt 0.200963 0.046977
vt 0.174502 0.046977
vt 0.235264 0.046977
vt 0.200963 0.046977
vt 0.174502 0.046977
vt 0.235264 0.046977
vt 0.140200 0.046977
vt 0.174502 0.046977
vt 0.140200 0.046977
vt 0.140200 0.046977
vt 0.200963 0.046977
vt 0.200963 0.046977
vt 0.200963 0.046977
vt 0.200963 0.046977
vt 0.235264 0.046977
vt 0.174502 0.046977
vt 0.174502 0.046977
vt 0.235264 0.046977
vt 0.200963 0.046977
vt 0.174502 0.046977
vt 0.174502 0.046977
vt 0.200963 0.046977
vt 0.140200 0.046977
vt 0.174502 0.046977
vt 0.172000 0.046977
vt 0.172000 0.046977
vt 0.172000 0.046977
vt 0.200963 0.046977
vt 0.172000 0.046977
vt 0.172000 0.046977
vt 0.200963 0.046977
vt 0.172000 0.046977
vt 0.200963 0.046977
vt 0.172000 0.046977
vt 0.172000 0.046977
vt 0.200963 0.046977
vt 0.200963 0.046977
vt 0.172000 0.046977
vt 0.172000 0.046977
vt 0.200963 0.046977
vt 0.200963 0.046977
vt 0.172000 0.046977
vt 0.200963 0.046977
vt 0.200963 0.046977
vt 0.200963 0.046977
vt 0.200963 0.046977
vt 0.200963 0.046977
vt 0.172000 0.046977
vt 0.200963 0.046977
vt 0.200963 0.046977
vt 0.200963 0.046977
vt 0.200963 0.046977
vt 0.172000 0.046977
vt 0.142064 0.061309
vt 0.200963 0.046977
vt 0.142064 0.061309
vt 0.142064 0.061309
vt 0.238219 0.058992
vt 0.238219 0.058992
vt 0.238219 0.058992
vt 0.142064 0.061309
vt 0.108467 0.443616
vt 0.108467 0.443616
vt 0.140905 0.444774
vt 0.140905 0.444774
vt 0.140905 0.444774
vt 0.140905 0.444774
vt 0.140905 0.444774
vt 0.140905 0.444774
vt 0.238219 0.058992
vt 0.172000 0.046977
vt 0.238219 0.058992
vt 0.238219 0.058992
vt 0.172000 0.046977
vt 0.238219 0.058992
vt 0.108467 0.443616
vt 0.108467 0.443616
vt 0.140905 0.444774
vt 0.199989 0.063626
vt 0.199989 0.063626
vt 0.199989 0.063626
vt 0.199989 0.063626
vt 0.175660 0.063626
vt 0.175660 0.063626
vt 0.175660 0.063626
vt 0.199989 0.063626
vt 0.199989 0.063626
vt 0.199989 0.063626
vt 0.199989 0.063626
vt 0.175660 0.063626
vt 0.199989 0.063626
vt 0.199989 0.063626
vt 0.199989 0.063626
vt 0.199989 0.063626
vt 0.199989 0.063626
vt 0.199989 0.063626
vt 0.199989 0.063626
vt 0.199989 0.063626
vt 0.200963 0.046977
vt 0.199989 0.063626
vt 0.199989 0.063626
vt 0.172000 0.046977
vt 0.199989 0.063626
vt 0.199989 0.063626
vt 0.199989 0.063626
vt 0.172000 0.046977
vt 0.199989 0.063626
vt 0.199989 0.063626
vt 0.199989 0.063626
vt 0.199989 0.063626
vt 0.199989 0.063626
vt 0.175660 0.063626
vt 0.199989 0.063626
vt 0.175660 0.063626
vt 0.175660 0.063626
vt 0.199989 0.063626
vt 0.175660 0.063626
vt 0.175660 0.063626
vt 0.199989 0.063626
vt 0.175660 0.063626
vt 0.199989 0.063626
vt 0.175660 0.063626
vt 0.175660 0.063626
vt 0.175660 0.063626
vt 0.199989 0.063626
vt 0.199989 0.063626
vt 0.140905 0.444774
vt 0.140905 0.444774
vt 0.140905 0.444774
vt 0.140905 0.444774
vt 0.108467 0.443616
vt 0.108467 0.443616
vt 0.108467 0.443615
vt 0.142064 0.061309
vt 0.142064 0.061309
vt 0.142064 0.061309
vt 0.142064 0.061309
vt 0.142064 0.061309
vt 0.140905 0.444774
vt 0.140905 0.444774
vt 0.140905 0.444774
vt 0.140905 0.444774
vt 0.140905 0.444774
vt 0.140905 0.444774
vt 0.140905 0.444774
vt 0.140905 0.444774
vt 0.081821 0.442457
vt 0.081821 0.442457
vt 0.081821 0.442457
vt 0.081821 0.442457
vt 0.081821 0.442457
vt 0.081821 0.442457
vt 0.081821 0.442457
vt 0.081821 0.442457
vn -1.000000 0.000000 0.000000
vn -1.000000 0.000000 0.000000
vn -1.000000 0.000000 0.000000
vn -1.000000 0.000000 0.000000
vn 0.000000 1.000000 0.000000
vn 0.000000 1.000000 0.000000
vn 0.000000 1.000000 0.000000
vn 0.000000 1.000000 0.000000
vn 1.000000 0.000000 0.000000
vn 1.000000 0.000000 0.000000
vn 1.000000 0.000000 0.000000
vn 1.000000 0.000000 0.000000
vn 0.000000 -1.000000 0.000000
vn 0.000000 -1.000000 0.000000
vn 0.000000 -1.000000 0.000000
vn 0.000000 -1.000000 0.000000
vn 0.000000 0.000000 -1.000000
vn 0.000000 0.000000 -1.000000
vn 0.000000 0.000000 -1.000000
vn 0.000000 0.000000 -1.000000
vn 0.000000 0.000000 1.000000
vn 0.000000 0.000000 1.000000
vn 0.000000 0.000000 1.000000
vn 0.000000 0.000000 1.000000
vn -0.000000 0.000000 1.000000
vn -0.000000 0.000000 1.000000
vn -0.000000 0.000000 1.000000
vn -0.000000 0.000000 1.000000
vn 0.000000 0.000000 1.000000
vn 0.000000 0.000000 1.000000
vn 0.000000 0.000000 1.000000
vn 0.000000 0.000000 1.000000
vn 0.000000 0.000000 1.000000
vn 0.000000 0.000000 1.000000
vn 0.000000 0.000000 1.000000
vn 0.000000 0.000000 1.000000
vn 0.000000 0.760070 0.649841
vn 0.000000 0.760070 0.649841
vn 0.000000 0.760070 0.649841
vn 0.000000 0.760070 0.649841
vn 0.000000 0.760070 0.649841
vn 0.000000 0.760070 0.649841
vn 0.000000 0.760070 0.649841
vn -0.821217 0.000000 0.570616
vn -0.821217 0.000000 0.570616
vn -0.821217 0.000000 0.570616
vn -0.821217 0.000000 0.570616
vn 0.000000 -0.760071 0.649840
vn 0.000000 -0.760071 0.649840
vn 0.000000 -0.760071 0.649840
vn 0.000000 -0.760071 0.649840
vn 0.000000 -0.760071 0.649840
vn 0.000000 -0.760071 0.649840
vn 0.821221 0.000000 0.570610
vn 0.821221 0.000000 0.570610
vn 0.821221 0.000000 0.570610
vn 0.821221 0.000000 0.570610
vn 0.821221 0.000000 0.570610
vn 0.821221 0.000000 0.570610
vn 0.000000 0.000001 1.000000
vn 0.000000 0.000001 1.000000
vn 0.000000 0.000001 1.000000
vn 0.000000 0.000001 1.000000
vn 0.000003 -0.000000 1.000000
vn 0.000003 -0.000000 1.000000
vn 0.000003 -0.000000 1.000000
vn 0.000003 -0.000000 1.000000
vn 0.000003 -0.000000 1.000000
vn -0.000000 0.000000 1.000000
vn -0.000000 0.000000 1.000000
vn -0.000000 0.000000 1.000000
vn -0.000000 0.000000 1.000000
vn -0.000000 0.000000 1.000000
vn -0.000000 0.000000 1.000000
vn -0.000000 0.000000 1.000000
vn -0.000000 -0.000000 1.000000
vn -0.000000 -0.000000 1.000000
vn -0.000000 -0.000000 1.000000
vn -0.000000 -0.000000 1.000000
vn -0.000000 -0.000000 1.000000
vn -0.000000 -0.000000 1.000000
vn -0.000000 -0.000000 1.000000
vn -0.000000 -0.000000 1.000000
vn -0.000000 -0.000000 1.000000
vn -0.000003 -0.000000 1.000000
vn -0.000003 -0.000000 1.000000
vn -0.000003 -0.000000 1.000000
vn -0.000003 -0.000000 1.000000
vn -0.000003 -0.000000 1.000000
vn -0.000003 -0.000000 1.000000
vn 0.000000 -0.000003 1.000000
vn 0.000000 -0.000003 1.000000
vn 0.000000 -0.000003 1.000000
vn 0.000000 0.000001 1.000000
vn 0.000000 0.000001 1.000000
vn 0.000000 0.000001 1.000000
vn 0.000000 0.000001 1.000000
vn 0.000000 0.000001 1.000000
vn 0.000000 0.000002 1.000000
vn 0.000000 0.000002 1.000000
vn 0.000000 0.000002 1.000000
vn 0.000000 0.000002 1.000000
vn 0.000000 0.000002 1.000000
vn 0.000000 0.000002 1.000000
vn 0.000000 0.000002 1.000000
vn 0.000001 -0.000000 1.000000
vn 0.000001 -0.000000 1.000000
vn 0.000001 -0.000000 1.000000
vn 0.000001 -0.000000 1.000000
vn 0.000001 -0.000000 1.000000
vn 0.000001 -0.000000 1.000000
vn 0.000001 -0.000000 1.000000
vn 0.000001 -0.000000 1.000000
vn 0.000001 -0.000000 1.000000
vn 0.000001 -0.000000 1.000000
vn 0.000001 -0.000000 1.000000
vn 0.000001 -0.000000 1.000000
vn 0.000000 -0.000004 1.000000
vn 0.000000 -0.000004 1.000000
vn 0.000000 -0.000004 1.000000
vn 0.000000 -0.000004 1.000000
vn 0.000000 -0.000004 1.000000
vn 0.000000 -0.000004 1.000000
vn 0.000000 -0.000004 1.000000
vn 0.000000 -0.000004 1.000000
vn 0.000000 -0.000004 1.000000
vn 0.000000 -0.000004 1.000000
vn -0.000000 0.000000 1.000000
vn -0.000000 0.000000 1.000000
vn -0.000000 0.000000 1.000000
vn -0.000000 0.000000 1.000000
vn -0.000000 0.000000 1.000000
vn -0.000000 0.000000 1.000000
vn -0.000000 0.000000 1.000000
vn -0.000000 0.000000 1.000000
vn -0.000000 0.000000 1.000000
vn -0.000000 0.000000 1.000000
vn -0.000000 0.000000 1.000000
vn -0.000000 0.000000 1.000000
vn -0.000000 0.000000 1.000000
vn -0.000000 0.000000 1.000000
vn -0.000000 0.000000 1.000000
vn -0.000000 0.000000 1.000000
vn -0.000000 0.000000 1.000000
vn 0.000000 0.000000 1.000000
vn 0.000000 0.000000 1.000000
vn 0.000000 0.000000 1.000000
vn 0.000000 0.000000 1.000000
vn 0.000000 0.000000 1.000000
vn 0.000000 0.000000 1.000000
vn 0.000000 0.000000 1.000000
vn 0.000000 0.000000 1.000000
vn 0.000000 0.000000 1.000000
vn 0.000000 0.000000 1.000000
vn 0.000000 0.000000 1.000000
vn 0.000000 0.000000 1.000000
vn 0.000000 0.000000 1.000000
vn 0.000000 0.000000 1.000000
vn 0.000000 0.000000 1.000000
vn 0.000000 0.000000 1.000000
vn 0.000000 0.000000 1.000000
vn 0.000000 0.000000 1.000000
vn 0.000000 0.000000 1.000000
vn 0.000000 0.000000 1.000000
vn 0.000000 0.000000 1.000000
vn 0.000000 0.000000 1.000000
vn 0.000000 0.000000 1.000000
vn 0.000000 0.000000 1.000000
vn 0.000000 0.000000 1.000000
vn 0.000000 0.000000 1.000000
s off
f 1/20/1 2/2/2 4/21/3 3/17/4
f 3/3/5 4/15/6 6/6/7 5/18/8
f 5/5/9 6/16/10 8/8/11 7/24/12
f 7/7/13 8/23/14 2/10/15 1/9/16
f 7/13/17 1/1/18 3/22/19 5/14/20
f 2/19/21 8/52/22 9/47/23 10/43/24
f 8/11/25 6/50/26 11/41/27 9/46/28
f 6/12/29 4/49/30 12/37/31 11/40/32
f 4/4/33 2/51/34 10/44/35 12/36/36
f 10/25/37 9/48/38 13/39/39 17/53/40 35/74/41 33/71/42 14/32/43
f 9/26/44 11/42/45 15/35/46 13/29/47
f 11/27/48 12/38/49 16/34/50 41/102/51 44/106/52 15/30/53
f 12/28/54 10/45/55 14/33/56 18/55/57 39/99/58 16/31/59
f 17/54/60 19/56/61 34/57/62 35/61/63
f 39/124/64 42/123/65 43/122/66 40/120/67 16/83/68
f 20/62/69 25/63/70 37/76/71 36/77/72 24/131/73 22/132/74 21/133/75
f 26/78/76 49/139/77 52/142/78 53/143/79 56/146/80 29/66/81 28/67/82 38/68/83 27/69/84
f 13/84/85 15/85/86 45/117/87 46/115/88 47/114/89 48/112/90
f 40/120/91 41/90/92 16/83/93
f 33/134/94 32/135/95 23/136/96 18/137/97 14/138/98
f 35/58/99 34/59/100 20/60/101 21/70/102 22/72/103 32/73/104 33/75/105
f 27/126/106 40/119/107 43/81/108 42/80/109 39/79/110 18/92/111 23/93/112 32/94/113 22/95/114 24/96/115 30/97/116 26/98/117
f 44/118/118 45/117/119 15/85/120
f 28/101/121 45/116/122 44/100/123 41/121/124 40/82/125 27/91/126 38/103/127
f 13/113/128 48/89/129 47/88/130 46/87/131 45/86/132 28/125/133 29/104/134 31/105/135 25/107/136 20/108/137 34/109/138 19/110/139 17/111/140
f 55/145/141 31/65/142 29/66/143 56/146/144
f 51/141/145 54/144/146 53/143/147 52/142/148
f 30/127/149 50/140/150 49/139/151 26/78/152
f 52/147/153 49/148/154 50/149/155 51/150/156
f 56/151/157 53/152/158 54/153/159 55/154/160
f 25/64/161 31/65/162 55/145/163 54/144/164 51/141/165 50/140/166 30/127/167 24/128/168 36/129/169 37/130/170
