# This file uses centimeters as units for non-parametric coordinates.

v -0.500000 0.000000 -0.500000
v -0.500000 0.000000 0.500000
v -0.648038 0.903158 -0.648039
v -0.648038 0.903158 0.648039
v 0.648039 0.903158 -0.648039
v 0.648039 0.903158 0.648039
v 0.500000 0.000000 -0.500000
v 0.500000 0.000000 0.500000
v -0.648039 0.803160 -0.648039
v -0.648039 0.803160 0.648039
v 0.648039 0.803160 0.648039
v 0.648039 0.803160 -0.648039
v -0.500000 0.803160 -0.500000
v -0.500000 0.803160 0.500000
v 0.500001 0.803160 0.500000
v 0.500001 0.803160 -0.500000
v 0.391703 0.101621 0.500000
v -0.391702 0.101621 0.500000
v 0.391704 0.701539 0.500000
v -0.391703 0.701539 0.500000
v 0.391703 0.101621 -0.500000
v -0.391702 0.101621 -0.500000
v -0.391703 0.701539 -0.500000
v 0.391704 0.701539 -0.500000
v -0.388823 0.803160 0.648039
v -0.388823 0.903158 0.648039
v -0.241001 0.903158 0.440180
v -0.254785 0.803160 0.500000
v -0.205483 0.903158 0.648039
v -0.205483 0.803160 0.648039
v -0.341595 0.247301 0.113059
v -0.341595 0.397562 0.113059
v -0.106495 0.247301 -0.339061
v -0.106495 0.397562 -0.339061
v 0.231808 0.247301 -0.163146
v 0.231808 0.397562 -0.163146
v -0.003292 0.247301 0.288976
v -0.003292 0.397562 0.288976
v 0.231807 0.375022 -0.163146
v -0.003293 0.375022 0.288975
v -0.003293 0.269840 0.288975
v 0.231807 0.269840 -0.163146
v -0.085150 0.269840 -0.327962
v -0.085150 0.375022 -0.327962
v -0.320250 0.375022 0.124159
v -0.320250 0.269840 0.124159
v 0.109298 0.097476 0.279194
v 0.109298 0.247736 0.279194
v -0.323591 0.097476 0.010322
v -0.323591 0.247736 0.010322
v -0.122405 0.097476 -0.313591
v -0.122405 0.247736 -0.313591
v 0.310484 0.097476 -0.044719
v 0.310484 0.247736 -0.044719
v -0.122405 0.225197 -0.313590
v 0.310484 0.225197 -0.044719
v 0.310484 0.120015 -0.044719
v -0.122405 0.120015 -0.313590
v -0.310897 0.120015 -0.010116
v -0.310897 0.225197 -0.010116
v 0.121992 0.225197 0.258757
v 0.121992 0.120015 0.258757
vt 0.233744 0.047530
vt 0.207283 0.047530
vt 0.268045 0.047530
vt 0.233744 0.047530
vt 0.207283 0.047530
vt 0.268045 0.047530
vt 0.172981 0.047530
vt 0.207283 0.047530
vt 0.172981 0.047529
vt 0.172981 0.047529
vt 0.233744 0.047530
vt 0.233744 0.047530
vt 0.233744 0.047530
vt 0.233744 0.047530
vt 0.268045 0.047530
vt 0.207283 0.047530
vt 0.207283 0.047530
vt 0.268045 0.047530
vt 0.233744 0.047530
vt 0.207283 0.047530
vt 0.207283 0.047530
vt 0.233744 0.047530
vt 0.172981 0.047530
vt 0.207283 0.047530
vt 0.172613 0.048099
vt 0.207283 0.047530
vt 0.172613 0.048099
vt 0.233744 0.047530
vt 0.172613 0.048099
vt 0.172613 0.048099
vt 0.172613 0.048099
vt 0.172613 0.048099
vt 0.233744 0.047530
vt 0.172613 0.048099
vt 0.207283 0.047530
vt 0.233744 0.047530
vt 0.172613 0.048099
vt 0.233744 0.047530
vt 0.233744 0.047530
vt 0.207283 0.047530
vt 0.261176 0.047530
vt 0.207879 0.047530
vt 0.172613 0.048099
vt 0.207879 0.047530
vt 0.261176 0.047530
vt 0.207879 0.047530
vt 0.172613 0.048099
vt 0.207879 0.047530
vt 0.261176 0.047530
vt 0.233744 0.047530
vt 0.233744 0.047530
vt 0.261176 0.047530
vt 0.233744 0.047530
vt 0.207879 0.047530
vt 0.207879 0.047530
vt 0.233744 0.047530
vt 0.233744 0.047530
vt 0.207879 0.047530
vt 0.207879 0.047530
vt 0.233744 0.047530
vt 0.172613 0.048099
vt 0.233744 0.047530
vt 0.233744 0.047530
vt 0.172613 0.048099
vt 0.172613 0.048099
vt 0.172613 0.048099
vt 0.172613 0.048099
vt 0.207283 0.047530
vt 0.172613 0.048099
vt 0.207283 0.047530
vt 0.172613 0.048099
vt 0.172613 0.048099
vt 0.207283 0.047530
vt 0.172613 0.048099
vt 0.233744 0.047530
vt 0.172613 0.048099
vt 0.207283 0.047530
vt 0.233744 0.047530
vt 0.233744 0.047530
vt 0.207283 0.047530
vt 0.359149 0.047530
vt 0.172613 0.048099
vt 0.268045 0.047530
vt 0.233744 0.047530
vt 0.268045 0.047530
vt 0.359149 0.047530
vt 0.359149 0.047530
vt 0.172613 0.048099
vt 0.268045 0.047530
vt 0.359149 0.047530
vt 0.233744 0.047530
vt 0.172613 0.048099
vt 0.233744 0.047530
vt 0.233744 0.047530
vt 0.359149 0.047530
vt 0.359149 0.047530
vt 0.359149 0.047530
vt 0.172613 0.048099
vt 0.233744 0.047530
vt 0.359149 0.047530
vt 0.203714 0.066869
vt 0.203714 0.066869
vt 0.203714 0.066869
vt 0.203714 0.066869
vt 0.419014 0.060758
vt 0.419014 0.060758
vt 0.419014 0.060758
vt 0.419014 0.060758
vt 0.358252 0.060758
vt 0.358252 0.060758
vt 0.358252 0.060758
vt 0.358252 0.060758
vt 0.323950 0.060758
vt 0.323950 0.060758
vt 0.323950 0.060758
vt 0.323950 0.060758
vt 0.230175 0.066869
vt 0.230175 0.066869
vt 0.230175 0.066869
vt 0.230175 0.066869
vt 0.230175 0.066869
vt 0.230175 0.066869
vt 0.230175 0.066869
vt 0.230175 0.066869
vt 0.264476 0.066869
vt 0.264476 0.066869
vt 0.264476 0.066869
vt 0.264476 0.066869
vt 0.203714 0.066869
vt 0.203714 0.066869
vt 0.203714 0.066869
vt 0.203714 0.066869
vt 0.169412 0.066869
vt 0.169412 0.066869
vt 0.169412 0.066869
vt 0.169412 0.066869
vt 0.203714 0.066869
vt 0.203714 0.066869
vt 0.203714 0.066869
vt 0.203714 0.066869
vt 0.264476 0.066869
vt 0.264476 0.066869
vt 0.264476 0.066869
vt 0.264476 0.066869
vt 0.169413 0.066869
vt 0.169413 0.066869
vt 0.169413 0.066869
vt 0.169413 0.066869
vt 0.264476 0.066869
vt 0.264476 0.066869
vt 0.264476 0.066869
vt 0.264476 0.066869
vt 0.169412 0.066869
vt 0.169412 0.066869
vt 0.169413 0.066869
vt 0.169413 0.066869
vt 0.203714 0.181273
vt 0.203714 0.181273
vt 0.203714 0.181273
vt 0.203714 0.181273
vt 0.419014 0.060758
vt 0.419014 0.060758
vt 0.419014 0.060758
vt 0.419014 0.060758
vt 0.358252 0.060758
vt 0.358252 0.060758
vt 0.358252 0.060758
vt 0.358252 0.060758
vt 0.323950 0.060758
vt 0.323950 0.060758
vt 0.323950 0.060758
vt 0.323950 0.060758
vt 0.230175 0.181273
vt 0.230175 0.181273
vt 0.230175 0.181273
vt 0.230175 0.181273
vt 0.230175 0.181273
vt 0.230175 0.181273
vt 0.230175 0.181273
vt 0.230175 0.181273
vt 0.264476 0.181273
vt 0.264476 0.181273
vt 0.264476 0.181273
vt 0.264476 0.181273
vt 0.203714 0.181273
vt 0.203714 0.181273
vt 0.203714 0.181273
vt 0.203714 0.181273
vt 0.169412 0.181273
vt 0.169412 0.181273
vt 0.169412 0.181273
vt 0.169412 0.181273
vt 0.203714 0.181273
vt 0.203714 0.181273
vt 0.203714 0.181273
vt 0.203714 0.181273
vt 0.264476 0.181273
vt 0.264476 0.181273
vt 0.264476 0.181273
vt 0.264476 0.181273
vt 0.169413 0.181273
vt 0.169413 0.181273
vt 0.169413 0.181273
vt 0.169413 0.181273
vt 0.264476 0.181273
vt 0.264476 0.181273
vt 0.264476 0.181273
vt 0.264476 0.181273
vt 0.169412 0.181273
vt 0.169412 0.181273
vt 0.169413 0.181273
vt 0.169413 0.181273
vn -1.000000 0.000010 0.000000
vn -1.000000 0.000010 0.000000
vn -1.000000 0.000010 0.000000
vn -1.000000 0.000010 0.000000
vn -0.000000 1.000000 0.000000
vn -0.000000 1.000000 0.000000
vn -0.000000 1.000000 0.000000
vn -0.000000 1.000000 0.000000
vn -0.000000 1.000000 0.000000
vn 1.000000 0.000000 0.000000
vn 1.000000 0.000000 0.000000
vn 1.000000 0.000000 0.000000
vn 1.000000 0.000000 0.000000
vn 0.000000 -1.000000 0.000000
vn 0.000000 -1.000000 0.000000
vn 0.000000 -1.000000 0.000000
vn 0.000000 -1.000000 0.000000
vn 0.000000 0.000000 1.000000
vn 0.405398 0.068090 0.911601
vn 0.405398 0.068090 0.911601
vn 0.000000 0.000000 1.000000
vn 0.000000 0.000000 -1.000000
vn 0.000000 0.000000 -1.000000
vn 0.000000 0.000000 -1.000000
vn 0.000000 0.000000 -1.000000
vn 0.000001 -1.000000 0.000000
vn 0.000001 -1.000000 0.000000
vn 0.000001 -1.000000 0.000000
vn 0.000001 -1.000000 0.000000
vn -0.000000 -1.000000 0.000000
vn -0.000000 -1.000000 0.000000
vn -0.000000 -1.000000 0.000000
vn -0.000000 -1.000000 0.000000
vn 0.000000 -1.000000 0.000000
vn 0.000000 -1.000000 0.000000
vn 0.000000 -1.000000 0.000000
vn 0.000000 -1.000000 0.000000
vn -0.000000 -1.000000 0.000000
vn -0.000000 -1.000000 0.000000
vn -0.000000 -1.000000 0.000000
vn -0.000000 -1.000000 0.000000
vn -1.000000 -0.000001 0.000000
vn -1.000000 -0.000001 0.000000
vn -1.000000 -0.000001 0.000000
vn -1.000000 -0.000001 0.000000
vn 1.000000 -0.000001 0.000000
vn 1.000000 -0.000001 0.000000
vn 1.000000 -0.000001 0.000000
vn 1.000000 -0.000001 0.000000
vn 0.000000 0.000000 1.000000
vn 0.000000 0.000000 1.000000
vn 0.000000 0.000000 1.000000
vn 0.000000 0.000000 1.000000
vn -0.000000 0.000000 1.000000
vn -0.000000 0.000000 1.000000
vn -0.000000 0.000000 1.000000
vn -0.000000 0.000000 1.000000
vn 0.000000 0.000000 1.000000
vn 0.000000 0.000000 1.000000
vn 0.000000 0.000000 1.000000
vn 0.000000 0.000000 1.000000
vn 0.000000 0.000000 1.000000
vn 0.000000 0.000000 1.000000
vn 0.000000 0.000000 1.000000
vn 0.000000 0.000000 1.000000
vn 0.000000 0.000000 1.000000
vn 0.000000 0.000000 -1.000000
vn 0.000000 0.000000 -1.000000
vn 0.000000 0.000000 -1.000000
vn 0.000000 0.000000 -1.000000
vn 0.000000 0.000000 -1.000000
vn 0.000000 0.000000 -1.000000
vn 0.000000 0.000000 -1.000000
vn 0.000000 0.000000 -1.000000
vn 0.000000 0.000000 -1.000000
vn 0.000000 0.000000 -1.000000
vn 0.000000 0.000000 -1.000000
vn 0.000000 0.000000 -1.000000
vn 0.000000 0.000000 -1.000000
vn 0.000000 0.000000 -1.000000
vn 0.000000 0.000000 -1.000000
vn 0.000000 0.000000 -1.000000
vn 0.000000 1.000000 0.000000
vn 0.000000 1.000000 0.000000
vn 0.000000 1.000000 0.000000
vn 0.000000 1.000000 0.000000
vn -1.000000 0.000002 0.000000
vn -1.000000 0.000002 0.000000
vn -1.000000 0.000002 0.000000
vn -1.000000 0.000002 0.000000
vn -0.000000 -1.000000 0.000000
vn -0.000000 -1.000000 0.000000
vn -0.000000 -1.000000 0.000000
vn -0.000000 -1.000000 0.000000
vn 1.000000 0.000002 0.000000
vn 1.000000 0.000002 0.000000
vn 1.000000 0.000002 0.000000
vn 1.000000 0.000002 0.000000
vn -0.194741 0.027304 0.980475
vn -0.194741 0.027304 0.980475
vn -0.000000 0.000000 1.000000
vn -0.000000 0.000000 1.000000
vn 0.405398 0.068090 0.911601
vn 0.405398 0.068090 0.911601
vn 0.005202 0.286229 0.958147
vn -0.000802 0.286613 0.958046
vn -0.000802 0.286613 0.958046
vn 0.005202 0.286229 0.958147
vn -0.194741 0.027304 0.980475
vn -0.194741 0.027304 0.980475
vn 0.000000 -1.000000 -0.000001
vn 0.000000 -1.000000 -0.000001
vn 0.000000 -1.000000 -0.000001
vn 0.000000 -1.000000 -0.000001
vn -0.000000 1.000000 0.000000
vn -0.000000 1.000000 0.000000
vn 0.000000 1.000000 0.000000
vn 0.000000 1.000000 0.000000
vn -0.887218 0.000000 -0.461350
vn -0.887218 0.000000 -0.461350
vn -0.887218 0.000000 -0.461350
vn -0.887218 0.000000 -0.461350
vn 0.461349 0.000000 -0.887219
vn 0.461349 0.000000 -0.887219
vn 0.461349 0.000000 -0.887219
vn 0.461349 0.000000 -0.887219
vn 0.887219 0.000000 0.461349
vn 0.887219 0.000000 0.461349
vn 0.887219 0.000000 0.461349
vn 0.887219 0.000000 0.461349
vn -0.461349 0.000000 0.887219
vn -0.461349 0.000000 0.887219
vn -0.461349 0.000000 0.887219
vn -0.461349 0.000000 0.887219
vn 0.000000 1.000000 0.000000
vn 0.000000 1.000000 0.000000
vn 0.000000 1.000000 0.000000
vn 0.000000 1.000000 0.000000
vn 0.000000 -1.000000 0.000000
vn 0.000000 -1.000000 0.000000
vn 0.000000 -1.000000 0.000000
vn 0.000000 -1.000000 0.000000
vn 0.461348 0.000009 -0.887219
vn 0.461348 0.000009 -0.887219
vn 0.461348 0.000009 -0.887219
vn 0.461348 0.000009 -0.887219
vn 0.887219 -0.000028 0.461348
vn 0.887219 -0.000028 0.461348
vn 0.887219 -0.000028 0.461348
vn 0.887219 -0.000028 0.461348
vn -0.461349 -0.000010 0.887219
vn -0.461349 -0.000010 0.887219
vn -0.461349 -0.000010 0.887219
vn -0.461349 -0.000010 0.887219
vn 0.887219 0.000029 0.461348
vn 0.887219 0.000029 0.461348
vn 0.887219 0.000029 0.461348
vn 0.887219 0.000029 0.461348
vn 0.461347 -0.000009 -0.887220
vn 0.461347 -0.000009 -0.887220
vn 0.461347 -0.000009 -0.887220
vn 0.461347 -0.000009 -0.887220
vn -0.461349 0.000010 0.887219
vn -0.461349 0.000010 0.887219
vn -0.461349 0.000010 0.887219
vn -0.461349 0.000010 0.887219
vn 0.461324 0.000000 -0.887232
vn 0.461324 0.000000 -0.887232
vn 0.461324 0.000000 -0.887232
vn 0.461324 0.000000 -0.887232
vn -0.461356 0.000000 0.887215
vn -0.461356 0.000000 0.887215
vn -0.461356 0.000000 0.887215
vn -0.461356 0.000000 0.887215
vn -0.527621 0.000000 0.849480
vn -0.527621 0.000000 0.849480
vn -0.527621 0.000000 0.849480
vn -0.527621 0.000000 0.849480
vn -0.849479 0.000000 -0.527622
vn -0.849479 0.000000 -0.527622
vn -0.849479 0.000000 -0.527622
vn -0.849479 0.000000 -0.527622
vn 0.527620 0.000000 -0.849481
vn 0.527620 0.000000 -0.849481
vn 0.527620 0.000000 -0.849481
vn 0.527620 0.000000 -0.849481
vn 0.849480 0.000000 0.527621
vn 0.849480 0.000000 0.527621
vn 0.849480 0.000000 0.527621
vn 0.849480 0.000000 0.527621
vn 0.000000 1.000000 -0.000000
vn 0.000000 1.000000 -0.000000
vn 0.000000 1.000000 -0.000000
vn 0.000000 1.000000 -0.000000
vn 0.000000 -1.000000 0.000000
vn 0.000000 -1.000000 0.000000
vn 0.000000 -1.000000 0.000000
vn 0.000000 -1.000000 0.000000
vn -0.849480 -0.000013 -0.527622
vn -0.849480 -0.000013 -0.527622
vn -0.849480 -0.000013 -0.527622
vn -0.849480 -0.000013 -0.527622
vn 0.527620 -0.000018 -0.849480
vn 0.527620 -0.000018 -0.849480
vn 0.527620 -0.000018 -0.849480
vn 0.527620 -0.000018 -0.849480
vn 0.849480 0.000002 0.527621
vn 0.849480 0.000002 0.527621
vn 0.849480 0.000002 0.527621
vn 0.849480 0.000002 0.527621
vn 0.527620 0.000018 -0.849480
vn 0.527620 0.000018 -0.849480
vn 0.527620 0.000018 -0.849480
vn 0.527620 0.000018 -0.849480
vn -0.849479 0.000013 -0.527622
vn -0.849480 0.000013 -0.527622
vn -0.849479 0.000013 -0.527622
vn -0.849479 0.000013 -0.527622
vn 0.849480 -0.000002 0.527621
vn 0.849480 -0.000002 0.527621
vn 0.849480 -0.000002 0.527621
vn 0.849480 -0.000002 0.527621
vn -0.849478 0.000000 -0.527624
vn -0.849478 0.000000 -0.527624
vn -0.849478 0.000000 -0.527624
vn -0.849478 0.000000 -0.527624
vn 0.849478 0.000000 0.527624
vn 0.849478 0.000000 0.527624
vn 0.849478 0.000000 0.527624
vn 0.849478 0.000000 0.527624
s off
f 9/26/1 10/73/2 4/21/3 3/17/4
f 3/3/5 4/15/6 26/83/7 27/85/8 5/18/9
f 5/5/10 6/16/11 11/80/12 12/77/13
f 7/7/14 8/23/15 2/10/16 1/9/17
f 10/28/18 25/99/19 26/84/20 4/4/21
f 12/78/22 9/75/23 3/22/24 5/14/25
f 13/34/26 14/71/27 10/27/28 9/76/29
f 28/98/30 15/69/31 11/30/32 30/92/33
f 12/32/34 11/29/35 15/37/36 16/65/37
f 16/66/38 13/67/39 9/25/40 12/31/41
f 1/20/42 2/2/43 14/35/44 13/68/45
f 16/40/46 15/70/47 8/8/48 7/24/49
f 2/19/50 8/11/51 17/60/52 18/50/53
f 8/11/54 15/38/55 19/62/56 17/60/57
f 15/38/58 28/93/59 14/36/60 20/56/61 19/62/62
f 14/36/63 2/19/64 18/50/65 20/56/66
f 7/13/67 1/1/68 22/57/69 21/51/70
f 1/1/71 13/33/72 23/63/73 22/57/74
f 13/33/75 16/39/76 24/53/77 23/63/78
f 16/39/79 7/13/80 21/51/81 24/53/82
f 18/41/83 17/52/84 21/45/85 22/49/86
f 17/42/87 19/54/88 24/48/89 21/59/90
f 19/43/91 20/64/92 23/47/93 24/61/94
f 20/44/95 18/58/96 22/46/97 23/55/98
f 29/94/99 30/91/100 11/79/101 6/12/102
f 26/100/103 25/81/104 28/87/105 27/96/106
f 27/86/107 28/97/108 30/95/109 29/90/110
f 14/72/111 28/88/112 25/82/113 10/74/114
f 5/18/115 27/85/116 29/89/117 6/6/118
f 32/101/119 34/102/120 33/103/121 31/104/122
f 43/105/123 44/106/124 39/107/125 42/108/126
f 39/109/127 40/110/128 41/111/129 42/112/130
f 40/113/131 45/114/132 46/115/133 41/116/134
f 34/117/135 32/118/136 38/119/137 36/120/138
f 37/121/139 31/122/140 33/123/141 35/124/142
f 39/125/143 44/126/144 34/127/145 36/128/146
f 40/129/147 39/130/148 36/131/149 38/132/150
f 32/133/151 45/134/152 40/135/153 38/136/154
f 35/137/155 42/138/156 41/139/157 37/140/158
f 33/141/159 43/142/160 42/143/161 35/144/162
f 37/145/163 41/146/164 46/147/165 31/148/166
f 34/149/167 44/150/168 43/151/169 33/152/170
f 45/153/171 32/154/172 31/155/173 46/156/174
f 48/157/175 50/158/176 49/159/177 47/160/178
f 59/161/179 60/162/180 55/163/181 58/164/182
f 55/165/183 56/166/184 57/167/185 58/168/186
f 56/169/187 61/170/188 62/171/189 57/172/190
f 50/173/191 48/174/192 54/175/193 52/176/194
f 53/177/195 47/178/196 49/179/197 51/180/198
f 55/181/199 60/182/200 50/183/201 52/184/202
f 56/185/203 55/186/204 52/187/205 54/188/206
f 48/189/207 61/190/208 56/191/209 54/192/210
f 51/193/211 58/194/212 57/195/213 53/196/214
f 49/197/215 59/198/216 58/199/217 51/200/218
f 53/201/219 57/202/220 62/203/221 47/204/222
f 50/205/223 60/206/224 59/207/225 49/208/226
f 61/209/227 48/210/228 47/211/229 62/212/230
